<svg id="Layer_1" data-name="Layer 1" xmlns="http://www.w3.org/2000/svg" viewBox="0 0 460 420"><defs><style>.cls-1{fill:#017335;}.cls-2{fill:#fff;}.cls-3{fill:#ad9f39;}.cls-4{fill:#03537e;}.cls-5{fill:none;stroke:#fff;stroke-miterlimit:10;}</style></defs><title>FlowChartaCodd</title><rect class="cls-1" x="180" width="100" height="40"/><path class="cls-2" d="M466.79,247.54v4.23h4.89v-4.23H473v10.11h-1.32v-4.74h-4.89v4.74h-1.3V247.54h1.3Z" transform="translate(-270 -234)"/><path class="cls-2" d="M481.79,254a3.55,3.55,0,0,1-3.61,3.85,3.45,3.45,0,0,1-3.48-3.73,3.55,3.55,0,0,1,3.6-3.85A3.44,3.44,0,0,1,481.79,254ZM476,254c0,1.59.92,2.79,2.21,2.79s2.21-1.18,2.21-2.82c0-1.23-.62-2.79-2.18-2.79S476,252.66,476,254Z" transform="translate(-270 -234)"/><path class="cls-2" d="M483.46,252.35c0-.75,0-1.36-0.06-2h1.15l0.06,1.17h0a2.5,2.5,0,0,1,2.28-1.33,2.15,2.15,0,0,1,2.06,1.46h0a3,3,0,0,1,.81-0.94,2.48,2.48,0,0,1,1.6-.51c1,0,2.38.63,2.38,3.15v4.27h-1.29v-4.11c0-1.4-.51-2.23-1.57-2.23a1.71,1.71,0,0,0-1.56,1.2,2.18,2.18,0,0,0-.1.66v4.48H488V253.3c0-1.16-.51-2-1.51-2a1.8,1.8,0,0,0-1.64,1.32,1.83,1.83,0,0,0-.1.65v4.38h-1.29v-5.29Z" transform="translate(-270 -234)"/><path class="cls-2" d="M496.7,254.26a2.33,2.33,0,0,0,2.49,2.52,4.77,4.77,0,0,0,2-.37l0.23,0.95a5.88,5.88,0,0,1-2.42.45,3.37,3.37,0,0,1-3.57-3.66c0-2.19,1.29-3.92,3.4-3.92,2.37,0,3,2.08,3,3.42a5.06,5.06,0,0,1,0,.62h-5.1Zm3.87-.95a1.88,1.88,0,0,0-1.83-2.15,2.19,2.19,0,0,0-2,2.15h3.85Z" transform="translate(-270 -234)"/><path class="cls-2" d="M506.71,247.66a15.13,15.13,0,0,1,2.5-.19,4.15,4.15,0,0,1,2.83.84,2.72,2.72,0,0,1,.88,2.12,3,3,0,0,1-.78,2.16,4.19,4.19,0,0,1-3.09,1.11,4.49,4.49,0,0,1-1-.09v4h-1.3v-10Zm1.3,4.88a4.37,4.37,0,0,0,1.08.1c1.58,0,2.54-.77,2.54-2.16s-0.95-2-2.38-2a5.48,5.48,0,0,0-1.23.1v3.93Z" transform="translate(-270 -234)"/><path class="cls-2" d="M518.27,257.65l-0.11-.92h0a2.7,2.7,0,0,1-2.22,1.08,2.07,2.07,0,0,1-2.22-2.08c0-1.75,1.56-2.71,4.36-2.7v-0.15a1.5,1.5,0,0,0-1.65-1.68,3.62,3.62,0,0,0-1.89.54l-0.3-.87a4.51,4.51,0,0,1,2.39-.65c2.22,0,2.76,1.52,2.76,3v2.71a10.14,10.14,0,0,0,.12,1.74h-1.2Zm-0.2-3.71c-1.44,0-3.08.23-3.08,1.64a1.17,1.17,0,0,0,1.25,1.26,1.81,1.81,0,0,0,1.75-1.21,1.38,1.38,0,0,0,.08-0.42v-1.26Z" transform="translate(-270 -234)"/><path class="cls-2" d="M527.74,250.39c0,0.52-.06,1.11-0.06,2v4.21c0,1.66-.33,2.68-1,3.31a3.85,3.85,0,0,1-2.64.87,4.68,4.68,0,0,1-2.41-.6l0.33-1a4.09,4.09,0,0,0,2.13.57c1.35,0,2.34-.71,2.34-2.54V256.4h0a2.59,2.59,0,0,1-2.31,1.22,3.25,3.25,0,0,1-3.09-3.54c0-2.46,1.61-3.85,3.27-3.85a2.41,2.41,0,0,1,2.26,1.26h0l0.06-1.1h1.16Zm-1.37,2.86a1.86,1.86,0,0,0-.08-0.6,1.9,1.9,0,0,0-1.84-1.4c-1.26,0-2.16,1.06-2.16,2.74,0,1.43.72,2.61,2.15,2.61a1.93,1.93,0,0,0,1.83-1.35,2.32,2.32,0,0,0,.1-0.71v-1.31Z" transform="translate(-270 -234)"/><path class="cls-2" d="M530.6,254.26a2.33,2.33,0,0,0,2.49,2.52,4.77,4.77,0,0,0,2-.37l0.23,0.95a5.88,5.88,0,0,1-2.42.45,3.37,3.37,0,0,1-3.57-3.66c0-2.19,1.29-3.92,3.41-3.92,2.37,0,3,2.08,3,3.42a5.06,5.06,0,0,1,0,.62h-5.1Zm3.87-.95a1.88,1.88,0,0,0-1.83-2.15,2.19,2.19,0,0,0-2,2.15h3.85Z" transform="translate(-270 -234)"/><rect class="cls-3" y="140" width="100" height="40"/><path class="cls-2" d="M313.61,395.22l-1,3.18h-1.35l3.44-10.11h1.57l3.45,10.11h-1.39l-1.08-3.18h-3.58Zm3.31-1-1-2.91c-0.22-.66-0.37-1.26-0.52-1.84h0c-0.15.6-.31,1.21-0.51,1.83l-1,2.92h3Z" transform="translate(-270 -234)"/><path class="cls-2" d="M321.07,387.75h1.32V398.4h-1.32V387.75Z" transform="translate(-270 -234)"/><path class="cls-2" d="M324.61,387.75h1.32V398.4h-1.32V387.75Z" transform="translate(-270 -234)"/><rect class="cls-3" y="200" width="100" height="40"/><path class="cls-2" d="M300.3,456.81a4.63,4.63,0,0,0,2.34.66c1.33,0,2.11-.7,2.11-1.72s-0.54-1.48-1.9-2c-1.65-.58-2.67-1.44-2.67-2.86s1.31-2.74,3.27-2.74a4.6,4.6,0,0,1,2.23.49l-0.36,1.06a4,4,0,0,0-1.92-.48,1.64,1.64,0,0,0-1.91,1.52c0,0.94.62,1.41,2,1.95,1.71,0.66,2.58,1.49,2.58,3s-1.15,2.91-3.54,2.91a5.22,5.22,0,0,1-2.58-.65Z" transform="translate(-270 -234)"/><path class="cls-2" d="M307.83,453.51c0-.93,0-1.68-0.06-2.37H309l0.06,1.25h0a2.85,2.85,0,0,1,2.58-1.41c1.75,0,3.08,1.48,3.08,3.69,0,2.61-1.59,3.9-3.3,3.9a2.55,2.55,0,0,1-2.24-1.14h0v3.94h-1.31v-7.86Zm1.31,1.93a3,3,0,0,0,.06.54,2,2,0,0,0,2,1.54c1.4,0,2.2-1.14,2.2-2.8,0-1.46-.76-2.7-2.16-2.7a2.11,2.11,0,0,0-2,1.63,2.14,2.14,0,0,0-.09.54v1.24Z" transform="translate(-270 -234)"/><path class="cls-2" d="M322.93,454.71a3.55,3.55,0,0,1-3.61,3.85,3.45,3.45,0,0,1-3.48-3.73,3.55,3.55,0,0,1,3.6-3.85A3.44,3.44,0,0,1,322.93,454.71Zm-5.76.08c0,1.59.92,2.79,2.21,2.79s2.21-1.18,2.21-2.82c0-1.23-.62-2.79-2.18-2.79S317.17,453.41,317.17,454.79Z" transform="translate(-270 -234)"/><path class="cls-2" d="M324.6,453.41c0-.85,0-1.59-0.06-2.27h1.15l0,1.42h0.06a2.18,2.18,0,0,1,2-1.59,1.44,1.44,0,0,1,.38,0v1.25a2,2,0,0,0-.45,0,1.85,1.85,0,0,0-1.77,1.69,3.69,3.69,0,0,0-.06.62v3.87H324.6v-5Z" transform="translate(-270 -234)"/><path class="cls-2" d="M331.45,449.06v2.08h1.89v1h-1.89v3.92c0,0.9.25,1.41,1,1.41a2.94,2.94,0,0,0,.77-0.09l0.06,1a3.23,3.23,0,0,1-1.17.18,1.83,1.83,0,0,1-1.43-.55,2.69,2.69,0,0,1-.51-1.89v-4H329v-1h1.13V449.4Z" transform="translate(-270 -234)"/><path class="cls-2" d="M334.65,457a3.46,3.46,0,0,0,1.74.52,1.17,1.17,0,0,0,1.41-1.08c0-.63-0.37-1-1.35-1.33-1.3-.47-1.92-1.19-1.92-2.06A2.24,2.24,0,0,1,337,451a3.62,3.62,0,0,1,1.79.45l-0.33,1A2.82,2.82,0,0,0,337,452a1.06,1.06,0,0,0-1.22,1c0,0.6.44,0.87,1.38,1.23,1.26,0.48,1.9,1.11,1.9,2.19,0,1.27-1,2.17-2.71,2.17a4.14,4.14,0,0,1-2-.5Z" transform="translate(-270 -234)"/><rect class="cls-3" y="260" width="100" height="40"/><path class="cls-2" d="M310.5,514c-0.08-1.41-.17-3.1-0.15-4.36h0c-0.35,1.19-.77,2.44-1.28,3.84l-1.78,4.9h-1l-1.63-4.81c-0.48-1.42-.88-2.73-1.17-3.93h0c0,1.26-.1,3-0.2,4.47L303,518.4h-1.24l0.7-10.11h1.67l1.73,4.89c0.42,1.25.77,2.35,1,3.4h0c0.25-1,.61-2.13,1.06-3.4l1.8-4.89h1.67L312,518.4h-1.27Z" transform="translate(-270 -234)"/><path class="cls-2" d="M320.11,516.42c0,0.75,0,1.41.06,2H319l-0.07-1.19h0a2.73,2.73,0,0,1-2.4,1.35c-1.14,0-2.5-.63-2.5-3.18v-4.25h1.32v4c0,1.38.42,2.31,1.62,2.31a1.91,1.91,0,0,0,1.74-1.2,1.94,1.94,0,0,0,.12-0.67v-4.46h1.32v5.28Z" transform="translate(-270 -234)"/><path class="cls-2" d="M322.12,517a3.46,3.46,0,0,0,1.74.52,1.17,1.17,0,0,0,1.41-1.08c0-.63-0.37-1-1.35-1.33-1.3-.47-1.92-1.19-1.92-2.06a2.24,2.24,0,0,1,2.5-2.13,3.62,3.62,0,0,1,1.79.45l-0.33,1a2.82,2.82,0,0,0-1.48-.42,1.06,1.06,0,0,0-1.22,1c0,0.6.44,0.87,1.38,1.23,1.26,0.48,1.9,1.11,1.9,2.19,0,1.27-1,2.17-2.71,2.17a4.14,4.14,0,0,1-2-.5Z" transform="translate(-270 -234)"/><path class="cls-2" d="M329.71,509.1a0.82,0.82,0,0,1-1.63,0,0.8,0.8,0,0,1,.82-0.82A0.78,0.78,0,0,1,329.71,509.1Zm-1.47,9.3v-7.26h1.32v7.26h-1.32Z" transform="translate(-270 -234)"/><path class="cls-2" d="M336.93,518.13a4.86,4.86,0,0,1-2.08.42,3.45,3.45,0,0,1-3.62-3.7,3.69,3.69,0,0,1,3.9-3.85,4.41,4.41,0,0,1,1.83.38l-0.3,1a3.06,3.06,0,0,0-1.53-.35,2.74,2.74,0,0,0,0,5.46,3.75,3.75,0,0,0,1.62-.36Z" transform="translate(-270 -234)"/><rect class="cls-3" y="320" width="100" height="40"/><path class="cls-2" d="M298.38,578.9l-2.56-10.11h1.38l1.2,5.11c0.3,1.26.57,2.52,0.75,3.49h0c0.17-1,.48-2.21.82-3.51l1.35-5.1h1.36l1.23,5.13c0.29,1.2.56,2.4,0.71,3.46h0c0.21-1.11.49-2.23,0.81-3.49l1.33-5.1h1.33l-2.86,10.11h-1.36l-1.27-5.26a30.31,30.31,0,0,1-.66-3.3h0a31.51,31.51,0,0,1-.78,3.3l-1.44,5.26h-1.36Z" transform="translate(-270 -234)"/><path class="cls-2" d="M315.45,575.21a3.55,3.55,0,0,1-3.61,3.85,3.45,3.45,0,0,1-3.48-3.73,3.55,3.55,0,0,1,3.6-3.85A3.44,3.44,0,0,1,315.45,575.21Zm-5.76.08c0,1.59.92,2.79,2.21,2.79s2.21-1.18,2.21-2.82c0-1.23-.62-2.79-2.18-2.79S309.69,573.91,309.69,575.29Z" transform="translate(-270 -234)"/><path class="cls-2" d="M317.11,573.6c0-.75,0-1.36-0.06-2h1.15l0.06,1.17h0a2.5,2.5,0,0,1,2.28-1.33,2.15,2.15,0,0,1,2.06,1.46h0a3,3,0,0,1,.81-0.94,2.48,2.48,0,0,1,1.6-.51c1,0,2.38.63,2.38,3.15v4.27h-1.29v-4.11c0-1.4-.51-2.23-1.57-2.23a1.71,1.71,0,0,0-1.56,1.2,2.18,2.18,0,0,0-.1.66v4.48h-1.29v-4.35c0-1.16-.51-2-1.51-2a1.8,1.8,0,0,0-1.64,1.32,1.83,1.83,0,0,0-.1.65v4.38h-1.29V573.6Z" transform="translate(-270 -234)"/><path class="cls-2" d="M330.36,575.51a2.33,2.33,0,0,0,2.49,2.52,4.77,4.77,0,0,0,2-.37l0.23,0.95a5.88,5.88,0,0,1-2.42.45,3.37,3.37,0,0,1-3.57-3.66c0-2.19,1.29-3.92,3.4-3.92,2.37,0,3,2.08,3,3.42a5,5,0,0,1,0,.62h-5.1Zm3.87-.95a1.88,1.88,0,0,0-1.83-2.15,2.19,2.19,0,0,0-2,2.15h3.85Z" transform="translate(-270 -234)"/><path class="cls-2" d="M337.14,573.6c0-.75,0-1.36-0.06-2h1.17l0.07,1.2h0a2.67,2.67,0,0,1,2.4-1.37c1,0,2.56.6,2.56,3.09v4.33H342v-4.19c0-1.17-.44-2.14-1.68-2.14a1.88,1.88,0,0,0-1.77,1.35,1.9,1.9,0,0,0-.09.62v4.36h-1.32V573.6Z" transform="translate(-270 -234)"/><rect class="cls-3" y="380" width="100" height="40"/><path class="cls-2" d="M311.62,634c0,3.48-2.12,5.32-4.69,5.32s-4.54-2.07-4.54-5.13,2-5.31,4.69-5.31S311.62,631,311.62,634Zm-7.84.17c0,2.16,1.17,4.09,3.22,4.09s3.24-1.9,3.24-4.2c0-2-1.05-4.11-3.23-4.11S303.77,631.94,303.77,634.16Z" transform="translate(-270 -234)"/><path class="cls-2" d="M315.11,629.81v2.08H317v1h-1.89v3.92c0,0.9.25,1.41,1,1.41a2.94,2.94,0,0,0,.77-0.09l0.06,1a3.23,3.23,0,0,1-1.17.18,1.83,1.83,0,0,1-1.43-.55,2.69,2.69,0,0,1-.51-1.89v-4H312.7v-1h1.13v-1.74Z" transform="translate(-270 -234)"/><path class="cls-2" d="M318.49,628.5h1.32V633h0a2.45,2.45,0,0,1,.94-0.93,2.72,2.72,0,0,1,1.35-.37c1,0,2.54.6,2.54,3.1v4.32h-1.32V635c0-1.17-.43-2.16-1.68-2.16a1.9,1.9,0,0,0-1.77,1.32,1.59,1.59,0,0,0-.09.63v4.38h-1.32V628.5Z" transform="translate(-270 -234)"/><path class="cls-2" d="M327.55,635.76a2.33,2.33,0,0,0,2.49,2.52,4.77,4.77,0,0,0,2-.37l0.23,0.95a5.88,5.88,0,0,1-2.42.45,3.37,3.37,0,0,1-3.57-3.66c0-2.19,1.29-3.92,3.4-3.92,2.37,0,3,2.08,3,3.42a5,5,0,0,1,0,.62h-5.1Zm3.87-.95a1.88,1.88,0,0,0-1.83-2.15,2.19,2.19,0,0,0-2,2.15h3.85Z" transform="translate(-270 -234)"/><path class="cls-2" d="M334.33,634.16c0-.85,0-1.59-0.06-2.27h1.15l0,1.42h0.06a2.18,2.18,0,0,1,2-1.59,1.44,1.44,0,0,1,.38,0V633a2,2,0,0,0-.45,0,1.85,1.85,0,0,0-1.77,1.69,3.69,3.69,0,0,0-.06.62v3.87h-1.31v-5Z" transform="translate(-270 -234)"/><rect class="cls-4" y="80" width="100" height="40"/><path class="cls-2" d="M306.17,337.95a9.4,9.4,0,0,1-3.1.56,4.75,4.75,0,0,1-5.19-5.1c0-3,2.08-5.22,5.47-5.22a6.25,6.25,0,0,1,2.52.46l-0.31,1.06a5.24,5.24,0,0,0-2.23-.44,3.78,3.78,0,0,0-4.06,4.06c0,2.56,1.54,4.08,3.9,4.08a4.25,4.25,0,0,0,1.74-.27v-3h-2.05v-1h3.33v4.86Z" transform="translate(-270 -234)"/><path class="cls-2" d="M312.27,338.4l-0.1-.92h0a2.7,2.7,0,0,1-2.22,1.08,2.07,2.07,0,0,1-2.22-2.08c0-1.75,1.56-2.71,4.36-2.7v-0.15a1.5,1.5,0,0,0-1.65-1.68,3.62,3.62,0,0,0-1.89.54l-0.3-.87a4.51,4.51,0,0,1,2.39-.65c2.22,0,2.76,1.52,2.76,3v2.71a10.19,10.19,0,0,0,.12,1.74h-1.2Zm-0.19-3.71c-1.44,0-3.08.23-3.08,1.64a1.17,1.17,0,0,0,1.25,1.26,1.81,1.81,0,0,0,1.75-1.21,1.38,1.38,0,0,0,.08-0.42v-1.26Z" transform="translate(-270 -234)"/><path class="cls-2" d="M315.48,327.75h1.32V338.4h-1.32V327.75Z" transform="translate(-270 -234)"/><path class="cls-2" d="M319,327.75h1.32V338.4H319V327.75Z" transform="translate(-270 -234)"/><path class="cls-2" d="M323.29,335a2.33,2.33,0,0,0,2.49,2.52,4.77,4.77,0,0,0,2-.37L328,338.1a5.88,5.88,0,0,1-2.42.45,3.37,3.37,0,0,1-3.57-3.66c0-2.19,1.29-3.92,3.4-3.92,2.37,0,3,2.08,3,3.42a5,5,0,0,1,0,.62h-5.1Zm3.87-.95a1.88,1.88,0,0,0-1.83-2.15,2.19,2.19,0,0,0-2,2.15h3.85Z" transform="translate(-270 -234)"/><path class="cls-2" d="M330.07,333.41c0-.85,0-1.59-0.06-2.27h1.15l0,1.42h0.06a2.18,2.18,0,0,1,2-1.59,1.44,1.44,0,0,1,.38,0v1.25a2,2,0,0,0-.45,0,1.85,1.85,0,0,0-1.77,1.69,3.69,3.69,0,0,0-.06.62v3.87h-1.31v-5Z" transform="translate(-270 -234)"/><path class="cls-2" d="M335.83,331.14l1.59,4.29c0.17,0.48.34,1,.46,1.48h0c0.14-.44.29-1,0.47-1.52l1.44-4.26h1.4l-2,5.17c-0.95,2.49-1.59,3.77-2.49,4.54a3.58,3.58,0,0,1-1.62.85l-0.33-1.11a3.48,3.48,0,0,0,1.15-.65,4,4,0,0,0,1.11-1.47,0.94,0.94,0,0,0,.1-0.31,1.15,1.15,0,0,0-.09-0.34l-2.69-6.69h1.44Z" transform="translate(-270 -234)"/><rect class="cls-4" x="120" y="80" width="100" height="40"/><path class="cls-2" d="M422.66,336.14l-1,3.18h-1.35l3.44-10.11h1.57l3.45,10.11h-1.4l-1.08-3.18h-3.58Zm3.31-1-1-2.91c-0.22-.66-0.37-1.26-0.52-1.84h0c-0.15.6-.31,1.21-0.51,1.83l-1,2.92h3Z" transform="translate(-270 -234)"/><path class="cls-2" d="M430.05,339.32c0-.5.06-1.23,0.06-1.87v-8.77h1.31v4.56h0a2.7,2.7,0,0,1,2.48-1.33c1.8,0,3.07,1.5,3.06,3.71,0,2.59-1.64,3.88-3.25,3.88a2.59,2.59,0,0,1-2.43-1.36h0l-0.06,1.2h-1.14Zm1.36-2.91a2.46,2.46,0,0,0,.06.48,2,2,0,0,0,2,1.54c1.38,0,2.2-1.12,2.2-2.79,0-1.46-.75-2.7-2.16-2.7a2.1,2.1,0,0,0-2,1.62,2.58,2.58,0,0,0-.08.54v1.31Z" transform="translate(-270 -234)"/><path class="cls-2" d="M445.22,335.63a3.55,3.55,0,0,1-3.61,3.85,3.45,3.45,0,0,1-3.48-3.73,3.55,3.55,0,0,1,3.6-3.85A3.44,3.44,0,0,1,445.22,335.63Zm-5.76.08c0,1.59.92,2.79,2.21,2.79s2.21-1.18,2.21-2.82c0-1.23-.62-2.79-2.18-2.79S439.46,334.32,439.46,335.7Z" transform="translate(-270 -234)"/><path class="cls-2" d="M453,337.34c0,0.75,0,1.41.06,2h-1.17l-0.07-1.19h0a2.73,2.73,0,0,1-2.4,1.35c-1.14,0-2.5-.63-2.5-3.18v-4.25h1.32v4c0,1.38.42,2.31,1.62,2.31a1.91,1.91,0,0,0,1.74-1.2,1.94,1.94,0,0,0,.12-0.67v-4.46H453v5.28Z" transform="translate(-270 -234)"/><path class="cls-2" d="M456.74,330v2.08h1.89v1h-1.89V337c0,0.9.25,1.41,1,1.41a2.94,2.94,0,0,0,.77-0.09l0.06,1a3.23,3.23,0,0,1-1.17.18,1.83,1.83,0,0,1-1.43-.55,2.69,2.69,0,0,1-.51-1.89v-4h-1.12v-1h1.13v-1.74Z" transform="translate(-270 -234)"/><rect class="cls-4" x="240" y="80" width="100" height="40"/><path class="cls-2" d="M544.59,337.56a4.63,4.63,0,0,0,2.34.66c1.33,0,2.12-.7,2.12-1.72s-0.54-1.48-1.91-2c-1.65-.58-2.67-1.44-2.67-2.86s1.31-2.74,3.27-2.74a4.59,4.59,0,0,1,2.23.49l-0.36,1.06a4,4,0,0,0-1.92-.48,1.64,1.64,0,0,0-1.91,1.52c0,0.94.62,1.41,2,1.95,1.71,0.66,2.58,1.49,2.58,3s-1.16,2.91-3.54,2.91a5.22,5.22,0,0,1-2.58-.65Z" transform="translate(-270 -234)"/><path class="cls-2" d="M552.12,328.5h1.32V333h0a2.45,2.45,0,0,1,.95-0.93,2.71,2.71,0,0,1,1.35-.37c1,0,2.54.6,2.54,3.1v4.32H557V335c0-1.17-.43-2.16-1.68-2.16a1.9,1.9,0,0,0-1.77,1.32,1.59,1.59,0,0,0-.09.63v4.38h-1.32V328.5Z" transform="translate(-270 -234)"/><path class="cls-2" d="M567,335.46a3.55,3.55,0,0,1-3.62,3.85,3.45,3.45,0,0,1-3.48-3.73,3.54,3.54,0,0,1,3.6-3.85A3.44,3.44,0,0,1,567,335.46Zm-5.76.08c0,1.59.92,2.79,2.21,2.79s2.21-1.18,2.21-2.82c0-1.23-.62-2.79-2.18-2.79S561.25,334.16,561.25,335.54Z" transform="translate(-270 -234)"/><path class="cls-2" d="M568.68,334.26c0-.93,0-1.68-0.06-2.37h1.18l0.06,1.25h0a2.85,2.85,0,0,1,2.58-1.41c1.75,0,3.08,1.48,3.08,3.69,0,2.61-1.59,3.9-3.3,3.9a2.55,2.55,0,0,1-2.24-1.14h0v3.94h-1.3v-7.86Zm1.3,1.93a2.94,2.94,0,0,0,.06.54,2,2,0,0,0,2,1.54c1.4,0,2.21-1.14,2.21-2.8,0-1.46-.76-2.7-2.16-2.7a2.11,2.11,0,0,0-2,1.63,2.14,2.14,0,0,0-.09.54v1.24Z" transform="translate(-270 -234)"/><rect class="cls-4" x="360" y="80" width="100" height="40"/><path class="cls-2" d="M663.21,338.65a6.48,6.48,0,0,1-2.67.48,4.72,4.72,0,0,1-5-5.11,5,5,0,0,1,5.28-5.31,5.42,5.42,0,0,1,2.4.45l-0.31,1.06a4.76,4.76,0,0,0-2-.42c-2.37,0-3.95,1.52-3.95,4.17,0,2.48,1.42,4.06,3.88,4.06a5.22,5.22,0,0,0,2.13-.42Z" transform="translate(-270 -234)"/><path class="cls-2" d="M671.21,335.29a3.55,3.55,0,0,1-3.62,3.85,3.45,3.45,0,0,1-3.48-3.73,3.54,3.54,0,0,1,3.6-3.85A3.44,3.44,0,0,1,671.21,335.29Zm-5.76.08c0,1.59.92,2.79,2.21,2.79s2.21-1.18,2.21-2.82c0-1.23-.62-2.79-2.18-2.79S665.45,334,665.45,335.37Z" transform="translate(-270 -234)"/><path class="cls-2" d="M672.87,333.69c0-.75,0-1.36-0.06-2H674l0.08,1.2h0a2.67,2.67,0,0,1,2.4-1.37c1,0,2.57.6,2.57,3.09V339h-1.32V334.8c0-1.17-.44-2.14-1.68-2.14a1.88,1.88,0,0,0-1.77,1.35,1.91,1.91,0,0,0-.09.62V339h-1.32v-5.29Z" transform="translate(-270 -234)"/><path class="cls-2" d="M682.73,329.64v2.08h1.89v1h-1.89v3.92c0,0.9.25,1.41,1,1.41a2.94,2.94,0,0,0,.76-0.09l0.06,1a3.24,3.24,0,0,1-1.17.18,1.83,1.83,0,0,1-1.43-.55,2.69,2.69,0,0,1-.51-1.89v-4h-1.12v-1h1.13V330Z" transform="translate(-270 -234)"/><path class="cls-2" d="M690.12,339l-0.1-.92h0a2.71,2.71,0,0,1-2.22,1.08,2.07,2.07,0,0,1-2.22-2.08c0-1.75,1.56-2.71,4.37-2.7v-0.15a1.5,1.5,0,0,0-1.65-1.68,3.62,3.62,0,0,0-1.89.54l-0.3-.87a4.5,4.5,0,0,1,2.38-.65c2.22,0,2.76,1.52,2.76,3v2.71a10.24,10.24,0,0,0,.12,1.74h-1.2Zm-0.19-3.71c-1.44,0-3.08.23-3.08,1.64a1.17,1.17,0,0,0,1.25,1.26,1.81,1.81,0,0,0,1.75-1.21,1.38,1.38,0,0,0,.08-0.42v-1.26Z" transform="translate(-270 -234)"/><path class="cls-2" d="M698.51,338.71a4.85,4.85,0,0,1-2.08.42,3.45,3.45,0,0,1-3.62-3.7,3.69,3.69,0,0,1,3.9-3.85,4.41,4.41,0,0,1,1.83.38l-0.3,1a3.06,3.06,0,0,0-1.53-.35,2.74,2.74,0,0,0,0,5.46,3.75,3.75,0,0,0,1.62-.36Z" transform="translate(-270 -234)"/><path class="cls-2" d="M701.84,329.64v2.08h1.89v1h-1.89v3.92c0,0.9.25,1.41,1,1.41a2.94,2.94,0,0,0,.76-0.09l0.06,1a3.24,3.24,0,0,1-1.17.18,1.83,1.83,0,0,1-1.43-.55,2.69,2.69,0,0,1-.51-1.89v-4h-1.12v-1h1.13V330Z" transform="translate(-270 -234)"/><rect class="cls-3" x="240" y="140" width="100" height="40"/><path class="cls-2" d="M553.86,395.22l-1,3.18h-1.35l3.44-10.11h1.57l3.45,10.11h-1.39l-1.08-3.18h-3.58Zm3.31-1-1-2.91c-0.22-.66-0.37-1.26-0.52-1.84h0c-0.15.6-.31,1.21-0.51,1.83l-1,2.92h3Z" transform="translate(-270 -234)"/><path class="cls-2" d="M561.32,387.75h1.32V398.4h-1.32V387.75Z" transform="translate(-270 -234)"/><path class="cls-2" d="M564.86,387.75h1.32V398.4h-1.32V387.75Z" transform="translate(-270 -234)"/><rect class="cls-3" x="240" y="200" width="100" height="40"/><path class="cls-2" d="M540.47,456.81a4.62,4.62,0,0,0,2.34.66c1.33,0,2.11-.7,2.11-1.72s-0.54-1.48-1.9-2c-1.65-.58-2.67-1.44-2.67-2.86s1.3-2.74,3.27-2.74a4.6,4.6,0,0,1,2.24.49l-0.36,1.06a4,4,0,0,0-1.92-.48,1.64,1.64,0,0,0-1.91,1.52c0,0.94.62,1.41,2,1.95,1.71,0.66,2.58,1.49,2.58,3s-1.15,2.91-3.54,2.91a5.22,5.22,0,0,1-2.58-.65Z" transform="translate(-270 -234)"/><path class="cls-2" d="M548,453.51c0-.93,0-1.68-0.06-2.37h1.18l0.06,1.25h0a2.85,2.85,0,0,1,2.58-1.41c1.75,0,3.08,1.48,3.08,3.69,0,2.61-1.59,3.9-3.3,3.9a2.55,2.55,0,0,1-2.24-1.14h0v3.94H548v-7.86Zm1.31,1.93a3,3,0,0,0,.06.54,2,2,0,0,0,2,1.54c1.39,0,2.2-1.14,2.2-2.8,0-1.46-.76-2.7-2.16-2.7a2.11,2.11,0,0,0-2,1.63,2.14,2.14,0,0,0-.09.54v1.24Z" transform="translate(-270 -234)"/><path class="cls-2" d="M563.1,454.71a3.55,3.55,0,0,1-3.61,3.85,3.45,3.45,0,0,1-3.48-3.73,3.55,3.55,0,0,1,3.6-3.85A3.44,3.44,0,0,1,563.1,454.71Zm-5.76.08c0,1.59.92,2.79,2.21,2.79s2.21-1.18,2.21-2.82c0-1.23-.62-2.79-2.17-2.79S557.34,453.41,557.34,454.79Z" transform="translate(-270 -234)"/><path class="cls-2" d="M564.76,453.41c0-.85,0-1.59-0.06-2.27h1.16l0,1.42H566a2.18,2.18,0,0,1,2-1.59,1.44,1.44,0,0,1,.38,0v1.25a2,2,0,0,0-.45,0,1.85,1.85,0,0,0-1.77,1.69,3.69,3.69,0,0,0-.06.62v3.87h-1.31v-5Z" transform="translate(-270 -234)"/><path class="cls-2" d="M571.62,449.06v2.08h1.89v1h-1.89v3.92c0,0.9.25,1.41,1,1.41a2.94,2.94,0,0,0,.77-0.09l0.06,1a3.23,3.23,0,0,1-1.17.18,1.83,1.83,0,0,1-1.42-.55,2.69,2.69,0,0,1-.51-1.89v-4h-1.12v-1h1.13V449.4Z" transform="translate(-270 -234)"/><path class="cls-2" d="M574.81,457a3.46,3.46,0,0,0,1.74.52A1.17,1.17,0,0,0,578,456.5c0-.63-0.37-1-1.35-1.33-1.3-.47-1.92-1.19-1.92-2.06a2.24,2.24,0,0,1,2.5-2.13,3.62,3.62,0,0,1,1.79.45l-0.33,1a2.82,2.82,0,0,0-1.48-.42,1.06,1.06,0,0,0-1.22,1c0,0.6.44,0.87,1.38,1.23,1.26,0.48,1.9,1.11,1.9,2.19,0,1.27-1,2.17-2.71,2.17a4.14,4.14,0,0,1-2-.5Z" transform="translate(-270 -234)"/><rect class="cls-3" x="240" y="260" width="100" height="40"/><path class="cls-2" d="M550.33,514c-0.08-1.41-.17-3.1-0.15-4.36h0c-0.35,1.19-.77,2.44-1.28,3.84l-1.79,4.9h-1l-1.63-4.81c-0.48-1.42-.88-2.73-1.17-3.93h0c0,1.26-.11,3-0.2,4.47l-0.27,4.33h-1.24l0.7-10.11h1.67l1.73,4.89c0.42,1.25.76,2.35,1,3.4h0c0.25-1,.62-2.13,1.07-3.4l1.8-4.89h1.67l0.63,10.11h-1.28Z" transform="translate(-270 -234)"/><path class="cls-2" d="M559.94,516.42c0,0.75,0,1.41.06,2h-1.17l-0.08-1.19h0a2.73,2.73,0,0,1-2.4,1.35c-1.14,0-2.5-.63-2.5-3.18v-4.25h1.32v4c0,1.38.42,2.31,1.62,2.31a1.86,1.86,0,0,0,1.86-1.87v-4.46h1.32v5.28Z" transform="translate(-270 -234)"/><path class="cls-2" d="M562,517a3.46,3.46,0,0,0,1.74.52,1.17,1.17,0,0,0,1.41-1.08c0-.63-0.37-1-1.35-1.33-1.3-.47-1.92-1.19-1.92-2.06a2.24,2.24,0,0,1,2.5-2.13,3.62,3.62,0,0,1,1.79.45l-0.33,1a2.82,2.82,0,0,0-1.48-.42,1.06,1.06,0,0,0-1.22,1c0,0.6.44,0.87,1.38,1.23,1.26,0.48,1.9,1.11,1.9,2.19,0,1.27-1,2.17-2.71,2.17a4.14,4.14,0,0,1-2-.5Z" transform="translate(-270 -234)"/><path class="cls-2" d="M569.54,509.1a0.82,0.82,0,0,1-1.63,0,0.8,0.8,0,0,1,.83-0.82A0.78,0.78,0,0,1,569.54,509.1Zm-1.47,9.3v-7.26h1.32v7.26h-1.32Z" transform="translate(-270 -234)"/><path class="cls-2" d="M576.76,518.13a4.86,4.86,0,0,1-2.08.42,3.45,3.45,0,0,1-3.62-3.7A3.69,3.69,0,0,1,575,511a4.41,4.41,0,0,1,1.83.38l-0.3,1A3.05,3.05,0,0,0,575,512a2.74,2.74,0,0,0,0,5.46,3.75,3.75,0,0,0,1.62-.36Z" transform="translate(-270 -234)"/><rect class="cls-3" x="240" y="320" width="100" height="40"/><path class="cls-2" d="M538.38,578.4l-2.56-10.11h1.38l1.2,5.11c0.3,1.26.57,2.52,0.75,3.49h0c0.17-1,.48-2.21.83-3.51l1.35-5.1h1.37l1.23,5.13c0.29,1.2.56,2.4,0.71,3.46h0c0.21-1.11.5-2.23,0.81-3.49l1.33-5.1h1.33l-2.86,10.11h-1.37l-1.27-5.26a30.31,30.31,0,0,1-.66-3.3h0a31.53,31.53,0,0,1-.78,3.3l-1.44,5.26h-1.37Z" transform="translate(-270 -234)"/><path class="cls-2" d="M555.45,574.71a3.55,3.55,0,0,1-3.62,3.85,3.45,3.45,0,0,1-3.48-3.73A3.54,3.54,0,0,1,552,571,3.44,3.44,0,0,1,555.45,574.71Zm-5.76.08c0,1.59.92,2.79,2.21,2.79s2.21-1.18,2.21-2.82c0-1.23-.62-2.79-2.18-2.79S549.69,573.41,549.69,574.79Z" transform="translate(-270 -234)"/><path class="cls-2" d="M557.11,573.1c0-.75,0-1.36-0.06-2h1.15l0.06,1.17h0a2.5,2.5,0,0,1,2.28-1.33,2.15,2.15,0,0,1,2.06,1.46h0a3,3,0,0,1,.81-0.94,2.48,2.48,0,0,1,1.6-.51c1,0,2.38.63,2.38,3.15v4.27h-1.29v-4.11c0-1.4-.51-2.23-1.57-2.23a1.71,1.71,0,0,0-1.56,1.2,2.19,2.19,0,0,0-.1.66v4.48h-1.29v-4.35c0-1.16-.51-2-1.51-2a1.8,1.8,0,0,0-1.64,1.32,1.84,1.84,0,0,0-.1.65v4.38h-1.29V573.1Z" transform="translate(-270 -234)"/><path class="cls-2" d="M570.36,575a2.33,2.33,0,0,0,2.49,2.52,4.77,4.77,0,0,0,2-.37l0.23,0.95a5.88,5.88,0,0,1-2.42.45,3.37,3.37,0,0,1-3.57-3.66c0-2.19,1.29-3.92,3.41-3.92,2.37,0,3,2.08,3,3.42a5.06,5.06,0,0,1,0,.62h-5.1Zm3.87-.95a1.88,1.88,0,0,0-1.83-2.15,2.19,2.19,0,0,0-2,2.15h3.85Z" transform="translate(-270 -234)"/><path class="cls-2" d="M577.14,573.1c0-.75,0-1.36-0.06-2h1.17l0.07,1.2h0a2.67,2.67,0,0,1,2.4-1.37c1,0,2.56.6,2.56,3.09v4.33H582v-4.19c0-1.17-.43-2.14-1.68-2.14a1.93,1.93,0,0,0-1.86,2v4.36h-1.32V573.1Z" transform="translate(-270 -234)"/><rect class="cls-3" x="240" y="380" width="100" height="40"/><path class="cls-2" d="M551.37,634c0,3.48-2.12,5.32-4.7,5.32s-4.54-2.07-4.54-5.13,2-5.31,4.7-5.31S551.37,631,551.37,634Zm-7.84.17c0,2.16,1.17,4.09,3.22,4.09s3.24-1.9,3.24-4.2c0-2-1.05-4.11-3.23-4.11S543.52,631.94,543.52,634.16Z" transform="translate(-270 -234)"/><path class="cls-2" d="M554.86,629.81v2.08h1.89v1h-1.89v3.92c0,0.9.25,1.41,1,1.41a2.94,2.94,0,0,0,.77-0.09l0.06,1a3.23,3.23,0,0,1-1.17.18,1.83,1.83,0,0,1-1.42-.55,2.69,2.69,0,0,1-.51-1.89v-4h-1.12v-1h1.13v-1.74Z" transform="translate(-270 -234)"/><path class="cls-2" d="M558.24,628.5h1.32V633h0a2.45,2.45,0,0,1,.94-0.93,2.72,2.72,0,0,1,1.35-.37c1,0,2.54.6,2.54,3.1v4.32H563.1V635c0-1.17-.43-2.16-1.68-2.16a1.9,1.9,0,0,0-1.77,1.32,1.59,1.59,0,0,0-.09.63v4.38h-1.32V628.5Z" transform="translate(-270 -234)"/><path class="cls-2" d="M567.3,635.76a2.33,2.33,0,0,0,2.49,2.52,4.77,4.77,0,0,0,2-.37l0.23,0.95a5.88,5.88,0,0,1-2.42.45,3.37,3.37,0,0,1-3.57-3.66c0-2.19,1.29-3.92,3.41-3.92,2.37,0,3,2.08,3,3.42a5.06,5.06,0,0,1,0,.62h-5.1Zm3.87-.95a1.88,1.88,0,0,0-1.83-2.15,2.19,2.19,0,0,0-2,2.15h3.85Z" transform="translate(-270 -234)"/><path class="cls-2" d="M574.08,634.16c0-.85,0-1.59-0.06-2.27h1.15l0,1.42h0.06a2.18,2.18,0,0,1,2-1.59,1.44,1.44,0,0,1,.38,0V633a2,2,0,0,0-.45,0,1.85,1.85,0,0,0-1.77,1.69,3.69,3.69,0,0,0-.06.62v3.87h-1.3v-5Z" transform="translate(-270 -234)"/><polyline class="cls-5" points="229.5 40 229.5 60.5 409.5 60.5 409.5 80"/><line class="cls-5" x1="289.5" y1="60" x2="289.5" y2="80"/><polyline class="cls-5" points="230 60.5 49.5 60.5 49.5 80"/><line class="cls-5" x1="169.5" y1="80" x2="169.5" y2="60"/><line class="cls-5" x1="49.5" y1="120" x2="49.5" y2="140"/><line class="cls-5" x1="49.5" y1="180" x2="49.5" y2="200"/><line class="cls-5" x1="49.5" y1="240" x2="49.5" y2="260"/><line class="cls-5" x1="49.5" y1="300" x2="49.5" y2="320"/><line class="cls-5" x1="49.5" y1="360" x2="49.5" y2="380"/><line class="cls-5" x1="290.5" y1="120" x2="290.5" y2="140"/><line class="cls-5" x1="290.5" y1="180" x2="290.5" y2="200"/><line class="cls-5" x1="290.5" y1="240" x2="290.5" y2="260"/><line class="cls-5" x1="290.5" y1="300" x2="290.5" y2="320"/><line class="cls-5" x1="290.5" y1="360" x2="290.5" y2="380"/></svg>