<svg id="Layer_1" data-name="Layer 1" xmlns="http://www.w3.org/2000/svg" viewBox="0 0 1000 417.57"><defs><style>.cls-1{fill:#fff;}.cls-2{fill:#4a494a;}.cls-3{fill:#1c75bc;}.cls-4{fill:#bcbec0;}.cls-5{fill:#231f20;}.cls-6{fill:none;stroke:#fff;stroke-miterlimit:10;}</style></defs><title>BimmerUSinfoArch</title><rect width="1000" height="417.57"/><rect class="cls-1" x="142.56" y="215.93" width="90.37" height="23.75"/><rect class="cls-1" x="142.56" y="251.51" width="90.37" height="23.75"/><rect class="cls-1" x="142.56" y="287.09" width="90.37" height="23.75"/><rect class="cls-1" x="142.56" y="322.66" width="90.37" height="23.75"/><rect class="cls-1" x="279.37" y="215.93" width="90.37" height="23.75"/><rect class="cls-1" x="279.37" y="251.51" width="90.37" height="23.75"/><rect class="cls-1" x="279.37" y="287.09" width="90.37" height="23.75"/><rect class="cls-1" x="279.37" y="322.66" width="90.37" height="23.75"/><rect class="cls-1" x="404.92" y="215.93" width="90.37" height="23.75"/><rect class="cls-1" x="404.92" y="251.51" width="90.37" height="23.75"/><rect class="cls-1" x="404.92" y="287.09" width="90.37" height="23.75"/><rect class="cls-1" x="404.92" y="322.66" width="90.37" height="23.75"/><rect class="cls-1" x="535.62" y="215.93" width="90.37" height="23.75"/><rect class="cls-1" x="535.62" y="251.51" width="90.37" height="23.75"/><rect class="cls-1" x="535.62" y="287.09" width="90.37" height="23.75"/><rect class="cls-1" x="675.4" y="215.93" width="90.37" height="23.75"/><rect class="cls-1" x="660.88" y="251.51" width="119.39" height="23.75"/><rect class="cls-1" x="675.4" y="287.09" width="90.37" height="23.75"/><rect class="cls-1" x="675.4" y="322.66" width="90.37" height="23.75"/><rect class="cls-1" y="215.93" width="90.37" height="23.75"/><rect class="cls-1" y="251.51" width="90.37" height="23.75"/><rect class="cls-1" y="287.09" width="90.37" height="23.75"/><rect class="cls-1" y="322.66" width="90.37" height="23.75"/><rect class="cls-1" y="358.24" width="90.37" height="23.75"/><rect class="cls-1" y="393.82" width="90.37" height="23.75"/><rect class="cls-2" x="162.47" y="35.58" width="90.37" height="23.75"/><rect class="cls-2" x="162.47" width="90.37" height="23.75"/><rect class="cls-3" x="747.66" y="71.15" width="90.37" height="23.75"/><rect class="cls-3" x="747.66" y="105.75" width="90.37" height="23.75"/><rect class="cls-3" x="747.66" y="35.58" width="90.37" height="23.75"/><rect class="cls-3" x="747.66" width="90.37" height="23.75"/><rect class="cls-4" x="279.37" y="180.35" width="90.37" height="23.75"/><rect class="cls-4" x="404.92" y="180.35" width="90.37" height="23.75"/><rect class="cls-4" x="535.62" y="180.35" width="90.37" height="23.75"/><rect class="cls-4" x="675.4" y="180.35" width="90.37" height="23.75"/><rect class="cls-4" x="793.52" y="180.35" width="90.37" height="23.75"/><rect class="cls-4" x="909.63" y="180.35" width="90.37" height="23.75"/><rect class="cls-4" y="180.35" width="90.37" height="23.75"/><rect class="cls-4" x="142.56" y="180.35" width="90.37" height="23.75"/><path class="cls-5" d="M307.9,189.12a11,11,0,0,1,2.07-.18,3.63,3.63,0,0,1,2.4.64,1.84,1.84,0,0,1,.73,1.54,2.08,2.08,0,0,1-1.48,1.93h0a2.26,2.26,0,0,1,1.81,2.2,2.37,2.37,0,0,1-.75,1.76,4.4,4.4,0,0,1-3,.82,13.33,13.33,0,0,1-1.76-.1v-8.63h0Zm1.13,3.59h1a1.62,1.62,0,0,0,1.88-1.31q0-.08,0-0.16c0-1-.78-1.43-1.93-1.43a4.87,4.87,0,0,0-1,.08v2.83h0Zm0,4.2a6.07,6.07,0,0,0,1,0c1.17,0,2.25-.42,2.25-1.71s-1-1.68-2.26-1.68H309v3.39Z" transform="translate(0 0)"/><path class="cls-5" d="M314.91,193.44v-2h1v1.29h0a1.89,1.89,0,0,1,1.75-1.38,1.28,1.28,0,0,1,.32,0v1.08a1.74,1.74,0,0,0-.39,0,1.61,1.61,0,0,0-1.53,1.47,3.19,3.19,0,0,0,0,.54v3.36h-1.13V193.5Z" transform="translate(0 0)"/><path class="cls-5" d="M322.54,197.78l-0.09-.8h0a2.34,2.34,0,0,1-1.93.94,1.8,1.8,0,0,1-1.92-1.67s0-.1,0-0.15c0-1.52,1.35-2.35,3.78-2.34v-0.13a1.29,1.29,0,0,0-1.43-1.45,3.14,3.14,0,0,0-1.63.46l-0.26-.76a3.86,3.86,0,0,1,2.07-.57,2.24,2.24,0,0,1,2.39,2.57v2.35a8.82,8.82,0,0,0,.1,1.5h-1.08v0Zm-0.17-3.21c-1.29,0-2.66.19-2.66,1.41a1,1,0,0,0,.93,1.09h0.15a1.57,1.57,0,0,0,1.52-1.05,1.2,1.2,0,0,0,.06-0.36v-1.09h0Z" transform="translate(0 0)"/><path class="cls-5" d="M326.49,194.37h0c0.15-.22.37-0.49,0.57-0.72l1.85-2.17h1.35L327.83,194l2.76,3.7h-1.39l-2.17-3-0.59.66v2.37h-1.13v-9.23h1.13v5.82Z" transform="translate(0 0)"/><path class="cls-5" d="M332.1,194.83a2,2,0,0,0,1.84,2.18h0.32a4.14,4.14,0,0,0,1.75-.32l0.19,0.82a5.14,5.14,0,0,1-2.1.39,2.92,2.92,0,0,1-3.1-3.18,3.06,3.06,0,0,1,2.71-3.38l0.25,0a2.66,2.66,0,0,1,2.59,2.73q0,0.12,0,.24a4.29,4.29,0,0,1,0,.54H332.1Zm3.36-.82a1.63,1.63,0,0,0-1.38-1.85l-0.2,0a1.9,1.9,0,0,0-1.76,1.86h3.34Z" transform="translate(0 0)"/><path class="cls-5" d="M337.82,196.61a3,3,0,0,0,1.5.45,1,1,0,0,0,1.29-.94,1.29,1.29,0,0,0-1.17-1.16,2,2,0,0,1-1.66-1.79,1.94,1.94,0,0,1,2-1.86H340a3.14,3.14,0,0,1,1.54.39l-0.28.84a2.44,2.44,0,0,0-1.29-.36,0.91,0.91,0,0,0-1.05.86c0,0.51.37,0.76,1.2,1.07a1.93,1.93,0,0,1-.41,3.84l-0.29-.05a3.59,3.59,0,0,1-1.77-.42Z" transform="translate(0 0)"/><path class="cls-5" d="M419.72,196.39a4,4,0,0,0,2,.57,1.57,1.57,0,0,0,1.84-1.49c0-.82-0.46-1.29-1.65-1.75-1.43-.5-2.31-1.29-2.31-2.48a2.57,2.57,0,0,1,2.74-2.39h0.1a4,4,0,0,1,1.94.42l-0.31.93a3.5,3.5,0,0,0-1.66-.41,1.41,1.41,0,0,0-1.63,1.16s0,0.08,0,.13c0,0.82.53,1.29,1.75,1.68,1.48,0.58,2.24,1.29,2.24,2.57s-1,2.57-3.07,2.57a4.53,4.53,0,0,1-2.24-.57Z" transform="translate(0 0)"/><path class="cls-5" d="M431.52,196.05v1.72h-1l-0.06-1h0a2.37,2.37,0,0,1-2.08,1.17c-1,0-2.17-.54-2.17-2.75v-3.68h1.14V195c0,1.2.36,2,1.4,2a1.66,1.66,0,0,0,1.5-1,1.68,1.68,0,0,0,.1-0.59v-3.86h1.14v4.58h0Z" transform="translate(0 0)"/><path class="cls-5" d="M433.26,196.61a3,3,0,0,0,1.5.45,1,1,0,0,0,1.29-.94,1.29,1.29,0,0,0-1.17-1.16,2,2,0,0,1-1.66-1.79,1.94,1.94,0,0,1,2-1.86h0.16a3.14,3.14,0,0,1,1.54.39l-0.28.84a2.44,2.44,0,0,0-1.29-.36,0.91,0.91,0,0,0-1.05.86c0,0.51.37,0.76,1.2,1.07a1.93,1.93,0,0,1-.41,3.84l-0.29-.05a3.59,3.59,0,0,1-1.77-.42Z" transform="translate(0 0)"/><path class="cls-5" d="M438.57,193.53v-2.06h1v1.08h0a2.47,2.47,0,0,1,2.24-1.29,2.85,2.85,0,0,1,2.68,3q0,0.09,0,.18c0,2.26-1.38,3.38-2.87,3.38a2.21,2.21,0,0,1-1.94-1h0v3.42h-1.13v-6.82Zm1.13,1.67a2.57,2.57,0,0,0,0,.46,1.76,1.76,0,0,0,1.72,1.29c1.21,0,1.92-1,1.92-2.43a2,2,0,0,0-1.72-2.32l-0.16,0a1.83,1.83,0,0,0-1.74,1.41,1.86,1.86,0,0,0-.08.46v1.08Z" transform="translate(0 0)"/><path class="cls-5" d="M446.6,194.83a2,2,0,0,0,1.84,2.18h0.32a4.14,4.14,0,0,0,1.75-.32l0.19,0.82a5.14,5.14,0,0,1-2.1.39,2.92,2.92,0,0,1-3.1-3.18,3.06,3.06,0,0,1,2.71-3.38l0.25,0a2.66,2.66,0,0,1,2.59,2.73q0,0.12,0,.24a4.29,4.29,0,0,1,0,.54H446.6ZM450,194a1.63,1.63,0,0,0-1.38-1.85l-0.2,0a1.9,1.9,0,0,0-1.76,1.86H450Z" transform="translate(0 0)"/><path class="cls-5" d="M452.42,193.17v-1.71h1l0.06,1h0a2.31,2.31,0,0,1,2.08-1.18c0.87,0,2.22.51,2.22,2.67v3.75h-1.14v-3.63a1.53,1.53,0,0,0-1.16-1.83l-0.29,0a1.62,1.62,0,0,0-1.53,1.17,1.65,1.65,0,0,0-.08.54v3.78h-1.18v-4.59h0Z" transform="translate(0 0)"/><path class="cls-5" d="M459.54,196.61a3,3,0,0,0,1.5.45,1,1,0,0,0,1.29-.94,1.29,1.29,0,0,0-1.17-1.16,2,2,0,0,1-1.66-1.79,1.94,1.94,0,0,1,2-1.86h0.16a3.14,3.14,0,0,1,1.54.39l-0.28.84a2.44,2.44,0,0,0-1.29-.36,0.91,0.91,0,0,0-1.05.86c0,0.51.37,0.76,1.2,1.07a1.93,1.93,0,0,1-.41,3.84l-0.29-.05a3.59,3.59,0,0,1-1.77-.42Z" transform="translate(0 0)"/><path class="cls-5" d="M466.12,189.7a0.71,0.71,0,1,1-1.41,0,0.69,0.69,0,0,1,.67-0.72h0.05a0.68,0.68,0,0,1,.7.67S466.13,189.69,466.12,189.7Zm-1.29,8.06v-6.3H466v6.3h-1.14Z" transform="translate(0 0)"/><path class="cls-5" d="M473.59,194.58a3.07,3.07,0,0,1-2.79,3.33h-0.35a3,3,0,0,1-3-3q0-.14,0-0.28a3.07,3.07,0,0,1,2.79-3.33h0.33A3,3,0,0,1,473.59,194.58Zm-5,.06a2,2,0,1,0,1.94-2.44,2.15,2.15,0,0,0-2,2.31s0,0.09,0,.13h0Z" transform="translate(0 0)"/><path class="cls-5" d="M475,193.17v-1.71h1l0.06,1h0a2.31,2.31,0,0,1,2.08-1.18c0.87,0,2.22.51,2.22,2.67v3.75h-1.14v-3.63a1.53,1.53,0,0,0-1.16-1.83l-0.29,0a1.62,1.62,0,0,0-1.53,1.17,1.65,1.65,0,0,0-.08.54v3.78h-1.14v-4.59h0Z" transform="translate(0 0)"/><path class="cls-5" d="M691.84,195l-0.91,2.75h-1.17l3-8.77h1.41l3,8.77h-1.21L695,195h-3.16Zm2.88-.89-0.86-2.57c-0.19-.57-0.32-1.09-0.45-1.59h0c-0.13.51-.27,1.05-0.44,1.58l-0.86,2.57h2.61Z" transform="translate(0 0)"/><path class="cls-5" d="M702.68,197.53a4.2,4.2,0,0,1-1.81.36,3,3,0,0,1-3.14-3.21,3.2,3.2,0,0,1,3.05-3.35h0.33a3.86,3.86,0,0,1,1.58.32l-0.26.89a2.66,2.66,0,0,0-1.29-.3,2.38,2.38,0,0,0,0,4.73,3.25,3.25,0,0,0,1.4-.31Z" transform="translate(0 0)"/><path class="cls-5" d="M708.43,197.53a4.2,4.2,0,0,1-1.81.36,3,3,0,0,1-3.14-3.21,3.2,3.2,0,0,1,3.05-3.35h0.33a3.86,3.86,0,0,1,1.58.32l-0.26.89a2.66,2.66,0,0,0-1.29-.3,2.38,2.38,0,0,0,0,4.73,3.25,3.25,0,0,0,1.4-.31Z" transform="translate(0 0)"/><path class="cls-5" d="M710.32,194.83a2,2,0,0,0,1.84,2.18h0.32a4.14,4.14,0,0,0,1.75-.32l0.19,0.82a5.14,5.14,0,0,1-2.1.39,2.92,2.92,0,0,1-3.1-3.18,3.06,3.06,0,0,1,2.71-3.38l0.25,0a2.66,2.66,0,0,1,2.59,2.73q0,0.12,0,.24a4.43,4.43,0,0,1,0,.54h-4.44Zm3.36-.82a1.63,1.63,0,0,0-1.38-1.85l-0.2,0a1.9,1.9,0,0,0-1.76,1.86h3.34Z" transform="translate(0 0)"/><path class="cls-5" d="M716,196.61a3,3,0,0,0,1.5.45,1,1,0,0,0,1.29-.94,1.29,1.29,0,0,0-1.17-1.16,2,2,0,0,1-1.66-1.79,1.94,1.94,0,0,1,2-1.86h0.16a3.14,3.14,0,0,1,1.54.39l-0.28.84a2.44,2.44,0,0,0-1.29-.36,0.91,0.91,0,0,0-1.05.86c0,0.51.37,0.76,1.2,1.07a1.93,1.93,0,0,1-.41,3.84l-0.29-.05a3.59,3.59,0,0,1-1.77-.42Z" transform="translate(0 0)"/><path class="cls-5" d="M721.16,196.61a3,3,0,0,0,1.5.45,1,1,0,0,0,1.29-.94,1.29,1.29,0,0,0-1.17-1.16,2,2,0,0,1-1.66-1.79,1.94,1.94,0,0,1,2-1.86h0.16a3.14,3.14,0,0,1,1.54.39l-0.28.84a2.44,2.44,0,0,0-1.29-.36,0.91,0.91,0,0,0-1.05.86c0,0.51.37,0.76,1.2,1.07a1.93,1.93,0,0,1-.41,3.84l-0.29-.05a3.59,3.59,0,0,1-1.77-.42Z" transform="translate(0 0)"/><path class="cls-5" d="M732.21,194.58a3.07,3.07,0,0,1-2.79,3.33h-0.35a3,3,0,0,1-3-3.28,3.07,3.07,0,0,1,2.79-3.33h0.33A3,3,0,0,1,732.21,194.58Zm-5,.06a2,2,0,1,0,1.94-2.44,2.15,2.15,0,0,0-2,2.31s0,0.09,0,.13h0Z" transform="translate(0 0)"/><path class="cls-5" d="M733.65,193.44v-2h1v1.29h0a1.89,1.89,0,0,1,1.75-1.38,1.28,1.28,0,0,1,.32,0v1.08a1.74,1.74,0,0,0-.39,0,1.61,1.61,0,0,0-1.53,1.47,3.18,3.18,0,0,0,0,.54v3.36h-1.13V193.5Z" transform="translate(0 0)"/><path class="cls-5" d="M739.16,189.7a0.71,0.71,0,0,1-1.41,0,0.69,0.69,0,0,1,.67-0.72h0.05a0.68,0.68,0,0,1,.7.67S739.16,189.69,739.16,189.7Zm-1.29,8.06v-6.3H739v6.3h-1.14Z" transform="translate(0 0)"/><path class="cls-5" d="M741.63,194.83a2,2,0,0,0,1.84,2.18h0.32a4.14,4.14,0,0,0,1.75-.32l0.19,0.82a5.14,5.14,0,0,1-2.1.39,2.92,2.92,0,0,1-3.1-3.18,3.06,3.06,0,0,1,2.71-3.38l0.25,0a2.66,2.66,0,0,1,2.59,2.73q0,0.12,0,.24a4.43,4.43,0,0,1,0,.54h-4.44ZM745,194a1.63,1.63,0,0,0-1.38-1.85l-0.2,0a1.9,1.9,0,0,0-1.76,1.86H745Z" transform="translate(0 0)"/><path class="cls-5" d="M747.35,196.61a3,3,0,0,0,1.5.45,1,1,0,0,0,1.29-.94A1.29,1.29,0,0,0,749,195a2,2,0,0,1-1.66-1.79,1.94,1.94,0,0,1,2-1.86h0.16a3.14,3.14,0,0,1,1.54.39l-0.28.84a2.44,2.44,0,0,0-1.29-.36,0.91,0.91,0,0,0-1.05.86c0,0.51.37,0.76,1.2,1.07a1.93,1.93,0,0,1-.41,3.84l-0.29-.05a3.59,3.59,0,0,1-1.77-.42Z" transform="translate(0 0)"/><path class="cls-5" d="M821.46,197.78L819.23,189h1.2l1,4.44c0.26,1.09.49,2.19,0.66,3h0c0.14-.87.41-1.92,0.72-3L824,189h1.18l1.07,4.45c0.24,1,.48,2.08.62,3h0c0.18-1,.42-1.94.71-3l1.16-4.42h1.16l-2.48,8.77h-1.18l-1.11-4.56a26.85,26.85,0,0,1-.58-2.87h0a27.65,27.65,0,0,1-.68,2.87l-1.29,4.56h-1.13Z" transform="translate(0 0)"/><path class="cls-5" d="M830.88,188.53H832v3.93h0a2.13,2.13,0,0,1,.82-0.81,2.37,2.37,0,0,1,1.17-.32c0.85,0,2.2.51,2.2,2.69v3.74h-1.14v-3.61a1.54,1.54,0,0,0-1.17-1.84l-0.28,0a1.65,1.65,0,0,0-1.53,1.14,1.38,1.38,0,0,0-.08.54v3.86h-1.14v-9.28Z" transform="translate(0 0)"/><path class="cls-5" d="M838.74,194.83a2,2,0,0,0,1.84,2.18h0.32a4.14,4.14,0,0,0,1.75-.32l0.19,0.82a5.14,5.14,0,0,1-2.1.39,2.92,2.92,0,0,1-3.1-3.18,3.06,3.06,0,0,1,2.71-3.38l0.25,0a2.66,2.66,0,0,1,2.59,2.73q0,0.12,0,.24a4.43,4.43,0,0,1,0,.54h-4.44Zm3.36-.82a1.63,1.63,0,0,0-1.38-1.85l-0.2,0a1.9,1.9,0,0,0-1.76,1.86h3.34Z" transform="translate(0 0)"/><path class="cls-5" d="M845.25,194.83a2,2,0,0,0,1.84,2.18h0.32a4.14,4.14,0,0,0,1.75-.32l0.19,0.82a5.14,5.14,0,0,1-2.1.39,2.92,2.92,0,0,1-3.1-3.18,3.06,3.06,0,0,1,2.71-3.38l0.25,0a2.66,2.66,0,0,1,2.59,2.73q0,0.12,0,.24a4.43,4.43,0,0,1,0,.54h-4.44Zm3.36-.82a1.63,1.63,0,0,0-1.38-1.85l-0.2,0a1.9,1.9,0,0,0-1.76,1.86h3.34Z" transform="translate(0 0)"/><path class="cls-5" d="M851.12,188.53h1.2v9.23h-1.14v-9.23h-0.05Z" transform="translate(0 0)"/><path class="cls-5" d="M854,196.61a3,3,0,0,0,1.5.45,1,1,0,0,0,1.29-.94,1.29,1.29,0,0,0-1.17-1.16,2,2,0,0,1-1.66-1.79,1.94,1.94,0,0,1,2-1.86h0.16a3.14,3.14,0,0,1,1.54.39l-0.28.84a2.44,2.44,0,0,0-1.29-.36,0.91,0.91,0,0,0-1.05.86c0,0.51.37,0.76,1.2,1.07a1.93,1.93,0,0,1-.41,3.84l-0.29-.05a3.59,3.59,0,0,1-1.77-.42Z" transform="translate(0 0)"/><path class="cls-5" d="M944.9,190h-2.66v-1h6.43v1H946v7.81H944.9V190Z" transform="translate(0 0)"/><path class="cls-5" d="M950.78,189.7a0.71,0.71,0,0,1-1.41,0A0.69,0.69,0,0,1,950,189h0.05a0.68,0.68,0,0,1,.7.67S950.78,189.69,950.78,189.7Zm-1.29,8.06v-6.3h1.14v6.3h-1.14Z" transform="translate(0 0)"/><path class="cls-5" d="M952.54,193.44v-2h1v1.29h0a1.89,1.89,0,0,1,1.75-1.38,1.28,1.28,0,0,1,.32,0v1.08a1.74,1.74,0,0,0-.39,0,1.61,1.61,0,0,0-1.53,1.47,3.18,3.18,0,0,0,0,.54v3.36h-1.13V193.5Z" transform="translate(0 0)"/><path class="cls-5" d="M957.3,194.83a2,2,0,0,0,1.84,2.18h0.32a4.14,4.14,0,0,0,1.75-.32l0.19,0.82a5.14,5.14,0,0,1-2.1.39,2.92,2.92,0,0,1-3.1-3.18,3.06,3.06,0,0,1,2.71-3.38l0.25,0a2.66,2.66,0,0,1,2.59,2.73q0,0.12,0,.24a4.43,4.43,0,0,1,0,.54H957.3Zm3.36-.82a1.63,1.63,0,0,0-1.38-1.85l-0.2,0a1.9,1.9,0,0,0-1.76,1.86h3.34Z" transform="translate(0 0)"/><path class="cls-5" d="M963,196.61a3,3,0,0,0,1.5.45,1,1,0,0,0,1.29-.94,1.29,1.29,0,0,0-1.17-1.16,2,2,0,0,1-1.66-1.79,1.94,1.94,0,0,1,2-1.86h0.16a3.14,3.14,0,0,1,1.54.39l-0.28.84a2.44,2.44,0,0,0-1.29-.36,0.91,0.91,0,0,0-1.05.86c0,0.51.37,0.76,1.2,1.07a1.93,1.93,0,0,1-.41,3.84l-0.29-.05a3.59,3.59,0,0,1-1.77-.42Z" transform="translate(0 0)"/><path class="cls-5" d="M293.16,224.7a11,11,0,0,1,2.07-.18,3.61,3.61,0,0,1,2.4.64,1.84,1.84,0,0,1,.73,1.54,2.08,2.08,0,0,1-1.48,1.93h0a2.26,2.26,0,0,1,1.81,2.2,2.37,2.37,0,0,1-.75,1.76,4.41,4.41,0,0,1-3,.82,13.11,13.11,0,0,1-1.76-.1v-8.63h0Zm1.13,3.59h1a1.62,1.62,0,0,0,1.89-1.5c0-1-.78-1.43-1.93-1.43a4.87,4.87,0,0,0-1,.08v2.85Zm0,4.2a6,6,0,0,0,1,0c1.17,0,2.25-.42,2.25-1.71s-1-1.7-2.26-1.7h-1v3.34Z" transform="translate(0 0)"/><path class="cls-5" d="M300.17,229v-2h1v1.29h0a1.89,1.89,0,0,1,1.75-1.38,1.28,1.28,0,0,1,.32,0v1.12a1.7,1.7,0,0,0-.39,0,1.61,1.61,0,0,0-1.53,1.47,3.17,3.17,0,0,0,0,.53v3.36h-1.16V229Z" transform="translate(0 0)"/><path class="cls-5" d="M307.85,233.34l-0.09-.8h0a2.34,2.34,0,0,1-1.93.94,1.8,1.8,0,0,1-1.92-1.67s0-.1,0-0.15c0-1.52,1.35-2.35,3.78-2.34V229.2a1.29,1.29,0,0,0-1.43-1.45,3.14,3.14,0,0,0-1.63.46l-0.26-.76a3.86,3.86,0,0,1,2.07-.57,2.24,2.24,0,0,1,2.39,2.57v2.35a8.82,8.82,0,0,0,.1,1.5h-1Zm-0.17-3.21c-1.29,0-2.66.19-2.66,1.41a1,1,0,0,0,.93,1.09h0.15a1.57,1.57,0,0,0,1.52-1.05,1.2,1.2,0,0,0,.06-0.36v-1.09h0Z" transform="translate(0 0)"/><path class="cls-5" d="M311.76,229.94h0c0.15-.22.37-0.49,0.57-0.72l1.85-2.17h1.38l-2.43,2.57,2.76,3.7H314.5l-2.17-3-0.59.66v2.37H310.6v-9.23h1.13v5.82Z" transform="translate(0 0)"/><path class="cls-5" d="M317.4,230.41a2,2,0,0,0,1.84,2.18h0.32a4.14,4.14,0,0,0,1.75-.32l0.19,0.82a5.14,5.14,0,0,1-2.1.39,2.92,2.92,0,0,1-3.1-3.18,3.06,3.06,0,0,1,2.71-3.38l0.25,0a2.66,2.66,0,0,1,2.59,2.73q0,0.12,0,.24a4.28,4.28,0,0,1,0,.54H317.4Zm3.36-.82a1.63,1.63,0,0,0-1.38-1.85l-0.2,0a1.89,1.89,0,0,0-1.76,1.86h3.34Z" transform="translate(0 0)"/><path class="cls-5" d="M326,224.59h4.72v0.91h-3.59v2.92h3.32v0.94h-3.32v4H326v-8.74Z" transform="translate(0 0)"/><path class="cls-5" d="M332.11,224.11h1.14v9.23h-1.14v-9.23Z" transform="translate(0 0)"/><path class="cls-5" d="M340.44,231.63v1.71h-1l-0.06-1h0a2.37,2.37,0,0,1-2.08,1.17c-1,0-2.17-.54-2.17-2.75v-3.68h1.14v3.48c0,1.2.36,2,1.4,2a1.66,1.66,0,0,0,1.5-1,1.68,1.68,0,0,0,.1-0.59v-3.86h1.14v4.58h0Z" transform="translate(0 0)"/><path class="cls-5" d="M343.62,225.28a0.71,0.71,0,0,1-1.41,0,0.69,0.69,0,0,1,.67-0.72h0.05a0.68,0.68,0,0,1,.7.67S343.62,225.27,343.62,225.28Zm-1.29,8.06V227h1.14v6.3h-1.14Z" transform="translate(0 0)"/><path class="cls-5" d="M350.83,224.11v9.23h-1v-1.09h0a2.33,2.33,0,0,1-2.15,1.29,2.87,2.87,0,0,1-2.7-3q0-.09,0-0.18a3,3,0,0,1,2.61-3.36l0.22,0a2.11,2.11,0,0,1,1.9,1h0v-3.75h1.13v-0.05Zm-1.14,5.5a2,2,0,0,0,0-.48,1.68,1.68,0,0,0-1.66-1.29,2.1,2.1,0,0,0-1.91,2.27q0,0.08,0,.16a2,2,0,0,0,1.65,2.3l0.21,0a1.72,1.72,0,0,0,1.68-1.36,2,2,0,0,0,0-.49v-1.14Z" transform="translate(0 0)"/><path class="cls-5" d="M352.57,232.17a3,3,0,0,0,1.5.45,1,1,0,0,0,1.29-.94,1.29,1.29,0,0,0-1.17-1.16,2,2,0,0,1-1.66-1.79,1.94,1.94,0,0,1,2-1.84h0.12a3.14,3.14,0,0,1,1.54.39l-0.28.84a2.46,2.46,0,0,0-1.29-.36,0.91,0.91,0,0,0-1.05.86c0,0.51.37,0.76,1.2,1.07a1.93,1.93,0,0,1-.41,3.84l-0.29-.05a3.59,3.59,0,0,1-1.77-.42Z" transform="translate(0 0)"/><path class="cls-5" d="M310.08,268.64a5.61,5.61,0,0,1-2.31.41,4.1,4.1,0,0,1-4.33-4.44,4.36,4.36,0,0,1,4.1-4.6H308a4.69,4.69,0,0,1,2.08.39l-0.27.93a4.11,4.11,0,0,0-1.77-.36,3.27,3.27,0,0,0-3.42,3.61A3.19,3.19,0,0,0,308,268.1a4.53,4.53,0,0,0,1.85-.36Z" transform="translate(0 0)"/><path class="cls-5" d="M314.83,268.92l-0.09-.8h0a2.34,2.34,0,0,1-1.93.94,1.8,1.8,0,0,1-1.92-1.67s0-.1,0-0.15c0-1.52,1.35-2.35,3.78-2.34v-0.13a1.29,1.29,0,0,0-1.43-1.45,3.14,3.14,0,0,0-1.63.46l-0.26-.76a3.86,3.86,0,0,1,2.07-.57,2.24,2.24,0,0,1,2.39,2.57v2.35a8.82,8.82,0,0,0,.1,1.5h-1.08v0Zm-0.17-3.21c-1.29,0-2.66.19-2.66,1.41a1,1,0,0,0,.93,1.09h0.15a1.57,1.57,0,0,0,1.52-1.05,1.2,1.2,0,0,0,.06-0.36v-1.09h0Z" transform="translate(0 0)"/><path class="cls-5" d="M317.65,259.69h1.14v9.23h-1.14v-9.23Z" transform="translate(0 0)"/><path class="cls-5" d="M322,260.86a0.71,0.71,0,0,1-1.41,0,0.69,0.69,0,0,1,.67-0.72h0.05a0.68,0.68,0,0,1,.7.67S322,260.84,322,260.86Zm-1.29,8.06v-6.3h1.14v6.3h-1.14Z" transform="translate(0 0)"/><path class="cls-5" d="M323.75,264.68v-2.06h1v1.08h0a2.48,2.48,0,0,1,2.24-1.29,2.85,2.85,0,0,1,2.68,3q0,0.09,0,.18c0,2.26-1.38,3.38-2.87,3.38a2.21,2.21,0,0,1-1.94-1h0v3.42h-1.13v-6.75Zm1.13,1.67a2.57,2.57,0,0,0,0,.46,1.76,1.76,0,0,0,1.72,1.29c1.21,0,1.92-1,1.92-2.43a2,2,0,0,0-1.72-2.32l-0.16,0a1.83,1.83,0,0,0-1.74,1.41,1.86,1.86,0,0,0-.08.46v1.08Z" transform="translate(0 0)"/><path class="cls-5" d="M331.79,266a2,2,0,0,0,1.84,2.18H334a4.14,4.14,0,0,0,1.75-.32l0.19,0.82a5.14,5.14,0,0,1-2.1.39,2.92,2.92,0,0,1-3.1-3.18,3.06,3.06,0,0,1,2.71-3.38l0.25,0a2.66,2.66,0,0,1,2.59,2.73q0,0.12,0,.24a4.28,4.28,0,0,1,0,.54h-4.44Zm3.36-.82a1.63,1.63,0,0,0-1.38-1.85l-0.2,0a1.89,1.89,0,0,0-1.76,1.86h3.34Z" transform="translate(0 0)"/><path class="cls-5" d="M337.67,264.59v-2h1v1.29h0a1.89,1.89,0,0,1,1.75-1.38,1.28,1.28,0,0,1,.32,0v1.08a1.7,1.7,0,0,0-.39,0,1.61,1.61,0,0,0-1.53,1.47,3.18,3.18,0,0,0,0,.53V269h-1.13v-4.37h0Z" transform="translate(0 0)"/><path class="cls-5" d="M341.77,267.75a3,3,0,0,0,1.5.45,1,1,0,0,0,1.29-.94,1.29,1.29,0,0,0-1.17-1.16,2,2,0,0,1-1.66-1.79,1.94,1.94,0,0,1,2-1.86h0.16a3.14,3.14,0,0,1,1.54.39l-0.28.84a2.46,2.46,0,0,0-1.29-.36,0.91,0.91,0,0,0-1.05.86c0,0.51.37,0.76,1.2,1.07a1.93,1.93,0,0,1-.41,3.84l-0.29-.05a3.59,3.59,0,0,1-1.77-.42Z" transform="translate(0 0)"/><path class="cls-5" d="M312.86,295.84a13,13,0,0,1,2.17-.17,3.6,3.6,0,0,1,2.46.73,2.35,2.35,0,0,1,.77,1.84,2.57,2.57,0,0,1-.68,1.88,3.64,3.64,0,0,1-2.67,1A3.86,3.86,0,0,1,314,301v3.51h-1.13v-8.68Zm1.13,4.23a3.78,3.78,0,0,0,.94.09,1.88,1.88,0,0,0,2.2-1.88,1.74,1.74,0,0,0-2.07-1.71,4.8,4.8,0,0,0-1.07.09v3.42h0Z" transform="translate(0 0)"/><path class="cls-5" d="M322.89,304.5l-0.09-.8h0a2.34,2.34,0,0,1-1.93.94,1.8,1.8,0,0,1-1.92-1.67s0-.1,0-0.15c0-1.52,1.35-2.35,3.78-2.34v-0.13a1.29,1.29,0,0,0-1.43-1.45,3.15,3.15,0,0,0-1.63.46l-0.26-.76a3.86,3.86,0,0,1,2.07-.57,2.24,2.24,0,0,1,2.39,2.57V303a8.82,8.82,0,0,0,.1,1.5h-1Zm-0.17-3.21c-1.29,0-2.66.19-2.66,1.41a1,1,0,0,0,.93,1.09h0.15a1.57,1.57,0,0,0,1.52-1.05,1.2,1.2,0,0,0,.06-0.36v-1.09h0Z" transform="translate(0 0)"/><path class="cls-5" d="M331.12,295.27v9.23h-1v-1.09h0a2.33,2.33,0,0,1-2.15,1.29,2.87,2.87,0,0,1-2.7-3q0-.09,0-0.18a3,3,0,0,1,2.61-3.36l0.22,0a2.11,2.11,0,0,1,1.9,1h0v-3.75h1.14v-0.05Zm-1.14,5.5a2,2,0,0,0,0-.48,1.68,1.68,0,0,0-1.66-1.29,2.1,2.1,0,0,0-1.93,2.25v0.1a2,2,0,0,0,1.65,2.3l0.21,0a1.72,1.72,0,0,0,1.68-1.36,2,2,0,0,0,0-.49v-1.09Z" transform="translate(0 0)"/><path class="cls-5" d="M332.83,303.33a3,3,0,0,0,1.5.45,1,1,0,0,0,1.29-.94,1.29,1.29,0,0,0-1.17-1.16,2,2,0,0,1-1.66-1.79,1.94,1.94,0,0,1,2-1.86H335a3.14,3.14,0,0,1,1.54.39l-0.28.84a2.46,2.46,0,0,0-1.29-.36,0.91,0.91,0,0,0-1.05.86c0,0.51.37,0.76,1.2,1.07a1.93,1.93,0,0,1-.41,3.84l-0.29-.05a3.59,3.59,0,0,1-1.77-.42Z" transform="translate(0 0)"/><path class="cls-5" d="M308.05,331.43a11.82,11.82,0,0,1,2.17-.18,3.59,3.59,0,0,1,2.57.72,2.19,2.19,0,0,1,.69,1.66,2.3,2.3,0,0,1-1.65,2.24h0a2.19,2.19,0,0,1,1.29,1.77,14,14,0,0,0,.68,2.4h-1.17a11.44,11.44,0,0,1-.59-2.1,1.7,1.7,0,0,0-1.68-1.71h-1.15v3.86h-1.13v-8.65h0Zm1.13,4h1.16a1.72,1.72,0,0,0,2-1.66,1.68,1.68,0,0,0-2-1.63,4.68,4.68,0,0,0-1.12.1v3.2h0Z" transform="translate(0 0)"/><path class="cls-5" d="M320.76,336.88a3.07,3.07,0,0,1-2.79,3.33h-0.35a3,3,0,0,1-3-3q0-.14,0-0.28a3.07,3.07,0,0,1,2.79-3.33h0.33A3,3,0,0,1,320.76,336.88Zm-5,0a2,2,0,1,0,1.94-2.44,2.15,2.15,0,0,0-2,2.31q0,0.1,0,.19v-0.06Z" transform="translate(0 0)"/><path class="cls-5" d="M323.59,332v1.81h1.63v0.87h-1.63v3.39c0,0.78.22,1.29,0.86,1.29a2.57,2.57,0,0,0,.67-0.08v0.86a2.79,2.79,0,0,1-1,.15,1.58,1.58,0,0,1-1.29-.48,2.33,2.33,0,0,1-.44-1.63v-3.43h-1v-0.87h1v-1.63Z" transform="translate(0 0)"/><path class="cls-5" d="M332.12,336.88a3.07,3.07,0,0,1-2.79,3.33H329a3,3,0,0,1-3-3q0-.14,0-0.28a3.07,3.07,0,0,1,2.79-3.33h0.33A3,3,0,0,1,332.12,336.88Zm-5,0a2,2,0,1,0,1.94-2.44,2.15,2.15,0,0,0-2,2.31q0,0.1,0,.19v-0.06Z" transform="translate(0 0)"/><path class="cls-5" d="M333.58,335.75v-2h1v1.29h0a1.89,1.89,0,0,1,1.75-1.38,1.28,1.28,0,0,1,.32,0v1.11a1.7,1.7,0,0,0-.39,0,1.61,1.61,0,0,0-1.53,1.47,3.18,3.18,0,0,0,0,.53v3.36H333.6v-4.33Z" transform="translate(0 0)"/><path class="cls-5" d="M337.67,338.91a3,3,0,0,0,1.5.45,1,1,0,0,0,1.29-.94,1.29,1.29,0,0,0-1.17-1.16,2,2,0,0,1-1.66-1.79,1.94,1.94,0,0,1,2-1.86h0.16a3.14,3.14,0,0,1,1.54.39l-0.28.84a2.46,2.46,0,0,0-1.29-.36,0.91,0.91,0,0,0-1.05.86c0,0.51.37,0.76,1.2,1.07a1.93,1.93,0,0,1-.41,3.84l-0.29-.05a3.59,3.59,0,0,1-1.77-.42Z" transform="translate(0 0)"/><path class="cls-5" d="M565.07,193.66h-3.36v3.16h3.86v1h-4.92V189h4.73v1h-3.66v2.76h3.41v0.94h-0.05Z" transform="translate(0 0)"/><path class="cls-5" d="M567.42,191.48l0.9,1.35c0.23,0.35.42,0.68,0.64,1h0c0.21-.37.41-0.71,0.63-1l0.89-1.29h1.29l-2.15,3,2.21,3.25h-1.29l-0.93-1.41c-0.24-.36-0.45-0.72-0.68-1.09h0c-0.21.37-.42,0.72-0.67,1.09l-0.91,1.41h-1.29l2.24-3.21-2.13-3.09h1.29Z" transform="translate(0 0)"/><path class="cls-5" d="M572.9,188.53H574v3.93h0a2.13,2.13,0,0,1,.82-0.81,2.37,2.37,0,0,1,1.17-.32c0.85,0,2.2.51,2.2,2.69v3.74h-1.09v-3.61a1.54,1.54,0,0,0-1.17-1.84l-0.28,0a1.65,1.65,0,0,0-1.53,1.14,1.38,1.38,0,0,0-.08.54v3.86H572.9v-9.28Z" transform="translate(0 0)"/><path class="cls-5" d="M583.57,197.78l-0.09-.8h0a2.34,2.34,0,0,1-1.93.94,1.8,1.8,0,0,1-1.92-1.67s0-.1,0-0.15c0-1.52,1.35-2.35,3.78-2.34v-0.13a1.29,1.29,0,0,0-1.43-1.45,3.14,3.14,0,0,0-1.65.46l-0.26-.76a3.86,3.86,0,0,1,2.07-.57,2.24,2.24,0,0,1,2.39,2.57v2.35a8.88,8.88,0,0,0,.1,1.5h-1.07v0Zm-0.17-3.21c-1.29,0-2.66.19-2.66,1.41a1,1,0,0,0,.93,1.09h0.15a1.57,1.57,0,0,0,1.52-1.05,1.2,1.2,0,0,0,.06-0.36v-1.09h0Z" transform="translate(0 0)"/><path class="cls-5" d="M591.66,196.05v1.72h-1l-0.06-1h0a2.37,2.37,0,0,1-2.08,1.17c-1,0-2.17-.54-2.17-2.75v-3.68h1.14V195c0,1.2.36,2,1.4,2a1.61,1.61,0,0,0,1.61-1.61h0V191.5h1.14v4.58Z" transform="translate(0 0)"/><path class="cls-5" d="M593.4,196.61a3,3,0,0,0,1.5.45,1,1,0,0,0,1.29-.94A1.29,1.29,0,0,0,595,195a2,2,0,0,1-1.66-1.79,1.94,1.94,0,0,1,2-1.86h0.16a3.14,3.14,0,0,1,1.54.39l-0.28.84a2.44,2.44,0,0,0-1.29-.36,0.91,0.91,0,0,0-1.05.86c0,0.51.37,0.76,1.2,1.07a1.93,1.93,0,0,1-.41,3.84l-0.29-.05a3.59,3.59,0,0,1-1.77-.42Z" transform="translate(0 0)"/><path class="cls-5" d="M600.08,189.66v1.81h1.65v0.87h-1.65v3.39c0,0.78.22,1.29,0.86,1.29a2.57,2.57,0,0,0,.67-0.08v0.86a2.8,2.8,0,0,1-1,.15,1.58,1.58,0,0,1-1.29-.48,2.33,2.33,0,0,1-.44-1.63v-3.43h-1v-0.87H599v-1.5Z" transform="translate(0 0)"/><path class="cls-5" d="M432,231.93a4,4,0,0,0,2,.58,1.57,1.57,0,0,0,1.84-1.49c0-.82-0.46-1.29-1.65-1.75-1.43-.5-2.31-1.29-2.31-2.48a2.57,2.57,0,0,1,2.74-2.39h0.1a4,4,0,0,1,1.94.42l-0.31.93a3.5,3.5,0,0,0-1.66-.41,1.41,1.41,0,0,0-1.66,1.29c0,0.82.54,1.29,1.75,1.7,1.48,0.58,2.24,1.29,2.24,2.57s-1,2.57-3.07,2.57a4.53,4.53,0,0,1-2.24-.57Z" transform="translate(0 0)"/><path class="cls-5" d="M438.53,224.11h1.14v4h0a2.12,2.12,0,0,1,.82-0.81,2.37,2.37,0,0,1,1.17-.32c0.85,0,2.2.51,2.2,2.69v3.74h-1.14v-3.61a1.54,1.54,0,0,0-1.17-1.84l-0.28,0a1.65,1.65,0,0,0-1.53,1.14,1.38,1.38,0,0,0-.08.54v3.86h-1.13v-9.31Z" transform="translate(0 0)"/><path class="cls-5" d="M451.45,230.16a3.07,3.07,0,0,1-2.79,3.33h-0.35a3,3,0,0,1-3-3q0-.14,0-0.28a3.07,3.07,0,0,1,2.79-3.33h0.33A3,3,0,0,1,451.45,230.16Zm-5,0a2,2,0,1,0,1.94-2.44,2.15,2.15,0,0,0-2,2.3q0,0.1,0,.2v-0.06Z" transform="translate(0 0)"/><path class="cls-5" d="M457.38,233.11a4.22,4.22,0,0,1-1.81.36,3,3,0,0,1-3.14-3.21,3.2,3.2,0,0,1,3.05-3.35h0.33a3.86,3.86,0,0,1,1.58.32l-0.26.89a2.66,2.66,0,0,0-1.29-.3,2.38,2.38,0,0,0,0,4.73,3.25,3.25,0,0,0,1.4-.31Z" transform="translate(0 0)"/><path class="cls-5" d="M459.85,229.94h0c0.15-.22.37-0.49,0.57-0.72l1.85-2.17h1.38l-2.43,2.57,2.78,3.73H462.6l-2.17-3-0.59.66v2.37h-1.12v-9.23h1.13v5.82Z" transform="translate(0 0)"/><path class="cls-5" d="M464.66,232.17a3,3,0,0,0,1.5.45,1,1,0,0,0,1.29-.94,1.29,1.29,0,0,0-1.17-1.16,2,2,0,0,1-1.66-1.79,1.94,1.94,0,0,1,2-1.86h0.16a3.14,3.14,0,0,1,1.54.39l-0.28.84a2.46,2.46,0,0,0-1.29-.36,0.91,0.91,0,0,0-1.05.86c0,0.51.37,0.76,1.2,1.07a1.93,1.93,0,0,1-.41,3.84l-0.29-.05a3.59,3.59,0,0,1-1.77-.42Z" transform="translate(0 0)"/><path class="cls-5" d="M435.15,267.55a4,4,0,0,0,2,.58,1.57,1.57,0,0,0,1.84-1.49c0-.82-0.46-1.29-1.65-1.75-1.43-.5-2.31-1.29-2.31-2.48A2.57,2.57,0,0,1,437.8,260h0.1a4,4,0,0,1,1.94.42l-0.31.93a3.5,3.5,0,0,0-1.66-.41,1.41,1.41,0,0,0-1.66,1.29c0,0.82.54,1.29,1.75,1.7,1.48,0.58,2.24,1.29,2.24,2.57s-1,2.57-3.07,2.57a4.53,4.53,0,0,1-2.24-.57Z" transform="translate(0 0)"/><path class="cls-5" d="M443,260.82v1.81h1.68v0.87h-1.63v3.39c0,0.78.22,1.29,0.86,1.29a2.57,2.57,0,0,0,.67-0.08V269a2.79,2.79,0,0,1-1,.15,1.58,1.58,0,0,1-1.29-.48,2.33,2.33,0,0,1-.44-1.63v-3.43h-1v-0.87h1v-1.59Z" transform="translate(0 0)"/><path class="cls-5" d="M446,264.59v-2h1v1.29h0a1.89,1.89,0,0,1,1.75-1.38,1.28,1.28,0,0,1,.32,0v1.08a1.7,1.7,0,0,0-.39,0,1.61,1.61,0,0,0-1.53,1.47,3.18,3.18,0,0,0,0,.53V269H446v-4.37Z" transform="translate(0 0)"/><path class="cls-5" d="M455.46,267.21v1.71h-1l-0.06-1h0a2.37,2.37,0,0,1-2.08,1.17c-1,0-2.17-.54-2.17-2.75v-3.68h1.14v3.48c0,1.2.36,2,1.4,2a1.66,1.66,0,0,0,1.5-1,1.68,1.68,0,0,0,.1-0.59v-3.86h1.14v4.58h0Z" transform="translate(0 0)"/><path class="cls-5" d="M458.74,260.82v1.81h1.63v0.87h-1.63v3.39c0,0.78.22,1.29,0.86,1.29a2.57,2.57,0,0,0,.67-0.08V269a2.79,2.79,0,0,1-1,.15,1.58,1.58,0,0,1-1.29-.48,2.33,2.33,0,0,1-.44-1.63v-3.43h-1v-0.87h1v-1.59Z" transform="translate(0 0)"/><path class="cls-5" d="M461.51,267.75a3,3,0,0,0,1.5.45,1,1,0,0,0,1.29-.94,1.29,1.29,0,0,0-1.17-1.16,2,2,0,0,1-1.71-1.77,1.94,1.94,0,0,1,2-1.86h0.16a3.14,3.14,0,0,1,1.54.39l-0.28.84a2.46,2.46,0,0,0-1.29-.36,0.91,0.91,0,0,0-1.05.86c0,0.51.37,0.76,1.2,1.07a1.93,1.93,0,0,1-.41,3.84l-0.29-.05a3.59,3.59,0,0,1-1.77-.42Z" transform="translate(0 0)"/><path class="cls-5" d="M425.11,304.22a5.61,5.61,0,0,1-2.31.41,4.1,4.1,0,0,1-4.33-4.44,4.36,4.36,0,0,1,4.1-4.6H423a4.69,4.69,0,0,1,2.08.39l-0.27.93a4.11,4.11,0,0,0-1.77-.36,3.27,3.27,0,0,0-3.42,3.61,3.19,3.19,0,0,0,3.37,3.52,4.53,4.53,0,0,0,1.85-.36Z" transform="translate(0 0)"/><path class="cls-5" d="M432,301.37a3.07,3.07,0,0,1-2.79,3.33H428.9a3,3,0,0,1-3-3q0-.14,0-0.28a3.07,3.07,0,0,1,2.79-3.33H429A3,3,0,0,1,432,301.37Zm-5,0a2,2,0,1,0,1.94-2.44,2.15,2.15,0,0,0-2,2.32S427,301.33,427,301.37Z" transform="translate(0 0)"/><path class="cls-5" d="M434.76,296.44a0.71,0.71,0,0,1-1.41,0,0.69,0.69,0,0,1,.67-0.72h0.05a0.68,0.68,0,0,1,.7.67S434.76,296.42,434.76,296.44Zm-1.29,8.06v-6.3h1.14v6.3h-1.14Z" transform="translate(0 0)"/><path class="cls-5" d="M436.52,295.27h1.14v9.23h-1.14v-9.23Z" transform="translate(0 0)"/><path class="cls-5" d="M442.23,303.13a4,4,0,0,0,2,.58,1.57,1.57,0,0,0,1.84-1.49c0-.82-0.46-1.29-1.65-1.75-1.43-.5-2.31-1.29-2.31-2.48a2.57,2.57,0,0,1,2.74-2.39H445a4,4,0,0,1,1.94.42l-0.31.93a3.5,3.5,0,0,0-1.66-.41,1.41,1.41,0,0,0-1.66,1.29c0,0.82.54,1.29,1.75,1.7,1.48,0.58,2.24,1.29,2.24,2.57s-1,2.57-3.07,2.57a4.53,4.53,0,0,1-2.24-.57Z" transform="translate(0 0)"/><path class="cls-5" d="M448.76,300.26V298.2h1v1.08h0A2.48,2.48,0,0,1,452,298a2.85,2.85,0,0,1,2.68,3q0,0.09,0,.18c0,2.26-1.38,3.38-2.87,3.38a2.21,2.21,0,0,1-1.94-1h0V307h-1.13v-6.75Zm1.13,1.67a2.57,2.57,0,0,0,0,.46,1.76,1.76,0,0,0,1.72,1.29c1.21,0,1.92-1,1.92-2.43a2,2,0,0,0-1.72-2.32l-0.16,0a1.83,1.83,0,0,0-1.74,1.41,1.86,1.86,0,0,0-.08.46v1.08Z" transform="translate(0 0)"/><path class="cls-5" d="M456.16,300.17v-2h1v1.29h0a1.89,1.89,0,0,1,1.75-1.38,1.28,1.28,0,0,1,.32,0v1.08a1.7,1.7,0,0,0-.39,0,1.61,1.61,0,0,0-1.53,1.47,3.18,3.18,0,0,0,0,.53v3.36h-1.13v-4.33Z" transform="translate(0 0)"/><path class="cls-5" d="M461.74,296.44a0.71,0.71,0,0,1-1.41,0,0.69,0.69,0,0,1,.67-0.72H461a0.68,0.68,0,0,1,.7.67S461.74,296.42,461.74,296.44Zm-1.29,8.06v-6.3h1.14v6.3h-1.14Z" transform="translate(0 0)"/><path class="cls-5" d="M463.51,299.91V298.2h1l0.06,1h0a2.31,2.31,0,0,1,2.08-1.18c0.87,0,2.22.51,2.22,2.67v3.75h-1.18v-3.63a1.54,1.54,0,0,0-1.19-1.83l-0.27,0a1.68,1.68,0,0,0-1.61,1.71v3.78h-1.14V299.9h0Z" transform="translate(0 0)"/><path class="cls-5" d="M476.15,298.2v5.39a3.61,3.61,0,0,1-.9,2.88,3.34,3.34,0,0,1-2.29.76,4.06,4.06,0,0,1-2.1-.51l0.28-.87a3.55,3.55,0,0,0,1.85.49,1.89,1.89,0,0,0,2-2.2v-0.71h0a2.25,2.25,0,0,1-2,1.05,2.82,2.82,0,0,1-2.68-2.94s0-.09,0-0.13a3,3,0,0,1,2.68-3.33h0.16a2.1,2.1,0,0,1,2,1.09h0v-1h1ZM475,300.69a1.67,1.67,0,0,0-1.61-1.73h-0.05a2.06,2.06,0,0,0-1.9,2.21q0,0.09,0,.17a2,2,0,0,0,1.65,2.24l0.22,0a1.67,1.67,0,0,0,1.58-1.17,2,2,0,0,0,.09-0.62v-1.13h0Z" transform="translate(0 0)"/><path class="cls-5" d="M477.84,303.33a3,3,0,0,0,1.5.45,1,1,0,0,0,1.29-.94,1.29,1.29,0,0,0-1.17-1.16,2,2,0,0,1-1.66-1.79,1.94,1.94,0,0,1,2-1.86H480a3.14,3.14,0,0,1,1.54.39l-0.28.84a2.46,2.46,0,0,0-1.29-.36,0.91,0.91,0,0,0-1.05.86c0,0.51.37,0.76,1.2,1.07a1.93,1.93,0,0,1-.41,3.84l-0.29-.05a3.59,3.59,0,0,1-1.77-.42Z" transform="translate(0 0)"/><path class="cls-5" d="M424.13,338.66a4,4,0,0,0,2,.58,1.57,1.57,0,0,0,1.84-1.49c0-.82-0.46-1.29-1.65-1.75-1.43-.5-2.31-1.29-2.31-2.48a2.57,2.57,0,0,1,2.74-2.39h0.1a4,4,0,0,1,1.94.42l-0.31.93a3.5,3.5,0,0,0-1.66-.41,1.41,1.41,0,0,0-1.66,1.29c0,0.82.54,1.29,1.75,1.7,1.48,0.58,2.24,1.29,2.24,2.57s-1,2.57-3.07,2.57a4.53,4.53,0,0,1-2.24-.57Z" transform="translate(0 0)"/><path class="cls-5" d="M431,333.78l0.84,3.2c0.18,0.71.35,1.35,0.46,2h0c0.14-.64.35-1.29,0.57-2l1-3.21h1l1,3.15c0.23,0.76.41,1.41,0.57,2.06h0a19.07,19.07,0,0,1,.48-2l0.9-3.16h1.13l-2,6.3h-1l-1-3a20.91,20.91,0,0,1-.55-2.07h0a18.5,18.5,0,0,1-.58,2.08l-1,3h-1l-1.9-6.3H431Z" transform="translate(0 0)"/><path class="cls-5" d="M443.56,340.08l-0.09-.8h0a2.34,2.34,0,0,1-1.93.94,1.8,1.8,0,0,1-1.92-1.67s0-.1,0-0.15c0-1.52,1.35-2.35,3.78-2.34v-0.13a1.29,1.29,0,0,0-1.43-1.45,3.15,3.15,0,0,0-1.63.46l-0.26-.76a3.86,3.86,0,0,1,2.07-.57,2.24,2.24,0,0,1,2.39,2.57v2.35a8.82,8.82,0,0,0,.1,1.5h-1Zm-0.17-3.21c-1.29,0-2.66.19-2.66,1.41a1,1,0,0,0,.93,1.09h0.15a1.57,1.57,0,0,0,1.52-1.05,1.2,1.2,0,0,0,.06-0.36v-1.09h0Z" transform="translate(0 0)"/><path class="cls-5" d="M446.66,333.78L448,337.5c0.14,0.41.3,0.91,0.4,1.29h0c0.12-.37.24-0.86,0.4-1.29l1.29-3.69h1.21l-1.71,4.49a9.59,9.59,0,0,1-2.16,3.95,3.09,3.09,0,0,1-1.4.75l-0.28-1a3,3,0,0,0,1-.57,3.46,3.46,0,0,0,1-1.29,0.82,0.82,0,0,0,.09-0.27,1,1,0,0,0-.08-0.3l-2.33-5.8h1.29Z" transform="translate(0 0)"/><path class="cls-5" d="M455.17,331.43a11,11,0,0,1,2.07-.18,3.61,3.61,0,0,1,2.4.64,1.84,1.84,0,0,1,.73,1.54,2.08,2.08,0,0,1-1.48,1.93h0a2.26,2.26,0,0,1,1.81,2.2,2.37,2.37,0,0,1-.75,1.76,4.41,4.41,0,0,1-3,.82,13.11,13.11,0,0,1-1.76-.1v-8.63h0ZM456.3,335h1a1.62,1.62,0,0,0,1.88-1.31,1.6,1.6,0,0,0,0-.16c0-1-.78-1.43-1.93-1.43a4.87,4.87,0,0,0-1,.08V335h0Zm0,4.2a6,6,0,0,0,1,0c1.17,0,2.25-.42,2.25-1.71s-1-1.7-2.26-1.7h-1v3.34Z" transform="translate(0 0)"/><path class="cls-5" d="M465.66,340.08l-0.09-.8h0a2.34,2.34,0,0,1-1.93.94,1.8,1.8,0,0,1-1.92-1.67s0-.1,0-0.15c0-1.52,1.35-2.35,3.78-2.34v-0.13a1.29,1.29,0,0,0-1.43-1.45,3.15,3.15,0,0,0-1.63.46l-0.26-.76a3.86,3.86,0,0,1,2.07-.57,2.24,2.24,0,0,1,2.39,2.57v2.35a8.82,8.82,0,0,0,.1,1.5h-1.08v0Zm-0.17-3.21c-1.29,0-2.66.19-2.66,1.41a1,1,0,0,0,.93,1.09h0.15a1.57,1.57,0,0,0,1.52-1.05,1.2,1.2,0,0,0,.06-0.36v-1.09h0Z" transform="translate(0 0)"/><path class="cls-5" d="M468.44,335.75v-2h1v1.29h0a1.89,1.89,0,0,1,1.75-1.38,1.28,1.28,0,0,1,.32,0v1.11a1.7,1.7,0,0,0-.39,0,1.61,1.61,0,0,0-1.53,1.47,3.18,3.18,0,0,0,0,.53v3.36h-1.13v-4.33Z" transform="translate(0 0)"/><path class="cls-5" d="M472.54,338.91a3,3,0,0,0,1.5.45,1,1,0,0,0,1.29-.94,1.29,1.29,0,0,0-1.17-1.16,2,2,0,0,1-1.66-1.79,1.94,1.94,0,0,1,2-1.86h0.16a3.14,3.14,0,0,1,1.54.39l-0.28.84a2.46,2.46,0,0,0-1.29-.36,0.91,0.91,0,0,0-1.05.86c0,0.51.37,0.76,1.2,1.07a1.93,1.93,0,0,1-.41,3.84l-0.29-.05a3.59,3.59,0,0,1-1.77-.42Z" transform="translate(0 0)"/><path class="cls-5" d="M699.08,233.06a5.62,5.62,0,0,1-2.31.41,4.1,4.1,0,0,1-4.33-4.44,4.36,4.36,0,0,1,4.1-4.6H697a4.68,4.68,0,0,1,2.08.39l-0.27.93a4.12,4.12,0,0,0-1.76-.36,3.27,3.27,0,0,0-3.42,3.61,3.19,3.19,0,0,0,3.37,3.52,4.53,4.53,0,0,0,1.85-.36Z" transform="translate(0 0)"/><path class="cls-5" d="M703.85,233.34l-0.09-.8h0a2.34,2.34,0,0,1-1.93.94,1.8,1.8,0,0,1-1.92-1.67s0-.1,0-0.15c0-1.52,1.35-2.35,3.78-2.34V229.2a1.29,1.29,0,0,0-1.43-1.45,3.14,3.14,0,0,0-1.65.46l-0.26-.76a3.86,3.86,0,0,1,2.07-.57,2.24,2.24,0,0,1,2.39,2.57v2.35a8.89,8.89,0,0,0,.1,1.5h-1Zm-0.17-3.21c-1.29,0-2.66.19-2.66,1.41a1,1,0,0,0,.93,1.09h0.15a1.57,1.57,0,0,0,1.52-1.05,1.19,1.19,0,0,0,.06-0.36v-1.09Z" transform="translate(0 0)"/><path class="cls-5" d="M706.63,229v-2h1v1.29h0a1.89,1.89,0,0,1,1.75-1.38,1.28,1.28,0,0,1,.32,0v1.12a1.7,1.7,0,0,0-.39,0,1.61,1.61,0,0,0-1.53,1.47,3.18,3.18,0,0,0,0,.53v3.36h-1.16V229Z" transform="translate(0 0)"/><path class="cls-5" d="M719.81,233.06a5.62,5.62,0,0,1-2.31.41,4.1,4.1,0,0,1-4.33-4.44,4.36,4.36,0,0,1,4.1-4.6h0.48a4.68,4.68,0,0,1,2.08.39l-0.27.93a4.12,4.12,0,0,0-1.76-.36,3.27,3.27,0,0,0-3.42,3.61,3.19,3.19,0,0,0,3.37,3.52,4.53,4.53,0,0,0,1.85-.36Z" transform="translate(0 0)"/><path class="cls-5" d="M726.74,230.16a3.07,3.07,0,0,1-2.79,3.33H723.6a3,3,0,0,1-3-3q0-.14,0-0.28a3.07,3.07,0,0,1,2.79-3.33h0.33A3,3,0,0,1,726.74,230.16Zm-5,0a2,2,0,1,0,1.94-2.44,2.15,2.15,0,0,0-2,2.3q0,0.1,0,.2v-0.06Z" transform="translate(0 0)"/><path class="cls-5" d="M728.53,227.06l1.29,3.54a16.62,16.62,0,0,1,.5,1.61h0c0.14-.51.32-1,0.53-1.61l1.29-3.54h1.2l-2.47,6.3h-1.09l-2.39-6.3h1.16Z" transform="translate(0 0)"/><path class="cls-5" d="M734.86,230.41a2,2,0,0,0,1.84,2.18H737a4.14,4.14,0,0,0,1.75-.32L739,233.1a5.14,5.14,0,0,1-2.1.39,2.92,2.92,0,0,1-3.1-3.18,3.06,3.06,0,0,1,2.71-3.38l0.25,0a2.66,2.66,0,0,1,2.59,2.73q0,0.12,0,.24a4.4,4.4,0,0,1,0,.54h-4.44Zm3.36-.82a1.63,1.63,0,0,0-1.38-1.85l-0.2,0a1.9,1.9,0,0,0-1.76,1.86h3.34Z" transform="translate(0 0)"/><path class="cls-5" d="M740.73,229v-2h1v1.29h0a1.89,1.89,0,0,1,1.75-1.38,1.28,1.28,0,0,1,.32,0v1.12a1.7,1.7,0,0,0-.39,0,1.61,1.61,0,0,0-1.53,1.47,3.18,3.18,0,0,0,0,.53v3.36h-1.13v-4.33Z" transform="translate(0 0)"/><path class="cls-5" d="M744.83,232.17a3,3,0,0,0,1.5.45,1,1,0,0,0,1.29-.94,1.29,1.29,0,0,0-1.17-1.16,2,2,0,0,1-1.66-1.79,1.94,1.94,0,0,1,2-1.83h0a3.14,3.14,0,0,1,1.54.39l-0.26.77a2.46,2.46,0,0,0-1.29-.36,0.93,0.93,0,0,0-1,.79s0,0,0,.08c0,0.51.37,0.76,1.2,1.07a1.93,1.93,0,0,1-.41,3.84l-0.29-.05a3.59,3.59,0,0,1-1.77-.42Z" transform="translate(0 0)"/><path class="cls-5" d="M666.95,260.22h1.13v7.72h3.74v1h-4.87v-8.67Z" transform="translate(0 0)"/><path class="cls-5" d="M674.33,260.86a0.71,0.71,0,0,1-1.41,0,0.69,0.69,0,0,1,.67-0.72h0.05a0.68,0.68,0,0,1,.7.67S674.33,260.84,674.33,260.86ZM673,268.92v-6.3h1.14v6.3H673Z" transform="translate(0 0)"/><path class="cls-5" d="M680.58,268.69a4.22,4.22,0,0,1-1.81.36,3,3,0,0,1-3.14-3.21,3.2,3.2,0,0,1,3.05-3.35H679a3.86,3.86,0,0,1,1.58.32l-0.26.89a2.66,2.66,0,0,0-1.29-.3,2.38,2.38,0,0,0,0,4.73,3.25,3.25,0,0,0,1.4-.31Z" transform="translate(0 0)"/><path class="cls-5" d="M682.48,266a2,2,0,0,0,1.84,2.18h0.32a4.14,4.14,0,0,0,1.75-.32l0.19,0.82a5.14,5.14,0,0,1-2.1.39,2.92,2.92,0,0,1-3.1-3.18,3.06,3.06,0,0,1,2.71-3.38l0.25,0a2.66,2.66,0,0,1,2.59,2.73q0,0.12,0,.24a4.4,4.4,0,0,1,0,.54h-4.44Zm3.36-.82a1.63,1.63,0,0,0-1.38-1.85l-0.2,0a1.9,1.9,0,0,0-1.76,1.86h3.34Z" transform="translate(0 0)"/><path class="cls-5" d="M688.36,264.33v-1.71h1l0.06,1h0a2.31,2.31,0,0,1,2.08-1.18c0.87,0,2.22.51,2.22,2.67v3.75H692.6v-3.63a1.54,1.54,0,0,0-1.19-1.83l-0.27,0a1.62,1.62,0,0,0-1.53,1.17,1.66,1.66,0,0,0-.08.53v3.78H688.4v-4.56h0Z" transform="translate(0 0)"/><path class="cls-5" d="M695.44,267.75a3,3,0,0,0,1.5.45,1,1,0,0,0,1.29-.94,1.29,1.29,0,0,0-1.17-1.16,2,2,0,0,1-1.66-1.79,1.94,1.94,0,0,1,2-1.86h0.16a3.14,3.14,0,0,1,1.54.39l-0.28.84a2.46,2.46,0,0,0-1.29-.36,0.93,0.93,0,0,0-1,.79s0,0,0,.08c0,0.51.37,0.76,1.2,1.07a1.93,1.93,0,0,1-.41,3.84L697,269a3.59,3.59,0,0,1-1.77-.42Z" transform="translate(0 0)"/><path class="cls-5" d="M701.37,266a2,2,0,0,0,1.84,2.18h0.32a4.14,4.14,0,0,0,1.75-.32l0.19,0.82a5.14,5.14,0,0,1-2.1.39,2.92,2.92,0,0,1-3.1-3.18,3.06,3.06,0,0,1,2.71-3.38l0.25,0a2.66,2.66,0,0,1,2.59,2.73q0,0.12,0,.24a4.4,4.4,0,0,1,0,.54h-4.44Zm3.36-.82a1.63,1.63,0,0,0-1.38-1.85l-0.18,0a1.9,1.9,0,0,0-1.76,1.86h3.33Z" transform="translate(0 0)"/><path class="cls-5" d="M710,260.22a13,13,0,0,1,2.17-.17,3.6,3.6,0,0,1,2.46.73,2.35,2.35,0,0,1,.77,1.84,2.57,2.57,0,0,1-.68,1.88,3.64,3.64,0,0,1-2.67,1,3.86,3.86,0,0,1-.91-0.08v3.51H710v-8.68h0Zm1.13,4.23a3.77,3.77,0,0,0,.94.09,1.88,1.88,0,0,0,2.2-1.88,1.74,1.74,0,0,0-2.07-1.71,4.78,4.78,0,0,0-1.07.09v3.41h0Z" transform="translate(0 0)"/><path class="cls-5" d="M716.85,259.69H718v9.23h-1.14v-9.23Z" transform="translate(0 0)"/><path class="cls-5" d="M723.41,268.92l-0.09-.8h0a2.34,2.34,0,0,1-1.93.94,1.8,1.8,0,0,1-1.92-1.67s0-.1,0-0.15c0-1.52,1.35-2.35,3.78-2.34v-0.13a1.29,1.29,0,0,0-1.43-1.45,3.14,3.14,0,0,0-1.65.46l-0.26-.76a3.86,3.86,0,0,1,2.07-.57,2.24,2.24,0,0,1,2.39,2.57v2.35a8.89,8.89,0,0,0,.1,1.5h-1Zm-0.17-3.21c-1.29,0-2.66.19-2.66,1.41a1,1,0,0,0,.93,1.09h0.15a1.57,1.57,0,0,0,1.52-1.05,1.19,1.19,0,0,0,.06-0.36v-1.09Z" transform="translate(0 0)"/><path class="cls-5" d="M727.51,260.82v1.81h1.65v0.87h-1.65v3.39c0,0.78.22,1.29,0.86,1.29a2.57,2.57,0,0,0,.67-0.08V269a2.79,2.79,0,0,1-1,.15,1.58,1.58,0,0,1-1.29-.48,2.33,2.33,0,0,1-.44-1.63v-3.43h-1v-0.87h1v-1.59Z" transform="translate(0 0)"/><path class="cls-5" d="M731,266a2,2,0,0,0,1.84,2.18h0.32a4.14,4.14,0,0,0,1.75-.32l0.19,0.82a5.14,5.14,0,0,1-2.1.39,2.92,2.92,0,0,1-3.1-3.18,3.06,3.06,0,0,1,2.71-3.38l0.25,0a2.66,2.66,0,0,1,2.59,2.73q0,0.12,0,.24a4.4,4.4,0,0,1,0,.54H731Zm3.36-.82a1.63,1.63,0,0,0-1.39-1.85l-0.24,0a1.9,1.9,0,0,0-1.76,1.86h3.38Z" transform="translate(0 0)"/><path class="cls-5" d="M745.81,268.64a5.62,5.62,0,0,1-2.31.41,4.1,4.1,0,0,1-4.33-4.44,4.36,4.36,0,0,1,4.1-4.6h0.48a4.68,4.68,0,0,1,2.08.39l-0.27.93a4.12,4.12,0,0,0-1.76-.36,3.27,3.27,0,0,0-3.42,3.61,3.19,3.19,0,0,0,3.37,3.52,4.53,4.53,0,0,0,1.85-.36Z" transform="translate(0 0)"/><path class="cls-5" d="M752.74,265.72a3.07,3.07,0,0,1-2.79,3.33H749.6a3,3,0,0,1-3-3q0-.14,0-0.28a3.07,3.07,0,0,1,2.79-3.33h0.33A3,3,0,0,1,752.74,265.72Zm-5,0a2,2,0,1,0,1.94-2.44,2.15,2.15,0,0,0-2,2.3q0,0.1,0,.2v-0.06Z" transform="translate(0 0)"/><path class="cls-5" d="M754.53,262.64l1.29,3.54a16.62,16.62,0,0,1,.5,1.61h0c0.14-.51.32-1,0.53-1.61l1.29-3.54h1.2l-2.47,6.3h-1.09l-2.39-6.3h1.16Z" transform="translate(0 0)"/><path class="cls-5" d="M760.86,266a2,2,0,0,0,1.84,2.18H763a4.14,4.14,0,0,0,1.75-.32l0.19,0.82a5.14,5.14,0,0,1-2.1.39,2.92,2.92,0,0,1-3.12-3.19,3.06,3.06,0,0,1,2.71-3.38l0.25,0a2.66,2.66,0,0,1,2.59,2.73q0,0.12,0,.24a4.4,4.4,0,0,1,0,.54h-4.41Zm3.36-.82a1.63,1.63,0,0,0-1.38-1.85l-0.2,0a1.9,1.9,0,0,0-1.76,1.86h3.34Z" transform="translate(0 0)"/><path class="cls-5" d="M766.73,264.59v-2h1v1.29h0a1.89,1.89,0,0,1,1.75-1.38,1.28,1.28,0,0,1,.32,0v1.08a1.7,1.7,0,0,0-.39,0,1.61,1.61,0,0,0-1.53,1.47,3.18,3.18,0,0,0,0,.53V269h-1.13v-4.37h0Z" transform="translate(0 0)"/><path class="cls-5" d="M770.82,267.75a3,3,0,0,0,1.5.45,1,1,0,0,0,1.29-.94,1.29,1.29,0,0,0-1.17-1.16,2,2,0,0,1-1.66-1.79,1.94,1.94,0,0,1,2-1.86H773a3.14,3.14,0,0,1,1.54.39l-0.28.84a2.46,2.46,0,0,0-1.29-.36,0.93,0.93,0,0,0-1,.79s0,0,0,.08c0,0.51.37,0.76,1.2,1.07a1.93,1.93,0,0,1-.41,3.84l-0.29-.05a3.59,3.59,0,0,1-1.77-.42Z" transform="translate(0 0)"/><path class="cls-5" d="M712.85,295.84a13,13,0,0,1,2.17-.17,3.6,3.6,0,0,1,2.46.73,2.35,2.35,0,0,1,.77,1.84,2.57,2.57,0,0,1-.68,1.88,3.64,3.64,0,0,1-2.67,1A3.86,3.86,0,0,1,714,301v3.51h-1.13v-8.68h0Zm1.13,4.23a3.77,3.77,0,0,0,.94.09,1.88,1.88,0,0,0,2.2-1.88,1.74,1.74,0,0,0-2.07-1.71,4.78,4.78,0,0,0-1.07.09v3.42h0Z" transform="translate(0 0)"/><path class="cls-5" d="M720,301.56a2,2,0,0,0,1.84,2.18h0.32a4.14,4.14,0,0,0,1.75-.32l0.19,0.82a5.14,5.14,0,0,1-2.1.39,2.92,2.92,0,0,1-3.1-3.18,3.06,3.06,0,0,1,2.71-3.38l0.25,0a2.66,2.66,0,0,1,2.59,2.73q0,0.12,0,.24a4.4,4.4,0,0,1,0,.54H720Zm3.36-.82a1.63,1.63,0,0,0-1.38-1.85l-0.2,0a1.9,1.9,0,0,0-1.76,1.86h3.34Z" transform="translate(0 0)"/><path class="cls-5" d="M727.31,296.4v1.81H729v0.87h-1.65v3.39c0,0.78.22,1.29,0.86,1.29a2.57,2.57,0,0,0,.67-0.08v0.86a2.79,2.79,0,0,1-1,.15,1.58,1.58,0,0,1-1.29-.48,2.33,2.33,0,0,1-.44-1.63v-3.43h-1v-0.87h1v-1.5Z" transform="translate(0 0)"/><path class="cls-5" d="M705.41,331.31h1.13v7.82h3.74v1h-4.87v-8.77h0Z" transform="translate(0 0)"/><path class="cls-5" d="M712.78,332a0.71,0.71,0,0,1-1.41,0,0.69,0.69,0,0,1,.67-0.72h0.05a0.68,0.68,0,0,1,.7.67S712.78,332,712.78,332Zm-1.29,8.06v-6.3h1.14v6.3h-1.14Z" transform="translate(0 0)"/><path class="cls-5" d="M714.55,335.49v-1.71h1l0.06,1h0a2.31,2.31,0,0,1,2.08-1.18c0.87,0,2.22.51,2.22,2.67v3.75H718.8v-3.63a1.54,1.54,0,0,0-1.19-1.83l-0.27,0a1.62,1.62,0,0,0-1.53,1.17,1.66,1.66,0,0,0-.08.53v3.78h-1.14v-4.59Z" transform="translate(0 0)"/><path class="cls-5" d="M722.45,337.14a2,2,0,0,0,1.84,2.18h0.32a4.14,4.14,0,0,0,1.75-.32l0.19,0.82a5.14,5.14,0,0,1-2.1.39,2.92,2.92,0,0,1-3.1-3.18,3.06,3.06,0,0,1,2.71-3.38l0.25,0a2.66,2.66,0,0,1,2.59,2.73q0,0.12,0,.24a4.4,4.4,0,0,1,0,.54h-4.44Zm3.36-.82a1.63,1.63,0,0,0-1.38-1.85l-0.2,0a1.9,1.9,0,0,0-1.76,1.86h3.34Z" transform="translate(0 0)"/><path class="cls-5" d="M728.29,335.75v-2h1v1.29h0a1.89,1.89,0,0,1,1.75-1.38,1.28,1.28,0,0,1,.32,0v1.11a1.7,1.7,0,0,0-.39,0,1.61,1.61,0,0,0-1.53,1.47,3.18,3.18,0,0,0,0,.53v3.36h-1.13v-4.33Z" transform="translate(0 0)"/><path class="cls-5" d="M732.37,338.91a3,3,0,0,0,1.5.45,1,1,0,0,0,1.29-.94,1.29,1.29,0,0,0-1.17-1.16,2,2,0,0,1-1.66-1.79,1.94,1.94,0,0,1,2-1.86h0.16a3.14,3.14,0,0,1,1.54.39l-0.28.84a2.46,2.46,0,0,0-1.29-.36,0.93,0.93,0,0,0-1,.79s0,0,0,.08c0,0.51.37,0.76,1.2,1.07a1.93,1.93,0,0,1-.41,3.84l-0.29-.05a3.59,3.59,0,0,1-1.77-.42Z" transform="translate(0 0)"/><path class="cls-5" d="M567.09,229.5c0-1.29-.14-2.69-0.13-3.78h0c-0.3,1-.67,2.12-1.11,3.33l-1.54,4.26h-0.86L562,229.13c-0.41-1.29-.77-2.37-1-3.41h0c0,1.09-.09,2.57-0.17,3.86l-0.23,3.75h-1.08l0.62-8.77h1.44l1.49,4.24c0.36,1.08.67,2,.89,3h0c0.22-.89.54-1.85,0.93-3l1.56-4.24h1.44l0.54,8.77h-1.11Z" transform="translate(0 0)"/><path class="cls-5" d="M575.42,231.63v1.71h-1l-0.06-1h0a2.37,2.37,0,0,1-2.08,1.17c-1,0-2.17-.54-2.17-2.75v-3.68h1.14v3.48c0,1.2.36,2,1.4,2a1.61,1.61,0,0,0,1.61-1.61h0v-3.86h1.14v4.58h0Z" transform="translate(0 0)"/><path class="cls-5" d="M580.62,225.21a1.77,1.77,0,0,0-.78-0.19,1.11,1.11,0,0,0-.85.33,2.12,2.12,0,0,0-.41,1.44V227h2.65v-0.26a2.85,2.85,0,0,1,.9-2.17,3,3,0,0,1,2-.64,4.09,4.09,0,0,1,1.89.41v9h-1.17v-8.32a2.08,2.08,0,0,0-1-.17,1.59,1.59,0,0,0-1.58,1.89v0.31h1.48V228h-1.47v5.43H581.2V228h-2.65v5.43h-1.13V228h-0.89V227.1h0.89v-0.15a2.94,2.94,0,0,1,.73-2.16,2.39,2.39,0,0,1,1.71-.63,2.74,2.74,0,0,1,1,.23Z" transform="translate(0 0)"/><path class="cls-5" d="M588.56,230.41a2,2,0,0,0,1.84,2.18h0.32a4.14,4.14,0,0,0,1.75-.32l0.19,0.82a5.14,5.14,0,0,1-2.1.39,2.92,2.92,0,0,1-3.1-3.18,3.06,3.06,0,0,1,2.71-3.38l0.25,0a2.66,2.66,0,0,1,2.59,2.73q0,0.12,0,.24a4.4,4.4,0,0,1,0,.54h-4.44Zm3.36-.82a1.63,1.63,0,0,0-1.38-1.85l-0.2,0a1.9,1.9,0,0,0-1.76,1.86h3.34Z" transform="translate(0 0)"/><path class="cls-5" d="M594.44,229v-2h1v1.29h0a1.89,1.89,0,0,1,1.75-1.38,1.28,1.28,0,0,1,.32,0v1.12a1.7,1.7,0,0,0-.39,0,1.61,1.61,0,0,0-1.53,1.47,3.18,3.18,0,0,0,0,.53v3.36h-1.13v-4.33Z" transform="translate(0 0)"/><path class="cls-5" d="M598.53,232.17a3,3,0,0,0,1.5.45,1,1,0,0,0,1.29-.94,1.29,1.29,0,0,0-1.17-1.16,2,2,0,0,1-1.66-1.79,1.94,1.94,0,0,1,2-1.86h0.16a3.14,3.14,0,0,1,1.54.39l-0.28.84a2.46,2.46,0,0,0-1.29-.36,0.93,0.93,0,0,0-1,.79s0,0,0,.08c0,0.51.37,0.76,1.2,1.07a1.93,1.93,0,0,1-.41,3.84l-0.29-.05a3.59,3.59,0,0,1-1.77-.42Z" transform="translate(0 0)"/><path class="cls-5" d="M572.52,261.12h-2.66v-0.9h6.43v1h-2.67V269h-1.09v-7.87Z" transform="translate(0 0)"/><path class="cls-5" d="M578.43,260.86a0.71,0.71,0,0,1-1.41,0,0.69,0.69,0,0,1,.67-0.72h0.05a0.68,0.68,0,0,1,.7.67S578.43,260.84,578.43,260.86Zm-1.29,8.06v-6.3h1.14v6.3h-1.14Z" transform="translate(0 0)"/><path class="cls-5" d="M580.17,264.68v-2.06h1v1.08h0a2.48,2.48,0,0,1,2.24-1.29,2.85,2.85,0,0,1,2.68,3q0,0.09,0,.18c0,2.26-1.38,3.38-2.87,3.38a2.21,2.21,0,0,1-1.94-1h0v3.42h-1.13v-6.75Zm1.13,1.67a2.57,2.57,0,0,0,0,.46A1.76,1.76,0,0,0,583,268.1c1.21,0,1.92-1,1.92-2.43a2,2,0,0,0-1.72-2.32l-0.16,0a1.83,1.83,0,0,0-1.72,1.41,1.86,1.86,0,0,0-.08.46v1.08Z" transform="translate(0 0)"/><path class="cls-5" d="M587.43,267.75a3,3,0,0,0,1.5.45,1,1,0,0,0,1.29-.94,1.29,1.29,0,0,0-1.17-1.16,2,2,0,0,1-1.66-1.79,1.94,1.94,0,0,1,2-1.86h0.16a3.14,3.14,0,0,1,1.54.39l-0.28.84a2.46,2.46,0,0,0-1.29-.36,0.93,0.93,0,0,0-1,.79s0,0,0,.08c0,0.51.37,0.76,1.2,1.07a1.93,1.93,0,0,1-.41,3.84L589,269a3.59,3.59,0,0,1-1.77-.42Z" transform="translate(0 0)"/><path class="cls-5" d="M567.39,295.84a13,13,0,0,1,2.17-.17,3.6,3.6,0,0,1,2.46.73,2.35,2.35,0,0,1,.77,1.84,2.57,2.57,0,0,1-.68,1.88,3.64,3.64,0,0,1-2.67,1,3.86,3.86,0,0,1-.91-0.08v3.51h-1.13v-8.68h0Zm1.13,4.23a3.77,3.77,0,0,0,.94.09,1.88,1.88,0,0,0,2.2-1.88,1.74,1.74,0,0,0-2.07-1.71,4.78,4.78,0,0,0-1.07.09v3.42h0Z" transform="translate(0 0)"/><path class="cls-5" d="M575.32,296.44a0.71,0.71,0,0,1-1.41,0,0.69,0.69,0,0,1,.67-0.72h0.05a0.68,0.68,0,0,1,.7.67S575.32,296.42,575.32,296.44ZM574,304.5v-6.3h1.14v6.3H574Z" transform="translate(0 0)"/><path class="cls-5" d="M577.15,300.26V298.2h1v1.08h0a2.48,2.48,0,0,1,2.24-1.29,2.85,2.85,0,0,1,2.68,3q0,0.09,0,.18c0,2.26-1.38,3.38-2.87,3.38a2.21,2.21,0,0,1-1.94-1h0V307h-1.12v-6.75Zm1.13,1.67a2.57,2.57,0,0,0,0,.46,1.76,1.76,0,0,0,1.71,1.29c1.21,0,1.92-1,1.92-2.43a2,2,0,0,0-1.72-2.32l-0.16,0a1.83,1.83,0,0,0-1.72,1.41,1.86,1.86,0,0,0-.08.46v1.08Z" transform="translate(0 0)"/><path class="cls-5" d="M585.13,301.56a2,2,0,0,0,1.84,2.18h0.32a4.14,4.14,0,0,0,1.75-.32l0.19,0.82a5.14,5.14,0,0,1-2.1.39,2.92,2.92,0,0,1-3.1-3.18,3.06,3.06,0,0,1,2.71-3.38l0.25,0a2.66,2.66,0,0,1,2.59,2.73q0,0.12,0,.24a4.4,4.4,0,0,1,0,.54h-4.44Zm3.36-.82a1.63,1.63,0,0,0-1.38-1.85l-0.2,0a1.9,1.9,0,0,0-1.76,1.86h3.34Z" transform="translate(0 0)"/><path class="cls-5" d="M590.85,303.33a3,3,0,0,0,1.5.45,1,1,0,0,0,1.29-.94,1.29,1.29,0,0,0-1.17-1.16,2,2,0,0,1-1.66-1.79,1.94,1.94,0,0,1,2-1.86H593a3.14,3.14,0,0,1,1.54.39l-0.28.84a2.46,2.46,0,0,0-1.29-.36,0.93,0.93,0,0,0-1,.79s0,0,0,.08c0,0.51.37,0.76,1.2,1.07a1.93,1.93,0,0,1-.41,3.84l-0.29-.05a3.59,3.59,0,0,1-1.77-.42Z" transform="translate(0 0)"/><path class="cls-5" d="M31.94,191.94H28.51v3.16h3.86v1h-5v-8.77h4.73v0.93h-3.6V191h3.43v1Z" transform="translate(0 0)"/><path class="cls-5" d="M33.74,191.46v-1.71h1v1h0a2.31,2.31,0,0,1,2.08-1.18c0.87,0,2.22.51,2.22,2.67V196H37.95V192.4a1.53,1.53,0,0,0-1.16-1.83l-0.29,0A1.62,1.62,0,0,0,35,191.71a1.65,1.65,0,0,0-.08.54V196H33.74v-4.56Z" transform="translate(0 0)"/><path class="cls-5" d="M46.38,189.75v5.39a3.63,3.63,0,0,1-.9,2.88,3.34,3.34,0,0,1-2.29.76,4.06,4.06,0,0,1-2.1-.51l0.28-.87a3.55,3.55,0,0,0,1.85.49,1.89,1.89,0,0,0,2-2.2V195h0a2.25,2.25,0,0,1-2,1.05,2.82,2.82,0,0,1-2.68-2.94s0-.09,0-0.13a3,3,0,0,1,2.68-3.33h0.16a2.1,2.1,0,0,1,2,1.09h0v-1h1Zm-1.18,2.48a1.62,1.62,0,0,0-.06-0.51,1.65,1.65,0,0,0-1.59-1.21,2.06,2.06,0,0,0-1.9,2.21q0,0.09,0,.17a2,2,0,0,0,1.65,2.24l0.2,0A1.67,1.67,0,0,0,45.1,194a2,2,0,0,0,.09-0.62v-1.13h0Z" transform="translate(0 0)"/><path class="cls-5" d="M49.42,188A0.71,0.71,0,0,1,48,188a0.69,0.69,0,0,1,.67-0.72h0.05a0.68,0.68,0,0,1,.7.67S49.42,188,49.42,188ZM48.13,196v-6.3h1.14V196H48.13Z" transform="translate(0 0)"/><path class="cls-5" d="M51.23,191.46v-1.71h1l0,1h0a2.31,2.31,0,0,1,2.08-1.18c0.87,0,2.22.51,2.22,2.67V196H55.41V192.4a1.53,1.53,0,0,0-1.16-1.83l-0.29,0a1.62,1.62,0,0,0-1.53,1.17,1.65,1.65,0,0,0-.08.54V196H51.23v-4.56Z" transform="translate(0 0)"/><path class="cls-5" d="M59,193.11a2,2,0,0,0,1.84,2.18h0.32A4.14,4.14,0,0,0,63,195l0.19,0.82a5.14,5.14,0,0,1-2.1.39A2.92,2.92,0,0,1,58,193a3.06,3.06,0,0,1,2.71-3.38l0.25,0a2.66,2.66,0,0,1,2.59,2.73q0,0.12,0,.24a4.29,4.29,0,0,1,0,.54H59Zm3.36-.82A1.63,1.63,0,0,0,61,190.44l-0.2,0a1.9,1.9,0,0,0-1.76,1.86H62.4Z" transform="translate(0 0)"/><path class="cls-5" d="M30,222.87h4.73v1h-3.6v3h3.34v0.94H31.17v4H30v-8.83Z" transform="translate(0 0)"/><path class="cls-5" d="M37.28,223.56a0.71,0.71,0,0,1-1.41,0,0.69,0.69,0,0,1,.67-0.72h0.05a0.68,0.68,0,0,1,.7.67S37.28,223.54,37.28,223.56ZM36,231.62v-6.3h1.09v6.3H36Z" transform="translate(0 0)"/><path class="cls-5" d="M39,222.39h1.14v9.23H39v-9.23Z" transform="translate(0 0)"/><path class="cls-5" d="M43.51,223.52v1.81h1.63v0.87H43.51v3.39c0,0.78.22,1.29,0.86,1.29a2.57,2.57,0,0,0,.67-0.08v0.86a2.79,2.79,0,0,1-1,.15,1.58,1.58,0,0,1-1.29-.48,2.33,2.33,0,0,1-.44-1.63v-3.43H41.39v-0.87h1v-1.58Z" transform="translate(0 0)"/><path class="cls-5" d="M47,228.69a2,2,0,0,0,1.84,2.18h0.32a4.14,4.14,0,0,0,1.75-.32l0.19,0.82a5.14,5.14,0,0,1-2.1.39,2.92,2.92,0,0,1-3.1-3.18,3.06,3.06,0,0,1,2.71-3.38l0.25,0a2.66,2.66,0,0,1,2.59,2.73q0,0.12,0,.24a4.28,4.28,0,0,1,0,.54H47Zm3.36-.82A1.63,1.63,0,0,0,48.94,226l-0.2,0A1.89,1.89,0,0,0,47,227.87h3.34Z" transform="translate(0 0)"/><path class="cls-5" d="M52.85,227.3v-2h1v1.29h0a1.89,1.89,0,0,1,1.75-1.38,1.28,1.28,0,0,1,.32,0v1.08a1.7,1.7,0,0,0-.39,0A1.61,1.61,0,0,0,54,227.79a3.18,3.18,0,0,0,0,.53v3.36H52.85V227.3Z" transform="translate(0 0)"/><path class="cls-5" d="M57,230.46a3,3,0,0,0,1.5.45,1,1,0,0,0,1.29-.94,1.29,1.29,0,0,0-1.17-1.16A2,2,0,0,1,56.91,227a1.94,1.94,0,0,1,2-1.86h0.16a3.14,3.14,0,0,1,1.54.39l-0.28.84a2.46,2.46,0,0,0-1.29-.36,0.91,0.91,0,0,0-1.05.86c0,0.51.37,0.76,1.2,1.07a1.93,1.93,0,0,1-.41,3.84l-0.29-.05a3.59,3.59,0,0,1-1.77-.42Z" transform="translate(0 0)"/><path class="cls-5" d="M13.94,258.43h4.72v1H15v2.92h3.32v0.94H15v4H13.94v-8.77h0Z" transform="translate(0 0)"/><path class="cls-5" d="M20.43,264.27a2,2,0,0,0,1.84,2.18h0.32a4.14,4.14,0,0,0,1.75-.32L24.53,267a5.14,5.14,0,0,1-2.1.39,2.92,2.92,0,0,1-3.1-3.18A3.06,3.06,0,0,1,22,260.79l0.25,0a2.66,2.66,0,0,1,2.59,2.73q0,0.12,0,.24a4.28,4.28,0,0,1,0,.54H20.43Zm3.36-.82a1.63,1.63,0,0,0-1.38-1.85l-0.2,0a1.89,1.89,0,0,0-1.76,1.86h3.34Z" transform="translate(0 0)"/><path class="cls-5" d="M31.58,265.49v1.71H30.65l-0.06-1h0a2.37,2.37,0,0,1-2.08,1.17c-1,0-2.17-.54-2.17-2.75v-3.68h1.14v3.48c0,1.2.36,2,1.4,2a1.66,1.66,0,0,0,1.5-1,1.68,1.68,0,0,0,.1-0.59v-3.86h1.14v4.58H31.58Z" transform="translate(0 0)"/><path class="cls-5" d="M33.47,258h1.14v9.23H33.47V258Z" transform="translate(0 0)"/><path class="cls-5" d="M39.18,265.83a4,4,0,0,0,2,.58,1.57,1.57,0,0,0,1.84-1.49c0-.82-0.46-1.29-1.65-1.75-1.43-.5-2.31-1.29-2.31-2.48a2.57,2.57,0,0,1,2.74-2.39h0.1a4,4,0,0,1,1.94.42l-0.31.93a3.5,3.5,0,0,0-1.66-.41,1.41,1.41,0,0,0-1.66,1.29c0,0.82.54,1.29,1.75,1.7,1.48,0.58,2.24,1.29,2.24,2.57s-1,2.57-3.07,2.57a4.53,4.53,0,0,1-2.24-.57Z" transform="translate(0 0)"/><path class="cls-5" d="M46.09,260.91l1.29,3.72c0.14,0.41.3,0.91,0.4,1.29h0c0.12-.37.24-0.86,0.4-1.29l1.29-3.69h1.21L49,265.36a9.59,9.59,0,0,1-2.16,3.95,3.09,3.09,0,0,1-1.4.75l-0.28-1a3,3,0,0,0,1-.57,3.46,3.46,0,0,0,1-1.29,0.82,0.82,0,0,0,.09-0.27,1,1,0,0,0-.08-0.3l-2.31-5.76h1.29Z" transform="translate(0 0)"/><path class="cls-5" d="M51.5,266a3,3,0,0,0,1.5.45,1,1,0,0,0,1.29-.94,1.29,1.29,0,0,0-1.17-1.16,2,2,0,0,1-1.66-1.79,1.94,1.94,0,0,1,2-1.86h0.16a3.14,3.14,0,0,1,1.54.39l-0.28.84a2.46,2.46,0,0,0-1.29-.36,0.91,0.91,0,0,0-1.05.86c0,0.51.37,0.76,1.2,1.07a1.93,1.93,0,0,1-.41,3.84L53,267.32a3.59,3.59,0,0,1-1.81-.41Z" transform="translate(0 0)"/><path class="cls-5" d="M58.19,259.1v1.81h1.63v0.87H58.19v3.39c0,0.78.22,1.29,0.86,1.29a2.57,2.57,0,0,0,.67-0.08v0.86a2.79,2.79,0,0,1-1,.15,1.58,1.58,0,0,1-1.29-.48A2.33,2.33,0,0,1,57,265.3v-3.43H56.09V261h1v-1.5Z" transform="translate(0 0)"/><path class="cls-5" d="M61.67,264.27a2,2,0,0,0,1.84,2.18h0.32a4.14,4.14,0,0,0,1.75-.32L65.77,267a5.14,5.14,0,0,1-2.1.39,2.92,2.92,0,0,1-3.1-3.18,3.06,3.06,0,0,1,2.71-3.38l0.25,0a2.66,2.66,0,0,1,2.59,2.73q0,0.12,0,.24a4.28,4.28,0,0,1,0,.54H61.67Zm3.36-.82a1.63,1.63,0,0,0-1.38-1.85l-0.2,0a1.89,1.89,0,0,0-1.76,1.86H65Z" transform="translate(0 0)"/><path class="cls-5" d="M67.55,262.61V260.9h1v1h0a2.17,2.17,0,0,1,2-1.16A1.86,1.86,0,0,1,72.32,262h0a2.57,2.57,0,0,1,.71-0.82,2.15,2.15,0,0,1,1.39-.44c0.84,0,2.07.54,2.07,2.74v3.7H75.42v-3.56c0-1.21-.44-1.94-1.36-1.94a1.48,1.48,0,0,0-1.35,1,1.88,1.88,0,0,0-.09.58v3.86H71.49v-3.77a1.45,1.45,0,0,0-1.13-1.71l-0.15,0a1.7,1.7,0,0,0-1.5,1.7v3.86H67.55v-4.64Z" transform="translate(0 0)"/><path class="cls-5" d="M23.35,294.13a11.82,11.82,0,0,1,2.17-.18,3.59,3.59,0,0,1,2.57.72,2.19,2.19,0,0,1,.69,1.66,2.3,2.3,0,0,1-1.65,2.24h0a2.19,2.19,0,0,1,1.29,1.77,14,14,0,0,0,.68,2.4H27.89a11.44,11.44,0,0,1-.59-2.1A1.7,1.7,0,0,0,25.57,299H24.48v3.86H23.35v-8.72Zm1.13,4h1.16a1.72,1.72,0,0,0,2-1.66,1.68,1.68,0,0,0-2-1.63,4.62,4.62,0,0,0-1.12.1v3.2h0Z" transform="translate(0 0)"/><path class="cls-5" d="M34,302.78l-0.09-.8h0a2.34,2.34,0,0,1-1.93.94A1.8,1.8,0,0,1,30,301.26s0-.1,0-0.15c0-1.52,1.35-2.35,3.78-2.34v-0.13a1.29,1.29,0,0,0-1.43-1.45,3.15,3.15,0,0,0-1.63.46l-0.26-.76a3.86,3.86,0,0,1,2.07-.57,2.24,2.24,0,0,1,2.39,2.57v2.35a8.82,8.82,0,0,0,.1,1.5H34v0Zm-0.17-3.21c-1.29,0-2.66.19-2.66,1.41a1,1,0,0,0,.93,1.09h0.15A1.57,1.57,0,0,0,33.73,301a1.2,1.2,0,0,0,.06-0.36v-1.09Z" transform="translate(0 0)"/><path class="cls-5" d="M42.23,293.55v9.23h-1v-1.09h0A2.33,2.33,0,0,1,39.05,303a2.87,2.87,0,0,1-2.7-3q0-.09,0-0.18A3,3,0,0,1,39,296.41l0.22,0a2.11,2.11,0,0,1,1.9,1h0V293.6h1.13v-0.05Zm-1.14,5.5a2,2,0,0,0,0-.48,1.68,1.68,0,0,0-1.66-1.29,2.1,2.1,0,0,0-1.91,2.27q0,0.08,0,.16a2,2,0,0,0,1.65,2.3l0.21,0a1.72,1.72,0,0,0,1.54-1.41,2,2,0,0,0,0-.49v-1.09h0.14Z" transform="translate(0 0)"/><path class="cls-5" d="M45.34,294.72a0.71,0.71,0,0,1-1.41,0,0.69,0.69,0,0,1,.67-0.72h0.05a0.68,0.68,0,0,1,.7.67S45.34,294.7,45.34,294.72Zm-1.29,8.06v-6.3H45.2v6.3H44.05Z" transform="translate(0 0)"/><path class="cls-5" d="M50.6,302.78l-0.09-.8h0a2.34,2.34,0,0,1-1.93.94,1.8,1.8,0,0,1-1.92-1.67s0-.1,0-0.15c0-1.52,1.35-2.35,3.78-2.34v-0.13A1.29,1.29,0,0,0,49,297.19a3.15,3.15,0,0,0-1.63.46l-0.26-.76a3.86,3.86,0,0,1,2.07-.57,2.24,2.24,0,0,1,2.39,2.57v2.35a8.82,8.82,0,0,0,.1,1.5H50.6v0Zm-0.17-3.21c-1.29,0-2.66.19-2.66,1.41a1,1,0,0,0,.93,1.09h0.15A1.57,1.57,0,0,0,50.37,301a1.2,1.2,0,0,0,.06-0.36v-1.09Z" transform="translate(0 0)"/><path class="cls-5" d="M54.71,294.68v1.81h1.66v0.87H54.71v3.39c0,0.78.22,1.29,0.86,1.29a2.57,2.57,0,0,0,.67-0.08v0.86a2.79,2.79,0,0,1-1,.15,1.58,1.58,0,0,1-1.29-.48,2.33,2.33,0,0,1-.44-1.63v-3.43H52.62v-1h1v-1.54Z" transform="translate(0 0)"/><path class="cls-5" d="M63.25,299.58a3.07,3.07,0,0,1-2.79,3.33H60.11a3,3,0,0,1-3-3q0-.14,0-0.28a3.07,3.07,0,0,1,2.79-3.33h0.33A3,3,0,0,1,63.25,299.58Zm-5,0a2,2,0,1,0,1.94-2.44,2.15,2.15,0,0,0-2,2.31q0,0.1,0,.19v-0.06Z" transform="translate(0 0)"/><path class="cls-5" d="M64.69,298.45v-2h1v1.29h0a1.89,1.89,0,0,1,1.75-1.38,1.28,1.28,0,0,1,.32,0v1.12a1.7,1.7,0,0,0-.39,0A1.61,1.61,0,0,0,65.85,299a3.18,3.18,0,0,0,0,.53v3.36H64.69v-4.41Z" transform="translate(0 0)"/><path class="cls-5" d="M34,329.59h4.72v1H35.1v3h3.27v0.94H35.1v4H34v-8.83Z" transform="translate(0 0)"/><path class="cls-5" d="M43.18,338.36l-0.09-.8h0a2.34,2.34,0,0,1-1.93.94,1.8,1.8,0,0,1-1.92-1.67s0-.1,0-0.15c0-1.52,1.35-2.35,3.78-2.34v-0.13a1.29,1.29,0,0,0-1.43-1.45,3.14,3.14,0,0,0-1.63.46l-0.3-.75a3.86,3.86,0,0,1,2.07-.57,2.24,2.24,0,0,1,2.39,2.57v2.35a8.82,8.82,0,0,0,.1,1.5h-1ZM43,335.15c-1.29,0-2.66.19-2.66,1.41a1,1,0,0,0,.93,1.09h0.15a1.57,1.57,0,0,0,1.52-1.05,1.2,1.2,0,0,0,.06-0.36v-1.09Z" transform="translate(0 0)"/><path class="cls-5" d="M46,333.77v-1.71h1l0.06,1h0a2.31,2.31,0,0,1,2.08-1.18c0.87,0,2.22.51,2.22,2.67v3.75H50.17v-3.63a1.54,1.54,0,0,0-1.52-1.85A1.68,1.68,0,0,0,47,334.58v3.78H46v-4.59Z" transform="translate(0 0)"/><path class="cls-5" d="M53,337.19a3,3,0,0,0,1.5.45,1,1,0,0,0,1.29-.94,1.29,1.29,0,0,0-1.17-1.16A2,2,0,0,1,53,333.76a1.94,1.94,0,0,1,2-1.84h0.07a3.14,3.14,0,0,1,1.54.39l-0.28.84a2.46,2.46,0,0,0-1.29-.36,0.91,0.91,0,0,0-1.05.86c0,0.51.37,0.76,1.2,1.07a1.93,1.93,0,0,1-.41,3.84l-0.29-.05a3.59,3.59,0,0,1-1.77-.42Z" transform="translate(0 0)"/><path class="cls-5" d="M10.24,373.65a5.61,5.61,0,0,1-2.31.41,4.1,4.1,0,0,1-4.33-4.44,4.36,4.36,0,0,1,4.1-4.6H8.17a4.69,4.69,0,0,1,2.08.39l-0.27.93A4.11,4.11,0,0,0,8.2,366a3.27,3.27,0,0,0-3.42,3.61,3.19,3.19,0,0,0,3.37,3.52,4.53,4.53,0,0,0,1.85-.36Z" transform="translate(0 0)"/><path class="cls-5" d="M17.17,370.74a3.07,3.07,0,0,1-2.79,3.33H14a3,3,0,0,1-3-3.28,3.07,3.07,0,0,1,2.79-3.33h0.33A3,3,0,0,1,17.17,370.74Zm-5,0A2.15,2.15,0,0,0,14,373.15h0.07a2.51,2.51,0,0,0,0-4.86,2.13,2.13,0,0,0-2,2.3q0,0.1,0,.21v-0.06Z" transform="translate(0 0)"/><path class="cls-5" d="M24.3,370.74a3.07,3.07,0,0,1-2.79,3.33H21.17a3,3,0,0,1-3-3.28,3.07,3.07,0,0,1,2.79-3.33h0.33A3,3,0,0,1,24.3,370.74Zm-5,0a2.15,2.15,0,0,0,1.85,2.41h0.07a2.51,2.51,0,0,0,0-4.86,2.13,2.13,0,0,0-1.94,2.31q0,0.1,0,.2v-0.06Z" transform="translate(0 0)"/><path class="cls-5" d="M25.74,364.7h1.14v9.23H25.74V364.7Z" transform="translate(0 0)"/><path class="cls-5" d="M30.09,365.87a0.71,0.71,0,0,1-1.41,0,0.69,0.69,0,0,1,.67-0.72h0.05a0.68,0.68,0,0,1,.7.67S30.09,365.85,30.09,365.87Zm-1.29,8.06v-6.3h1.14v6.3H28.8Z" transform="translate(0 0)"/><path class="cls-5" d="M31.86,369.34v-1.71h1l0.06,1h0A2.31,2.31,0,0,1,35,367.49c0.87,0,2.22.51,2.22,2.67v3.75H36.07v-3.63a1.54,1.54,0,0,0-1.19-1.83l-0.27,0A1.68,1.68,0,0,0,33,370.13v3.78H31.86v-4.59h0Z" transform="translate(0 0)"/><path class="cls-5" d="M44.5,367.64V373a3.61,3.61,0,0,1-1,2.92,3.34,3.34,0,0,1-2.29.76,4.06,4.06,0,0,1-2.1-.51l0.28-.87a3.55,3.55,0,0,0,1.85.49,1.89,1.89,0,0,0,2-2.2v-0.75h0a2.25,2.25,0,0,1-2,1.05A2.82,2.82,0,0,1,38.6,371q0-.09,0-0.17a3,3,0,0,1,2.68-3.33h0.16a2.1,2.1,0,0,1,2,1.09h0v-1h1Zm-1.18,2.48a1.67,1.67,0,0,0-1.61-1.73H41.66a2.06,2.06,0,0,0-1.89,2.42A2,2,0,0,0,41.42,373l0.22,0a1.67,1.67,0,0,0,1.58-1.17,2,2,0,0,0,.09-0.62v-1.16Z" transform="translate(0 0)"/><path class="cls-5" d="M49,372.55a4,4,0,0,0,2,.58,1.57,1.57,0,0,0,1.84-1.49c0-.82-0.46-1.29-1.65-1.75-1.43-.5-2.31-1.29-2.31-2.48A2.57,2.57,0,0,1,51.63,365h0.1a4,4,0,0,1,1.94.42l-0.31.93A3.5,3.5,0,0,0,51.7,366a1.41,1.41,0,0,0-1.63,1.16s0,0.08,0,.13c0,0.82.53,1.29,1.75,1.7,1.48,0.58,2.24,1.29,2.24,2.57S53,374.1,51,374.1a4.53,4.53,0,0,1-2.31-.59Z" transform="translate(0 0)"/><path class="cls-5" d="M55.82,367.64l1.38,3.72c0.14,0.41.3,0.91,0.4,1.29h0c0.12-.37.24-0.86,0.4-1.29l1.29-3.69h1.21l-1.71,4.42A9.59,9.59,0,0,1,56.62,376a3.09,3.09,0,0,1-1.4.75l-0.28-1a3,3,0,0,0,1-.57,3.46,3.46,0,0,0,1-1.29A0.82,0.82,0,0,0,57,373.7a1,1,0,0,0-.08-0.3l-2.33-5.8h1.29Z" transform="translate(0 0)"/><path class="cls-5" d="M61.3,372.77a3,3,0,0,0,1.5.45,1,1,0,0,0,1.29-.94,1.29,1.29,0,0,0-1.17-1.16,2,2,0,0,1-1.66-1.79,1.94,1.94,0,0,1,2-1.86h0.16a3.14,3.14,0,0,1,1.54.39l-0.28.84a2.46,2.46,0,0,0-1.29-.36,0.91,0.91,0,0,0-1.05.86c0,0.51.37,0.76,1.2,1.07a1.93,1.93,0,0,1-.41,3.84l-0.29-.05a3.59,3.59,0,0,1-1.77-.42Z" transform="translate(0 0)"/><path class="cls-5" d="M67.94,365.83v1.81h1.63v0.87H67.94v3.39c0,0.78.22,1.29,0.86,1.29a2.57,2.57,0,0,0,.67-0.08V374a2.79,2.79,0,0,1-1,.15,1.58,1.58,0,0,1-1.29-.48,2.33,2.33,0,0,1-.44-1.63v-3.43H65.89v-0.87h1v-1.5Z" transform="translate(0 0)"/><path class="cls-5" d="M71.47,371a2,2,0,0,0,1.84,2.18h0.32a4.14,4.14,0,0,0,1.75-.32l0.19,0.82a5.14,5.14,0,0,1-2.1.39,2.92,2.92,0,0,1-3.1-3.18,3.06,3.06,0,0,1,2.71-3.38l0.25,0a2.66,2.66,0,0,1,2.59,2.73q0,0.12,0,.24a4.28,4.28,0,0,1,0,.54H71.47Zm3.36-.82a1.63,1.63,0,0,0-1.38-1.85l-0.2,0a1.89,1.89,0,0,0-1.76,1.86h3.34Z" transform="translate(0 0)"/><path class="cls-5" d="M77.34,369.34v-1.71h1v1h0a2.17,2.17,0,0,1,2-1.16,1.86,1.86,0,0,1,1.79,1.29h0a2.57,2.57,0,0,1,.71-0.82,2.15,2.15,0,0,1,1.39-.44c0.84,0,2.07.54,2.07,2.74V374H85.21v-3.56c0-1.21-.44-1.94-1.36-1.94a1.48,1.48,0,0,0-1.35,1,1.88,1.88,0,0,0-.09.58v3.86H81.29v-3.77a1.45,1.45,0,0,0-1.13-1.71l-0.15,0a1.7,1.7,0,0,0-1.5,1.7V374H77.34v-4.64Z" transform="translate(0 0)"/><path class="cls-5" d="M22.5,400.85a11,11,0,0,1,2.07-.18,3.61,3.61,0,0,1,2.4.64,1.84,1.84,0,0,1,.73,1.54,2.08,2.08,0,0,1-1.48,1.93h0A2.26,2.26,0,0,1,28.08,407a2.37,2.37,0,0,1-.75,1.76,4.41,4.41,0,0,1-3,.82,13.11,13.11,0,0,1-1.76-.1v-8.63h0Zm1.13,3.59h1a1.62,1.62,0,0,0,1.9-1.49c0-1-.78-1.43-1.93-1.43a4.87,4.87,0,0,0-1,.08v2.83h0Zm0,4.2a6,6,0,0,0,1,0c1.17,0,2.25-.42,2.25-1.71s-1-1.7-2.26-1.7H23.63v3.41Z" transform="translate(0 0)"/><path class="cls-5" d="M33,409.51l-0.09-.8h0a2.34,2.34,0,0,1-1.93.94A1.8,1.8,0,0,1,29.06,408s0-.1,0-0.15c0-1.52,1.35-2.35,3.78-2.34v-0.13a1.29,1.29,0,0,0-1.43-1.45,3.14,3.14,0,0,0-1.63.46l-0.26-.76a3.86,3.86,0,0,1,2.07-.57A2.24,2.24,0,0,1,34,405.62V408a8.82,8.82,0,0,0,.1,1.5H33v0Zm-0.17-3.21c-1.29,0-2.66.19-2.66,1.41a1,1,0,0,0,.93,1.09h0.15a1.57,1.57,0,0,0,1.52-1.05,1.2,1.2,0,0,0,.06-0.36v-1.09Z" transform="translate(0 0)"/><path class="cls-5" d="M37.08,401.41v1.81h1.67v0.87H37.08v3.39c0,0.78.22,1.29,0.86,1.29a2.57,2.57,0,0,0,.67-0.08v0.86a2.79,2.79,0,0,1-1,.15,1.58,1.58,0,0,1-1.29-.48,2.33,2.33,0,0,1-.44-1.63v-3.43H35V403.3h1v-1.63Z" transform="translate(0 0)"/><path class="cls-5" d="M41.42,401.41v1.81h1.63v0.87H41.42v3.39c0,0.78.22,1.29,0.86,1.29a2.57,2.57,0,0,0,.67-0.08v0.86a2.79,2.79,0,0,1-1,.15,1.58,1.58,0,0,1-1.29-.48,2.33,2.33,0,0,1-.44-1.63v-3.43H39.32V403.3h1v-1.63Z" transform="translate(0 0)"/><path class="cls-5" d="M44.9,406.58a2,2,0,0,0,1.84,2.18h0.32a4.14,4.14,0,0,0,1.75-.32L49,409.26a5.14,5.14,0,0,1-2.1.39,2.92,2.92,0,0,1-3.1-3.18,3.06,3.06,0,0,1,2.71-3.38l0.25,0a2.66,2.66,0,0,1,2.59,2.73q0,0.12,0,.24a4.28,4.28,0,0,1,0,.54H44.9Zm3.36-.82a1.63,1.63,0,0,0-1.38-1.85l-0.2,0a1.89,1.89,0,0,0-1.76,1.86h3.34Z" transform="translate(0 0)"/><path class="cls-5" d="M50.78,405.17v-2h1v1.29h0a1.89,1.89,0,0,1,1.75-1.38,1.28,1.28,0,0,1,.32,0v1.12a1.7,1.7,0,0,0-.39,0,1.61,1.61,0,0,0-1.53,1.47,3.18,3.18,0,0,0,0,.53v3.36H50.78v-4.41Z" transform="translate(0 0)"/><path class="cls-5" d="M56.37,401.45a0.71,0.71,0,0,1-1.41,0,0.69,0.69,0,0,1,.67-0.72h0.05a0.68,0.68,0,0,1,.7.67S56.37,401.43,56.37,401.45Zm-1.29,8.06v-6.3h1.14v6.3H55.09Z" transform="translate(0 0)"/><path class="cls-5" d="M58.76,406.58a2,2,0,0,0,1.84,2.18h0.32a4.14,4.14,0,0,0,1.75-.32l0.13,0.81a5.14,5.14,0,0,1-2.1.39,2.92,2.92,0,0,1-3-3.18,3.06,3.06,0,0,1,2.71-3.38l0.25,0a2.66,2.66,0,0,1,2.59,2.73q0,0.12,0,.24a4.28,4.28,0,0,1,0,.54H58.76Zm3.36-.82a1.63,1.63,0,0,0-1.38-1.85l-0.2,0a1.89,1.89,0,0,0-1.76,1.86h3.34Z" transform="translate(0 0)"/><path class="cls-5" d="M64.49,408.34a3,3,0,0,0,1.5.45,1,1,0,0,0,1.29-.94,1.29,1.29,0,0,0-1.17-1.16,2,2,0,0,1-1.66-1.79,1.94,1.94,0,0,1,2-1.86h0.16a3.14,3.14,0,0,1,1.54.39l-0.35.8a2.46,2.46,0,0,0-1.29-.36,0.91,0.91,0,0,0-1.05.86c0,0.51.37,0.76,1.2,1.07a1.93,1.93,0,0,1-.41,3.84L66,409.58a3.59,3.59,0,0,1-1.77-.42Z" transform="translate(0 0)"/><polyline class="cls-6" points="462.57 156.41 954.82 156.41 954.82 180.35"/><line class="cls-6" x1="838.7" y1="180.35" x2="838.7" y2="156.41"/><line class="cls-6" x1="720.58" y1="156.41" x2="720.58" y2="180.35"/><line class="cls-6" x1="720.58" y1="204.12" x2="720.58" y2="215.93"/><line class="cls-6" x1="720.58" y1="239.68" x2="720.58" y2="251.51"/><line class="cls-6" x1="720.58" y1="275.26" x2="720.58" y2="287.09"/><line class="cls-6" x1="720.58" y1="310.84" x2="720.58" y2="322.66"/><line class="cls-6" x1="580.81" y1="204.12" x2="580.81" y2="215.93"/><line class="cls-6" x1="580.81" y1="239.68" x2="580.81" y2="251.51"/><line class="cls-6" x1="580.81" y1="275.26" x2="580.81" y2="287.09"/><line class="cls-6" x1="450.1" y1="204.12" x2="450.1" y2="215.93"/><line class="cls-6" x1="450.1" y1="239.68" x2="450.1" y2="251.51"/><line class="cls-6" x1="450.1" y1="275.26" x2="450.1" y2="287.09"/><line class="cls-6" x1="450.1" y1="310.84" x2="450.1" y2="322.66"/><line class="cls-6" x1="324.55" y1="204.12" x2="324.55" y2="215.93"/><line class="cls-6" x1="324.55" y1="239.68" x2="324.55" y2="251.51"/><line class="cls-6" x1="324.55" y1="275.26" x2="324.55" y2="287.09"/><line class="cls-6" x1="324.55" y1="310.84" x2="324.55" y2="322.66"/><path class="cls-5" d="M172.19,187.29h1.2v7.82h3.74v1h-4.87v-8.77h-0.06Z" transform="translate(0 0)"/><path class="cls-5" d="M179.57,188a0.71,0.71,0,0,1-1.41,0,0.69,0.69,0,0,1,.67-0.72h0.05a0.68,0.68,0,0,1,.7.67S179.57,188,179.57,188ZM178.28,196v-6.3h1.14V196h-1.14Z" transform="translate(0 0)"/><path class="cls-5" d="M186.76,189.75v5.39a3.63,3.63,0,0,1-.9,2.88,3.34,3.34,0,0,1-2.29.76,4.06,4.06,0,0,1-2.1-.51l0.28-.87a3.55,3.55,0,0,0,1.85.49,1.89,1.89,0,0,0,2-2.2V195h0a2.25,2.25,0,0,1-2,1.05,2.82,2.82,0,0,1-2.68-2.94s0-.09,0-0.13a3,3,0,0,1,2.68-3.33h0.16a2.1,2.1,0,0,1,2,1.09h0v-1h1Zm-1.18,2.48a1.62,1.62,0,0,0-.06-0.51,1.65,1.65,0,0,0-1.59-1.21,2.06,2.06,0,0,0-1.9,2.21q0,0.09,0,.17a2,2,0,0,0,1.65,2.24l0.22,0a1.67,1.67,0,0,0,1.58-1.17,2,2,0,0,0,.09-0.62v-1.13h0Z" transform="translate(0 0)"/><path class="cls-5" d="M188.61,186.81h1.14v4h0a2.12,2.12,0,0,1,.82-0.81,2.35,2.35,0,0,1,1.17-.32c0.85,0,2.2.51,2.2,2.69v3.74H192.8v-3.61a1.54,1.54,0,0,0-1.17-1.84l-0.28,0a1.65,1.65,0,0,0-1.53,1.14,1.38,1.38,0,0,0-.08.54v3.86H188.6v-9.32Z" transform="translate(0 0)"/><path class="cls-5" d="M197.15,187.94v1.81h1.63v0.87h-1.63V194c0,0.78.22,1.29,0.86,1.29a2.57,2.57,0,0,0,.67-0.08v0.86a2.8,2.8,0,0,1-1,.15,1.58,1.58,0,0,1-1.29-.48,2.33,2.33,0,0,1-.44-1.63v-3.43h-1v-1h1v-1.54Z" transform="translate(0 0)"/><path class="cls-5" d="M199.93,194.88a3,3,0,0,0,1.5.45,1,1,0,0,0,1.29-.94,1.29,1.29,0,0,0-1.17-1.16,2,2,0,0,1-1.66-1.79,1.94,1.94,0,0,1,2-1.86h0.16a3.14,3.14,0,0,1,1.54.39l-0.28.84a2.44,2.44,0,0,0-1.29-.36,0.91,0.91,0,0,0-1.05.86c0,0.51.37,0.76,1.2,1.07a1.93,1.93,0,0,1-.41,3.84l-0.29-.05a3.59,3.59,0,0,1-1.77-.42Z" transform="translate(0 0)"/><path class="cls-5" d="M162.78,222.87h4.72v1h-3.59v3h3.32v0.94h-3.32v4h-1.13v-8.83Z" transform="translate(0 0)"/><path class="cls-5" d="M174.36,228.43a3.07,3.07,0,0,1-2.79,3.33h-0.35a3,3,0,0,1-3-3q0-.14,0-0.28A3.07,3.07,0,0,1,171,225.2h0.33A3,3,0,0,1,174.36,228.43Zm-5,0a2,2,0,1,0,1.94-2.44,2.15,2.15,0,0,0-2,2.3q0,0.1,0,.2v-0.06Z" transform="translate(0 0)"/><path class="cls-5" d="M181.23,225.33v5.39a3.61,3.61,0,0,1-.9,2.88,3.34,3.34,0,0,1-2.29.76,4.06,4.06,0,0,1-2.1-.51l0.28-.87a3.55,3.55,0,0,0,1.85.49,1.89,1.89,0,0,0,2-2.2v-0.71h0a2.25,2.25,0,0,1-2,1.05,2.82,2.82,0,0,1-2.68-2.94s0-.09,0-0.13a3,3,0,0,1,2.68-3.33h0.16a2.1,2.1,0,0,1,2,1.09h0v-1h1ZM180,227.82a1.67,1.67,0,0,0-1.61-1.73h-0.05a2.06,2.06,0,0,0-1.9,2.21q0,0.09,0,.17a2,2,0,0,0,1.65,2.24l0.22,0a1.67,1.67,0,0,0,1.58-1.17,2,2,0,0,0,.09-0.62v-1.12Z" transform="translate(0 0)"/><path class="cls-5" d="M185.87,222.87H187v7.78h3.74v1h-4.87v-8.73Z" transform="translate(0 0)"/><path class="cls-5" d="M193.24,223.56a0.71,0.71,0,0,1-1.41,0,0.69,0.69,0,0,1,.67-0.72h0.05a0.68,0.68,0,0,1,.7.67S193.24,223.54,193.24,223.56ZM192,231.62v-6.3h1.14v6.3H192Z" transform="translate(0 0)"/><path class="cls-5" d="M200.39,225.33v5.39a3.61,3.61,0,0,1-.9,2.88,3.34,3.34,0,0,1-2.29.76,4.06,4.06,0,0,1-2.1-.51l0.28-.87a3.55,3.55,0,0,0,1.85.49,1.89,1.89,0,0,0,2-2.2v-0.71h0a2.25,2.25,0,0,1-2,1.05,2.82,2.82,0,0,1-2.68-2.94s0-.09,0-0.13a3,3,0,0,1,2.68-3.33h0.16a2.1,2.1,0,0,1,2,1.09h0v-1h1Zm-1.18,2.48a1.67,1.67,0,0,0-1.61-1.73h-0.05a2.06,2.06,0,0,0-1.9,2.21q0,0.09,0,.17a2,2,0,0,0,1.65,2.24l0.22,0a1.67,1.67,0,0,0,1.58-1.17,2,2,0,0,0,.09-0.62v-1.12Z" transform="translate(0 0)"/><path class="cls-5" d="M202.28,222.39h1.14v3.92h0a2.12,2.12,0,0,1,.82-0.81,2.37,2.37,0,0,1,1.17-.32c0.85,0,2.2.51,2.2,2.69v3.74h-1.14v-3.54a1.54,1.54,0,0,0-1.17-1.84l-0.28,0a1.65,1.65,0,0,0-1.53,1.14,1.38,1.38,0,0,0-.08.54v3.86h-1.14v-9.35Z" transform="translate(0 0)"/><path class="cls-5" d="M209.39,230.45a3,3,0,0,0,1.5.45,1,1,0,0,0,1.29-.94,1.29,1.29,0,0,0-1.17-1.16,2,2,0,0,1-1.66-1.79,1.94,1.94,0,0,1,2-1.86h0.16a3.14,3.14,0,0,1,1.54.39l-0.28.84a2.46,2.46,0,0,0-1.29-.36,0.91,0.91,0,0,0-1.05.86c0,0.51.37,0.76,1.2,1.07a1.93,1.93,0,0,1-.41,3.84l-0.29-.05a3.59,3.59,0,0,1-1.77-.42Z" transform="translate(0 0)"/><path class="cls-5" d="M150.92,258.56a16.19,16.19,0,0,1,2.4-.18,5,5,0,0,1,3.55,1.09,4,4,0,0,1,1.29,3.15,4.63,4.63,0,0,1-1.29,3.41,5.4,5.4,0,0,1-3.86,1.29,18.2,18.2,0,0,1-2.06-.1v-8.63Zm1.13,7.72a7.06,7.06,0,0,0,1.14.06,3.37,3.37,0,0,0,3.73-3.72,3.12,3.12,0,0,0-3.55-3.38,6.43,6.43,0,0,0-1.29.12v6.92h0Z" transform="translate(0 0)"/><path class="cls-5" d="M159.54,262.87v-2h1v1.29h0a1.89,1.89,0,0,1,1.75-1.38,1.28,1.28,0,0,1,.32,0v1.08a1.7,1.7,0,0,0-.39,0,1.61,1.61,0,0,0-1.53,1.47,3.17,3.17,0,0,0,0,.53v3.36h-1.13v-4.37Z" transform="translate(0 0)"/><path class="cls-5" d="M165.12,259.14a0.71,0.71,0,1,1-1.41,0,0.69,0.69,0,0,1,.67-0.72h0.05a0.68,0.68,0,0,1,.7.67S165.12,259.12,165.12,259.14Zm-1.29,8.06v-6.3H165v6.3h-1.14Z" transform="translate(0 0)"/><path class="cls-5" d="M167.33,260.91l1.29,3.54a16.12,16.12,0,0,1,.5,1.61h0a16.88,16.88,0,0,1,.54-1.61l1.29-3.54h1.16l-2.47,6.3H168.5l-2.39-6.3h1.22Z" transform="translate(0 0)"/><path class="cls-5" d="M174.41,259.14a0.71,0.71,0,1,1-1.41,0,0.69,0.69,0,0,1,.67-0.72h0.05a0.68,0.68,0,0,1,.7.67S174.41,259.12,174.41,259.14Zm-1.29,8.06v-6.3h1.14v6.3h-1.14Z" transform="translate(0 0)"/><path class="cls-5" d="M176.19,262.61V260.9h1l0.06,1h0a2.31,2.31,0,0,1,2.08-1.18c0.87,0,2.22.51,2.22,2.67v3.75h-1.14v-3.63a1.54,1.54,0,0,0-1.19-1.83l-0.27,0a1.68,1.68,0,0,0-1.61,1.71v3.78h-1.14V262.6h0Z" transform="translate(0 0)"/><path class="cls-5" d="M188.82,260.91v5.39a3.61,3.61,0,0,1-.9,2.88,3.34,3.34,0,0,1-2.29.76,4.06,4.06,0,0,1-2.1-.51l0.28-.87a3.55,3.55,0,0,0,1.85.49,1.89,1.89,0,0,0,2-2.2v-0.71h0a2.25,2.25,0,0,1-2,1.05,2.82,2.82,0,0,1-2.68-2.94s0-.09,0-0.13a3,3,0,0,1,2.68-3.33h0.16a2.1,2.1,0,0,1,2,1.09h0v-1h1Zm-1.18,2.48a1.67,1.67,0,0,0-1.61-1.73H186a2.06,2.06,0,0,0-1.9,2.21q0,0.09,0,.17a2,2,0,0,0,1.65,2.24l0.22,0a1.67,1.67,0,0,0,1.58-1.17,2,2,0,0,0,.09-0.62v-1.13h0Z" transform="translate(0 0)"/><path class="cls-5" d="M193.47,258.43h1.13v7.82h3.74v1h-4.87v-8.77h0Z" transform="translate(0 0)"/><path class="cls-5" d="M200.84,259.14a0.71,0.71,0,1,1-1.41,0,0.69,0.69,0,0,1,.67-0.72h0.05a0.68,0.68,0,0,1,.7.67S200.84,259.12,200.84,259.14Zm-1.29,8.06v-6.3h1.14v6.3h-1.14Z" transform="translate(0 0)"/><path class="cls-5" d="M208,260.91v5.39a3.63,3.63,0,0,1-.9,2.88,3.34,3.34,0,0,1-2.29.76,4.08,4.08,0,0,1-2.1-.51l0.28-.87a3.55,3.55,0,0,0,1.85.49,1.89,1.89,0,0,0,2-2.2v-0.71h0a2.25,2.25,0,0,1-2,1.05,2.82,2.82,0,0,1-2.68-2.94s0-.09,0-0.13a3,3,0,0,1,2.68-3.33h0.16a2.1,2.1,0,0,1,2,1.09h0v-1h1Zm-1.22,2.48a1.67,1.67,0,0,0-1.61-1.73h-0.05a2.06,2.06,0,0,0-1.9,2.21q0,0.09,0,.17a2,2,0,0,0,1.65,2.24l0.22,0a1.67,1.67,0,0,0,1.58-1.17,2,2,0,0,0,.09-0.62v-1.13h0Z" transform="translate(0 0)"/><path class="cls-5" d="M209.88,258H211v3.92h0a2.12,2.12,0,0,1,.82-0.81,2.37,2.37,0,0,1,1.17-.32c0.85,0,2.2.51,2.2,2.69v3.74h-1.14v-3.61a1.54,1.54,0,0,0-1.17-1.84l-0.28,0a1.65,1.65,0,0,0-1.53,1.14,1.38,1.38,0,0,0-.08.54v3.86h-1.14V258Z" transform="translate(0 0)"/><path class="cls-5" d="M218.39,259.1v1.81H220v0.87h-1.63v3.39c0,0.78.22,1.29,0.86,1.29a2.57,2.57,0,0,0,.67-0.08v0.86a2.79,2.79,0,0,1-1,.15,1.58,1.58,0,0,1-1.29-.48,2.33,2.33,0,0,1-.44-1.63v-3.43h-0.85V261h1v-1.5Z" transform="translate(0 0)"/><path class="cls-5" d="M221.19,266a3,3,0,0,0,1.5.45,1,1,0,0,0,1.29-.94,1.29,1.29,0,0,0-1.17-1.16,2,2,0,0,1-1.66-1.79,1.94,1.94,0,0,1,2-1.86h0.16a3.14,3.14,0,0,1,1.54.39l-0.28.84a2.46,2.46,0,0,0-1.29-.36,0.91,0.91,0,0,0-1.05.86c0,0.51.37,0.76,1.2,1.07a1.93,1.93,0,0,1-.41,3.84l-0.29-.05a3.59,3.59,0,0,1-1.77-.42Z" transform="translate(0 0)"/><path class="cls-5" d="M150.32,294.11a13,13,0,0,1,2.17-.17,3.6,3.6,0,0,1,2.46.73,2.35,2.35,0,0,1,.77,1.84,2.57,2.57,0,0,1-.68,1.88,3.64,3.64,0,0,1-2.67,1,3.86,3.86,0,0,1-.91-0.08v3.51h-1.13v-8.67h0Zm1.13,4.23a3.78,3.78,0,0,0,.94.09,1.88,1.88,0,0,0,2.2-1.88,1.74,1.74,0,0,0-2.07-1.71,4.8,4.8,0,0,0-1.07.09v3.41h0Z" transform="translate(0 0)"/><path class="cls-5" d="M160.35,302.78l-0.09-.8h0a2.34,2.34,0,0,1-1.93.94,1.8,1.8,0,0,1-1.92-1.67s0-.1,0-0.15c0-1.52,1.35-2.35,3.78-2.34v-0.13a1.29,1.29,0,0,0-1.43-1.45,3.14,3.14,0,0,0-1.63.46l-0.26-.76a3.86,3.86,0,0,1,2.07-.57,2.24,2.24,0,0,1,2.39,2.57v2.35a8.82,8.82,0,0,0,.1,1.5h-1Zm-0.17-3.21c-1.29,0-2.66.19-2.66,1.41a1,1,0,0,0,.93,1.09h0.15a1.57,1.57,0,0,0,1.52-1.05,1.2,1.2,0,0,0,.06-0.36v-1.09h0Z" transform="translate(0 0)"/><path class="cls-5" d="M163.1,298.45v-2h1v1.29h0a1.89,1.89,0,0,1,1.75-1.38,1.28,1.28,0,0,1,.32,0v1.12a1.7,1.7,0,0,0-.39,0,1.61,1.61,0,0,0-1.53,1.47,3.17,3.17,0,0,0,0,.53v3.36H163.1v-4.41Z" transform="translate(0 0)"/><path class="cls-5" d="M168.56,299.37h0c0.15-.22.37-0.49,0.57-0.72l1.85-2.17h1.38l-2.43,2.57,2.76,3.7H171.3l-2.17-3-0.59.66v2.37h-1.13v-9.23h1.13v5.82Z" transform="translate(0 0)"/><path class="cls-5" d="M175,294.72a0.71,0.71,0,1,1-1.41,0,0.69,0.69,0,0,1,.67-0.72h0.05a0.68,0.68,0,0,1,.7.67S175,294.7,175,294.72Zm-1.29,8.06v-6.3h1.14v6.3h-1.14Z" transform="translate(0 0)"/><path class="cls-5" d="M176.79,298.19v-1.71h1l0.06,1h0a2.31,2.31,0,0,1,2.08-1.18c0.87,0,2.22.51,2.22,2.67v3.75H181v-3.63a1.54,1.54,0,0,0-1.19-1.83l-0.27,0A1.68,1.68,0,0,0,178,299v3.78h-1.14v-4.59h0Z" transform="translate(0 0)"/><path class="cls-5" d="M189.43,296.48v5.39a3.63,3.63,0,0,1-.9,2.88,3.34,3.34,0,0,1-2.29.76,4.08,4.08,0,0,1-2.1-.51l0.28-.87a3.55,3.55,0,0,0,1.85.49,1.89,1.89,0,0,0,2-2.2V301.7h0a2.25,2.25,0,0,1-2,1.05,2.82,2.82,0,0,1-2.68-2.94s0-.09,0-0.13a3,3,0,0,1,2.68-3.33h0.16a2.1,2.1,0,0,1,2,1.09h0v-1h1ZM188.25,299a1.67,1.67,0,0,0-1.61-1.73h-0.05a2.06,2.06,0,0,0-1.9,2.21q0,0.09,0,.17a2,2,0,0,0,1.65,2.24l0.22,0a1.67,1.67,0,0,0,1.58-1.17,2,2,0,0,0,.09-0.62v-1.13h0Z" transform="translate(0 0)"/><path class="cls-5" d="M194.07,294h1.17v7.82H199v1h-4.87V294h0Z" transform="translate(0 0)"/><path class="cls-5" d="M201.44,294.72a0.71,0.71,0,1,1-1.41,0,0.69,0.69,0,0,1,.67-0.72h0.05a0.68,0.68,0,0,1,.7.67S201.44,294.7,201.44,294.72Zm-1.29,8.06v-6.3h1.14v6.3h-1.14Z" transform="translate(0 0)"/><path class="cls-5" d="M208.64,296.48v5.39a3.61,3.61,0,0,1-.9,2.88,3.34,3.34,0,0,1-2.29.76,4.06,4.06,0,0,1-2.1-.51l0.28-.87a3.55,3.55,0,0,0,1.85.49,1.89,1.89,0,0,0,2-2.2V301.7h0a2.25,2.25,0,0,1-2,1.05,2.82,2.82,0,0,1-2.68-2.94s0-.09,0-0.13a3,3,0,0,1,2.68-3.33h0.16a2.1,2.1,0,0,1,2,1.09h0v-1h1ZM207.46,299a1.67,1.67,0,0,0-1.61-1.73H205.8a2.06,2.06,0,0,0-1.9,2.21q0,0.09,0,.17a2,2,0,0,0,1.65,2.24l0.22,0a1.67,1.67,0,0,0,1.58-1.17,2,2,0,0,0,.09-0.62v-1.13h0Z" transform="translate(0 0)"/><path class="cls-5" d="M210.48,293.55h1.14v4h0a2.12,2.12,0,0,1,.82-0.81,2.37,2.37,0,0,1,1.17-.32c0.85,0,2.2.51,2.2,2.69v3.74h-1.14v-3.61a1.54,1.54,0,0,0-1.17-1.84l-0.28,0a1.65,1.65,0,0,0-1.53,1.14,1.38,1.38,0,0,0-.08.54v3.86h-1.14v-9.31Z" transform="translate(0 0)"/><path class="cls-5" d="M219,294.68v1.81h1.63v0.87H219v3.39c0,0.78.22,1.29,0.86,1.29a2.57,2.57,0,0,0,.67-0.08v0.86a2.79,2.79,0,0,1-1,.15,1.58,1.58,0,0,1-1.29-.48,2.33,2.33,0,0,1-.44-1.63v-3.43h-1v-1h1v-1.54Z" transform="translate(0 0)"/><path class="cls-5" d="M221.8,301.61a3,3,0,0,0,1.5.45,1,1,0,0,0,1.29-.94,1.29,1.29,0,0,0-1.17-1.16,2,2,0,0,1-1.66-1.79,1.94,1.94,0,0,1,2-1.86h0.16a3.14,3.14,0,0,1,1.54.39l-0.28.84a2.46,2.46,0,0,0-1.29-.36,0.91,0.91,0,0,0-1.05.86c0,0.51.37,0.76,1.2,1.07a1.93,1.93,0,0,1-.41,3.84l-0.29-.05a3.59,3.59,0,0,1-1.77-.42Z" transform="translate(0 0)"/><path class="cls-5" d="M163.48,330.56h-2.66v-1h6.43v1h-2.67v7.81h-1.09v-7.81Z" transform="translate(0 0)"/><path class="cls-5" d="M170.9,338.36l-0.09-.8h0a2.34,2.34,0,0,1-1.93.94,1.8,1.8,0,0,1-1.92-1.67s0-.1,0-0.15c0-1.52,1.35-2.35,3.78-2.34v-0.13a1.29,1.29,0,0,0-1.43-1.45,3.14,3.14,0,0,0-1.63.46l-0.26-.76a3.86,3.86,0,0,1,2.07-.57,2.24,2.24,0,0,1,2.39,2.57v2.35a8.82,8.82,0,0,0,.1,1.5h-1Zm-0.17-3.21c-1.29,0-2.66.19-2.66,1.41a1,1,0,0,0,.93,1.09h0.15a1.57,1.57,0,0,0,1.52-1.05,1.2,1.2,0,0,0,.06-0.36v-1.09h0Z" transform="translate(0 0)"/><path class="cls-5" d="M175,330.3a0.71,0.71,0,0,1-1.41,0,0.69,0.69,0,0,1,.67-0.72h0.05a0.68,0.68,0,0,1,.7.67S175,330.28,175,330.3Zm-1.29,8.06v-6.3h1.14v6.3h-1.14Z" transform="translate(0 0)"/><path class="cls-5" d="M176.73,329.12h1.14v9.23h-1.14v-9.23Z" transform="translate(0 0)"/><path class="cls-5" d="M182.59,329.59h1.08v7.78h3.86v1h-4.87v-8.77Z" transform="translate(0 0)"/><path class="cls-5" d="M190,330.3a0.71,0.71,0,0,1-1.41,0,0.69,0.69,0,0,1,.67-0.72h0.05a0.68,0.68,0,0,1,.7.67S190,330.28,190,330.3Zm-1.29,8.06v-6.3h1.14v6.3h-1.14Z" transform="translate(0 0)"/><path class="cls-5" d="M197.16,332.06v5.39a3.61,3.61,0,0,1-.9,2.88,3.34,3.34,0,0,1-2.29.76,4.06,4.06,0,0,1-2.1-.51l0.28-.87a3.55,3.55,0,0,0,1.85.49,1.89,1.89,0,0,0,2-2.2v-0.71h0a2.25,2.25,0,0,1-2,1.05,2.82,2.82,0,0,1-2.68-2.94s0-.09,0-0.13a3,3,0,0,1,2.68-3.33h0.16a2.1,2.1,0,0,1,2,1.09h0v-1h1ZM196,334.54a1.67,1.67,0,0,0-1.61-1.73h-0.05a2.06,2.06,0,0,0-1.9,2.21q0,0.09,0,.17a2,2,0,0,0,1.65,2.24l0.22,0a1.67,1.67,0,0,0,1.58-1.17,2,2,0,0,0,.09-0.62v-1.12Z" transform="translate(0 0)"/><path class="cls-5" d="M199,329.12h1.14V333h0a2.12,2.12,0,0,1,.82-0.81,2.37,2.37,0,0,1,1.17-.32c0.85,0,2.2.51,2.2,2.69v3.74h-1.12V334.8A1.54,1.54,0,0,0,202,333l-0.28,0a1.65,1.65,0,0,0-1.53,1.14,1.38,1.38,0,0,0-.08.54v3.86H199v-9.35Z" transform="translate(0 0)"/><path class="cls-5" d="M207.55,330.25v1.81h1.63v0.87h-1.63v3.39c0,0.78.22,1.29,0.86,1.29a2.57,2.57,0,0,0,.67-0.08v0.86a2.79,2.79,0,0,1-1,.15,1.58,1.58,0,0,1-1.29-.48,2.33,2.33,0,0,1-.44-1.63V333h-1v-0.87h1v-1.58Z" transform="translate(0 0)"/><path class="cls-5" d="M210.32,337.19a3,3,0,0,0,1.5.45,1,1,0,0,0,1.29-.94,1.29,1.29,0,0,0-1.17-1.16,2,2,0,0,1-1.66-1.79,1.94,1.94,0,0,1,2-1.86h0.16a3.14,3.14,0,0,1,1.54.39l-0.28.84a2.46,2.46,0,0,0-1.29-.36,0.91,0.91,0,0,0-1.05.86c0,0.51.37,0.76,1.2,1.07a1.93,1.93,0,0,1-.41,3.84l-0.29-.05a3.59,3.59,0,0,1-1.77-.42Z" transform="translate(0 0)"/><line class="cls-6" x1="187.76" y1="204.55" x2="187.76" y2="216.38"/><line class="cls-6" x1="187.76" y1="240.13" x2="187.76" y2="251.95"/><line class="cls-6" x1="187.76" y1="275.71" x2="187.76" y2="287.53"/><line class="cls-6" x1="187.76" y1="311.29" x2="187.76" y2="323.11"/><line class="cls-6" x1="45.19" y1="203.67" x2="45.19" y2="215.48"/><line class="cls-6" x1="45.19" y1="239.68" x2="45.19" y2="251.51"/><line class="cls-6" x1="45.19" y1="275.71" x2="45.19" y2="287.53"/><line class="cls-6" x1="45.19" y1="311.73" x2="45.19" y2="323.56"/><line class="cls-6" x1="45.19" y1="347.76" x2="45.19" y2="359.58"/><line class="cls-6" x1="45.19" y1="383.78" x2="45.19" y2="395.61"/><path class="cls-1" d="M761.4,11.84c0-1.29-.14-2.69-0.13-3.78h0c-0.3,1-.67,2.12-1.11,3.33l-1.54,4.26h-0.86l-1.41-4.18c-0.41-1.29-.77-2.37-1-3.41h0c0,1.09-.09,2.57-0.17,3.86l-0.23,3.75h-1.08l0.62-8.77h1.41l1.49,4.24c0.36,1.08.67,2,.89,3h0c0.22-.89.54-1.85,0.93-3l1.56-4.24h1.44l0.54,8.77h-1.11Z" transform="translate(0 0)"/><path class="cls-1" d="M765.15,12.76A2,2,0,0,0,767,14.94h0.32a4.14,4.14,0,0,0,1.75-.32l0.19,0.82a5.14,5.14,0,0,1-2.1.39,2.92,2.92,0,0,1-3.1-3.18,3.06,3.06,0,0,1,2.71-3.38l0.25,0A2.66,2.66,0,0,1,769.6,12q0,0.12,0,.24a4.43,4.43,0,0,1,0,.54h-4.44Zm3.36-.82a1.63,1.63,0,0,0-1.38-1.85l-0.2,0a1.9,1.9,0,0,0-1.76,1.86h3.34Z" transform="translate(0 0)"/><path class="cls-1" d="M771,11.1V9.39h1v1h0a2.17,2.17,0,0,1,2-1.16,1.86,1.86,0,0,1,1.79,1.29h0a2.57,2.57,0,0,1,.71-0.82,2.15,2.15,0,0,1,1.39-.44c0.84,0,2.07.54,2.07,2.73v3.7H778.9V12.14c0-1.21-.44-1.94-1.36-1.94a1.48,1.48,0,0,0-1.35,1,1.87,1.87,0,0,0-.09.58v3.86H775V11.92a1.45,1.45,0,0,0-1.13-1.71l-0.15,0a1.71,1.71,0,0,0-1.5,1.71v3.86h-1.12V11.16Z" transform="translate(0 0)"/><path class="cls-1" d="M781.82,15.69V6.46h1.13v4h0a2.34,2.34,0,0,1,2.15-1.16c1.56,0,2.66,1.29,2.65,3.21a3,3,0,0,1-2.6,3.35l-0.23,0a2.24,2.24,0,0,1-2-1.22h0v1h-1ZM783,13.12a2.12,2.12,0,0,0,0,.41,1.76,1.76,0,0,0,1.71,1.29c1.2,0,1.92-1,1.92-2.42a2,2,0,0,0-1.72-2.32l-0.16,0a1.83,1.83,0,0,0-1.75,1.4,2.33,2.33,0,0,0,0,.46v1.2Z" transform="translate(0 0)"/><path class="cls-1" d="M789.9,12.76a2,2,0,0,0,1.84,2.18h0.32a4.14,4.14,0,0,0,1.75-.32L794,15.44a5.14,5.14,0,0,1-2.1.39,2.92,2.92,0,0,1-3.1-3.18,3.06,3.06,0,0,1,2.71-3.38l0.25,0A2.66,2.66,0,0,1,794.36,12q0,0.12,0,.24a4.43,4.43,0,0,1,0,.54H789.9Zm3.36-.82a1.63,1.63,0,0,0-1.38-1.85l-0.2,0a1.9,1.9,0,0,0-1.76,1.86h3.34Z" transform="translate(0 0)"/><path class="cls-1" d="M795.74,11.37v-2h1v1.29h0a1.89,1.89,0,0,1,1.75-1.38,1.29,1.29,0,0,1,.32,0v1.08a1.74,1.74,0,0,0-.39,0,1.61,1.61,0,0,0-1.53,1.47,3.18,3.18,0,0,0,0,.54v3.36h-1.16V11.37Z" transform="translate(0 0)"/><path class="cls-1" d="M802.84,6.91H804v7.82h3.74v1h-4.87V6.91Z" transform="translate(0 0)"/><path class="cls-1" d="M814.45,12.5a3.07,3.07,0,0,1-2.79,3.33h-0.35a3,3,0,0,1-3-3q0-.14,0-0.28a3.07,3.07,0,0,1,2.79-3.33h0.33A3,3,0,0,1,814.45,12.5Zm-5,.06a2,2,0,1,0,1.94-2.44,2.15,2.15,0,0,0-2,2.32v0.12h0Z" transform="translate(0 0)"/><path class="cls-1" d="M821.32,9.4v5.39a3.63,3.63,0,0,1-.9,2.88,3.34,3.34,0,0,1-2.29.76,4.06,4.06,0,0,1-2.1-.51l0.28-.87a3.55,3.55,0,0,0,1.85.49,1.89,1.89,0,0,0,2-2.2V14.62h0a2.25,2.25,0,0,1-2,1.05,2.82,2.82,0,0,1-2.68-2.94s0-.09,0-0.13a3,3,0,0,1,2.68-3.33h0.16a2.1,2.1,0,0,1,2,1.09h0v-1h1Zm-1.14,2.48a1.67,1.67,0,0,0-1.61-1.73h-0.05a2.06,2.06,0,0,0-1.9,2.21q0,0.09,0,.17a2,2,0,0,0,1.65,2.24l0.22,0a1.67,1.67,0,0,0,1.58-1.17,2,2,0,0,0,.09-0.62V11.87h0Z" transform="translate(0 0)"/><path class="cls-1" d="M827.09,6.91v8.77H826V6.91h1.13Z" transform="translate(0 0)"/><path class="cls-1" d="M829.17,11.1V9.39h1l0.06,1h0a2.31,2.31,0,0,1,2.08-1.18c0.87,0,2.22.51,2.22,2.67v3.75h-1.14V12a1.53,1.53,0,0,0-1.16-1.83l-0.29,0a1.62,1.62,0,0,0-1.53,1.17,1.66,1.66,0,0,0-.08.54v3.78h-1.18V11.08h0Z" transform="translate(0 0)"/><path class="cls-1" d="M772.47,49.89a4,4,0,0,0,2,.57A1.57,1.57,0,0,0,776.34,49c0-.82-0.46-1.29-1.66-1.75-1.43-.5-2.31-1.29-2.31-2.48a2.57,2.57,0,0,1,2.74-2.39h0.1a4,4,0,0,1,1.94.42l-0.31.93a3.5,3.5,0,0,0-1.66-.41,1.41,1.41,0,0,0-1.63,1.16s0,0.08,0,.13c0,0.82.53,1.29,1.75,1.68,1.48,0.58,2.24,1.29,2.24,2.57s-1,2.57-3.07,2.57a4.53,4.53,0,0,1-2.24-.57Z" transform="translate(0 0)"/><path class="cls-1" d="M780.31,43.2a0.71,0.71,0,0,1-1.41,0,0.69,0.69,0,0,1,.67-0.72h0.05a0.68,0.68,0,0,1,.7.67S780.31,43.19,780.31,43.2ZM779,51.27V45h1.14v6.3H779Z" transform="translate(0 0)"/><path class="cls-1" d="M787.46,45v5.39a3.63,3.63,0,0,1-.9,2.88,3.34,3.34,0,0,1-2.29.76,4.06,4.06,0,0,1-2.1-.51l0.28-.87a3.55,3.55,0,0,0,1.85.49,1.89,1.89,0,0,0,2-2.2V50.19h0a2.25,2.25,0,0,1-2,1.05,2.82,2.82,0,0,1-2.68-2.94s0-.09,0-0.13a3,3,0,0,1,2.68-3.33h0.16a2.1,2.1,0,0,1,2,1.09h0V45h1Zm-1.18,2.48a1.67,1.67,0,0,0-1.61-1.73h-0.05a2.06,2.06,0,0,0-1.9,2.21q0,0.09,0,.17a2,2,0,0,0,1.65,2.24l0.22,0a1.67,1.67,0,0,0,1.58-1.17,2,2,0,0,0,.09-0.62V47.44h0Z" transform="translate(0 0)"/><path class="cls-1" d="M789.22,46.68V45h1l0.06,1h0a2.31,2.31,0,0,1,2.08-1.18c0.87,0,2.22.51,2.22,2.67v3.75h-1.14V47.63a1.53,1.53,0,0,0-1.16-1.83l-0.29,0a1.62,1.62,0,0,0-1.53,1.17,1.66,1.66,0,0,0-.08.54v3.78h-1.14V46.66h0Z" transform="translate(0 0)"/><path class="cls-1" d="M800.37,42.5v5.14c0,2,.87,2.8,2,2.8s2.13-.86,2.13-2.8V42.5h1.14v5.14c0,2.69-1.41,3.86-3.32,3.86s-3.15-1-3.15-3.74V42.61h1.14V42.5Z" transform="translate(0 0)"/><path class="cls-1" d="M807.61,47V45h1V46h0a2.48,2.48,0,0,1,2.24-1.29,2.85,2.85,0,0,1,2.68,3q0,0.09,0,.18c0,2.26-1.38,3.38-2.87,3.38a2.21,2.21,0,0,1-1.94-1h0v3.42h-1.13V47Zm1.13,1.67a2.58,2.58,0,0,0,0,.46,1.76,1.76,0,0,0,1.71,1.29c1.21,0,1.92-1,1.92-2.43a2,2,0,0,0-1.72-2.32l-0.16,0a1.83,1.83,0,0,0-1.72,1.41,1.86,1.86,0,0,0-.08.46v1.08Z" transform="translate(0 0)"/><path class="cls-1" d="M770.55,86.56a5.62,5.62,0,0,1-2.31.41,4.1,4.1,0,0,1-4.33-4.44,4.36,4.36,0,0,1,4.1-4.6h0.48a4.71,4.71,0,0,1,2.08.39l-0.27.93a4.11,4.11,0,0,0-1.76-.36,3.27,3.27,0,0,0-3.42,3.61A3.19,3.19,0,0,0,768.48,86a4.53,4.53,0,0,0,1.85-.36Z" transform="translate(0 0)"/><path class="cls-1" d="M777.48,83.65A3.07,3.07,0,0,1,774.69,87h-0.35a3,3,0,0,1-3-3q0-.14,0-0.28a3.07,3.07,0,0,1,2.79-3.33h0.33A3,3,0,0,1,777.48,83.65Zm-5,.06a2,2,0,1,0,1.94-2.44,2.15,2.15,0,0,0-2,2.32v0.12Z" transform="translate(0 0)"/><path class="cls-1" d="M778.92,82.26V80.55h1l0.06,1h0a2.31,2.31,0,0,1,2.08-1.18c0.87,0,2.22.51,2.22,2.67v3.75h-1.17V83.21A1.53,1.53,0,0,0,782,81.38l-0.29,0a1.62,1.62,0,0,0-1.53,1.17,1.66,1.66,0,0,0-.08.54v3.78h-1.14V82.26h0Z" transform="translate(0 0)"/><path class="cls-1" d="M787.47,78.75v1.81h1.65v0.93h-1.65v3.39c0,0.78.22,1.29,0.86,1.29a2.57,2.57,0,0,0,.67-0.08v0.86a2.8,2.8,0,0,1-1,.15,1.58,1.58,0,0,1-1.29-.48,2.33,2.33,0,0,1-.44-1.63V81.48h-1V80.61h1V79Z" transform="translate(0 0)"/><path class="cls-1" d="M793.88,86.85l-0.09-.8h0a2.34,2.34,0,0,1-1.93.94,1.8,1.8,0,0,1-1.92-1.67s0-.1,0-0.15c0-1.52,1.35-2.35,3.78-2.34V82.77a1.29,1.29,0,0,0-1.43-1.45,3.14,3.14,0,0,0-1.65.46L790.38,81a3.86,3.86,0,0,1,2.07-.57A2.24,2.24,0,0,1,794.84,83v2.31a8.89,8.89,0,0,0,.1,1.5h-1.07Zm-0.17-3.21c-1.29,0-2.66.19-2.66,1.41a1,1,0,0,0,.93,1.09h0.15a1.57,1.57,0,0,0,1.52-1.05,1.19,1.19,0,0,0,.06-0.36V83.63Z" transform="translate(0 0)"/><path class="cls-1" d="M801.15,86.63a4.2,4.2,0,0,1-1.81.36,3,3,0,0,1-3.14-3.21,3.2,3.2,0,0,1,3.05-3.35h0.33a3.86,3.86,0,0,1,1.58.32l-0.26.89a2.66,2.66,0,0,0-1.29-.3,2.38,2.38,0,0,0,0,4.73,3.25,3.25,0,0,0,1.4-.31Z" transform="translate(0 0)"/><path class="cls-1" d="M804,78.75v1.81h1.65v0.93H804v3.39c0,0.78.22,1.29,0.86,1.29a2.57,2.57,0,0,0,.67-0.08v0.86a2.8,2.8,0,0,1-1,.15,1.58,1.58,0,0,1-1.29-.48,2.33,2.33,0,0,1-.44-1.63V81.48h-1V80.61h1V79Z" transform="translate(0 0)"/><path class="cls-1" d="M810.89,78.08v5.14c0,2,.87,2.8,2,2.8s2.13-.86,2.13-2.8V78.08h1.14v5.14c0,2.69-1.41,3.86-3.32,3.86s-3.15-1-3.15-3.74V78.19h1.14V78.08Z" transform="translate(0 0)"/><path class="cls-1" d="M817.9,85.68a3,3,0,0,0,1.5.45,1,1,0,0,0,1.29-.94A1.29,1.29,0,0,0,819.52,84a2,2,0,0,1-1.66-1.79,1.94,1.94,0,0,1,2-1.86H820a3.14,3.14,0,0,1,1.54.39l-0.28.84a2.44,2.44,0,0,0-1.29-.36,0.91,0.91,0,0,0-1.05.86c0,0.51.37,0.76,1.2,1.07a1.93,1.93,0,0,1-.41,3.84L819.44,87a3.59,3.59,0,0,1-1.77-.42Z" transform="translate(0 0)"/><path class="cls-1" d="M202.1,15.4a5.61,5.61,0,0,1-2.31.41,4.1,4.1,0,0,1-4.33-4.44,4.36,4.36,0,0,1,4.1-4.6H200a4.71,4.71,0,0,1,2.08.39l-0.27.93a4.13,4.13,0,0,0-1.77-.36,3.27,3.27,0,0,0-3.42,3.61A3.19,3.19,0,0,0,200,14.86a4.53,4.53,0,0,0,1.85-.36Z" transform="translate(0 0)"/><path class="cls-1" d="M206.82,15.69l-0.09-.8h0a2.34,2.34,0,0,1-1.93.94,1.8,1.8,0,0,1-1.92-1.67s0-.1,0-0.15c0-1.52,1.35-2.35,3.78-2.34V11.55a1.29,1.29,0,0,0-1.43-1.45,3.14,3.14,0,0,0-1.63.46l-0.26-.76a3.86,3.86,0,0,1,2.07-.57,2.24,2.24,0,0,1,2.39,2.57v2.35a8.82,8.82,0,0,0,.1,1.5h-1.08v0Zm-0.17-3.21c-1.29,0-2.66.19-2.66,1.41a1,1,0,0,0,.93,1.09h0.15a1.57,1.57,0,0,0,1.52-1.05,1.2,1.2,0,0,0,.06-0.36V12.47h0Z" transform="translate(0 0)"/><path class="cls-1" d="M209.65,11.37v-2h1v1.29h0a1.89,1.89,0,0,1,1.75-1.38,1.29,1.29,0,0,1,.32,0v1.08a1.74,1.74,0,0,0-.39,0,1.61,1.61,0,0,0-1.53,1.47,3.19,3.19,0,0,0,0,.54v3.36h-1.16V11.37Z" transform="translate(0 0)"/><path class="cls-1" d="M215.59,7.59V9.4h1.63v0.87h-1.63v3.39c0,0.78.22,1.29,0.86,1.29a2.57,2.57,0,0,0,.67-0.08v0.86a2.8,2.8,0,0,1-1,.15,1.58,1.58,0,0,1-1.29-.48,2.33,2.33,0,0,1-.44-1.63V10.35h-1V9.48h1.13V8Z" transform="translate(0 0)"/><path class="cls-1" d="M186.24,51.27L184,42.5h1.2l1,4.44c0.26,1.09.49,2.19,0.66,3h0c0.14-.87.41-1.92,0.72-3l1.17-4.42H190l1.07,4.45c0.24,1,.48,2.08.62,3h0c0.18-1,.42-1.94.71-3l1.16-4.42h1.16l-2.48,8.77H191l-1-4.5a26.23,26.23,0,0,1-.58-2.87h0a27.3,27.3,0,0,1-.68,2.87l-1.29,4.56h-1.2V51.27Z" transform="translate(0 0)"/><path class="cls-1" d="M196.88,43.2a0.71,0.71,0,1,1-1.41,0,0.69,0.69,0,0,1,.67-0.72h0.05a0.68,0.68,0,0,1,.7.67S196.88,43.19,196.88,43.2Zm-1.29,8.06V45h1.14v6.3h-1.14Z" transform="translate(0 0)"/><path class="cls-1" d="M198.49,50.1a3,3,0,0,0,1.5.45,1,1,0,0,0,1.29-.94,1.29,1.29,0,0,0-1.17-1.16,2,2,0,0,1-1.66-1.79,1.94,1.94,0,0,1,2-1.86h0.16a3.14,3.14,0,0,1,1.54.39l-0.28.84a2.44,2.44,0,0,0-1.29-.36,0.91,0.91,0,0,0-1.05.86c0,0.51.37,0.76,1.2,1.07a1.93,1.93,0,1,1-.41,3.84L200,51.38a3.59,3.59,0,0,1-1.77-.42Z" transform="translate(0 0)"/><path class="cls-1" d="M203.8,42h1.14V46h0a2.12,2.12,0,0,1,.82-0.81,2.35,2.35,0,0,1,1.17-.32c0.85,0,2.2.51,2.2,2.69v3.74H208V47.65a1.54,1.54,0,0,0-1.17-1.84l-0.28,0A1.65,1.65,0,0,0,205,46.92a1.38,1.38,0,0,0-.08.54v3.86h-1.14V42Z" transform="translate(0 0)"/><path class="cls-1" d="M213.8,42.5h1.13v7.82h3.74v1H213.8V42.5h0Z" transform="translate(0 0)"/><path class="cls-1" d="M221.18,43.2a0.71,0.71,0,0,1-1.41,0,0.69,0.69,0,0,1,.67-0.72h0.05a0.68,0.68,0,0,1,.7.67S221.18,43.19,221.18,43.2Zm-1.29,8.06V45H221v6.3h-1.14Z" transform="translate(0 0)"/><path class="cls-1" d="M222.79,50.1a3,3,0,0,0,1.5.45,1,1,0,0,0,1.29-.94,1.29,1.29,0,0,0-1.17-1.16,2,2,0,0,1-1.66-1.79,1.94,1.94,0,0,1,2-1.86h0.16a3.14,3.14,0,0,1,1.54.39l-0.28.84a2.44,2.44,0,0,0-1.29-.36,0.91,0.91,0,0,0-1.05.86c0,0.51.37,0.76,1.2,1.07a1.93,1.93,0,1,1-.41,3.84l-0.29-.05a3.59,3.59,0,0,1-1.77-.42Z" transform="translate(0 0)"/><path class="cls-1" d="M229.47,43.17V45h1.63v0.87h-1.63v3.39c0,0.78.22,1.29,0.86,1.29a2.57,2.57,0,0,0,.67-0.08v0.86a2.8,2.8,0,0,1-1,.15A1.58,1.58,0,0,1,228.7,51a2.33,2.33,0,0,1-.44-1.63V45.93h-0.87V45.06h1v-1.5Z" transform="translate(0 0)"/><path class="cls-1" d="M784.75,121.05a8.15,8.15,0,0,1-2.69.48,4.11,4.11,0,0,1-4.5-4.42,4.4,4.4,0,0,1,4.25-4.54h0.49a5.41,5.41,0,0,1,2.19.4l-0.27.93a4.54,4.54,0,0,0-1.94-.37,3.28,3.28,0,0,0-3.52,3.52,3.21,3.21,0,0,0,3.38,3.54,3.68,3.68,0,0,0,1.5-.23v-2.57h-1.79v-0.91h2.89v4.18Z" transform="translate(0 0)"/><path class="cls-1" d="M791.7,119.73v1.72h-1l-0.06-1h0a2.37,2.37,0,0,1-2.08,1.17c-1,0-2.17-.54-2.17-2.75v-3.68h1.14v3.48c0,1.2.36,2,1.4,2a1.61,1.61,0,0,0,1.61-1.61h0v-3.86h1.14v4.58Z" transform="translate(0 0)"/><path class="cls-1" d="M794.24,118.49a2,2,0,0,0,1.84,2.18h0.32a4.14,4.14,0,0,0,1.75-.32l0.19,0.82a5.14,5.14,0,0,1-2.1.39,2.92,2.92,0,0,1-3.07-3.18,3.06,3.06,0,0,1,2.71-3.38l0.25,0a2.66,2.66,0,0,1,2.59,2.73q0,0.12,0,.24a4.43,4.43,0,0,1,0,.54h-4.46Zm3.36-.82a1.63,1.63,0,0,0-1.38-1.85l-0.2,0a1.9,1.9,0,0,0-1.76,1.86h3.34Z" transform="translate(0 0)"/><path class="cls-1" d="M800,120.27a3,3,0,0,0,1.5.45,1,1,0,0,0,1.29-.94,1.29,1.29,0,0,0-1.17-1.16,2,2,0,0,1-1.66-1.79,1.94,1.94,0,0,1,2-1.86h0.16a3.14,3.14,0,0,1,1.54.39l-0.28.84a2.44,2.44,0,0,0-1.29-.36,0.91,0.91,0,0,0-1.05.86c0,0.51.37,0.76,1.2,1.07a1.93,1.93,0,0,1-.41,3.84l-0.29-.05a3.59,3.59,0,0,1-1.77-.42Z" transform="translate(0 0)"/><path class="cls-1" d="M806.63,113.34v1.81h1.65V116h-1.65v3.39c0,0.78.22,1.29,0.86,1.29a2.57,2.57,0,0,0,.67-0.08v0.86a2.8,2.8,0,0,1-1,.15,1.58,1.58,0,0,1-1.29-.48,2.33,2.33,0,0,1-.44-1.63V116.1h-1v-0.87h1v-1.59Z" transform="translate(0 0)"/><rect class="cls-4" x="426.96" width="146.07" height="94.91"/><path class="cls-5" d="M469.8,34.82a11,11,0,0,1,2.07-.18,3.63,3.63,0,0,1,2.4.64,1.84,1.84,0,0,1,.73,1.54,2.08,2.08,0,0,1-1.48,1.93h0a2.26,2.26,0,0,1,1.81,2.2,2.37,2.37,0,0,1-.75,1.76,4.4,4.4,0,0,1-3,.82,13.33,13.33,0,0,1-1.76-.1V34.81h0Zm1.13,3.59h1a1.62,1.62,0,0,0,1.88-1.31,1.6,1.6,0,0,0,0-.16c0-1-.78-1.43-1.93-1.43a4.87,4.87,0,0,0-1,.08v2.83h0Zm0,4.2a6.07,6.07,0,0,0,1,0c1.17,0,2.25-.42,2.25-1.71s-1-1.68-2.26-1.68h-0.94v3.39Z" transform="translate(0 0)"/><path class="cls-5" d="M478.13,35.4a0.71,0.71,0,0,1-1.41,0,0.69,0.69,0,0,1,.67-0.72h0.05a0.68,0.68,0,0,1,.7.67S478.13,35.38,478.13,35.4Zm-1.29,8.06v-6.3H478v6.3h-1.14Z" transform="translate(0 0)"/><path class="cls-5" d="M479.84,38.87V37.16h1v1h0a2.17,2.17,0,0,1,2-1.16,1.86,1.86,0,0,1,1.79,1.29h0a2.57,2.57,0,0,1,.71-0.82,2.15,2.15,0,0,1,1.39-.44c0.84,0,2.07.54,2.07,2.73v3.7h-1.12V39.91c0-1.21-.44-1.94-1.36-1.94a1.48,1.48,0,0,0-1.35,1,1.89,1.89,0,0,0-.09.58v3.86h-1.07V39.69A1.45,1.45,0,0,0,482.66,38l-0.15,0a1.7,1.7,0,0,0-1.5,1.71v3.86h-1.12V38.94Z" transform="translate(0 0)"/><path class="cls-5" d="M490.7,38.87V37.16h1v1h0a2.17,2.17,0,0,1,2-1.16,1.86,1.86,0,0,1,1.79,1.29h0a2.57,2.57,0,0,1,.71-0.82,2.15,2.15,0,0,1,1.39-.44c0.84,0,2.07.54,2.07,2.73v3.7h-1.12V39.91c0-1.21-.44-1.94-1.36-1.94a1.48,1.48,0,0,0-1.35,1,1.89,1.89,0,0,0-.09.58v3.86h-1.12V39.69A1.45,1.45,0,0,0,493.46,38l-0.15,0a1.7,1.7,0,0,0-1.5,1.71v3.86h-1.12V38.87Z" transform="translate(0 0)"/><path class="cls-5" d="M502.18,40.53A2,2,0,0,0,504,42.71h0.32a4.13,4.13,0,0,0,1.75-.32l0.19,0.82a5.14,5.14,0,0,1-2.1.39,2.92,2.92,0,0,1-3.1-3.18,3.06,3.06,0,0,1,2.71-3.38L504,37a2.66,2.66,0,0,1,2.59,2.73q0,0.12,0,.24a4.43,4.43,0,0,1,0,.54h-4.44Zm3.36-.82a1.63,1.63,0,0,0-1.38-1.85l-0.2,0a1.89,1.89,0,0,0-1.76,1.86h3.34Z" transform="translate(0 0)"/><path class="cls-5" d="M508.06,39.14v-2H509v1.29h0a1.89,1.89,0,0,1,1.75-1.38,1.29,1.29,0,0,1,.32,0v1.08a1.72,1.72,0,0,0-.39,0,1.61,1.61,0,0,0-1.53,1.47,3.19,3.19,0,0,0,0,.54v3.36H508V39.19Z" transform="translate(0 0)"/><path class="cls-5" d="M513.48,34.71v5.14c0,2,.87,2.8,2,2.8s2.13-.86,2.13-2.8V34.71h1.14v5.14c0,2.69-1.41,3.86-3.32,3.86s-3.15-1-3.15-3.74V34.82h1.14V34.71Z" transform="translate(0 0)"/><path class="cls-5" d="M520.57,42.09a4,4,0,0,0,2,.57,1.57,1.57,0,0,0,1.84-1.49c0-.82-0.46-1.29-1.66-1.75-1.43-.5-2.31-1.29-2.31-2.48a2.57,2.57,0,0,1,2.74-2.39h0.1a4,4,0,0,1,1.94.42l-0.31.93a3.5,3.5,0,0,0-1.66-.41,1.41,1.41,0,0,0-1.66,1.29c0,0.82.54,1.29,1.75,1.68,1.48,0.58,2.24,1.29,2.24,2.57s-1,2.57-3.07,2.57A4.53,4.53,0,0,1,520.3,43Z" transform="translate(0 0)"/><path class="cls-5" d="M470.93,50.3V54h4.24V50.3h1.14v8.77h-1.14V55h-4.24v4.11H469.8V50.3h1.13Z" transform="translate(0 0)"/><path class="cls-5" d="M483.93,55.87a3.07,3.07,0,0,1-2.79,3.33H480.8a3,3,0,0,1-3-3q0-.14,0-0.28a3.07,3.07,0,0,1,2.79-3.33h0.33A3,3,0,0,1,483.93,55.87Zm-5,.06a2,2,0,1,0,1.94-2.44,2.15,2.15,0,0,0-2,2.32S478.94,55.9,478.94,55.93Z" transform="translate(0 0)"/><path class="cls-5" d="M485.37,54.48V52.77h1v1h0a2.17,2.17,0,0,1,2-1.16,1.86,1.86,0,0,1,1.79,1.29h0a2.57,2.57,0,0,1,.71-0.82,2.15,2.15,0,0,1,1.39-.44c0.84,0,2.07.54,2.07,2.73v3.7h-1.12V55.51c0-1.21-.44-1.94-1.36-1.94a1.48,1.48,0,0,0-1.35,1,1.89,1.89,0,0,0-.09.58V59h-1.07V55.28a1.45,1.45,0,0,0-1.13-1.71l-0.15,0a1.7,1.7,0,0,0-1.5,1.71v3.86h-1.12V54.48h0Z" transform="translate(0 0)"/><path class="cls-5" d="M496.86,56.13a2,2,0,0,0,1.84,2.18H499a4.14,4.14,0,0,0,1.75-.32L501,58.82a5.14,5.14,0,0,1-2.1.39,2.92,2.92,0,0,1-3.1-3.18,3.06,3.06,0,0,1,2.71-3.38l0.25,0a2.66,2.66,0,0,1,2.59,2.73q0,0.12,0,.24a4.43,4.43,0,0,1,0,.54h-4.44Zm3.36-.82a1.63,1.63,0,0,0-1.38-1.85l-0.2,0a1.9,1.9,0,0,0-1.76,1.86h3.34Z" transform="translate(0 0)"/><path class="cls-5" d="M505.54,50.41a13.13,13.13,0,0,1,2.17-.17,3.6,3.6,0,0,1,2.46.73,2.35,2.35,0,0,1,.77,1.84,2.57,2.57,0,0,1-.68,1.88,3.64,3.64,0,0,1-2.67,1,3.86,3.86,0,0,1-.91-0.08v3.51h-1.13V50.42h0Zm1.13,4.23a3.86,3.86,0,0,0,.94.09,1.88,1.88,0,0,0,2.2-1.88,1.74,1.74,0,0,0-2.1-1.71,4.76,4.76,0,0,0-1.07.09v3.41h0Z" transform="translate(0 0)"/><path class="cls-5" d="M515.57,59.07l-0.14-.73h0a2.34,2.34,0,0,1-1.93.94,1.8,1.8,0,0,1-1.92-1.67s0-.1,0-0.15c0-1.52,1.35-2.35,3.78-2.34V55a1.29,1.29,0,0,0-1.43-1.45,3.14,3.14,0,0,0-1.63.46L512,53.25a3.86,3.86,0,0,1,2.07-.57,2.24,2.24,0,0,1,2.39,2.57v2.35a8.76,8.76,0,0,0,.1,1.5h-1v0Zm-0.17-3.21c-1.29,0-2.66.19-2.66,1.41a1,1,0,0,0,.93,1.09h0.15a1.57,1.57,0,0,0,1.52-1.05A1.2,1.2,0,0,0,515.4,57V55.86h0Z" transform="translate(0 0)"/><path class="cls-5" d="M523.77,52.77v5.39a3.63,3.63,0,0,1-.9,2.88,3.34,3.34,0,0,1-2.29.76,4.06,4.06,0,0,1-2.1-.51l0.28-.87a3.55,3.55,0,0,0,1.8.5,1.89,1.89,0,0,0,2-2.2V58h0a2.25,2.25,0,0,1-2,1.05,2.82,2.82,0,0,1-2.68-2.94s0-.09,0-0.13a3,3,0,0,1,2.68-3.33h0.16a2.1,2.1,0,0,1,2,1.09h0v-1h1Zm-1.18,2.48A1.67,1.67,0,0,0,521,53.52h-0.05a2.06,2.06,0,0,0-1.9,2.21q0,0.09,0,.17a2,2,0,0,0,1.65,2.24l0.22,0A1.67,1.67,0,0,0,522.5,57a2,2,0,0,0,.09-0.62V55.24h0Z" transform="translate(0 0)"/><path class="cls-5" d="M526.25,56.13a2,2,0,0,0,1.84,2.18h0.32a4.14,4.14,0,0,0,1.75-.32l0.19,0.82a5.14,5.14,0,0,1-2.1.39,2.92,2.92,0,0,1-3.1-3.18,3.06,3.06,0,0,1,2.71-3.38l0.25,0a2.66,2.66,0,0,1,2.59,2.73q0,0.12,0,.24a4.18,4.18,0,0,1,0,.54h-4.44Zm3.36-.82a1.63,1.63,0,0,0-1.38-1.85l-0.2,0a1.9,1.9,0,0,0-1.76,1.86h3.34Z" transform="translate(0 0)"/><line class="cls-6" x1="252.84" y1="11.88" x2="426.6" y2="11.88"/><line class="cls-6" x1="747.66" y1="11.88" x2="572.67" y2="11.88"/><polyline class="cls-6" points="728.83 11.88 728.83 83.03 747.66 83.03"/><line class="cls-6" x1="747.66" y1="47.45" x2="728.83" y2="47.45"/><polyline class="cls-6" points="269.98 11.88 269.98 47.45 252.84 47.45"/><polyline class="cls-6" points="494.49 156.41 45.19 156.41 45.19 180.35"/><polyline class="cls-6" points="728.83 83.03 728.83 117.62 747.66 117.62"/><line class="cls-6" x1="187.76" y1="156.41" x2="187.76" y2="180.35"/><line class="cls-6" x1="324.55" y1="156.41" x2="324.55" y2="180.35"/><line class="cls-6" x1="450.1" y1="156.41" x2="450.1" y2="180.35"/><line class="cls-6" x1="580.81" y1="156.41" x2="580.81" y2="180.35"/><line class="cls-6" x1="499.99" y1="94.91" x2="499.99" y2="156.41"/></svg>