<svg id="Layer_1" data-name="Layer 1" xmlns="http://www.w3.org/2000/svg" viewBox="0 0 777.69 324.74"><defs><style>.cls-1{fill:#fff;}.cls-2{fill:#4a494a;}.cls-3{fill:#1c75bc;}.cls-4{fill:#bcbec0;}.cls-5{fill:#231f20;}.cls-6{fill:none;stroke:#fff;stroke-miterlimit:10;}</style></defs><title>infoArch</title><rect class="cls-1" x="110.87" y="167.93" width="70.28" height="18.47"/><rect class="cls-1" x="110.87" y="195.6" width="70.28" height="18.47"/><rect class="cls-1" x="110.87" y="223.27" width="70.28" height="18.47"/><rect class="cls-1" x="110.87" y="250.93" width="70.28" height="18.47"/><rect class="cls-1" x="217.26" y="167.93" width="70.28" height="18.47"/><rect class="cls-1" x="217.26" y="195.6" width="70.28" height="18.47"/><rect class="cls-1" x="217.26" y="223.27" width="70.28" height="18.47"/><rect class="cls-1" x="217.26" y="250.93" width="70.28" height="18.47"/><rect class="cls-1" x="314.9" y="167.93" width="70.28" height="18.47"/><rect class="cls-1" x="314.9" y="195.6" width="70.28" height="18.47"/><rect class="cls-1" x="314.9" y="223.27" width="70.28" height="18.47"/><rect class="cls-1" x="314.9" y="250.93" width="70.28" height="18.47"/><rect class="cls-1" x="416.55" y="167.93" width="70.28" height="18.47"/><rect class="cls-1" x="416.55" y="195.6" width="70.28" height="18.47"/><rect class="cls-1" x="416.55" y="223.27" width="70.28" height="18.47"/><rect class="cls-1" x="525.25" y="167.93" width="70.28" height="18.47"/><rect class="cls-1" x="513.96" y="195.6" width="92.85" height="18.47"/><rect class="cls-1" x="525.25" y="223.27" width="70.28" height="18.47"/><rect class="cls-1" x="525.25" y="250.93" width="70.28" height="18.47"/><rect class="cls-1" y="167.93" width="70.28" height="18.47"/><rect class="cls-1" y="195.6" width="70.28" height="18.47"/><rect class="cls-1" y="223.27" width="70.28" height="18.47"/><rect class="cls-1" y="250.93" width="70.28" height="18.47"/><rect class="cls-1" y="278.6" width="70.28" height="18.47"/><rect class="cls-1" y="306.27" width="70.28" height="18.47"/><rect class="cls-2" x="126.35" y="27.67" width="70.28" height="18.47"/><rect class="cls-2" x="126.35" width="70.28" height="18.47"/><rect class="cls-3" x="581.45" y="55.33" width="70.28" height="18.47"/><rect class="cls-3" x="581.45" y="82.24" width="70.28" height="18.47"/><rect class="cls-3" x="581.45" y="27.67" width="70.28" height="18.47"/><rect class="cls-3" x="581.45" width="70.28" height="18.47"/><rect class="cls-4" x="217.26" y="140.26" width="70.28" height="18.47"/><rect class="cls-4" x="314.9" y="140.26" width="70.28" height="18.47"/><rect class="cls-4" x="416.55" y="140.26" width="70.28" height="18.47"/><rect class="cls-4" x="525.25" y="140.26" width="70.28" height="18.47"/><rect class="cls-4" x="617.11" y="140.26" width="70.28" height="18.47"/><rect class="cls-4" x="707.41" y="140.26" width="70.28" height="18.47"/><rect class="cls-4" y="140.26" width="70.28" height="18.47"/><rect class="cls-4" x="110.87" y="140.26" width="70.28" height="18.47"/><path class="cls-5" d="M246.61,290.71a8.52,8.52,0,0,1,1.61-.14,2.82,2.82,0,0,1,1.87.5,1.43,1.43,0,0,1,.57,1.2,1.62,1.62,0,0,1-1.15,1.5v0a1.76,1.76,0,0,1,1.41,1.71,1.84,1.84,0,0,1-.58,1.37,3.42,3.42,0,0,1-2.36.64,10.37,10.37,0,0,1-1.37-.08v-6.71Zm0.88,2.79h0.8a1.26,1.26,0,0,0,1.48-1.14c0-.8-0.61-1.11-1.5-1.11a3.79,3.79,0,0,0-.78.06v2.2Zm0,3.27a4.72,4.72,0,0,0,.74,0c0.91,0,1.75-.33,1.75-1.33s-0.8-1.31-1.76-1.31h-0.73v2.6Z" transform="translate(-7.16 -143.63)"/><path class="cls-5" d="M252.06,294.07c0-.58,0-1.07,0-1.53h0.78l0,1h0a1.47,1.47,0,0,1,1.36-1.07,1,1,0,0,1,.25,0v0.84a1.35,1.35,0,0,0-.3,0,1.25,1.25,0,0,0-1.19,1.14,2.48,2.48,0,0,0,0,.42v2.61h-0.88v-3.37Z" transform="translate(-7.16 -143.63)"/><path class="cls-5" d="M258,297.44l-0.07-.62h0a1.82,1.82,0,0,1-1.5.73,1.4,1.4,0,0,1-1.5-1.41c0-1.18,1.05-1.83,2.94-1.82v-0.1a1,1,0,0,0-1.11-1.13,2.44,2.44,0,0,0-1.27.36l-0.2-.59a3,3,0,0,1,1.61-.44,1.74,1.74,0,0,1,1.86,2v1.83a6.86,6.86,0,0,0,.08,1.17H258Zm-0.13-2.5c-1,0-2.07.15-2.07,1.1a0.79,0.79,0,0,0,.84.85,1.22,1.22,0,0,0,1.18-.82,0.93,0.93,0,0,0,.05-0.28v-0.85Z" transform="translate(-7.16 -143.63)"/><path class="cls-5" d="M261.07,294.79h0c0.12-.17.29-0.38,0.44-0.56l1.44-1.69H264l-1.89,2,2.15,2.88h-1.08l-1.69-2.35-0.46.51v1.84h-0.88v-7.18h0.88v4.53Z" transform="translate(-7.16 -143.63)"/><path class="cls-5" d="M265.43,295.15a1.57,1.57,0,0,0,1.68,1.7,3.22,3.22,0,0,0,1.36-.25l0.15,0.64a4,4,0,0,1-1.63.3,2.27,2.27,0,0,1-2.41-2.47,2.38,2.38,0,0,1,2.3-2.64,2.07,2.07,0,0,1,2,2.31,3.34,3.34,0,0,1,0,.42h-3.44Zm2.61-.64a1.27,1.27,0,0,0-1.23-1.45,1.48,1.48,0,0,0-1.37,1.45H268Z" transform="translate(-7.16 -143.63)"/><path class="cls-5" d="M269.88,296.53a2.33,2.33,0,0,0,1.17.35,0.79,0.79,0,0,0,1-.73,1,1,0,0,0-.91-0.9,1.57,1.57,0,0,1-1.29-1.39,1.51,1.51,0,0,1,1.69-1.44,2.44,2.44,0,0,1,1.2.3l-0.22.65a1.9,1.9,0,0,0-1-.28,0.71,0.71,0,0,0-.82.67c0,0.4.29,0.59,0.93,0.83a1.5,1.5,0,1,1-.55,2.94,2.79,2.79,0,0,1-1.38-.33Z" transform="translate(-7.16 -143.63)"/><path class="cls-5" d="M333.57,296.36a3.12,3.12,0,0,0,1.58.44,1.22,1.22,0,0,0,1.43-1.16c0-.64-0.36-1-1.28-1.36-1.11-.39-1.8-1-1.8-1.93a2,2,0,0,1,2.21-1.85,3.1,3.1,0,0,1,1.51.33l-0.24.72a2.72,2.72,0,0,0-1.29-.32,1.1,1.1,0,0,0-1.28,1c0,0.64.41,1,1.36,1.31,1.15,0.45,1.74,1,1.74,2s-0.78,2-2.39,2a3.52,3.52,0,0,1-1.74-.44Z" transform="translate(-7.16 -143.63)"/><path class="cls-5" d="M342.75,296.1c0,0.51,0,1,0,1.34H342l-0.05-.8h0a1.84,1.84,0,0,1-1.62.91c-0.77,0-1.69-.42-1.69-2.14v-2.86h0.89v2.71c0,0.93.28,1.56,1.09,1.56a1.29,1.29,0,0,0,1.17-.81,1.31,1.31,0,0,0,.08-0.46v-3h0.89v3.56Z" transform="translate(-7.16 -143.63)"/><path class="cls-5" d="M344.1,296.53a2.33,2.33,0,0,0,1.17.35,0.79,0.79,0,0,0,1-.73,1,1,0,0,0-.91-0.9,1.57,1.57,0,0,1-1.29-1.39,1.51,1.51,0,0,1,1.69-1.44,2.44,2.44,0,0,1,1.2.3l-0.22.65a1.9,1.9,0,0,0-1-.28,0.71,0.71,0,0,0-.82.67c0,0.4.29,0.59,0.93,0.83a1.5,1.5,0,1,1-.55,2.94,2.79,2.79,0,0,1-1.38-.33Z" transform="translate(-7.16 -143.63)"/><path class="cls-5" d="M348.23,294.14c0-.63,0-1.13,0-1.6H349l0,0.84h0a1.92,1.92,0,0,1,1.74-1,2.22,2.22,0,0,1,2.07,2.49c0,1.76-1.07,2.63-2.23,2.63a1.72,1.72,0,0,1-1.51-.77h0v2.66h-0.88v-5.3Zm0.88,1.3a2,2,0,0,0,0,.36,1.37,1.37,0,0,0,1.34,1c0.94,0,1.49-.77,1.49-1.89a1.59,1.59,0,0,0-1.46-1.82,1.42,1.42,0,0,0-1.35,1.1,1.45,1.45,0,0,0-.06.36v0.84Z" transform="translate(-7.16 -143.63)"/><path class="cls-5" d="M354.48,295.15a1.57,1.57,0,0,0,1.68,1.7,3.22,3.22,0,0,0,1.36-.25l0.15,0.64a4,4,0,0,1-1.63.3,2.27,2.27,0,0,1-2.41-2.47,2.38,2.38,0,0,1,2.3-2.64,2.07,2.07,0,0,1,2,2.31,3.34,3.34,0,0,1,0,.42h-3.44Zm2.61-.64a1.27,1.27,0,0,0-1.23-1.45,1.48,1.48,0,0,0-1.37,1.45h2.6Z" transform="translate(-7.16 -143.63)"/><path class="cls-5" d="M359,293.86c0-.51,0-0.92,0-1.33h0.79l0.05,0.81h0a1.8,1.8,0,0,1,1.62-.92c0.68,0,1.73.4,1.73,2.08v2.92h-0.89v-2.82a1.19,1.19,0,0,0-1.13-1.45,1.26,1.26,0,0,0-1.19.91,1.28,1.28,0,0,0-.06.42v2.94H359v-3.57Z" transform="translate(-7.16 -143.63)"/><path class="cls-5" d="M364.54,296.53a2.33,2.33,0,0,0,1.17.35,0.79,0.79,0,0,0,1-.73,1,1,0,0,0-.91-0.9,1.57,1.57,0,0,1-1.29-1.39,1.51,1.51,0,0,1,1.69-1.44,2.44,2.44,0,0,1,1.2.3l-0.22.65a1.9,1.9,0,0,0-1-.28,0.71,0.71,0,0,0-.82.67c0,0.4.29,0.59,0.93,0.83a1.5,1.5,0,1,1-.55,2.94,2.79,2.79,0,0,1-1.38-.33Z" transform="translate(-7.16 -143.63)"/><path class="cls-5" d="M369.66,291.16a0.55,0.55,0,0,1-1.1,0,0.54,0.54,0,0,1,.56-0.56A0.53,0.53,0,0,1,369.66,291.16Zm-1,6.27v-4.9h0.89v4.9h-0.89Z" transform="translate(-7.16 -143.63)"/><path class="cls-5" d="M375.47,294.95a2.39,2.39,0,0,1-2.44,2.6,2.33,2.33,0,0,1-2.35-2.52,2.39,2.39,0,0,1,2.43-2.6A2.32,2.32,0,0,1,375.47,294.95Zm-3.88.05a1.53,1.53,0,1,0,1.51-1.9A1.67,1.67,0,0,0,371.58,295Z" transform="translate(-7.16 -143.63)"/><path class="cls-5" d="M376.59,293.86c0-.51,0-0.92,0-1.33h0.79l0.05,0.81h0a1.8,1.8,0,0,1,1.62-.92c0.68,0,1.73.4,1.73,2.08v2.92h-0.89v-2.82a1.19,1.19,0,0,0-1.13-1.45,1.26,1.26,0,0,0-1.19.91,1.28,1.28,0,0,0-.06.42v2.94h-0.89v-3.57Z" transform="translate(-7.16 -143.63)"/><path class="cls-5" d="M545.2,295.29l-0.71,2.14h-0.91l2.32-6.82H547l2.33,6.82h-0.94l-0.73-2.14H545.2Zm2.24-.69-0.67-2c-0.15-.44-0.25-0.85-0.35-1.24h0c-0.1.4-.21,0.82-0.34,1.23l-0.67,2h2.05Z" transform="translate(-7.16 -143.63)"/><path class="cls-5" d="M553.63,297.25a3.27,3.27,0,0,1-1.41.28,2.33,2.33,0,0,1-2.44-2.5,2.49,2.49,0,0,1,2.63-2.6,3,3,0,0,1,1.23.25l-0.2.69a2.07,2.07,0,0,0-1-.23,1.85,1.85,0,0,0,0,3.68,2.53,2.53,0,0,0,1.09-.24Z" transform="translate(-7.16 -143.63)"/><path class="cls-5" d="M558.1,297.25a3.27,3.27,0,0,1-1.41.28,2.33,2.33,0,0,1-2.44-2.5,2.49,2.49,0,0,1,2.63-2.6,3,3,0,0,1,1.23.25l-0.2.69a2.07,2.07,0,0,0-1-.23,1.85,1.85,0,0,0,0,3.68,2.53,2.53,0,0,0,1.09-.24Z" transform="translate(-7.16 -143.63)"/><path class="cls-5" d="M559.57,295.15a1.57,1.57,0,0,0,1.68,1.7,3.22,3.22,0,0,0,1.36-.25l0.15,0.64a4,4,0,0,1-1.63.3,2.27,2.27,0,0,1-2.41-2.47,2.38,2.38,0,0,1,2.3-2.64,2.07,2.07,0,0,1,2,2.31,3.44,3.44,0,0,1,0,.42h-3.44Zm2.61-.64a1.27,1.27,0,0,0-1.23-1.45,1.48,1.48,0,0,0-1.37,1.45h2.6Z" transform="translate(-7.16 -143.63)"/><path class="cls-5" d="M564,296.53a2.33,2.33,0,0,0,1.17.35,0.79,0.79,0,0,0,1-.73,1,1,0,0,0-.91-0.9,1.57,1.57,0,0,1-1.29-1.39,1.51,1.51,0,0,1,1.69-1.44,2.44,2.44,0,0,1,1.2.3l-0.22.65a1.9,1.9,0,0,0-1-.28,0.71,0.71,0,0,0-.82.67c0,0.4.29,0.59,0.93,0.83a1.5,1.5,0,1,1-.55,2.94,2.79,2.79,0,0,1-1.38-.33Z" transform="translate(-7.16 -143.63)"/><path class="cls-5" d="M568,296.53a2.33,2.33,0,0,0,1.17.35,0.79,0.79,0,0,0,1-.73,1,1,0,0,0-.91-0.9,1.57,1.57,0,0,1-1.29-1.39,1.51,1.51,0,0,1,1.69-1.44,2.44,2.44,0,0,1,1.2.3l-0.22.65a1.9,1.9,0,0,0-1-.28,0.71,0.71,0,0,0-.82.67c0,0.4.29,0.59,0.93,0.83a1.5,1.5,0,1,1-.55,2.94,2.79,2.79,0,0,1-1.38-.33Z" transform="translate(-7.16 -143.63)"/><path class="cls-5" d="M576.59,294.95a2.39,2.39,0,0,1-2.44,2.6A2.33,2.33,0,0,1,571.8,295a2.39,2.39,0,0,1,2.43-2.6A2.32,2.32,0,0,1,576.59,294.95Zm-3.88.05a1.53,1.53,0,1,0,1.51-1.9A1.67,1.67,0,0,0,572.7,295Z" transform="translate(-7.16 -143.63)"/><path class="cls-5" d="M577.71,294.07c0-.58,0-1.07,0-1.53h0.78l0,1h0a1.47,1.47,0,0,1,1.36-1.07,1,1,0,0,1,.25,0v0.84a1.35,1.35,0,0,0-.3,0,1.25,1.25,0,0,0-1.19,1.14,2.48,2.48,0,0,0,0,.42v2.61h-0.88v-3.37Z" transform="translate(-7.16 -143.63)"/><path class="cls-5" d="M582,291.16a0.55,0.55,0,0,1-1.1,0,0.54,0.54,0,0,1,.56-0.56A0.53,0.53,0,0,1,582,291.16Zm-1,6.27v-4.9h0.89v4.9h-0.89Z" transform="translate(-7.16 -143.63)"/><path class="cls-5" d="M583.92,295.15a1.57,1.57,0,0,0,1.68,1.7,3.22,3.22,0,0,0,1.36-.25l0.15,0.64a4,4,0,0,1-1.63.3,2.27,2.27,0,0,1-2.41-2.47,2.38,2.38,0,0,1,2.3-2.64,2.07,2.07,0,0,1,2,2.31,3.44,3.44,0,0,1,0,.42h-3.44Zm2.61-.64a1.27,1.27,0,0,0-1.23-1.45,1.48,1.48,0,0,0-1.37,1.45h2.6Z" transform="translate(-7.16 -143.63)"/><path class="cls-5" d="M588.37,296.53a2.33,2.33,0,0,0,1.17.35,0.79,0.79,0,0,0,1-.73,1,1,0,0,0-.91-0.9,1.57,1.57,0,0,1-1.29-1.39,1.51,1.51,0,0,1,1.69-1.44,2.44,2.44,0,0,1,1.2.3l-0.22.65a1.9,1.9,0,0,0-1-.28,0.71,0.71,0,0,0-.82.67c0,0.4.29,0.59,0.93,0.83a1.5,1.5,0,1,1-.55,2.94,2.79,2.79,0,0,1-1.38-.33Z" transform="translate(-7.16 -143.63)"/><path class="cls-5" d="M646,297.44l-1.73-6.82h0.93l0.81,3.45c0.2,0.85.38,1.7,0.51,2.36h0c0.11-.68.32-1.49,0.56-2.37l0.91-3.44h0.92l0.83,3.46c0.19,0.81.37,1.62,0.48,2.34h0c0.14-.75.33-1.51,0.55-2.36l0.9-3.44h0.9l-1.93,6.82h-0.92l-0.86-3.55a20.87,20.87,0,0,1-.45-2.23h0a21.5,21.5,0,0,1-.53,2.23l-1,3.55H646Z" transform="translate(-7.16 -143.63)"/><path class="cls-5" d="M653.33,290.25h0.89v3.06h0a1.66,1.66,0,0,1,.64-0.63,1.84,1.84,0,0,1,.91-0.25c0.66,0,1.71.4,1.71,2.09v2.91h-0.89v-2.81a1.2,1.2,0,0,0-1.13-1.46,1.28,1.28,0,0,0-1.19.89,1.07,1.07,0,0,0-.06.42v3h-0.89v-7.18Z" transform="translate(-7.16 -143.63)"/><path class="cls-5" d="M659.44,295.15a1.57,1.57,0,0,0,1.68,1.7,3.22,3.22,0,0,0,1.36-.25l0.15,0.64a4,4,0,0,1-1.63.3,2.27,2.27,0,0,1-2.41-2.47,2.38,2.38,0,0,1,2.3-2.64,2.07,2.07,0,0,1,2,2.31,3.44,3.44,0,0,1,0,.42h-3.44Zm2.61-.64a1.27,1.27,0,0,0-1.23-1.45,1.48,1.48,0,0,0-1.37,1.45H662Z" transform="translate(-7.16 -143.63)"/><path class="cls-5" d="M664.5,295.15a1.57,1.57,0,0,0,1.68,1.7,3.22,3.22,0,0,0,1.36-.25l0.15,0.64a4,4,0,0,1-1.63.3,2.27,2.27,0,0,1-2.41-2.47,2.38,2.38,0,0,1,2.3-2.64,2.07,2.07,0,0,1,2,2.31,3.44,3.44,0,0,1,0,.42H664.5Zm2.61-.64a1.27,1.27,0,0,0-1.23-1.45,1.48,1.48,0,0,0-1.37,1.45h2.6Z" transform="translate(-7.16 -143.63)"/><path class="cls-5" d="M669.07,290.25H670v7.18h-0.89v-7.18Z" transform="translate(-7.16 -143.63)"/><path class="cls-5" d="M671.34,296.53a2.33,2.33,0,0,0,1.17.35,0.79,0.79,0,0,0,1-.73,1,1,0,0,0-.91-0.9,1.57,1.57,0,0,1-1.29-1.39,1.51,1.51,0,0,1,1.69-1.44,2.44,2.44,0,0,1,1.2.3l-0.22.65a1.9,1.9,0,0,0-1-.28,0.71,0.71,0,0,0-.82.67c0,0.4.29,0.59,0.93,0.83a1.5,1.5,0,1,1-.55,2.94,2.79,2.79,0,0,1-1.38-.33Z" transform="translate(-7.16 -143.63)"/><path class="cls-5" d="M742,291.37h-2.07v-0.75h5v0.75h-2.08v6.07H742v-6.07Z" transform="translate(-7.16 -143.63)"/><path class="cls-5" d="M746.57,291.16a0.55,0.55,0,0,1-1.1,0,0.54,0.54,0,0,1,.56-0.56A0.53,0.53,0,0,1,746.57,291.16Zm-1,6.27v-4.9h0.89v4.9h-0.89Z" transform="translate(-7.16 -143.63)"/><path class="cls-5" d="M747.94,294.07c0-.58,0-1.07,0-1.53h0.78l0,1h0a1.47,1.47,0,0,1,1.36-1.07,1,1,0,0,1,.25,0v0.84a1.35,1.35,0,0,0-.3,0,1.25,1.25,0,0,0-1.19,1.14,2.48,2.48,0,0,0,0,.42v2.61h-0.88v-3.37Z" transform="translate(-7.16 -143.63)"/><path class="cls-5" d="M751.64,295.15a1.57,1.57,0,0,0,1.68,1.7,3.22,3.22,0,0,0,1.36-.25l0.15,0.64a4,4,0,0,1-1.63.3,2.27,2.27,0,0,1-2.41-2.47,2.38,2.38,0,0,1,2.3-2.64,2.07,2.07,0,0,1,2,2.31,3.44,3.44,0,0,1,0,.42h-3.44Zm2.61-.64a1.27,1.27,0,0,0-1.23-1.45,1.48,1.48,0,0,0-1.37,1.45h2.6Z" transform="translate(-7.16 -143.63)"/><path class="cls-5" d="M756.09,296.53a2.33,2.33,0,0,0,1.17.35,0.79,0.79,0,0,0,1-.73,1,1,0,0,0-.91-0.9,1.57,1.57,0,0,1-1.29-1.39,1.51,1.51,0,0,1,1.69-1.44,2.44,2.44,0,0,1,1.2.3l-0.22.65a1.9,1.9,0,0,0-1-.28,0.71,0.71,0,0,0-.82.67c0,0.4.29,0.59,0.93,0.83a1.5,1.5,0,1,1-.55,2.94,2.79,2.79,0,0,1-1.38-.33Z" transform="translate(-7.16 -143.63)"/><path class="cls-5" d="M235.15,318.38a8.52,8.52,0,0,1,1.61-.14,2.81,2.81,0,0,1,1.87.5,1.43,1.43,0,0,1,.57,1.2,1.62,1.62,0,0,1-1.15,1.5v0a1.76,1.76,0,0,1,1.41,1.71,1.84,1.84,0,0,1-.58,1.37,3.43,3.43,0,0,1-2.36.64,10.19,10.19,0,0,1-1.37-.08v-6.71Zm0.88,2.79h0.8A1.26,1.26,0,0,0,238.3,320c0-.8-0.61-1.11-1.5-1.11a3.79,3.79,0,0,0-.78.06v2.2Zm0,3.27a4.7,4.7,0,0,0,.74,0c0.91,0,1.75-.33,1.75-1.33s-0.8-1.32-1.76-1.32H236v2.6Z" transform="translate(-7.16 -143.63)"/><path class="cls-5" d="M240.6,321.73c0-.58,0-1.07,0-1.53h0.78l0,1h0a1.47,1.47,0,0,1,1.36-1.07,1,1,0,0,1,.25,0V321a1.32,1.32,0,0,0-.3,0,1.25,1.25,0,0,0-1.19,1.14,2.47,2.47,0,0,0,0,.41v2.61H240.6v-3.37Z" transform="translate(-7.16 -143.63)"/><path class="cls-5" d="M246.57,325.1l-0.07-.62h0a1.82,1.82,0,0,1-1.5.73,1.4,1.4,0,0,1-1.5-1.41c0-1.18,1.05-1.83,2.94-1.82v-0.1a1,1,0,0,0-1.11-1.13,2.44,2.44,0,0,0-1.27.36l-0.2-.59a3,3,0,0,1,1.61-.44,1.74,1.74,0,0,1,1.86,2v1.83a6.86,6.86,0,0,0,.08,1.17h-0.81Zm-0.13-2.5c-1,0-2.07.15-2.07,1.1a0.79,0.79,0,0,0,.84.85,1.22,1.22,0,0,0,1.18-.82,0.93,0.93,0,0,0,.05-0.28V322.6Z" transform="translate(-7.16 -143.63)"/><path class="cls-5" d="M249.61,322.45h0c0.12-.17.29-0.38,0.44-0.56l1.44-1.69h1.07l-1.89,2,2.15,2.88h-1.08l-1.69-2.35-0.46.51v1.84h-0.88v-7.18h0.88v4.53Z" transform="translate(-7.16 -143.63)"/><path class="cls-5" d="M254,322.82a1.57,1.57,0,0,0,1.68,1.7,3.22,3.22,0,0,0,1.36-.25l0.15,0.64a4,4,0,0,1-1.63.3,2.27,2.27,0,0,1-2.41-2.47,2.38,2.38,0,0,1,2.3-2.64,2.07,2.07,0,0,1,2,2.31,3.33,3.33,0,0,1,0,.42H254Zm2.61-.64a1.27,1.27,0,0,0-1.23-1.45,1.47,1.47,0,0,0-1.37,1.45h2.6Z" transform="translate(-7.16 -143.63)"/><path class="cls-5" d="M260.71,318.29h3.67V319h-2.79v2.27h2.58V322h-2.58v3.09h-0.88v-6.82Z" transform="translate(-7.16 -143.63)"/><path class="cls-5" d="M265.44,317.92h0.89v7.18h-0.89v-7.18Z" transform="translate(-7.16 -143.63)"/><path class="cls-5" d="M271.92,323.77c0,0.51,0,1,0,1.33h-0.79l-0.05-.8h0a1.84,1.84,0,0,1-1.62.91c-0.77,0-1.69-.42-1.69-2.14v-2.86h0.89v2.71c0,0.93.28,1.56,1.09,1.56a1.29,1.29,0,0,0,1.17-.81,1.31,1.31,0,0,0,.08-0.46v-3h0.89v3.56Z" transform="translate(-7.16 -143.63)"/><path class="cls-5" d="M274.39,318.83a0.55,0.55,0,0,1-1.1,0,0.54,0.54,0,0,1,.56-0.56A0.53,0.53,0,0,1,274.39,318.83Zm-1,6.27v-4.9h0.89v4.9H273.4Z" transform="translate(-7.16 -143.63)"/><path class="cls-5" d="M280,317.92v5.92c0,0.44,0,.93,0,1.26h-0.8l0-.85h0a1.81,1.81,0,0,1-1.67,1,2.23,2.23,0,0,1-2.09-2.49,2.34,2.34,0,0,1,2.2-2.63,1.64,1.64,0,0,1,1.48.75h0v-2.92H280Zm-0.89,4.28a1.57,1.57,0,0,0,0-.37,1.31,1.31,0,0,0-1.29-1,1.63,1.63,0,0,0-1.47,1.89,1.56,1.56,0,0,0,1.45,1.81,1.34,1.34,0,0,0,1.31-1.06,1.56,1.56,0,0,0,0-.38V322.2Z" transform="translate(-7.16 -143.63)"/><path class="cls-5" d="M281.35,324.19a2.33,2.33,0,0,0,1.17.35,0.79,0.79,0,0,0,1-.73,1,1,0,0,0-.91-0.9,1.57,1.57,0,0,1-1.29-1.39A1.51,1.51,0,0,1,283,320.1a2.44,2.44,0,0,1,1.2.3l-0.22.65a1.91,1.91,0,0,0-1-.28,0.71,0.71,0,0,0-.82.67c0,0.4.29,0.59,0.93,0.83a1.5,1.5,0,1,1-.55,2.94,2.79,2.79,0,0,1-1.38-.33Z" transform="translate(-7.16 -143.63)"/><path class="cls-5" d="M248.31,352.55a4.36,4.36,0,0,1-1.8.32,3.19,3.19,0,0,1-3.37-3.45,3.39,3.39,0,0,1,3.56-3.58,3.65,3.65,0,0,1,1.62.3l-0.21.72a3.2,3.2,0,0,0-1.38-.28,2.54,2.54,0,0,0-2.66,2.81,2.48,2.48,0,0,0,2.62,2.74,3.52,3.52,0,0,0,1.44-.28Z" transform="translate(-7.16 -143.63)"/><path class="cls-5" d="M252,352.77l-0.07-.62h0a1.82,1.82,0,0,1-1.5.73,1.4,1.4,0,0,1-1.5-1.41c0-1.18,1.05-1.83,2.94-1.82v-0.1a1,1,0,0,0-1.11-1.13,2.44,2.44,0,0,0-1.27.36l-0.2-.59a3,3,0,0,1,1.61-.44,1.74,1.74,0,0,1,1.86,2v1.83a6.86,6.86,0,0,0,.08,1.17H252Zm-0.13-2.5c-1,0-2.07.15-2.07,1.1a0.79,0.79,0,0,0,.84.85,1.22,1.22,0,0,0,1.18-.82,0.93,0.93,0,0,0,.05-0.28v-0.85Z" transform="translate(-7.16 -143.63)"/><path class="cls-5" d="M254.19,345.59h0.89v7.18h-0.89v-7.18Z" transform="translate(-7.16 -143.63)"/><path class="cls-5" d="M257.56,346.5a0.55,0.55,0,0,1-1.1,0,0.54,0.54,0,0,1,.56-0.56A0.53,0.53,0,0,1,257.56,346.5Zm-1,6.27v-4.9h0.89v4.9h-0.89Z" transform="translate(-7.16 -143.63)"/><path class="cls-5" d="M258.94,349.47c0-.63,0-1.13,0-1.6h0.8l0,0.84h0a1.93,1.93,0,0,1,1.74-1,2.22,2.22,0,0,1,2.07,2.49c0,1.76-1.07,2.63-2.23,2.63a1.72,1.72,0,0,1-1.51-.77h0v2.66h-0.88v-5.3Zm0.88,1.3a2,2,0,0,0,0,.36,1.37,1.37,0,0,0,1.34,1c0.94,0,1.49-.77,1.49-1.89a1.59,1.59,0,0,0-1.46-1.82,1.42,1.42,0,0,0-1.35,1.1,1.45,1.45,0,0,0-.06.36v0.84Z" transform="translate(-7.16 -143.63)"/><path class="cls-5" d="M265.19,350.49a1.57,1.57,0,0,0,1.68,1.7,3.22,3.22,0,0,0,1.36-.25l0.15,0.64a4,4,0,0,1-1.63.3,2.27,2.27,0,0,1-2.41-2.47,2.38,2.38,0,0,1,2.3-2.64,2.07,2.07,0,0,1,2,2.31,3.33,3.33,0,0,1,0,.42h-3.44Zm2.61-.64a1.27,1.27,0,0,0-1.23-1.45,1.47,1.47,0,0,0-1.37,1.45h2.6Z" transform="translate(-7.16 -143.63)"/><path class="cls-5" d="M269.76,349.4c0-.58,0-1.07,0-1.53h0.78l0,1h0a1.47,1.47,0,0,1,1.36-1.07,1,1,0,0,1,.25,0v0.84a1.32,1.32,0,0,0-.3,0,1.25,1.25,0,0,0-1.19,1.14,2.47,2.47,0,0,0,0,.41v2.61h-0.88V349.4Z" transform="translate(-7.16 -143.63)"/><path class="cls-5" d="M272.95,351.86a2.33,2.33,0,0,0,1.17.35,0.79,0.79,0,0,0,1-.73,1,1,0,0,0-.91-0.9,1.57,1.57,0,0,1-1.29-1.39,1.51,1.51,0,0,1,1.69-1.44,2.44,2.44,0,0,1,1.2.3l-0.22.65a1.91,1.91,0,0,0-1-.28,0.71,0.71,0,0,0-.82.67c0,0.4.29,0.59,0.93,0.83a1.5,1.5,0,1,1-.55,2.94,2.79,2.79,0,0,1-1.38-.33Z" transform="translate(-7.16 -143.63)"/><path class="cls-5" d="M250.47,373.7a10.14,10.14,0,0,1,1.69-.13,2.8,2.8,0,0,1,1.91.57,1.83,1.83,0,0,1,.6,1.43,2,2,0,0,1-.53,1.46,2.83,2.83,0,0,1-2.08.75,3,3,0,0,1-.71-0.06v2.73h-0.88V373.7Zm0.88,3.29a2.94,2.94,0,0,0,.73.07,1.46,1.46,0,0,0,1.71-1.46,1.35,1.35,0,0,0-1.61-1.33,3.73,3.73,0,0,0-.83.07V377Z" transform="translate(-7.16 -143.63)"/><path class="cls-5" d="M258.27,380.44l-0.07-.62h0a1.82,1.82,0,0,1-1.5.73,1.4,1.4,0,0,1-1.5-1.41c0-1.18,1.05-1.83,2.94-1.82v-0.1a1,1,0,0,0-1.11-1.13,2.45,2.45,0,0,0-1.27.36l-0.2-.59a3,3,0,0,1,1.61-.44,1.74,1.74,0,0,1,1.86,2v1.83a6.86,6.86,0,0,0,.08,1.17h-0.81Zm-0.13-2.5c-1,0-2.07.15-2.07,1.1a0.79,0.79,0,0,0,.84.85,1.22,1.22,0,0,0,1.18-.82,0.93,0.93,0,0,0,.05-0.28v-0.85Z" transform="translate(-7.16 -143.63)"/><path class="cls-5" d="M264.67,373.26v5.92c0,0.44,0,.93,0,1.26h-0.8l0-.85h0a1.81,1.81,0,0,1-1.67,1,2.23,2.23,0,0,1-2.09-2.49,2.34,2.34,0,0,1,2.2-2.63,1.64,1.64,0,0,1,1.48.75h0v-2.92h0.89Zm-0.89,4.28a1.57,1.57,0,0,0,0-.37,1.31,1.31,0,0,0-1.29-1A1.63,1.63,0,0,0,261,378a1.56,1.56,0,0,0,1.45,1.81,1.34,1.34,0,0,0,1.31-1.06,1.56,1.56,0,0,0,0-.38v-0.85Z" transform="translate(-7.16 -143.63)"/><path class="cls-5" d="M266,379.53a2.33,2.33,0,0,0,1.17.35,0.79,0.79,0,0,0,1-.73,1,1,0,0,0-.91-0.9,1.57,1.57,0,0,1-1.29-1.39,1.51,1.51,0,0,1,1.69-1.44,2.44,2.44,0,0,1,1.2.3l-0.22.65a1.91,1.91,0,0,0-1-.28,0.71,0.71,0,0,0-.82.67c0,0.4.29,0.59,0.93,0.83a1.5,1.5,0,1,1-.55,2.94,2.79,2.79,0,0,1-1.38-.33Z" transform="translate(-7.16 -143.63)"/><path class="cls-5" d="M246.73,401.38a9.19,9.19,0,0,1,1.69-.14,2.79,2.79,0,0,1,2,.56,1.7,1.7,0,0,1,.54,1.29,1.79,1.79,0,0,1-1.28,1.74v0a1.7,1.7,0,0,1,1,1.38,10.87,10.87,0,0,0,.53,1.87h-0.91a8.9,8.9,0,0,1-.46-1.63,1.32,1.32,0,0,0-1.37-1.33h-0.83v3h-0.88v-6.73Zm0.88,3.11h0.9a1.34,1.34,0,0,0,1.54-1.29,1.31,1.31,0,0,0-1.57-1.27,3.64,3.64,0,0,0-.87.08v2.49Z" transform="translate(-7.16 -143.63)"/><path class="cls-5" d="M256.61,405.62a2.39,2.39,0,0,1-2.44,2.6,2.33,2.33,0,0,1-2.35-2.52,2.39,2.39,0,0,1,2.43-2.6A2.32,2.32,0,0,1,256.61,405.62Zm-3.88,0a1.53,1.53,0,1,0,1.51-1.9A1.67,1.67,0,0,0,252.73,405.67Z" transform="translate(-7.16 -143.63)"/><path class="cls-5" d="M258.81,401.8v1.41h1.27v0.68h-1.27v2.64c0,0.61.17,1,.67,1a2,2,0,0,0,.52-0.06l0,0.67a2.17,2.17,0,0,1-.79.12,1.23,1.23,0,0,1-1-.37,1.81,1.81,0,0,1-.34-1.27v-2.67h-0.76v-0.68h0.76V402Z" transform="translate(-7.16 -143.63)"/><path class="cls-5" d="M265.45,405.62a2.39,2.39,0,0,1-2.44,2.6,2.33,2.33,0,0,1-2.35-2.52,2.39,2.39,0,0,1,2.43-2.6A2.32,2.32,0,0,1,265.45,405.62Zm-3.88,0a1.53,1.53,0,1,0,1.51-1.9A1.67,1.67,0,0,0,261.57,405.67Z" transform="translate(-7.16 -143.63)"/><path class="cls-5" d="M266.58,404.74c0-.58,0-1.07,0-1.53h0.78l0,1h0a1.47,1.47,0,0,1,1.36-1.07,1,1,0,0,1,.25,0V404a1.32,1.32,0,0,0-.3,0,1.25,1.25,0,0,0-1.19,1.14,2.47,2.47,0,0,0,0,.41v2.61h-0.88v-3.37Z" transform="translate(-7.16 -143.63)"/><path class="cls-5" d="M269.76,407.2a2.33,2.33,0,0,0,1.17.35,0.79,0.79,0,0,0,1-.73,1,1,0,0,0-.91-0.9,1.57,1.57,0,0,1-1.29-1.39,1.51,1.51,0,0,1,1.69-1.44,2.44,2.44,0,0,1,1.2.3l-0.22.65a1.91,1.91,0,0,0-1-.28,0.71,0.71,0,0,0-.82.67c0,0.4.29,0.59,0.93,0.83a1.5,1.5,0,1,1-.55,2.94,2.79,2.79,0,0,1-1.38-.33Z" transform="translate(-7.16 -143.63)"/><path class="cls-5" d="M446.61,294.24H444v2.46h3v0.74h-3.83v-6.82h3.68v0.74H444v2.15h2.65v0.73Z" transform="translate(-7.16 -143.63)"/><path class="cls-5" d="M448.44,292.54l0.7,1.05c0.18,0.27.33,0.53,0.5,0.8h0c0.16-.29.32-0.55,0.49-0.81l0.69-1h1l-1.67,2.37,1.72,2.53h-1l-0.72-1.1c-0.19-.28-0.35-0.56-0.53-0.85h0c-0.16.29-.33,0.56-0.52,0.85l-0.71,1.1h-1l1.74-2.5-1.66-2.4h1Z" transform="translate(-7.16 -143.63)"/><path class="cls-5" d="M452.7,290.25h0.89v3.06h0a1.66,1.66,0,0,1,.64-0.63,1.84,1.84,0,0,1,.91-0.25c0.66,0,1.71.4,1.71,2.09v2.91H456v-2.81a1.2,1.2,0,0,0-1.13-1.46,1.28,1.28,0,0,0-1.19.89,1.07,1.07,0,0,0-.06.42v3H452.7v-7.18Z" transform="translate(-7.16 -143.63)"/><path class="cls-5" d="M461,297.44l-0.07-.62h0a1.82,1.82,0,0,1-1.5.73,1.4,1.4,0,0,1-1.5-1.41c0-1.18,1.05-1.83,2.94-1.82v-0.1a1,1,0,0,0-1.11-1.13,2.44,2.44,0,0,0-1.28.36l-0.2-.59a3,3,0,0,1,1.61-.44,1.74,1.74,0,0,1,1.86,2v1.83a6.91,6.91,0,0,0,.08,1.17H461Zm-0.13-2.5c-1,0-2.07.15-2.07,1.1a0.79,0.79,0,0,0,.84.85,1.22,1.22,0,0,0,1.18-.82,0.93,0.93,0,0,0,.05-0.28v-0.85Z" transform="translate(-7.16 -143.63)"/><path class="cls-5" d="M467.29,296.1c0,0.51,0,1,0,1.34h-0.79l-0.05-.8h0a1.84,1.84,0,0,1-1.62.91c-0.77,0-1.69-.42-1.69-2.14v-2.86h0.89v2.71c0,0.93.28,1.56,1.09,1.56a1.25,1.25,0,0,0,1.25-1.26v-3h0.89v3.56Z" transform="translate(-7.16 -143.63)"/><path class="cls-5" d="M468.64,296.53a2.33,2.33,0,0,0,1.17.35,0.79,0.79,0,0,0,1-.73,1,1,0,0,0-.91-0.9,1.57,1.57,0,0,1-1.29-1.39,1.51,1.51,0,0,1,1.69-1.44,2.44,2.44,0,0,1,1.2.3l-0.22.65a1.9,1.9,0,0,0-1-.28,0.71,0.71,0,0,0-.82.67c0,0.4.29,0.59,0.93,0.83a1.5,1.5,0,1,1-.55,2.94,2.79,2.79,0,0,1-1.38-.33Z" transform="translate(-7.16 -143.63)"/><path class="cls-5" d="M473.84,291.13v1.41h1.28v0.68h-1.28v2.64c0,0.61.17,1,.67,1a2,2,0,0,0,.52-0.06l0,0.67a2.18,2.18,0,0,1-.79.12,1.23,1.23,0,0,1-1-.37,1.81,1.81,0,0,1-.34-1.27v-2.67h-0.76v-0.68H473v-1.17Z" transform="translate(-7.16 -143.63)"/><path class="cls-5" d="M343.13,324a3.12,3.12,0,0,0,1.58.45,1.22,1.22,0,0,0,1.43-1.16c0-.64-0.36-1-1.28-1.36-1.11-.39-1.8-1-1.8-1.93a2,2,0,0,1,2.21-1.85,3.1,3.1,0,0,1,1.51.33l-0.24.72a2.72,2.72,0,0,0-1.29-.32,1.1,1.1,0,0,0-1.29,1c0,0.64.42,1,1.36,1.32,1.15,0.45,1.74,1,1.74,2s-0.78,2-2.39,2a3.52,3.52,0,0,1-1.74-.44Z" transform="translate(-7.16 -143.63)"/><path class="cls-5" d="M348.2,317.92h0.89V321h0a1.65,1.65,0,0,1,.64-0.63,1.84,1.84,0,0,1,.91-0.25c0.66,0,1.71.4,1.71,2.09v2.91h-0.89v-2.81a1.2,1.2,0,0,0-1.13-1.46,1.28,1.28,0,0,0-1.19.89,1.07,1.07,0,0,0-.06.42v3H348.2v-7.18Z" transform="translate(-7.16 -143.63)"/><path class="cls-5" d="M358.25,322.62a2.39,2.39,0,0,1-2.44,2.6,2.33,2.33,0,0,1-2.35-2.52,2.39,2.39,0,0,1,2.43-2.6A2.32,2.32,0,0,1,358.25,322.62Zm-3.88,0a1.53,1.53,0,1,0,1.51-1.9A1.67,1.67,0,0,0,354.36,322.67Z" transform="translate(-7.16 -143.63)"/><path class="cls-5" d="M362.86,324.92a3.28,3.28,0,0,1-1.41.28,2.33,2.33,0,0,1-2.44-2.5,2.49,2.49,0,0,1,2.63-2.6,3,3,0,0,1,1.23.25l-0.2.69a2.07,2.07,0,0,0-1-.23,1.85,1.85,0,0,0,0,3.68,2.53,2.53,0,0,0,1.09-.24Z" transform="translate(-7.16 -143.63)"/><path class="cls-5" d="M364.78,322.45h0c0.12-.17.29-0.38,0.44-0.56l1.44-1.69h1.07l-1.89,2L368,325.1h-1.08l-1.69-2.35-0.46.51v1.84H363.9v-7.18h0.88v4.53Z" transform="translate(-7.16 -143.63)"/><path class="cls-5" d="M368.52,324.19a2.33,2.33,0,0,0,1.17.35,0.79,0.79,0,0,0,1-.73,1,1,0,0,0-.91-0.9,1.57,1.57,0,0,1-1.29-1.39,1.51,1.51,0,0,1,1.69-1.44,2.44,2.44,0,0,1,1.2.3l-0.22.65a1.91,1.91,0,0,0-1-.28,0.71,0.71,0,0,0-.82.67c0,0.4.29,0.59,0.93,0.83a1.5,1.5,0,1,1-.55,2.94,2.79,2.79,0,0,1-1.38-.33Z" transform="translate(-7.16 -143.63)"/><path class="cls-5" d="M345.57,351.7a3.12,3.12,0,0,0,1.58.45,1.22,1.22,0,0,0,1.43-1.16c0-.64-0.36-1-1.28-1.36-1.11-.39-1.8-1-1.8-1.93a2,2,0,0,1,2.21-1.85,3.1,3.1,0,0,1,1.51.33l-0.24.72a2.72,2.72,0,0,0-1.29-.32,1.1,1.1,0,0,0-1.29,1c0,0.64.42,1,1.36,1.32,1.15,0.45,1.74,1,1.74,2s-0.78,2-2.39,2a3.52,3.52,0,0,1-1.74-.44Z" transform="translate(-7.16 -143.63)"/><path class="cls-5" d="M351.69,346.47v1.41H353v0.68h-1.27v2.64c0,0.61.17,1,.67,1a2,2,0,0,0,.52-0.06l0,0.67a2.17,2.17,0,0,1-.79.12,1.23,1.23,0,0,1-1-.37,1.81,1.81,0,0,1-.34-1.27v-2.67h-0.76v-0.68h0.76V346.7Z" transform="translate(-7.16 -143.63)"/><path class="cls-5" d="M354,349.4c0-.58,0-1.07,0-1.53h0.78l0,1h0a1.47,1.47,0,0,1,1.36-1.07,1,1,0,0,1,.25,0v0.84a1.32,1.32,0,0,0-.3,0,1.25,1.25,0,0,0-1.19,1.14,2.47,2.47,0,0,0,0,.41v2.61H354V349.4Z" transform="translate(-7.16 -143.63)"/><path class="cls-5" d="M361.37,351.44c0,0.51,0,1,0,1.33h-0.79l-0.05-.8h0a1.84,1.84,0,0,1-1.62.91c-0.77,0-1.69-.42-1.69-2.14v-2.86h0.89v2.71c0,0.93.28,1.56,1.09,1.56a1.29,1.29,0,0,0,1.17-.81,1.31,1.31,0,0,0,.08-0.46v-3h0.89v3.56Z" transform="translate(-7.16 -143.63)"/><path class="cls-5" d="M363.92,346.47v1.41h1.27v0.68h-1.27v2.64c0,0.61.17,1,.67,1a2,2,0,0,0,.52-0.06l0,0.67a2.17,2.17,0,0,1-.79.12,1.23,1.23,0,0,1-1-.37,1.81,1.81,0,0,1-.34-1.27v-2.67h-0.76v-0.68h0.76V346.7Z" transform="translate(-7.16 -143.63)"/><path class="cls-5" d="M366.07,351.86a2.33,2.33,0,0,0,1.17.35,0.79,0.79,0,0,0,1-.73,1,1,0,0,0-.91-0.9A1.57,1.57,0,0,1,366,349.2a1.51,1.51,0,0,1,1.69-1.44,2.44,2.44,0,0,1,1.2.3l-0.22.65a1.91,1.91,0,0,0-1-.28,0.71,0.71,0,0,0-.82.67c0,0.4.29,0.59,0.93,0.83a1.5,1.5,0,1,1-.55,2.94,2.79,2.79,0,0,1-1.38-.33Z" transform="translate(-7.16 -143.63)"/><path class="cls-5" d="M337.76,380.22a4.36,4.36,0,0,1-1.8.32,3.19,3.19,0,0,1-3.37-3.45,3.39,3.39,0,0,1,3.56-3.58,3.65,3.65,0,0,1,1.62.3l-0.21.72a3.2,3.2,0,0,0-1.38-.28,2.54,2.54,0,0,0-2.66,2.81,2.48,2.48,0,0,0,2.62,2.74,3.52,3.52,0,0,0,1.44-.28Z" transform="translate(-7.16 -143.63)"/><path class="cls-5" d="M343.15,378a2.39,2.39,0,0,1-2.44,2.6,2.33,2.33,0,0,1-2.35-2.52,2.39,2.39,0,0,1,2.43-2.6A2.32,2.32,0,0,1,343.15,378Zm-3.88,0a1.53,1.53,0,1,0,1.51-1.9A1.67,1.67,0,0,0,339.27,378Z" transform="translate(-7.16 -143.63)"/><path class="cls-5" d="M345.27,374.17a0.55,0.55,0,0,1-1.1,0,0.54,0.54,0,0,1,.56-0.56A0.53,0.53,0,0,1,345.27,374.17Zm-1,6.27v-4.9h0.89v4.9h-0.89Z" transform="translate(-7.16 -143.63)"/><path class="cls-5" d="M346.64,373.26h0.89v7.18h-0.89v-7.18Z" transform="translate(-7.16 -143.63)"/><path class="cls-5" d="M351.08,379.37a3.12,3.12,0,0,0,1.58.45,1.22,1.22,0,0,0,1.43-1.16c0-.64-0.36-1-1.28-1.36-1.11-.39-1.8-1-1.8-1.93a2,2,0,0,1,2.21-1.85,3.1,3.1,0,0,1,1.51.33l-0.24.72a2.72,2.72,0,0,0-1.29-.32,1.1,1.1,0,0,0-1.29,1c0,0.64.42,1,1.36,1.32,1.15,0.45,1.74,1,1.74,2s-0.78,2-2.39,2a3.52,3.52,0,0,1-1.74-.44Z" transform="translate(-7.16 -143.63)"/><path class="cls-5" d="M356.16,377.14c0-.63,0-1.13,0-1.6h0.8l0,0.84h0a1.93,1.93,0,0,1,1.74-1,2.22,2.22,0,0,1,2.07,2.49c0,1.76-1.07,2.63-2.23,2.63a1.72,1.72,0,0,1-1.51-.77h0v2.66h-0.88v-5.3Zm0.88,1.3a2,2,0,0,0,0,.36,1.37,1.37,0,0,0,1.34,1c0.94,0,1.49-.77,1.49-1.89a1.59,1.59,0,0,0-1.46-1.82,1.42,1.42,0,0,0-1.35,1.1,1.45,1.45,0,0,0-.06.36v0.84Z" transform="translate(-7.16 -143.63)"/><path class="cls-5" d="M361.91,377.07c0-.58,0-1.07,0-1.53h0.78l0,1h0a1.47,1.47,0,0,1,1.36-1.07,1,1,0,0,1,.25,0v0.84a1.32,1.32,0,0,0-.3,0,1.25,1.25,0,0,0-1.19,1.14,2.47,2.47,0,0,0,0,.41v2.61h-0.88v-3.37Z" transform="translate(-7.16 -143.63)"/><path class="cls-5" d="M366.25,374.17a0.55,0.55,0,0,1-1.1,0,0.54,0.54,0,0,1,.56-0.56A0.53,0.53,0,0,1,366.25,374.17Zm-1,6.27v-4.9h0.89v4.9h-0.89Z" transform="translate(-7.16 -143.63)"/><path class="cls-5" d="M367.63,376.87c0-.51,0-0.92,0-1.33h0.79l0.05,0.81h0a1.8,1.8,0,0,1,1.62-.92c0.68,0,1.73.4,1.73,2.08v2.92H370.9v-2.82a1.2,1.2,0,0,0-1.13-1.45,1.31,1.31,0,0,0-1.25,1.33v2.94h-0.89v-3.57Z" transform="translate(-7.16 -143.63)"/><path class="cls-5" d="M377.46,375.54c0,0.35,0,.75,0,1.35v2.84a2.81,2.81,0,0,1-.7,2.24,2.6,2.6,0,0,1-1.78.59,3.16,3.16,0,0,1-1.63-.4l0.22-.68a2.76,2.76,0,0,0,1.44.38,1.47,1.47,0,0,0,1.58-1.71V379.6h0a1.75,1.75,0,0,1-1.56.82,2.19,2.19,0,0,1-2.08-2.39,2.35,2.35,0,0,1,2.21-2.6,1.63,1.63,0,0,1,1.53.85h0l0-.74h0.78Zm-0.92,1.93a1.3,1.3,0,0,0-1.29-1.35,1.6,1.6,0,0,0-1.46,1.85,1.53,1.53,0,0,0,1.45,1.76,1.3,1.3,0,0,0,1.23-.91,1.56,1.56,0,0,0,.07-0.48v-0.88Z" transform="translate(-7.16 -143.63)"/><path class="cls-5" d="M378.77,379.53a2.33,2.33,0,0,0,1.17.35,0.79,0.79,0,0,0,1-.73,1,1,0,0,0-.91-0.9,1.57,1.57,0,0,1-1.29-1.39,1.51,1.51,0,0,1,1.69-1.44,2.44,2.44,0,0,1,1.2.3l-0.22.65a1.91,1.91,0,0,0-1-.28,0.71,0.71,0,0,0-.82.67c0,0.4.29,0.59,0.93,0.83a1.5,1.5,0,1,1-.55,2.94,2.79,2.79,0,0,1-1.38-.33Z" transform="translate(-7.16 -143.63)"/><path class="cls-5" d="M337,407a3.12,3.12,0,0,0,1.58.45,1.22,1.22,0,0,0,1.43-1.16c0-.64-0.36-1-1.28-1.36-1.11-.39-1.8-1-1.8-1.93a2,2,0,0,1,2.21-1.85,3.1,3.1,0,0,1,1.51.33l-0.24.72a2.72,2.72,0,0,0-1.29-.32,1.1,1.1,0,0,0-1.29,1c0,0.64.42,1,1.36,1.32,1.15,0.45,1.74,1,1.74,2s-0.78,2-2.39,2a3.52,3.52,0,0,1-1.74-.44Z" transform="translate(-7.16 -143.63)"/><path class="cls-5" d="M342.35,403.21L343,405.7c0.14,0.55.27,1.05,0.36,1.56h0c0.11-.5.27-1,0.44-1.55l0.8-2.5h0.75l0.76,2.45c0.18,0.59.32,1.1,0.44,1.6h0a14.83,14.83,0,0,1,.37-1.59l0.7-2.46h0.88l-1.58,4.9h-0.81l-0.75-2.34a16.27,16.27,0,0,1-.43-1.61h0a14.39,14.39,0,0,1-.45,1.62l-0.79,2.33h-0.81l-1.48-4.9h0.91Z" transform="translate(-7.16 -143.63)"/><path class="cls-5" d="M352.11,408.11l-0.07-.62h0a1.82,1.82,0,0,1-1.5.73,1.4,1.4,0,0,1-1.5-1.41c0-1.18,1.05-1.83,2.94-1.82v-0.1a1,1,0,0,0-1.11-1.13,2.45,2.45,0,0,0-1.27.36l-0.2-.59a3,3,0,0,1,1.61-.44,1.74,1.74,0,0,1,1.86,2v1.83a6.86,6.86,0,0,0,.08,1.17h-0.81Zm-0.13-2.5c-1,0-2.07.15-2.07,1.1a0.79,0.79,0,0,0,.84.85,1.22,1.22,0,0,0,1.18-.82,0.93,0.93,0,0,0,.05-0.28v-0.85Z" transform="translate(-7.16 -143.63)"/><path class="cls-5" d="M354.52,403.21l1.07,2.89c0.11,0.32.23,0.71,0.31,1h0c0.09-.29.19-0.67,0.31-1l1-2.87h0.94l-1.33,3.49a7.46,7.46,0,0,1-1.68,3.07,2.4,2.4,0,0,1-1.09.58l-0.22-.75a2.36,2.36,0,0,0,.78-0.44,2.69,2.69,0,0,0,.75-1,0.64,0.64,0,0,0,.07-0.21,0.77,0.77,0,0,0-.06-0.23l-1.81-4.51h1Z" transform="translate(-7.16 -143.63)"/><path class="cls-5" d="M361.14,401.38a8.52,8.52,0,0,1,1.61-.14,2.81,2.81,0,0,1,1.87.5,1.43,1.43,0,0,1,.57,1.2,1.62,1.62,0,0,1-1.15,1.5v0a1.76,1.76,0,0,1,1.41,1.71,1.84,1.84,0,0,1-.58,1.37,3.43,3.43,0,0,1-2.36.64,10.19,10.19,0,0,1-1.37-.08v-6.71Zm0.88,2.79h0.8a1.26,1.26,0,0,0,1.48-1.14c0-.8-0.61-1.11-1.5-1.11a3.79,3.79,0,0,0-.78.06v2.2Zm0,3.27a4.7,4.7,0,0,0,.74,0c0.91,0,1.75-.33,1.75-1.33s-0.8-1.32-1.76-1.32H362v2.6Z" transform="translate(-7.16 -143.63)"/><path class="cls-5" d="M369.3,408.11l-0.07-.62h0a1.82,1.82,0,0,1-1.5.73,1.4,1.4,0,0,1-1.5-1.41c0-1.18,1.05-1.83,2.94-1.82v-0.1a1,1,0,0,0-1.11-1.13,2.45,2.45,0,0,0-1.27.36l-0.2-.59a3,3,0,0,1,1.61-.44,1.74,1.74,0,0,1,1.86,2v1.83a6.86,6.86,0,0,0,.08,1.17H369.3Zm-0.13-2.5c-1,0-2.07.15-2.07,1.1a0.79,0.79,0,0,0,.84.85,1.22,1.22,0,0,0,1.18-.82,0.93,0.93,0,0,0,.05-0.28v-0.85Z" transform="translate(-7.16 -143.63)"/><path class="cls-5" d="M371.46,404.74c0-.58,0-1.07,0-1.53h0.78l0,1h0a1.47,1.47,0,0,1,1.36-1.07,1,1,0,0,1,.25,0V404a1.32,1.32,0,0,0-.3,0,1.25,1.25,0,0,0-1.19,1.14,2.47,2.47,0,0,0,0,.41v2.61h-0.88v-3.37Z" transform="translate(-7.16 -143.63)"/><path class="cls-5" d="M374.65,407.2a2.33,2.33,0,0,0,1.17.35,0.79,0.79,0,0,0,1-.73,1,1,0,0,0-.91-0.9,1.57,1.57,0,0,1-1.29-1.39,1.51,1.51,0,0,1,1.69-1.44,2.44,2.44,0,0,1,1.2.3l-0.22.65a1.91,1.91,0,0,0-1-.28,0.71,0.71,0,0,0-.82.67c0,0.4.29,0.59,0.93,0.83a1.5,1.5,0,1,1-.55,2.94,2.79,2.79,0,0,1-1.38-.33Z" transform="translate(-7.16 -143.63)"/><path class="cls-5" d="M550.83,324.88a4.37,4.37,0,0,1-1.8.32,3.19,3.19,0,0,1-3.37-3.45,3.39,3.39,0,0,1,3.56-3.58,3.64,3.64,0,0,1,1.62.3l-0.21.72a3.2,3.2,0,0,0-1.37-.28,2.54,2.54,0,0,0-2.66,2.81,2.48,2.48,0,0,0,2.62,2.74,3.52,3.52,0,0,0,1.44-.28Z" transform="translate(-7.16 -143.63)"/><path class="cls-5" d="M554.54,325.1l-0.07-.62h0a1.82,1.82,0,0,1-1.5.73,1.4,1.4,0,0,1-1.5-1.41c0-1.18,1.05-1.83,2.94-1.82v-0.1a1,1,0,0,0-1.11-1.13,2.44,2.44,0,0,0-1.28.36l-0.2-.59a3,3,0,0,1,1.61-.44,1.74,1.74,0,0,1,1.86,2v1.83a6.91,6.91,0,0,0,.08,1.17h-0.81Zm-0.13-2.5c-1,0-2.07.15-2.07,1.1a0.79,0.79,0,0,0,.84.85,1.22,1.22,0,0,0,1.18-.82,0.93,0.93,0,0,0,.05-0.28V322.6Z" transform="translate(-7.16 -143.63)"/><path class="cls-5" d="M556.7,321.73c0-.58,0-1.07,0-1.53h0.78l0,1h0a1.47,1.47,0,0,1,1.36-1.07,1,1,0,0,1,.25,0V321a1.32,1.32,0,0,0-.3,0,1.25,1.25,0,0,0-1.19,1.14,2.47,2.47,0,0,0,0,.41v2.61H556.7v-3.37Z" transform="translate(-7.16 -143.63)"/><path class="cls-5" d="M566.95,324.88a4.37,4.37,0,0,1-1.8.32,3.19,3.19,0,0,1-3.37-3.45,3.39,3.39,0,0,1,3.56-3.58,3.64,3.64,0,0,1,1.62.3l-0.21.72a3.2,3.2,0,0,0-1.37-.28,2.54,2.54,0,0,0-2.66,2.81,2.48,2.48,0,0,0,2.62,2.74,3.52,3.52,0,0,0,1.44-.28Z" transform="translate(-7.16 -143.63)"/><path class="cls-5" d="M572.34,322.62a2.39,2.39,0,0,1-2.44,2.6,2.33,2.33,0,0,1-2.35-2.52,2.39,2.39,0,0,1,2.43-2.6A2.32,2.32,0,0,1,572.34,322.62Zm-3.88,0a1.53,1.53,0,1,0,1.51-1.9A1.67,1.67,0,0,0,568.45,322.67Z" transform="translate(-7.16 -143.63)"/><path class="cls-5" d="M573.73,320.21l1,2.75a12.93,12.93,0,0,1,.39,1.25h0c0.11-.4.25-0.81,0.41-1.25l1-2.75h0.93l-1.92,4.9h-0.85l-1.86-4.9h1Z" transform="translate(-7.16 -143.63)"/><path class="cls-5" d="M578.65,322.82a1.57,1.57,0,0,0,1.68,1.7,3.22,3.22,0,0,0,1.36-.25l0.15,0.64a4,4,0,0,1-1.63.3,2.27,2.27,0,0,1-2.41-2.47,2.38,2.38,0,0,1,2.3-2.64,2.07,2.07,0,0,1,2,2.31,3.42,3.42,0,0,1,0,.42h-3.44Zm2.61-.64a1.27,1.27,0,0,0-1.23-1.45,1.48,1.48,0,0,0-1.37,1.45h2.6Z" transform="translate(-7.16 -143.63)"/><path class="cls-5" d="M583.22,321.73c0-.58,0-1.07,0-1.53H584l0,1h0a1.47,1.47,0,0,1,1.36-1.07,1,1,0,0,1,.25,0V321a1.32,1.32,0,0,0-.3,0,1.25,1.25,0,0,0-1.19,1.14,2.47,2.47,0,0,0,0,.41v2.61h-0.88v-3.37Z" transform="translate(-7.16 -143.63)"/><path class="cls-5" d="M586.41,324.19a2.33,2.33,0,0,0,1.17.35,0.79,0.79,0,0,0,1-.73,1,1,0,0,0-.91-0.9,1.57,1.57,0,0,1-1.29-1.39A1.51,1.51,0,0,1,588,320.1a2.44,2.44,0,0,1,1.2.3L589,321a1.91,1.91,0,0,0-1-.28,0.72,0.72,0,0,0-.82.67c0,0.4.29,0.59,0.93,0.83a1.5,1.5,0,1,1-.55,2.94,2.79,2.79,0,0,1-1.38-.33Z" transform="translate(-7.16 -143.63)"/><path class="cls-5" d="M525.84,346h0.88V352h2.91v0.74h-3.79V346Z" transform="translate(-7.16 -143.63)"/><path class="cls-5" d="M531.58,346.5a0.55,0.55,0,0,1-1.1,0,0.54,0.54,0,0,1,.56-0.56A0.53,0.53,0,0,1,531.58,346.5Zm-1,6.27v-4.9h0.89v4.9h-0.89Z" transform="translate(-7.16 -143.63)"/><path class="cls-5" d="M536.44,352.59a3.28,3.28,0,0,1-1.41.28,2.33,2.33,0,0,1-2.44-2.5,2.49,2.49,0,0,1,2.63-2.6,3,3,0,0,1,1.23.25l-0.2.69a2.07,2.07,0,0,0-1-.23,1.85,1.85,0,0,0,0,3.68,2.53,2.53,0,0,0,1.09-.24Z" transform="translate(-7.16 -143.63)"/><path class="cls-5" d="M537.92,350.49a1.57,1.57,0,0,0,1.68,1.7,3.22,3.22,0,0,0,1.36-.25l0.15,0.64a4,4,0,0,1-1.63.3,2.27,2.27,0,0,1-2.41-2.47,2.38,2.38,0,0,1,2.3-2.64,2.07,2.07,0,0,1,2,2.31,3.42,3.42,0,0,1,0,.42h-3.44Zm2.61-.64a1.27,1.27,0,0,0-1.23-1.45,1.48,1.48,0,0,0-1.37,1.45h2.6Z" transform="translate(-7.16 -143.63)"/><path class="cls-5" d="M542.49,349.2c0-.51,0-0.92,0-1.33h0.79l0.05,0.81h0a1.8,1.8,0,0,1,1.62-.92c0.68,0,1.73.4,1.73,2.08v2.92h-0.89v-2.82a1.2,1.2,0,0,0-1.13-1.45,1.26,1.26,0,0,0-1.19.91,1.29,1.29,0,0,0-.06.41v2.94h-0.89V349.2Z" transform="translate(-7.16 -143.63)"/><path class="cls-5" d="M548,351.86a2.33,2.33,0,0,0,1.17.35,0.79,0.79,0,0,0,1-.73,1,1,0,0,0-.91-0.9,1.57,1.57,0,0,1-1.29-1.39,1.51,1.51,0,0,1,1.69-1.44,2.44,2.44,0,0,1,1.2.3l-0.22.65a1.91,1.91,0,0,0-1-.28,0.72,0.72,0,0,0-.82.67c0,0.4.29,0.59,0.93,0.83a1.5,1.5,0,1,1-.55,2.94,2.79,2.79,0,0,1-1.38-.33Z" transform="translate(-7.16 -143.63)"/><path class="cls-5" d="M552.61,350.49a1.57,1.57,0,0,0,1.68,1.7,3.22,3.22,0,0,0,1.36-.25l0.15,0.64a4,4,0,0,1-1.63.3,2.27,2.27,0,0,1-2.41-2.47,2.38,2.38,0,0,1,2.3-2.64,2.07,2.07,0,0,1,2,2.31,3.42,3.42,0,0,1,0,.42h-3.44Zm2.61-.64A1.27,1.27,0,0,0,554,348.4a1.48,1.48,0,0,0-1.37,1.45h2.6Z" transform="translate(-7.16 -143.63)"/><path class="cls-5" d="M559.35,346a10.14,10.14,0,0,1,1.69-.13,2.8,2.8,0,0,1,1.91.57,1.83,1.83,0,0,1,.6,1.43,2,2,0,0,1-.53,1.46,2.83,2.83,0,0,1-2.08.75,3,3,0,0,1-.71-0.06v2.73h-0.88V346Zm0.88,3.29a2.93,2.93,0,0,0,.73.07,1.46,1.46,0,0,0,1.71-1.46,1.35,1.35,0,0,0-1.61-1.33,3.72,3.72,0,0,0-.83.07v2.65Z" transform="translate(-7.16 -143.63)"/><path class="cls-5" d="M564.65,345.59h0.89v7.18h-0.89v-7.18Z" transform="translate(-7.16 -143.63)"/><path class="cls-5" d="M569.75,352.77l-0.07-.62h0a1.82,1.82,0,0,1-1.5.73,1.4,1.4,0,0,1-1.5-1.41c0-1.18,1.05-1.83,2.94-1.82v-0.1a1,1,0,0,0-1.11-1.13,2.44,2.44,0,0,0-1.28.36l-0.2-.59a3,3,0,0,1,1.61-.44,1.74,1.74,0,0,1,1.86,2v1.83a6.91,6.91,0,0,0,.08,1.17h-0.81Zm-0.13-2.5c-1,0-2.07.15-2.07,1.1a0.79,0.79,0,0,0,.84.85,1.22,1.22,0,0,0,1.18-.82,0.93,0.93,0,0,0,.05-0.28v-0.85Z" transform="translate(-7.16 -143.63)"/><path class="cls-5" d="M572.94,346.47v1.41h1.28v0.68h-1.28v2.64c0,0.61.17,1,.67,1a2,2,0,0,0,.52-0.06l0,0.67a2.17,2.17,0,0,1-.79.12,1.23,1.23,0,0,1-1-.37,1.81,1.81,0,0,1-.34-1.27v-2.67h-0.76v-0.68h0.76V346.7Z" transform="translate(-7.16 -143.63)"/><path class="cls-5" d="M575.65,350.49a1.57,1.57,0,0,0,1.68,1.7,3.22,3.22,0,0,0,1.36-.25l0.15,0.64a4,4,0,0,1-1.63.3,2.27,2.27,0,0,1-2.41-2.47,2.38,2.38,0,0,1,2.3-2.64,2.07,2.07,0,0,1,2,2.31,3.42,3.42,0,0,1,0,.42h-3.44Zm2.61-.64A1.27,1.27,0,0,0,577,348.4a1.48,1.48,0,0,0-1.37,1.45h2.6Z" transform="translate(-7.16 -143.63)"/><path class="cls-5" d="M587.17,352.55a4.37,4.37,0,0,1-1.8.32,3.19,3.19,0,0,1-3.37-3.45,3.39,3.39,0,0,1,3.56-3.58,3.64,3.64,0,0,1,1.62.3l-0.21.72a3.2,3.2,0,0,0-1.37-.28,2.54,2.54,0,0,0-2.66,2.81,2.48,2.48,0,0,0,2.62,2.74,3.52,3.52,0,0,0,1.44-.28Z" transform="translate(-7.16 -143.63)"/><path class="cls-5" d="M592.56,350.28a2.39,2.39,0,0,1-2.44,2.6,2.33,2.33,0,0,1-2.35-2.52,2.39,2.39,0,0,1,2.43-2.6A2.32,2.32,0,0,1,592.56,350.28Zm-3.88,0a1.53,1.53,0,1,0,1.51-1.9A1.67,1.67,0,0,0,588.67,350.33Z" transform="translate(-7.16 -143.63)"/><path class="cls-5" d="M593.95,347.88l1,2.75a12.93,12.93,0,0,1,.39,1.25h0c0.11-.4.25-0.81,0.41-1.25l1-2.75h0.93l-1.92,4.9h-0.85l-1.86-4.9h1Z" transform="translate(-7.16 -143.63)"/><path class="cls-5" d="M598.87,350.49a1.57,1.57,0,0,0,1.68,1.7,3.22,3.22,0,0,0,1.36-.25l0.15,0.64a4,4,0,0,1-1.63.3A2.27,2.27,0,0,1,598,350.4a2.38,2.38,0,0,1,2.3-2.64,2.07,2.07,0,0,1,2,2.31,3.42,3.42,0,0,1,0,.42h-3.44Zm2.61-.64a1.27,1.27,0,0,0-1.23-1.45,1.48,1.48,0,0,0-1.37,1.45h2.6Z" transform="translate(-7.16 -143.63)"/><path class="cls-5" d="M603.44,349.4c0-.58,0-1.07,0-1.53h0.78l0,1h0a1.47,1.47,0,0,1,1.36-1.07,1,1,0,0,1,.25,0v0.84a1.32,1.32,0,0,0-.3,0,1.25,1.25,0,0,0-1.19,1.14,2.47,2.47,0,0,0,0,.41v2.61h-0.88V349.4Z" transform="translate(-7.16 -143.63)"/><path class="cls-5" d="M606.62,351.86a2.33,2.33,0,0,0,1.17.35,0.79,0.79,0,0,0,1-.73,1,1,0,0,0-.91-0.9,1.57,1.57,0,0,1-1.29-1.39,1.51,1.51,0,0,1,1.69-1.44,2.44,2.44,0,0,1,1.2.3l-0.22.65a1.91,1.91,0,0,0-1-.28,0.72,0.72,0,0,0-.82.67c0,0.4.29,0.59,0.93,0.83a1.5,1.5,0,1,1-.55,2.94,2.79,2.79,0,0,1-1.38-.33Z" transform="translate(-7.16 -143.63)"/><path class="cls-5" d="M561.54,373.7a10.14,10.14,0,0,1,1.69-.13,2.8,2.8,0,0,1,1.91.57,1.83,1.83,0,0,1,.6,1.43,2,2,0,0,1-.53,1.46,2.83,2.83,0,0,1-2.08.75,3,3,0,0,1-.71-0.06v2.73h-0.88V373.7Zm0.88,3.29a2.93,2.93,0,0,0,.73.07,1.46,1.46,0,0,0,1.71-1.46,1.35,1.35,0,0,0-1.61-1.33,3.72,3.72,0,0,0-.83.07V377Z" transform="translate(-7.16 -143.63)"/><path class="cls-5" d="M567.13,378.15a1.57,1.57,0,0,0,1.68,1.7,3.22,3.22,0,0,0,1.36-.25l0.15,0.64a4,4,0,0,1-1.63.3,2.27,2.27,0,0,1-2.41-2.47,2.38,2.38,0,0,1,2.3-2.64,2.07,2.07,0,0,1,2,2.31,3.42,3.42,0,0,1,0,.42h-3.44Zm2.61-.64a1.27,1.27,0,0,0-1.23-1.45,1.48,1.48,0,0,0-1.37,1.45h2.6Z" transform="translate(-7.16 -143.63)"/><path class="cls-5" d="M572.78,374.14v1.41h1.28v0.68h-1.28v2.64c0,0.61.17,1,.67,1a2,2,0,0,0,.52-0.06l0,0.67a2.17,2.17,0,0,1-.79.12,1.23,1.23,0,0,1-1-.37,1.81,1.81,0,0,1-.34-1.27v-2.67h-0.76v-0.68h0.76v-1.17Z" transform="translate(-7.16 -143.63)"/><path class="cls-5" d="M555.75,401.29h0.88v6.08h2.91v0.74h-3.79v-6.82Z" transform="translate(-7.16 -143.63)"/><path class="cls-5" d="M561.48,401.83a0.55,0.55,0,0,1-1.1,0,0.54,0.54,0,0,1,.56-0.56A0.53,0.53,0,0,1,561.48,401.83Zm-1,6.27v-4.9h0.89v4.9h-0.89Z" transform="translate(-7.16 -143.63)"/><path class="cls-5" d="M562.86,404.54c0-.51,0-0.92,0-1.33h0.79l0.05,0.81h0a1.8,1.8,0,0,1,1.62-.92c0.68,0,1.73.4,1.73,2.08v2.92h-0.89v-2.82a1.2,1.2,0,0,0-1.13-1.45,1.26,1.26,0,0,0-1.19.91,1.29,1.29,0,0,0-.06.41v2.94h-0.89v-3.57Z" transform="translate(-7.16 -143.63)"/><path class="cls-5" d="M569,405.82a1.57,1.57,0,0,0,1.68,1.7,3.22,3.22,0,0,0,1.36-.25l0.15,0.64a4,4,0,0,1-1.63.3,2.27,2.27,0,0,1-2.41-2.47,2.38,2.38,0,0,1,2.3-2.64,2.07,2.07,0,0,1,2,2.31,3.42,3.42,0,0,1,0,.42H569Zm2.61-.64a1.27,1.27,0,0,0-1.23-1.45,1.48,1.48,0,0,0-1.37,1.45h2.6Z" transform="translate(-7.16 -143.63)"/><path class="cls-5" d="M573.54,404.74c0-.58,0-1.07,0-1.53h0.78l0,1h0a1.47,1.47,0,0,1,1.36-1.07,1,1,0,0,1,.25,0V404a1.32,1.32,0,0,0-.3,0,1.25,1.25,0,0,0-1.19,1.14,2.47,2.47,0,0,0,0,.41v2.61h-0.88v-3.37Z" transform="translate(-7.16 -143.63)"/><path class="cls-5" d="M576.72,407.2a2.33,2.33,0,0,0,1.17.35,0.79,0.79,0,0,0,1-.73,1,1,0,0,0-.91-0.9,1.57,1.57,0,0,1-1.29-1.39,1.51,1.51,0,0,1,1.69-1.44,2.44,2.44,0,0,1,1.2.3l-0.22.65a1.91,1.91,0,0,0-1-.28,0.72,0.72,0,0,0-.82.67c0,0.4.29,0.59,0.93,0.83a1.5,1.5,0,1,1-.55,2.94,2.79,2.79,0,0,1-1.38-.33Z" transform="translate(-7.16 -143.63)"/><path class="cls-5" d="M448.18,322.11c0-1-.11-2.09-0.1-2.94h0c-0.23.8-.52,1.65-0.86,2.59l-1.2,3.31h-0.67l-1.1-3.25c-0.32-1-.6-1.84-0.79-2.65h0c0,0.85-.07,2-0.13,3l-0.18,2.92h-0.84l0.48-6.82h1.12l1.16,3.3c0.28,0.84.52,1.59,0.69,2.3h0c0.17-.69.42-1.44,0.72-2.3l1.21-3.3h1.12l0.42,6.82h-0.86Z" transform="translate(-7.16 -143.63)"/><path class="cls-5" d="M454.66,323.77c0,0.51,0,1,0,1.33h-0.79l-0.05-.8h0a1.84,1.84,0,0,1-1.62.91c-0.77,0-1.69-.42-1.69-2.14v-2.86h0.89v2.71c0,0.93.28,1.56,1.09,1.56a1.25,1.25,0,0,0,1.25-1.26v-3h0.89v3.56Z" transform="translate(-7.16 -143.63)"/><path class="cls-5" d="M458.7,318.77a1.38,1.38,0,0,0-.61-0.15,0.86,0.86,0,0,0-.66.26,1.65,1.65,0,0,0-.32,1.12v0.2h2.06V320a2.22,2.22,0,0,1,.7-1.69,2.3,2.3,0,0,1,1.57-.5,3.18,3.18,0,0,1,1.47.32v7H462v-6.47a1.62,1.62,0,0,0-.74-0.13,1.24,1.24,0,0,0-1.23,1.47v0.24h1.15v0.68h-1.14v4.22h-0.89v-4.22h-2.06v4.22h-0.88v-4.22h-0.69v-0.68h0.69v-0.12a2.29,2.29,0,0,1,.57-1.68,1.86,1.86,0,0,1,1.33-.49,2.13,2.13,0,0,1,.81.18Z" transform="translate(-7.16 -143.63)"/><path class="cls-5" d="M464.88,322.82a1.57,1.57,0,0,0,1.68,1.7,3.22,3.22,0,0,0,1.36-.25l0.15,0.64a4,4,0,0,1-1.63.3,2.27,2.27,0,0,1-2.41-2.47,2.38,2.38,0,0,1,2.3-2.64,2.07,2.07,0,0,1,2,2.31,3.42,3.42,0,0,1,0,.42h-3.44Zm2.61-.64a1.27,1.27,0,0,0-1.23-1.45,1.48,1.48,0,0,0-1.37,1.45h2.6Z" transform="translate(-7.16 -143.63)"/><path class="cls-5" d="M469.45,321.73c0-.58,0-1.07,0-1.53h0.78l0,1h0a1.47,1.47,0,0,1,1.36-1.07,1,1,0,0,1,.25,0V321a1.32,1.32,0,0,0-.3,0,1.25,1.25,0,0,0-1.19,1.14,2.47,2.47,0,0,0,0,.41v2.61h-0.88v-3.37Z" transform="translate(-7.16 -143.63)"/><path class="cls-5" d="M472.63,324.19a2.33,2.33,0,0,0,1.17.35,0.79,0.79,0,0,0,1-.73,1,1,0,0,0-.91-0.9,1.57,1.57,0,0,1-1.29-1.39,1.51,1.51,0,0,1,1.69-1.44,2.44,2.44,0,0,1,1.2.3l-0.22.65a1.91,1.91,0,0,0-1-.28,0.72,0.72,0,0,0-.82.67c0,0.4.29,0.59,0.93,0.83a1.5,1.5,0,1,1-.55,2.94,2.79,2.79,0,0,1-1.38-.33Z" transform="translate(-7.16 -143.63)"/><path class="cls-5" d="M452.4,346.7h-2.07V346h5v0.75h-2.08v6.07H452.4V346.7Z" transform="translate(-7.16 -143.63)"/><path class="cls-5" d="M457,346.5a0.55,0.55,0,0,1-1.1,0,0.54,0.54,0,0,1,.56-0.56A0.53,0.53,0,0,1,457,346.5Zm-1,6.27v-4.9h0.89v4.9H456Z" transform="translate(-7.16 -143.63)"/><path class="cls-5" d="M458.35,349.47c0-.63,0-1.13,0-1.6h0.8l0,0.84h0a1.93,1.93,0,0,1,1.74-1,2.22,2.22,0,0,1,2.07,2.49c0,1.76-1.07,2.63-2.23,2.63a1.72,1.72,0,0,1-1.51-.77h0v2.66h-0.88v-5.3Zm0.88,1.3a2,2,0,0,0,0,.36,1.37,1.37,0,0,0,1.33,1c0.94,0,1.49-.77,1.49-1.89a1.59,1.59,0,0,0-1.46-1.82,1.42,1.42,0,0,0-1.34,1.1,1.45,1.45,0,0,0-.06.36v0.84Z" transform="translate(-7.16 -143.63)"/><path class="cls-5" d="M464,351.86a2.33,2.33,0,0,0,1.17.35,0.79,0.79,0,0,0,1-.73,1,1,0,0,0-.91-0.9,1.57,1.57,0,0,1-1.29-1.39,1.51,1.51,0,0,1,1.69-1.44,2.44,2.44,0,0,1,1.2.3l-0.22.65a1.91,1.91,0,0,0-1-.28,0.72,0.72,0,0,0-.82.67c0,0.4.29,0.59,0.93,0.83a1.5,1.5,0,1,1-.55,2.94,2.79,2.79,0,0,1-1.38-.33Z" transform="translate(-7.16 -143.63)"/><path class="cls-5" d="M448.41,373.7a10.14,10.14,0,0,1,1.69-.13,2.8,2.8,0,0,1,1.91.57,1.83,1.83,0,0,1,.6,1.43,2,2,0,0,1-.53,1.46,2.83,2.83,0,0,1-2.08.75,3,3,0,0,1-.71-0.06v2.73h-0.88V373.7Zm0.88,3.29a2.93,2.93,0,0,0,.73.07,1.46,1.46,0,0,0,1.71-1.46,1.35,1.35,0,0,0-1.61-1.33,3.72,3.72,0,0,0-.83.07V377Z" transform="translate(-7.16 -143.63)"/><path class="cls-5" d="M454.58,374.17a0.55,0.55,0,0,1-1.1,0,0.54,0.54,0,0,1,.56-0.56A0.53,0.53,0,0,1,454.58,374.17Zm-1,6.27v-4.9h0.89v4.9h-0.89Z" transform="translate(-7.16 -143.63)"/><path class="cls-5" d="M456,377.14c0-.63,0-1.13,0-1.6h0.8l0,0.84h0a1.93,1.93,0,0,1,1.74-1,2.22,2.22,0,0,1,2.07,2.49c0,1.76-1.07,2.63-2.23,2.63a1.72,1.72,0,0,1-1.51-.77h0v2.66H456v-5.3Zm0.88,1.3a2,2,0,0,0,0,.36,1.37,1.37,0,0,0,1.33,1c0.94,0,1.49-.77,1.49-1.89a1.59,1.59,0,0,0-1.46-1.82,1.42,1.42,0,0,0-1.34,1.1,1.45,1.45,0,0,0-.06.36v0.84Z" transform="translate(-7.16 -143.63)"/><path class="cls-5" d="M462.21,378.15a1.57,1.57,0,0,0,1.68,1.7,3.22,3.22,0,0,0,1.36-.25l0.15,0.64a4,4,0,0,1-1.63.3,2.27,2.27,0,0,1-2.41-2.47,2.38,2.38,0,0,1,2.3-2.64,2.07,2.07,0,0,1,2,2.31,3.42,3.42,0,0,1,0,.42h-3.44Zm2.61-.64a1.27,1.27,0,0,0-1.23-1.45,1.48,1.48,0,0,0-1.37,1.45h2.6Z" transform="translate(-7.16 -143.63)"/><path class="cls-5" d="M466.66,379.53a2.33,2.33,0,0,0,1.17.35,0.79,0.79,0,0,0,1-.73,1,1,0,0,0-.91-0.9,1.57,1.57,0,0,1-1.29-1.39,1.51,1.51,0,0,1,1.69-1.44,2.44,2.44,0,0,1,1.2.3l-0.22.65a1.91,1.91,0,0,0-1-.28,0.72,0.72,0,0,0-.82.67c0,0.4.29,0.59,0.93,0.83a1.5,1.5,0,1,1-.55,2.94,2.79,2.79,0,0,1-1.38-.33Z" transform="translate(-7.16 -143.63)"/><path class="cls-5" d="M32,292.9H29.33v2.46h3v0.74H28.45v-6.82h3.68V290h-2.8v2.15H32v0.73Z" transform="translate(-7.16 -143.63)"/><path class="cls-5" d="M33.4,292.53c0-.51,0-0.92,0-1.33h0.79L34.2,292h0a1.8,1.8,0,0,1,1.62-.92c0.68,0,1.73.4,1.73,2.08v2.92H36.67v-2.82a1.19,1.19,0,0,0-1.13-1.45,1.26,1.26,0,0,0-1.19.91,1.28,1.28,0,0,0-.06.42v2.94H33.4v-3.57Z" transform="translate(-7.16 -143.63)"/><path class="cls-5" d="M43.23,291.2c0,0.35,0,.75,0,1.35v2.84a2.82,2.82,0,0,1-.7,2.24,2.6,2.6,0,0,1-1.78.59,3.16,3.16,0,0,1-1.63-.4l0.22-.68a2.76,2.76,0,0,0,1.44.38,1.47,1.47,0,0,0,1.58-1.71v-0.55h0a1.75,1.75,0,0,1-1.56.82,2.19,2.19,0,0,1-2.08-2.39,2.35,2.35,0,0,1,2.21-2.6,1.63,1.63,0,0,1,1.53.85h0l0-.74h0.78Zm-0.92,1.93a1.26,1.26,0,0,0-.05-0.4,1.28,1.28,0,0,0-1.24-.94,1.6,1.6,0,0,0-1.46,1.85A1.53,1.53,0,0,0,41,295.4a1.3,1.3,0,0,0,1.23-.91,1.56,1.56,0,0,0,.07-0.48v-0.88Z" transform="translate(-7.16 -143.63)"/><path class="cls-5" d="M45.59,289.82a0.55,0.55,0,0,1-1.1,0,0.54,0.54,0,0,1,.56-0.56A0.53,0.53,0,0,1,45.59,289.82Zm-1,6.27v-4.9h0.89v4.9H44.6Z" transform="translate(-7.16 -143.63)"/><path class="cls-5" d="M47,292.53c0-.51,0-0.92,0-1.33h0.79L47.77,292h0a1.8,1.8,0,0,1,1.62-.92c0.68,0,1.73.4,1.73,2.08v2.92H50.25v-2.82a1.19,1.19,0,0,0-1.13-1.45,1.26,1.26,0,0,0-1.19.91,1.28,1.28,0,0,0-.06.42v2.94H47v-3.57Z" transform="translate(-7.16 -143.63)"/><path class="cls-5" d="M53.08,293.81a1.57,1.57,0,0,0,1.68,1.7,3.22,3.22,0,0,0,1.36-.25l0.15,0.64a4,4,0,0,1-1.63.3,2.27,2.27,0,0,1-2.41-2.47,2.38,2.38,0,0,1,2.3-2.64,2.07,2.07,0,0,1,2,2.31,3.34,3.34,0,0,1,0,.42H53.08Zm2.61-.64a1.27,1.27,0,0,0-1.23-1.45,1.48,1.48,0,0,0-1.37,1.45h2.6Z" transform="translate(-7.16 -143.63)"/><path class="cls-5" d="M30.52,316.95H34.2v0.74H31.4V320H34v0.73H31.4v3.09H30.52v-6.82Z" transform="translate(-7.16 -143.63)"/><path class="cls-5" d="M36.15,317.49a0.55,0.55,0,0,1-1.1,0,0.54,0.54,0,0,1,.56-0.56A0.53,0.53,0,0,1,36.15,317.49Zm-1,6.27v-4.9H36v4.9H35.16Z" transform="translate(-7.16 -143.63)"/><path class="cls-5" d="M37.52,316.58h0.89v7.18H37.52v-7.18Z" transform="translate(-7.16 -143.63)"/><path class="cls-5" d="M41,317.46v1.41h1.27v0.68H41v2.64c0,0.61.17,1,.67,1a2,2,0,0,0,.52-0.06l0,0.67a2.17,2.17,0,0,1-.79.12,1.23,1.23,0,0,1-1-.37,1.81,1.81,0,0,1-.34-1.27v-2.67H39.35v-0.68h0.76V317.7Z" transform="translate(-7.16 -143.63)"/><path class="cls-5" d="M43.69,321.48a1.57,1.57,0,0,0,1.68,1.7,3.22,3.22,0,0,0,1.36-.25l0.15,0.64a4,4,0,0,1-1.63.3,2.27,2.27,0,0,1-2.41-2.47,2.38,2.38,0,0,1,2.3-2.64,2.07,2.07,0,0,1,2,2.31,3.33,3.33,0,0,1,0,.42H43.69Zm2.61-.64a1.27,1.27,0,0,0-1.23-1.45,1.47,1.47,0,0,0-1.37,1.45h2.6Z" transform="translate(-7.16 -143.63)"/><path class="cls-5" d="M48.26,320.4c0-.58,0-1.07,0-1.53H49l0,1h0a1.47,1.47,0,0,1,1.36-1.07,1,1,0,0,1,.25,0v0.84a1.32,1.32,0,0,0-.3,0,1.25,1.25,0,0,0-1.19,1.14,2.47,2.47,0,0,0,0,.41v2.61H48.26V320.4Z" transform="translate(-7.16 -143.63)"/><path class="cls-5" d="M51.45,322.86a2.33,2.33,0,0,0,1.17.35,0.79,0.79,0,0,0,1-.73,1,1,0,0,0-.91-0.9,1.57,1.57,0,0,1-1.29-1.39,1.51,1.51,0,0,1,1.69-1.44,2.44,2.44,0,0,1,1.2.3l-0.22.65a1.91,1.91,0,0,0-1-.28,0.71,0.71,0,0,0-.82.67c0,0.4.29,0.59,0.93,0.83a1.5,1.5,0,1,1-.55,2.94,2.79,2.79,0,0,1-1.38-.33Z" transform="translate(-7.16 -143.63)"/><path class="cls-5" d="M18,344.61h3.67v0.74H18.85v2.27h2.58v0.73H18.85v3.09H18v-6.82Z" transform="translate(-7.16 -143.63)"/><path class="cls-5" d="M23.05,349.15a1.57,1.57,0,0,0,1.68,1.7,3.22,3.22,0,0,0,1.36-.25l0.15,0.64a4,4,0,0,1-1.63.3,2.27,2.27,0,0,1-2.41-2.47,2.38,2.38,0,0,1,2.3-2.64,2.07,2.07,0,0,1,2,2.31,3.33,3.33,0,0,1,0,.42H23.05Zm2.61-.64a1.27,1.27,0,0,0-1.23-1.45,1.47,1.47,0,0,0-1.37,1.45h2.6Z" transform="translate(-7.16 -143.63)"/><path class="cls-5" d="M31.72,350.1c0,0.51,0,1,0,1.33H31l-0.05-.8h0a1.84,1.84,0,0,1-1.62.91c-0.77,0-1.69-.42-1.69-2.14v-2.86h0.89v2.71c0,0.93.28,1.56,1.09,1.56a1.29,1.29,0,0,0,1.17-.81,1.31,1.31,0,0,0,.08-0.46v-3h0.89v3.56Z" transform="translate(-7.16 -143.63)"/><path class="cls-5" d="M33.19,344.25h0.89v7.18H33.19v-7.18Z" transform="translate(-7.16 -143.63)"/><path class="cls-5" d="M37.63,350.36a3.12,3.12,0,0,0,1.58.45,1.22,1.22,0,0,0,1.43-1.16c0-.64-0.36-1-1.28-1.36-1.11-.39-1.8-1-1.8-1.93a2,2,0,0,1,2.21-1.85,3.1,3.1,0,0,1,1.51.33l-0.24.72a2.72,2.72,0,0,0-1.29-.32,1.1,1.1,0,0,0-1.29,1c0,0.64.42,1,1.36,1.32,1.15,0.45,1.74,1,1.74,2s-0.78,2-2.39,2a3.52,3.52,0,0,1-1.74-.44Z" transform="translate(-7.16 -143.63)"/><path class="cls-5" d="M43,346.54L44,349.43c0.11,0.32.23,0.71,0.31,1h0c0.09-.29.19-0.67,0.31-1l1-2.87h0.94L45.25,350a7.46,7.46,0,0,1-1.68,3.07,2.4,2.4,0,0,1-1.09.58l-0.22-.75a2.36,2.36,0,0,0,.78-0.44,2.69,2.69,0,0,0,.75-1,0.64,0.64,0,0,0,.07-0.21,0.77,0.77,0,0,0-.06-0.23L42,346.54h1Z" transform="translate(-7.16 -143.63)"/><path class="cls-5" d="M47.21,350.52a2.33,2.33,0,0,0,1.17.35,0.79,0.79,0,0,0,1-.73,1,1,0,0,0-.91-0.9,1.57,1.57,0,0,1-1.29-1.39,1.51,1.51,0,0,1,1.69-1.44,2.44,2.44,0,0,1,1.2.3l-0.22.65a1.91,1.91,0,0,0-1-.28,0.71,0.71,0,0,0-.82.67c0,0.4.29,0.59,0.93,0.83a1.5,1.5,0,1,1-.55,2.94A2.79,2.79,0,0,1,47,351.2Z" transform="translate(-7.16 -143.63)"/><path class="cls-5" d="M52.41,345.13v1.41h1.27v0.68H52.41v2.64c0,0.61.17,1,.67,1a2,2,0,0,0,.52-0.06l0,0.67a2.17,2.17,0,0,1-.79.12,1.23,1.23,0,0,1-1-.37,1.81,1.81,0,0,1-.34-1.27v-2.67H50.78v-0.68h0.76v-1.17Z" transform="translate(-7.16 -143.63)"/><path class="cls-5" d="M55.12,349.15a1.57,1.57,0,0,0,1.68,1.7,3.22,3.22,0,0,0,1.36-.25l0.15,0.64a4,4,0,0,1-1.63.3,2.27,2.27,0,0,1-2.41-2.47,2.38,2.38,0,0,1,2.3-2.64,2.07,2.07,0,0,1,2,2.31,3.33,3.33,0,0,1,0,.42H55.12Zm2.61-.64a1.27,1.27,0,0,0-1.23-1.45,1.47,1.47,0,0,0-1.37,1.45h2.6Z" transform="translate(-7.16 -143.63)"/><path class="cls-5" d="M59.69,347.86c0-.51,0-0.92,0-1.33h0.78l0,0.79h0a1.69,1.69,0,0,1,1.54-.9,1.45,1.45,0,0,1,1.39,1h0a2,2,0,0,1,.55-0.64,1.67,1.67,0,0,1,1.08-.34c0.65,0,1.61.42,1.61,2.13v2.88H65.81v-2.77c0-.94-0.34-1.51-1.06-1.51a1.15,1.15,0,0,0-1.05.81,1.46,1.46,0,0,0-.07.45v3H62.76V348.5a1.13,1.13,0,0,0-1-1.35,1.22,1.22,0,0,0-1.1.89,1.23,1.23,0,0,0-.07.43v3H59.69v-3.57Z" transform="translate(-7.16 -143.63)"/><path class="cls-5" d="M25.32,372.37a9.19,9.19,0,0,1,1.69-.14,2.79,2.79,0,0,1,2,.56,1.7,1.7,0,0,1,.54,1.29,1.79,1.79,0,0,1-1.28,1.74v0a1.7,1.7,0,0,1,1,1.38,10.87,10.87,0,0,0,.53,1.87H28.85a8.9,8.9,0,0,1-.46-1.63A1.32,1.32,0,0,0,27,376.15H26.2v3H25.32v-6.73Zm0.88,3.11h0.9a1.34,1.34,0,0,0,1.54-1.29,1.31,1.31,0,0,0-1.57-1.27,3.59,3.59,0,0,0-.87.08v2.49Z" transform="translate(-7.16 -143.63)"/><path class="cls-5" d="M33.57,379.1l-0.07-.62h0a1.82,1.82,0,0,1-1.5.73,1.4,1.4,0,0,1-1.5-1.41c0-1.18,1.05-1.83,2.94-1.82v-0.1a1,1,0,0,0-1.11-1.13,2.45,2.45,0,0,0-1.27.36l-0.2-.59a3,3,0,0,1,1.61-.44,1.74,1.74,0,0,1,1.86,2v1.83a6.86,6.86,0,0,0,.08,1.17H33.57Zm-0.13-2.5c-1,0-2.07.15-2.07,1.1a0.79,0.79,0,0,0,.84.85,1.22,1.22,0,0,0,1.18-.82,0.93,0.93,0,0,0,.05-0.28V376.6Z" transform="translate(-7.16 -143.63)"/><path class="cls-5" d="M40,371.92v5.92c0,0.44,0,.93,0,1.26H39.2l0-.85h0a1.81,1.81,0,0,1-1.67,1,2.23,2.23,0,0,1-2.09-2.49,2.34,2.34,0,0,1,2.2-2.63,1.64,1.64,0,0,1,1.48.75h0v-2.92H40Zm-0.89,4.28a1.57,1.57,0,0,0,0-.37,1.31,1.31,0,0,0-1.29-1,1.63,1.63,0,0,0-1.47,1.89,1.56,1.56,0,0,0,1.45,1.81A1.34,1.34,0,0,0,39,377.43a1.56,1.56,0,0,0,0-.38V376.2Z" transform="translate(-7.16 -143.63)"/><path class="cls-5" d="M42.42,372.83a0.55,0.55,0,0,1-1.1,0,0.54,0.54,0,0,1,.56-0.56A0.53,0.53,0,0,1,42.42,372.83Zm-1,6.27v-4.9h0.89v4.9H41.43Z" transform="translate(-7.16 -143.63)"/><path class="cls-5" d="M46.51,379.1l-0.07-.62h0a1.82,1.82,0,0,1-1.5.73,1.4,1.4,0,0,1-1.5-1.41c0-1.18,1.05-1.83,2.94-1.82v-0.1a1,1,0,0,0-1.11-1.13,2.45,2.45,0,0,0-1.27.36l-0.2-.59a3,3,0,0,1,1.61-.44,1.74,1.74,0,0,1,1.86,2v1.83a6.86,6.86,0,0,0,.08,1.17H46.51Zm-0.13-2.5c-1,0-2.07.15-2.07,1.1a0.79,0.79,0,0,0,.84.85,1.22,1.22,0,0,0,1.18-.82,0.93,0.93,0,0,0,.05-0.28V376.6Z" transform="translate(-7.16 -143.63)"/><path class="cls-5" d="M49.71,372.8v1.41H51v0.68H49.71v2.64c0,0.61.17,1,.67,1a2,2,0,0,0,.52-0.06l0,0.67a2.17,2.17,0,0,1-.79.12,1.23,1.23,0,0,1-1-.37,1.81,1.81,0,0,1-.34-1.27v-2.67H48.08V374.2h0.76V373Z" transform="translate(-7.16 -143.63)"/><path class="cls-5" d="M56.35,376.61a2.39,2.39,0,0,1-2.44,2.6,2.33,2.33,0,0,1-2.35-2.52,2.39,2.39,0,0,1,2.43-2.6A2.32,2.32,0,0,1,56.35,376.61Zm-3.88,0a1.53,1.53,0,1,0,1.51-1.9A1.67,1.67,0,0,0,52.47,376.66Z" transform="translate(-7.16 -143.63)"/><path class="cls-5" d="M57.47,375.73c0-.58,0-1.07,0-1.53h0.78l0,1h0a1.47,1.47,0,0,1,1.36-1.07,1,1,0,0,1,.25,0V375a1.32,1.32,0,0,0-.3,0,1.25,1.25,0,0,0-1.19,1.14,2.47,2.47,0,0,0,0,.41v2.61H57.47v-3.37Z" transform="translate(-7.16 -143.63)"/><path class="cls-5" d="M33.58,399.95h3.67v0.74H34.46V403H37v0.73H34.46v3.09H33.58v-6.82Z" transform="translate(-7.16 -143.63)"/><path class="cls-5" d="M40.74,406.77l-0.07-.62h0a1.82,1.82,0,0,1-1.5.73,1.4,1.4,0,0,1-1.5-1.41c0-1.18,1.05-1.83,2.94-1.82v-0.1a1,1,0,0,0-1.11-1.13,2.44,2.44,0,0,0-1.27.36L38,402.2a3,3,0,0,1,1.61-.44,1.74,1.74,0,0,1,1.86,2v1.83a6.86,6.86,0,0,0,.08,1.17H40.74Zm-0.13-2.5c-1,0-2.07.15-2.07,1.1a0.79,0.79,0,0,0,.84.85,1.22,1.22,0,0,0,1.18-.82,0.93,0.93,0,0,0,.05-0.28v-0.85Z" transform="translate(-7.16 -143.63)"/><path class="cls-5" d="M42.9,403.2c0-.51,0-0.92,0-1.33h0.79l0.05,0.81h0a1.8,1.8,0,0,1,1.62-.92c0.68,0,1.73.4,1.73,2.08v2.92H46.18v-2.82A1.2,1.2,0,0,0,45,402.5a1.31,1.31,0,0,0-1.25,1.33v2.94H42.9V403.2Z" transform="translate(-7.16 -143.63)"/><path class="cls-5" d="M48.39,405.86a2.33,2.33,0,0,0,1.17.35,0.79,0.79,0,0,0,1-.73,1,1,0,0,0-.91-0.9,1.57,1.57,0,0,1-1.29-1.39A1.51,1.51,0,0,1,50,401.76a2.44,2.44,0,0,1,1.2.3l-0.22.65a1.91,1.91,0,0,0-1-.28,0.71,0.71,0,0,0-.82.67c0,0.4.29,0.59,0.93,0.83a1.5,1.5,0,1,1-.55,2.94,2.79,2.79,0,0,1-1.38-.33Z" transform="translate(-7.16 -143.63)"/><path class="cls-5" d="M15.12,434.21a4.36,4.36,0,0,1-1.8.32,3.19,3.19,0,0,1-3.37-3.45,3.39,3.39,0,0,1,3.56-3.58,3.65,3.65,0,0,1,1.62.3l-0.21.72a3.2,3.2,0,0,0-1.38-.28,2.54,2.54,0,0,0-2.66,2.81,2.48,2.48,0,0,0,2.62,2.74,3.52,3.52,0,0,0,1.44-.28Z" transform="translate(-7.16 -143.63)"/><path class="cls-5" d="M20.51,431.95a2.39,2.39,0,0,1-2.44,2.6A2.33,2.33,0,0,1,15.72,432a2.39,2.39,0,0,1,2.43-2.6A2.32,2.32,0,0,1,20.51,431.95Zm-3.88,0a1.67,1.67,0,0,0,1.49,1.88,1.95,1.95,0,0,0,0-3.78A1.66,1.66,0,0,0,16.62,432Z" transform="translate(-7.16 -143.63)"/><path class="cls-5" d="M26.06,431.95a2.39,2.39,0,0,1-2.44,2.6A2.33,2.33,0,0,1,21.27,432a2.39,2.39,0,0,1,2.43-2.6A2.32,2.32,0,0,1,26.06,431.95Zm-3.88,0a1.67,1.67,0,0,0,1.49,1.88,1.95,1.95,0,0,0,0-3.78A1.66,1.66,0,0,0,22.18,432Z" transform="translate(-7.16 -143.63)"/><path class="cls-5" d="M27.18,427.25h0.89v7.18H27.18v-7.18Z" transform="translate(-7.16 -143.63)"/><path class="cls-5" d="M30.56,428.16a0.55,0.55,0,0,1-1.1,0,0.54,0.54,0,0,1,.56-0.56A0.53,0.53,0,0,1,30.56,428.16Zm-1,6.27v-4.9h0.89v4.9H29.57Z" transform="translate(-7.16 -143.63)"/><path class="cls-5" d="M31.94,430.86c0-.51,0-0.92,0-1.33h0.79l0.05,0.81h0a1.8,1.8,0,0,1,1.62-.92c0.68,0,1.73.4,1.73,2.08v2.92H35.21v-2.82a1.2,1.2,0,0,0-1.13-1.45,1.31,1.31,0,0,0-1.25,1.33v2.94H31.94v-3.57Z" transform="translate(-7.16 -143.63)"/><path class="cls-5" d="M41.77,429.54c0,0.35,0,.75,0,1.35v2.84A2.81,2.81,0,0,1,41,436a2.6,2.6,0,0,1-1.78.59,3.16,3.16,0,0,1-1.63-.4l0.22-.68a2.76,2.76,0,0,0,1.44.38,1.47,1.47,0,0,0,1.58-1.71V433.6h0a1.75,1.75,0,0,1-1.56.82A2.19,2.19,0,0,1,37.19,432a2.35,2.35,0,0,1,2.21-2.6,1.63,1.63,0,0,1,1.53.85h0l0-.74h0.78Zm-0.92,1.93a1.3,1.3,0,0,0-1.29-1.35A1.6,1.6,0,0,0,38.09,432a1.53,1.53,0,0,0,1.45,1.76,1.3,1.3,0,0,0,1.23-.91,1.56,1.56,0,0,0,.07-0.48v-0.88Z" transform="translate(-7.16 -143.63)"/><path class="cls-5" d="M45.25,433.36a3.12,3.12,0,0,0,1.58.45,1.22,1.22,0,0,0,1.43-1.16c0-.64-0.36-1-1.28-1.36-1.11-.39-1.8-1-1.8-1.93a2,2,0,0,1,2.21-1.85,3.1,3.1,0,0,1,1.51.33l-0.24.72a2.72,2.72,0,0,0-1.29-.32,1.1,1.1,0,0,0-1.28,1c0,0.64.41,1,1.36,1.32,1.15,0.45,1.74,1,1.74,2s-0.78,2-2.39,2A3.52,3.52,0,0,1,45,434.1Z" transform="translate(-7.16 -143.63)"/><path class="cls-5" d="M50.57,429.54l1.07,2.89c0.11,0.32.23,0.71,0.31,1h0c0.09-.29.19-0.67,0.31-1l1-2.87h0.94L52.87,433a7.46,7.46,0,0,1-1.68,3.07,2.4,2.4,0,0,1-1.09.58l-0.22-.75a2.36,2.36,0,0,0,.78-0.44,2.69,2.69,0,0,0,.75-1,0.64,0.64,0,0,0,.07-0.21,0.77,0.77,0,0,0-.06-0.23l-1.81-4.51h1Z" transform="translate(-7.16 -143.63)"/><path class="cls-5" d="M54.83,433.53a2.33,2.33,0,0,0,1.17.35,0.79,0.79,0,0,0,1-.73,1,1,0,0,0-.91-0.9,1.57,1.57,0,0,1-1.29-1.39,1.51,1.51,0,0,1,1.69-1.44,2.44,2.44,0,0,1,1.2.3l-0.22.65a1.91,1.91,0,0,0-1-.28,0.71,0.71,0,0,0-.82.67c0,0.4.29,0.59,0.93,0.83a1.5,1.5,0,1,1-.55,2.94,2.79,2.79,0,0,1-1.38-.33Z" transform="translate(-7.16 -143.63)"/><path class="cls-5" d="M60,428.13v1.41h1.27v0.68H60v2.64c0,0.61.17,1,.67,1a2,2,0,0,0,.52-0.06l0,0.67a2.17,2.17,0,0,1-.79.12,1.23,1.23,0,0,1-1-.37,1.81,1.81,0,0,1-.34-1.27v-2.67H58.4v-0.68h0.76v-1.17Z" transform="translate(-7.16 -143.63)"/><path class="cls-5" d="M62.74,432.15a1.57,1.57,0,0,0,1.68,1.7,3.22,3.22,0,0,0,1.36-.25l0.15,0.64a4,4,0,0,1-1.63.3,2.27,2.27,0,0,1-2.41-2.47,2.38,2.38,0,0,1,2.3-2.64,2.07,2.07,0,0,1,2,2.31,3.33,3.33,0,0,1,0,.42H62.74Zm2.61-.64a1.27,1.27,0,0,0-1.23-1.45,1.47,1.47,0,0,0-1.37,1.45h2.6Z" transform="translate(-7.16 -143.63)"/><path class="cls-5" d="M67.31,430.86c0-.51,0-0.92,0-1.33h0.78l0,0.79h0a1.69,1.69,0,0,1,1.54-.9,1.45,1.45,0,0,1,1.39,1h0a2,2,0,0,1,.55-0.64,1.67,1.67,0,0,1,1.08-.34c0.65,0,1.61.42,1.61,2.13v2.88H73.43v-2.77c0-.94-0.34-1.51-1.06-1.51a1.15,1.15,0,0,0-1.05.81,1.46,1.46,0,0,0-.07.45v3H70.38V431.5a1.13,1.13,0,0,0-1-1.35,1.22,1.22,0,0,0-1.1.89,1.23,1.23,0,0,0-.07.43v3H67.31v-3.57Z" transform="translate(-7.16 -143.63)"/><path class="cls-5" d="M24.66,455.37a8.52,8.52,0,0,1,1.61-.14,2.81,2.81,0,0,1,1.87.5,1.43,1.43,0,0,1,.57,1.2,1.62,1.62,0,0,1-1.15,1.5v0A1.76,1.76,0,0,1,29,460.16a1.84,1.84,0,0,1-.58,1.37,3.43,3.43,0,0,1-2.36.64,10.19,10.19,0,0,1-1.37-.08v-6.71Zm0.88,2.79h0.8A1.26,1.26,0,0,0,27.82,457c0-.8-0.61-1.11-1.5-1.11a3.79,3.79,0,0,0-.78.06v2.2Zm0,3.27a4.7,4.7,0,0,0,.74,0c0.91,0,1.75-.33,1.75-1.33s-0.8-1.32-1.76-1.32H25.54v2.6Z" transform="translate(-7.16 -143.63)"/><path class="cls-5" d="M32.83,462.1l-0.07-.62h0a1.82,1.82,0,0,1-1.5.73,1.4,1.4,0,0,1-1.5-1.41c0-1.18,1.05-1.83,2.94-1.82v-0.1a1,1,0,0,0-1.11-1.13,2.44,2.44,0,0,0-1.27.36l-0.2-.59a3,3,0,0,1,1.61-.44,1.74,1.74,0,0,1,1.86,2v1.83a6.86,6.86,0,0,0,.08,1.17H32.83Zm-0.13-2.5c-1,0-2.07.15-2.07,1.1a0.79,0.79,0,0,0,.84.85,1.22,1.22,0,0,0,1.18-.82,0.93,0.93,0,0,0,.05-0.28V459.6Z" transform="translate(-7.16 -143.63)"/><path class="cls-5" d="M36,455.8v1.41H37.3v0.68H36v2.64c0,0.61.17,1,.67,1a2,2,0,0,0,.52-0.06l0,0.67a2.17,2.17,0,0,1-.79.12,1.23,1.23,0,0,1-1-.37,1.81,1.81,0,0,1-.34-1.27v-2.67H34.39v-0.68h0.76V456Z" transform="translate(-7.16 -143.63)"/><path class="cls-5" d="M39.37,455.8v1.41h1.27v0.68H39.37v2.64c0,0.61.17,1,.67,1a2,2,0,0,0,.52-0.06l0,0.67a2.17,2.17,0,0,1-.79.12,1.23,1.23,0,0,1-1-.37,1.81,1.81,0,0,1-.34-1.27v-2.67H37.74v-0.68H38.5V456Z" transform="translate(-7.16 -143.63)"/><path class="cls-5" d="M42.08,459.82a1.57,1.57,0,0,0,1.68,1.7,3.22,3.22,0,0,0,1.36-.25l0.15,0.64a4,4,0,0,1-1.63.3,2.27,2.27,0,0,1-2.41-2.47,2.38,2.38,0,0,1,2.3-2.64,2.07,2.07,0,0,1,2,2.31,3.33,3.33,0,0,1,0,.42H42.08Zm2.61-.64a1.27,1.27,0,0,0-1.23-1.45,1.47,1.47,0,0,0-1.37,1.45h2.6Z" transform="translate(-7.16 -143.63)"/><path class="cls-5" d="M46.65,458.73c0-.58,0-1.07,0-1.53h0.78l0,1h0a1.47,1.47,0,0,1,1.36-1.07,1,1,0,0,1,.25,0V458a1.32,1.32,0,0,0-.3,0,1.25,1.25,0,0,0-1.19,1.14,2.47,2.47,0,0,0,0,.41v2.61H46.65v-3.37Z" transform="translate(-7.16 -143.63)"/><path class="cls-5" d="M51,455.83a0.55,0.55,0,0,1-1.1,0,0.54,0.54,0,0,1,.56-0.56A0.53,0.53,0,0,1,51,455.83Zm-1,6.27v-4.9h0.89v4.9H50Z" transform="translate(-7.16 -143.63)"/><path class="cls-5" d="M52.86,459.82a1.57,1.57,0,0,0,1.68,1.7,3.22,3.22,0,0,0,1.36-.25L56,461.9a4,4,0,0,1-1.63.3A2.27,2.27,0,0,1,52,459.73a2.38,2.38,0,0,1,2.3-2.64,2.07,2.07,0,0,1,2,2.31,3.33,3.33,0,0,1,0,.42H52.86Zm2.61-.64a1.27,1.27,0,0,0-1.23-1.45,1.47,1.47,0,0,0-1.37,1.45h2.6Z" transform="translate(-7.16 -143.63)"/><path class="cls-5" d="M57.31,461.19a2.33,2.33,0,0,0,1.17.35,0.79,0.79,0,0,0,1-.73,1,1,0,0,0-.91-0.9,1.57,1.57,0,0,1-1.29-1.39,1.51,1.51,0,0,1,1.69-1.44,2.44,2.44,0,0,1,1.2.3L59.9,458a1.91,1.91,0,0,0-1-.28,0.71,0.71,0,0,0-.82.67c0,0.4.29,0.59,0.93,0.83a1.5,1.5,0,1,1-.55,2.94,2.79,2.79,0,0,1-1.38-.33Z" transform="translate(-7.16 -143.63)"/><polyline class="cls-6" points="359.74 121.64 742.55 121.64 742.55 140.26"/><line class="cls-6" x1="652.25" y1="140.26" x2="652.25" y2="121.64"/><line class="cls-6" x1="560.39" y1="121.64" x2="560.39" y2="140.26"/><line class="cls-6" x1="560.39" y1="158.74" x2="560.39" y2="167.93"/><line class="cls-6" x1="560.39" y1="186.4" x2="560.39" y2="195.6"/><line class="cls-6" x1="560.39" y1="214.07" x2="560.39" y2="223.27"/><line class="cls-6" x1="560.39" y1="241.74" x2="560.39" y2="250.93"/><line class="cls-6" x1="451.69" y1="158.74" x2="451.69" y2="167.93"/><line class="cls-6" x1="451.69" y1="186.4" x2="451.69" y2="195.6"/><line class="cls-6" x1="451.69" y1="214.07" x2="451.69" y2="223.27"/><line class="cls-6" x1="350.04" y1="158.74" x2="350.04" y2="167.93"/><line class="cls-6" x1="350.04" y1="186.4" x2="350.04" y2="195.6"/><line class="cls-6" x1="350.04" y1="214.07" x2="350.04" y2="223.27"/><line class="cls-6" x1="350.04" y1="241.74" x2="350.04" y2="250.93"/><line class="cls-6" x1="252.4" y1="158.74" x2="252.4" y2="167.93"/><line class="cls-6" x1="252.4" y1="186.4" x2="252.4" y2="195.6"/><line class="cls-6" x1="252.4" y1="214.07" x2="252.4" y2="223.27"/><line class="cls-6" x1="252.4" y1="241.74" x2="252.4" y2="250.93"/><path class="cls-5" d="M141.07,289.28H142v6.08h2.91v0.74h-3.79v-6.82Z" transform="translate(-7.16 -143.63)"/><path class="cls-5" d="M146.81,289.82a0.55,0.55,0,0,1-1.1,0,0.54,0.54,0,0,1,.56-0.56A0.53,0.53,0,0,1,146.81,289.82Zm-1,6.27v-4.9h0.89v4.9h-0.89Z" transform="translate(-7.16 -143.63)"/><path class="cls-5" d="M152.4,291.2c0,0.35,0,.75,0,1.35v2.84a2.82,2.82,0,0,1-.7,2.24,2.6,2.6,0,0,1-1.78.59,3.16,3.16,0,0,1-1.63-.4l0.22-.68a2.76,2.76,0,0,0,1.44.38,1.47,1.47,0,0,0,1.58-1.71v-0.55h0a1.75,1.75,0,0,1-1.56.82,2.19,2.19,0,0,1-2.08-2.39,2.35,2.35,0,0,1,2.21-2.6,1.63,1.63,0,0,1,1.53.85h0l0-.74h0.78Zm-0.92,1.93a1.26,1.26,0,0,0-.05-0.4,1.28,1.28,0,0,0-1.24-.94,1.6,1.6,0,0,0-1.46,1.85,1.53,1.53,0,0,0,1.45,1.76,1.3,1.3,0,0,0,1.23-.91,1.56,1.56,0,0,0,.07-0.48v-0.88Z" transform="translate(-7.16 -143.63)"/><path class="cls-5" d="M153.84,288.91h0.89V292h0a1.65,1.65,0,0,1,.64-0.63,1.83,1.83,0,0,1,.91-0.25c0.66,0,1.71.4,1.71,2.09v2.91h-0.89v-2.81a1.2,1.2,0,0,0-1.13-1.46,1.28,1.28,0,0,0-1.19.89,1.07,1.07,0,0,0-.06.42v3h-0.89v-7.18Z" transform="translate(-7.16 -143.63)"/><path class="cls-5" d="M160.48,289.79v1.41h1.27v0.68h-1.27v2.64c0,0.61.17,1,.67,1a2,2,0,0,0,.52-0.06l0,0.67a2.18,2.18,0,0,1-.79.12,1.23,1.23,0,0,1-1-.37,1.81,1.81,0,0,1-.34-1.27v-2.67h-0.76V291.2h0.76V290Z" transform="translate(-7.16 -143.63)"/><path class="cls-5" d="M162.64,295.19a2.33,2.33,0,0,0,1.17.35,0.79,0.79,0,0,0,1-.73,1,1,0,0,0-.91-0.9,1.57,1.57,0,0,1-1.29-1.39,1.51,1.51,0,0,1,1.69-1.44,2.44,2.44,0,0,1,1.2.3l-0.22.65a1.9,1.9,0,0,0-1-.28,0.71,0.71,0,0,0-.82.67c0,0.4.29,0.59,0.93,0.83a1.5,1.5,0,1,1-.55,2.94,2.79,2.79,0,0,1-1.38-.33Z" transform="translate(-7.16 -143.63)"/><path class="cls-5" d="M133.75,316.95h3.67v0.74h-2.79V320h2.58v0.73h-2.58v3.09h-0.88v-6.82Z" transform="translate(-7.16 -143.63)"/><path class="cls-5" d="M142.76,321.28a2.39,2.39,0,0,1-2.44,2.6,2.33,2.33,0,0,1-2.35-2.52,2.39,2.39,0,0,1,2.43-2.6A2.32,2.32,0,0,1,142.76,321.28Zm-3.88,0a1.53,1.53,0,1,0,1.51-1.9A1.67,1.67,0,0,0,138.87,321.33Z" transform="translate(-7.16 -143.63)"/><path class="cls-5" d="M148.1,318.87c0,0.35,0,.75,0,1.35v2.84a2.81,2.81,0,0,1-.7,2.24,2.6,2.6,0,0,1-1.78.59,3.16,3.16,0,0,1-1.63-.4l0.22-.68a2.76,2.76,0,0,0,1.44.38,1.47,1.47,0,0,0,1.58-1.71v-0.55h0a1.75,1.75,0,0,1-1.56.82,2.19,2.19,0,0,1-2.08-2.39,2.35,2.35,0,0,1,2.21-2.6,1.63,1.63,0,0,1,1.53.85h0l0-.74h0.78Zm-0.92,1.93a1.3,1.3,0,0,0-1.29-1.35,1.6,1.6,0,0,0-1.46,1.85,1.53,1.53,0,0,0,1.45,1.76,1.3,1.3,0,0,0,1.23-.91,1.56,1.56,0,0,0,.07-0.48V320.8Z" transform="translate(-7.16 -143.63)"/><path class="cls-5" d="M151.71,316.95h0.88V323h2.91v0.74h-3.79v-6.82Z" transform="translate(-7.16 -143.63)"/><path class="cls-5" d="M157.44,317.49a0.55,0.55,0,0,1-1.1,0,0.54,0.54,0,0,1,.56-0.56A0.53,0.53,0,0,1,157.44,317.49Zm-1,6.27v-4.9h0.89v4.9h-0.89Z" transform="translate(-7.16 -143.63)"/><path class="cls-5" d="M163,318.87c0,0.35,0,.75,0,1.35v2.84a2.81,2.81,0,0,1-.7,2.24,2.6,2.6,0,0,1-1.78.59,3.16,3.16,0,0,1-1.63-.4l0.22-.68a2.76,2.76,0,0,0,1.44.38,1.47,1.47,0,0,0,1.58-1.71v-0.55h0a1.75,1.75,0,0,1-1.56.82,2.19,2.19,0,0,1-2.08-2.39,2.35,2.35,0,0,1,2.21-2.6,1.63,1.63,0,0,1,1.53.85h0l0-.74H163Zm-0.92,1.93a1.3,1.3,0,0,0-1.29-1.35,1.6,1.6,0,0,0-1.46,1.85,1.53,1.53,0,0,0,1.45,1.76,1.3,1.3,0,0,0,1.23-.91,1.56,1.56,0,0,0,.07-0.48V320.8Z" transform="translate(-7.16 -143.63)"/><path class="cls-5" d="M164.47,316.58h0.89v3.05h0A1.65,1.65,0,0,1,166,319a1.84,1.84,0,0,1,.91-0.25c0.66,0,1.71.4,1.71,2.09v2.91h-0.89V321a1.2,1.2,0,0,0-1.13-1.46,1.28,1.28,0,0,0-1.19.89,1.07,1.07,0,0,0-.06.42v3h-0.89v-7.18Z" transform="translate(-7.16 -143.63)"/><path class="cls-5" d="M170,322.85a2.33,2.33,0,0,0,1.17.35,0.79,0.79,0,0,0,1-.73,1,1,0,0,0-.91-0.9,1.57,1.57,0,0,1-1.29-1.39,1.51,1.51,0,0,1,1.69-1.44,2.44,2.44,0,0,1,1.2.3l-0.22.65a1.91,1.91,0,0,0-1-.28,0.71,0.71,0,0,0-.82.67c0,0.4.29,0.59,0.93,0.83a1.5,1.5,0,1,1-.55,2.94,2.79,2.79,0,0,1-1.38-.33Z" transform="translate(-7.16 -143.63)"/><path class="cls-5" d="M124.53,344.71a12.59,12.59,0,0,1,1.87-.14,3.9,3.9,0,0,1,2.76.85,3.14,3.14,0,0,1,1,2.45,3.6,3.6,0,0,1-1,2.65,4.2,4.2,0,0,1-3,1,14.15,14.15,0,0,1-1.6-.08v-6.71Zm0.88,6a5.49,5.49,0,0,0,.89.05,2.62,2.62,0,0,0,2.9-2.89,2.43,2.43,0,0,0-2.76-2.63,5,5,0,0,0-1,.09v5.38Z" transform="translate(-7.16 -143.63)"/><path class="cls-5" d="M131.23,348.06c0-.58,0-1.07,0-1.53H132l0,1h0a1.47,1.47,0,0,1,1.36-1.07,1,1,0,0,1,.25,0v0.84a1.32,1.32,0,0,0-.3,0,1.25,1.25,0,0,0-1.19,1.14,2.47,2.47,0,0,0,0,.41v2.61h-0.88v-3.37Z" transform="translate(-7.16 -143.63)"/><path class="cls-5" d="M135.57,345.16a0.55,0.55,0,0,1-1.1,0,0.54,0.54,0,0,1,.56-0.56A0.53,0.53,0,0,1,135.57,345.16Zm-1,6.27v-4.9h0.89v4.9h-0.89Z" transform="translate(-7.16 -143.63)"/><path class="cls-5" d="M137.29,346.54l1,2.75a12.54,12.54,0,0,1,.39,1.25h0c0.11-.4.25-0.81,0.42-1.25l1-2.75H141l-1.92,4.9H138.2l-1.86-4.9h1Z" transform="translate(-7.16 -143.63)"/><path class="cls-5" d="M142.8,345.16a0.55,0.55,0,0,1-1.1,0,0.54,0.54,0,0,1,.56-0.56A0.53,0.53,0,0,1,142.8,345.16Zm-1,6.27v-4.9h0.89v4.9h-0.89Z" transform="translate(-7.16 -143.63)"/><path class="cls-5" d="M144.18,347.86c0-.51,0-0.92,0-1.33h0.79l0.05,0.81h0a1.8,1.8,0,0,1,1.62-.92c0.68,0,1.73.4,1.73,2.08v2.92h-0.89v-2.82a1.2,1.2,0,0,0-1.13-1.45,1.31,1.31,0,0,0-1.25,1.33v2.94h-0.89v-3.57Z" transform="translate(-7.16 -143.63)"/><path class="cls-5" d="M154,346.54c0,0.35,0,.75,0,1.35v2.84a2.81,2.81,0,0,1-.7,2.24,2.6,2.6,0,0,1-1.78.59,3.16,3.16,0,0,1-1.63-.4l0.22-.68a2.76,2.76,0,0,0,1.44.38,1.47,1.47,0,0,0,1.58-1.71v-0.55h0a1.75,1.75,0,0,1-1.56.82,2.19,2.19,0,0,1-2.08-2.39,2.35,2.35,0,0,1,2.21-2.6,1.63,1.63,0,0,1,1.53.85h0l0-.74H154Zm-0.92,1.93a1.3,1.3,0,0,0-1.29-1.35,1.6,1.6,0,0,0-1.46,1.85,1.53,1.53,0,0,0,1.45,1.76,1.3,1.3,0,0,0,1.23-.91,1.56,1.56,0,0,0,.07-0.48v-0.88Z" transform="translate(-7.16 -143.63)"/><path class="cls-5" d="M157.62,344.61h0.88v6.08h2.91v0.74h-3.79v-6.82Z" transform="translate(-7.16 -143.63)"/><path class="cls-5" d="M163.35,345.16a0.55,0.55,0,0,1-1.1,0,0.54,0.54,0,0,1,.56-0.56A0.53,0.53,0,0,1,163.35,345.16Zm-1,6.27v-4.9h0.89v4.9h-0.89Z" transform="translate(-7.16 -143.63)"/><path class="cls-5" d="M168.95,346.54c0,0.35,0,.75,0,1.35v2.84a2.82,2.82,0,0,1-.7,2.24,2.6,2.6,0,0,1-1.78.59,3.17,3.17,0,0,1-1.63-.4l0.22-.68a2.76,2.76,0,0,0,1.44.38,1.47,1.47,0,0,0,1.58-1.71v-0.55h0a1.75,1.75,0,0,1-1.56.82,2.19,2.19,0,0,1-2.08-2.39,2.35,2.35,0,0,1,2.21-2.6,1.63,1.63,0,0,1,1.53.85h0l0-.74h0.78ZM168,348.47a1.3,1.3,0,0,0-1.29-1.35,1.6,1.6,0,0,0-1.46,1.85,1.53,1.53,0,0,0,1.45,1.76,1.3,1.3,0,0,0,1.23-.91,1.56,1.56,0,0,0,.07-0.48v-0.88Z" transform="translate(-7.16 -143.63)"/><path class="cls-5" d="M170.38,344.25h0.89v3.05h0a1.65,1.65,0,0,1,.64-0.63,1.84,1.84,0,0,1,.91-0.25c0.66,0,1.71.4,1.71,2.09v2.91h-0.89v-2.81a1.2,1.2,0,0,0-1.13-1.46,1.28,1.28,0,0,0-1.19.89,1.07,1.07,0,0,0-.06.42v3h-0.89v-7.18Z" transform="translate(-7.16 -143.63)"/><path class="cls-5" d="M177,345.13v1.41h1.27v0.68H177v2.64c0,0.61.17,1,.67,1a2,2,0,0,0,.52-0.06l0,0.67a2.17,2.17,0,0,1-.79.12,1.23,1.23,0,0,1-1-.37,1.81,1.81,0,0,1-.34-1.27v-2.67H175.4v-0.68h0.76v-1.17Z" transform="translate(-7.16 -143.63)"/><path class="cls-5" d="M179.18,350.52a2.33,2.33,0,0,0,1.17.35,0.79,0.79,0,0,0,1-.73,1,1,0,0,0-.91-0.9,1.57,1.57,0,0,1-1.29-1.39,1.51,1.51,0,0,1,1.69-1.44,2.44,2.44,0,0,1,1.2.3l-0.22.65a1.91,1.91,0,0,0-1-.28,0.71,0.71,0,0,0-.82.67c0,0.4.29,0.59,0.93,0.83a1.5,1.5,0,1,1-.55,2.94,2.79,2.79,0,0,1-1.38-.33Z" transform="translate(-7.16 -143.63)"/><path class="cls-5" d="M124.06,372.36a10.14,10.14,0,0,1,1.69-.13,2.8,2.8,0,0,1,1.91.57,1.83,1.83,0,0,1,.6,1.43,2,2,0,0,1-.53,1.46,2.83,2.83,0,0,1-2.08.75,3,3,0,0,1-.71-0.06v2.73h-0.88v-6.74Zm0.88,3.29a2.94,2.94,0,0,0,.73.07,1.46,1.46,0,0,0,1.71-1.46,1.35,1.35,0,0,0-1.61-1.33,3.73,3.73,0,0,0-.83.07v2.65Z" transform="translate(-7.16 -143.63)"/><path class="cls-5" d="M131.86,379.1l-0.07-.62h0a1.82,1.82,0,0,1-1.5.73,1.4,1.4,0,0,1-1.5-1.41c0-1.18,1.05-1.83,2.94-1.82v-0.1a1,1,0,0,0-1.11-1.13,2.44,2.44,0,0,0-1.27.36l-0.2-.59a3,3,0,0,1,1.61-.44,1.74,1.74,0,0,1,1.86,2v1.83a6.86,6.86,0,0,0,.08,1.17h-0.81Zm-0.13-2.5c-1,0-2.07.15-2.07,1.1a0.79,0.79,0,0,0,.84.85,1.22,1.22,0,0,0,1.18-.82,0.93,0.93,0,0,0,.05-0.28V376.6Z" transform="translate(-7.16 -143.63)"/><path class="cls-5" d="M134,375.73c0-.58,0-1.07,0-1.53h0.78l0,1h0a1.47,1.47,0,0,1,1.36-1.07,1,1,0,0,1,.25,0V375a1.32,1.32,0,0,0-.3,0,1.25,1.25,0,0,0-1.19,1.14,2.47,2.47,0,0,0,0,.41v2.61H134v-3.37Z" transform="translate(-7.16 -143.63)"/><path class="cls-5" d="M138.25,376.45h0c0.12-.17.29-0.38,0.44-0.56l1.44-1.69h1.07l-1.89,2,2.15,2.88h-1.08l-1.69-2.35-0.46.51v1.84h-0.88v-7.18h0.88v4.53Z" transform="translate(-7.16 -143.63)"/><path class="cls-5" d="M143.27,372.83a0.55,0.55,0,0,1-1.1,0,0.54,0.54,0,0,1,.56-0.56A0.53,0.53,0,0,1,143.27,372.83Zm-1,6.27v-4.9h0.89v4.9h-0.89Z" transform="translate(-7.16 -143.63)"/><path class="cls-5" d="M144.65,375.53c0-.51,0-0.92,0-1.33h0.79l0.05,0.81h0a1.8,1.8,0,0,1,1.62-.92c0.68,0,1.73.4,1.73,2.08v2.92h-0.89v-2.82a1.2,1.2,0,0,0-1.13-1.45,1.31,1.31,0,0,0-1.25,1.33v2.94h-0.89v-3.57Z" transform="translate(-7.16 -143.63)"/><path class="cls-5" d="M154.48,374.2c0,0.35,0,.75,0,1.35v2.84a2.82,2.82,0,0,1-.7,2.24,2.6,2.6,0,0,1-1.78.59,3.17,3.17,0,0,1-1.63-.4l0.22-.68a2.76,2.76,0,0,0,1.44.38,1.47,1.47,0,0,0,1.58-1.71v-0.55h0a1.75,1.75,0,0,1-1.56.82,2.19,2.19,0,0,1-2.08-2.39,2.35,2.35,0,0,1,2.21-2.6,1.63,1.63,0,0,1,1.53.85h0l0-.74h0.78Zm-0.92,1.93a1.3,1.3,0,0,0-1.29-1.35,1.6,1.6,0,0,0-1.46,1.85,1.53,1.53,0,0,0,1.45,1.76,1.3,1.3,0,0,0,1.23-.91,1.56,1.56,0,0,0,.07-0.48v-0.88Z" transform="translate(-7.16 -143.63)"/><path class="cls-5" d="M158.09,372.28H159v6.08h2.91v0.74h-3.79v-6.82Z" transform="translate(-7.16 -143.63)"/><path class="cls-5" d="M163.82,372.83a0.55,0.55,0,0,1-1.1,0,0.54,0.54,0,0,1,.56-0.56A0.53,0.53,0,0,1,163.82,372.83Zm-1,6.27v-4.9h0.89v4.9h-0.89Z" transform="translate(-7.16 -143.63)"/><path class="cls-5" d="M169.42,374.2c0,0.35,0,.75,0,1.35v2.84a2.81,2.81,0,0,1-.7,2.24,2.6,2.6,0,0,1-1.78.59,3.16,3.16,0,0,1-1.63-.4l0.22-.68a2.76,2.76,0,0,0,1.44.38,1.47,1.47,0,0,0,1.58-1.71v-0.55h0a1.75,1.75,0,0,1-1.56.82,2.19,2.19,0,0,1-2.08-2.39,2.35,2.35,0,0,1,2.21-2.6,1.63,1.63,0,0,1,1.53.85h0l0-.74h0.78Zm-0.92,1.93a1.3,1.3,0,0,0-1.29-1.35,1.6,1.6,0,0,0-1.46,1.85,1.53,1.53,0,0,0,1.45,1.76,1.3,1.3,0,0,0,1.23-.91,1.56,1.56,0,0,0,.07-0.48v-0.88Z" transform="translate(-7.16 -143.63)"/><path class="cls-5" d="M170.85,371.92h0.89V375h0a1.65,1.65,0,0,1,.64-0.63,1.84,1.84,0,0,1,.91-0.25c0.66,0,1.71.4,1.71,2.09v2.91h-0.89v-2.81a1.2,1.2,0,0,0-1.13-1.46,1.28,1.28,0,0,0-1.19.89,1.07,1.07,0,0,0-.06.42v3h-0.89v-7.18Z" transform="translate(-7.16 -143.63)"/><path class="cls-5" d="M177.5,372.8v1.41h1.27v0.68H177.5v2.64c0,0.61.17,1,.67,1a2,2,0,0,0,.52-0.06l0,0.67a2.17,2.17,0,0,1-.79.12,1.23,1.23,0,0,1-1-.37,1.81,1.81,0,0,1-.34-1.27v-2.67h-0.76V374.2h0.76V373Z" transform="translate(-7.16 -143.63)"/><path class="cls-5" d="M179.65,378.19a2.33,2.33,0,0,0,1.17.35,0.79,0.79,0,0,0,1-.73,1,1,0,0,0-.91-0.9,1.57,1.57,0,0,1-1.29-1.39,1.51,1.51,0,0,1,1.69-1.44,2.44,2.44,0,0,1,1.2.3l-0.22.65a1.91,1.91,0,0,0-1-.28,0.71,0.71,0,0,0-.82.67c0,0.4.29,0.59,0.93,0.83a1.5,1.5,0,1,1-.55,2.94,2.79,2.79,0,0,1-1.38-.33Z" transform="translate(-7.16 -143.63)"/><path class="cls-5" d="M134.3,400.7h-2.07v-0.75h5v0.75h-2.08v6.07H134.3V400.7Z" transform="translate(-7.16 -143.63)"/><path class="cls-5" d="M140.07,406.77l-0.07-.62h0a1.82,1.82,0,0,1-1.5.73,1.4,1.4,0,0,1-1.5-1.41c0-1.18,1.05-1.83,2.94-1.82v-0.1a1,1,0,0,0-1.11-1.13,2.44,2.44,0,0,0-1.27.36l-0.2-.59a3,3,0,0,1,1.61-.44,1.74,1.74,0,0,1,1.86,2v1.83a6.86,6.86,0,0,0,.08,1.17h-0.81Zm-0.13-2.5c-1,0-2.07.15-2.07,1.1a0.79,0.79,0,0,0,.84.85,1.22,1.22,0,0,0,1.18-.82,0.93,0.93,0,0,0,.05-0.28v-0.85Z" transform="translate(-7.16 -143.63)"/><path class="cls-5" d="M143.22,400.5a0.55,0.55,0,0,1-1.1,0,0.54,0.54,0,0,1,.56-0.56A0.53,0.53,0,0,1,143.22,400.5Zm-1,6.27v-4.9h0.89v4.9h-0.89Z" transform="translate(-7.16 -143.63)"/><path class="cls-5" d="M144.6,399.58h0.89v7.18H144.6v-7.18Z" transform="translate(-7.16 -143.63)"/><path class="cls-5" d="M149.16,399.95H150V406H153v0.74h-3.79v-6.82Z" transform="translate(-7.16 -143.63)"/><path class="cls-5" d="M154.89,400.5a0.55,0.55,0,0,1-1.1,0,0.54,0.54,0,0,1,.56-0.56A0.53,0.53,0,0,1,154.89,400.5Zm-1,6.27v-4.9h0.89v4.9H153.9Z" transform="translate(-7.16 -143.63)"/><path class="cls-5" d="M160.49,401.87c0,0.35,0,.75,0,1.35v2.84a2.81,2.81,0,0,1-.7,2.24,2.6,2.6,0,0,1-1.78.59,3.16,3.16,0,0,1-1.63-.4l0.22-.68a2.76,2.76,0,0,0,1.44.38,1.47,1.47,0,0,0,1.58-1.71v-0.55h0a1.75,1.75,0,0,1-1.56.82,2.19,2.19,0,0,1-2.08-2.39,2.35,2.35,0,0,1,2.21-2.6,1.63,1.63,0,0,1,1.53.85h0l0-.74h0.78Zm-0.92,1.93a1.3,1.3,0,0,0-1.29-1.35,1.6,1.6,0,0,0-1.46,1.85,1.53,1.53,0,0,0,1.45,1.76,1.3,1.3,0,0,0,1.23-.91,1.56,1.56,0,0,0,.07-0.48V403.8Z" transform="translate(-7.16 -143.63)"/><path class="cls-5" d="M161.92,399.58h0.89v3.05h0a1.65,1.65,0,0,1,.64-0.63,1.84,1.84,0,0,1,.91-0.25c0.66,0,1.71.4,1.71,2.09v2.91H165.2V404a1.2,1.2,0,0,0-1.13-1.46,1.28,1.28,0,0,0-1.19.89,1.07,1.07,0,0,0-.06.42v3h-0.89v-7.18Z" transform="translate(-7.16 -143.63)"/><path class="cls-5" d="M168.57,400.46v1.41h1.27v0.68h-1.27v2.64c0,0.61.17,1,.67,1a2,2,0,0,0,.52-0.06l0,0.67a2.17,2.17,0,0,1-.79.12,1.23,1.23,0,0,1-1-.37,1.81,1.81,0,0,1-.34-1.27v-2.67h-0.76v-0.68h0.76V400.7Z" transform="translate(-7.16 -143.63)"/><path class="cls-5" d="M170.72,405.86a2.33,2.33,0,0,0,1.17.35,0.79,0.79,0,0,0,1-.73,1,1,0,0,0-.91-0.9,1.57,1.57,0,0,1-1.29-1.39,1.51,1.51,0,0,1,1.69-1.44,2.44,2.44,0,0,1,1.2.3l-0.22.65a1.91,1.91,0,0,0-1-.28,0.71,0.71,0,0,0-.82.67c0,0.4.29,0.59,0.93,0.83a1.5,1.5,0,1,1-.55,2.94,2.79,2.79,0,0,1-1.38-.33Z" transform="translate(-7.16 -143.63)"/><line class="cls-6" x1="146.02" y1="159.08" x2="146.02" y2="168.28"/><line class="cls-6" x1="146.02" y1="186.75" x2="146.02" y2="195.94"/><line class="cls-6" x1="146.02" y1="214.42" x2="146.02" y2="223.61"/><line class="cls-6" x1="146.02" y1="242.09" x2="146.02" y2="251.28"/><line class="cls-6" x1="35.14" y1="158.39" x2="35.14" y2="167.58"/><line class="cls-6" x1="35.14" y1="186.4" x2="35.14" y2="195.6"/><line class="cls-6" x1="35.14" y1="214.42" x2="35.14" y2="223.61"/><line class="cls-6" x1="35.14" y1="242.43" x2="35.14" y2="251.63"/><line class="cls-6" x1="35.14" y1="270.45" x2="35.14" y2="279.64"/><line class="cls-6" x1="35.14" y1="298.46" x2="35.14" y2="307.66"/><path class="cls-1" d="M599.29,152.84c0-1-.11-2.09-0.1-2.94h0c-0.23.8-.52,1.65-0.86,2.59l-1.2,3.31h-0.67l-1.1-3.25c-0.32-1-.6-1.84-0.79-2.65h0c0,0.85-.07,2-0.13,3l-0.18,2.92h-0.84l0.48-6.82H595l1.16,3.3c0.28,0.84.52,1.59,0.69,2.3h0c0.17-.69.42-1.44,0.72-2.3l1.21-3.3h1.12l0.42,6.82h-0.86Z" transform="translate(-7.16 -143.63)"/><path class="cls-1" d="M602.21,153.55a1.57,1.57,0,0,0,1.68,1.7,3.22,3.22,0,0,0,1.36-.25l0.15,0.64a4,4,0,0,1-1.63.3,2.27,2.27,0,0,1-2.41-2.47,2.38,2.38,0,0,1,2.3-2.64,2.07,2.07,0,0,1,2,2.31,3.44,3.44,0,0,1,0,.42h-3.44Zm2.61-.64a1.27,1.27,0,0,0-1.23-1.45,1.48,1.48,0,0,0-1.37,1.45h2.6Z" transform="translate(-7.16 -143.63)"/><path class="cls-1" d="M606.78,152.26c0-.51,0-0.92,0-1.33h0.78l0,0.79h0a1.69,1.69,0,0,1,1.54-.9,1.45,1.45,0,0,1,1.39,1h0a2,2,0,0,1,.55-0.64,1.67,1.67,0,0,1,1.08-.34c0.65,0,1.61.42,1.61,2.12v2.88H612.9v-2.77c0-.94-0.34-1.51-1.06-1.51a1.15,1.15,0,0,0-1.05.81,1.45,1.45,0,0,0-.07.45v3h-0.87V152.9a1.13,1.13,0,0,0-1-1.35,1.33,1.33,0,0,0-1.17,1.33v3h-0.87v-3.57Z" transform="translate(-7.16 -143.63)"/><path class="cls-1" d="M615.17,155.83c0-.33,0-0.83,0-1.26v-5.92h0.88v3.08h0a1.82,1.82,0,0,1,1.67-.9c1.21,0,2.07,1,2.06,2.5a2.33,2.33,0,0,1-2.2,2.62A1.74,1.74,0,0,1,616,155h0l0,0.81h-0.77Zm0.92-2a1.65,1.65,0,0,0,0,.32,1.37,1.37,0,0,0,1.33,1c0.93,0,1.49-.76,1.49-1.88a1.59,1.59,0,0,0-1.46-1.82,1.42,1.42,0,0,0-1.36,1.09,1.81,1.81,0,0,0,0,.36v0.88Z" transform="translate(-7.16 -143.63)"/><path class="cls-1" d="M621.46,153.55a1.57,1.57,0,0,0,1.68,1.7,3.22,3.22,0,0,0,1.36-.25l0.15,0.64a4,4,0,0,1-1.63.3,2.27,2.27,0,0,1-2.41-2.47,2.38,2.38,0,0,1,2.3-2.64,2.07,2.07,0,0,1,2,2.31,3.44,3.44,0,0,1,0,.42h-3.44Zm2.61-.64a1.27,1.27,0,0,0-1.23-1.45,1.48,1.48,0,0,0-1.37,1.45h2.6Z" transform="translate(-7.16 -143.63)"/><path class="cls-1" d="M626,152.47c0-.58,0-1.07,0-1.53h0.78l0,1h0a1.47,1.47,0,0,1,1.36-1.07,1,1,0,0,1,.25,0v0.84a1.35,1.35,0,0,0-.3,0,1.25,1.25,0,0,0-1.19,1.14,2.48,2.48,0,0,0,0,.42v2.61H626v-3.37Z" transform="translate(-7.16 -143.63)"/><path class="cls-1" d="M631.52,149h0.88v6.08h2.91v0.74h-3.79V149Z" transform="translate(-7.16 -143.63)"/><path class="cls-1" d="M640.55,153.35a2.39,2.39,0,0,1-2.44,2.6,2.33,2.33,0,0,1-2.35-2.52,2.39,2.39,0,0,1,2.43-2.6A2.32,2.32,0,0,1,640.55,153.35Zm-3.88.05a1.53,1.53,0,1,0,1.51-1.9A1.67,1.67,0,0,0,636.67,153.4Z" transform="translate(-7.16 -143.63)"/><path class="cls-1" d="M645.89,150.94c0,0.35,0,.75,0,1.35v2.84a2.82,2.82,0,0,1-.7,2.24,2.6,2.6,0,0,1-1.78.59,3.16,3.16,0,0,1-1.63-.4l0.22-.68a2.76,2.76,0,0,0,1.44.38,1.47,1.47,0,0,0,1.58-1.71V155h0a1.75,1.75,0,0,1-1.56.82,2.19,2.19,0,0,1-2.08-2.39,2.35,2.35,0,0,1,2.21-2.6,1.63,1.63,0,0,1,1.53.85h0l0-.74h0.78ZM645,152.87a1.3,1.3,0,0,0-1.29-1.35,1.6,1.6,0,0,0-1.46,1.85,1.53,1.53,0,0,0,1.45,1.76,1.3,1.3,0,0,0,1.23-.91,1.54,1.54,0,0,0,.07-0.48v-0.88Z" transform="translate(-7.16 -143.63)"/><path class="cls-1" d="M650.38,149v6.82H649.5V149h0.88Z" transform="translate(-7.16 -143.63)"/><path class="cls-1" d="M652,152.26c0-.51,0-0.92,0-1.33h0.79l0.05,0.81h0a1.8,1.8,0,0,1,1.62-.92c0.68,0,1.73.4,1.73,2.08v2.92h-0.89V153a1.19,1.19,0,0,0-1.13-1.45,1.26,1.26,0,0,0-1.19.91,1.29,1.29,0,0,0-.06.42v2.94H652v-3.57Z" transform="translate(-7.16 -143.63)"/><path class="cls-1" d="M607.9,182.43a3.12,3.12,0,0,0,1.58.44,1.22,1.22,0,0,0,1.43-1.16c0-.64-0.36-1-1.29-1.36-1.11-.39-1.8-1-1.8-1.93a2,2,0,0,1,2.21-1.85,3.1,3.1,0,0,1,1.51.33l-0.24.72a2.72,2.72,0,0,0-1.29-.32,1.1,1.1,0,0,0-1.28,1c0,0.64.41,1,1.36,1.31,1.15,0.45,1.74,1,1.74,2s-0.78,2-2.39,2a3.52,3.52,0,0,1-1.74-.44Z" transform="translate(-7.16 -143.63)"/><path class="cls-1" d="M614,177.23a0.55,0.55,0,0,1-1.1,0,0.54,0.54,0,0,1,.56-0.56A0.53,0.53,0,0,1,614,177.23Zm-1,6.27v-4.9h0.89v4.9H613Z" transform="translate(-7.16 -143.63)"/><path class="cls-1" d="M619.56,178.6c0,0.35,0,.75,0,1.35v2.84a2.82,2.82,0,0,1-.7,2.24,2.6,2.6,0,0,1-1.78.59,3.16,3.16,0,0,1-1.63-.4l0.22-.68a2.76,2.76,0,0,0,1.44.38,1.47,1.47,0,0,0,1.58-1.71v-0.55h0a1.75,1.75,0,0,1-1.56.82,2.19,2.19,0,0,1-2.08-2.39,2.35,2.35,0,0,1,2.21-2.6,1.63,1.63,0,0,1,1.53.85h0l0-.74h0.78Zm-0.92,1.93a1.3,1.3,0,0,0-1.29-1.35,1.6,1.6,0,0,0-1.46,1.85,1.53,1.53,0,0,0,1.45,1.76,1.3,1.3,0,0,0,1.23-.91,1.54,1.54,0,0,0,.07-0.48v-0.88Z" transform="translate(-7.16 -143.63)"/><path class="cls-1" d="M620.93,179.93c0-.51,0-0.92,0-1.33h0.79l0.05,0.81h0a1.8,1.8,0,0,1,1.62-.92c0.68,0,1.73.4,1.73,2.08v2.92h-0.89v-2.82a1.19,1.19,0,0,0-1.13-1.45,1.26,1.26,0,0,0-1.19.91,1.29,1.29,0,0,0-.06.42v2.94h-0.89v-3.57Z" transform="translate(-7.16 -143.63)"/><path class="cls-1" d="M629.6,176.68v4c0,1.53.68,2.18,1.59,2.18s1.66-.67,1.66-2.18v-4h0.89v4c0,2.09-1.1,3-2.58,3s-2.45-.8-2.45-2.91v-4h0.89Z" transform="translate(-7.16 -143.63)"/><path class="cls-1" d="M635.23,180.2c0-.63,0-1.13,0-1.6H636l0,0.84h0a1.93,1.93,0,0,1,1.74-1,2.22,2.22,0,0,1,2.07,2.49c0,1.76-1.07,2.63-2.23,2.63a1.72,1.72,0,0,1-1.51-.77h0v2.66h-0.88v-5.3Zm0.88,1.3a2,2,0,0,0,0,.36,1.37,1.37,0,0,0,1.33,1c0.94,0,1.49-.77,1.49-1.89a1.59,1.59,0,0,0-1.46-1.82,1.42,1.42,0,0,0-1.34,1.1,1.45,1.45,0,0,0-.06.36v0.84Z" transform="translate(-7.16 -143.63)"/><path class="cls-1" d="M606.41,210.95a4.37,4.37,0,0,1-1.8.32,3.19,3.19,0,0,1-3.37-3.45,3.39,3.39,0,0,1,3.56-3.58,3.66,3.66,0,0,1,1.62.3l-0.21.72a3.2,3.2,0,0,0-1.37-.28,2.54,2.54,0,0,0-2.66,2.81,2.48,2.48,0,0,0,2.62,2.74,3.52,3.52,0,0,0,1.44-.28Z" transform="translate(-7.16 -143.63)"/><path class="cls-1" d="M611.8,208.68a2.39,2.39,0,0,1-2.44,2.6,2.33,2.33,0,0,1-2.35-2.52,2.39,2.39,0,0,1,2.43-2.6A2.32,2.32,0,0,1,611.8,208.68Zm-3.88.05a1.53,1.53,0,1,0,1.51-1.9A1.67,1.67,0,0,0,607.92,208.73Z" transform="translate(-7.16 -143.63)"/><path class="cls-1" d="M612.92,207.6c0-.51,0-0.92,0-1.33h0.79l0.05,0.81h0a1.8,1.8,0,0,1,1.62-.92c0.68,0,1.73.4,1.73,2.08v2.92H616.2v-2.82a1.19,1.19,0,0,0-1.13-1.45,1.26,1.26,0,0,0-1.19.91,1.29,1.29,0,0,0-.06.42v2.94h-0.89V207.6Z" transform="translate(-7.16 -143.63)"/><path class="cls-1" d="M619.57,204.87v1.41h1.28V207h-1.28v2.64c0,0.61.17,1,.67,1a2,2,0,0,0,.52-0.06l0,0.67a2.18,2.18,0,0,1-.79.12,1.23,1.23,0,0,1-1-.37,1.81,1.81,0,0,1-.34-1.27V207h-0.76v-0.68h0.76V205.1Z" transform="translate(-7.16 -143.63)"/><path class="cls-1" d="M624.55,211.17l-0.07-.62h0a1.82,1.82,0,0,1-1.5.73,1.4,1.4,0,0,1-1.5-1.41c0-1.18,1.05-1.83,2.94-1.82V208a1,1,0,0,0-1.11-1.13,2.44,2.44,0,0,0-1.28.36l-0.2-.59a3,3,0,0,1,1.61-.44,1.74,1.74,0,0,1,1.86,2V210a6.91,6.91,0,0,0,.08,1.17h-0.81Zm-0.13-2.5c-1,0-2.07.15-2.07,1.1a0.79,0.79,0,0,0,.84.85,1.22,1.22,0,0,0,1.18-.82,0.93,0.93,0,0,0,.05-0.28v-0.85Z" transform="translate(-7.16 -143.63)"/><path class="cls-1" d="M630.21,211a3.27,3.27,0,0,1-1.41.28,2.33,2.33,0,0,1-2.44-2.5,2.49,2.49,0,0,1,2.63-2.6,3,3,0,0,1,1.23.25l-0.2.69a2.07,2.07,0,0,0-1-.23,1.85,1.85,0,0,0,0,3.68,2.53,2.53,0,0,0,1.09-.24Z" transform="translate(-7.16 -143.63)"/><path class="cls-1" d="M632.45,204.87v1.41h1.28V207h-1.28v2.64c0,0.61.17,1,.67,1a2,2,0,0,0,.52-0.06l0,0.67a2.18,2.18,0,0,1-.79.12,1.23,1.23,0,0,1-1-.37,1.81,1.81,0,0,1-.34-1.27V207h-0.76v-0.68h0.76V205.1Z" transform="translate(-7.16 -143.63)"/><path class="cls-1" d="M637.78,204.35v4c0,1.53.68,2.18,1.59,2.18s1.66-.67,1.66-2.18v-4h0.89v4c0,2.09-1.1,3-2.58,3s-2.45-.8-2.45-2.91v-4h0.89Z" transform="translate(-7.16 -143.63)"/><path class="cls-1" d="M643.23,210.26a2.33,2.33,0,0,0,1.17.35,0.79,0.79,0,0,0,1-.73,1,1,0,0,0-.91-0.9,1.57,1.57,0,0,1-1.29-1.39,1.51,1.51,0,0,1,1.69-1.44,2.44,2.44,0,0,1,1.2.3l-0.22.65a1.9,1.9,0,0,0-1-.28,0.71,0.71,0,0,0-.82.67c0,0.4.29,0.59,0.93,0.83a1.5,1.5,0,1,1-.55,2.94,2.79,2.79,0,0,1-1.38-.33Z" transform="translate(-7.16 -143.63)"/><path class="cls-1" d="M164.33,155.61a4.36,4.36,0,0,1-1.8.32,3.19,3.19,0,0,1-3.37-3.45,3.39,3.39,0,0,1,3.56-3.58,3.66,3.66,0,0,1,1.62.3l-0.21.72a3.21,3.21,0,0,0-1.38-.28,2.54,2.54,0,0,0-2.66,2.81,2.48,2.48,0,0,0,2.62,2.74,3.52,3.52,0,0,0,1.44-.28Z" transform="translate(-7.16 -143.63)"/><path class="cls-1" d="M168,155.83l-0.07-.62h0a1.82,1.82,0,0,1-1.5.73,1.4,1.4,0,0,1-1.5-1.41c0-1.18,1.05-1.83,2.94-1.82v-0.1a1,1,0,0,0-1.11-1.13,2.44,2.44,0,0,0-1.27.36l-0.2-.59a3,3,0,0,1,1.61-.44,1.74,1.74,0,0,1,1.86,2v1.83a6.86,6.86,0,0,0,.08,1.17H168Zm-0.13-2.5c-1,0-2.07.15-2.07,1.1a0.79,0.79,0,0,0,.84.85,1.22,1.22,0,0,0,1.18-.82,0.93,0.93,0,0,0,.05-0.28v-0.85Z" transform="translate(-7.16 -143.63)"/><path class="cls-1" d="M170.2,152.47c0-.58,0-1.07,0-1.53h0.78l0,1h0a1.47,1.47,0,0,1,1.36-1.07,1,1,0,0,1,.25,0v0.84a1.35,1.35,0,0,0-.3,0,1.25,1.25,0,0,0-1.19,1.14,2.48,2.48,0,0,0,0,.42v2.61H170.2v-3.37Z" transform="translate(-7.16 -143.63)"/><path class="cls-1" d="M174.82,149.53v1.41h1.27v0.68h-1.27v2.64c0,0.61.17,1,.67,1a2,2,0,0,0,.52-0.06l0,0.67a2.18,2.18,0,0,1-.79.12,1.23,1.23,0,0,1-1-.37,1.81,1.81,0,0,1-.34-1.27v-2.67h-0.76v-0.68H174v-1.17Z" transform="translate(-7.16 -143.63)"/><path class="cls-1" d="M152,183.5l-1.73-6.82h0.93l0.81,3.45c0.2,0.85.38,1.7,0.51,2.36h0c0.11-.68.32-1.49,0.56-2.37l0.91-3.44h0.92l0.83,3.46c0.19,0.81.37,1.62,0.48,2.34h0c0.14-.75.33-1.51,0.55-2.36l0.9-3.44h0.9l-1.93,6.82h-0.92L154.91,180a20.4,20.4,0,0,1-.45-2.23h0a21.23,21.23,0,0,1-.53,2.23l-1,3.55H152Z" transform="translate(-7.16 -143.63)"/><path class="cls-1" d="M160.27,177.23a0.55,0.55,0,0,1-1.1,0,0.54,0.54,0,0,1,.56-0.56A0.53,0.53,0,0,1,160.27,177.23Zm-1,6.27v-4.9h0.89v4.9h-0.89Z" transform="translate(-7.16 -143.63)"/><path class="cls-1" d="M161.52,182.59a2.33,2.33,0,0,0,1.17.35,0.79,0.79,0,0,0,1-.73,1,1,0,0,0-.91-0.9,1.57,1.57,0,0,1-1.29-1.39,1.51,1.51,0,0,1,1.69-1.44,2.44,2.44,0,0,1,1.2.3l-0.22.65a1.9,1.9,0,0,0-1-.28,0.71,0.71,0,0,0-.82.67c0,0.4.29,0.59,0.93,0.83a1.5,1.5,0,1,1-.55,2.94,2.79,2.79,0,0,1-1.38-.33Z" transform="translate(-7.16 -143.63)"/><path class="cls-1" d="M165.65,176.32h0.89v3.06h0a1.65,1.65,0,0,1,.64-0.63,1.83,1.83,0,0,1,.91-0.25c0.66,0,1.71.4,1.71,2.09v2.91h-0.89v-2.81a1.2,1.2,0,0,0-1.13-1.46,1.28,1.28,0,0,0-1.19.89,1.07,1.07,0,0,0-.06.42v3h-0.89v-7.18Z" transform="translate(-7.16 -143.63)"/><path class="cls-1" d="M173.43,176.68h0.88v6.08h2.91v0.74h-3.79v-6.82Z" transform="translate(-7.16 -143.63)"/><path class="cls-1" d="M179.17,177.23a0.55,0.55,0,0,1-1.1,0,0.54,0.54,0,0,1,.56-0.56A0.53,0.53,0,0,1,179.17,177.23Zm-1,6.27v-4.9h0.89v4.9h-0.89Z" transform="translate(-7.16 -143.63)"/><path class="cls-1" d="M180.42,182.59a2.33,2.33,0,0,0,1.17.35,0.79,0.79,0,0,0,1-.73,1,1,0,0,0-.91-0.9,1.57,1.57,0,0,1-1.29-1.39,1.51,1.51,0,0,1,1.69-1.44,2.44,2.44,0,0,1,1.2.3l-0.22.65a1.9,1.9,0,0,0-1-.28,0.71,0.71,0,0,0-.82.67c0,0.4.29,0.59,0.93,0.83a1.5,1.5,0,1,1-.55,2.94,2.79,2.79,0,0,1-1.38-.33Z" transform="translate(-7.16 -143.63)"/><path class="cls-1" d="M185.62,177.2v1.41h1.27v0.68h-1.27v2.64c0,0.61.17,1,.67,1a2,2,0,0,0,.52-0.06l0,0.67a2.18,2.18,0,0,1-.79.12,1.23,1.23,0,0,1-1-.37,1.81,1.81,0,0,1-.34-1.27v-2.67H184v-0.68h0.76v-1.17Z" transform="translate(-7.16 -143.63)"/><path class="cls-1" d="M617.45,237.77a6.34,6.34,0,0,1-2.09.37,3.2,3.2,0,0,1-3.5-3.44,3.42,3.42,0,0,1,3.69-3.52,4.21,4.21,0,0,1,1.7.31l-0.21.72a3.53,3.53,0,0,0-1.51-.29,2.55,2.55,0,0,0-2.74,2.74,2.5,2.5,0,0,0,2.63,2.75,2.86,2.86,0,0,0,1.17-.18v-2H615.2v-0.71h2.25v3.28Z" transform="translate(-7.16 -143.63)"/><path class="cls-1" d="M622.86,236.74c0,0.51,0,1,0,1.34h-0.79l-0.05-.8h0a1.84,1.84,0,0,1-1.62.91c-0.77,0-1.69-.42-1.69-2.14v-2.86h0.89v2.71c0,0.93.28,1.56,1.09,1.56a1.25,1.25,0,0,0,1.25-1.26v-3h0.89v3.56Z" transform="translate(-7.16 -143.63)"/><path class="cls-1" d="M624.83,235.78a1.57,1.57,0,0,0,1.68,1.7,3.22,3.22,0,0,0,1.36-.25l0.15,0.64a4,4,0,0,1-1.63.3A2.27,2.27,0,0,1,624,235.7a2.38,2.38,0,0,1,2.3-2.64,2.07,2.07,0,0,1,2,2.31,3.44,3.44,0,0,1,0,.42h-3.44Zm2.61-.64a1.27,1.27,0,0,0-1.23-1.45,1.48,1.48,0,0,0-1.37,1.45h2.6Z" transform="translate(-7.16 -143.63)"/><path class="cls-1" d="M629.28,237.16a2.33,2.33,0,0,0,1.17.35,0.79,0.79,0,0,0,1-.73,1,1,0,0,0-.91-0.9,1.57,1.57,0,0,1-1.29-1.39,1.51,1.51,0,0,1,1.69-1.44,2.44,2.44,0,0,1,1.2.3l-0.22.65a1.9,1.9,0,0,0-1-.28,0.71,0.71,0,0,0-.82.67c0,0.4.29,0.59,0.93,0.83a1.5,1.5,0,1,1-.55,2.94,2.79,2.79,0,0,1-1.38-.33Z" transform="translate(-7.16 -143.63)"/><path class="cls-1" d="M634.47,231.77v1.41h1.28v0.68h-1.28v2.64c0,0.61.17,1,.67,1a2,2,0,0,0,.52-0.06l0,0.67a2.18,2.18,0,0,1-.79.12,1.23,1.23,0,0,1-1-.37,1.81,1.81,0,0,1-.34-1.27v-2.67h-0.76v-0.68h0.76V232Z" transform="translate(-7.16 -143.63)"/><rect class="cls-4" x="332.04" width="113.6" height="73.81"/><path class="cls-5" d="M372.52,170.71a8.52,8.52,0,0,1,1.61-.14,2.82,2.82,0,0,1,1.87.5,1.43,1.43,0,0,1,.57,1.2,1.62,1.62,0,0,1-1.15,1.5v0a1.76,1.76,0,0,1,1.41,1.71,1.84,1.84,0,0,1-.58,1.37,3.42,3.42,0,0,1-2.36.64,10.37,10.37,0,0,1-1.37-.08v-6.71Zm0.88,2.79h0.8a1.26,1.26,0,0,0,1.48-1.14c0-.8-0.61-1.11-1.5-1.11a3.79,3.79,0,0,0-.78.06v2.2Zm0,3.27a4.72,4.72,0,0,0,.74,0c0.91,0,1.75-.33,1.75-1.33s-0.8-1.31-1.76-1.31H373.4v2.6Z" transform="translate(-7.16 -143.63)"/><path class="cls-5" d="M379,171.16a0.55,0.55,0,0,1-1.1,0,0.54,0.54,0,0,1,.56-0.56A0.53,0.53,0,0,1,379,171.16Zm-1,6.27v-4.9h0.89v4.9H378Z" transform="translate(-7.16 -143.63)"/><path class="cls-5" d="M380.33,173.86c0-.51,0-0.92,0-1.33h0.78l0,0.79h0a1.69,1.69,0,0,1,1.54-.9,1.45,1.45,0,0,1,1.39,1h0a2,2,0,0,1,.55-0.64,1.67,1.67,0,0,1,1.08-.34c0.65,0,1.61.42,1.61,2.12v2.88h-0.87v-2.77c0-.94-0.34-1.51-1.06-1.51a1.15,1.15,0,0,0-1.05.81,1.47,1.47,0,0,0-.07.45v3H383.4V174.5a1.13,1.13,0,0,0-1-1.35,1.22,1.22,0,0,0-1.1.89,1.23,1.23,0,0,0-.07.44v3h-0.87v-3.57Z" transform="translate(-7.16 -143.63)"/><path class="cls-5" d="M388.77,173.86c0-.51,0-0.92,0-1.33h0.78l0,0.79h0a1.69,1.69,0,0,1,1.54-.9,1.45,1.45,0,0,1,1.39,1h0a2,2,0,0,1,.55-0.64,1.67,1.67,0,0,1,1.08-.34c0.65,0,1.61.42,1.61,2.12v2.88h-0.87v-2.77c0-.94-0.34-1.51-1.06-1.51a1.15,1.15,0,0,0-1.05.81,1.47,1.47,0,0,0-.07.45v3h-0.87V174.5a1.13,1.13,0,0,0-1-1.35,1.22,1.22,0,0,0-1.1.89,1.23,1.23,0,0,0-.07.44v3h-0.87v-3.57Z" transform="translate(-7.16 -143.63)"/><path class="cls-5" d="M397.7,175.15a1.57,1.57,0,0,0,1.68,1.7,3.21,3.21,0,0,0,1.36-.25l0.15,0.64a4,4,0,0,1-1.63.3,2.27,2.27,0,0,1-2.41-2.47,2.38,2.38,0,0,1,2.3-2.64,2.07,2.07,0,0,1,2,2.31,3.44,3.44,0,0,1,0,.42H397.7Zm2.61-.64a1.27,1.27,0,0,0-1.23-1.45,1.47,1.47,0,0,0-1.37,1.45h2.6Z" transform="translate(-7.16 -143.63)"/><path class="cls-5" d="M402.27,174.07c0-.58,0-1.07,0-1.53H403l0,1h0a1.47,1.47,0,0,1,1.36-1.07,1,1,0,0,1,.25,0v0.84a1.34,1.34,0,0,0-.3,0,1.25,1.25,0,0,0-1.19,1.14,2.48,2.48,0,0,0,0,.42v2.61h-0.88v-3.37Z" transform="translate(-7.16 -143.63)"/><path class="cls-5" d="M406.49,170.62v4c0,1.53.68,2.18,1.59,2.18s1.66-.67,1.66-2.18v-4h0.89v4c0,2.09-1.1,3-2.58,3s-2.45-.8-2.45-2.91v-4h0.89Z" transform="translate(-7.16 -143.63)"/><path class="cls-5" d="M412,176.36a3.12,3.12,0,0,0,1.58.44,1.22,1.22,0,0,0,1.43-1.16c0-.64-0.36-1-1.29-1.36-1.11-.39-1.8-1-1.8-1.93a2,2,0,0,1,2.21-1.85,3.1,3.1,0,0,1,1.51.33l-0.24.72a2.72,2.72,0,0,0-1.29-.32,1.1,1.1,0,0,0-1.29,1c0,0.64.42,1,1.36,1.31,1.15,0.45,1.74,1,1.74,2s-0.78,2-2.39,2a3.52,3.52,0,0,1-1.74-.44Z" transform="translate(-7.16 -143.63)"/><path class="cls-5" d="M373.4,182.75v2.85h3.3v-2.85h0.89v6.82h-0.89v-3.2h-3.3v3.2h-0.88v-6.82h0.88Z" transform="translate(-7.16 -143.63)"/><path class="cls-5" d="M383.51,187.08a2.39,2.39,0,0,1-2.44,2.6,2.33,2.33,0,0,1-2.35-2.52,2.39,2.39,0,0,1,2.43-2.6A2.32,2.32,0,0,1,383.51,187.08Zm-3.88.05a1.53,1.53,0,1,0,1.51-1.9A1.67,1.67,0,0,0,379.63,187.13Z" transform="translate(-7.16 -143.63)"/><path class="cls-5" d="M384.63,186c0-.51,0-0.92,0-1.33h0.78l0,0.79h0a1.69,1.69,0,0,1,1.54-.9,1.45,1.45,0,0,1,1.39,1h0a2,2,0,0,1,.55-0.64,1.67,1.67,0,0,1,1.08-.34c0.65,0,1.61.42,1.61,2.12v2.88h-0.87V186.8c0-.94-0.34-1.51-1.06-1.51a1.15,1.15,0,0,0-1.05.81,1.47,1.47,0,0,0-.07.45v3H387.7v-2.93a1.13,1.13,0,0,0-1-1.35,1.22,1.22,0,0,0-1.1.89,1.23,1.23,0,0,0-.07.44v3h-0.87V186Z" transform="translate(-7.16 -143.63)"/><path class="cls-5" d="M393.56,187.28a1.57,1.57,0,0,0,1.68,1.7,3.22,3.22,0,0,0,1.36-.25l0.15,0.64a4,4,0,0,1-1.63.3,2.27,2.27,0,0,1-2.41-2.47,2.38,2.38,0,0,1,2.3-2.64,2.07,2.07,0,0,1,2,2.31,3.44,3.44,0,0,1,0,.42h-3.44Zm2.61-.64a1.27,1.27,0,0,0-1.23-1.45,1.48,1.48,0,0,0-1.37,1.45h2.6Z" transform="translate(-7.16 -143.63)"/><path class="cls-5" d="M400.31,182.83a10.21,10.21,0,0,1,1.69-.13,2.8,2.8,0,0,1,1.91.57,1.83,1.83,0,0,1,.6,1.43,2,2,0,0,1-.53,1.46,2.83,2.83,0,0,1-2.08.75,3,3,0,0,1-.71-0.06v2.73h-0.88v-6.74Zm0.88,3.29a3,3,0,0,0,.73.07,1.46,1.46,0,0,0,1.71-1.46A1.35,1.35,0,0,0,402,183.4a3.7,3.7,0,0,0-.83.07v2.65Z" transform="translate(-7.16 -143.63)"/><path class="cls-5" d="M408.11,189.57L408,189h0a1.82,1.82,0,0,1-1.5.73,1.4,1.4,0,0,1-1.5-1.41c0-1.18,1.05-1.83,2.94-1.82v-0.1a1,1,0,0,0-1.11-1.13,2.44,2.44,0,0,0-1.27.36l-0.2-.59a3,3,0,0,1,1.61-.44,1.74,1.74,0,0,1,1.86,2v1.83a6.81,6.81,0,0,0,.08,1.17h-0.81Zm-0.13-2.5c-1,0-2.07.15-2.07,1.1a0.79,0.79,0,0,0,.84.85,1.22,1.22,0,0,0,1.18-.82,0.93,0.93,0,0,0,.05-0.28v-0.85Z" transform="translate(-7.16 -143.63)"/><path class="cls-5" d="M414.49,184.67c0,0.35,0,.75,0,1.35v2.84a2.82,2.82,0,0,1-.7,2.24,2.6,2.6,0,0,1-1.78.59,3.16,3.16,0,0,1-1.63-.4l0.22-.68A2.76,2.76,0,0,0,412,191a1.47,1.47,0,0,0,1.58-1.71v-0.55h0a1.75,1.75,0,0,1-1.56.82,2.19,2.19,0,0,1-2.08-2.39,2.35,2.35,0,0,1,2.21-2.6,1.63,1.63,0,0,1,1.53.85h0l0-.74h0.78Zm-0.92,1.93a1.3,1.3,0,0,0-1.29-1.35,1.6,1.6,0,0,0-1.46,1.85,1.53,1.53,0,0,0,1.45,1.76,1.3,1.3,0,0,0,1.23-.91,1.54,1.54,0,0,0,.07-0.48v-0.88Z" transform="translate(-7.16 -143.63)"/><path class="cls-5" d="M416.42,187.28a1.57,1.57,0,0,0,1.68,1.7,3.22,3.22,0,0,0,1.36-.25l0.15,0.64a4,4,0,0,1-1.63.3,2.27,2.27,0,0,1-2.41-2.47,2.38,2.38,0,0,1,2.3-2.64,2.07,2.07,0,0,1,2,2.31,3.25,3.25,0,0,1,0,.42h-3.44Zm2.61-.64a1.27,1.27,0,0,0-1.23-1.45,1.48,1.48,0,0,0-1.37,1.45H419Z" transform="translate(-7.16 -143.63)"/><line class="cls-6" x1="196.63" y1="9.24" x2="331.76" y2="9.24"/><line class="cls-6" x1="581.45" y1="9.24" x2="445.36" y2="9.24"/><polyline class="cls-6" points="566.8 9.24 566.8 64.57 581.45 64.57"/><line class="cls-6" x1="581.45" y1="36.9" x2="566.8" y2="36.9"/><polyline class="cls-6" points="209.96 9.24 209.96 36.9 196.63 36.9"/><polyline class="cls-6" points="384.56 121.64 35.14 121.64 35.14 140.26"/><polyline class="cls-6" points="566.8 64.57 566.8 91.47 581.45 91.47"/><line class="cls-6" x1="146.02" y1="121.64" x2="146.02" y2="140.26"/><line class="cls-6" x1="252.4" y1="121.64" x2="252.4" y2="140.26"/><line class="cls-6" x1="350.04" y1="121.64" x2="350.04" y2="140.26"/><line class="cls-6" x1="451.69" y1="121.64" x2="451.69" y2="140.26"/><line class="cls-6" x1="388.84" y1="73.81" x2="388.84" y2="121.64"/></svg>