<svg id="Layer_1" data-name="Layer 1" xmlns="http://www.w3.org/2000/svg" viewBox="0 0 1200 705.79"><defs><style>.cls-1{fill:#fff;}.cls-2{fill:#231f20;}.cls-3{fill:#2aace3;}.cls-4{fill:#333;}.cls-5{fill:#fbb03b;}.cls-6{fill:none;stroke:#fff;stroke-miterlimit:10;}</style></defs><title>BimmerUSInteractionDesign</title><rect width="1200" height="705.79"/><rect class="cls-1" x="109.83" y="75.41" width="48.59" height="48.59" transform="translate(-31.22 124.04) rotate(-45)"/><path class="cls-2" d="M125,86v5.81h-0.73V86H125Z" transform="translate(0 0)"/><path class="cls-2" d="M126.16,91.08a2,2,0,0,0,1,.3,0.67,0.67,0,0,0,.81-0.62,0.86,0.86,0,0,0-.78-0.76,1.34,1.34,0,0,1-1.1-1.18,1.29,1.29,0,0,1,1.34-1.24h0.1a2.08,2.08,0,0,1,1,.26l-0.19.56a1.55,1.55,0,0,0-.86-0.25,0.61,0.61,0,0,0-.7.58,0.88,0.88,0,0,0,.79.72,1.28,1.28,0,0,1-.47,2.52,2.38,2.38,0,0,1-1.18-.28Z" transform="translate(0 0)"/><path class="cls-2" d="M132.44,86.48v1.2h1.13v0.58h-1.09v2.25c0,0.51.14,0.81,0.58,0.81a1.69,1.69,0,0,0,.44,0v0.58a1.85,1.85,0,0,1-.67.11,1.06,1.06,0,0,1-.81-0.31,1.55,1.55,0,0,1-.3-1.09V88.27H131V87.69h0.65v-1Z" transform="translate(0 0)"/><path class="cls-2" d="M134.38,85.73h0.75v2.61h0a1.41,1.41,0,0,1,.54-0.53,1.53,1.53,0,0,1,2.24,1.57v2.49h-0.73V89.48a1,1,0,0,0-.78-1.22l-0.18,0a1.09,1.09,0,0,0-1,.76,0.92,0.92,0,0,0,0,.36v2.52h-0.81V85.73Z" transform="translate(0 0)"/><path class="cls-2" d="M139.6,89.92a1.34,1.34,0,0,0,1.22,1.44H141a2.75,2.75,0,0,0,1.15-.22l0.12,0.54a3.39,3.39,0,0,1-1.38.26,1.94,1.94,0,0,1-2.05-2.11,2,2,0,0,1,1.77-2.24h0.19a1.77,1.77,0,0,1,1.74,1.81q0,0.08,0,.17a2.77,2.77,0,0,1,0,.36h-3Zm2.22-.54a1.09,1.09,0,0,0-.94-1.22h-0.12a1.26,1.26,0,0,0-1.17,1.23h2.22Z" transform="translate(0 0)"/><path class="cls-2" d="M117.56,101.1v1.13h-0.64v-0.68h0a1.53,1.53,0,0,1-2.83-1.06V98.06h0.76v2.32c0,0.79.25,1.34,0.93,1.34a0.89,0.89,0,0,0,1-1.07V98.06h0.78v3Z" transform="translate(0 0)"/><path class="cls-2" d="M118.72,101.47a2,2,0,0,0,1,.3,0.67,0.67,0,0,0,.81-0.62,0.86,0.86,0,0,0-.78-0.76,1.34,1.34,0,0,1-1.1-1.18A1.29,1.29,0,0,1,120,98h0.1a2.08,2.08,0,0,1,1,.26l-0.19.56a1.55,1.55,0,0,0-.86-0.25,0.61,0.61,0,0,0-.7.58,0.88,0.88,0,0,0,.79.72,1.28,1.28,0,0,1-.47,2.52,2.38,2.38,0,0,1-1.18-.28Z" transform="translate(0 0)"/><path class="cls-2" d="M122.69,100.29a1.34,1.34,0,0,0,1.22,1.44h0.21a2.75,2.75,0,0,0,1.15-.22l0.12,0.54a3.39,3.39,0,0,1-1.38.26,1.94,1.94,0,0,1-2.05-2.11,2,2,0,0,1,1.72-2.28l0.22,0a1.77,1.77,0,0,1,1.74,1.81q0,0.08,0,.17a2.77,2.77,0,0,1,0,.36h-2.94v0Zm2.22-.54a1.09,1.09,0,0,0-.94-1.22h-0.12a1.26,1.26,0,0,0-1.17,1.23h2.22Z" transform="translate(0 0)"/><path class="cls-2" d="M126.58,99.37V98.06h0.67v0.82h0a1.26,1.26,0,0,1,1.15-.92h0.22v0.72h-0.26a1.07,1.07,0,0,0-1,1,2.12,2.12,0,0,0,0,.36v2.22h-0.75V99.37Z" transform="translate(0 0)"/><path class="cls-2" d="M131.13,101.47a2,2,0,0,0,1,.3,0.67,0.67,0,0,0,.81-0.62,0.86,0.86,0,0,0-.78-0.76,1.34,1.34,0,0,1-1.1-1.18A1.29,1.29,0,0,1,132.4,98h0.1a2.08,2.08,0,0,1,1,.26l-0.19.56a1.55,1.55,0,0,0-.86-0.25,0.61,0.61,0,0,0-.7.58,0.88,0.88,0,0,0,.79.72,1.28,1.28,0,0,1-.47,2.52,2.38,2.38,0,0,1-1.18-.28Z" transform="translate(0 0)"/><path class="cls-2" d="M135.52,96.88a0.47,0.47,0,0,1-.95,0A0.47,0.47,0,0,1,135,96.4h0A0.45,0.45,0,0,1,135.52,96.88Zm-0.84,5.35V98.06h0.76v4.18h-0.78Z" transform="translate(0 0)"/><path class="cls-2" d="M140.29,98.06v3.58a2.41,2.41,0,0,1-.59,1.91,2.22,2.22,0,0,1-1.55.5,2.69,2.69,0,0,1-1.38-.34l0.19-.58a2.35,2.35,0,0,0,1.23.33,1.26,1.26,0,0,0,1.35-1.46v-0.47h0a1.55,1.55,0,0,1-1.32.7,1.87,1.87,0,0,1-1.78-1.95v-0.09a2,2,0,0,1,1.7-2.27h0.11a1.38,1.38,0,0,1,1.31.73h0V98h0.67Zm-0.79,1.65a1.12,1.12,0,0,0-1.09-1.15h0a1.37,1.37,0,0,0-1.25,1.47v0.08a1.31,1.31,0,0,0,1,1.53l0.2,0a1.1,1.1,0,0,0,1.06-.78,1.32,1.32,0,0,0,0-.4V99.74Z" transform="translate(0 0)"/><path class="cls-2" d="M141.47,99.2V98.06h0.67v0.68h0a1.54,1.54,0,0,1,2.86,1v2.49h-0.76V99.81a1,1,0,0,0-.8-1.21l-0.16,0a1.12,1.12,0,0,0-1.07,1.13v2.52h-0.76V99.12Z" transform="translate(0 0)"/><path class="cls-2" d="M146.69,100.29a1.34,1.34,0,0,0,1.22,1.44h0.21a2.75,2.75,0,0,0,1.15-.22l0.12,0.54a3.39,3.39,0,0,1-1.38.26,1.94,1.94,0,0,1-2.05-2.11A2,2,0,0,1,147.74,98h0.19a1.77,1.77,0,0,1,1.74,1.81q0,0.08,0,.17a2.77,2.77,0,0,1,0,.36h-3Zm2.22-.54a1.09,1.09,0,0,0-.94-1.22h-0.12a1.26,1.26,0,0,0-1.17,1.23h2.22Z" transform="translate(0 0)"/><path class="cls-2" d="M154.2,96.1v6.13h-0.68V101.5h0a1.55,1.55,0,0,1-1.43.82,1.91,1.91,0,0,1-1.8-2s0-.07,0-0.11A2,2,0,0,1,152,97.93l0.22,0a1.4,1.4,0,0,1,1.26.64h0V96.06h0.76Zm-0.76,3.65a1.34,1.34,0,0,0,0-.33,1.12,1.12,0,0,0-1.1-.89,1.38,1.38,0,0,0-1.27,1.49v0.06a1.34,1.34,0,0,0,1.1,1.54l0.13,0a1.13,1.13,0,0,0,1.12-.9,1.32,1.32,0,0,0,0-.33V99.7Z" transform="translate(0 0)"/><path class="cls-2" d="M130.46,107.24a0.47,0.47,0,0,1-.95,0,0.47,0.47,0,0,1,.45-0.48h0A0.45,0.45,0,0,1,130.46,107.24Zm-0.84,5.35V108.4h0.76v4.18h-0.76Z" transform="translate(0 0)"/><path class="cls-2" d="M131.63,109.57v-1.13h0.67v0.68h0a1.54,1.54,0,0,1,2.86,1v2.49h-0.73v-2.41a1,1,0,0,0-.8-1.21l-0.16,0a1.12,1.12,0,0,0-1.07,1.13v2.52h-0.76v-3Z" transform="translate(0 0)"/><path class="cls-2" d="M137,111v-0.22a2,2,0,0,1,.53-1.55,1.9,1.9,0,0,0,.61-1.18,0.72,0.72,0,0,0-.67-0.75h-0.15a1.55,1.55,0,0,0-.87.26l-0.2-.54a2.27,2.27,0,0,1,1.23-.34,1.27,1.27,0,0,1,1.45,1.27,2.33,2.33,0,0,1-.75,1.55,1.71,1.71,0,0,0-.5,1.27V111H137Zm-0.19,1.21a0.51,0.51,0,0,1,.48-0.54h0a0.54,0.54,0,1,1-.51.57v0Z" transform="translate(0 0)"/><rect class="cls-1" x="422.51" y="67.57" width="48.59" height="48.59" transform="translate(65.91 342.84) rotate(-45)"/><path class="cls-2" d="M431.33,88.66a10.76,10.76,0,0,1,1.55-.12,3.33,3.33,0,0,1,2.36.73,2.67,2.67,0,0,1,.82,2.08,3.11,3.11,0,0,1-.84,2.27,3.59,3.59,0,0,1-2.58.84,12.11,12.11,0,0,1-1.37,0V88.73Zm0.75,5.15a4.66,4.66,0,0,0,.76,0,2.24,2.24,0,0,0,2.47-2.47,2.08,2.08,0,0,0-2.36-2.24,4.26,4.26,0,0,0-.89.08v4.66Z" transform="translate(0 0)"/><path class="cls-2" d="M439.38,94.41V93.88h0a1.55,1.55,0,0,1-1.27.62,1.2,1.2,0,0,1-1.35-1.26c0-1,.9-1.55,2.52-1.55h0a0.86,0.86,0,0,0-.73-1h-0.22a2.08,2.08,0,0,0-1.09.31l-0.17-.5a2.6,2.6,0,0,1,1.37-.37A1.55,1.55,0,0,1,440,91.88v1.55a5.91,5.91,0,0,0,0,1h-0.68Zm-0.11-2.13c-0.82,0-1.77.12-1.77,0.95a0.67,0.67,0,0,0,.6.73h0.11a1,1,0,0,0,1-.7,0.79,0.79,0,0,0,0-.25V92.28h0Z" transform="translate(0 0)"/><path class="cls-2" d="M442.12,89v1.2h1.09V90.8h-1.09v2.25c0,0.51.14,0.81,0.58,0.81a1.69,1.69,0,0,0,.44,0v0.58a1.85,1.85,0,0,1-.67.11,1.06,1.06,0,0,1-.82-0.33,1.55,1.55,0,0,1-.3-1.09V90.85h-0.65V90.27h0.73v-1Z" transform="translate(0 0)"/><path class="cls-2" d="M446.38,94.41V93.88h0a1.55,1.55,0,0,1-1.27.62,1.2,1.2,0,0,1-1.27-1.12s0-.05,0-0.08c0-1,.9-1.55,2.52-1.55V91.69a0.86,0.86,0,0,0-.73-1H445.4a2.08,2.08,0,0,0-1.09.31l-0.17-.5a2.6,2.6,0,0,1,1.37-.37,1.55,1.55,0,0,1,1.55,1.71v1.55a5.91,5.91,0,0,0,0,1h-0.68v0Zm-0.11-2.13c-0.82,0-1.77.12-1.77,0.95a0.67,0.67,0,0,0,.6.73h0.11a1,1,0,0,0,1-.7,0.79,0.79,0,0,0,0-.25V92.28h0Z" transform="translate(0 0)"/><path class="cls-2" d="M455.05,91.42a2.72,2.72,0,0,1-2.3,3.08l-0.4,0a2.67,2.67,0,0,1-2.63-2.72q0-.12,0-0.23a2.77,2.77,0,0,1,2.4-3.09l0.3,0A2.64,2.64,0,0,1,455.05,91.42Zm-4.51.09a1.93,1.93,0,1,0,1.87-2.43,2.08,2.08,0,0,0-1.89,2.26q0,0.09,0,.18v0Z" transform="translate(0 0)"/><path class="cls-2" d="M456.77,92.14h0l0.37-.48,1.23-1.45h0.92l-1.55,1.71,1.83,2.46h-1l-1.45-2-0.39.44v1.55h-0.75V88.27h0.75v3.87h0.08Z" transform="translate(0 0)"/><path class="cls-2" d="M460.65,92.75V92.53a2,2,0,0,1,.53-1.55,1.9,1.9,0,0,0,.61-1.18,0.72,0.72,0,0,0-.67-0.75H461a1.55,1.55,0,0,0-.87.26l-0.2-.54a2.27,2.27,0,0,1,1.23-.34,1.27,1.27,0,0,1,1.45,1.27,2.33,2.33,0,0,1-.75,1.55,1.71,1.71,0,0,0-.5,1.27v0.22h-0.67ZM460.47,94a0.51,0.51,0,0,1,.48-0.54h0a0.54,0.54,0,1,1-.51.57v0h0Z" transform="translate(0 0)"/><rect class="cls-1" x="696.97" y="67.58" width="48.59" height="48.59" transform="translate(146.29 536.91) rotate(-45)"/><path class="cls-2" d="M705.73,88.66a10.77,10.77,0,0,1,1.55-.12,3.33,3.33,0,0,1,2.36.73,2.67,2.67,0,0,1,.82,2.08,3.11,3.11,0,0,1-.84,2.27,3.59,3.59,0,0,1-2.58.84,12.1,12.1,0,0,1-1.37,0V88.73Zm0.75,5.15a4.66,4.66,0,0,0,.76,0,2.24,2.24,0,0,0,2.47-2.47,2.08,2.08,0,0,0-2.36-2.24,4.26,4.26,0,0,0-.89.08v4.66Z" transform="translate(0 0)"/><path class="cls-2" d="M713.83,94.41V93.88h0a1.55,1.55,0,0,1-1.27.62,1.2,1.2,0,0,1-1.27-1.12s0-.05,0-0.08c0-1,.9-1.55,2.52-1.55V91.69a0.86,0.86,0,0,0-.73-1h-0.22a2.08,2.08,0,0,0-1.09.31l-0.17-.5a2.6,2.6,0,0,1,1.37-.37,1.55,1.55,0,0,1,1.55,1.71v1.55a5.91,5.91,0,0,0,0,1h-0.68v0Zm-0.11-2.13c-0.82,0-1.77.12-1.77,0.95a0.67,0.67,0,0,0,.6.73h0.11a1,1,0,0,0,1-.7,0.79,0.79,0,0,0,0-.25V92.28h0Z" transform="translate(0 0)"/><path class="cls-2" d="M716.62,89v1.2h1.09V90.8h-1.09v2.25c0,0.51.14,0.81,0.58,0.81a1.71,1.71,0,0,0,.44,0v0.58a1.85,1.85,0,0,1-.67.11,1.06,1.06,0,0,1-.82-0.33,1.55,1.55,0,0,1-.3-1.09V90.85h-0.65V90.27h0.65v-1Z" transform="translate(0 0)"/><path class="cls-2" d="M720.83,94.41V93.88h0a1.55,1.55,0,0,1-1.27.62,1.2,1.2,0,0,1-1.38-1.26c0-1,.9-1.55,2.52-1.55h0a0.86,0.86,0,0,0-.73-1h-0.22a2.08,2.08,0,0,0-1.09.31l-0.17-.5a2.6,2.6,0,0,1,1.37-.37,1.55,1.55,0,0,1,1.55,1.71v1.55a5.91,5.91,0,0,0,0,1h-0.68Zm-0.11-2.13c-0.82,0-1.77.12-1.77,0.95a0.67,0.67,0,0,0,.6.73h0.11a1,1,0,0,0,1-.7,0.79,0.79,0,0,0,0-.25V92.28h0Z" transform="translate(0 0)"/><path class="cls-2" d="M729.52,91.42a2.72,2.72,0,0,1-2.3,3.08l-0.4,0a2.67,2.67,0,0,1-2.63-2.72q0-.12,0-0.23a2.77,2.77,0,0,1,2.4-3.09l0.3,0A2.64,2.64,0,0,1,729.52,91.42Zm-4.51.09a1.93,1.93,0,1,0,1.87-2.43A2.08,2.08,0,0,0,725,91.34q0,0.1,0,.19Z" transform="translate(0 0)"/><path class="cls-2" d="M731.23,92.14h0l0.37-.48,1.23-1.45h0.89l-1.55,1.71L734,94.38h-0.92l-1.45-2-0.39.44v1.55H730.5V88.27h0.75v3.87h0Z" transform="translate(0 0)"/><path class="cls-2" d="M735.12,92.75V92.53a2,2,0,0,1,.53-1.55,1.9,1.9,0,0,0,.61-1.18,0.72,0.72,0,0,0-.67-0.75h-0.15a1.55,1.55,0,0,0-.87.26l-0.2-.54a2.27,2.27,0,0,1,1.23-.34A1.27,1.27,0,0,1,737,89.7a2.33,2.33,0,0,1-.75,1.55,1.71,1.71,0,0,0-.5,1.27v0.22h-0.67ZM734.93,94a0.51,0.51,0,0,1,.48-0.54h0a0.54,0.54,0,1,1-.51.57v0h0Z" transform="translate(0 0)"/><rect class="cls-3" x="791.46" y="82.54" width="34.31" height="18.64"/><path class="cls-2" d="M802.81,95.61V92L800.08,87h1.26l1.21,2.38c0.33,0.65.59,1.18,0.86,1.77h0c0.25-.56.54-1.12,0.87-1.77L805.52,87h1.27L803.9,92v3.67h-1.12Z" transform="translate(0 0)"/><path class="cls-2" d="M807.42,92.73a2,2,0,0,0,1.82,2.14h0.31a4.07,4.07,0,0,0,1.71-.33l0.19,0.81a5,5,0,0,1-2.05.39,2.88,2.88,0,0,1-3.11-3.11,3,3,0,0,1,2.64-3.32l0.27,0A2.63,2.63,0,0,1,811.75,92q0,0.12,0,.24a4.39,4.39,0,0,1,0,.53h-4.35Zm3.3-.81a1.55,1.55,0,0,0-1.55-1.83,1.87,1.87,0,0,0-1.73,1.83h3.28Z" transform="translate(0 0)"/><path class="cls-2" d="M813,94.46a3,3,0,0,0,1.55.45,1,1,0,0,0,1.2-.92,1.27,1.27,0,0,0-1.15-1.13A2,2,0,0,1,813,91.1a1.91,1.91,0,0,1,2-1.83h0.14a3.11,3.11,0,0,1,1.55.39l-0.28.82a2.41,2.41,0,0,0-1.26-.36,0.9,0.9,0,0,0-1,.84c0,0.51.37,0.75,1.18,1a1.9,1.9,0,1,1-.68,3.72,3.54,3.54,0,0,1-1.74-.42Z" transform="translate(0 0)"/><rect class="cls-3" x="517" y="82.54" width="34.31" height="18.64"/><path class="cls-2" d="M528.35,95.61V92L525.63,87h1.31l1.21,2.38c0.33,0.65.59,1.18,0.86,1.77h0c0.25-.56.54-1.12,0.87-1.77L531.12,87h1.26L529.48,92v3.67h-1.12Z" transform="translate(0 0)"/><path class="cls-2" d="M533,92.73a2,2,0,0,0,1.82,2.14h0.31a4.07,4.07,0,0,0,1.71-.33L537,95.36a5,5,0,0,1-2.05.39,2.88,2.88,0,0,1-3.11-3.11,3,3,0,0,1,2.64-3.32l0.27,0A2.63,2.63,0,0,1,537.3,92q0,0.12,0,.24a4.24,4.24,0,0,1,0,.53h-4.35Zm3.3-.81a1.55,1.55,0,0,0-1.55-1.83A1.87,1.87,0,0,0,533,91.92h3.28Z" transform="translate(0 0)"/><path class="cls-2" d="M538.58,94.46a3,3,0,0,0,1.55.45,1,1,0,0,0,1.2-.92,1.27,1.27,0,0,0-1.15-1.13,2,2,0,0,1-1.63-1.76,1.91,1.91,0,0,1,2-1.83h0.14a3.11,3.11,0,0,1,1.55.39l-0.28.82a2.41,2.41,0,0,0-1.26-.36,0.9,0.9,0,0,0-1,.75,0.89,0.89,0,0,0,0,.09c0,0.51.37,0.75,1.18,1a1.9,1.9,0,1,1-.68,3.72,3.55,3.55,0,0,1-1.74-.42Z" transform="translate(0 0)"/><rect class="cls-3" x="517" y="322.31" width="34.31" height="18.64"/><path class="cls-2" d="M528.35,335.37v-3.65l-2.72-5h1.31l1.21,2.38c0.33,0.65.59,1.18,0.86,1.77h0c0.25-.56.54-1.12,0.87-1.77l1.24-2.38h1.26l-2.89,4.94v3.67h-1.13Z" transform="translate(0 0)"/><path class="cls-2" d="M533,332.48a2,2,0,0,0,1.82,2.14h0.31a4.07,4.07,0,0,0,1.71-.33l0.19,0.81a5,5,0,0,1-2.05.39,2.88,2.88,0,0,1-3.11-3.11,3,3,0,0,1,2.64-3.32l0.27,0a2.63,2.63,0,0,1,2.57,2.69q0,0.12,0,.24a4.24,4.24,0,0,1,0,.53h-4.35Zm3.3-.81a1.55,1.55,0,0,0-1.55-1.83,1.87,1.87,0,0,0-1.73,1.83h3.28Z" transform="translate(0 0)"/><path class="cls-2" d="M538.58,334.24a3,3,0,0,0,1.55.45,1,1,0,0,0,1.2-.92,1.27,1.27,0,0,0-1.15-1.14,2,2,0,0,1-1.63-1.76,1.91,1.91,0,0,1,2-1.83h0.14a3.11,3.11,0,0,1,1.55.39l-0.28.82a2.41,2.41,0,0,0-1.26-.36,0.9,0.9,0,0,0-1,.75,0.89,0.89,0,0,0,0,.09c0,0.51.37,0.75,1.18,1a1.9,1.9,0,1,1-.68,3.72,3.55,3.55,0,0,1-1.74-.42Z" transform="translate(0 0)"/><rect class="cls-4" x="429.65" y="19.48" width="34.31" height="18.64"/><path class="cls-1" d="M440.08,32.61V23.93h1.21l2.77,4.35a24.46,24.46,0,0,1,1.55,2.8h0c-0.11-1.15-.12-2.19-0.12-3.54V23.93h1v8.68h-1.12l-2.74-4.37a27.51,27.51,0,0,1-1.55-2.88h0c0,1.09.09,2.13,0.09,3.56v3.68h-1.14Z" transform="translate(0 0)"/><path class="cls-1" d="M454,29.4a3.11,3.11,0,0,1-2.93,3.28h-0.18a2.94,2.94,0,0,1-3-2.9q0-.1,0-0.21a3,3,0,0,1,2.74-3.27h0.37a2.94,2.94,0,0,1,3,2.9Q454.05,29.3,454,29.4Zm-4.85.09a1.93,1.93,0,1,0,1.91-2.41,2.11,2.11,0,0,0-1.93,2.29S449.19,29.46,449.19,29.5Z" transform="translate(0 0)"/><rect class="cls-4" x="359.47" y="271.76" width="34.31" height="18.64"/><path class="cls-1" d="M369.9,284.84v-8.61h1.21l2.77,4.35a24.46,24.46,0,0,1,1.55,2.8h0c-0.11-1.15-.12-2.19-0.12-3.54v-3.61h1v8.61h-1.12l-2.74-4.37a27.51,27.51,0,0,1-1.55-2.88h0c0,1.09.09,2.13,0.09,3.56v3.68H369.9Z" transform="translate(0 0)"/><path class="cls-1" d="M383.89,281.68A3.11,3.11,0,0,1,381,285h-0.18a2.94,2.94,0,0,1-3-2.9q0-.1,0-0.21a3,3,0,0,1,2.74-3.27h0.37a2.94,2.94,0,0,1,3,2.9Q383.9,281.58,383.89,281.68Zm-4.91,0a1.93,1.93,0,1,0,1.8-2.33,2.11,2.11,0,0,0-1.84,2.36v0Z" transform="translate(0 0)"/><rect class="cls-4" x="204.31" y="90.38" width="34.31" height="18.64"/><path class="cls-1" d="M214.75,103.46V94.8H216l2.77,4.35a24.46,24.46,0,0,1,1.55,2.8h0c-0.11-1.15-.12-2.19-0.12-3.54V94.8h1v8.61H220.1L217.36,99a27.51,27.51,0,0,1-1.55-2.88h0c0,1.09.09,2.13,0.09,3.56v3.68h-1Z" transform="translate(0 0)"/><path class="cls-1" d="M228.71,100.3a3.11,3.11,0,0,1-2.93,3.28H225.6a2.94,2.94,0,0,1-3-2.9q0-.1,0-0.21a3,3,0,0,1,2.74-3.27h0.37a2.94,2.94,0,0,1,3,2.9Q228.72,100.2,228.71,100.3Zm-4.91,0a1.93,1.93,0,1,0,1.91-2.41,2.11,2.11,0,0,0-2,2.47Z" transform="translate(0 0)"/><rect class="cls-4" x="703.77" width="34.31" height="18.64"/><path class="cls-1" d="M714.21,13.08V4.45h1.21l2.75,4.37a24.33,24.33,0,0,1,1.55,2.8h0c-0.11-1.15-.12-2.19-0.12-3.54V4.45h1v8.61h-1.12l-2.74-4.37a27.22,27.22,0,0,1-1.55-2.88h0c0,1.09.09,2.13,0.09,3.56v3.68h-1Z" transform="translate(0 0)"/><path class="cls-1" d="M728.17,9.92a3.11,3.11,0,0,1-2.93,3.28h-0.18a2.94,2.94,0,0,1-3-2.9q0-.1,0-0.21a3,3,0,0,1,2.74-3.27h0.37a2.94,2.94,0,0,1,3,2.9Q728.17,9.82,728.17,9.92Zm-4.91,0a1.93,1.93,0,1,0,1.9-2.41,2.1,2.1,0,0,0-1.9,2.47V9.92Z" transform="translate(0 0)"/><rect class="cls-5" y="76.57" width="63.93" height="44.75"/><path class="cls-2" d="M11.27,102.84a6.22,6.22,0,0,1-2.55.45,4.51,4.51,0,0,1-4.77-4.88,4.8,4.8,0,0,1,4.53-5.07H9a5.18,5.18,0,0,1,2.29.44l-0.3,1A4.54,4.54,0,0,0,9,94.38a3.59,3.59,0,0,0-3.76,4A3.51,3.51,0,0,0,9,102.25a5,5,0,0,0,2-.4Z" transform="translate(0 0)"/><path class="cls-2" d="M12.78,93H14V97.3h0a2.33,2.33,0,0,1,.9-0.89,2.6,2.6,0,0,1,1.29-.36,2.52,2.52,0,0,1,2.43,3v4.12H17.43v-4a1.71,1.71,0,0,0-1.31-2l-0.24,0a1.82,1.82,0,0,0-1.69,1.26,1.55,1.55,0,0,0-.09.61v4.18H12.78V93Z" transform="translate(0 0)"/><path class="cls-2" d="M21.44,99.91a2.22,2.22,0,0,0,2,2.41h0.36a4.56,4.56,0,0,0,1.91-.36l0.22,0.9a5.61,5.61,0,0,1-2.3.44,3.22,3.22,0,0,1-3.4-3.5,3.37,3.37,0,0,1,3-3.73l0.27,0a2.94,2.94,0,0,1,2.88,3q0,0.13,0,.27a4.66,4.66,0,0,1,0,.59H21.44Zm3.7-.9a1.79,1.79,0,0,0-1.5-2L23.4,97A2.08,2.08,0,0,0,21.47,99h3.67Z" transform="translate(0 0)"/><path class="cls-2" d="M32.87,102.9a4.66,4.66,0,0,1-2,.4,3.3,3.3,0,0,1-3.45-3.54,3.53,3.53,0,0,1,3.36-3.69h0.37a4.21,4.21,0,0,1,1.74.36l-0.28,1a2.92,2.92,0,0,0-1.46-.33,2.61,2.61,0,0,0,0,5.21,3.59,3.59,0,0,0,1.55-.34Z" transform="translate(0 0)"/><path class="cls-2" d="M35.62,99.46h0c0.17-.25.42-0.54,0.62-0.79l2-2.39h1.55l-2.66,2.8,3.11,4.09H38.73l-2.39-3.33-0.72.72v2.61H34.38V93h1.24v6.47Z" transform="translate(0 0)"/><path class="cls-2" d="M47.34,99.63a3.39,3.39,0,0,1-3.08,3.67H43.89a3.3,3.3,0,0,1-3.34-3.25q0-.15,0-0.31a3.39,3.39,0,0,1,3.08-3.67H44A3.28,3.28,0,0,1,47.34,99.63Zm-5.5,0A2.16,2.16,0,1,0,44,96.94a2.36,2.36,0,0,0-2.16,2.55q0,0.1,0,.2V99.63Z" transform="translate(0 0)"/><path class="cls-2" d="M54.73,101.27v1.9H53.67V102h0a2.61,2.61,0,0,1-2.29,1.29c-1.09,0-2.39-.61-2.39-3.11V96.15h1.26V100c0,1.32.4,2.21,1.55,2.21a1.77,1.77,0,0,0,1.77-1.77V96.15h1.26v5Z" transform="translate(0 0)"/><path class="cls-2" d="M58.35,94.22v2h1.8v1h-1.8v3.75c0,0.86.25,1.35,0.95,1.35a2.83,2.83,0,0,0,.73-0.09v0.95a3.11,3.11,0,0,1-1.12.17,1.74,1.74,0,0,1-1.37-.53,2.57,2.57,0,0,1-.48-1.8V97.19H56v-1h1.07V94.57Z" transform="translate(0 0)"/><rect class="cls-5" x="587.13" y="69.48" width="63.93" height="44.75"/><path class="cls-2" d="M599.15,77.94a12.1,12.1,0,0,1,2.29-.2,4,4,0,0,1,2.66.7,2,2,0,0,1,.81,1.71,2.29,2.29,0,0,1-1.63,2.11h0a2.49,2.49,0,0,1,2,2.43,2.6,2.6,0,0,1-.82,1.93,4.85,4.85,0,0,1-3.34.9,14.52,14.52,0,0,1-1.93-.11v-9.5Zm1.24,3.95h1.17a1.79,1.79,0,0,0,2.08-1.44l0-.12c0-1.13-.86-1.55-2.11-1.55a5.33,5.33,0,0,0-1.1.09V82Zm0,4.66a6.61,6.61,0,0,0,1,0c1.29,0,2.47-.47,2.47-1.88s-1.14-1.87-2.49-1.87h-1v3.75Z" transform="translate(0 0)"/><path class="cls-2" d="M608.28,78.58a0.78,0.78,0,1,1-1.55,0,0.76,0.76,0,0,1,.73-0.79h0.06a0.75,0.75,0,0,1,.76.73S608.28,78.56,608.28,78.58Zm-1.4,8.88V80.53h1.26v6.93h-1.26Z" transform="translate(0 0)"/><path class="cls-2" d="M610.22,77.31h1.26V87.48h-1.26V77.31Z" transform="translate(0 0)"/><path class="cls-2" d="M613.61,77.31h1.26V87.48h-1.26V77.31Z" transform="translate(0 0)"/><path class="cls-2" d="M618.4,78.58a0.78,0.78,0,1,1-1.55,0,0.76,0.76,0,0,1,.73-0.79h0.06a0.75,0.75,0,0,1,.76.73S618.4,78.56,618.4,78.58ZM617,87.46V80.53h1.26v6.93H617Z" transform="translate(0 0)"/><path class="cls-2" d="M620.34,82.36V80.48h1.12v1.15h0a2.55,2.55,0,0,1,2.29-1.31,2.52,2.52,0,0,1,2.46,3v4.14h-1.26v-4a1.69,1.69,0,0,0-1.3-2l-0.26,0a1.85,1.85,0,0,0-1.77,1.88v4.17h-1.26V82.36h0Z" transform="translate(0 0)"/><path class="cls-2" d="M634.21,80.54v5.94a4,4,0,0,1-1,3.11,3.67,3.67,0,0,1-2.52.82,4.48,4.48,0,0,1-2.3-.58l0.31-1a3.9,3.9,0,0,0,2,.54A2.08,2.08,0,0,0,633,87V86.22h0a2.47,2.47,0,0,1-2.21,1.17,3.11,3.11,0,0,1-3-3.25s0-.08,0-0.12a3.33,3.33,0,0,1,2.94-3.67h0.17a2.3,2.3,0,0,1,2.16,1.2h0v-1h1.12v0.06Zm-1.31,2.74a1.79,1.79,0,0,0,0-.58,1.82,1.82,0,0,0-1.76-1.34A2.25,2.25,0,0,0,629.08,84a2.18,2.18,0,0,0,1.84,2.47l0.21,0a1.83,1.83,0,0,0,1.74-1.29,2.16,2.16,0,0,0,.11-0.67V83.28h-0.08Z" transform="translate(0 0)"/><path class="cls-2" d="M635.25,88.05l4-10.39h1l-4,10.39h-1Z" transform="translate(0 0)"/><path class="cls-2" d="M593,103.15a4.42,4.42,0,0,0,2.24.64,1.73,1.73,0,0,0,2-1.65c0-.9-0.51-1.41-1.82-1.91-1.55-.56-2.55-1.37-2.55-2.74a2.78,2.78,0,0,1,2.92-2.64l0.19,0a4.38,4.38,0,0,1,2.13.47l-0.34,1a3.84,3.84,0,0,0-1.83-.45,1.55,1.55,0,0,0-1.82,1.45c0,0.9.59,1.35,1.91,1.87,1.63,0.64,2.47,1.41,2.47,2.83s-1.1,2.78-3.39,2.78a5,5,0,0,1-2.46-.62Z" transform="translate(0 0)"/><path class="cls-2" d="M600.23,94.5h1.34v4.32h0a2.33,2.33,0,0,1,.9-0.89,2.6,2.6,0,0,1,1.29-.36,2.52,2.52,0,0,1,2.43,3v4.12h-1.26v-4a1.71,1.71,0,0,0-1.31-2l-0.24,0a1.82,1.82,0,0,0-1.69,1.26,1.55,1.55,0,0,0-.09.61v4.18h-1.26V94.5h-0.09Z" transform="translate(0 0)"/><path class="cls-2" d="M609.59,95.79a0.78,0.78,0,0,1-1.55,0,0.76,0.76,0,0,1,.73-0.79h0.06a0.75,0.75,0,0,1,.76.73S609.59,95.77,609.59,95.79Zm-1.4,8.88V97.74h1.26v6.93h-1.26Z" transform="translate(0 0)"/><path class="cls-2" d="M611.54,100V97.74h1.14v1.2h0a2.74,2.74,0,0,1,2.47-1.35,3.11,3.11,0,0,1,3,3.25q0,0.14,0,.28a3.28,3.28,0,0,1-2.8,3.7l-0.31,0a2.43,2.43,0,0,1-2.13-1.09h0v3.76h-1.24V100h-0.06Zm1.24,1.85a2.82,2.82,0,0,0,0,.51,1.94,1.94,0,0,0,1.9,1.48,2.71,2.71,0,0,0,0-5.26,2.21,2.21,0,0,0-2,2.07v1.2h0.11Z" transform="translate(0 0)"/><path class="cls-2" d="M619.69,100V97.74h1.14v1.2h0a2.74,2.74,0,0,1,2.47-1.35,3.11,3.11,0,0,1,3,3.25q0,0.14,0,.28a3.28,3.28,0,0,1-2.8,3.7l-0.31,0a2.43,2.43,0,0,1-2.13-1.09h0v3.76h-1.24V100h-0.06Zm1.24,1.85a2.82,2.82,0,0,0,0,.51,1.94,1.94,0,0,0,1.9,1.48,2.71,2.71,0,0,0,0-5.26,2.21,2.21,0,0,0-2,2.07v1.2h0.11Z" transform="translate(0 0)"/><path class="cls-2" d="M629.25,95.79a0.78,0.78,0,1,1-1.55,0,0.76,0.76,0,0,1,.73-0.79h0.06a0.75,0.75,0,0,1,.76.73S629.25,95.77,629.25,95.79Zm-1.4,8.88V97.74h1.26v6.93h-1.26Z" transform="translate(0 0)"/><path class="cls-2" d="M631.2,99.62V97.74h1.12v1.15h0a2.55,2.55,0,0,1,2.29-1.31,2.52,2.52,0,0,1,2.46,3v4.14h-1.29v-4a1.69,1.69,0,0,0-1.3-2l-0.26,0a1.85,1.85,0,0,0-1.77,1.88v4.17h-1.26V99.62h0Z" transform="translate(0 0)"/><path class="cls-2" d="M645.1,97.74v5.94a4,4,0,0,1-1,3.11,3.67,3.67,0,0,1-2.52.82,4.48,4.48,0,0,1-2.3-.58l0.31-1a3.9,3.9,0,0,0,2,.54,2.08,2.08,0,0,0,2.24-2.43v-0.78h0a2.47,2.47,0,0,1-2.21,1.17,3.11,3.11,0,0,1-3-3.25s0-.08,0-0.12a3.33,3.33,0,0,1,2.94-3.67h0.17a2.3,2.3,0,0,1,2.16,1.2h0v-1h1.12v0.06Zm-1.31,2.74a1.77,1.77,0,0,0,0-.58A1.82,1.82,0,0,0,642,98.56a2.25,2.25,0,0,0-2.07,2.63,2.18,2.18,0,0,0,1.84,2.47l0.21,0a1.83,1.83,0,0,0,1.74-1.29,2.16,2.16,0,0,0,.11-0.67v-1.24h-0.08Z" transform="translate(0 0)"/><rect class="cls-5" x="861.6" y="69.48" width="63.93" height="44.75"/><path class="cls-2" d="M879,77.93a14.47,14.47,0,0,1,2.44-.23,4,4,0,0,1,2.71.81,2.6,2.6,0,0,1,.84,2,2.85,2.85,0,0,1-.75,2.07,4,4,0,0,1-3,1.06,4.32,4.32,0,0,1-1-.09v3.87H879V77.88Zm1.24,4.66a4.2,4.2,0,0,0,1,.09,2.07,2.07,0,0,0,2.43-2.07,1.91,1.91,0,0,0-2.29-1.9,5.27,5.27,0,0,0-1.18.09v3.76Z" transform="translate(0 0)"/><path class="cls-2" d="M886.49,77.29h1.26V87.46h-1.26V77.29Z" transform="translate(0 0)"/><path class="cls-2" d="M893.72,87.48l-0.09-.87h0a2.58,2.58,0,0,1-2.11,1,2,2,0,0,1-2.11-1.83q0-.08,0-0.16c0-1.68,1.55-2.6,4.17-2.58V82.92a1.43,1.43,0,0,0-1.29-1.55H892a3.47,3.47,0,0,0-1.8.51l-0.28-.82a4.31,4.31,0,0,1,2.27-.62,2.46,2.46,0,0,1,2.64,2.83v2.6a9.87,9.87,0,0,0,.11,1.66H893.8Zm-0.19-3.56c-1.37,0-2.94.22-2.94,1.55a1.12,1.12,0,0,0,1,1.2h0.14a1.73,1.73,0,0,0,1.68-1.17,1.29,1.29,0,0,0,0-.4V83.92h0.08Z" transform="translate(0 0)"/><path class="cls-2" d="M901.73,87.21a4.66,4.66,0,0,1-2,.4,3.3,3.3,0,0,1-3.45-3.54,3.53,3.53,0,0,1,3.36-3.69H900a4.21,4.21,0,0,1,1.76.36l-0.28,1A2.92,2.92,0,0,0,900,81.4a2.61,2.61,0,0,0,0,5.21,3.58,3.58,0,0,0,1.55-.34Z" transform="translate(0 0)"/><path class="cls-2" d="M903.83,84.24a2.22,2.22,0,0,0,2,2.41h0.36a4.56,4.56,0,0,0,1.93-.36l0.22,0.9a5.6,5.6,0,0,1-2.3.44,3.22,3.22,0,0,1-3.4-3.5,3.37,3.37,0,0,1,3-3.73l0.27,0a2.94,2.94,0,0,1,2.88,3q0,0.13,0,.27a4.65,4.65,0,0,1,0,.59h-4.93Zm3.7-.9a1.79,1.79,0,0,0-1.5-2l-0.24,0a2.08,2.08,0,0,0-1.93,2.05h3.67Z" transform="translate(0 0)"/><path class="cls-2" d="M885.73,99.74c0,3.33-2,5.08-4.48,5.08a4.43,4.43,0,0,1-4.36-4.5q0-.2,0-0.4a4.66,4.66,0,0,1,4.17-5.11l0.34,0C884,94.8,885.73,96.88,885.73,99.74Zm-7.49.16c0,2.07,1.12,3.92,3.11,3.92s3.11-1.82,3.11-4c0-1.93-1-3.93-3.11-3.93s-3,1.91-3,4h-0.08Z" transform="translate(0 0)"/><path class="cls-2" d="M887.32,99.9V97.74h1.1v1.37h0a2.08,2.08,0,0,1,1.93-1.55,1.38,1.38,0,0,1,.36,0v1.2a1.87,1.87,0,0,0-.44,0,1.77,1.77,0,0,0-1.69,1.55,3.53,3.53,0,0,0,0,.59v3.7h-1.24V99.82Z" transform="translate(0 0)"/><path class="cls-2" d="M897.84,94.5v10.17h-1.13v-1.2h0a2.57,2.57,0,0,1-2.36,1.37,3.11,3.11,0,0,1-3-3.53,3.31,3.31,0,0,1,2.86-3.71l0.25,0a2.32,2.32,0,0,1,2.08,1.06h0V94.5h1.27Zm-1.26,6.06a2.24,2.24,0,0,0,0-.53,1.85,1.85,0,0,0-1.82-1.46,2.3,2.3,0,0,0-2.11,2.48q0,0.1,0,.19a2.21,2.21,0,0,0,1.82,2.54l0.24,0a1.9,1.9,0,0,0,1.85-1.55,2.22,2.22,0,0,0,0-.54v-1.15Z" transform="translate(0 0)"/><path class="cls-2" d="M900.64,101.44a2.22,2.22,0,0,0,2,2.41H903a4.56,4.56,0,0,0,1.93-.36l0.22,0.9a5.61,5.61,0,0,1-2.3.44,3.22,3.22,0,0,1-3.4-3.5,3.36,3.36,0,0,1,2.95-3.73l0.3,0a2.94,2.94,0,0,1,2.88,3q0,0.13,0,.27a4.65,4.65,0,0,1,0,.59h-4.93Zm3.7-.9a1.79,1.79,0,0,0-1.5-2l-0.24,0a2.08,2.08,0,0,0-1.93,2.05h3.67Z" transform="translate(0 0)"/><path class="cls-2" d="M907.12,99.9V97.74h1.1v1.37h0a2.08,2.08,0,0,1,1.93-1.55,1.4,1.4,0,0,1,.36,0v1.2a1.88,1.88,0,0,0-.44,0,1.77,1.77,0,0,0-1.69,1.55,3.53,3.53,0,0,0,0,.59v3.7h-1.24V99.82Z" transform="translate(0 0)"/><rect class="cls-1" x="971.44" y="67.57" width="48.59" height="48.59" transform="translate(226.69 730.99) rotate(-45)"/><path class="cls-2" d="M991,86.25a2.72,2.72,0,0,1-2.3,3.08l-0.4,0a2.67,2.67,0,0,1-2.63-2.72q0-.12,0-0.23a2.77,2.77,0,0,1,2.4-3.09l0.3,0A2.64,2.64,0,0,1,991,86.25Zm-4.51.09a1.93,1.93,0,1,0,1.87-2.43,2.08,2.08,0,0,0-1.9,2.25q0,0.09,0,.18h0Z" transform="translate(0 0)"/><path class="cls-2" d="M992,86.34V85h0.67v0.82h0a1.26,1.26,0,0,1,1.15-.92H994v0.72h-0.26a1.06,1.06,0,0,0-1,1,2,2,0,0,0,0,.36v2.22H992V86.34h0Z" transform="translate(0 0)"/><path class="cls-2" d="M998.31,83.09v6.13h-0.68V88.49h0a1.55,1.55,0,0,1-1.43.82,1.91,1.91,0,0,1-1.8-2s0-.07,0-0.11A2,2,0,0,1,996.17,85h0.13a1.4,1.4,0,0,1,1.26.64h0V83.09h0.76Zm-0.76,3.65a1.35,1.35,0,0,0,0-.33,1.12,1.12,0,0,0-1.07-.95A1.38,1.38,0,0,0,995.21,87V87a1.34,1.34,0,0,0,1.1,1.54l0.13,0a1.14,1.14,0,0,0,1.12-.9,1.32,1.32,0,0,0,0-.33V86.62Z" transform="translate(0 0)"/><path class="cls-2" d="M1000,87.26a1.34,1.34,0,0,0,1.22,1.44h0.21a2.75,2.75,0,0,0,1.15-.22L1002.7,89a3.36,3.36,0,0,1-1.38.26,1.94,1.94,0,0,1-2.05-2.11,2,2,0,0,1,1.81-2.24h0.15a1.77,1.77,0,0,1,1.74,1.81q0,0.08,0,.17a3.12,3.12,0,0,1,0,.36H1000Zm2.22-.54a1.09,1.09,0,0,0-.92-1.23h-0.15A1.26,1.26,0,0,0,1000,86.7h2.22Z" transform="translate(0 0)"/><path class="cls-2" d="M1003.91,86.34V85h0.67v0.82h0a1.26,1.26,0,0,1,1.15-.92h0.22v0.72h-0.26a1.06,1.06,0,0,0-1,1,2,2,0,0,0,0,.36v2.22h-0.75V86.34h0Z" transform="translate(0 0)"/><path class="cls-2" d="M994.29,96.62A2.72,2.72,0,0,1,992,99.7l-0.4,0A2.67,2.67,0,0,1,989,97q0-.12,0-0.23a2.77,2.77,0,0,1,2.4-3.09l0.3,0A2.64,2.64,0,0,1,994.29,96.62Zm-4.51.09a1.93,1.93,0,1,0,1.87-2.43,2.08,2.08,0,0,0-1.89,2.26Q989.76,96.63,989.78,96.71Z" transform="translate(0 0)"/><path class="cls-2" d="M995.28,93.77H996v2.81h0l0.45-.62,1.77-2.19h0.93l-2.1,2.47,2.27,3.36H998.5l-1.91-2.86-0.56.64V99.6h-0.75V93.77Z" transform="translate(0 0)"/><path class="cls-2" d="M1000.52,97.91V97.69a2,2,0,0,1,.53-1.55,1.9,1.9,0,0,0,.61-1.18,0.72,0.72,0,0,0-.67-0.75h-0.15a1.55,1.55,0,0,0-.87.26l-0.2-.54a2.27,2.27,0,0,1,1.23-.34,1.27,1.27,0,0,1,1.45,1.27,2.33,2.33,0,0,1-.75,1.55,1.71,1.71,0,0,0-.5,1.27v0.22h-0.67Zm-0.19,1.21a0.51,0.51,0,0,1,.48-0.54h0a0.54,0.54,0,1,1-.51.58v0Z" transform="translate(0 0)"/><rect class="cls-3" x="1065.92" y="82.54" width="34.31" height="18.64"/><path class="cls-2" d="M1077.33,95.61V92L1074.54,87h1.23L1077,89.4c0.33,0.65.59,1.18,0.86,1.77h0c0.25-.56.54-1.12,0.87-1.77L1080,87h1.26L1078.32,92v3.67h-1v0Z" transform="translate(0 0)"/><path class="cls-2" d="M1081.88,92.73a2,2,0,0,0,1.82,2.14H1084a4.07,4.07,0,0,0,1.71-.33l0.19,0.81a5,5,0,0,1-2.05.39,2.88,2.88,0,0,1-3.11-3.11,3,3,0,0,1,2.64-3.32l0.27,0a2.63,2.63,0,0,1,2.57,2.69q0,0.12,0,.24a4.39,4.39,0,0,1,0,.53h-4.35Zm3.3-.81a1.55,1.55,0,0,0-1.55-1.83,1.87,1.87,0,0,0-1.73,1.83h3.28Z" transform="translate(0 0)"/><path class="cls-2" d="M1087.51,94.46a3,3,0,0,0,1.55.45,1,1,0,0,0,1.2-.92,1.27,1.27,0,0,0-1.15-1.13,2,2,0,0,1-1.63-1.76,1.91,1.91,0,0,1,2-1.83h0.14a3.11,3.11,0,0,1,1.55.39l-0.28.82a2.41,2.41,0,0,0-1.26-.36,0.9,0.9,0,0,0-1,.84c0,0.51.37,0.75,1.18,1a1.9,1.9,0,1,1-.68,3.72,3.54,3.54,0,0,1-1.74-.42Z" transform="translate(0 0)"/><rect class="cls-5" x="1136.07" y="69.48" width="63.93" height="44.75"/><path class="cls-2" d="M1147.67,77.94a13,13,0,0,1,2.39-.2,4,4,0,0,1,2.8.79,2.41,2.41,0,0,1,.76,1.83,2.53,2.53,0,0,1-1.82,2.46h0a2.41,2.41,0,0,1,1.41,1.94,15.35,15.35,0,0,0,.75,2.66h-1.29a12.56,12.56,0,0,1-.65-2.3,1.88,1.88,0,0,0-1.88-1.88h-1.29v4.18h-1.24V77.9Zm1.18,4.42h1.27a1.9,1.9,0,0,0,2.18-1.83,1.87,1.87,0,0,0-1.89-1.84l-0.33,0a5.1,5.1,0,0,0-1.23.11v3.53h0Z" transform="translate(0 0)"/><path class="cls-2" d="M1156.09,84.24a2.22,2.22,0,0,0,2,2.41h0.36a4.56,4.56,0,0,0,1.93-.36l0.22,0.9a5.6,5.6,0,0,1-2.3.44,3.22,3.22,0,0,1-3.4-3.5,3.37,3.37,0,0,1,3-3.73l0.27,0a2.94,2.94,0,0,1,2.88,3q0,0.13,0,.27a4.65,4.65,0,0,1,0,.59h-4.93Zm3.7-.9a1.79,1.79,0,0,0-1.5-2l-0.24,0a2.08,2.08,0,0,0-1.93,2.05h3.67Z" transform="translate(0 0)"/><path class="cls-2" d="M1163.06,80.54l1.37,3.9a17.73,17.73,0,0,1,.56,1.77h0c0.16-.58.36-1.15,0.59-1.77l1.35-3.9h1.32l-2.72,6.93h-1.13l-2.64-6.93h1.31Z" transform="translate(0 0)"/><path class="cls-2" d="M1170.86,78.58a0.78,0.78,0,0,1-1.55,0,0.76,0.76,0,0,1,.73-0.79h0.06a0.75,0.75,0,0,1,.76.73S1170.86,78.56,1170.86,78.58Zm-1.4,8.88V80.53h1.26v6.93h-1.26Z" transform="translate(0 0)"/><path class="cls-2" d="M1173.52,84.24a2.22,2.22,0,0,0,2,2.41h0.36a4.56,4.56,0,0,0,1.93-.36l0.22,0.9a5.6,5.6,0,0,1-2.3.44,3.22,3.22,0,0,1-3.4-3.5,3.37,3.37,0,0,1,3-3.73l0.27,0a2.94,2.94,0,0,1,2.88,3q0,0.13,0,.27a4.65,4.65,0,0,1,0,.59h-4.93Zm3.7-.9a1.79,1.79,0,0,0-1.5-2l-0.24,0a2.08,2.08,0,0,0-1.93,2.05h3.67Z" transform="translate(0 0)"/><path class="cls-2" d="M1180.5,80.54l0.92,3.53c0.2,0.78.39,1.55,0.51,2.21h0c0.16-.7.39-1.45,0.62-2.19l1.13-3.54h1.06l1.07,3.47c0.26,0.82.45,1.55,0.62,2.27h0A21.07,21.07,0,0,1,1187,84l1-3.48h1.31L1187,87.48h-1.15l-1.06-3.31a22.76,22.76,0,0,1-.62-2.29h0a20.59,20.59,0,0,1-.64,2.29l-1.12,3.3h-1.15l-2.1-6.93h1.29Z" transform="translate(0 0)"/><path class="cls-2" d="M1160.2,99.74c0,3.33-2,5.08-4.48,5.08a4.43,4.43,0,0,1-4.36-4.5q0-.2,0-0.4a4.66,4.66,0,0,1,4.24-5.05h0.24C1158.49,94.8,1160.2,96.88,1160.2,99.74Zm-7.49.16c0,2.07,1.12,3.92,3.11,3.92s3.11-1.82,3.11-4c0-1.93-1-3.93-3.11-3.93S1152.7,97.78,1152.7,99.9Z" transform="translate(0 0)"/><path class="cls-2" d="M1161.77,99.9V97.74h1.07v1.37h0a2.08,2.08,0,0,1,1.93-1.55,1.4,1.4,0,0,1,.36,0v1.2a1.88,1.88,0,0,0-.44,0,1.77,1.77,0,0,0-1.69,1.55,3.53,3.53,0,0,0,0,.59v3.7h-1.24V99.82Z" transform="translate(0 0)"/><path class="cls-2" d="M1172.31,94.5v10.17h-1.07v-1.2h0a2.57,2.57,0,0,1-2.36,1.37,3.11,3.11,0,0,1-3-3.53,3.31,3.31,0,0,1,2.86-3.71l0.25,0a2.32,2.32,0,0,1,2.08,1.06h0V94.5h1.21Zm-1.26,6.06a2.24,2.24,0,0,0,0-.53,1.85,1.85,0,0,0-1.82-1.46,2.3,2.3,0,0,0-2.11,2.48q0,0.1,0,.19a2.21,2.21,0,0,0,1.82,2.54l0.24,0a1.9,1.9,0,0,0,1.85-1.55,2.22,2.22,0,0,0,0-.54v-1.15Z" transform="translate(0 0)"/><path class="cls-2" d="M1175.11,101.44a2.22,2.22,0,0,0,2,2.41h0.36a4.56,4.56,0,0,0,1.93-.36l0.22,0.9a5.61,5.61,0,0,1-2.3.44,3.22,3.22,0,0,1-3.4-3.5,3.36,3.36,0,0,1,2.95-3.73l0.3,0a2.94,2.94,0,0,1,2.88,3q0,0.13,0,.27a4.65,4.65,0,0,1,0,.59h-4.93Zm3.7-.9a1.79,1.79,0,0,0-1.5-2l-0.24,0a2.08,2.08,0,0,0-1.93,2.05h3.67Z" transform="translate(0 0)"/><path class="cls-2" d="M1181.58,99.9V97.74h1.1v1.37h0a2.08,2.08,0,0,1,1.93-1.55,1.38,1.38,0,0,1,.36,0v1.2a1.87,1.87,0,0,0-.44,0,1.77,1.77,0,0,0-1.69,1.55,3.53,3.53,0,0,0,0,.59v3.7h-1.24V99.82Z" transform="translate(0 0)"/><rect class="cls-1" x="284.52" y="167.97" width="48.59" height="48.59" transform="translate(-45.5 274.68) rotate(-45)"/><path class="cls-2" d="M293.42,178.76a10.76,10.76,0,0,1,1.55-.12,3.33,3.33,0,0,1,2.36.73,2.67,2.67,0,0,1,.82,2.08,3.11,3.11,0,0,1-.84,2.27,3.59,3.59,0,0,1-2.58.84,12.11,12.11,0,0,1-1.37,0v-5.8h0Zm0.75,5.15a4.66,4.66,0,0,0,.76,0,2.24,2.24,0,0,0,2.47-2.47,2.08,2.08,0,0,0-2.36-2.24,4.26,4.26,0,0,0-.89.08v4.66Z" transform="translate(0 0)"/><path class="cls-2" d="M303,182.3a2,2,0,0,1-1.84,2.22H301a2,2,0,0,1-2-2q0-.09,0-0.18a2,2,0,0,1,1.84-2.22H301A2,2,0,0,1,303,182.3Zm-3.31,0a1.31,1.31,0,1,0,1.29-1.55,1.41,1.41,0,0,0-1.37,1.6Z" transform="translate(0 0)"/><path class="cls-2" d="M304.37,182.47a1.34,1.34,0,0,0,1.22,1.44h0.21a2.75,2.75,0,0,0,1.15-.22l0.12,0.54a3.37,3.37,0,0,1-1.38.26,1.94,1.94,0,0,1-2.05-2.11,2,2,0,0,1,1.81-2.24h0.15a1.77,1.77,0,0,1,1.74,1.81q0,0.08,0,.17a2.77,2.77,0,0,1,0,.36h-3Zm2.22-.54a1.09,1.09,0,0,0-.94-1.22h-0.12a1.26,1.26,0,0,0-1.17,1.23h2.22Z" transform="translate(0 0)"/><path class="cls-2" d="M308.16,183.64a2,2,0,0,0,1,.3,0.67,0.67,0,0,0,.81-0.62,0.86,0.86,0,0,0-.78-0.76,1.34,1.34,0,0,1-1.1-1.18,1.29,1.29,0,0,1,1.34-1.24h0.1a2.08,2.08,0,0,1,1,.26l-0.19.56a1.55,1.55,0,0,0-.86-0.25,0.61,0.61,0,0,0-.7.58,0.88,0.88,0,0,0,.79.72,1.28,1.28,0,0,1-.47,2.52,2.38,2.38,0,0,1-1.18-.28Z" transform="translate(0 0)"/><path class="cls-2" d="M314.44,179v1.27h1v0.58h-1.09v2.25c0,0.51.14,0.81,0.58,0.81a1.65,1.65,0,0,0,.44,0v0.58a1.85,1.85,0,0,1-.67.11,1.06,1.06,0,0,1-.82-0.33,1.55,1.55,0,0,1-.3-1.09v-2.29H313v-0.62h0.65v-1Z" transform="translate(0 0)"/><path class="cls-2" d="M316.38,178.29h0.76v2.61h0a1.41,1.41,0,0,1,.54-0.53,1.53,1.53,0,0,1,2.24,1.57v2.49h-0.76V182a1,1,0,0,0-.78-1.22l-0.18,0a1.09,1.09,0,0,0-1,.76,0.92,0.92,0,0,0,0,.36v2.52h-0.76v-6.13h0Z" transform="translate(0 0)"/><path class="cls-2" d="M321.61,182.47a1.34,1.34,0,0,0,1.22,1.44H323a2.75,2.75,0,0,0,1.15-.22l0.12,0.54a3.37,3.37,0,0,1-1.38.26,1.94,1.94,0,0,1-2.05-2.11,2,2,0,0,1,1.81-2.24h0.15a1.77,1.77,0,0,1,1.74,1.81q0,0.08,0,.17a2.77,2.77,0,0,1,0,.36h-3Zm2.22-.54a1.09,1.09,0,0,0-.94-1.22h-0.12a1.26,1.26,0,0,0-1.17,1.23h2.22Z" transform="translate(0 0)"/><path class="cls-2" d="M290.31,193.65v1.13h-0.64V194.1h0a1.53,1.53,0,0,1-2.83-1.06V190.6h0.65v2.32c0,0.79.25,1.34,0.93,1.34a0.89,0.89,0,0,0,1-1.07v-2.57h0.76v3.11Z" transform="translate(0 0)"/><path class="cls-2" d="M291.48,194a2,2,0,0,0,1,.3,0.67,0.67,0,0,0,.81-0.62,0.86,0.86,0,0,0-.78-0.76,1.34,1.34,0,0,1-1.1-1.18,1.29,1.29,0,0,1,1.34-1.24h0.1a2.08,2.08,0,0,1,1,.26l-0.19.56a1.55,1.55,0,0,0-.86-0.25,0.61,0.61,0,0,0-.7.58,0.88,0.88,0,0,0,.79.72,1.28,1.28,0,0,1-.47,2.52h0a2.38,2.38,0,0,1-1.18-.28Z" transform="translate(0 0)"/><path class="cls-2" d="M295.43,192.84a1.34,1.34,0,0,0,1.22,1.44h0.21a2.75,2.75,0,0,0,1.15-.22l0.12,0.54a3.37,3.37,0,0,1-1.38.26,1.94,1.94,0,0,1-2.05-2.11,2,2,0,0,1,1.81-2.24h0.15a1.77,1.77,0,0,1,1.74,1.81q0,0.08,0,.17a2.77,2.77,0,0,1,0,.36h-3Zm2.22-.54a1.09,1.09,0,0,0-.94-1.22h-0.12a1.26,1.26,0,0,0-1.17,1.23h2.22Z" transform="translate(0 0)"/><path class="cls-2" d="M299.34,191.93v-1.31h0.59v0.82h0a1.26,1.26,0,0,1,1.15-.92h0.22v0.67H301a1.06,1.06,0,0,0-1,1,2.11,2.11,0,0,0,0,.36v2.22h-0.75v-2.88Z" transform="translate(0 0)"/><path class="cls-2" d="M304,188.66h0.76v2.61h0a1.41,1.41,0,0,1,.54-0.53,1.53,1.53,0,0,1,2.24,1.57v2.49h-0.76v-2.39a1,1,0,0,0-.78-1.22l-0.18,0a1.09,1.09,0,0,0-1,.76,0.92,0.92,0,0,0,0,.36v2.52H304v-6.13Z" transform="translate(0 0)"/><path class="cls-2" d="M311.11,194.8v-0.53h0a1.55,1.55,0,0,1-1.27.62,1.2,1.2,0,0,1-1.27-1.12s0-.05,0-0.08c0-1,.9-1.55,2.52-1.55v-0.09a0.86,0.86,0,0,0-.73-1h-0.22a2.08,2.08,0,0,0-1.09.31l-0.17-.5a2.6,2.6,0,0,1,1.37-.37,1.55,1.55,0,0,1,1.55,1.71v1.55a5.91,5.91,0,0,0,0,1h-0.68v0ZM311,192.67c-0.82,0-1.77.12-1.77,0.95a0.67,0.67,0,0,0,.6.73h0.11a1,1,0,0,0,1-.7,0.79,0.79,0,0,0,0-.25v-0.73h0Z" transform="translate(0 0)"/><path class="cls-2" d="M313.18,190.62L314,193a10.64,10.64,0,0,1,.34,1.07h0c0.09-.34.22-0.68,0.36-1.07l0.81-2.35h0.79l-1.65,4.18h-0.73l-1.55-4.18h0.81Z" transform="translate(0 0)"/><path class="cls-2" d="M317.39,192.84a1.34,1.34,0,0,0,1.22,1.44h0.21a2.75,2.75,0,0,0,1.15-.22l0.12,0.54a3.37,3.37,0,0,1-1.38.26,1.94,1.94,0,0,1-2.05-2.11,2,2,0,0,1,1.81-2.24h0.15a1.77,1.77,0,0,1,1.74,1.81q0,0.08,0,.17a2.77,2.77,0,0,1,0,.36h-3Zm2.22-.54a1.09,1.09,0,0,0-.94-1.22h-0.12a1.26,1.26,0,0,0-1.17,1.23h2.22Z" transform="translate(0 0)"/><path class="cls-2" d="M325.45,194.8v-0.53h0a1.55,1.55,0,0,1-1.27.62,1.2,1.2,0,0,1-1.27-1.12s0-.05,0-0.08c0-1,.9-1.55,2.52-1.55v-0.09a0.86,0.86,0,0,0-.73-1h-0.22a2.08,2.08,0,0,0-1.09.31l-0.17-.5a2.6,2.6,0,0,1,1.37-.37,1.55,1.55,0,0,1,1.55,1.71v1.55a5.91,5.91,0,0,0,0,1h-0.68v0Zm-0.11-2.13c-0.82,0-1.77.12-1.77,0.95a0.67,0.67,0,0,0,.6.73h0.11a1,1,0,0,0,1-.7,0.79,0.79,0,0,0,0-.25v-0.73h0Z" transform="translate(0 0)"/><path class="cls-2" d="M327.3,191.76v-1.13h0.62v0.68h0a1.54,1.54,0,0,1,2.86,1v2.49H330.1v-2.41a1,1,0,0,0-.8-1.21l-0.16,0a1.12,1.12,0,0,0-1.07,1.13v2.52H327.3v-3Z" transform="translate(0 0)"/><path class="cls-2" d="M295.55,205.19v-0.53h0a1.55,1.55,0,0,1-1.27.62,1.2,1.2,0,0,1-1.27-1.12s0-.05,0-0.08c0-1,.9-1.55,2.52-1.55v-0.09a0.86,0.86,0,0,0-.73-1h-0.22a2.08,2.08,0,0,0-1.09.31l-0.17-.5a2.6,2.6,0,0,1,1.37-.37,1.55,1.55,0,0,1,1.55,1.71v1.55a5.91,5.91,0,0,0,0,1h-0.68v0Zm-0.11-2.13c-0.82,0-1.77.12-1.77,0.95a0.67,0.67,0,0,0,.6.73h0.11a1,1,0,0,0,1-.7,0.79,0.79,0,0,0,0-.25v-0.73h0Z" transform="translate(0 0)"/><path class="cls-2" d="M300.37,205a2.8,2.8,0,0,1-1.2.25,2,2,0,0,1-2.08-2.13,2.13,2.13,0,0,1,2-2.22h0.21a2.55,2.55,0,0,1,1.06.22l-0.17.59a1.76,1.76,0,0,0-.89-0.2,1.55,1.55,0,1,0,0,3.11,2.16,2.16,0,0,0,.93-0.2Z" transform="translate(0 0)"/><path class="cls-2" d="M304.19,205a2.8,2.8,0,0,1-1.2.25,2,2,0,0,1-2.08-2.13,2.13,2.13,0,0,1,2-2.22h0.21a2.55,2.55,0,0,1,1.06.22l-0.17.59a1.76,1.76,0,0,0-.89-0.2,1.55,1.55,0,1,0,0,3.11,2.16,2.16,0,0,0,.93-0.2Z" transform="translate(0 0)"/><path class="cls-2" d="M308.83,203a2,2,0,0,1-1.84,2.22h-0.24a2,2,0,0,1-2-2q0-.09,0-0.18a2,2,0,0,1,1.84-2.22h0.23A2,2,0,0,1,308.83,203Zm-3.31,0a1.31,1.31,0,1,0,1.29-1.55,1.41,1.41,0,0,0-1.32,1.51s0,0.06,0,.09Z" transform="translate(0 0)"/><path class="cls-2" d="M313.29,204v1.13h-0.67v-0.68h0a1.53,1.53,0,0,1-2.83-1.06V201h0.76v2.32c0,0.79.25,1.34,0.93,1.34a0.89,0.89,0,0,0,1-1.07V201h0.76v3.11Z" transform="translate(0 0)"/><path class="cls-2" d="M314.55,202.08v-1.13h0.67v0.68h0a1.54,1.54,0,0,1,2.86,1v2.58h-0.73v-2.41a1,1,0,0,0-.8-1.21l-0.16,0a1.12,1.12,0,0,0-1.07,1.13v2.5h-0.76v-3.11Z" transform="translate(0 0)"/><path class="cls-2" d="M320.22,199.79V201h1.09v0.58h-1.09v2.25c0,0.51.14,0.81,0.58,0.81a1.69,1.69,0,0,0,.44,0v0.58a1.85,1.85,0,0,1-.67.11,1.06,1.06,0,0,1-.82-0.33,1.55,1.55,0,0,1-.3-1.09v-2.29h-0.65V201h0.65v-1Z" transform="translate(0 0)"/><path class="cls-2" d="M322.76,203.52v-0.22a2,2,0,0,1,.53-1.55,1.9,1.9,0,0,0,.61-1.18,0.72,0.72,0,0,0-.67-0.75h-0.15a1.55,1.55,0,0,0-.87.26l-0.2-.54a2.27,2.27,0,0,1,1.23-.34,1.27,1.27,0,0,1,1.45,1.27,2.33,2.33,0,0,1-.75,1.55,1.71,1.71,0,0,0-.5,1.27v0.22h-0.67Zm-0.19,1.21a0.51,0.51,0,0,1,.48-0.54h0a0.54,0.54,0,1,1-.51.57v0h0Z" transform="translate(0 0)"/><rect class="cls-3" x="379.01" y="182.94" width="34.31" height="18.64"/><path class="cls-2" d="M390.36,196v-3.65l-2.72-5h1.26l1.21,2.38c0.33,0.65.59,1.18,0.86,1.77h0c0.25-.56.54-1.12,0.87-1.77l1.24-2.38h1.26l-2.89,4.94V196h-1.09Z" transform="translate(0 0)"/><path class="cls-2" d="M395,193.12a2,2,0,0,0,1.82,2.14h0.31a4.07,4.07,0,0,0,1.71-.33l0.19,0.81a5,5,0,0,1-2.05.39,2.88,2.88,0,0,1-3.11-3.11,3,3,0,0,1,2.59-3.36l0.37,0a2.63,2.63,0,0,1,2.57,2.69q0,0.12,0,.24a4.24,4.24,0,0,1,0,.53H395Zm3.3-.81a1.55,1.55,0,0,0-1.55-1.83,1.87,1.87,0,0,0-1.73,1.83h3.28Z" transform="translate(0 0)"/><path class="cls-2" d="M400.59,194.86a3,3,0,0,0,1.55.45,1,1,0,0,0,1.2-.92,1.27,1.27,0,0,0-1.15-1.13,2,2,0,0,1-1.63-1.76,1.91,1.91,0,0,1,2-1.87h0a3.11,3.11,0,0,1,1.55.39l-0.28.82a2.41,2.41,0,0,0-1.26-.36,0.9,0.9,0,0,0-1,.75,0.89,0.89,0,0,0,0,.09c0,0.51.37,0.75,1.18,1a1.9,1.9,0,1,1-.68,3.72,3.55,3.55,0,0,1-1.74-.42Z" transform="translate(0 0)"/><rect class="cls-3" x="116.97" y="0.84" width="34.31" height="18.64"/><path class="cls-2" d="M128.33,13.95V10.26l-2.72-5h1.26l1.21,2.43c0.33,0.65.59,1.18,0.86,1.77h0c0.25-.56.54-1.12,0.87-1.77l1.24-2.38h1.26l-2.89,4.94v3.65h-1.09Z" transform="translate(0 0)"/><path class="cls-2" d="M132.93,11a2,2,0,0,0,2.19,2.15,4.07,4.07,0,0,0,1.71-.33L137,13.65A5,5,0,0,1,135,14a2.88,2.88,0,0,1-3.11-3.11,3,3,0,0,1,2.64-3.32l0.27,0a2.63,2.63,0,0,1,2.57,2.69q0,0.12,0,.24a4.23,4.23,0,0,1,0,.53H133Zm3.3-.81a1.55,1.55,0,0,0-1.55-1.83,1.87,1.87,0,0,0-1.73,1.83h3.28Z" transform="translate(0 0)"/><path class="cls-2" d="M138.56,12.77a3,3,0,0,0,1.55.45,1,1,0,0,0,1.2-.92,1.27,1.27,0,0,0-1.15-1.13,2,2,0,0,1-1.63-1.76,1.91,1.91,0,0,1,2-1.83h0.14a3.11,3.11,0,0,1,1.55.39l-0.28.82a2.41,2.41,0,0,0-1.26-.36,0.9,0.9,0,0,0-1,.84c0,0.51.37,0.75,1.18,1a1.9,1.9,0,1,1-.68,3.72,3.54,3.54,0,0,1-1.9-.42Z" transform="translate(0 0)"/><rect class="cls-5" x="276.85" y="77.34" width="63.93" height="44.75"/><path class="cls-2" d="M291.52,85.66h1.24v8.61h4.06v1h-5.38V85.66h0.08Z" transform="translate(0 0)"/><path class="cls-2" d="M304.32,91.78a3.39,3.39,0,0,1-3.08,3.67h-0.37a3.3,3.3,0,0,1-3.34-3.25q0-.15,0-0.31a3.39,3.39,0,0,1,3.08-3.67H301A3.28,3.28,0,0,1,304.32,91.78Zm-5.5,0a2.16,2.16,0,1,0,2.13-2.69,2.36,2.36,0,0,0-2.16,2.55q0,0.11,0,.22V91.78Z" transform="translate(0 0)"/><path class="cls-2" d="M311.89,88.38v5.94a4,4,0,0,1-1,3.11,3.67,3.67,0,0,1-2.52.82,4.48,4.48,0,0,1-2.3-.58l0.31-1a3.9,3.9,0,0,0,2,.54,2.08,2.08,0,0,0,2.24-2.43V94.05h0a2.47,2.47,0,0,1-2.21,1.17,3.11,3.11,0,0,1-3-3.25s0-.08,0-0.12a3.33,3.33,0,0,1,2.94-3.67h0.17a2.3,2.3,0,0,1,2.16,1.2h0v-1h1.1Zm-1.31,2.74a1.85,1.85,0,0,0-1.79-1.91h0a2.25,2.25,0,0,0-2.07,2.63,2.18,2.18,0,0,0,1.84,2.47l0.21,0A1.85,1.85,0,0,0,310.48,93a2.21,2.21,0,0,0,.09-0.67V91.11h0Z" transform="translate(0 0)"/><path class="cls-2" d="M318.36,86.43a0.78,0.78,0,0,1-1.55,0,0.76,0.76,0,0,1,.73-0.79h0.06a0.75,0.75,0,0,1,.76.73S318.36,86.41,318.36,86.43ZM317,95.31V88.38h1.26v6.93H317Z" transform="translate(0 0)"/><path class="cls-2" d="M320.32,90.26V88.38h1.12v1.15h0a2.55,2.55,0,0,1,2.29-1.31,2.52,2.52,0,0,1,2.46,3v4.14h-1.26v-4a1.69,1.69,0,0,0-1.3-2l-0.26,0a1.79,1.79,0,0,0-1.69,1.29,1.82,1.82,0,0,0-.09.59v4.17h-1.26V90.26h0Z" transform="translate(0 0)"/><path class="cls-2" d="M294.74,107.84v-2.27h1.13v1.18h0a2.72,2.72,0,0,1,2.46-1.35,3.11,3.11,0,0,1,3,3.25q0,0.14,0,.28a3.28,3.28,0,0,1-2.8,3.7l-0.31,0a2.43,2.43,0,0,1-2.13-1.09h0v3.76h-1.24v-7.51Zm1.24,1.85a2.83,2.83,0,0,0,0,.51,1.94,1.94,0,0,0,1.9,1.48,2.71,2.71,0,0,0,0-5.26A2,2,0,0,0,296,108a2.07,2.07,0,0,0-.09.51v1.2H296Z" transform="translate(0 0)"/><path class="cls-2" d="M306.74,112.51l-0.09-.87h0a2.58,2.58,0,0,1-2.11,1,2,2,0,0,1-2.11-1.83q0-.08,0-0.16c0-1.68,1.55-2.6,4.17-2.58V108a1.43,1.43,0,0,0-1.29-1.55H305a3.45,3.45,0,0,0-1.8.51l-0.28-.82a4.31,4.31,0,0,1,2.29-.62,2.46,2.46,0,0,1,2.64,2.83v2.6a9.78,9.78,0,0,0,.11,1.66h-1.15ZM306.56,109c-1.37,0-2.94.22-2.94,1.55a1.12,1.12,0,0,0,1,1.2h0.14a1.73,1.73,0,0,0,1.68-1.17,1.34,1.34,0,0,0,0-.4v-1.2Z" transform="translate(0 0)"/><path class="cls-2" d="M315.78,105.57v5.94a4,4,0,0,1-1,3.11,3.67,3.67,0,0,1-2.52.82,4.48,4.48,0,0,1-2.3-.58l0.31-1a3.9,3.9,0,0,0,2,.54,2.08,2.08,0,0,0,2.24-2.43v-0.78h0a2.47,2.47,0,0,1-2.21,1.17,3.11,3.11,0,0,1-3-3.25s0-.08,0-0.12a3.33,3.33,0,0,1,2.94-3.67h0.17a2.3,2.3,0,0,1,2.16,1.2h0v-1h1.1Zm-1.31,2.74a1.85,1.85,0,0,0-1.79-1.91h0a2.25,2.25,0,0,0-2.07,2.63,2.18,2.18,0,0,0,1.84,2.47l0.21,0a1.85,1.85,0,0,0,1.74-1.29,2.21,2.21,0,0,0,.09-0.67v-1.24h0Z" transform="translate(0 0)"/><path class="cls-2" d="M318.59,109.27a2.22,2.22,0,0,0,2,2.41H321a4.56,4.56,0,0,0,1.91-.36l0.22,0.9a5.61,5.61,0,0,1-2.3.44,3.22,3.22,0,0,1-3.4-3.5,3.37,3.37,0,0,1,3-3.73l0.27,0a2.94,2.94,0,0,1,2.88,3q0,0.13,0,.27a4.67,4.67,0,0,1,0,.59h-4.91Zm3.7-.9a1.8,1.8,0,0,0-1.54-2l-0.2,0a2.08,2.08,0,0,0-1.93,2.05h3.67Z" transform="translate(0 0)"/><rect class="cls-4" x="291.66" y="262.45" width="34.31" height="18.64"/><path class="cls-1" d="M302.08,275.51V266.9h1.21l2.77,4.35a24.46,24.46,0,0,1,1.55,2.8h0c-0.11-1.15-.12-2.19-0.12-3.54V266.9h1v8.61h-1.12l-2.74-4.37a27.51,27.51,0,0,1-1.55-2.88h0c0,1.09.09,2.13,0.09,3.56v3.68h-1.13Z" transform="translate(0 0)"/><path class="cls-1" d="M316.06,272.37a3.11,3.11,0,0,1-2.93,3.28h-0.18a2.94,2.94,0,0,1-3-2.9q0-.1,0-0.21a3,3,0,0,1,2.74-3.27h0.37a2.94,2.94,0,0,1,3,2.9Q316.06,272.27,316.06,272.37Zm-4.91,0a1.93,1.93,0,1,0,1.91-2.41,2.11,2.11,0,0,0-1.94,2.28q0,0.1,0,.19v-0.06Z" transform="translate(0 0)"/><rect class="cls-5" x="276.85" y="316.91" width="63.93" height="44.75"/><path class="cls-2" d="M286.36,333.37a4.42,4.42,0,0,0,2.24.64,1.73,1.73,0,0,0,2-1.65c0-.9-0.51-1.41-1.82-1.91-1.55-.56-2.55-1.37-2.55-2.74a2.78,2.78,0,0,1,2.92-2.64l0.19,0a4.38,4.38,0,0,1,2.13.47l-0.34,1a3.84,3.84,0,0,0-1.83-.45,1.55,1.55,0,0,0-1.82,1.45c0,0.9.59,1.35,1.91,1.87,1.63,0.64,2.47,1.41,2.47,2.83s-1.1,2.78-3.39,2.78a5,5,0,0,1-2.46-.62Z" transform="translate(0 0)"/><path class="cls-2" d="M295,326a0.78,0.78,0,1,1-1.55,0,0.76,0.76,0,0,1,.73-0.79h0.06a0.75,0.75,0,0,1,.76.73S295,326,295,326Zm-1.4,8.88V328h1.26V335h-1.26v-0.06Z" transform="translate(0 0)"/><path class="cls-2" d="M302.89,328V334a4,4,0,0,1-1,3.11,3.67,3.67,0,0,1-2.52.82,4.48,4.48,0,0,1-2.3-.58l0.31-1a3.9,3.9,0,0,0,2,.54,2.08,2.08,0,0,0,2.24-2.43v-0.78h0a2.47,2.47,0,0,1-2.21,1.17,3.11,3.11,0,0,1-3-3.25s0-.08,0-0.12a3.33,3.33,0,0,1,2.94-3.67h0.17a2.3,2.3,0,0,1,2.16,1.2h0v-1h1.1Zm-1.31,2.74a1.85,1.85,0,0,0-1.79-1.91h0a2.25,2.25,0,0,0-2.07,2.63,2.18,2.18,0,0,0,1.84,2.47l0.21,0a1.85,1.85,0,0,0,1.76-1.27,2.21,2.21,0,0,0,.09-0.67v-1.26Z" transform="translate(0 0)"/><path class="cls-2" d="M304.83,329.84V328H306v1.15h0a2.55,2.55,0,0,1,2.29-1.31,2.52,2.52,0,0,1,2.46,3v4.14h-1.26v-4a1.69,1.69,0,0,0-1.3-2l-0.26,0a1.79,1.79,0,0,0-1.69,1.29,1.82,1.82,0,0,0-.09.59v4.17h-1.26v-5.05h0Z" transform="translate(0 0)"/><path class="cls-2" d="M317.11,325.23V331c0,2.16,1,3.11,2.25,3.11s2.35-.95,2.35-3.11v-5.72H323v5.63c0,3-1.55,4.18-3.65,4.18s-3.47-1.14-3.47-4.12v-5.69h1.26Z" transform="translate(0 0)"/><path class="cls-2" d="M325.11,330.22V328h1.13v1.2h0a2.72,2.72,0,0,1,2.46-1.35,3.11,3.11,0,0,1,3,3.25q0,0.14,0,.28a3.28,3.28,0,0,1-2.8,3.7l-0.31,0A2.43,2.43,0,0,1,326.4,334h0v3.76h-1.24v-7.51h0Zm1.24,1.85a2.89,2.89,0,0,0,0,.51,1.94,1.94,0,0,0,1.9,1.48,2.71,2.71,0,0,0,0-5.26,2,2,0,0,0-1.91,1.55,2.05,2.05,0,0,0-.09.51v1.2h0.11Z" transform="translate(0 0)"/><path class="cls-2" d="M294.74,347.42v-2.27h1.13v1.18h0a2.72,2.72,0,0,1,2.46-1.35,3.11,3.11,0,0,1,3,3.25q0,0.14,0,.28a3.28,3.28,0,0,1-2.8,3.7l-0.31,0a2.43,2.43,0,0,1-2.13-1.09h0v3.76h-1.24V347.4Zm1.24,1.85a2.83,2.83,0,0,0,0,.51,1.94,1.94,0,0,0,1.9,1.48,2.71,2.71,0,0,0,0-5.26,2,2,0,0,0-1.91,1.55,2.07,2.07,0,0,0-.09.51v1.2H296Z" transform="translate(0 0)"/><path class="cls-2" d="M306.74,352.08l-0.09-.87h0a2.58,2.58,0,0,1-2.11,1,2,2,0,0,1-2.11-1.83q0-.08,0-0.16c0-1.68,1.55-2.6,4.17-2.58v-0.14a1.43,1.43,0,0,0-1.29-1.55H305a3.45,3.45,0,0,0-1.8.51l-0.28-.82a4.31,4.31,0,0,1,2.29-.62,2.46,2.46,0,0,1,2.64,2.83v2.6a9.78,9.78,0,0,0,.11,1.66h-1.15Zm-0.19-3.54c-1.37,0-2.94.22-2.94,1.55a1.12,1.12,0,0,0,1,1.2h0.14a1.73,1.73,0,0,0,1.68-1.17,1.34,1.34,0,0,0,0-.4v-1.2Z" transform="translate(0 0)"/><path class="cls-2" d="M315.78,345.12v5.94a4,4,0,0,1-1,3.11,3.67,3.67,0,0,1-2.52.82,4.46,4.46,0,0,1-2.3-.58l0.31-1a3.9,3.9,0,0,0,2,.54,2.08,2.08,0,0,0,2.24-2.43v-0.78h0a2.47,2.47,0,0,1-2.21,1.17,3.11,3.11,0,0,1-3-3.25s0-.08,0-0.12a3.33,3.33,0,0,1,2.94-3.67h0.17a2.3,2.3,0,0,1,2.16,1.2h0v-1h1.1Zm-1.31,2.74a1.85,1.85,0,0,0-1.79-1.91h0a2.25,2.25,0,0,0-2.07,2.63,2.18,2.18,0,0,0,1.84,2.47l0.21,0a1.85,1.85,0,0,0,1.74-1.29,2.21,2.21,0,0,0,.09-0.67v-1.24h0Z" transform="translate(0 0)"/><path class="cls-2" d="M318.59,348.85a2.22,2.22,0,0,0,2,2.41H321a4.56,4.56,0,0,0,1.91-.36l0.22,0.9a5.61,5.61,0,0,1-2.3.44,3.22,3.22,0,0,1-3.4-3.5,3.37,3.37,0,0,1,3-3.73l0.27,0a2.94,2.94,0,0,1,2.88,3q0,0.13,0,.27a4.67,4.67,0,0,1,0,.59h-4.91Zm3.7-.9a1.8,1.8,0,0,0-1.54-2l-0.2,0a2.08,2.08,0,0,0-1.93,2.05h3.67Z" transform="translate(0 0)"/><rect class="cls-1" x="284.52" y="407.54" width="48.59" height="48.59" transform="translate(-214.9 344.84) rotate(-45)"/><path class="cls-2" d="M293.42,418.19a10.67,10.67,0,0,1,1.55-.12,3.33,3.33,0,0,1,2.36.73,2.67,2.67,0,0,1,.82,2.08,3.11,3.11,0,0,1-.84,2.27,3.58,3.58,0,0,1-2.58.84,12.32,12.32,0,0,1-1.37,0v-5.8h0Zm0.75,5.15a4.88,4.88,0,0,0,.76,0,2.24,2.24,0,0,0,2.47-2.47,2.08,2.08,0,0,0-2.36-2.24,4.21,4.21,0,0,0-.89,0v4.66Z" transform="translate(0 0)"/><path class="cls-2" d="M303,421.88a2,2,0,0,1-1.84,2.22H301a2,2,0,0,1-2-2q0-.09,0-0.18a2,2,0,0,1,1.84-2.22H301A2,2,0,0,1,303,421.88Zm-3.31,0a1.31,1.31,0,1,0,1.29-1.55,1.41,1.41,0,0,0-1.37,1.6Z" transform="translate(0 0)"/><path class="cls-2" d="M304.37,422.05a1.34,1.34,0,0,0,1.22,1.44h0.21a2.74,2.74,0,0,0,1.15-.22l0.12,0.54a3.37,3.37,0,0,1-1.38.26,1.94,1.94,0,0,1-2.05-2.11,2,2,0,0,1,1.77-2.24h0.19a1.77,1.77,0,0,1,1.74,1.81q0,0.08,0,.17a2.8,2.8,0,0,1,0,.36h-3Zm2.22-.54a1.09,1.09,0,0,0-.94-1.22h-0.12a1.26,1.26,0,0,0-1.17,1.23h2.22Z" transform="translate(0 0)"/><path class="cls-2" d="M308.16,423.23a2,2,0,0,0,1,.3,0.67,0.67,0,0,0,.81-0.62,0.86,0.86,0,0,0-.78-0.76,1.34,1.34,0,0,1-1.1-1.18,1.29,1.29,0,0,1,1.34-1.24h0.1a2.08,2.08,0,0,1,1,.26l-0.19.56a1.55,1.55,0,0,0-.86-0.25,0.61,0.61,0,0,0-.7.58,0.88,0.88,0,0,0,.79.72,1.28,1.28,0,0,1-.47,2.52,2.38,2.38,0,0,1-1.18-.28Z" transform="translate(0 0)"/><path class="cls-2" d="M314.44,418.63v1.12h1v0.58h-1.09v2.25c0,0.51.14,0.81,0.58,0.81a1.7,1.7,0,0,0,.44,0V424a1.9,1.9,0,0,1-.67.11,1,1,0,0,1-.82-0.33,1.55,1.55,0,0,1-.3-1.09v-2.29H313v-0.62h0.65v-1Z" transform="translate(0 0)"/><path class="cls-2" d="M316.38,417.87h0.76v2.61h0a1.4,1.4,0,0,1,.54-0.53,1.53,1.53,0,0,1,2.24,1.57V424h-0.76v-2.39a1,1,0,0,0-.78-1.22l-0.18,0a1.09,1.09,0,0,0-1,.76,0.92,0.92,0,0,0,0,.36V424h-0.76v-6.13Z" transform="translate(0 0)"/><path class="cls-2" d="M321.61,422.05a1.34,1.34,0,0,0,1.22,1.44H323a2.74,2.74,0,0,0,1.15-.22l0.12,0.54a3.37,3.37,0,0,1-1.38.26,1.94,1.94,0,0,1-2.05-2.11,2,2,0,0,1,1.77-2.24h0.19a1.77,1.77,0,0,1,1.74,1.81q0,0.08,0,.17a2.8,2.8,0,0,1,0,.36h-3Zm2.22-.54a1.09,1.09,0,0,0-.94-1.22h-0.12a1.26,1.26,0,0,0-1.17,1.23h2.22Z" transform="translate(0 0)"/><path class="cls-2" d="M289.91,433.24v1.14h-0.67V433.7h0a1.53,1.53,0,0,1-2.83-1.06V430.2h0.76v2.32c0,0.79.25,1.34,0.93,1.34a0.89,0.89,0,0,0,1-1.07v-2.57h0.76v3.11Z" transform="translate(0 0)"/><path class="cls-2" d="M291.07,433.6a2,2,0,0,0,1,.3,0.67,0.67,0,0,0,.81-0.62,0.86,0.86,0,0,0-.78-0.78,1.34,1.34,0,0,1-1.1-1.18,1.29,1.29,0,0,1,1.34-1.24h0.1a2.08,2.08,0,0,1,1,.26l-0.19.56a1.55,1.55,0,0,0-.86-0.25,0.61,0.61,0,0,0-.7.58,0.88,0.88,0,0,0,.79.72,1.28,1.28,0,0,1-.47,2.52,2.38,2.38,0,0,1-1.18-.28Z" transform="translate(0 0)"/><path class="cls-2" d="M295,432.44a1.34,1.34,0,0,0,1.22,1.44h0.21a2.74,2.74,0,0,0,1.15-.22l0.12,0.54a3.37,3.37,0,0,1-1.38.26,1.94,1.94,0,0,1-2.05-2.11,2,2,0,0,1,1.81-2.24h0.15a1.77,1.77,0,0,1,1.74,1.81q0,0.08,0,.17a2.8,2.8,0,0,1,0,.36h-3Zm2.22-.54a1.09,1.09,0,0,0-.94-1.22h-0.12a1.26,1.26,0,0,0-1.17,1.23h2.22Z" transform="translate(0 0)"/><path class="cls-2" d="M298.92,431.5V430.2h0.67V431h0a1.26,1.26,0,0,1,1.15-.92H301v0.72H300.7a1.07,1.07,0,0,0-1,1,2.22,2.22,0,0,0,0,.36v2.22h-0.75V431.5Z" transform="translate(0 0)"/><path class="cls-2" d="M303.88,430.2l0.56,2.13c0.12,0.47.23,0.9,0.31,1.34h0c0.09-.42.23-0.87,0.37-1.32l0.68-2.13h0.64l0.65,2.08c0.16,0.5.28,0.95,0.37,1.37h0a12.61,12.61,0,0,1,.33-1.35l0.59-2.1h0.75l-1.35,4.18H307.1l-0.64-2a14.11,14.11,0,0,1-.37-1.37h0a12.44,12.44,0,0,1-.37,1.38l-0.67,2h-0.68L303,430.2h0.84Z" transform="translate(0 0)"/><path class="cls-2" d="M312.23,434.38v-0.53h0a1.55,1.55,0,0,1-1.27.62,1.2,1.2,0,0,1-1.27-1.12s0-.05,0-0.08c0-1,.9-1.55,2.52-1.55v-0.09a0.86,0.86,0,0,0-.73-1h-0.22a2.08,2.08,0,0,0-1.09.31l-0.17-.5a2.6,2.6,0,0,1,1.37-.37,1.55,1.55,0,0,1,1.55,1.71v1.55a5.91,5.91,0,0,0,0,1h-0.68v0Zm-0.11-2.19c-0.82,0-1.77.12-1.77,0.95a0.67,0.67,0,0,0,.6.73h0.11a1,1,0,0,0,1-.7,0.79,0.79,0,0,0,0-.25v-0.73h0Z" transform="translate(0 0)"/><path class="cls-2" d="M314.08,431.33V430.2h0.67v0.68h0a1.54,1.54,0,0,1,2.86,1v2.5h-0.73V432a1,1,0,0,0-.8-1.21l-0.16,0a1.12,1.12,0,0,0-1.07,1.14v2.52h-0.76v-3.06Z" transform="translate(0 0)"/><path class="cls-2" d="M319.76,429.08v1.2h1.09v0.58h-1.09v2.25c0,0.51.14,0.81,0.58,0.81a1.7,1.7,0,0,0,.44,0v0.58a1.88,1.88,0,0,1-.67.11,1.06,1.06,0,0,1-.82-0.33,1.55,1.55,0,0,1-.3-1.09V430.9h-0.65v-0.58H319v-1Z" transform="translate(0 0)"/><path class="cls-2" d="M325.85,434.38v-0.53h0a1.55,1.55,0,0,1-1.27.62,1.2,1.2,0,0,1-1.27-1.12s0-.05,0-0.08c0-1,.9-1.55,2.52-1.55v-0.09a0.86,0.86,0,0,0-1-1,2.08,2.08,0,0,0-1.09.31l-0.17-.5a2.6,2.6,0,0,1,1.37-.37,1.55,1.55,0,0,1,1.55,1.71v1.55a5.91,5.91,0,0,0,0,1h-0.68Zm-0.11-2.19c-0.82,0-1.77.12-1.77,0.95a0.67,0.67,0,0,0,.6.73h0.11a1,1,0,0,0,1-.7,0.79,0.79,0,0,0,0-.25v-0.73h0Z" transform="translate(0 0)"/><path class="cls-2" d="M327.7,431.33V430.2h0.67v0.68h0a1.54,1.54,0,0,1,2.86,1v2.5h-0.76V432a1,1,0,0,0-.8-1.21l-0.16,0a1.12,1.12,0,0,0-1.07,1.14v2.52h-0.76v-3.11Z" transform="translate(0 0)"/><path class="cls-2" d="M295.55,444.75v-0.53h0a1.55,1.55,0,0,1-1.27.62,1.2,1.2,0,0,1-1.27-1.12s0-.05,0-0.08c0-1,.9-1.55,2.52-1.55V442a0.86,0.86,0,0,0-.73-1h-0.22a2.08,2.08,0,0,0-1.09.31l-0.17-.5a2.6,2.6,0,0,1,1.37-.37,1.55,1.55,0,0,1,1.55,1.71v1.55a5.91,5.91,0,0,0,0,1h-0.68v0Zm-0.11-2.13c-0.82,0-1.77.12-1.77,0.95a0.67,0.67,0,0,0,.6.73h0.11a1,1,0,0,0,1-.7,0.79,0.79,0,0,0,0-.25v-0.73h0Z" transform="translate(0 0)"/><path class="cls-2" d="M300.37,444.63a2.81,2.81,0,0,1-1.2.25,2,2,0,0,1-2.08-2.13,2.13,2.13,0,0,1,2-2.22h0.21a2.52,2.52,0,0,1,1.06.22l-0.17.59a1.77,1.77,0,0,0-.89-0.2,1.55,1.55,0,0,0,0,3.11,2.15,2.15,0,0,0,.93-0.2Z" transform="translate(0 0)"/><path class="cls-2" d="M304.19,444.63a2.81,2.81,0,0,1-1.2.25,2,2,0,0,1-2.08-2.13,2.13,2.13,0,0,1,2-2.22h0.21a2.52,2.52,0,0,1,1.06.22l-0.17.59a1.77,1.77,0,0,0-.89-0.2,1.55,1.55,0,1,0,0,3.11,2.15,2.15,0,0,0,.93-0.2Z" transform="translate(0 0)"/><path class="cls-2" d="M308.83,442.64a2,2,0,0,1-1.84,2.22h-0.24a2,2,0,0,1-2-2q0-.09,0-0.18a2,2,0,0,1,1.84-2.22h0.23A2,2,0,0,1,308.83,442.64Zm-3.31,0a1.31,1.31,0,1,0,1.29-1.55,1.41,1.41,0,0,0-1.32,1.51s0,0.06,0,.09Z" transform="translate(0 0)"/><path class="cls-2" d="M313.29,443.62v1.14h-0.67v-0.68h0a1.53,1.53,0,0,1-2.83-1.06v-2.43h0.76v2.32c0,0.79.25,1.32,0.93,1.32a0.89,0.89,0,0,0,1-1.07v-2.57h0.76v3.11Z" transform="translate(0 0)"/><path class="cls-2" d="M314.55,441.7v-1.14h0.67v0.68h0a1.54,1.54,0,0,1,2.86,1v2.5h-0.73v-2.41a1,1,0,0,0-.8-1.21l-0.16,0a1.12,1.12,0,0,0-1.07,1.14v2.52h-0.76V441.7Z" transform="translate(0 0)"/><path class="cls-2" d="M320.22,439.37v1.2h1.09v0.58h-1.09v2.25c0,0.51.14,0.81,0.58,0.81a1.7,1.7,0,0,0,.44,0v0.58a1.88,1.88,0,0,1-.67.11,1.06,1.06,0,0,1-.82-0.33,1.55,1.55,0,0,1-.3-1.09v-2.29h-0.65v-0.61h0.65v-1Z" transform="translate(0 0)"/><path class="cls-2" d="M322.76,443.07v-0.22a2,2,0,0,1,.53-1.55,1.9,1.9,0,0,0,.61-1.18,0.72,0.72,0,0,0-.67-0.75h-0.15a1.56,1.56,0,0,0-.87.26l-0.2-.54a2.25,2.25,0,0,1,1.23-.34,1.27,1.27,0,0,1,1.45,1.27,2.33,2.33,0,0,1-.75,1.55,1.71,1.71,0,0,0-.5,1.27v0.22h-0.67Zm-0.19,1.21a0.51,0.51,0,0,1,.48-0.54h0a0.54,0.54,0,1,1-.51.58v0Z" transform="translate(0 0)"/><rect class="cls-3" x="379.01" y="422.51" width="34.31" height="18.64"/><path class="cls-2" d="M390.36,435.59v-3.65l-2.72-5h1.26l1.21,2.38c0.33,0.65.59,1.18,0.86,1.77h0c0.25-.56.54-1.12,0.87-1.77l1.24-2.38h1.26l-2.89,4.94v3.67h-1.09Z" transform="translate(0 0)"/><path class="cls-2" d="M395,432.7a2,2,0,0,0,1.82,2.14h0.31a4.07,4.07,0,0,0,1.71-.33l0.19,0.81a5,5,0,0,1-2.05.39,2.88,2.88,0,0,1-3.11-3.11,3,3,0,0,1,2.64-3.32l0.27,0a2.63,2.63,0,0,1,2.57,2.69q0,0.12,0,.24a4.25,4.25,0,0,1,0,.53h-4.35Zm3.3-.81a1.55,1.55,0,0,0-1.55-1.83,1.87,1.87,0,0,0-1.73,1.83h3.28Z" transform="translate(0 0)"/><path class="cls-2" d="M400.59,434.44a3,3,0,0,0,1.55.45,1,1,0,0,0,1.2-.92,1.27,1.27,0,0,0-1.15-1.14,2,2,0,0,1-1.63-1.76,1.91,1.91,0,0,1,2-1.83h0.14a3.11,3.11,0,0,1,1.55.39l-0.28.82a2.41,2.41,0,0,0-1.26-.36,0.9,0.9,0,0,0-1,.75,0.89,0.89,0,0,0,0,.09c0,0.51.37,0.75,1.18,1a1.9,1.9,0,1,1-.68,3.72,3.51,3.51,0,0,1-1.74-.42Z" transform="translate(0 0)"/><rect class="cls-4" x="291.66" y="502.03" width="34.31" height="18.64"/><path class="cls-1" d="M302.08,515.1v-8.61h1.21l2.77,4.35a24.38,24.38,0,0,1,1.55,2.8h0c-0.11-1.15-.12-2.19-0.12-3.54v-3.61h1v8.61h-1.12l-2.74-4.37a27.51,27.51,0,0,1-1.55-2.88h0c0,1.09.09,2.13,0.09,3.56v3.68h-1.13Z" transform="translate(0 0)"/><path class="cls-1" d="M316.06,511.95a3.11,3.11,0,0,1-2.93,3.28h-0.18a2.94,2.94,0,0,1-3-2.9q0-.1,0-0.21a3,3,0,0,1,2.74-3.27h0.37a2.94,2.94,0,0,1,3,2.9Q316.06,511.84,316.06,511.95Zm-4.91,0a1.93,1.93,0,1,0,1.91-2.41,2.11,2.11,0,0,0-1.94,2.28q0,0.1,0,.19v-0.06Z" transform="translate(0 0)"/><rect class="cls-4" x="204.31" y="662.11" width="34.31" height="18.64"/><path class="cls-1" d="M214.75,675.17v-8.61H216l2.77,4.35a24.38,24.38,0,0,1,1.55,2.8h0c-0.11-1.15-.12-2.19-0.12-3.54v-3.61h1v8.61H220.1l-2.74-4.37a27.51,27.51,0,0,1-1.55-2.88h0c0,1.09.09,2.13,0.09,3.56v3.68h-1.15Z" transform="translate(0 0)"/><path class="cls-1" d="M228.71,672a3.11,3.11,0,0,1-2.93,3.28H225.6a2.94,2.94,0,0,1-3-2.9q0-.1,0-0.21a3,3,0,0,1,2.74-3.27h0.37a2.94,2.94,0,0,1,3,2.9Q228.72,671.93,228.71,672Zm-4.91,0a1.93,1.93,0,1,0,1.91-2.41,2.11,2.11,0,0,0-2,2.47Z" transform="translate(0 0)"/><rect class="cls-1" x="284.53" y="647.14" width="48.59" height="48.59" transform="translate(-384.33 415.03) rotate(-45)"/><path class="cls-2" d="M294.83,663a8.66,8.66,0,0,1,1.45-.11,2.39,2.39,0,0,1,1.55.48,1.55,1.55,0,0,1,.51,1.21,1.71,1.71,0,0,1-.45,1.24,2.43,2.43,0,0,1-1.77.64,2.54,2.54,0,0,1-.61,0v2.33h-0.75v-5.75Zm0.75,2.81a2.56,2.56,0,0,0,.62,0,1.24,1.24,0,0,0,1.46-1.24,1.15,1.15,0,0,0-1.15-1.16l-0.22,0a3.25,3.25,0,0,0-.72,0v2.38Z" transform="translate(0 0)"/><path class="cls-2" d="M299.27,665.9V664.6h0.67v0.82h0a1.26,1.26,0,0,1,1.15-.92h0.22v0.72H301a1.07,1.07,0,0,0-1,1,2.22,2.22,0,0,0,0,.36v2.22h-0.75V665.9Z" transform="translate(0 0)"/><path class="cls-2" d="M305.78,666.65a2,2,0,0,1-1.84,2.22H303.7a2,2,0,0,1-2-2q0-.09,0-0.18a2,2,0,0,1,1.84-2.22h0.23A2,2,0,0,1,305.78,666.65Zm-3.31,0a1.31,1.31,0,1,0,1.29-1.55,1.43,1.43,0,0,0-1.3,1.55v0Z" transform="translate(0 0)"/><path class="cls-2" d="M309.73,668.62a2.81,2.81,0,0,1-1.2.25,2,2,0,0,1-2.08-2.13,2.13,2.13,0,0,1,2-2.22h0.21a2.52,2.52,0,0,1,1.06.22l-0.17.59a1.77,1.77,0,0,0-.89-0.2,1.55,1.55,0,1,0,0,3.11,2.15,2.15,0,0,0,.93-0.2Z" transform="translate(0 0)"/><path class="cls-2" d="M311,666.82a1.34,1.34,0,0,0,1.22,1.44h0.21a2.74,2.74,0,0,0,1.15-.22l0.12,0.54a3.37,3.37,0,0,1-1.38.26,1.94,1.94,0,0,1-2.05-2.11,2,2,0,0,1,1.81-2.24h0.15A1.77,1.77,0,0,1,314,666.3q0,0.08,0,.17a2.8,2.8,0,0,1,0,.36h-3Zm2.22-.54a1.09,1.09,0,0,0-.94-1.22h-0.12a1.26,1.26,0,0,0-1.17,1.23h2.22Z" transform="translate(0 0)"/><path class="cls-2" d="M315.33,666.82a1.34,1.34,0,0,0,1.22,1.44h0.21a2.74,2.74,0,0,0,1.15-.22l0.12,0.54a3.37,3.37,0,0,1-1.38.26,1.94,1.94,0,0,1-2.05-2.11,2,2,0,0,1,1.77-2.24h0.19a1.77,1.77,0,0,1,1.74,1.81q0,0.08,0,.17a2.8,2.8,0,0,1,0,.36h-3Zm2.22-.54a1.09,1.09,0,0,0-.94-1.22h-0.12a1.26,1.26,0,0,0-1.17,1.23h2.22Z" transform="translate(0 0)"/><path class="cls-2" d="M322.84,662.64v6.13h-0.68V668h0a1.55,1.55,0,0,1-1.43.82,1.91,1.91,0,0,1-1.8-2s0-.07,0-0.11a2,2,0,0,1,1.76-2.23h0.13a1.4,1.4,0,0,1,1.26.64h0v-2.5h0.76v0Zm-0.76,3.65a1.35,1.35,0,0,0,0-.33,1.12,1.12,0,0,0-1.1-.89,1.38,1.38,0,0,0-1.27,1.49v0.06a1.34,1.34,0,0,0,1.1,1.54l0.13,0a1.15,1.15,0,0,0,1.12-.9,1.34,1.34,0,0,0,0-.33v-0.73Z" transform="translate(0 0)"/><path class="cls-2" d="M295.27,679.15v-0.53h0a1.55,1.55,0,0,1-1.27.62,1.2,1.2,0,0,1-1.27-1.12s0-.05,0-0.08c0-1,.9-1.55,2.52-1.55V676.4a0.86,0.86,0,0,0-.73-1h-0.22a2.08,2.08,0,0,0-1.09.31l-0.17-.5a2.6,2.6,0,0,1,1.37-.37,1.55,1.55,0,0,1,1.55,1.71v1.55a5.91,5.91,0,0,0,0,1h-0.68v0ZM295.16,677c-0.82,0-1.77.12-1.77,0.95a0.67,0.67,0,0,0,.6.73h0.11a1,1,0,0,0,1-.7,0.79,0.79,0,0,0,0-.25V677h0Z" transform="translate(0 0)"/><path class="cls-2" d="M296.95,678.37a2,2,0,0,0,1,.3,0.67,0.67,0,0,0,.81-0.62,0.86,0.86,0,0,0-.78-0.76,1.34,1.34,0,0,1-1.1-1.18,1.29,1.29,0,0,1,1.34-1.24h0.1a2.08,2.08,0,0,1,1,.26l-0.19.56a1.55,1.55,0,0,0-.86-0.25,0.61,0.61,0,0,0-.7.58,0.88,0.88,0,0,0,.79.72,1.28,1.28,0,0,1-.47,2.52,2.38,2.38,0,0,1-1.18-.28Z" transform="translate(0 0)"/><path class="cls-2" d="M305.9,675v3.58a2.41,2.41,0,0,1-.59,1.91,2.22,2.22,0,0,1-1.55.5,2.69,2.69,0,0,1-1.38-.34l0.19-.58a2.35,2.35,0,0,0,1.23.33,1.26,1.26,0,0,0,1.35-1.46v-0.47h0a1.55,1.55,0,0,1-1.32.7,1.87,1.87,0,0,1-1.78-1.95s0-.06,0-0.09a2,2,0,0,1,1.77-2.21h0.11a1.38,1.38,0,0,1,1.31.73h0V675h0.67Zm-0.79,1.65a1.12,1.12,0,0,0-1.09-1.15h0a1.37,1.37,0,0,0-1.25,1.47V677a1.31,1.31,0,0,0,1,1.53l0.2,0a1.12,1.12,0,0,0,1.06-.78,1.32,1.32,0,0,0,0-.4v-0.75Z" transform="translate(0 0)"/><path class="cls-2" d="M310.63,678v1.13H310v-0.68h0a1.53,1.53,0,0,1-2.83-1.06V675h0.76v2.32c0,0.79.25,1.32,0.93,1.32a0.89,0.89,0,0,0,1-1.07V675h0.76v3.11Z" transform="translate(0 0)"/><path class="cls-2" d="M312.37,677.19a1.34,1.34,0,0,0,1.22,1.44h0.21a2.74,2.74,0,0,0,1.15-.22l0.12,0.54a3.37,3.37,0,0,1-1.38.26,1.94,1.94,0,0,1-2.05-2.11,2,2,0,0,1,1.77-2.24h0.19a1.77,1.77,0,0,1,1.74,1.81q0,0.08,0,.17a2.8,2.8,0,0,1,0,.36h-3Zm2.22-.54a1.09,1.09,0,0,0-.94-1.22h-0.12a1.26,1.26,0,0,0-1.17,1.23h2.22Z" transform="translate(0 0)"/><path class="cls-2" d="M316.13,678.37a2,2,0,0,0,1,.3,0.67,0.67,0,0,0,.81-0.62,0.86,0.86,0,0,0-.78-0.76,1.34,1.34,0,0,1-1.1-1.18,1.29,1.29,0,0,1,1.34-1.24h0.1a2.08,2.08,0,0,1,1,.26l-0.19.56a1.55,1.55,0,0,0-.86-0.25,0.61,0.61,0,0,0-.7.58,0.88,0.88,0,0,0,.79.72,1.28,1.28,0,0,1-.47,2.52,2.38,2.38,0,0,1-1.18-.28Z" transform="translate(0 0)"/><path class="cls-2" d="M320.57,673.77V675h1.13v0.58h-1.09v2.3c0,0.51.14,0.81,0.58,0.81a1.7,1.7,0,0,0,.44,0v0.58a1.9,1.9,0,0,1-.67.11,1,1,0,0,1-.82-0.33,1.55,1.55,0,0,1-.3-1.09v-2.29h-0.65v-0.58h0.65v-1Z" transform="translate(0 0)"/><path class="cls-2" d="M323.1,677.5v-0.22a2,2,0,0,1,.53-1.55,1.9,1.9,0,0,0,.61-1.18,0.72,0.72,0,0,0-.67-0.75h-0.15a1.56,1.56,0,0,0-.87.26l-0.2-.54a2.25,2.25,0,0,1,1.23-.34,1.27,1.27,0,0,1,1.45,1.27,2.33,2.33,0,0,1-.75,1.55,1.71,1.71,0,0,0-.5,1.27v0.22H323.1Zm-0.19,1.21a0.51,0.51,0,0,1,.48-0.54h0a0.54,0.54,0,1,1-.51.57v0h0Z" transform="translate(0 0)"/><rect class="cls-5" x="276.85" y="556.49" width="63.93" height="44.75"/><path class="cls-2" d="M299.93,574a9,9,0,0,1-3,.53,4.54,4.54,0,0,1-5-4.87,4.84,4.84,0,0,1,5.22-5,6,6,0,0,1,2.41.45l-0.3,1a5,5,0,0,0-2.13-.42,3.61,3.61,0,0,0-3.89,3.89,3.55,3.55,0,0,0,3.73,3.9,4.07,4.07,0,0,0,1.66-.26v-2.88h-2v-1h3.11v4.66Z" transform="translate(0 0)"/><path class="cls-2" d="M307.55,572.58v1.9h-1.12v-1.14h0a2.61,2.61,0,0,1-2.29,1.29c-1.09,0-2.39-.61-2.39-3.11v-4.06H303v3.84c0,1.32.4,2.21,1.55,2.21a1.77,1.77,0,0,0,1.77-1.77v-4.28h1.26v5Z" transform="translate(0 0)"/><path class="cls-2" d="M310.35,571.23a2.22,2.22,0,0,0,2,2.41h0.36a4.56,4.56,0,0,0,1.91-.36l0.22,0.9a5.61,5.61,0,0,1-2.3.44,3.22,3.22,0,0,1-3.4-3.5,3.37,3.37,0,0,1,3.06-3.66h0.16a2.94,2.94,0,0,1,2.88,3q0,0.13,0,.27a4.67,4.67,0,0,1,0,.59h-4.88v-0.08Zm3.7-.9a1.79,1.79,0,0,0-1.5-2l-0.24,0a2.08,2.08,0,0,0-1.93,2.05h3.67Z" transform="translate(0 0)"/><path class="cls-2" d="M316.66,573.19a3.31,3.31,0,0,0,1.66.5,1.12,1.12,0,0,0,1.35-1,1.43,1.43,0,0,0-1.29-1.27,2.22,2.22,0,0,1-1.83-2,2.15,2.15,0,0,1,2.24-2h0.16a3.47,3.47,0,0,1,1.71.44l-0.31.92a2.69,2.69,0,0,0-1.41-.4,1,1,0,0,0-1.17.95c0,0.58.42,0.84,1.32,1.18a2.12,2.12,0,0,1-.78,4.17,4,4,0,0,1-1.94-.47Z" transform="translate(0 0)"/><path class="cls-2" d="M324,565.54v2h1.8v1H324v3.75c0,0.86.25,1.35,0.95,1.35a2.77,2.77,0,0,0,.73-0.09v0.95a3.11,3.11,0,0,1-1.12.17,1.74,1.74,0,0,1-1.37-.53,2.57,2.57,0,0,1-.48-1.8v-3.78h-1v-1h1.07V565.9Z" transform="translate(0 0)"/><path class="cls-2" d="M287.22,591.41a4.66,4.66,0,0,1-2,.4,3.3,3.3,0,0,1-3.45-3.54,3.53,3.53,0,0,1,3.36-3.69h0.37a4.23,4.23,0,0,1,1.74.36l-0.28,1a2.91,2.91,0,0,0-1.46-.33,2.61,2.61,0,0,0,0,5.22,3.58,3.58,0,0,0,1.55-.34Z" transform="translate(0 0)"/><path class="cls-2" d="M288.69,581.45H290v4.32h0a2.35,2.35,0,0,1,.9-0.89,2.6,2.6,0,0,1,1.31-.33,2.52,2.52,0,0,1,2.43,3v4.12h-1.26v-4a1.71,1.71,0,0,0-1.31-2l-0.24,0a1.82,1.82,0,0,0-1.69,1.26,1.55,1.55,0,0,0-.09.61v4.18h-1.26v-10.2h0Z" transform="translate(0 0)"/><path class="cls-2" d="M297.34,588.43a2.22,2.22,0,0,0,2,2.41h0.36a4.56,4.56,0,0,0,1.91-.36l0.22,0.9a5.61,5.61,0,0,1-2.3.44,3.22,3.22,0,0,1-3.4-3.5,3.37,3.37,0,0,1,3-3.73l0.27,0a2.94,2.94,0,0,1,2.88,3q0,0.13,0,.27a4.67,4.67,0,0,1,0,.59h-4.91Zm3.7-.9a1.8,1.8,0,0,0-1.54-2l-0.2,0a2.08,2.08,0,0,0-1.93,2.05H301Z" transform="translate(0 0)"/><path class="cls-2" d="M308.77,591.41a4.66,4.66,0,0,1-2,.4,3.3,3.3,0,0,1-3.45-3.54,3.53,3.53,0,0,1,3.36-3.69h0.37a4.23,4.23,0,0,1,1.74.36l-0.28,1a2.91,2.91,0,0,0-1.46-.33,2.61,2.61,0,0,0,0,5.22,3.58,3.58,0,0,0,1.55-.34Z" transform="translate(0 0)"/><path class="cls-2" d="M311.49,587.91h0c0.17-.25.42-0.54,0.62-0.79l2-2.39h1.55L313,587.57l3.11,4.09h-1.55l-2.39-3.33-0.64.72v2.61H310.3V581.45h1.24v6.42Z" transform="translate(0 0)"/><path class="cls-2" d="M323.26,588.15a3.39,3.39,0,0,1-3.08,3.67H319.8a3.3,3.3,0,0,1-3.34-3.25q0-.15,0-0.31a3.39,3.39,0,0,1,3.08-3.67h0.36A3.28,3.28,0,0,1,323.26,588.15Zm-5.5,0a2.16,2.16,0,1,0,2.13-2.69,2.36,2.36,0,0,0-2.17,2.54q0,0.12,0,.23Z" transform="translate(0 0)"/><path class="cls-2" d="M330.64,589.78v1.9h-1.12v-1.14h0a2.61,2.61,0,0,1-2.29,1.29c-1.09,0-2.39-.61-2.39-3.11v-4.06h1.26v3.84c0,1.32.4,2.21,1.55,2.21a1.77,1.77,0,0,0,1.77-1.77v-4.28h1.26v5Z" transform="translate(0 0)"/><path class="cls-2" d="M334.25,582.74v2h1.8v1h-1.8v3.75c0,0.86.25,1.35,0.95,1.35a2.77,2.77,0,0,0,.73-0.09v0.95a3.11,3.11,0,0,1-1.12.17,1.74,1.74,0,0,1-1.37-.53,2.57,2.57,0,0,1-.48-1.8v-3.78h-1.07v-1H333V583Z" transform="translate(0 0)"/><line class="cls-6" x1="63.93" y1="98.95" x2="99.77" y2="98.95"/><line class="cls-6" x1="168.49" y1="99.69" x2="204.31" y2="99.69"/><line class="cls-6" x1="238.63" y1="98.95" x2="276.85" y2="98.95"/><line class="cls-6" x1="308.81" y1="123.39" x2="308.81" y2="157.9"/><line class="cls-6" x1="308.81" y1="226.61" x2="308.81" y2="262.45"/><line class="cls-6" x1="308.81" y1="316.91" x2="308.81" y2="281.07"/><line class="cls-6" x1="308.81" y1="397.48" x2="308.81" y2="361.64"/><line class="cls-6" x1="308.81" y1="502.03" x2="308.81" y2="466.2"/><line class="cls-6" x1="308.81" y1="556.49" x2="308.81" y2="520.67"/><line class="cls-6" x1="308.81" y1="601.24" x2="308.81" y2="637.06"/><line class="cls-6" x1="274.47" y1="671.42" x2="238.63" y2="671.42"/><polyline class="cls-6" points="221.48 662.11 221.48 339.29 276.85 339.29"/><line class="cls-6" x1="343.17" y1="431.84" x2="379.01" y2="431.84"/><line class="cls-6" x1="343.17" y1="192.25" x2="379.01" y2="192.25"/><polyline class="cls-6" points="396.16 182.94 396.16 109.02 340.79 109.02"/><line class="cls-6" x1="412.45" y1="91.86" x2="340.79" y2="91.86"/><polyline class="cls-6" points="396.16 422.51 396.16 339.29 340.79 339.29"/><rect class="cls-1" x="422.51" y="307.34" width="48.59" height="48.59" transform="translate(-103.63 413.07) rotate(-45)"/><path class="cls-2" d="M431.33,328.42a10.76,10.76,0,0,1,1.55-.12,3.33,3.33,0,0,1,2.36.73,2.67,2.67,0,0,1,.82,2.08,3.11,3.11,0,0,1-.84,2.27,3.59,3.59,0,0,1-2.58.84,12.12,12.12,0,0,1-1.37,0V328.5Zm0.75,5.15a4.66,4.66,0,0,0,.76,0,2.24,2.24,0,0,0,2.47-2.47,2.08,2.08,0,0,0-2.36-2.24,4.26,4.26,0,0,0-.89.08v4.66Z" transform="translate(0 0)"/><path class="cls-2" d="M439.38,334.24v-0.53h0a1.55,1.55,0,0,1-1.27.62,1.2,1.2,0,0,1-1.27-1.12s0-.05,0-0.08c0-1,.9-1.55,2.52-1.55v-0.09a0.86,0.86,0,0,0-.73-1H438.4a2.08,2.08,0,0,0-1.09.31l-0.17-.5a2.6,2.6,0,0,1,1.37-.37,1.55,1.55,0,0,1,1.55,1.71v1.55a5.91,5.91,0,0,0,0,1h-0.68v0Zm-0.11-2.13c-0.82,0-1.77.12-1.77,0.95a0.67,0.67,0,0,0,.6.73h0.11a1,1,0,0,0,1-.7,0.79,0.79,0,0,0,0-.25v-0.73h0Z" transform="translate(0 0)"/><path class="cls-2" d="M442.12,328.78V330h1.09v0.58h-1.09v2.25c0,0.51.14,0.81,0.58,0.81a1.7,1.7,0,0,0,.44,0v0.58a1.85,1.85,0,0,1-.67.11,1.06,1.06,0,0,1-.82-0.33,1.55,1.55,0,0,1-.3-1.09V330.6h-0.65V330h0.73v-1Z" transform="translate(0 0)"/><path class="cls-2" d="M446.38,334.24v-0.53h0a1.55,1.55,0,0,1-1.27.62,1.2,1.2,0,0,1-1.27-1.12s0-.05,0-0.08c0-1,.9-1.55,2.52-1.55v-0.09a0.86,0.86,0,0,0-.73-1H445.4a2.08,2.08,0,0,0-1.09.31l-0.17-.5a2.6,2.6,0,0,1,1.37-.37,1.55,1.55,0,0,1,1.55,1.71v1.55a5.91,5.91,0,0,0,0,1h-0.68v0Zm-0.11-2.13c-0.82,0-1.77.12-1.77,0.95a0.67,0.67,0,0,0,.6.73h0.11a1,1,0,0,0,1-.7,0.79,0.79,0,0,0,0-.25v-0.73h0Z" transform="translate(0 0)"/><path class="cls-2" d="M455.05,331.13a2.72,2.72,0,0,1-2.3,3.08l-0.4,0a2.67,2.67,0,0,1-2.63-2.72q0-.12,0-0.23a2.77,2.77,0,0,1,2.4-3.09l0.3,0A2.64,2.64,0,0,1,455.05,331.13Zm-4.51.09a1.93,1.93,0,1,0,1.87-2.43,2.08,2.08,0,0,0-1.87,2.49v-0.06Z" transform="translate(0 0)"/><path class="cls-2" d="M456.77,331.9h0l0.37-.48,1.23-1.45h0.92l-1.55,1.71,1.83,2.46h-1l-1.45-2-0.39.44v1.55h-0.75V328h0.75v3.87Z" transform="translate(0 0)"/><path class="cls-2" d="M460.65,332.51v-0.22a2,2,0,0,1,.53-1.55,1.9,1.9,0,0,0,.61-1.18,0.72,0.72,0,0,0-.67-0.75H461a1.56,1.56,0,0,0-.87.26l-0.2-.54a2.27,2.27,0,0,1,1.23-.34,1.27,1.27,0,0,1,1.45,1.27,2.33,2.33,0,0,1-.75,1.55,1.71,1.71,0,0,0-.5,1.27v0.22h-0.67Zm-0.19,1.21a0.51,0.51,0,0,1,.48-0.54h0a0.54,0.54,0,1,1-.51.57v0Z" transform="translate(0 0)"/><line class="cls-6" x1="340.79" y1="331.62" x2="412.45" y2="331.62"/><polyline class="cls-6" points="446.81 297.26 446.81 281.07 393.78 281.07"/><polyline class="cls-6" points="359.47 281.07 334.14 281.07 334.14 316.91"/><line class="cls-6" x1="134.13" y1="65.35" x2="134.13" y2="19.48"/><polyline class="cls-6" points="151.28 9.31 619.12 9.31 619.12 69.5"/><line class="cls-6" x1="481.16" y1="91.86" x2="517" y2="91.86"/><line class="cls-6" x1="551.31" y1="91.86" x2="587.13" y2="91.86"/><line class="cls-6" x1="481.16" y1="331.62" x2="517" y2="331.62"/><rect class="cls-3" x="379.77" y="662.11" width="34.31" height="18.64"/><path class="cls-2" d="M391.12,675.17v-3.65l-2.72-5h1.26l1.21,2.38c0.33,0.65.59,1.18,0.86,1.77h0c0.25-.56.54-1.12,0.87-1.77l1.24-2.38h1.26l-2.89,4.94v3.67h-1.09Z" transform="translate(0 0)"/><path class="cls-2" d="M395.72,672.28a2,2,0,0,0,1.82,2.14h0.31a4.07,4.07,0,0,0,1.71-.33l0.19,0.81a5,5,0,0,1-2.05.39,2.88,2.88,0,0,1-3.11-3.11,3,3,0,0,1,2.64-3.32l0.27,0a2.63,2.63,0,0,1,2.57,2.69q0,0.12,0,.24a4.25,4.25,0,0,1,0,.53h-4.35Zm3.3-.81a1.55,1.55,0,0,0-1.55-1.83,1.87,1.87,0,0,0-1.73,1.83H399Z" transform="translate(0 0)"/><path class="cls-2" d="M401.35,674a3,3,0,0,0,1.55.45,1,1,0,0,0,1.2-.92,1.27,1.27,0,0,0-1.15-1.14,2,2,0,0,1-1.63-1.76,1.91,1.91,0,0,1,2-1.83h0.14a3.11,3.11,0,0,1,1.55.39l-0.28.82a2.41,2.41,0,0,0-1.26-.36,0.9,0.9,0,0,0-1,.75,0.89,0.89,0,0,0,0,.09c0,0.51.37,0.75,1.18,1a1.9,1.9,0,1,1-.68,3.72,3.51,3.51,0,0,1-1.74-.42Z" transform="translate(0 0)"/><line class="cls-6" x1="343.93" y1="671.42" x2="379.77" y2="671.42"/><polyline class="cls-6" points="604.42 114.23 604.42 331.79 551.31 331.79"/><polyline class="cls-6" points="414.07 671.42 636.06 671.42 636.06 114.23"/><line class="cls-6" x1="686.9" y1="91.86" x2="651.08" y2="91.86"/><polyline class="cls-6" points="703.77 9.31 635.74 9.31 635.74 69.25"/><line class="cls-6" x1="755.63" y1="91.86" x2="791.46" y2="91.86"/><line class="cls-6" x1="825.76" y1="91.86" x2="861.6" y2="91.86"/><line class="cls-6" x1="925.53" y1="91.86" x2="961.37" y2="91.86"/><line class="cls-6" x1="1030.09" y1="91.86" x2="1065.92" y2="91.86"/><line class="cls-6" x1="1136.07" y1="91.86" x2="1100.23" y2="91.86"/><line class="cls-6" x1="721.27" y1="57.5" x2="721.27" y2="18.64"/><rect class="cls-4" x="978.57" width="34.31" height="18.64"/><path class="cls-1" d="M989,13.08V4.45h1.26L993,8.8a24.33,24.33,0,0,1,1.55,2.8h0c-0.11-1.15-.12-2.19-0.12-3.54V4.45h1v8.61h-1.12l-2.74-4.37a27.22,27.22,0,0,1-1.55-2.88h0c0,1.09.09,2.13,0.09,3.56v3.68h-1Z" transform="translate(0 0)"/><path class="cls-1" d="M1003,9.92A3.11,3.11,0,0,1,1000,13.2h-0.18a2.94,2.94,0,0,1-3-2.9q0-.1,0-0.21a3,3,0,0,1,2.74-3.27H1000a2.94,2.94,0,0,1,3,2.9Q1003,9.82,1003,9.92Zm-4.91,0a1.93,1.93,0,1,0,1.9-2.41A2.1,2.1,0,0,0,998,10Z" transform="translate(0 0)"/><line class="cls-6" x1="996.06" y1="57.5" x2="996.06" y2="18.64"/><polyline class="cls-6" points="978.57 9.31 893.57 9.31 893.57 69.5"/><line class="cls-6" x1="446.81" y1="57.5" x2="446.81" y2="39.27"/><polyline class="cls-6" points="429.65 28.8 308.81 28.8 308.81 77.33"/></svg>