<svg id="Layer_1" data-name="Layer 1" xmlns="http://www.w3.org/2000/svg" viewBox="0 0 771.81 453.94"><defs><style>.cls-1{fill:#fff;}.cls-2{fill:#231f20;}.cls-3{fill:#2aace3;}.cls-4{fill:#333;}.cls-5{fill:#fbb03b;}.cls-6{fill:none;stroke:#fff;stroke-miterlimit:10;}</style></defs><title>InteractionDesign</title><rect class="cls-1" x="80.74" y="127.53" width="31.25" height="31.25" transform="translate(-83.1 31.04) rotate(-45)"/><path class="cls-2" d="M90.47,134.37v3.74H90v-3.74h0.48Z" transform="translate(-10.09 -79.03)"/><path class="cls-2" d="M91.23,137.61a1.28,1.28,0,0,0,.64.19,0.43,0.43,0,0,0,.52-0.4,0.55,0.55,0,0,0-.5-0.49,0.86,0.86,0,0,1-.71-0.76,0.83,0.83,0,0,1,.93-0.79,1.34,1.34,0,0,1,.66.17l-0.12.36a1,1,0,0,0-.55-0.16,0.39,0.39,0,0,0-.45.37c0,0.22.16,0.32,0.51,0.46a0.82,0.82,0,1,1-.3,1.62,1.53,1.53,0,0,1-.76-0.18Z" transform="translate(-10.09 -79.03)"/><path class="cls-2" d="M95.27,134.65v0.77H96v0.37h-0.7v1.45c0,0.33.09,0.52,0.37,0.52a1.09,1.09,0,0,0,.28,0l0,0.37a1.19,1.19,0,0,1-.43.07A0.68,0.68,0,0,1,95,138a1,1,0,0,1-.19-0.7V135.8H94.37v-0.37h0.42v-0.64Z" transform="translate(-10.09 -79.03)"/><path class="cls-2" d="M96.52,134.17H97v1.68h0a0.91,0.91,0,0,1,.35-0.34,1,1,0,0,1,.5-0.14,1,1,0,0,1,.94,1.15v1.6H98.32v-1.54a0.66,0.66,0,0,0-.62-0.8,0.7,0.7,0,0,0-.66.49,0.59,0.59,0,0,0,0,.23v1.62H96.52v-3.94Z" transform="translate(-10.09 -79.03)"/><path class="cls-2" d="M99.88,136.86a0.86,0.86,0,0,0,.92.93,1.77,1.77,0,0,0,.74-0.14l0.08,0.35a2.18,2.18,0,0,1-.89.17,1.25,1.25,0,0,1-1.32-1.36,1.3,1.3,0,0,1,1.26-1.45,1.14,1.14,0,0,1,1.11,1.27,1.78,1.78,0,0,1,0,.23H99.88Zm1.43-.35a0.7,0.7,0,0,0-.68-0.79,0.81,0.81,0,0,0-.75.79h1.43Z" transform="translate(-10.09 -79.03)"/><path class="cls-2" d="M85.7,144.05c0,0.28,0,.52,0,0.73H85.29l0-.44h0a1,1,0,0,1-.89.5,1,1,0,0,1-.93-1.18V142.1h0.49v1.49c0,0.51.16,0.86,0.6,0.86a0.71,0.71,0,0,0,.64-0.44,0.71,0.71,0,0,0,0-.25V142.1H85.7v2Z" transform="translate(-10.09 -79.03)"/><path class="cls-2" d="M86.45,144.29a1.28,1.28,0,0,0,.64.19,0.43,0.43,0,0,0,.52-0.4,0.55,0.55,0,0,0-.5-0.49,0.86,0.86,0,0,1-.71-0.76,0.83,0.83,0,0,1,.93-0.79,1.34,1.34,0,0,1,.66.17l-0.12.36a1,1,0,0,0-.55-0.16,0.39,0.39,0,0,0-.45.37c0,0.22.16,0.32,0.51,0.46a0.82,0.82,0,1,1-.3,1.62,1.53,1.53,0,0,1-.76-0.18Z" transform="translate(-10.09 -79.03)"/><path class="cls-2" d="M89,143.53a0.86,0.86,0,0,0,.92.93,1.77,1.77,0,0,0,.74-0.14l0.08,0.35a2.18,2.18,0,0,1-.89.17,1.25,1.25,0,0,1-1.32-1.36A1.3,1.3,0,0,1,89.78,142a1.14,1.14,0,0,1,1.11,1.27,1.78,1.78,0,0,1,0,.23H89Zm1.43-.35a0.7,0.7,0,0,0-.68-0.79,0.81,0.81,0,0,0-.75.79h1.43Z" transform="translate(-10.09 -79.03)"/><path class="cls-2" d="M91.5,142.94c0-.32,0-0.59,0-0.84h0.43l0,0.53h0a0.81,0.81,0,0,1,.74-0.59l0.14,0v0.46l-0.17,0a0.69,0.69,0,0,0-.66.63,1.36,1.36,0,0,0,0,.23v1.43H91.5v-1.85Z" transform="translate(-10.09 -79.03)"/><path class="cls-2" d="M94.43,144.29a1.28,1.28,0,0,0,.64.19,0.43,0.43,0,0,0,.52-0.4,0.55,0.55,0,0,0-.5-0.49,0.86,0.86,0,0,1-.71-0.76,0.83,0.83,0,0,1,.93-0.79,1.34,1.34,0,0,1,.66.17l-0.12.36a1,1,0,0,0-.55-0.16,0.39,0.39,0,0,0-.45.37c0,0.22.16,0.32,0.51,0.46a0.82,0.82,0,1,1-.3,1.62,1.53,1.53,0,0,1-.76-0.18Z" transform="translate(-10.09 -79.03)"/><path class="cls-2" d="M97.25,141.34a0.3,0.3,0,0,1-.61,0,0.3,0.3,0,0,1,.31-0.31A0.29,0.29,0,0,1,97.25,141.34Zm-0.54,3.44V142.1h0.49v2.69H96.7Z" transform="translate(-10.09 -79.03)"/><path class="cls-2" d="M100.32,142.1c0,0.19,0,.41,0,0.74v1.56a1.55,1.55,0,0,1-.38,1.23,1.43,1.43,0,0,1-1,.32,1.73,1.73,0,0,1-.89-0.22l0.12-.37a1.51,1.51,0,0,0,.79.21,0.81,0.81,0,0,0,.87-0.94v-0.3h0a1,1,0,0,1-.85.45,1.2,1.2,0,0,1-1.14-1.31A1.29,1.29,0,0,1,99,142a0.89,0.89,0,0,1,.84.47h0l0-.41h0.43Zm-0.51,1.06a0.72,0.72,0,0,0-.71-0.74,0.88,0.88,0,0,0-.8,1,0.84,0.84,0,0,0,.79,1,0.71,0.71,0,0,0,.68-0.5,0.85,0.85,0,0,0,0-.26v-0.48Z" transform="translate(-10.09 -79.03)"/><path class="cls-2" d="M101.08,142.83c0-.28,0-0.51,0-0.73h0.43l0,0.44h0a1,1,0,0,1,.89-0.51,1,1,0,0,1,.95,1.14v1.6h-0.49v-1.55a0.66,0.66,0,0,0-.62-0.79,0.72,0.72,0,0,0-.69.73v1.62h-0.49v-2Z" transform="translate(-10.09 -79.03)"/><path class="cls-2" d="M104.44,143.53a0.86,0.86,0,0,0,.92.93,1.77,1.77,0,0,0,.74-0.14l0.08,0.35a2.18,2.18,0,0,1-.89.17,1.25,1.25,0,0,1-1.32-1.36,1.3,1.3,0,0,1,1.26-1.45,1.14,1.14,0,0,1,1.11,1.27,1.78,1.78,0,0,1,0,.23h-1.89Zm1.43-.35a0.7,0.7,0,0,0-.68-0.79,0.81,0.81,0,0,0-.75.79h1.43Z" transform="translate(-10.09 -79.03)"/><path class="cls-2" d="M109.27,140.84v3.25c0,0.24,0,.51,0,0.69h-0.44l0-.47h0a1,1,0,0,1-.92.53,1.23,1.23,0,0,1-1.15-1.37A1.29,1.29,0,0,1,108,142a0.9,0.9,0,0,1,.81.41h0v-1.6h0.49Zm-0.49,2.35a0.86,0.86,0,0,0,0-.21,0.72,0.72,0,0,0-.71-0.57,0.89,0.89,0,0,0-.81,1,0.86,0.86,0,0,0,.79,1,0.73,0.73,0,0,0,.72-0.58,0.85,0.85,0,0,0,0-.21v-0.47Z" transform="translate(-10.09 -79.03)"/><path class="cls-2" d="M94,148a0.3,0.3,0,0,1-.61,0,0.3,0.3,0,0,1,.31-0.31A0.29,0.29,0,0,1,94,148Zm-0.54,3.44v-2.69h0.49v2.69H93.45Z" transform="translate(-10.09 -79.03)"/><path class="cls-2" d="M94.75,149.5c0-.28,0-0.51,0-0.73h0.43l0,0.44h0a1,1,0,0,1,.89-0.51,1,1,0,0,1,.95,1.14v1.6H96.55v-1.55a0.66,0.66,0,0,0-.62-0.79,0.72,0.72,0,0,0-.69.73v1.62H94.75v-2Z" transform="translate(-10.09 -79.03)"/><path class="cls-2" d="M98.21,150.4v-0.14a1.28,1.28,0,0,1,.34-1,1.22,1.22,0,0,0,.39-0.76,0.46,0.46,0,0,0-.53-0.48,1,1,0,0,0-.56.17l-0.13-.35a1.46,1.46,0,0,1,.79-0.22,0.82,0.82,0,0,1,.93.82,1.5,1.5,0,0,1-.48,1,1.1,1.1,0,0,0-.32.82v0.14H98.21Zm-0.12.78a0.33,0.33,0,0,1,.33-0.35A0.35,0.35,0,1,1,98.09,151.18Z" transform="translate(-10.09 -79.03)"/><rect class="cls-1" x="281.84" y="122.49" width="31.25" height="31.25" transform="translate(-20.63 171.76) rotate(-45)"/><path class="cls-2" d="M287.51,136.05a6.92,6.92,0,0,1,1-.08,2.14,2.14,0,0,1,1.52.47,1.72,1.72,0,0,1,.53,1.34,2,2,0,0,1-.54,1.46,2.31,2.31,0,0,1-1.66.54,7.79,7.79,0,0,1-.88,0v-3.68Zm0.48,3.31a3,3,0,0,0,.49,0,1.44,1.44,0,0,0,1.59-1.59,1.34,1.34,0,0,0-1.52-1.44,2.74,2.74,0,0,0-.57.05v3Z" transform="translate(-10.09 -79.03)"/><path class="cls-2" d="M292.69,139.75l0-.34h0a1,1,0,0,1-.82.4A0.77,0.77,0,0,1,291,139c0-.65.58-1,1.62-1V138a0.55,0.55,0,0,0-.61-0.62,1.34,1.34,0,0,0-.7.2l-0.11-.32a1.67,1.67,0,0,1,.88-0.24,1,1,0,0,1,1,1.1v1a3.8,3.8,0,0,0,0,.64h-0.44Zm-0.07-1.37c-0.53,0-1.14.08-1.14,0.61a0.43,0.43,0,0,0,.46.47,0.67,0.67,0,0,0,.65-0.45,0.51,0.51,0,0,0,0-.16v-0.47Z" transform="translate(-10.09 -79.03)"/><path class="cls-2" d="M294.45,136.29v0.77h0.7v0.37h-0.7v1.45c0,0.33.09,0.52,0.37,0.52a1.09,1.09,0,0,0,.28,0l0,0.37a1.19,1.19,0,0,1-.43.07,0.68,0.68,0,0,1-.53-0.21,1,1,0,0,1-.19-0.7v-1.47h-0.42v-0.37H294v-0.64Z" transform="translate(-10.09 -79.03)"/><path class="cls-2" d="M297.19,139.75l0-.34h0a1,1,0,0,1-.82.4,0.77,0.77,0,0,1-.82-0.77c0-.65.58-1,1.62-1V138a0.55,0.55,0,0,0-.61-0.62,1.34,1.34,0,0,0-.7.2l-0.11-.32a1.67,1.67,0,0,1,.88-0.24,1,1,0,0,1,1,1.1v1a3.8,3.8,0,0,0,0,.64h-0.44Zm-0.07-1.37c-0.53,0-1.14.08-1.14,0.61a0.43,0.43,0,0,0,.46.47,0.67,0.67,0,0,0,.65-0.45,0.51,0.51,0,0,0,0-.16v-0.47Z" transform="translate(-10.09 -79.03)"/><path class="cls-2" d="M302.77,137.83a1.75,1.75,0,0,1-1.74,2,1.72,1.72,0,0,1-1.68-1.9,1.78,1.78,0,0,1,1.74-2A1.7,1.7,0,0,1,302.77,137.83Zm-2.9.06a1.24,1.24,0,1,0,1.2-1.56A1.34,1.34,0,0,0,299.87,137.9Z" transform="translate(-10.09 -79.03)"/><path class="cls-2" d="M303.87,138.29h0l0.24-.31,0.79-.93h0.59l-1,1.1,1.18,1.58H305l-0.93-1.29-0.25.28v1h-0.48V135.8h0.48v2.49Z" transform="translate(-10.09 -79.03)"/><path class="cls-2" d="M306.37,138.68v-0.14a1.28,1.28,0,0,1,.34-1,1.22,1.22,0,0,0,.39-0.76,0.46,0.46,0,0,0-.53-0.48,1,1,0,0,0-.56.17l-0.13-.35a1.46,1.46,0,0,1,.79-0.22,0.82,0.82,0,0,1,.93.82,1.5,1.5,0,0,1-.48,1,1.1,1.1,0,0,0-.32.82v0.14h-0.43Zm-0.12.78a0.33,0.33,0,0,1,.33-0.35A0.35,0.35,0,1,1,306.25,139.46Z" transform="translate(-10.09 -79.03)"/><rect class="cls-1" x="458.37" y="122.49" width="31.25" height="31.25" transform="translate(31.07 296.59) rotate(-45)"/><path class="cls-2" d="M464,136.05a6.93,6.93,0,0,1,1-.08,2.14,2.14,0,0,1,1.52.47,1.72,1.72,0,0,1,.53,1.34,2,2,0,0,1-.54,1.46,2.31,2.31,0,0,1-1.66.54,7.78,7.78,0,0,1-.88,0v-3.68Zm0.48,3.31a3,3,0,0,0,.49,0,1.44,1.44,0,0,0,1.59-1.59,1.34,1.34,0,0,0-1.52-1.44,2.74,2.74,0,0,0-.57.05v3Z" transform="translate(-10.09 -79.03)"/><path class="cls-2" d="M469.21,139.75l0-.34h0a1,1,0,0,1-.82.4,0.77,0.77,0,0,1-.82-0.77c0-.65.58-1,1.62-1V138a0.55,0.55,0,0,0-.61-0.62,1.34,1.34,0,0,0-.7.2l-0.11-.32a1.67,1.67,0,0,1,.88-0.24,1,1,0,0,1,1,1.1v1a3.8,3.8,0,0,0,0,.64h-0.44Zm-0.07-1.37c-0.53,0-1.14.08-1.14,0.61a0.43,0.43,0,0,0,.46.47,0.67,0.67,0,0,0,.65-0.45,0.51,0.51,0,0,0,0-.16v-0.47Z" transform="translate(-10.09 -79.03)"/><path class="cls-2" d="M471,136.29v0.77h0.7v0.37H471v1.45c0,0.33.09,0.52,0.37,0.52a1.1,1.1,0,0,0,.28,0l0,0.37a1.19,1.19,0,0,1-.43.07,0.68,0.68,0,0,1-.53-0.21,1,1,0,0,1-.19-0.7v-1.47h-0.42v-0.37h0.42v-0.64Z" transform="translate(-10.09 -79.03)"/><path class="cls-2" d="M473.71,139.75l0-.34h0a1,1,0,0,1-.82.4A0.77,0.77,0,0,1,472,139c0-.65.58-1,1.62-1V138a0.55,0.55,0,0,0-.61-0.62,1.34,1.34,0,0,0-.7.2l-0.11-.32a1.67,1.67,0,0,1,.88-0.24,1,1,0,0,1,1,1.1v1a3.8,3.8,0,0,0,0,.64h-0.44Zm-0.07-1.37c-0.53,0-1.14.08-1.14,0.61a0.43,0.43,0,0,0,.46.47,0.67,0.67,0,0,0,.65-0.45,0.51,0.51,0,0,0,0-.16v-0.47Z" transform="translate(-10.09 -79.03)"/><path class="cls-2" d="M479.3,137.83a1.75,1.75,0,0,1-1.74,2,1.72,1.72,0,0,1-1.68-1.9,1.78,1.78,0,0,1,1.74-2A1.7,1.7,0,0,1,479.3,137.83Zm-2.9.06a1.24,1.24,0,1,0,1.2-1.56A1.34,1.34,0,0,0,476.39,137.9Z" transform="translate(-10.09 -79.03)"/><path class="cls-2" d="M480.4,138.29h0l0.24-.31,0.79-.93H482l-1,1.1,1.18,1.58h-0.59l-0.93-1.29-0.25.28v1h-0.48V135.8h0.48v2.49Z" transform="translate(-10.09 -79.03)"/><path class="cls-2" d="M482.9,138.68v-0.14a1.27,1.27,0,0,1,.34-1,1.22,1.22,0,0,0,.39-0.76,0.46,0.46,0,0,0-.53-0.48,1,1,0,0,0-.56.17l-0.13-.35a1.46,1.46,0,0,1,.79-0.22,0.82,0.82,0,0,1,.93.82,1.5,1.5,0,0,1-.48,1,1.1,1.1,0,0,0-.32.82v0.14H482.9Zm-0.12.78a0.33,0.33,0,0,1,.33-0.35A0.35,0.35,0,1,1,482.78,139.46Z" transform="translate(-10.09 -79.03)"/><rect class="cls-3" x="509.05" y="53.09" width="22.07" height="11.99"/><path class="cls-2" d="M526.44,140.52v-2.35L524.68,135h0.81l0.78,1.53c0.21,0.42.38,0.76,0.55,1.14h0c0.16-.36.35-0.72,0.56-1.14l0.8-1.53H529l-1.86,3.18v2.36h-0.72Z" transform="translate(-10.09 -79.03)"/><path class="cls-2" d="M529.4,138.67a1.28,1.28,0,0,0,1.37,1.38,2.62,2.62,0,0,0,1.1-.21l0.12,0.52a3.22,3.22,0,0,1-1.32.25,1.85,1.85,0,0,1-2-2,1.93,1.93,0,0,1,1.87-2.15,1.69,1.69,0,0,1,1.64,1.88,2.82,2.82,0,0,1,0,.34h-2.8Zm2.12-.52a1,1,0,0,0-1-1.18,1.2,1.2,0,0,0-1.11,1.18h2.11Z" transform="translate(-10.09 -79.03)"/><path class="cls-2" d="M533,139.78a1.9,1.9,0,0,0,1,.29,0.64,0.64,0,0,0,.77-0.59,0.82,0.82,0,0,0-.74-0.73,1.28,1.28,0,0,1-1.05-1.13,1.23,1.23,0,0,1,1.37-1.17,2,2,0,0,1,1,.25l-0.18.53a1.55,1.55,0,0,0-.81-0.23,0.58,0.58,0,0,0-.67.54c0,0.33.24,0.48,0.76,0.67a1.22,1.22,0,1,1-.44,2.39,2.28,2.28,0,0,1-1.12-.27Z" transform="translate(-10.09 -79.03)"/><rect class="cls-3" x="332.52" y="53.09" width="22.07" height="11.99"/><path class="cls-2" d="M349.91,140.52v-2.35L348.16,135H349l0.78,1.53c0.21,0.42.38,0.76,0.55,1.14h0c0.16-.36.35-0.72,0.56-1.14l0.8-1.53h0.81l-1.86,3.18v2.36h-0.72Z" transform="translate(-10.09 -79.03)"/><path class="cls-2" d="M352.88,138.67a1.28,1.28,0,0,0,1.37,1.38,2.62,2.62,0,0,0,1.1-.21l0.12,0.52a3.22,3.22,0,0,1-1.32.25,1.85,1.85,0,0,1-2-2,1.93,1.93,0,0,1,1.87-2.15,1.69,1.69,0,0,1,1.64,1.88,2.72,2.72,0,0,1,0,.34h-2.8Zm2.12-.52a1,1,0,0,0-1-1.18,1.2,1.2,0,0,0-1.11,1.18H355Z" transform="translate(-10.09 -79.03)"/><path class="cls-2" d="M356.49,139.78a1.9,1.9,0,0,0,1,.29,0.64,0.64,0,0,0,.77-0.59,0.82,0.82,0,0,0-.74-0.73,1.28,1.28,0,0,1-1.05-1.13,1.23,1.23,0,0,1,1.37-1.17,2,2,0,0,1,1,.25l-0.18.53a1.55,1.55,0,0,0-.81-0.23,0.58,0.58,0,0,0-.67.54c0,0.33.24,0.48,0.76,0.67a1.22,1.22,0,1,1-.44,2.39,2.28,2.28,0,0,1-1.12-.27Z" transform="translate(-10.09 -79.03)"/><rect class="cls-3" x="332.52" y="207.3" width="22.07" height="11.99"/><path class="cls-2" d="M349.91,294.73v-2.35l-1.75-3.19H349l0.78,1.53c0.21,0.42.38,0.76,0.55,1.14h0c0.16-.36.35-0.72,0.56-1.14l0.8-1.53h0.81l-1.86,3.18v2.36h-0.72Z" transform="translate(-10.09 -79.03)"/><path class="cls-2" d="M352.88,292.87a1.28,1.28,0,0,0,1.37,1.38,2.62,2.62,0,0,0,1.1-.21l0.12,0.52a3.22,3.22,0,0,1-1.32.25,1.85,1.85,0,0,1-2-2,1.93,1.93,0,0,1,1.87-2.15,1.69,1.69,0,0,1,1.64,1.88,2.72,2.72,0,0,1,0,.34h-2.8Zm2.12-.52a1,1,0,0,0-1-1.18,1.2,1.2,0,0,0-1.11,1.18H355Z" transform="translate(-10.09 -79.03)"/><path class="cls-2" d="M356.49,294a1.9,1.9,0,0,0,1,.29,0.64,0.64,0,0,0,.77-0.59,0.82,0.82,0,0,0-.74-0.73,1.28,1.28,0,0,1-1.05-1.13,1.23,1.23,0,0,1,1.37-1.17,2,2,0,0,1,1,.25l-0.18.53a1.55,1.55,0,0,0-.81-0.23,0.58,0.58,0,0,0-.67.54c0,0.33.24,0.48,0.76,0.67a1.22,1.22,0,1,1-.44,2.39,2.28,2.28,0,0,1-1.12-.27Z" transform="translate(-10.09 -79.03)"/><rect class="cls-4" x="276.34" y="12.53" width="22.07" height="11.99"/><path class="cls-1" d="M293.14,100V94.42h0.78l1.78,2.8a15.73,15.73,0,0,1,1,1.8h0c-0.07-.74-0.08-1.41-0.08-2.28V94.42h0.67V100h-0.72l-1.76-2.81a17.69,17.69,0,0,1-1-1.85h0c0,0.7.06,1.37,0.06,2.29V100h-0.67Z" transform="translate(-10.09 -79.03)"/><path class="cls-1" d="M302.12,97.94a2,2,0,0,1-2,2.11,1.89,1.89,0,0,1-1.91-2,1.94,1.94,0,0,1,2-2.11A1.89,1.89,0,0,1,302.12,97.94ZM299,98a1.24,1.24,0,1,0,1.23-1.55A1.36,1.36,0,0,0,299,98Z" transform="translate(-10.09 -79.03)"/><rect class="cls-4" x="231.2" y="174.79" width="22.07" height="11.99"/><path class="cls-1" d="M248,262.23v-5.54h0.78l1.78,2.8a15.73,15.73,0,0,1,1,1.8h0c-0.07-.74-0.08-1.41-0.08-2.28v-2.32h0.67v5.54h-0.72l-1.76-2.81a17.69,17.69,0,0,1-1-1.85h0c0,0.7.06,1.37,0.06,2.29v2.37H248Z" transform="translate(-10.09 -79.03)"/><path class="cls-1" d="M257,260.2a2,2,0,0,1-2,2.11,1.89,1.89,0,0,1-1.91-2,1.94,1.94,0,0,1,2-2.11A1.89,1.89,0,0,1,257,260.2Zm-3.16,0A1.24,1.24,0,1,0,255,258.7,1.36,1.36,0,0,0,253.82,260.24Z" transform="translate(-10.09 -79.03)"/><rect class="cls-4" x="131.41" y="58.13" width="22.07" height="11.99"/><path class="cls-1" d="M148.21,145.57V140H149l1.78,2.8a15.73,15.73,0,0,1,1,1.8h0c-0.07-.74-0.08-1.41-0.08-2.28V140h0.67v5.54h-0.72l-1.76-2.81a17.69,17.69,0,0,1-1-1.85h0c0,0.7.06,1.37,0.06,2.29v2.37h-0.67Z" transform="translate(-10.09 -79.03)"/><path class="cls-1" d="M157.19,143.54a2,2,0,0,1-2,2.11,1.89,1.89,0,0,1-1.91-2,1.94,1.94,0,0,1,2-2.11A1.89,1.89,0,0,1,157.19,143.54Zm-3.16,0a1.24,1.24,0,1,0,1.23-1.55A1.36,1.36,0,0,0,154,143.58Z" transform="translate(-10.09 -79.03)"/><rect class="cls-4" x="452.65" width="22.07" height="11.99"/><path class="cls-1" d="M469.45,87.44V81.89h0.78L472,84.7a15.65,15.65,0,0,1,1,1.8h0c-0.07-.74-0.08-1.41-0.08-2.28V81.89h0.67v5.54h-0.72l-1.76-2.81a17.51,17.51,0,0,1-1-1.85h0c0,0.7.06,1.37,0.06,2.29v2.37h-0.67Z" transform="translate(-10.09 -79.03)"/><path class="cls-1" d="M478.43,85.41a2,2,0,0,1-2,2.11,1.89,1.89,0,0,1-1.91-2,1.94,1.94,0,0,1,2-2.11A1.89,1.89,0,0,1,478.43,85.41Zm-3.16,0a1.24,1.24,0,1,0,1.22-1.55A1.35,1.35,0,0,0,475.27,85.45Z" transform="translate(-10.09 -79.03)"/><rect class="cls-5" y="49.25" width="41.12" height="28.78"/><path class="cls-2" d="M17.34,145.17a4,4,0,0,1-1.64.29,2.9,2.9,0,0,1-3.07-3.14,3.09,3.09,0,0,1,3.24-3.26,3.33,3.33,0,0,1,1.47.28l-0.19.65a2.92,2.92,0,0,0-1.25-.26,2.31,2.31,0,0,0-2.42,2.56,2.26,2.26,0,0,0,2.39,2.5,3.21,3.21,0,0,0,1.31-.26Z" transform="translate(-10.09 -79.03)"/><path class="cls-2" d="M18.31,138.83h0.81v2.78h0a1.5,1.5,0,0,1,.58-0.57,1.67,1.67,0,0,1,.83-0.23,1.62,1.62,0,0,1,1.56,1.91v2.65H21.3v-2.56a1.1,1.1,0,0,0-1-1.33,1.17,1.17,0,0,0-1.09.81,1,1,0,0,0-.06.39v2.69H18.31v-6.54Z" transform="translate(-10.09 -79.03)"/><path class="cls-2" d="M23.88,143.29a1.43,1.43,0,0,0,1.53,1.55,2.93,2.93,0,0,0,1.23-.23l0.14,0.58a3.61,3.61,0,0,1-1.48.28,2.07,2.07,0,0,1-2.19-2.25,2.17,2.17,0,0,1,2.09-2.41,1.89,1.89,0,0,1,1.84,2.1,3,3,0,0,1,0,.38H23.88Zm2.38-.58a1.15,1.15,0,0,0-1.12-1.32,1.34,1.34,0,0,0-1.24,1.32h2.37Z" transform="translate(-10.09 -79.03)"/><path class="cls-2" d="M31.23,145.21a3,3,0,0,1-1.28.26,2.12,2.12,0,0,1-2.22-2.28,2.27,2.27,0,0,1,2.4-2.37,2.71,2.71,0,0,1,1.12.23l-0.18.63a1.88,1.88,0,0,0-.94-0.21,1.68,1.68,0,0,0,0,3.35,2.31,2.31,0,0,0,1-.22Z" transform="translate(-10.09 -79.03)"/><path class="cls-2" d="M33,143h0c0.11-.16.27-0.35,0.4-0.51l1.31-1.54h1L34,142.75l2,2.63h-1l-1.54-2.14L33,143.7v1.68h-0.8v-6.54H33V143Z" transform="translate(-10.09 -79.03)"/><path class="cls-2" d="M40.54,143.11a2.18,2.18,0,0,1-2.22,2.37,2.12,2.12,0,0,1-2.14-2.29,2.18,2.18,0,0,1,2.21-2.37A2.11,2.11,0,0,1,40.54,143.11Zm-3.54,0a1.39,1.39,0,1,0,1.37-1.73A1.52,1.52,0,0,0,37,143.15Z" transform="translate(-10.09 -79.03)"/><path class="cls-2" d="M45.29,144.16c0,0.46,0,.87,0,1.22H44.61l0-.73h0a1.68,1.68,0,0,1-1.47.83c-0.7,0-1.54-.39-1.54-2v-2.61h0.81v2.47c0,0.85.26,1.42,1,1.42a1.14,1.14,0,0,0,1.14-1.15v-2.74h0.81v3.24Z" transform="translate(-10.09 -79.03)"/><path class="cls-2" d="M47.62,139.63v1.28h1.16v0.62H47.62v2.41c0,0.55.16,0.87,0.61,0.87a1.82,1.82,0,0,0,.47-0.06l0,0.61a2,2,0,0,1-.72.11,1.12,1.12,0,0,1-.88-0.34,1.65,1.65,0,0,1-.31-1.16v-2.43H46.13v-0.62h0.69v-1.07Z" transform="translate(-10.09 -79.03)"/><rect class="cls-5" x="377.63" y="44.69" width="41.12" height="28.78"/><path class="cls-2" d="M395.45,129.16a7.78,7.78,0,0,1,1.47-.13,2.57,2.57,0,0,1,1.71.45,1.3,1.3,0,0,1,.52,1.1,1.47,1.47,0,0,1-1.05,1.36v0a1.6,1.6,0,0,1,1.28,1.56,1.67,1.67,0,0,1-.53,1.24,3.12,3.12,0,0,1-2.15.58,9.34,9.34,0,0,1-1.24-.07v-6.11Zm0.8,2.54H397a1.15,1.15,0,0,0,1.35-1c0-.73-0.55-1-1.36-1a3.43,3.43,0,0,0-.71.06v2Zm0,3a4.25,4.25,0,0,0,.67,0c0.83,0,1.59-.3,1.59-1.21s-0.73-1.2-1.6-1.2h-0.66v2.37Z" transform="translate(-10.09 -79.03)"/><path class="cls-2" d="M401.32,129.57a0.5,0.5,0,0,1-1,0,0.49,0.49,0,0,1,.51-0.51A0.48,0.48,0,0,1,401.32,129.57Zm-0.9,5.71v-4.46h0.81v4.46h-0.81Z" transform="translate(-10.09 -79.03)"/><path class="cls-2" d="M402.57,128.75h0.81v6.54h-0.81v-6.54Z" transform="translate(-10.09 -79.03)"/><path class="cls-2" d="M404.75,128.75h0.81v6.54h-0.81v-6.54Z" transform="translate(-10.09 -79.03)"/><path class="cls-2" d="M407.83,129.57a0.5,0.5,0,0,1-1,0,0.49,0.49,0,0,1,.51-0.51A0.48,0.48,0,0,1,407.83,129.57Zm-0.9,5.71v-4.46h0.81v4.46h-0.81Z" transform="translate(-10.09 -79.03)"/><path class="cls-2" d="M409.08,132c0-.46,0-0.84,0-1.21h0.72l0,0.74h0a1.64,1.64,0,0,1,1.47-.84,1.62,1.62,0,0,1,1.58,1.9v2.66h-0.81v-2.57a1.09,1.09,0,0,0-1-1.32,1.19,1.19,0,0,0-1.14,1.21v2.68h-0.81V132Z" transform="translate(-10.09 -79.03)"/><path class="cls-2" d="M418,130.83c0,0.32,0,.68,0,1.23v2.59a2.56,2.56,0,0,1-.64,2,2.36,2.36,0,0,1-1.62.53,2.88,2.88,0,0,1-1.48-.37l0.2-.62a2.51,2.51,0,0,0,1.31.35,1.34,1.34,0,0,0,1.44-1.56v-0.5h0a1.59,1.59,0,0,1-1.42.75,2,2,0,0,1-1.9-2.17,2.14,2.14,0,0,1,2-2.37,1.48,1.48,0,0,1,1.39.77h0l0-.67H418Zm-0.84,1.76a1.15,1.15,0,0,0,0-.37,1.17,1.17,0,0,0-1.13-.86,1.45,1.45,0,0,0-1.33,1.69,1.4,1.4,0,0,0,1.32,1.6,1.18,1.18,0,0,0,1.12-.83,1.39,1.39,0,0,0,.07-0.43v-0.8Z" transform="translate(-10.09 -79.03)"/><path class="cls-2" d="M418.67,135.66l2.57-6.68h0.63l-2.58,6.68h-0.62Z" transform="translate(-10.09 -79.03)"/><path class="cls-2" d="M391.51,145.37a2.84,2.84,0,0,0,1.44.41,1.11,1.11,0,0,0,1.3-1.06c0-.58-0.33-0.91-1.17-1.23-1-.36-1.64-0.88-1.64-1.76a1.79,1.79,0,0,1,2-1.69,2.82,2.82,0,0,1,1.37.3l-0.22.65a2.47,2.47,0,0,0-1.18-.29,1,1,0,0,0-1.17.93c0,0.58.38,0.87,1.23,1.2,1.05,0.41,1.59.91,1.59,1.82s-0.71,1.79-2.18,1.79a3.21,3.21,0,0,1-1.58-.4Z" transform="translate(-10.09 -79.03)"/><path class="cls-2" d="M396.14,139.81H397v2.78h0a1.5,1.5,0,0,1,.58-0.57,1.67,1.67,0,0,1,.83-0.23,1.62,1.62,0,0,1,1.56,1.91v2.65h-0.81v-2.56a1.1,1.1,0,0,0-1-1.33,1.17,1.17,0,0,0-1.09.81,1,1,0,0,0-.06.39v2.69h-0.81v-6.54Z" transform="translate(-10.09 -79.03)"/><path class="cls-2" d="M402.16,140.64a0.5,0.5,0,0,1-1,0,0.49,0.49,0,0,1,.51-0.51A0.48,0.48,0,0,1,402.16,140.64Zm-0.9,5.71v-4.46h0.81v4.46h-0.81Z" transform="translate(-10.09 -79.03)"/><path class="cls-2" d="M403.42,143.35c0-.57,0-1,0-1.46h0.73l0,0.77h0a1.76,1.76,0,0,1,1.59-.87,2,2,0,0,1,1.89,2.27,2.11,2.11,0,0,1-2,2.4,1.56,1.56,0,0,1-1.37-.7h0v2.42h-0.8v-4.83Zm0.8,1.19a1.81,1.81,0,0,0,0,.33,1.25,1.25,0,0,0,1.22.95,1.74,1.74,0,0,0,0-3.38,1.29,1.29,0,0,0-1.23,1,1.28,1.28,0,0,0-.06.33v0.77Z" transform="translate(-10.09 -79.03)"/><path class="cls-2" d="M408.66,143.35c0-.57,0-1,0-1.46h0.73l0,0.77h0a1.76,1.76,0,0,1,1.59-.87,2,2,0,0,1,1.89,2.27,2.11,2.11,0,0,1-2,2.4,1.56,1.56,0,0,1-1.37-.7h0v2.42h-0.8v-4.83Zm0.8,1.19a1.81,1.81,0,0,0,0,.33,1.25,1.25,0,0,0,1.22.95,1.74,1.74,0,0,0,0-3.38,1.29,1.29,0,0,0-1.23,1,1.28,1.28,0,0,0-.06.33v0.77Z" transform="translate(-10.09 -79.03)"/><path class="cls-2" d="M414.81,140.64a0.5,0.5,0,0,1-1,0,0.49,0.49,0,0,1,.51-0.51A0.48,0.48,0,0,1,414.81,140.64Zm-0.9,5.71v-4.46h0.81v4.46h-0.81Z" transform="translate(-10.09 -79.03)"/><path class="cls-2" d="M416.06,143.1c0-.46,0-0.84,0-1.21h0.72l0,0.74h0a1.64,1.64,0,0,1,1.47-.84,1.62,1.62,0,0,1,1.58,1.9v2.66H419v-2.57a1.09,1.09,0,0,0-1-1.32,1.19,1.19,0,0,0-1.14,1.21v2.68h-0.81V143.1Z" transform="translate(-10.09 -79.03)"/><path class="cls-2" d="M425,141.89c0,0.32,0,.68,0,1.23v2.59a2.56,2.56,0,0,1-.64,2,2.36,2.36,0,0,1-1.62.53,2.88,2.88,0,0,1-1.48-.37l0.2-.62a2.51,2.51,0,0,0,1.31.35,1.34,1.34,0,0,0,1.44-1.56v-0.5h0a1.59,1.59,0,0,1-1.42.75,2,2,0,0,1-1.9-2.17,2.14,2.14,0,0,1,2-2.37,1.48,1.48,0,0,1,1.39.77h0l0-.67H425Zm-0.84,1.76a1.14,1.14,0,0,0,0-.37,1.17,1.17,0,0,0-1.13-.86,1.45,1.45,0,0,0-1.33,1.69,1.4,1.4,0,0,0,1.32,1.6,1.18,1.18,0,0,0,1.12-.83,1.39,1.39,0,0,0,.07-0.43v-0.8Z" transform="translate(-10.09 -79.03)"/><rect class="cls-5" x="554.16" y="44.69" width="41.12" height="28.78"/><path class="cls-2" d="M575.43,129.15A9.31,9.31,0,0,1,577,129a2.55,2.55,0,0,1,1.74.52,1.67,1.67,0,0,1,.54,1.3,1.83,1.83,0,0,1-.48,1.33,2.57,2.57,0,0,1-1.9.68,2.78,2.78,0,0,1-.65-0.06v2.49h-0.8v-6.14Zm0.8,3a2.7,2.7,0,0,0,.66.06,1.33,1.33,0,0,0,1.56-1.33,1.23,1.23,0,0,0-1.47-1.22,3.39,3.39,0,0,0-.76.06v2.42Z" transform="translate(-10.09 -79.03)"/><path class="cls-2" d="M580.26,128.74h0.81v6.54h-0.81v-6.54Z" transform="translate(-10.09 -79.03)"/><path class="cls-2" d="M584.91,135.29l-0.06-.56h0a1.66,1.66,0,0,1-1.36.66,1.27,1.27,0,0,1-1.36-1.28c0-1.08,1-1.67,2.68-1.66v-0.09a0.92,0.92,0,0,0-1-1,2.23,2.23,0,0,0-1.16.33l-0.18-.53a2.77,2.77,0,0,1,1.46-.4,1.58,1.58,0,0,1,1.7,1.82v1.67a6.35,6.35,0,0,0,.07,1.07h-0.74ZM584.79,133c-0.88,0-1.89.14-1.89,1a0.72,0.72,0,0,0,.76.77,1.11,1.11,0,0,0,1.08-.75,0.83,0.83,0,0,0,0-.26V133Z" transform="translate(-10.09 -79.03)"/><path class="cls-2" d="M590.06,135.12a3,3,0,0,1-1.28.26,2.12,2.12,0,0,1-2.22-2.28,2.27,2.27,0,0,1,2.4-2.37,2.71,2.71,0,0,1,1.13.23l-0.18.63a1.88,1.88,0,0,0-.94-0.21,1.68,1.68,0,0,0,0,3.35,2.3,2.3,0,0,0,1-.22Z" transform="translate(-10.09 -79.03)"/><path class="cls-2" d="M591.41,133.21a1.43,1.43,0,0,0,1.53,1.55,2.93,2.93,0,0,0,1.24-.23l0.14,0.58a3.6,3.6,0,0,1-1.48.28,2.07,2.07,0,0,1-2.19-2.25,2.17,2.17,0,0,1,2.09-2.41,1.89,1.89,0,0,1,1.84,2.1,3,3,0,0,1,0,.38h-3.13Zm2.38-.58a1.15,1.15,0,0,0-1.12-1.32,1.34,1.34,0,0,0-1.24,1.32h2.37Z" transform="translate(-10.09 -79.03)"/><path class="cls-2" d="M579.77,143.18c0,2.14-1.3,3.27-2.88,3.27a2.85,2.85,0,0,1-2.79-3.15A3,3,0,0,1,577,140C578.68,140,579.77,141.34,579.77,143.18Zm-4.82.1c0,1.33.72,2.52,2,2.52s2-1.17,2-2.58c0-1.24-.65-2.53-2-2.53S575,141.92,575,143.28Z" transform="translate(-10.09 -79.03)"/><path class="cls-2" d="M580.79,143.28c0-.53,0-1,0-1.39h0.71l0,0.88h0a1.34,1.34,0,0,1,1.24-1,0.89,0.89,0,0,1,.23,0v0.77a1.2,1.2,0,0,0-.28,0,1.14,1.14,0,0,0-1.09,1,2.27,2.27,0,0,0,0,.38v2.38h-0.8v-3.07Z" transform="translate(-10.09 -79.03)"/><path class="cls-2" d="M587.56,139.81v5.39c0,0.4,0,.85,0,1.15h-0.73l0-.77h0a1.65,1.65,0,0,1-1.52.88,2,2,0,0,1-1.91-2.27,2.13,2.13,0,0,1,2-2.4,1.49,1.49,0,0,1,1.34.68h0v-2.66h0.81Zm-0.81,3.9a1.44,1.44,0,0,0,0-.34,1.19,1.19,0,0,0-1.17-.94,1.48,1.48,0,0,0-1.34,1.72,1.42,1.42,0,0,0,1.32,1.65,1.22,1.22,0,0,0,1.19-1,1.43,1.43,0,0,0,0-.35v-0.77Z" transform="translate(-10.09 -79.03)"/><path class="cls-2" d="M589.36,144.27a1.43,1.43,0,0,0,1.53,1.55,2.93,2.93,0,0,0,1.24-.23l0.14,0.58a3.61,3.61,0,0,1-1.48.28,2.07,2.07,0,0,1-2.19-2.25,2.16,2.16,0,0,1,2.09-2.41,1.89,1.89,0,0,1,1.84,2.1,3,3,0,0,1,0,.38h-3.13Zm2.38-.58a1.15,1.15,0,0,0-1.12-1.32,1.34,1.34,0,0,0-1.24,1.32h2.37Z" transform="translate(-10.09 -79.03)"/><path class="cls-2" d="M593.53,143.28c0-.53,0-1,0-1.39h0.71l0,0.88h0a1.34,1.34,0,0,1,1.24-1,0.9,0.9,0,0,1,.23,0v0.77a1.21,1.21,0,0,0-.28,0,1.14,1.14,0,0,0-1.09,1,2.27,2.27,0,0,0,0,.38v2.38h-0.8v-3.07Z" transform="translate(-10.09 -79.03)"/><rect class="cls-1" x="634.9" y="122.49" width="31.25" height="31.25" transform="translate(82.78 421.41) rotate(-45)"/><path class="cls-2" d="M647.48,134.5a1.75,1.75,0,0,1-1.74,2,1.72,1.72,0,0,1-1.68-1.9,1.78,1.78,0,0,1,1.74-2A1.7,1.7,0,0,1,647.48,134.5Zm-2.9.06a1.24,1.24,0,1,0,1.2-1.56A1.34,1.34,0,0,0,644.57,134.56Z" transform="translate(-10.09 -79.03)"/><path class="cls-2" d="M648.09,134.56c0-.32,0-0.59,0-0.84h0.43l0,0.53h0a0.81,0.81,0,0,1,.74-0.59l0.14,0v0.46l-0.17,0a0.68,0.68,0,0,0-.66.63,1.31,1.31,0,0,0,0,.23v1.43h-0.48v-1.85Z" transform="translate(-10.09 -79.03)"/><path class="cls-2" d="M652.18,132.47v3.25c0,0.24,0,.51,0,0.69h-0.44l0-.47h0a1,1,0,0,1-.92.53,1.23,1.23,0,0,1-1.15-1.37,1.29,1.29,0,0,1,1.21-1.44,0.9,0.9,0,0,1,.81.41h0v-1.6h0.49Zm-0.49,2.35a0.87,0.87,0,0,0,0-.21A0.72,0.72,0,0,0,651,134a0.89,0.89,0,0,0-.81,1,0.86,0.86,0,0,0,.79,1,0.73,0.73,0,0,0,.72-0.58,0.85,0.85,0,0,0,0-.21v-0.47Z" transform="translate(-10.09 -79.03)"/><path class="cls-2" d="M653.26,135.15a0.86,0.86,0,0,0,.92.93,1.77,1.77,0,0,0,.74-0.14L655,136.3a2.16,2.16,0,0,1-.89.17,1.25,1.25,0,0,1-1.32-1.36,1.31,1.31,0,0,1,1.26-1.45,1.14,1.14,0,0,1,1.11,1.27,2,2,0,0,1,0,.23h-1.89Zm1.43-.35A0.7,0.7,0,0,0,654,134a0.81,0.81,0,0,0-.75.79h1.43Z" transform="translate(-10.09 -79.03)"/><path class="cls-2" d="M655.78,134.56c0-.32,0-0.59,0-0.84h0.43l0,0.53h0a0.81,0.81,0,0,1,.74-0.59l0.14,0v0.46l-0.17,0a0.68,0.68,0,0,0-.66.63,1.31,1.31,0,0,0,0,.23v1.43h-0.48v-1.85Z" transform="translate(-10.09 -79.03)"/><path class="cls-2" d="M649.59,141.17a1.75,1.75,0,0,1-1.74,2,1.72,1.72,0,0,1-1.68-1.9,1.78,1.78,0,0,1,1.74-2A1.7,1.7,0,0,1,649.59,141.17Zm-2.9.06a1.24,1.24,0,1,0,1.2-1.56A1.34,1.34,0,0,0,646.69,141.23Z" transform="translate(-10.09 -79.03)"/><path class="cls-2" d="M650.23,139.34h0.48v1.81h0l0.29-.4,1.14-1.41h0.6l-1.35,1.59,1.46,2.16H652.3l-1.23-1.84-0.36.41v1.43h-0.48v-3.74Z" transform="translate(-10.09 -79.03)"/><path class="cls-2" d="M653.6,142v-0.14a1.27,1.27,0,0,1,.34-1,1.22,1.22,0,0,0,.39-0.76,0.46,0.46,0,0,0-.53-0.48,1,1,0,0,0-.56.17l-0.13-.35a1.46,1.46,0,0,1,.79-0.22,0.82,0.82,0,0,1,.93.82,1.5,1.5,0,0,1-.48,1,1.1,1.1,0,0,0-.32.82V142H653.6Zm-0.12.78a0.33,0.33,0,0,1,.33-0.35A0.35,0.35,0,1,1,653.48,142.8Z" transform="translate(-10.09 -79.03)"/><rect class="cls-3" x="685.57" y="53.09" width="22.07" height="11.99"/><path class="cls-2" d="M703,140.52v-2.35L701.21,135H702l0.78,1.53c0.21,0.42.38,0.76,0.55,1.14h0c0.16-.36.35-0.72,0.56-1.14l0.8-1.53h0.81l-1.86,3.18v2.36H703Z" transform="translate(-10.09 -79.03)"/><path class="cls-2" d="M705.93,138.67a1.28,1.28,0,0,0,1.37,1.38,2.62,2.62,0,0,0,1.1-.21l0.12,0.52a3.22,3.22,0,0,1-1.32.25,1.85,1.85,0,0,1-2-2,1.93,1.93,0,0,1,1.87-2.15,1.69,1.69,0,0,1,1.64,1.88,2.82,2.82,0,0,1,0,.34h-2.8Zm2.12-.52a1,1,0,0,0-1-1.18,1.2,1.2,0,0,0-1.11,1.18h2.11Z" transform="translate(-10.09 -79.03)"/><path class="cls-2" d="M709.55,139.78a1.9,1.9,0,0,0,1,.29,0.64,0.64,0,0,0,.77-0.59,0.82,0.82,0,0,0-.74-0.73,1.28,1.28,0,0,1-1.05-1.13,1.23,1.23,0,0,1,1.37-1.17,2,2,0,0,1,1,.25l-0.18.53a1.55,1.55,0,0,0-.81-0.23,0.58,0.58,0,0,0-.67.54c0,0.33.24,0.48,0.76,0.67a1.22,1.22,0,1,1-.44,2.39,2.28,2.28,0,0,1-1.12-.27Z" transform="translate(-10.09 -79.03)"/><rect class="cls-5" x="730.69" y="44.69" width="41.12" height="28.78"/><path class="cls-2" d="M748.24,129.16a8.35,8.35,0,0,1,1.54-.13,2.54,2.54,0,0,1,1.8.51,1.55,1.55,0,0,1,.49,1.18,1.63,1.63,0,0,1-1.17,1.58v0a1.55,1.55,0,0,1,.91,1.25,9.87,9.87,0,0,0,.48,1.71h-0.83a8.08,8.08,0,0,1-.42-1.48,1.21,1.21,0,0,0-1.24-1.21H749v2.69h-0.8v-6.13ZM749,132h0.82a1.22,1.22,0,0,0,1.4-1.18,1.2,1.2,0,0,0-1.43-1.16,3.28,3.28,0,0,0-.79.07V132Z" transform="translate(-10.09 -79.03)"/><path class="cls-2" d="M753.66,133.21a1.43,1.43,0,0,0,1.53,1.55,2.93,2.93,0,0,0,1.24-.23l0.14,0.58a3.6,3.6,0,0,1-1.48.28,2.07,2.07,0,0,1-2.19-2.25,2.17,2.17,0,0,1,2.09-2.41,1.89,1.89,0,0,1,1.84,2.1,3,3,0,0,1,0,.38h-3.13Zm2.38-.58a1.15,1.15,0,0,0-1.12-1.32,1.34,1.34,0,0,0-1.24,1.32H756Z" transform="translate(-10.09 -79.03)"/><path class="cls-2" d="M758.14,130.83l0.88,2.51a11.4,11.4,0,0,1,.36,1.14h0c0.1-.37.23-0.74,0.38-1.14l0.87-2.51h0.85l-1.75,4.46H759l-1.7-4.46h0.87Z" transform="translate(-10.09 -79.03)"/><path class="cls-2" d="M763.16,129.57a0.5,0.5,0,0,1-1,0,0.49,0.49,0,0,1,.51-0.51A0.48,0.48,0,0,1,763.16,129.57Zm-0.9,5.71v-4.46h0.81v4.46h-0.81Z" transform="translate(-10.09 -79.03)"/><path class="cls-2" d="M764.87,133.21a1.43,1.43,0,0,0,1.53,1.55,2.93,2.93,0,0,0,1.24-.23l0.14,0.58a3.6,3.6,0,0,1-1.48.28,2.07,2.07,0,0,1-2.19-2.25,2.17,2.17,0,0,1,2.09-2.41,1.89,1.89,0,0,1,1.84,2.1,3,3,0,0,1,0,.38h-3.13Zm2.38-.58a1.15,1.15,0,0,0-1.12-1.32,1.34,1.34,0,0,0-1.24,1.32h2.37Z" transform="translate(-10.09 -79.03)"/><path class="cls-2" d="M769.36,130.83l0.59,2.27c0.13,0.5.25,1,.33,1.42h0c0.1-.45.25-0.93,0.4-1.41l0.73-2.28h0.68l0.69,2.23c0.17,0.53.29,1,.4,1.46h0a13.55,13.55,0,0,1,.34-1.45l0.64-2.24H775l-1.44,4.46h-0.74l-0.68-2.13a14.64,14.64,0,0,1-.4-1.47h0a13.25,13.25,0,0,1-.41,1.47l-0.72,2.12h-0.74l-1.35-4.46h0.83Z" transform="translate(-10.09 -79.03)"/><path class="cls-2" d="M756.3,143.18c0,2.14-1.3,3.27-2.88,3.27a2.85,2.85,0,0,1-2.79-3.15,3,3,0,0,1,2.88-3.26C755.2,140,756.3,141.34,756.3,143.18Zm-4.82.1c0,1.33.72,2.52,2,2.52s2-1.17,2-2.58c0-1.24-.65-2.53-2-2.53S751.48,141.92,751.48,143.28Z" transform="translate(-10.09 -79.03)"/><path class="cls-2" d="M757.31,143.28c0-.53,0-1,0-1.39H758l0,0.88h0a1.34,1.34,0,0,1,1.24-1,0.9,0.9,0,0,1,.23,0v0.77a1.21,1.21,0,0,0-.28,0,1.14,1.14,0,0,0-1.09,1,2.27,2.27,0,0,0,0,.38v2.38h-0.8v-3.07Z" transform="translate(-10.09 -79.03)"/><path class="cls-2" d="M764.09,139.81v5.39c0,0.4,0,.85,0,1.15H763.4l0-.77h0a1.65,1.65,0,0,1-1.52.88,2,2,0,0,1-1.91-2.27,2.13,2.13,0,0,1,2-2.4,1.49,1.49,0,0,1,1.34.68h0v-2.66h0.81Zm-0.81,3.9a1.44,1.44,0,0,0,0-.34,1.19,1.19,0,0,0-1.17-.94,1.48,1.48,0,0,0-1.34,1.72,1.42,1.42,0,0,0,1.32,1.65,1.22,1.22,0,0,0,1.19-1,1.43,1.43,0,0,0,0-.35v-0.77Z" transform="translate(-10.09 -79.03)"/><path class="cls-2" d="M765.89,144.27a1.43,1.43,0,0,0,1.53,1.55,2.93,2.93,0,0,0,1.24-.23l0.14,0.58a3.61,3.61,0,0,1-1.48.28,2.07,2.07,0,0,1-2.19-2.25,2.16,2.16,0,0,1,2.09-2.41,1.89,1.89,0,0,1,1.84,2.1,3,3,0,0,1,0,.38h-3.13Zm2.38-.58a1.15,1.15,0,0,0-1.12-1.32,1.34,1.34,0,0,0-1.24,1.32h2.37Z" transform="translate(-10.09 -79.03)"/><path class="cls-2" d="M770.05,143.28c0-.53,0-1,0-1.39h0.71l0,0.88h0a1.34,1.34,0,0,1,1.24-1,0.89,0.89,0,0,1,.23,0v0.77a1.2,1.2,0,0,0-.28,0,1.14,1.14,0,0,0-1.09,1,2.27,2.27,0,0,0,0,.38v2.38h-0.8v-3.07Z" transform="translate(-10.09 -79.03)"/><rect class="cls-1" x="193.09" y="187.06" width="31.25" height="31.25" transform="translate(-92.28 127.92) rotate(-45)"/><path class="cls-2" d="M198.81,194a6.92,6.92,0,0,1,1-.08,2.14,2.14,0,0,1,1.52.47,1.72,1.72,0,0,1,.53,1.34,2,2,0,0,1-.54,1.46,2.31,2.31,0,0,1-1.66.54,7.79,7.79,0,0,1-.88,0V194Zm0.48,3.31a3,3,0,0,0,.49,0,1.44,1.44,0,0,0,1.59-1.59,1.34,1.34,0,0,0-1.52-1.44,2.74,2.74,0,0,0-.57.05v3Z" transform="translate(-10.09 -79.03)"/><path class="cls-2" d="M205,196.28a1.31,1.31,0,0,1-1.34,1.43,1.28,1.28,0,0,1-1.29-1.38,1.31,1.31,0,0,1,1.33-1.43A1.27,1.27,0,0,1,205,196.28Zm-2.13,0a0.84,0.84,0,1,0,.83-1A0.91,0.91,0,0,0,202.82,196.31Z" transform="translate(-10.09 -79.03)"/><path class="cls-2" d="M205.85,196.39a0.86,0.86,0,0,0,.92.93,1.77,1.77,0,0,0,.74-0.14l0.08,0.35a2.17,2.17,0,0,1-.89.17,1.25,1.25,0,0,1-1.32-1.36,1.31,1.31,0,0,1,1.26-1.45,1.14,1.14,0,0,1,1.11,1.27,1.78,1.78,0,0,1,0,.23h-1.89Zm1.43-.35a0.7,0.7,0,0,0-.68-0.79,0.81,0.81,0,0,0-.75.79h1.43Z" transform="translate(-10.09 -79.03)"/><path class="cls-2" d="M208.29,197.14a1.28,1.28,0,0,0,.64.19,0.43,0.43,0,0,0,.52-0.4,0.55,0.55,0,0,0-.5-0.49,0.86,0.86,0,0,1-.71-0.76,0.83,0.83,0,0,1,.93-0.79,1.34,1.34,0,0,1,.66.17l-0.12.36a1,1,0,0,0-.55-0.16,0.39,0.39,0,0,0-.45.37c0,0.22.16,0.32,0.51,0.46a0.82,0.82,0,1,1-.3,1.62,1.53,1.53,0,0,1-.76-0.18Z" transform="translate(-10.09 -79.03)"/><path class="cls-2" d="M212.33,194.18V195H213v0.37h-0.7v1.45c0,0.33.09,0.52,0.37,0.52a1.06,1.06,0,0,0,.28,0l0,0.37a1.19,1.19,0,0,1-.43.07,0.68,0.68,0,0,1-.53-0.21,1,1,0,0,1-.19-0.7v-1.47h-0.42V195h0.42v-0.64Z" transform="translate(-10.09 -79.03)"/><path class="cls-2" d="M213.58,193.7h0.49v1.68h0a0.91,0.91,0,0,1,.35-0.34,1,1,0,0,1,.5-0.14,1,1,0,0,1,.94,1.15v1.6h-0.49V196.1a0.66,0.66,0,0,0-.62-0.8,0.7,0.7,0,0,0-.66.49,0.59,0.59,0,0,0,0,.23v1.62h-0.49V193.7Z" transform="translate(-10.09 -79.03)"/><path class="cls-2" d="M216.94,196.39a0.86,0.86,0,0,0,.92.93,1.77,1.77,0,0,0,.74-0.14l0.08,0.35a2.17,2.17,0,0,1-.89.17,1.25,1.25,0,0,1-1.32-1.36,1.31,1.31,0,0,1,1.26-1.45,1.14,1.14,0,0,1,1.11,1.27,1.78,1.78,0,0,1,0,.23h-1.89Zm1.43-.35a0.7,0.7,0,0,0-.68-0.79,0.81,0.81,0,0,0-.75.79h1.43Z" transform="translate(-10.09 -79.03)"/><path class="cls-2" d="M196.81,203.58c0,0.28,0,.52,0,0.73H196.4l0-.44h0a1,1,0,0,1-.89.5,1,1,0,0,1-.93-1.18v-1.57H195v1.49c0,0.51.16,0.86,0.6,0.86a0.71,0.71,0,0,0,.64-0.44,0.71,0.71,0,0,0,0-.25v-1.65h0.49v2Z" transform="translate(-10.09 -79.03)"/><path class="cls-2" d="M197.56,203.82a1.28,1.28,0,0,0,.64.19,0.43,0.43,0,0,0,.52-0.4,0.55,0.55,0,0,0-.5-0.49,0.86,0.86,0,0,1-.71-0.76,0.83,0.83,0,0,1,.93-0.79,1.34,1.34,0,0,1,.66.17l-0.12.36a1,1,0,0,0-.55-0.16,0.39,0.39,0,0,0-.45.37c0,0.22.16,0.32,0.51,0.46a0.82,0.82,0,1,1-.3,1.62,1.53,1.53,0,0,1-.76-0.18Z" transform="translate(-10.09 -79.03)"/><path class="cls-2" d="M200.1,203.06a0.86,0.86,0,0,0,.92.93,1.77,1.77,0,0,0,.74-0.14l0.08,0.35a2.17,2.17,0,0,1-.89.17,1.25,1.25,0,0,1-1.32-1.36,1.31,1.31,0,0,1,1.26-1.45,1.14,1.14,0,0,1,1.11,1.27,1.78,1.78,0,0,1,0,.23H200.1Zm1.43-.35a0.7,0.7,0,0,0-.68-0.79,0.81,0.81,0,0,0-.75.79h1.43Z" transform="translate(-10.09 -79.03)"/><path class="cls-2" d="M202.62,202.47c0-.32,0-0.59,0-0.84H203l0,0.53h0a0.81,0.81,0,0,1,.74-0.59l0.14,0V202l-0.17,0a0.68,0.68,0,0,0-.66.63,1.36,1.36,0,0,0,0,.23v1.43h-0.48v-1.85Z" transform="translate(-10.09 -79.03)"/><path class="cls-2" d="M205.61,200.37h0.49v1.68h0a0.91,0.91,0,0,1,.35-0.34,1,1,0,0,1,.5-0.14,1,1,0,0,1,.94,1.15v1.6h-0.49v-1.54a0.66,0.66,0,0,0-.62-0.8,0.7,0.7,0,0,0-.66.49,0.59,0.59,0,0,0,0,.23v1.62h-0.49v-3.94Z" transform="translate(-10.09 -79.03)"/><path class="cls-2" d="M210.19,204.32l0-.34h0a1,1,0,0,1-.82.4,0.77,0.77,0,0,1-.82-0.77c0-.65.58-1,1.62-1v-0.06a0.55,0.55,0,0,0-.61-0.62,1.34,1.34,0,0,0-.7.2l-0.11-.32a1.67,1.67,0,0,1,.88-0.24,1,1,0,0,1,1,1.1v1a3.8,3.8,0,0,0,0,.64h-0.44Zm-0.07-1.37c-0.53,0-1.14.08-1.14,0.61a0.43,0.43,0,0,0,.46.47,0.67,0.67,0,0,0,.65-0.45,0.51,0.51,0,0,0,0-.16v-0.47Z" transform="translate(-10.09 -79.03)"/><path class="cls-2" d="M211.52,201.63l0.53,1.51a6.84,6.84,0,0,1,.22.69h0c0.06-.22.14-0.44,0.23-0.69l0.52-1.51h0.51l-1.06,2.69H212l-1-2.69h0.52Z" transform="translate(-10.09 -79.03)"/><path class="cls-2" d="M214.23,203.06a0.86,0.86,0,0,0,.92.93,1.77,1.77,0,0,0,.74-0.14l0.08,0.35a2.17,2.17,0,0,1-.89.17,1.25,1.25,0,0,1-1.32-1.36,1.31,1.31,0,0,1,1.26-1.45,1.14,1.14,0,0,1,1.11,1.27,1.78,1.78,0,0,1,0,.23h-1.89Zm1.43-.35a0.7,0.7,0,0,0-.68-0.79,0.81,0.81,0,0,0-.75.79h1.43Z" transform="translate(-10.09 -79.03)"/><path class="cls-2" d="M219.41,204.32l0-.34h0a1,1,0,0,1-.82.4,0.77,0.77,0,0,1-.82-0.77c0-.65.58-1,1.62-1v-0.06a0.55,0.55,0,0,0-.61-0.62,1.34,1.34,0,0,0-.7.2l-0.11-.32a1.67,1.67,0,0,1,.88-0.24,1,1,0,0,1,1,1.1v1a3.8,3.8,0,0,0,0,.64h-0.44Zm-0.07-1.37c-0.53,0-1.14.08-1.14,0.61a0.43,0.43,0,0,0,.46.47,0.67,0.67,0,0,0,.65-0.45,0.51,0.51,0,0,0,0-.16v-0.47Z" transform="translate(-10.09 -79.03)"/><path class="cls-2" d="M220.6,202.36c0-.28,0-0.51,0-0.73H221l0,0.44h0a1,1,0,0,1,.89-0.51,1,1,0,0,1,.95,1.14v1.6H222.4v-1.55a0.66,0.66,0,0,0-.62-0.79,0.72,0.72,0,0,0-.69.73v1.62H220.6v-2Z" transform="translate(-10.09 -79.03)"/><path class="cls-2" d="M200.18,211l0-.34h0a1,1,0,0,1-.82.4,0.77,0.77,0,0,1-.82-0.77c0-.65.58-1,1.62-1v-0.06a0.55,0.55,0,0,0-.61-0.62,1.34,1.34,0,0,0-.7.2l-0.11-.32a1.67,1.67,0,0,1,.88-0.24,1,1,0,0,1,1,1.1v1a3.8,3.8,0,0,0,0,.64h-0.44Zm-0.07-1.37c-0.53,0-1.14.08-1.14,0.61a0.43,0.43,0,0,0,.46.47,0.67,0.67,0,0,0,.65-0.45,0.51,0.51,0,0,0,0-.16v-0.47Z" transform="translate(-10.09 -79.03)"/><path class="cls-2" d="M203.28,210.89a1.8,1.8,0,0,1-.77.16,1.28,1.28,0,0,1-1.34-1.37,1.37,1.37,0,0,1,1.44-1.43,1.64,1.64,0,0,1,.68.14l-0.11.38a1.13,1.13,0,0,0-.57-0.13,1,1,0,0,0,0,2,1.39,1.39,0,0,0,.6-0.13Z" transform="translate(-10.09 -79.03)"/><path class="cls-2" d="M205.74,210.89a1.8,1.8,0,0,1-.77.16,1.28,1.28,0,0,1-1.34-1.37,1.37,1.37,0,0,1,1.44-1.43,1.64,1.64,0,0,1,.68.14l-0.11.38a1.13,1.13,0,0,0-.57-0.13,1,1,0,0,0,0,2,1.39,1.39,0,0,0,.6-0.13Z" transform="translate(-10.09 -79.03)"/><path class="cls-2" d="M208.72,209.62a1.31,1.31,0,0,1-1.34,1.43,1.28,1.28,0,0,1-1.29-1.38,1.31,1.31,0,0,1,1.33-1.43A1.27,1.27,0,0,1,208.72,209.62Zm-2.13,0a0.84,0.84,0,1,0,.83-1A0.91,0.91,0,0,0,206.58,209.65Z" transform="translate(-10.09 -79.03)"/><path class="cls-2" d="M211.59,210.26c0,0.28,0,.52,0,0.73h-0.43l0-.44h0a1,1,0,0,1-.89.5,1,1,0,0,1-.93-1.18V208.3h0.49v1.49c0,0.51.16,0.86,0.6,0.86a0.71,0.71,0,0,0,.64-0.44,0.71,0.71,0,0,0,0-.25V208.3h0.49v2Z" transform="translate(-10.09 -79.03)"/><path class="cls-2" d="M212.4,209c0-.28,0-0.51,0-0.73h0.43l0,0.44h0a1,1,0,0,1,.89-0.51,1,1,0,0,1,.95,1.14V211H214.2v-1.55a0.66,0.66,0,0,0-.62-0.79,0.72,0.72,0,0,0-.69.73V211H212.4v-2Z" transform="translate(-10.09 -79.03)"/><path class="cls-2" d="M216.05,207.53v0.77h0.7v0.37h-0.7v1.45c0,0.33.09,0.52,0.37,0.52a1.09,1.09,0,0,0,.28,0l0,0.37a1.19,1.19,0,0,1-.43.07,0.68,0.68,0,0,1-.53-0.21,1,1,0,0,1-.19-0.7v-1.47h-0.42V208.3h0.42v-0.64Z" transform="translate(-10.09 -79.03)"/><path class="cls-2" d="M217.68,209.93v-0.14a1.28,1.28,0,0,1,.34-1,1.22,1.22,0,0,0,.39-0.76,0.46,0.46,0,0,0-.53-0.48,1,1,0,0,0-.56.17l-0.13-.35a1.46,1.46,0,0,1,.79-0.22,0.82,0.82,0,0,1,.93.82,1.5,1.5,0,0,1-.48,1,1.1,1.1,0,0,0-.32.82v0.14h-0.43Zm-0.12.78a0.33,0.33,0,0,1,.33-0.35A0.35,0.35,0,1,1,217.56,210.71Z" transform="translate(-10.09 -79.03)"/><rect class="cls-3" x="243.77" y="117.66" width="22.07" height="11.99"/><path class="cls-2" d="M261.16,205.1v-2.35l-1.75-3.19h0.81l0.78,1.53c0.21,0.42.38,0.76,0.55,1.14h0c0.16-.36.35-0.72,0.56-1.14l0.8-1.53h0.81l-1.86,3.18v2.36h-0.72Z" transform="translate(-10.09 -79.03)"/><path class="cls-2" d="M264.13,203.24a1.28,1.28,0,0,0,1.37,1.38,2.62,2.62,0,0,0,1.1-.21l0.12,0.52a3.22,3.22,0,0,1-1.32.25,1.85,1.85,0,0,1-2-2A1.93,1.93,0,0,1,265.3,201a1.69,1.69,0,0,1,1.64,1.88,2.72,2.72,0,0,1,0,.34h-2.8Zm2.12-.52a1,1,0,0,0-1-1.18,1.2,1.2,0,0,0-1.11,1.18h2.11Z" transform="translate(-10.09 -79.03)"/><path class="cls-2" d="M267.74,204.36a1.9,1.9,0,0,0,1,.29,0.64,0.64,0,0,0,.77-0.59,0.82,0.82,0,0,0-.74-0.73,1.28,1.28,0,0,1-1.05-1.13A1.23,1.23,0,0,1,269,201a2,2,0,0,1,1,.25l-0.18.53a1.55,1.55,0,0,0-.81-0.23,0.58,0.58,0,0,0-.67.54c0,0.33.24,0.48,0.76,0.67a1.22,1.22,0,1,1-.44,2.39,2.28,2.28,0,0,1-1.12-.27Z" transform="translate(-10.09 -79.03)"/><rect class="cls-3" x="75.23" y="0.54" width="22.07" height="11.99"/><path class="cls-2" d="M92.63,88V85.63l-1.75-3.19h0.81L92.47,84c0.21,0.42.38,0.76,0.55,1.14h0c0.16-.36.35-0.72,0.56-1.14l0.8-1.53h0.81l-1.86,3.18V88H92.63Z" transform="translate(-10.09 -79.03)"/><path class="cls-2" d="M95.59,86.12A1.28,1.28,0,0,0,97,87.5a2.62,2.62,0,0,0,1.1-.21l0.12,0.52a3.22,3.22,0,0,1-1.32.25,1.85,1.85,0,0,1-2-2,1.93,1.93,0,0,1,1.87-2.15,1.69,1.69,0,0,1,1.64,1.88,2.72,2.72,0,0,1,0,.34h-2.8Zm2.12-.52a1,1,0,0,0-1-1.18A1.2,1.2,0,0,0,95.6,85.6h2.11Z" transform="translate(-10.09 -79.03)"/><path class="cls-2" d="M99.21,87.24a1.9,1.9,0,0,0,1,.29,0.64,0.64,0,0,0,.77-0.59,0.82,0.82,0,0,0-.74-0.73,1.28,1.28,0,0,1-1.05-1.13,1.23,1.23,0,0,1,1.37-1.17,2,2,0,0,1,1,.25l-0.18.53a1.55,1.55,0,0,0-.81-0.23,0.58,0.58,0,0,0-.67.54c0,0.33.24,0.48,0.76,0.67a1.22,1.22,0,1,1-.44,2.39A2.28,2.28,0,0,1,99,87.79Z" transform="translate(-10.09 -79.03)"/><rect class="cls-5" x="178.06" y="49.74" width="41.12" height="28.78"/><path class="cls-2" d="M197.59,134.12h0.8v5.54H201v0.67h-3.46v-6.21Z" transform="translate(-10.09 -79.03)"/><path class="cls-2" d="M205.82,138.06a2.18,2.18,0,0,1-2.22,2.37,2.12,2.12,0,0,1-2.14-2.29,2.18,2.18,0,0,1,2.21-2.37A2.11,2.11,0,0,1,205.82,138.06Zm-3.54,0a1.39,1.39,0,1,0,1.37-1.73A1.52,1.52,0,0,0,202.28,138.11Z" transform="translate(-10.09 -79.03)"/><path class="cls-2" d="M210.69,135.87c0,0.32,0,.68,0,1.23v2.59a2.57,2.57,0,0,1-.64,2,2.36,2.36,0,0,1-1.62.53,2.88,2.88,0,0,1-1.48-.37l0.2-.62a2.51,2.51,0,0,0,1.31.35,1.34,1.34,0,0,0,1.44-1.56v-0.5h0a1.59,1.59,0,0,1-1.42.75,2,2,0,0,1-1.9-2.17,2.14,2.14,0,0,1,2-2.37,1.48,1.48,0,0,1,1.39.77h0l0-.67h0.71Zm-0.84,1.76a1.19,1.19,0,0,0-1.18-1.23,1.45,1.45,0,0,0-1.33,1.69,1.4,1.4,0,0,0,1.32,1.6,1.19,1.19,0,0,0,1.12-.83,1.42,1.42,0,0,0,.06-0.43v-0.8Z" transform="translate(-10.09 -79.03)"/><path class="cls-2" d="M214.85,134.62a0.5,0.5,0,0,1-1,0,0.49,0.49,0,0,1,.51-0.51A0.48,0.48,0,0,1,214.85,134.62Zm-0.9,5.71v-4.46h0.81v4.46h-0.81Z" transform="translate(-10.09 -79.03)"/><path class="cls-2" d="M216.11,137.08c0-.46,0-0.84,0-1.21h0.72l0,0.74h0a1.64,1.64,0,0,1,1.47-.84,1.62,1.62,0,0,1,1.58,1.9v2.66h-0.81v-2.57a1.09,1.09,0,0,0-1-1.32,1.15,1.15,0,0,0-1.09.83,1.17,1.17,0,0,0-.06.38v2.68h-0.81v-3.25Z" transform="translate(-10.09 -79.03)"/><path class="cls-2" d="M199.66,148.39c0-.57,0-1,0-1.46h0.73l0,0.76h0a1.75,1.75,0,0,1,1.58-.87,2,2,0,0,1,1.89,2.27,2.11,2.11,0,0,1-2,2.4,1.56,1.56,0,0,1-1.37-.7h0v2.42h-0.8v-4.83Zm0.8,1.19a1.82,1.82,0,0,0,0,.33,1.25,1.25,0,0,0,1.22.95,1.74,1.74,0,0,0,0-3.38,1.29,1.29,0,0,0-1.23,1,1.33,1.33,0,0,0-.06.33v0.77Z" transform="translate(-10.09 -79.03)"/><path class="cls-2" d="M207.38,151.39l-0.06-.56h0a1.66,1.66,0,0,1-1.36.66,1.27,1.27,0,0,1-1.36-1.28c0-1.08,1-1.67,2.68-1.66v-0.09a0.92,0.92,0,0,0-1-1,2.22,2.22,0,0,0-1.16.33l-0.18-.53a2.77,2.77,0,0,1,1.47-.4,1.58,1.58,0,0,1,1.7,1.82v1.67a6.29,6.29,0,0,0,.07,1.07h-0.74Zm-0.12-2.28c-0.88,0-1.89.14-1.89,1a0.72,0.72,0,0,0,.76.77,1.11,1.11,0,0,0,1.08-.75,0.86,0.86,0,0,0,0-.26v-0.77Z" transform="translate(-10.09 -79.03)"/><path class="cls-2" d="M213.19,146.93c0,0.32,0,.68,0,1.23v2.59a2.57,2.57,0,0,1-.64,2,2.36,2.36,0,0,1-1.62.53,2.88,2.88,0,0,1-1.48-.37l0.2-.62a2.51,2.51,0,0,0,1.31.35,1.34,1.34,0,0,0,1.44-1.56v-0.5h0a1.59,1.59,0,0,1-1.42.75,2,2,0,0,1-1.9-2.17,2.14,2.14,0,0,1,2-2.37,1.48,1.48,0,0,1,1.39.77h0l0-.67h0.71Zm-0.84,1.76a1.19,1.19,0,0,0-1.18-1.23,1.45,1.45,0,0,0-1.33,1.69,1.4,1.4,0,0,0,1.32,1.6,1.19,1.19,0,0,0,1.12-.83,1.42,1.42,0,0,0,.06-0.43v-0.8Z" transform="translate(-10.09 -79.03)"/><path class="cls-2" d="M215,149.31a1.43,1.43,0,0,0,1.53,1.55,2.93,2.93,0,0,0,1.23-.23l0.14,0.58a3.61,3.61,0,0,1-1.48.28,2.07,2.07,0,0,1-2.19-2.25,2.17,2.17,0,0,1,2.09-2.41,1.89,1.89,0,0,1,1.84,2.1,3,3,0,0,1,0,.38H215Zm2.38-.58a1.16,1.16,0,0,0-1.12-1.32,1.34,1.34,0,0,0-1.24,1.32h2.37Z" transform="translate(-10.09 -79.03)"/><rect class="cls-4" x="187.59" y="168.8" width="22.07" height="11.99"/><path class="cls-1" d="M204.38,256.23v-5.54h0.78l1.78,2.8a15.73,15.73,0,0,1,1,1.8h0c-0.07-.74-0.08-1.41-0.08-2.28v-2.32h0.67v5.54h-0.72l-1.76-2.81a17.69,17.69,0,0,1-1-1.85h0c0,0.7.06,1.37,0.06,2.29v2.37h-0.67Z" transform="translate(-10.09 -79.03)"/><path class="cls-1" d="M213.37,254.21a2,2,0,0,1-2,2.11,1.89,1.89,0,0,1-1.91-2,1.94,1.94,0,0,1,2-2.11A1.89,1.89,0,0,1,213.37,254.21Zm-3.16,0a1.24,1.24,0,1,0,1.23-1.55A1.36,1.36,0,0,0,210.21,254.25Z" transform="translate(-10.09 -79.03)"/><rect class="cls-5" x="178.06" y="203.83" width="41.12" height="28.78"/><path class="cls-2" d="M194.27,293.44a2.84,2.84,0,0,0,1.44.41,1.11,1.11,0,0,0,1.3-1.06c0-.58-0.33-0.91-1.17-1.23-1-.36-1.64-0.88-1.64-1.76a1.79,1.79,0,0,1,2-1.69,2.82,2.82,0,0,1,1.37.3l-0.22.65a2.47,2.47,0,0,0-1.18-.29,1,1,0,0,0-1.17.93c0,0.58.38,0.87,1.23,1.2,1.05,0.41,1.59.91,1.59,1.82s-0.71,1.79-2.18,1.79a3.21,3.21,0,0,1-1.58-.4Z" transform="translate(-10.09 -79.03)"/><path class="cls-2" d="M199.8,288.71a0.5,0.5,0,0,1-1,0,0.49,0.49,0,0,1,.51-0.51A0.48,0.48,0,0,1,199.8,288.71Zm-0.9,5.71V290h0.81v4.46H198.9Z" transform="translate(-10.09 -79.03)"/><path class="cls-2" d="M204.9,290c0,0.32,0,.68,0,1.23v2.59a2.57,2.57,0,0,1-.64,2,2.36,2.36,0,0,1-1.62.53,2.88,2.88,0,0,1-1.48-.37l0.2-.62a2.51,2.51,0,0,0,1.31.35,1.34,1.34,0,0,0,1.44-1.56v-0.5h0a1.59,1.59,0,0,1-1.42.75,2,2,0,0,1-1.9-2.17,2.14,2.14,0,0,1,2-2.37,1.48,1.48,0,0,1,1.39.77h0l0-.67h0.71Zm-0.84,1.76a1.19,1.19,0,0,0-1.18-1.23,1.45,1.45,0,0,0-1.33,1.69,1.4,1.4,0,0,0,1.32,1.6A1.19,1.19,0,0,0,204,293a1.42,1.42,0,0,0,.06-0.43v-0.8Z" transform="translate(-10.09 -79.03)"/><path class="cls-2" d="M206.15,291.17c0-.46,0-0.84,0-1.21h0.72l0,0.74h0a1.64,1.64,0,0,1,1.47-.84,1.62,1.62,0,0,1,1.58,1.9v2.66h-0.81v-2.57a1.09,1.09,0,0,0-1-1.32,1.15,1.15,0,0,0-1.09.83,1.17,1.17,0,0,0-.06.38v2.68h-0.81v-3.25Z" transform="translate(-10.09 -79.03)"/><path class="cls-2" d="M214.05,288.21v3.68c0,1.39.62,2,1.45,2s1.51-.61,1.51-2v-3.68h0.81v3.62c0,1.91-1,2.69-2.35,2.69s-2.23-.73-2.23-2.65v-3.66h0.81Z" transform="translate(-10.09 -79.03)"/><path class="cls-2" d="M219.19,291.42c0-.57,0-1,0-1.46h0.73l0,0.77h0a1.75,1.75,0,0,1,1.58-.87,2,2,0,0,1,1.89,2.27,2.11,2.11,0,0,1-2,2.4,1.56,1.56,0,0,1-1.37-.7h0v2.42h-0.8v-4.83Zm0.8,1.19a1.86,1.86,0,0,0,0,.33,1.25,1.25,0,0,0,1.22.95,1.74,1.74,0,0,0,0-3.38,1.29,1.29,0,0,0-1.23,1,1.32,1.32,0,0,0-.06.33v0.77Z" transform="translate(-10.09 -79.03)"/><path class="cls-2" d="M199.66,302.48c0-.57,0-1,0-1.46h0.73l0,0.76h0a1.75,1.75,0,0,1,1.58-.87,2,2,0,0,1,1.89,2.27,2.11,2.11,0,0,1-2,2.4,1.56,1.56,0,0,1-1.37-.7h0v2.42h-0.8v-4.83Zm0.8,1.19a1.82,1.82,0,0,0,0,.33,1.25,1.25,0,0,0,1.22.95,1.74,1.74,0,0,0,0-3.38,1.29,1.29,0,0,0-1.23,1,1.33,1.33,0,0,0-.06.33v0.77Z" transform="translate(-10.09 -79.03)"/><path class="cls-2" d="M207.38,305.48l-0.06-.56h0a1.66,1.66,0,0,1-1.36.66,1.27,1.27,0,0,1-1.36-1.28c0-1.08,1-1.67,2.68-1.66v-0.09a0.92,0.92,0,0,0-1-1,2.22,2.22,0,0,0-1.16.33l-0.18-.53a2.77,2.77,0,0,1,1.47-.4,1.58,1.58,0,0,1,1.7,1.82v1.67a6.29,6.29,0,0,0,.07,1.07h-0.74Zm-0.12-2.28c-0.88,0-1.89.14-1.89,1a0.72,0.72,0,0,0,.76.77,1.11,1.11,0,0,0,1.08-.75,0.86,0.86,0,0,0,0-.26v-0.77Z" transform="translate(-10.09 -79.03)"/><path class="cls-2" d="M213.19,301c0,0.32,0,.68,0,1.23v2.59a2.57,2.57,0,0,1-.64,2,2.36,2.36,0,0,1-1.62.53,2.87,2.87,0,0,1-1.48-.37l0.2-.62a2.51,2.51,0,0,0,1.31.35,1.34,1.34,0,0,0,1.44-1.56v-0.5h0a1.59,1.59,0,0,1-1.42.75,2,2,0,0,1-1.9-2.17,2.14,2.14,0,0,1,2-2.37,1.48,1.48,0,0,1,1.39.77h0l0-.67h0.71Zm-0.84,1.76a1.19,1.19,0,0,0-1.18-1.23,1.45,1.45,0,0,0-1.33,1.69,1.4,1.4,0,0,0,1.32,1.6,1.19,1.19,0,0,0,1.12-.83,1.42,1.42,0,0,0,.06-0.43v-0.8Z" transform="translate(-10.09 -79.03)"/><path class="cls-2" d="M215,303.4a1.43,1.43,0,0,0,1.53,1.55,2.93,2.93,0,0,0,1.23-.23l0.14,0.58a3.61,3.61,0,0,1-1.48.28,2.07,2.07,0,0,1-2.19-2.25,2.17,2.17,0,0,1,2.09-2.41,1.89,1.89,0,0,1,1.84,2.1,3,3,0,0,1,0,.38H215Zm2.38-.58a1.16,1.16,0,0,0-1.12-1.32,1.34,1.34,0,0,0-1.24,1.32h2.37Z" transform="translate(-10.09 -79.03)"/><rect class="cls-1" x="193.09" y="341.15" width="31.25" height="31.25" transform="translate(-201.24 173.05) rotate(-45)"/><path class="cls-2" d="M198.81,348a6.86,6.86,0,0,1,1-.08,2.14,2.14,0,0,1,1.52.47,1.72,1.72,0,0,1,.53,1.34,2,2,0,0,1-.54,1.46,2.3,2.3,0,0,1-1.66.54,7.92,7.92,0,0,1-.88,0V348Zm0.48,3.31a3.14,3.14,0,0,0,.49,0,1.44,1.44,0,0,0,1.59-1.59,1.34,1.34,0,0,0-1.52-1.44,2.71,2.71,0,0,0-.57,0v3Z" transform="translate(-10.09 -79.03)"/><path class="cls-2" d="M205,350.37a1.31,1.31,0,0,1-1.34,1.43,1.28,1.28,0,0,1-1.29-1.38,1.31,1.31,0,0,1,1.33-1.43A1.27,1.27,0,0,1,205,350.37Zm-2.13,0a0.84,0.84,0,1,0,.83-1A0.91,0.91,0,0,0,202.82,350.4Z" transform="translate(-10.09 -79.03)"/><path class="cls-2" d="M205.85,350.48a0.86,0.86,0,0,0,.92.93,1.76,1.76,0,0,0,.74-0.14l0.08,0.35a2.17,2.17,0,0,1-.89.17,1.25,1.25,0,0,1-1.32-1.36,1.3,1.3,0,0,1,1.26-1.45,1.14,1.14,0,0,1,1.11,1.27,1.8,1.8,0,0,1,0,.23h-1.89Zm1.43-.35a0.7,0.7,0,0,0-.68-0.79,0.81,0.81,0,0,0-.75.79h1.43Z" transform="translate(-10.09 -79.03)"/><path class="cls-2" d="M208.29,351.24a1.28,1.28,0,0,0,.64.19,0.43,0.43,0,0,0,.52-0.4,0.55,0.55,0,0,0-.5-0.49,0.86,0.86,0,0,1-.71-0.76,0.83,0.83,0,0,1,.93-0.79,1.34,1.34,0,0,1,.66.17l-0.12.36a1,1,0,0,0-.55-0.16,0.39,0.39,0,0,0-.45.37c0,0.22.16,0.32,0.51,0.46a0.82,0.82,0,1,1-.3,1.62,1.53,1.53,0,0,1-.76-0.18Z" transform="translate(-10.09 -79.03)"/><path class="cls-2" d="M212.33,348.28V349H213v0.37h-0.7v1.45c0,0.33.09,0.52,0.37,0.52a1.09,1.09,0,0,0,.28,0l0,0.37a1.22,1.22,0,0,1-.43.07,0.67,0.67,0,0,1-.53-0.21,1,1,0,0,1-.19-0.7v-1.47h-0.42V349h0.42v-0.64Z" transform="translate(-10.09 -79.03)"/><path class="cls-2" d="M213.58,347.79h0.49v1.68h0a0.9,0.9,0,0,1,.35-0.34,1,1,0,0,1,.5-0.14,1,1,0,0,1,.94,1.15v1.6h-0.49v-1.54a0.66,0.66,0,0,0-.62-0.8,0.7,0.7,0,0,0-.66.49,0.59,0.59,0,0,0,0,.23v1.62h-0.49v-3.94Z" transform="translate(-10.09 -79.03)"/><path class="cls-2" d="M216.94,350.48a0.86,0.86,0,0,0,.92.93,1.76,1.76,0,0,0,.74-0.14l0.08,0.35a2.17,2.17,0,0,1-.89.17,1.25,1.25,0,0,1-1.32-1.36,1.3,1.3,0,0,1,1.26-1.45,1.14,1.14,0,0,1,1.11,1.27,1.8,1.8,0,0,1,0,.23h-1.89Zm1.43-.35a0.7,0.7,0,0,0-.68-0.79,0.81,0.81,0,0,0-.75.79h1.43Z" transform="translate(-10.09 -79.03)"/><path class="cls-2" d="M196.55,357.68c0,0.28,0,.52,0,0.73h-0.43l0-.44h0a1,1,0,0,1-.89.5,1,1,0,0,1-.93-1.18v-1.57h0.49v1.49c0,0.51.16,0.86,0.6,0.86a0.71,0.71,0,0,0,.64-0.44,0.71,0.71,0,0,0,0-.25v-1.65h0.49v2Z" transform="translate(-10.09 -79.03)"/><path class="cls-2" d="M197.3,357.91a1.28,1.28,0,0,0,.64.19,0.43,0.43,0,0,0,.52-0.4,0.55,0.55,0,0,0-.5-0.5,0.86,0.86,0,0,1-.71-0.76,0.83,0.83,0,0,1,.93-0.79,1.34,1.34,0,0,1,.66.17l-0.12.36a1,1,0,0,0-.55-0.16,0.39,0.39,0,0,0-.45.37c0,0.22.16,0.32,0.51,0.46a0.82,0.82,0,1,1-.3,1.62,1.53,1.53,0,0,1-.76-0.18Z" transform="translate(-10.09 -79.03)"/><path class="cls-2" d="M199.84,357.16a0.86,0.86,0,0,0,.92.93,1.76,1.76,0,0,0,.74-0.14l0.08,0.35a2.17,2.17,0,0,1-.89.17,1.25,1.25,0,0,1-1.32-1.36,1.31,1.31,0,0,1,1.26-1.45,1.14,1.14,0,0,1,1.11,1.27,1.8,1.8,0,0,1,0,.23h-1.89Zm1.43-.35a0.7,0.7,0,0,0-.68-0.79,0.81,0.81,0,0,0-.75.79h1.43Z" transform="translate(-10.09 -79.03)"/><path class="cls-2" d="M202.35,356.56c0-.32,0-0.59,0-0.84h0.43l0,0.53h0a0.81,0.81,0,0,1,.74-0.59l0.14,0v0.46l-0.17,0a0.69,0.69,0,0,0-.66.63,1.43,1.43,0,0,0,0,.23v1.43h-0.48v-1.85Z" transform="translate(-10.09 -79.03)"/><path class="cls-2" d="M205.54,355.72l0.36,1.37c0.08,0.3.15,0.58,0.2,0.86h0c0.06-.27.15-0.56,0.24-0.85l0.44-1.37h0.41l0.42,1.34c0.1,0.32.18,0.61,0.24,0.88h0a8.11,8.11,0,0,1,.21-0.87l0.38-1.35h0.48l-0.87,2.69h-0.44l-0.41-1.28a9.08,9.08,0,0,1-.24-0.88h0a8,8,0,0,1-.24.89l-0.43,1.28h-0.44L205,355.72h0.5Z" transform="translate(-10.09 -79.03)"/><path class="cls-2" d="M210.91,358.41l0-.34h0a1,1,0,0,1-.82.4,0.77,0.77,0,0,1-.82-0.77c0-.65.58-1,1.62-1v-0.06a0.55,0.55,0,0,0-.61-0.62,1.34,1.34,0,0,0-.7.2l-0.11-.32a1.67,1.67,0,0,1,.88-0.24,1,1,0,0,1,1,1.1v1a3.8,3.8,0,0,0,0,.64h-0.44ZM210.84,357c-0.53,0-1.14.08-1.14,0.61a0.43,0.43,0,0,0,.46.47,0.67,0.67,0,0,0,.65-0.45,0.51,0.51,0,0,0,0-.16V357Z" transform="translate(-10.09 -79.03)"/><path class="cls-2" d="M212.1,356.45c0-.28,0-0.5,0-0.73h0.43l0,0.44h0a1,1,0,0,1,.89-0.5,1,1,0,0,1,.95,1.14v1.61H213.9v-1.55a0.66,0.66,0,0,0-.62-0.79,0.72,0.72,0,0,0-.69.73v1.62H212.1v-2Z" transform="translate(-10.09 -79.03)"/><path class="cls-2" d="M215.75,355v0.77h0.7v0.37h-0.7v1.45c0,0.33.09,0.52,0.37,0.52a1.09,1.09,0,0,0,.28,0l0,0.37a1.21,1.21,0,0,1-.43.07,0.68,0.68,0,0,1-.53-0.21,1,1,0,0,1-.19-0.7v-1.47h-0.42v-0.37h0.42v-0.64Z" transform="translate(-10.09 -79.03)"/><path class="cls-2" d="M219.67,358.41l0-.34h0a1,1,0,0,1-.82.4,0.77,0.77,0,0,1-.82-0.77c0-.65.58-1,1.62-1v-0.06A0.55,0.55,0,0,0,219,356a1.34,1.34,0,0,0-.7.2l-0.11-.32a1.67,1.67,0,0,1,.88-0.24,1,1,0,0,1,1,1.1v1a3.8,3.8,0,0,0,0,.64h-0.44ZM219.6,357c-0.53,0-1.14.08-1.14,0.61a0.43,0.43,0,0,0,.46.47,0.67,0.67,0,0,0,.65-0.45,0.51,0.51,0,0,0,0-.16V357Z" transform="translate(-10.09 -79.03)"/><path class="cls-2" d="M220.86,356.45c0-.28,0-0.5,0-0.73h0.43l0,0.44h0a1,1,0,0,1,.89-0.5,1,1,0,0,1,.95,1.14v1.61h-0.49v-1.55a0.66,0.66,0,0,0-.62-0.79,0.72,0.72,0,0,0-.69.73v1.62h-0.49v-2Z" transform="translate(-10.09 -79.03)"/><path class="cls-2" d="M200.18,365.08l0-.34h0a1,1,0,0,1-.82.4,0.77,0.77,0,0,1-.82-0.77c0-.65.58-1,1.62-1v-0.06a0.55,0.55,0,0,0-.61-0.62,1.34,1.34,0,0,0-.7.2l-0.11-.32a1.67,1.67,0,0,1,.88-0.24,1,1,0,0,1,1,1.1v1a3.8,3.8,0,0,0,0,.64h-0.44Zm-0.07-1.37c-0.53,0-1.14.08-1.14,0.61a0.43,0.43,0,0,0,.46.47,0.67,0.67,0,0,0,.65-0.45,0.51,0.51,0,0,0,0-.16v-0.47Z" transform="translate(-10.09 -79.03)"/><path class="cls-2" d="M203.28,365a1.81,1.81,0,0,1-.77.16,1.28,1.28,0,0,1-1.34-1.37,1.37,1.37,0,0,1,1.44-1.43,1.62,1.62,0,0,1,.68.14l-0.11.38a1.14,1.14,0,0,0-.57-0.13,1,1,0,0,0,0,2,1.38,1.38,0,0,0,.6-0.13Z" transform="translate(-10.09 -79.03)"/><path class="cls-2" d="M205.74,365a1.81,1.81,0,0,1-.77.16,1.28,1.28,0,0,1-1.34-1.37,1.37,1.37,0,0,1,1.44-1.43,1.62,1.62,0,0,1,.68.14l-0.11.38a1.14,1.14,0,0,0-.57-0.13,1,1,0,0,0,0,2,1.38,1.38,0,0,0,.6-0.13Z" transform="translate(-10.09 -79.03)"/><path class="cls-2" d="M208.72,363.72a1.31,1.31,0,0,1-1.34,1.43,1.28,1.28,0,0,1-1.29-1.38,1.31,1.31,0,0,1,1.33-1.43A1.27,1.27,0,0,1,208.72,363.72Zm-2.13,0a0.84,0.84,0,1,0,.83-1A0.91,0.91,0,0,0,206.58,363.75Z" transform="translate(-10.09 -79.03)"/><path class="cls-2" d="M211.59,364.35c0,0.28,0,.52,0,0.73h-0.43l0-.44h0a1,1,0,0,1-.89.5,1,1,0,0,1-.93-1.18V362.4h0.49v1.49c0,0.51.16,0.85,0.6,0.85a0.71,0.71,0,0,0,.64-0.44,0.71,0.71,0,0,0,0-.25V362.4h0.49v2Z" transform="translate(-10.09 -79.03)"/><path class="cls-2" d="M212.4,363.12c0-.28,0-0.5,0-0.73h0.43l0,0.44h0a1,1,0,0,1,.89-0.5,1,1,0,0,1,.95,1.14v1.61H214.2v-1.55a0.66,0.66,0,0,0-.62-0.79,0.72,0.72,0,0,0-.69.73v1.62H212.4v-2Z" transform="translate(-10.09 -79.03)"/><path class="cls-2" d="M216.05,361.62v0.77h0.7v0.37h-0.7v1.45c0,0.33.09,0.52,0.37,0.52a1.09,1.09,0,0,0,.28,0l0,0.37a1.21,1.21,0,0,1-.43.07,0.68,0.68,0,0,1-.53-0.21,1,1,0,0,1-.19-0.7v-1.47h-0.42V362.4h0.42v-0.64Z" transform="translate(-10.09 -79.03)"/><path class="cls-2" d="M217.68,364v-0.14a1.28,1.28,0,0,1,.34-1,1.22,1.22,0,0,0,.39-0.76,0.46,0.46,0,0,0-.53-0.48,1,1,0,0,0-.56.17l-0.13-.35a1.45,1.45,0,0,1,.79-0.22,0.82,0.82,0,0,1,.93.82,1.5,1.5,0,0,1-.48,1,1.1,1.1,0,0,0-.32.82V364h-0.43Zm-0.12.78a0.33,0.33,0,0,1,.33-0.35A0.35,0.35,0,1,1,217.56,364.8Z" transform="translate(-10.09 -79.03)"/><rect class="cls-3" x="243.77" y="271.75" width="22.07" height="11.99"/><path class="cls-2" d="M261.16,359.19v-2.35l-1.75-3.19h0.81l0.78,1.53c0.21,0.42.38,0.76,0.55,1.14h0c0.16-.36.35-0.72,0.56-1.14l0.8-1.53h0.81l-1.86,3.18v2.36h-0.72Z" transform="translate(-10.09 -79.03)"/><path class="cls-2" d="M264.13,357.33a1.28,1.28,0,0,0,1.37,1.38,2.62,2.62,0,0,0,1.1-.21l0.12,0.52a3.24,3.24,0,0,1-1.32.25,1.85,1.85,0,0,1-2-2,1.93,1.93,0,0,1,1.87-2.15,1.69,1.69,0,0,1,1.64,1.88,2.74,2.74,0,0,1,0,.34h-2.8Zm2.12-.52a1,1,0,0,0-1-1.18,1.2,1.2,0,0,0-1.11,1.18h2.11Z" transform="translate(-10.09 -79.03)"/><path class="cls-2" d="M267.74,358.45a1.9,1.9,0,0,0,1,.29,0.64,0.64,0,0,0,.77-0.59,0.82,0.82,0,0,0-.74-0.73,1.28,1.28,0,0,1-1.05-1.13,1.23,1.23,0,0,1,1.37-1.17,2,2,0,0,1,1,.25l-0.18.53a1.55,1.55,0,0,0-.81-0.23,0.58,0.58,0,0,0-.67.54c0,0.33.24,0.48,0.76,0.67a1.22,1.22,0,1,1-.44,2.39,2.26,2.26,0,0,1-1.12-.27Z" transform="translate(-10.09 -79.03)"/><rect class="cls-4" x="187.59" y="322.89" width="22.07" height="11.99"/><path class="cls-1" d="M204.38,410.33v-5.54h0.78l1.78,2.8a15.68,15.68,0,0,1,1,1.8h0c-0.07-.74-0.08-1.41-0.08-2.28v-2.32h0.67v5.54h-0.72l-1.76-2.81a17.69,17.69,0,0,1-1-1.85h0c0,0.7.06,1.37,0.06,2.29v2.37h-0.67Z" transform="translate(-10.09 -79.03)"/><path class="cls-1" d="M213.37,408.3a2,2,0,0,1-2,2.11,1.89,1.89,0,0,1-1.91-2,1.94,1.94,0,0,1,2-2.11A1.89,1.89,0,0,1,213.37,408.3Zm-3.16,0a1.24,1.24,0,1,0,1.23-1.55A1.36,1.36,0,0,0,210.21,408.34Z" transform="translate(-10.09 -79.03)"/><rect class="cls-4" x="131.41" y="425.85" width="22.07" height="11.99"/><path class="cls-1" d="M148.21,513.28v-5.54H149l1.78,2.8a15.68,15.68,0,0,1,1,1.8h0c-0.07-.74-0.08-1.41-0.08-2.28v-2.32h0.67v5.54h-0.72l-1.76-2.81a17.69,17.69,0,0,1-1-1.85h0c0,0.7.06,1.37,0.06,2.29v2.37h-0.67Z" transform="translate(-10.09 -79.03)"/><path class="cls-1" d="M157.19,511.26a2,2,0,0,1-2,2.11,1.89,1.89,0,0,1-1.91-2,1.94,1.94,0,0,1,2-2.11A1.89,1.89,0,0,1,157.19,511.26Zm-3.16,0a1.24,1.24,0,1,0,1.23-1.55A1.36,1.36,0,0,0,154,511.3Z" transform="translate(-10.09 -79.03)"/><rect class="cls-1" x="193.09" y="495.25" width="31.25" height="31.25" transform="translate(-310.2 218.19) rotate(-45)"/><path class="cls-2" d="M199.72,505.47a5.57,5.57,0,0,1,.93-0.07,1.54,1.54,0,0,1,1,.31,1,1,0,0,1,.33.78,1.1,1.1,0,0,1-.29.8,1.56,1.56,0,0,1-1.14.41,1.63,1.63,0,0,1-.39,0v1.5h-0.48v-3.7Zm0.48,1.81a1.65,1.65,0,0,0,.4,0,0.8,0.8,0,0,0,.94-0.8,0.74,0.74,0,0,0-.88-0.73,2.09,2.09,0,0,0-.46,0v1.46Z" transform="translate(-10.09 -79.03)"/><path class="cls-2" d="M202.57,507.32c0-.32,0-0.59,0-0.84H203l0,0.53h0a0.81,0.81,0,0,1,.74-0.59l0.14,0v0.46l-0.17,0a0.69,0.69,0,0,0-.66.63,1.43,1.43,0,0,0,0,.23v1.43h-0.48v-1.85Z" transform="translate(-10.09 -79.03)"/><path class="cls-2" d="M206.76,507.8a1.31,1.31,0,0,1-1.34,1.43,1.28,1.28,0,0,1-1.29-1.38,1.31,1.31,0,0,1,1.33-1.43A1.27,1.27,0,0,1,206.76,507.8Zm-2.13,0a0.84,0.84,0,1,0,.83-1A0.92,0.92,0,0,0,204.63,507.83Z" transform="translate(-10.09 -79.03)"/><path class="cls-2" d="M209.3,509.07a1.81,1.81,0,0,1-.77.16,1.28,1.28,0,0,1-1.34-1.37,1.37,1.37,0,0,1,1.44-1.43,1.62,1.62,0,0,1,.68.14l-0.11.38a1.14,1.14,0,0,0-.57-0.13,1,1,0,0,0,0,2,1.38,1.38,0,0,0,.6-0.13Z" transform="translate(-10.09 -79.03)"/><path class="cls-2" d="M210.11,507.91a0.86,0.86,0,0,0,.92.93,1.76,1.76,0,0,0,.74-0.14l0.08,0.35a2.17,2.17,0,0,1-.89.17,1.25,1.25,0,0,1-1.32-1.36,1.31,1.31,0,0,1,1.26-1.45,1.14,1.14,0,0,1,1.11,1.27,1.8,1.8,0,0,1,0,.23h-1.89Zm1.43-.35a0.7,0.7,0,0,0-.68-0.79,0.81,0.81,0,0,0-.75.79h1.43Z" transform="translate(-10.09 -79.03)"/><path class="cls-2" d="M212.9,507.91a0.86,0.86,0,0,0,.92.93,1.76,1.76,0,0,0,.74-0.14l0.08,0.35a2.17,2.17,0,0,1-.89.17,1.25,1.25,0,0,1-1.32-1.36,1.3,1.3,0,0,1,1.26-1.45,1.14,1.14,0,0,1,1.11,1.27,1.8,1.8,0,0,1,0,.23H212.9Zm1.43-.35a0.7,0.7,0,0,0-.68-0.79,0.81,0.81,0,0,0-.75.79h1.43Z" transform="translate(-10.09 -79.03)"/><path class="cls-2" d="M217.73,505.22v3.25c0,0.24,0,.51,0,0.69h-0.44l0-.47h0a1,1,0,0,1-.92.53,1.23,1.23,0,0,1-1.15-1.37,1.29,1.29,0,0,1,1.21-1.44,0.9,0.9,0,0,1,.81.41h0v-1.61h0.49Zm-0.49,2.35a0.87,0.87,0,0,0,0-.21,0.72,0.72,0,0,0-.71-0.57,0.89,0.89,0,0,0-.81,1,0.86,0.86,0,0,0,.79,1,0.74,0.74,0,0,0,.72-0.58,0.86,0.86,0,0,0,0-.21v-0.47Z" transform="translate(-10.09 -79.03)"/><path class="cls-2" d="M200,515.84l0-.34h0a1,1,0,0,1-.82.4,0.77,0.77,0,0,1-.82-0.77c0-.65.58-1,1.62-1v-0.06a0.55,0.55,0,0,0-.61-0.62,1.34,1.34,0,0,0-.7.2l-0.11-.32a1.67,1.67,0,0,1,.88-0.24,1,1,0,0,1,1,1.1v1a3.8,3.8,0,0,0,0,.64H200Zm-0.07-1.37c-0.53,0-1.14.08-1.14,0.61a0.43,0.43,0,0,0,.46.47,0.67,0.67,0,0,0,.65-0.45,0.51,0.51,0,0,0,0-.16v-0.47Z" transform="translate(-10.09 -79.03)"/><path class="cls-2" d="M201.08,515.34a1.28,1.28,0,0,0,.64.19,0.43,0.43,0,0,0,.52-0.4,0.55,0.55,0,0,0-.5-0.49,0.86,0.86,0,0,1-.71-0.76,0.83,0.83,0,0,1,.93-0.79,1.34,1.34,0,0,1,.66.17l-0.12.36a1,1,0,0,0-.55-0.16,0.39,0.39,0,0,0-.45.37c0,0.22.16,0.32,0.51,0.46a0.82,0.82,0,1,1-.3,1.62,1.53,1.53,0,0,1-.76-0.18Z" transform="translate(-10.09 -79.03)"/><path class="cls-2" d="M206.84,513.15c0,0.19,0,.41,0,0.74v1.56a1.55,1.55,0,0,1-.38,1.23,1.43,1.43,0,0,1-1,.32,1.73,1.73,0,0,1-.89-0.22l0.12-.37a1.51,1.51,0,0,0,.79.21,0.81,0.81,0,0,0,.87-0.94v-0.3h0a1,1,0,0,1-.85.45,1.2,1.2,0,0,1-1.14-1.31,1.29,1.29,0,0,1,1.21-1.43,0.89,0.89,0,0,1,.84.47h0l0-.41h0.43Zm-0.51,1.06a0.72,0.72,0,0,0-.71-0.74,0.88,0.88,0,0,0-.8,1,0.84,0.84,0,0,0,.79,1,0.72,0.72,0,0,0,.68-0.5,0.85,0.85,0,0,0,0-.26v-0.48Z" transform="translate(-10.09 -79.03)"/><path class="cls-2" d="M209.88,515.11c0,0.28,0,.52,0,0.73h-0.43l0-.44h0a1,1,0,0,1-.89.5,1,1,0,0,1-.93-1.18v-1.57h0.49v1.49c0,0.51.16,0.85,0.6,0.85a0.71,0.71,0,0,0,.64-0.44,0.71,0.71,0,0,0,0-.25v-1.65h0.49v2Z" transform="translate(-10.09 -79.03)"/><path class="cls-2" d="M211,514.58a0.86,0.86,0,0,0,.92.93,1.76,1.76,0,0,0,.74-0.14l0.08,0.35a2.17,2.17,0,0,1-.89.17,1.25,1.25,0,0,1-1.32-1.36,1.3,1.3,0,0,1,1.26-1.45,1.14,1.14,0,0,1,1.11,1.27,1.8,1.8,0,0,1,0,.23H211Zm1.43-.35a0.7,0.7,0,0,0-.68-0.79,0.81,0.81,0,0,0-.75.79h1.43Z" transform="translate(-10.09 -79.03)"/><path class="cls-2" d="M213.42,515.34a1.28,1.28,0,0,0,.64.19,0.43,0.43,0,0,0,.52-0.4,0.55,0.55,0,0,0-.5-0.49,0.86,0.86,0,0,1-.71-0.76,0.83,0.83,0,0,1,.93-0.79,1.34,1.34,0,0,1,.66.17l-0.12.36a1,1,0,0,0-.55-0.16,0.39,0.39,0,0,0-.45.37c0,0.22.16,0.32,0.51,0.46a0.82,0.82,0,1,1-.3,1.62,1.53,1.53,0,0,1-.76-0.18Z" transform="translate(-10.09 -79.03)"/><path class="cls-2" d="M216.27,512.38v0.77H217v0.37h-0.7V515c0,0.33.09,0.52,0.37,0.52a1.09,1.09,0,0,0,.28,0l0,0.37a1.22,1.22,0,0,1-.43.07,0.67,0.67,0,0,1-.53-0.21,1,1,0,0,1-.19-0.7v-1.47h-0.42v-0.37h0.42v-0.64Z" transform="translate(-10.09 -79.03)"/><path class="cls-2" d="M217.9,514.78v-0.14a1.28,1.28,0,0,1,.34-1,1.22,1.22,0,0,0,.39-0.76,0.46,0.46,0,0,0-.53-0.48,1,1,0,0,0-.56.17l-0.13-.35a1.45,1.45,0,0,1,.79-0.22,0.82,0.82,0,0,1,.93.82,1.5,1.5,0,0,1-.48,1,1.1,1.1,0,0,0-.32.82v0.14H217.9Zm-0.12.78a0.33,0.33,0,0,1,.33-0.35A0.35,0.35,0,1,1,217.78,515.56Z" transform="translate(-10.09 -79.03)"/><rect class="cls-5" x="178.06" y="357.92" width="41.12" height="28.78"/><path class="cls-2" d="M203,448.24a5.79,5.79,0,0,1-1.91.34,2.92,2.92,0,0,1-3.19-3.13,3.11,3.11,0,0,1,3.36-3.21,3.83,3.83,0,0,1,1.55.29l-0.19.65a3.22,3.22,0,0,0-1.37-.27,2.32,2.32,0,0,0-2.5,2.5,2.28,2.28,0,0,0,2.4,2.51,2.62,2.62,0,0,0,1.07-.17V445.9h-1.26v-0.65h2v3Z" transform="translate(-10.09 -79.03)"/><path class="cls-2" d="M207.9,447.3c0,0.46,0,.87,0,1.22h-0.72l0-.73h0a1.68,1.68,0,0,1-1.47.83c-0.7,0-1.54-.39-1.54-2v-2.61H205v2.47c0,0.85.26,1.42,1,1.42a1.14,1.14,0,0,0,1.14-1.15v-2.74h0.81v3.24Z" transform="translate(-10.09 -79.03)"/><path class="cls-2" d="M209.7,446.43a1.43,1.43,0,0,0,1.53,1.55,2.93,2.93,0,0,0,1.23-.23l0.14,0.58a3.61,3.61,0,0,1-1.48.28,2.07,2.07,0,0,1-2.19-2.25A2.17,2.17,0,0,1,211,444a1.89,1.89,0,0,1,1.84,2.1,3,3,0,0,1,0,.38H209.7Zm2.38-.58a1.15,1.15,0,0,0-1.12-1.32,1.34,1.34,0,0,0-1.24,1.32h2.37Z" transform="translate(-10.09 -79.03)"/><path class="cls-2" d="M213.76,447.69a2.13,2.13,0,0,0,1.07.32,0.72,0.72,0,0,0,.87-0.66,0.92,0.92,0,0,0-.83-0.82,1.43,1.43,0,0,1-1.18-1.26,1.38,1.38,0,0,1,1.54-1.31,2.23,2.23,0,0,1,1.1.28l-0.2.59a1.73,1.73,0,0,0-.91-0.26,0.65,0.65,0,0,0-.75.61c0,0.37.27,0.54,0.85,0.76a1.36,1.36,0,1,1-.5,2.68,2.54,2.54,0,0,1-1.25-.3Z" transform="translate(-10.09 -79.03)"/><path class="cls-2" d="M218.49,442.77v1.28h1.16v0.62h-1.16v2.41c0,0.55.16,0.87,0.61,0.87a1.78,1.78,0,0,0,.47-0.06l0,0.61a2,2,0,0,1-.72.11,1.12,1.12,0,0,1-.88-0.34,1.65,1.65,0,0,1-.31-1.16v-2.43H217v-0.62h0.69V443Z" transform="translate(-10.09 -79.03)"/><path class="cls-2" d="M194.82,459.41a3,3,0,0,1-1.28.26,2.12,2.12,0,0,1-2.22-2.28,2.27,2.27,0,0,1,2.4-2.37,2.72,2.72,0,0,1,1.12.23l-0.18.63a1.87,1.87,0,0,0-.94-0.21,1.68,1.68,0,0,0,0,3.36,2.3,2.3,0,0,0,1-.22Z" transform="translate(-10.09 -79.03)"/><path class="cls-2" d="M195.77,453h0.81v2.78h0a1.51,1.51,0,0,1,.58-0.57A1.67,1.67,0,0,1,198,455a1.62,1.62,0,0,1,1.56,1.91v2.65h-0.81V457a1.1,1.1,0,0,0-1-1.33,1.17,1.17,0,0,0-1.09.81,1,1,0,0,0-.06.39v2.69h-0.81V453Z" transform="translate(-10.09 -79.03)"/><path class="cls-2" d="M201.33,457.49a1.43,1.43,0,0,0,1.53,1.55,2.93,2.93,0,0,0,1.23-.23l0.14,0.58a3.61,3.61,0,0,1-1.48.28,2.07,2.07,0,0,1-2.19-2.25,2.17,2.17,0,0,1,2.09-2.41,1.89,1.89,0,0,1,1.84,2.1,3,3,0,0,1,0,.38h-3.13Zm2.38-.58a1.16,1.16,0,0,0-1.12-1.32,1.34,1.34,0,0,0-1.24,1.32h2.37Z" transform="translate(-10.09 -79.03)"/><path class="cls-2" d="M208.68,459.41a3,3,0,0,1-1.28.26,2.12,2.12,0,0,1-2.22-2.28,2.27,2.27,0,0,1,2.4-2.37,2.72,2.72,0,0,1,1.12.23l-0.18.63a1.87,1.87,0,0,0-.94-0.21,1.68,1.68,0,0,0,0,3.36,2.3,2.3,0,0,0,1-.22Z" transform="translate(-10.09 -79.03)"/><path class="cls-2" d="M210.43,457.16h0c0.11-.16.27-0.35,0.4-0.51l1.31-1.54h1l-1.72,1.83,2,2.63h-1l-1.54-2.14-0.41.46v1.68h-0.8V453h0.8v4.13Z" transform="translate(-10.09 -79.03)"/><path class="cls-2" d="M218,457.31a2.18,2.18,0,0,1-2.22,2.37,2.12,2.12,0,0,1-2.14-2.29,2.18,2.18,0,0,1,2.21-2.37A2.11,2.11,0,0,1,218,457.31Zm-3.54,0a1.39,1.39,0,1,0,1.37-1.73A1.52,1.52,0,0,0,214.45,457.36Z" transform="translate(-10.09 -79.03)"/><path class="cls-2" d="M222.75,458.36c0,0.46,0,.87,0,1.22h-0.72l0-.73h0a1.68,1.68,0,0,1-1.47.83c-0.7,0-1.54-.39-1.54-2v-2.61h0.81v2.47c0,0.85.26,1.42,1,1.42a1.14,1.14,0,0,0,1.14-1.15v-2.74h0.81v3.24Z" transform="translate(-10.09 -79.03)"/><path class="cls-2" d="M225.07,453.83v1.28h1.16v0.62h-1.16v2.41c0,0.55.16,0.87,0.61,0.87a1.78,1.78,0,0,0,.47-0.06l0,0.61a2,2,0,0,1-.72.11,1.12,1.12,0,0,1-.88-0.34,1.65,1.65,0,0,1-.31-1.16v-2.43h-0.69v-0.62h0.69V454Z" transform="translate(-10.09 -79.03)"/><line class="cls-6" x1="41.12" y1="63.64" x2="64.17" y2="63.64"/><line class="cls-6" x1="108.37" y1="64.12" x2="131.41" y2="64.12"/><line class="cls-6" x1="153.48" y1="63.64" x2="178.06" y2="63.64"/><line class="cls-6" x1="198.62" y1="79.36" x2="198.62" y2="101.56"/><line class="cls-6" x1="198.62" y1="145.75" x2="198.62" y2="168.8"/><line class="cls-6" x1="198.62" y1="203.83" x2="198.62" y2="180.78"/><line class="cls-6" x1="198.62" y1="255.65" x2="198.62" y2="232.6"/><line class="cls-6" x1="198.62" y1="322.89" x2="198.62" y2="299.85"/><line class="cls-6" x1="198.62" y1="357.92" x2="198.62" y2="334.88"/><line class="cls-6" x1="198.62" y1="386.7" x2="198.62" y2="409.74"/><line class="cls-6" x1="176.53" y1="431.84" x2="153.48" y2="431.84"/><polyline class="cls-6" points="142.45 425.85 142.45 218.22 178.06 218.22"/><line class="cls-6" x1="220.72" y1="277.75" x2="243.77" y2="277.75"/><line class="cls-6" x1="220.72" y1="123.65" x2="243.77" y2="123.65"/><polyline class="cls-6" points="254.8 117.66 254.8 70.12 219.19 70.12"/><line class="cls-6" x1="265.28" y1="59.08" x2="219.19" y2="59.08"/><polyline class="cls-6" points="254.8 271.75 254.8 218.22 219.19 218.22"/><rect class="cls-1" x="281.84" y="276.7" width="31.25" height="31.25" transform="translate(-129.67 216.93) rotate(-45)"/><path class="cls-2" d="M287.51,290.26a6.92,6.92,0,0,1,1-.08,2.14,2.14,0,0,1,1.52.47,1.72,1.72,0,0,1,.53,1.34,2,2,0,0,1-.54,1.46,2.31,2.31,0,0,1-1.66.54,7.79,7.79,0,0,1-.88,0v-3.68Zm0.48,3.31a3,3,0,0,0,.49,0,1.44,1.44,0,0,0,1.59-1.59,1.34,1.34,0,0,0-1.52-1.44,2.74,2.74,0,0,0-.57.05v3Z" transform="translate(-10.09 -79.03)"/><path class="cls-2" d="M292.69,294l0-.34h0a1,1,0,0,1-.82.4,0.77,0.77,0,0,1-.82-0.77c0-.65.58-1,1.62-1v-0.06a0.55,0.55,0,0,0-.61-0.62,1.34,1.34,0,0,0-.7.2l-0.11-.32a1.67,1.67,0,0,1,.88-0.24,1,1,0,0,1,1,1.1v1a3.8,3.8,0,0,0,0,.64h-0.44Zm-0.07-1.37c-0.53,0-1.14.08-1.14,0.61a0.43,0.43,0,0,0,.46.47,0.67,0.67,0,0,0,.65-0.45,0.51,0.51,0,0,0,0-.16v-0.47Z" transform="translate(-10.09 -79.03)"/><path class="cls-2" d="M294.45,290.49v0.77h0.7v0.37h-0.7v1.45c0,0.33.09,0.52,0.37,0.52a1.09,1.09,0,0,0,.28,0l0,0.37a1.19,1.19,0,0,1-.43.07,0.68,0.68,0,0,1-.53-0.21,1,1,0,0,1-.19-0.7v-1.47h-0.42v-0.37H294v-0.64Z" transform="translate(-10.09 -79.03)"/><path class="cls-2" d="M297.19,294l0-.34h0a1,1,0,0,1-.82.4,0.77,0.77,0,0,1-.82-0.77c0-.65.58-1,1.62-1v-0.06a0.55,0.55,0,0,0-.61-0.62,1.34,1.34,0,0,0-.7.2l-0.11-.32a1.67,1.67,0,0,1,.88-0.24,1,1,0,0,1,1,1.1v1a3.8,3.8,0,0,0,0,.64h-0.44Zm-0.07-1.37c-0.53,0-1.14.08-1.14,0.61a0.43,0.43,0,0,0,.46.47,0.67,0.67,0,0,0,.65-0.45,0.51,0.51,0,0,0,0-.16v-0.47Z" transform="translate(-10.09 -79.03)"/><path class="cls-2" d="M302.77,292a1.75,1.75,0,0,1-1.74,2,1.72,1.72,0,0,1-1.68-1.9,1.78,1.78,0,0,1,1.74-2A1.7,1.7,0,0,1,302.77,292Zm-2.9.06a1.24,1.24,0,1,0,1.2-1.56A1.34,1.34,0,0,0,299.87,292.1Z" transform="translate(-10.09 -79.03)"/><path class="cls-2" d="M303.87,292.5h0l0.24-.31,0.79-.93h0.59l-1,1.1,1.18,1.58H305l-0.93-1.29-0.25.28v1h-0.48V290h0.48v2.49Z" transform="translate(-10.09 -79.03)"/><path class="cls-2" d="M306.37,292.89v-0.14a1.28,1.28,0,0,1,.34-1,1.22,1.22,0,0,0,.39-0.76,0.46,0.46,0,0,0-.53-0.48,1,1,0,0,0-.56.17l-0.13-.35a1.46,1.46,0,0,1,.79-0.22,0.82,0.82,0,0,1,.93.82,1.5,1.5,0,0,1-.48,1,1.1,1.1,0,0,0-.32.82v0.14h-0.43Zm-0.12.78a0.33,0.33,0,0,1,.33-0.35A0.35,0.35,0,1,1,306.25,293.67Z" transform="translate(-10.09 -79.03)"/><line class="cls-6" x1="219.19" y1="213.29" x2="265.28" y2="213.29"/><polyline class="cls-6" points="287.38 191.19 287.38 180.78 253.27 180.78"/><polyline class="cls-6" points="231.2 180.78 214.91 180.78 214.91 203.83"/><line class="cls-6" x1="86.27" y1="42.03" x2="86.27" y2="12.53"/><polyline class="cls-6" points="97.3 5.99 398.2 5.99 398.2 44.7"/><line class="cls-6" x1="309.47" y1="59.08" x2="332.52" y2="59.08"/><line class="cls-6" x1="354.59" y1="59.08" x2="377.63" y2="59.08"/><line class="cls-6" x1="309.47" y1="213.29" x2="332.52" y2="213.29"/><rect class="cls-3" x="244.26" y="425.85" width="22.07" height="11.99"/><path class="cls-2" d="M261.65,513.28v-2.35l-1.75-3.19h0.81l0.78,1.53c0.21,0.42.38,0.76,0.55,1.14h0c0.16-.36.35-0.72,0.56-1.14l0.8-1.53h0.81l-1.86,3.18v2.36h-0.72Z" transform="translate(-10.09 -79.03)"/><path class="cls-2" d="M264.61,511.42a1.28,1.28,0,0,0,1.37,1.38,2.62,2.62,0,0,0,1.1-.21l0.12,0.52a3.24,3.24,0,0,1-1.32.25,1.85,1.85,0,0,1-2-2,1.93,1.93,0,0,1,1.87-2.15,1.69,1.69,0,0,1,1.64,1.88,2.74,2.74,0,0,1,0,.34h-2.8Zm2.12-.52a1,1,0,0,0-1-1.18,1.2,1.2,0,0,0-1.11,1.18h2.11Z" transform="translate(-10.09 -79.03)"/><path class="cls-2" d="M268.23,512.54a1.9,1.9,0,0,0,1,.29,0.64,0.64,0,0,0,.77-0.59,0.82,0.82,0,0,0-.74-0.73,1.28,1.28,0,0,1-1.05-1.13,1.23,1.23,0,0,1,1.37-1.17,2,2,0,0,1,1,.25l-0.18.53a1.55,1.55,0,0,0-.81-0.23,0.58,0.58,0,0,0-.67.54c0,0.33.24,0.48,0.76,0.67a1.22,1.22,0,1,1-.44,2.39,2.26,2.26,0,0,1-1.12-.27Z" transform="translate(-10.09 -79.03)"/><line class="cls-6" x1="221.21" y1="431.84" x2="244.26" y2="431.84"/><polyline class="cls-6" points="388.75 73.47 388.75 213.4 354.59 213.4"/><polyline class="cls-6" points="266.32 431.84 409.1 431.84 409.1 73.47"/><line class="cls-6" x1="441.8" y1="59.08" x2="418.76" y2="59.08"/><polyline class="cls-6" points="452.65 5.99 408.89 5.99 408.89 44.54"/><line class="cls-6" x1="486" y1="59.08" x2="509.05" y2="59.08"/><line class="cls-6" x1="531.11" y1="59.08" x2="554.16" y2="59.08"/><line class="cls-6" x1="595.28" y1="59.08" x2="618.33" y2="59.08"/><line class="cls-6" x1="662.53" y1="59.08" x2="685.57" y2="59.08"/><line class="cls-6" x1="730.69" y1="59.08" x2="707.64" y2="59.08"/><line class="cls-6" x1="463.9" y1="36.98" x2="463.9" y2="11.99"/><rect class="cls-4" x="629.39" width="22.07" height="11.99"/><path class="cls-1" d="M646.19,87.44V81.89H647l1.78,2.8a15.65,15.65,0,0,1,1,1.8h0c-0.07-.74-0.08-1.41-0.08-2.28V81.89h0.67v5.54h-0.72l-1.76-2.81a17.51,17.51,0,0,1-1-1.85h0c0,0.7.06,1.37,0.06,2.29v2.37h-0.67Z" transform="translate(-10.09 -79.03)"/><path class="cls-1" d="M655.17,85.41a2,2,0,0,1-2,2.11,1.89,1.89,0,0,1-1.91-2,1.94,1.94,0,0,1,2-2.11A1.89,1.89,0,0,1,655.17,85.41Zm-3.16,0a1.24,1.24,0,1,0,1.22-1.55A1.35,1.35,0,0,0,652,85.45Z" transform="translate(-10.09 -79.03)"/><line class="cls-6" x1="640.64" y1="36.98" x2="640.64" y2="11.99"/><polyline class="cls-6" points="629.39 5.99 574.72 5.99 574.72 44.7"/><line class="cls-6" x1="287.38" y1="36.98" x2="287.38" y2="25.26"/><polyline class="cls-6" points="276.34 18.52 198.62 18.52 198.62 49.74"/></svg>