<svg id="Layer_1" data-name="Layer 1" xmlns="http://www.w3.org/2000/svg" viewBox="0 0 1283.5 1768.5"><defs><style>.cls-1,.cls-5{fill:#fff;}.cls-1,.cls-7{stroke:#000;}.cls-1,.cls-2,.cls-7,.cls-8{stroke-miterlimit:10;}.cls-2{stroke:gray;opacity:0.8;}.cls-3{fill:#909090;}.cls-4{fill:#666;}.cls-6,.cls-7,.cls-8{fill:none;}.cls-8{stroke:#fff;stroke-width:3px;}</style></defs><title>Untitled-1</title><rect class="cls-1" x="0.51" y="0.63" width="1279.49" height="1767.38"/><rect class="cls-2" x="0.5" y="0.5" width="1280" height="75"/><path class="cls-3" d="M1279.56,0.66c0.48-.13.19-0.3-1.14-0.15l-0.92.41Z" transform="translate(1.5 0.13)"/><path class="cls-3" d="M1270.53,0.79c-1.56.29-3.34,0.72-2.3,0.94,1.53-.44,1.92-0.34,3.56-0.86,1.33-.15,2.34-0.09,2.13.05a23.61,23.61,0,0,0,2.78-.36,27.6,27.6,0,0,0-6.25.46C1269.95,1,1270.42.86,1270.53,0.79Z" transform="translate(1.5 0.13)"/><path class="cls-3" d="M1139.95,11l0.84,0C1140.56,10.95,1140.27,11,1139.95,11Z" transform="translate(1.5 0.13)"/><path class="cls-3" d="M1059.05,17.43a3.15,3.15,0,0,0,.9-0.14A2.93,2.93,0,0,0,1059.05,17.43Z" transform="translate(1.5 0.13)"/><path class="cls-3" d="M1045.21,18.2l0.82,0A4.23,4.23,0,0,0,1045.21,18.2Z" transform="translate(1.5 0.13)"/><path class="cls-3" d="M1139.95,11l-2.17.07A9.2,9.2,0,0,0,1139.95,11Z" transform="translate(1.5 0.13)"/><path class="cls-3" d="M1252.59,3.06c0.45-.05.83-0.11,1.17-0.18l-1.1.13Z" transform="translate(1.5 0.13)"/><path class="cls-3" d="M1175.58,7.79l0.66-.05c0.19-.05.37-0.11,0.53-0.18Z" transform="translate(1.5 0.13)"/><path class="cls-3" d="M1202.94,5.49a1.67,1.67,0,0,0-1,.48,5.15,5.15,0,0,1,1.33-.3A0.34,0.34,0,0,0,1202.94,5.49Z" transform="translate(1.5 0.13)"/><path class="cls-3" d="M1246.37,2.43l0.77-.1Z" transform="translate(1.5 0.13)"/><path class="cls-3" d="M1156,9.34a0.59,0.59,0,0,0-.26-0.08A0.36,0.36,0,0,0,1156,9.34Z" transform="translate(1.5 0.13)"/><path class="cls-3" d="M390.83,74.21s0,0,0,0C390.67,74.21,390.62,74.23,390.83,74.21Z" transform="translate(1.5 0.13)"/><path class="cls-3" d="M359,75.43l0.44-.05a0.29,0.29,0,0,0,.08-0.16Z" transform="translate(1.5 0.13)"/><path class="cls-3" d="M1019.91,19.92H1020C1020.69,19.83,1020.31,19.86,1019.91,19.92Z" transform="translate(1.5 0.13)"/><path class="cls-3" d="M787.93,39.15c2.65,0-4.25.67-.27,0.63C787.28,39.7,791.22,39,787.93,39.15Z" transform="translate(1.5 0.13)"/><path class="cls-3" d="M1251.88,3.08l-1.12.09C1251.27,3.14,1251.62,3.12,1251.88,3.08Z" transform="translate(1.5 0.13)"/><path class="cls-3" d="M787.65,39.78h0Z" transform="translate(1.5 0.13)"/><path class="cls-3" d="M961.7,24.86a3.16,3.16,0,0,0,.6.07A1.65,1.65,0,0,0,961.7,24.86Z" transform="translate(1.5 0.13)"/><path class="cls-3" d="M1005.11,21.7l-1.08.05C1004.46,21.74,1004.81,21.72,1005.11,21.7Z" transform="translate(1.5 0.13)"/><path class="cls-3" d="M939.2,27.1a13.3,13.3,0,0,0-1.58.11h0.24A6.66,6.66,0,0,1,939.2,27.1Z" transform="translate(1.5 0.13)"/><path class="cls-3" d="M915.76,29l0.44,0,0.74-.08Z" transform="translate(1.5 0.13)"/><path class="cls-3" d="M462.07,68.23a6,6,0,0,1-1.1-.16C461.35,68.24,457.91,68.6,462.07,68.23Z" transform="translate(1.5 0.13)"/><path class="cls-3" d="M1252.57,2.9a1.74,1.74,0,0,1-.69.18l0.78-.08C1252.72,3,1252.74,2.92,1252.57,2.9Z" transform="translate(1.5 0.13)"/><path class="cls-3" d="M938.43,29.39l-3.73.26C935.75,29.6,937.1,29.5,938.43,29.39Z" transform="translate(1.5 0.13)"/><path class="cls-3" d="M630.25,54.4l-0.85.1A5.73,5.73,0,0,0,630.25,54.4Z" transform="translate(1.5 0.13)"/><path class="cls-3" d="M923.65,30.61c-0.67,0-1.38,0-2.11,0a3.41,3.41,0,0,0-.43.11Z" transform="translate(1.5 0.13)"/><path class="cls-3" d="M461,68.07h0Z" transform="translate(1.5 0.13)"/><path class="cls-3" d="M436.48,70.75c3.55-.28,1.64-0.5,2.37-0.77,4.23-.45,2,0.11,3.44.18,2.64-.31,4.64-0.82,6.61-1,0.15,0,.54,0,0.09.15,2.77-.52,8.3-0.7,11.53-1.33a1.71,1.71,0,0,1,.43.06c-0.54-.14-0.64-0.32-0.54-0.46a16.23,16.23,0,0,1,3.55-.28,5.29,5.29,0,0,0-1.5.29l1.66-.24c1.53,0.22-2.27.31-2.24,0.56,3.24-.38,7-1,9.51-1.08,0.55,0.3-5.82.59-2.47,0.62l-3.87.19c3,0.29-2.34.15,0.41,0.5,5.08-.32,5.66-0.64,10.73-1,1.12-.28-0.4-0.25.72-0.53,7.16-.93,5.73.39,11-0.5a15.59,15.59,0,0,1,5.63-.89l-1.25.49c4.91-.36,2.76-0.78,7.92-0.94-0.9.23-3.85,0.44-3.1,0.43,3.36,0,2.34-.41,4.9-0.62l0.56,0.3c5.22-.48,11-1.2,16.75-1.74-0.31.13-1.3,0.31,0.07,0.31,7.29-.77,15.59-1.24,22.65-1.61l2.67-.51c0.63,0,1.17,0,.5.15,2.75-.11.13-0.2,1.44-0.42,1.56-.15,2.08,0,1.09.17,4.82-.65,13.76-1.67,18.89-1.77l-1,.17c4-.21,4.44-1,8.15-1l-0.7.11c8.64-.58,18.15-1.63,24.77-1.73,1.22-.52,8.55-0.51,9.06-1.15,4.95-.11,3.55.11,10.5-0.27,1.85-.12,2.73-0.59,5-0.84l0.08,0.3,3.08-.58,1.69,0.23,2.14-.26a4,4,0,0,1-1.71-.09,47.24,47.24,0,0,1,8.29-.31l7.92-.91a16.18,16.18,0,0,1-2.54.45c4.21-.66.8,0.26,4.66-0.35-0.53,0,.27-0.21.35-0.28,2,0,6.36-.33,9.61-0.68l-0.61.26c5.89-.43,12.41-1.12,19-1.66-2.38.1-1.86-.32,0.07-0.51l0.8,0.26c1.24-.3-2,0,0.51-0.41,2.47-.17,1.69.23,0.28,0.46l3-.36c0.18,0.08-.52.19-0.69,0.33,1.21-.3,5.21-0.1,7-0.6l0.18,0.08c6.61-.54,9.59-0.9,15-1.35,0.08-.29,2.19-0.4,3.78-0.76,4-.23,8.37-0.37,13.13-0.79,3.34-.41,1-0.32,2.45-0.61,0.27,0.24,5-.18,2.57.21,5.72-.51,7.3-0.65,14.52-1.45-0.79,0-1.68,0-1.23-.14a7.83,7.83,0,0,1,2.82,0l-0.34.05c8.09-1,18.8-.79,25.22-1.86l-0.36.06,6.68-.83c3.09-.21-1.83.34,0.46,0.31,7.2-1,11.43-.88,17.37-1.65,4.67,0.37,16.36-1.39,22.62-1.42l-0.37-.15a14,14,0,0,1,3.14-.11c-0.18-.12-1.76,0-0.77-0.19,13.61-1.33,28.14-2,42.13-3,5.11-.37,2.82-1.16,9.3-1.26l-1.8.48c10.28-1.24,21.08-1.72,31.15-2.88a7.18,7.18,0,0,1-1.59.31,41.89,41.89,0,0,0,7.9-.83c1.57-.11.38,0.15,1.36,0.17,2.15,0,5.34-.75,6.5-0.6a3.54,3.54,0,0,1-1,.18c1.38-.23,6.5-0.5,5.14-0.67,3.8-.18,7.24-0.72,10.27-0.8,1.95-.47,6.5-0.38,7.09-0.87-0.23.47,6.67-.18,9-0.59-0.79.2,2.09,0,1.17,0.24,2.73-.23,5.23-0.52,4.74-0.71,5.08,0.13,10.09-1.26,13-.81,8.1-.91,15.6-1.69,22.9-2.39-0.23.47-8.07,0.71-7.72,1.15,6.91-.75,10.88-1.47,17.76-1.92,1.78-.08-1,0.28-1.59.4,6.91-.75,13.39-1.06,19.53-1.81a8,8,0,0,1-1.3.23c1.21-.11,2.83-0.17,2.67-0.36l-1.18.15c-2-.14,4.77-1,5-1.19-2,.75,6.1-0.35,2.88.66,0.8-.1,1.79-0.28,1.6-0.4,1.19-.06,1.57,0,0.38.25,4.34-.47,2.78-0.56,6.72-0.88a7.71,7.71,0,0,1-1.2.35,53.41,53.41,0,0,1,7.3-.9c-0.2.08,0.2,0.12-.8,0.2,5.72-.5,9.7-1.31,16-1.64-1.82.58,2.15,0,2.51,0.31l3.36-.39-1.37-.07c3-.24,5.54-0.72,8.09-0.81l-2.18.33,5.53-.52-3.15.12c3-.44-0.36-0.44,3.58-0.66-0.8.1,3-.24,4.51-0.14h0a37.94,37.94,0,0,1,5.14-.57c0.58,0.07-.42.45,0,0.5,1.42-.43,6.91-0.65,8.71-1.13-0.6.13-.62,0.33-0.41,0.35l1.19-.35c1.38,0,1.58,0,1.37.17,4.12-.29-1.35-0.36,3.56-0.56-0.38.05-.2,0.07-1,0.18,4.92-.3,9.47-0.94,14-1.18,1.36,0.27-3.93.41-2.38,0.61,6.5-.6,13.43-1.55,19.73-2L1115,14c0.83-.6,4.71-0.12,7.87-0.63-0.78.1-1,.38-0.79,0.3,4.32-.27,8.8-0.85,15.31-1.55l-0.8.2c2.55-.09,6.69-0.48,9.44-0.64,0.8-.2,2.37-0.31,1.4-0.43,8.52,0.08,16.1-1.74,23.66-1.71-0.9.08-2.13,0.29-1.42,0.24l6.38-.65A8.76,8.76,0,0,0,1173.9,9a32.09,32.09,0,0,1,4.18-.59c-2.86.39,0.06,0.37,1.31,0.39-0.21-.05.21-0.17,0.09-0.23,3.37,0.14.52-.51,5.1-0.61l-0.23.14c1.7-.2,3.26-0.49,5.1-0.61,0.78,0.2-1.81.27-1.91,0.5,2.58-.23,5.06-0.92,7.42-0.85-1.09.16-2.67,0.29-3.76,0.46a33.3,33.3,0,0,0,4.76-.11h-0.19l4.39-.22H1199c3.18-1,6.57-.67,10.89-1.48-4.2.78-.68,0.31-1,0.63,1.12,0,2.82-.05,2.34.07,2-.41,3.45-0.09,6.33-0.68,0.14,0.09,2.2-.17,1.76.11,2.67-.3-0.65-0.12-0.43-0.26,4.1-.67,9.73-0.39,15.63-1.34,5.1-.61,6-1,10.76-1.57,1.62,0-1.28.46-1.28,0.46a63.87,63.87,0,0,0,7-.57c-0.49.13,0,.16,0.78,0.2,2-.19,1.28-0.46,3.87-0.53a13.08,13.08,0,0,1-1.92.55c2.3-.28,4.56-0.65,6.94-0.93,0.65,0.12-1.42.38-2.25,0.55a67.43,67.43,0,0,0,7.74-1.06l-1.73,0c1-.09.52,0.19-0.2,0.3a7.41,7.41,0,0,1-3.46.09l1.69-.2c-1.79-.43-6.82.65-10.24,0.9l1.39-.53-3.48.63c-0.75,0-1.28-.24.4-0.44-2.47,0-2.16.33-4.28,0.27-0.24,0-.13,0,0.08-0.08l-2.39.32c0.46-.13-0.42-0.26,1.05-0.32-4.32.11-6.91,0.88-8.55,0.7l0.36-.05c-6,.63-0.55.35-5,1.08l-3.07-.5-0.56.35c-0.62,0-1.84.12-1.62,0-2.27.4,0.4,0.1-.91,0.41-3,0-8.16.8-8.87,0.37-1,.32,2.85-0.05-0.3.37-0.94-.45-3.65.39-6.38,0.37,0.81-.34,3.38-0.41.66-0.42-1.6.59-5.28,0.33-7.55,0.61-0.08.37-5,.56-8.77,1,0.23-.14-7.23.39-10.8,0.55l0.1-.07c-0.66.42-4.34,0.66-7,1,0.09-.23.56-0.35,2-0.57l-2.52.21a18.86,18.86,0,0,1-3,.47l0.61-.33c-3.35.29-6.72,0.88-11,1-0.22.28,3.49,0.43-1.06,1-0.18-.12-0.37-0.35.82-0.5a17.92,17.92,0,0,1-2.18.23l1.8-.38c-2,.06-1,0.28-2.58.39,0-.2-1.17,0-1-0.22,0.4-.05,1.38,0,2-0.16a38,38,0,0,1-4.64.08c0.16,0.1,0,.27-1.27.4-3.35.29-1.17-.14-3.13-0.08-0.8.2-2.95,0.24-3,.54a4.64,4.64,0,0,1-1.56-.09c-1.72.27-8.09,0.7-6.11,0.85l0.45,0-0.28,0h0c-5.66.76-11.82,0.8-17.44,1.39v-0.1c-3.36.39-7.48,0.68-9.87,1.09-1,.08-2.36,0-1.95-0.14a59.26,59.26,0,0,1-6.57.56c2.57-.38-0.9-0.08,2.64-0.34a56,56,0,0,0-7.69.66c1.2-.35-2.54-0.11-4.12.09h2.36c-1.78.18-3.35,0.29-4.94,0.4l0.83-.4c-6.87.16-12.28,1.7-17.54,1.45-1.79.38,3.73-.14,2.13,0.26-3.15.21-6.47,0-7.45,0.09-4.32.17-4,.81-8.5,1.06,0.59,0.07,1.16.34-2.2,0.73-3.15.21-3.91-.18-1.93-0.44a2.89,2.89,0,0,1,1.09,0c1-.13,2.34-0.29,1.09-0.31l-0.4.15c-1.57,0-5.9.38-4.9,0.1-2.37.31-1,.28,0.77,0.19-4.05.16-6.31,0.51-10.47,0.74,0.67,0,1.29.1,0.63,0.15-6.11.35-2.67,0.44-6.79,0.84-2.36,0,.81-0.5-3.34,0-2.55.09-.56-0.27,0.44-0.45a92.59,92.59,0,0,1-9.26.57l2-.26c-1.19.15-2.17,0.23-3.16,0.31l1.16,0.14a9.46,9.46,0,0,1-2.15,0c-1.19.25,1,.32-1.42,0.73-1.57,0-4.75.52-5.31,0.25,4.92-.3-0.57-0.27,3.59-0.66-0.8.1-1.78,0.18-3,.24-0.18,0,.16-0.08.48-0.12-4.72.1-2.13,0.53-7,.92,0.6-.23-1.16-0.24-1.95-0.14,2-.16,1,0.22-0.83.5-3.14.12-3.39,0.38-5,.5l1.87-.09a30.63,30.63,0,0,1-4.36.57c-0.2-.12,2-0.26,1.19-0.25-2.39.51-5.49,0.13-8.84,0.61-1.57,0-.18-0.32-1.56-0.29-3.76.54-4.11,0.09-8.07,0.61,1.16,0.14,1.36.07-1.42,0.53l6.52-.7-4.16.69c2-.16,4.15-0.49,5.33-0.55-2,.36-1.78.28-0.82,0.4-2.73-.14-5.33.65-8.47,0.66l0-.6c-4.71.12-8.3,1-14.4,1.34l2-.06c-0.8.3-3.75,0.34-5.72,0.6,0.17-.21-1.07-0.18-1.92-0.24,0.11,0.14-4.45.35-5,.79l-2.74,0c-4.92.3-5.56,1-10.29,1.34,1.41-.33-0.75-0.29,2.4-0.71a13.85,13.85,0,0,0-3,.35c-0.93,0-4.35.62-5.82,0.56a10,10,0,0,1-2.63.49c-0.2,0,0-.1,0-0.1s-2.76.36-1.2,0.45c-4.91-.22-13.57,1.16-17.84,1-3.44.35-7.58,0.75-10.7,1a0.78,0.78,0,0,1,.59-0.13c-4.32.17-2.6,0.78-7.52,1-2.53-.11,2.59-0.39,1-0.38-0.73-.59-5.91.57-9.24,0.47l0.8-.1c-2.54,0-6.13.75-10.26,1,0,0,.2-0.07,0-0.1-2.79.56-8.12,1.11-12.08,1.53,1.21-.35,1.79-0.28,1-0.48-1.77.18,0.55,0.37-3,.73-1.16,0-3.73,0-4.1-.2l3.34-.29c-1.74-.21-4.33.37-6.1,0.45l0.21-.17c-5.12.47-5.16,0.87-10.68,1.29l0.58,0.07c-3,.63-2.54,0-5.52.52L843.65,35c-2,.26-6.93,1-10.49,1.32,2-.46,6.15-0.95,8.72-1.33-2,.16-6.69.58-7.7,0.86a22.66,22.66,0,0,1,2.57-.29,77.41,77.41,0,0,1-9.49,1.24c0.63-.82-10.25.65-13.14,0.29-6.92.85-13.79,1-21.87,1.72,2.92,0.36-2.36.21-1.81,0.78a23.64,23.64,0,0,1-2.77.22l-5.74.1c-1.37-.07,1.78-0.28,1.6-0.4-4.13.29-1.75-.12-4.5-0.05,0.58,0.17-1.41.43-3.77,0.54h3.34c-5.74.8-5-.1-10.81,0.7l1.82-.34c-3,.36-11,0.9-13.89,1.63-0.53,0-1.24-.14.07-0.29-7.13.51-15.82,1.82-21.39,2l0.53-.19a25.93,25.93,0,0,1-4,.46c0.08-.07.52-0.19-0.09-0.15a53.08,53.08,0,0,1-5.28.61l1.49-.29c-7,.38-10.64,1.28-16.46,1.86,0-.44-5.5-0.13-8.24,0l0.09-.07c-8.1.61-13.72,1.49-21.21,2.28-4.69-.09-15.78,1.09-23.28,1.44,1.15,0-.16.36-1.48,0.51-1.76.06-4.83,0.7-4.58,0.28l0.63,0c-1.36-.29-5,0.11-7.77.33l-0.42.56c-7.43-.16-19.28,1.86-23.36,1.51-1.77.28-4,.46-5.72,0.73l0.07-.29c-4.93.33-7.39,0.5-13.48,1.06l1.22-.3c-3.44.26-4.27,1.17-7.44,1.45l-1-.34c-6,.5-12.09.63-18,1.49a2.21,2.21,0,0,1,1.23-.3c-2.82.22-10.93,0.61-9.86,1.1-0.1-.37-6.18.47-9.41,0.9l0.48-.32A42.37,42.37,0,0,1,552.54,59c-0.91,0-.81-0.16.4-0.18-3,.1-2.33.46-6,0.61l1.35-.29a21.19,21.19,0,0,0-4.54.65,29.92,29.92,0,0,1-6.36.2,14.94,14.94,0,0,1-3.92.61c-0.25-.07.41-0.19,0.74-0.24-5.2.24-7.68,1-11.26,1a1,1,0,0,0-.62-0.12c4.12-.33,7.43-0.59,7.12-0.54,0-.26-3.35,0-0.73-0.6-2.65.41-7.18,1.21-10.43,1.35a2.87,2.87,0,0,1-.44-0.05l0.33-.06a19.78,19.78,0,0,0-2,.21c-1,0-1.7.07-2.69,0.14A42.2,42.2,0,0,0,508,62c0.16,0.27-2,.4,0,0.47a6.17,6.17,0,0,1,1.41-.16l0.7-.09-0.11,0,4.12-.36a21.86,21.86,0,0,1-4.5.48c-0.84.25-1.76,0.51-2.28,0.64-2.3-.2-6.69-0.06-7.32-0.25-5,.57-11.92,1.08-15.06,1.87a6.09,6.09,0,0,1-2.21-.05c0.83-.12,1.82-0.19,2.26-0.31-2.87.37-8.52,0.75-9.18,1.18-3.64.13,2-.51-3,0l0.66-.17c-9.85.22-15.86,2.25-26.8,2.38a6.53,6.53,0,0,1,1.29,0c-12.42.68-25.51,2.41-37.79,2.88a32.92,32.92,0,0,0-5.95.8l-0.78-.24-3.6.64c-5.12.68-9,0-15.44,1l0.86,0.13c-2.34.15-7.4,0.73-7,.46a4.73,4.73,0,0,1-1.67.24l-0.08-.15-5.72.74c-4.46.25,0.65-.68-5.86-0.18-2.41.26-6.84,1-5.93,1.05a8.74,8.74,0,0,1,2.59,0l-2.2.26c-0.36.5-2,1.11,3.43,1l3.76-.59,1.24,0.13-3.18.28a16.89,16.89,0,0,0,4.22-.45,5.79,5.79,0,0,0,1.6.12l3.67-.75c0.46,0.14-1.63.5,0.86,0.39,1.72-.35-1.7-0.27,1.17-0.64a9.54,9.54,0,0,0,3.42-.08c0.31,0.1-.14.21-1,0.33,1.88-.3,5-0.47,5.95-0.8,1.91,0.11,6.37-.59,6.22-0.14a49.78,49.78,0,0,1,5-.78c-3.13.79,6.5-.5,5.71,0.13,2.31-.67,8.46-0.91,12.59-1.51a5.13,5.13,0,0,1-1,.18c2.34-.15,3-0.07,4.54-0.1,0.27-.42,3.9-0.8,5.85-1.21,2.9,0.14-1.7.6-.77,0.89-0.17-.3,5-0.72,4-0.91a12.06,12.06,0,0,1,3.05.19c0.34-.52,2-0.25,3.83-0.7,3.19,0,.85.39,4.33,0C439.57,70.32,436.48,70.75,436.48,70.75ZM519.3,63.1h0l-1.71.16Zm7-.58-3,.24c-0.25-.08,0-0.2.71-0.25A13.13,13.13,0,0,0,526.27,62.53Zm-14.89-.73a5.15,5.15,0,0,1,1.63-.06l-1.93.19L511,62A1.43,1.43,0,0,1,511.38,61.8Z" transform="translate(1.5 0.13)"/><path class="cls-3" d="M509.42,62.33l-0.45.06h0.66l0.38-.12Z" transform="translate(1.5 0.13)"/><path class="cls-3" d="M1140.94,10.95h0.16Z" transform="translate(1.5 0.13)"/><polygon class="cls-3" points="624.01 55.3 623.99 55.23 623.39 55.34 624.01 55.3"/><path class="cls-3" d="M1179.39,8.76a2.37,2.37,0,0,0,.51,0A3.1,3.1,0,0,0,1179.39,8.76Z" transform="translate(1.5 0.13)"/><path class="cls-3" d="M1196,7.46l2.35-.09C1197.3,7.4,1196.56,7.43,1196,7.46Z" transform="translate(1.5 0.13)"/><path class="cls-3" d="M1208.72,6.56a0.61,0.61,0,0,0,.24-0.14h0Z" transform="translate(1.5 0.13)"/><path class="cls-3" d="M1006.14,23.5l-0.49.05C1004.5,23.71,1005.28,23.62,1006.14,23.5Z" transform="translate(1.5 0.13)"/><path class="cls-3" d="M1066.38,17.91c-0.64.1-1.26,0.2-1.93,0.29A4.3,4.3,0,0,0,1066.38,17.91Z" transform="translate(1.5 0.13)"/><path class="cls-3" d="M938.84,29.36h0l-0.42,0Z" transform="translate(1.5 0.13)"/><path class="cls-3" d="M1061.65,18.42a27.69,27.69,0,0,0,2.8-.23C1063.57,18.25,1062.53,18.31,1061.65,18.42Z" transform="translate(1.5 0.13)"/><path class="cls-3" d="M1264,2.16l0.61,0s0,0,.07-0.05Z" transform="translate(1.5 0.13)"/><path class="cls-3" d="M1264.64,2.07l0.68-.09A3.57,3.57,0,0,0,1264.64,2.07Z" transform="translate(1.5 0.13)"/><path class="cls-3" d="M1266.75,1.79l-1.43.19A7.71,7.71,0,0,0,1266.75,1.79Z" transform="translate(1.5 0.13)"/><path class="cls-3" d="M1247.08,3.41l-0.18.12A0.25,0.25,0,0,0,1247.08,3.41Z" transform="translate(1.5 0.13)"/><path class="cls-3" d="M1242,3.86c1.22-.08,3.09,0,4.79-0.24l0.15-.09C1246.1,3.74,1243.1,3.59,1242,3.86Z" transform="translate(1.5 0.13)"/><path class="cls-3" d="M1220.46,4.36l4.3-.27c-0.76,0-1.76-.11.19-0.3C1219.51,3.91,1226.09,3.94,1220.46,4.36Z" transform="translate(1.5 0.13)"/><path class="cls-3" d="M1207.12,5.29c2.3-.24,0-0.15.08-0.23C1205.74,5.29,1205.39,5.34,1207.12,5.29Z" transform="translate(1.5 0.13)"/><path class="cls-3" d="M1110.87,13.19l0.21-.27C1109.3,13.1,1111.07,13,1110.87,13.19Z" transform="translate(1.5 0.13)"/><polygon class="cls-3" points="1094.08 16.14 1095.82 16.16 1096.63 15.85 1094.08 16.14"/><polygon class="cls-3" points="1083.06 15.21 1083.83 15.12 1080.87 15.45 1083.06 15.21"/><path class="cls-3" d="M919.91,28.44l0.56,0.27C921.67,28.55,921.9,28.18,919.91,28.44Z" transform="translate(1.5 0.13)"/><path class="cls-3" d="M850.15,34.48a16,16,0,0,0-3.94.22C847.78,34.6,849.35,34.59,850.15,34.48Z" transform="translate(1.5 0.13)"/><polygon class="cls-3" points="642.31 51.26 643.71 51.04 641.07 51.35 642.31 51.26"/><rect class="cls-4" x="562" y="1" width="179" height="75"/><path class="cls-3" d="M1279.45,75.66c0.49,0,.23-0.26-1.1-0.33l-1,.25Z" transform="translate(1.5 0.13)"/><path class="cls-3" d="M1270.52,74.33c-1.58,0-3.42.17-2.42,0.55,1.58-.19,1.95,0,3.65-0.27,1.34,0.07,2.32.29,2.09,0.4a23.6,23.6,0,0,0,2.81.09,27.59,27.59,0,0,0-6.24-.56C1269.92,74.42,1270.4,74.38,1270.52,74.33Z" transform="translate(1.5 0.13)"/><path class="cls-3" d="M1140,63.25l0.84,0.11C1140.63,63.31,1140.35,63.28,1140,63.25Z" transform="translate(1.5 0.13)"/><path class="cls-3" d="M1059.16,56.52a3.15,3.15,0,0,0,.91,0A2.94,2.94,0,0,0,1059.16,56.52Z" transform="translate(1.5 0.13)"/><path class="cls-3" d="M1045.38,55l0.81,0.09A4.23,4.23,0,0,0,1045.38,55Z" transform="translate(1.5 0.13)"/><path class="cls-3" d="M1140,63.25l-2.15-.28A9.2,9.2,0,0,0,1140,63.25Z" transform="translate(1.5 0.13)"/><path class="cls-3" d="M1252.46,73.66c0.45,0,.83,0,1.18,0l-1.11-.05Z" transform="translate(1.5 0.13)"/><path class="cls-3" d="M1175.7,65.86l0.66,0.05,0.56-.09Z" transform="translate(1.5 0.13)"/><path class="cls-3" d="M1203.07,68a1.67,1.67,0,0,0-1.1.3,5.15,5.15,0,0,1,1.37-.08A0.34,0.34,0,0,0,1203.07,68Z" transform="translate(1.5 0.13)"/><path class="cls-3" d="M1246.41,72l0.77,0Z" transform="translate(1.5 0.13)"/><path class="cls-3" d="M1156.12,64.22a0.59,0.59,0,0,0-.24-0.12A0.36,0.36,0,0,0,1156.12,64.22Z" transform="translate(1.5 0.13)"/><path class="cls-3" d="M390.62,4.38s0,0,0,0C390.46,4.35,390.41,4.36,390.62,4.38Z" transform="translate(1.5 0.13)"/><path class="cls-3" d="M359,0.43l0.44,0A0.29,0.29,0,0,0,359.56.3Z" transform="translate(1.5 0.13)"/><path class="cls-3" d="M1020.14,52.63h0.11C1020.91,52.67,1020.54,52.64,1020.14,52.63Z" transform="translate(1.5 0.13)"/><path class="cls-3" d="M788.11,34.06c2.61,0.46-4.3,0-.37.57C787.39,34.5,791.38,34.49,788.11,34.06Z" transform="translate(1.5 0.13)"/><path class="cls-3" d="M1251.75,73.57l-1.12-.09C1251.14,73.53,1251.48,73.56,1251.75,73.57Z" transform="translate(1.5 0.13)"/><path class="cls-3" d="M787.75,34.64h0l0.41,0.06Z" transform="translate(1.5 0.13)"/><path class="cls-3" d="M961.89,48.09a3.15,3.15,0,0,0,.58.17A1.65,1.65,0,0,0,961.89,48.09Z" transform="translate(1.5 0.13)"/><path class="cls-3" d="M1005.24,52l-1.07-.12C1004.59,51.93,1004.94,52,1005.24,52Z" transform="translate(1.5 0.13)"/><path class="cls-3" d="M939.34,46.66a13.29,13.29,0,0,0-1.58-.15L938,46.56A6.66,6.66,0,0,1,939.34,46.66Z" transform="translate(1.5 0.13)"/><path class="cls-3" d="M915.89,44.77l0.43,0.09,0.74,0Z" transform="translate(1.5 0.13)"/><path class="cls-3" d="M461.88,10a6,6,0,0,1-1.06-.34C461.16,9.9,457.71,9.7,461.88,10Z" transform="translate(1.5 0.13)"/><path class="cls-3" d="M1252.46,73.51a1.74,1.74,0,0,1-.71.06l0.78,0C1252.6,73.58,1252.62,73.54,1252.46,73.51Z" transform="translate(1.5 0.13)"/><path class="cls-3" d="M938.2,48.79l-3.72-.34C935.52,48.56,936.87,48.69,938.2,48.79Z" transform="translate(1.5 0.13)"/><path class="cls-3" d="M630.07,23.59l-0.86,0A5.72,5.72,0,0,0,630.07,23.59Z" transform="translate(1.5 0.13)"/><path class="cls-3" d="M923.43,47.6c-0.66-.15-1.36-0.27-2.08-0.36a3.41,3.41,0,0,0-.44,0Z" transform="translate(1.5 0.13)"/><path class="cls-3" d="M460.81,9.67h0Z" transform="translate(1.5 0.13)"/><path class="cls-3" d="M436.22,8.35c3.55,0.3,1.7-.23,2.47-0.38,4.24,0.24,1.94.43,3.36,0.73,2.65,0.12,4.71-.06,6.68.12C448.87,8.9,449.26,9,448.8,9c2.82-.07,8.3.66,11.59,0.55a1.72,1.72,0,0,1,.42.13c-0.51-.23-0.58-0.42-0.46-0.55a16.23,16.23,0,0,1,3.55.3,5.29,5.29,0,0,0-1.53,0l1.68,0c1.47,0.47-2.29-.06-2.31.19,3.26,0.15,7.07.17,9.56,0.47,0.49,0.38-5.83-.36-2.53.21l-3.84-.44c2.9,0.77-2.34-.23.32,0.56,5.06,0.51,5.69.29,10.74,0.79,1.15-.1-0.35-0.31.8-0.4,7.22,0.24,5.59,1.31,10.92,1.29a15.59,15.59,0,0,1,5.7,0l-1.31.28c4.91,0.44,2.85-.32,8,0.35-0.93.08-3.87-.19-3.13-0.08,3.31,0.57,2.37,0,4.94.18l0.5,0.38c5.23,0.37,11,.59,16.81,1-0.33.07-1.33,0.1,0,.31,7.32,0.42,15.59,1.3,22.62,2.07l2.71-.07c0.63,0.05,1.15.23,0.47,0.23,2.74,0.33.16-.17,1.49-0.18,1.56,0.11,2,.34,1.05.34,4.87,0.14,13.84.58,18.92,1.31h-1c4,0.44,4.53-.24,8.2.33h-0.71c8.62,0.82,18.17,1.33,24.72,2.3,1.29-.32,8.52.88,9.13,0.34,4.9,0.69,3.48.68,10.4,1.44,1.85,0.18,2.79-.14,5.09,0l0,0.31,3.14-.07,1.63,0.5,2.16,0.1a4,4,0,0,1-1.67-.36,47.23,47.23,0,0,1,8.23,1l8,0.38a16.18,16.18,0,0,1-2.58,0c4.26,0,.74.39,4.65,0.41-0.51-.11.3-0.16,0.39-0.22,1.92,0.34,6.33.7,9.59,0.89l-0.64.16c5.88,0.53,12.42.9,19,1.44-2.36-.29-1.79-0.61.15-0.49l0.75,0.39c1.27-.1-2-0.29.57-0.32,2.47,0.24,1.63.5,0.2,0.49l3,0.13c0.17,0.11-.54.11-0.73,0.21,1.25-.1,5.15.75,7,0.54l0.16,0.11c6.61,0.54,9.61.67,15,1.09,0.13-.27,2.23,0,3.85-0.14,3.95,0.41,8.32,1,13.09,1.35,3.36,0.13,1-.16,2.52-0.2,0.23,0.28,5,.64,2.5.62,5.72,0.42,7.31.54,14.56,0.92-0.78-.17-1.66-0.28-1.19-0.34a7.83,7.83,0,0,1,2.78.46H738c8.15,0.27,18.68,2.26,25.19,2.25h-0.36l6.73,0.27c3.08,0.29-1.87,0,.4.39,7.27,0.16,11.42,1,17.4,1.18,4.55,1.13,16.37,1.27,22.55,2.26l-0.35-.21a14,14,0,0,1,3.12.4c-0.16-.15-1.73-0.3-0.73-0.32,13.64,0.89,28.1,2.54,42.06,3.83,5.11,0.46,3-.68,9.38.26l-1.85.18c10.34,0.44,21.08,1.72,31.2,2.2a7.18,7.18,0,0,1-1.62,0,41.88,41.88,0,0,0,7.93.46c1.57,0.15.35,0.21,1.31,0.38,2.13,0.31,5.39.13,6.51,0.46a3.54,3.54,0,0,1-1,0c1.4,0,6.49.55,5.18,0.17,3.78,0.44,7.26.46,10.27,0.87,2-.15,6.47.67,7.13,0.29-0.31.43,6.61,0.9,9,.88-0.81.07,2.07,0.31,1.12,0.42,2.73,0.21,5.25.33,4.79,0.06,5,0.95,10.16.39,12.94,1.31,8.14,0.41,15.67.86,23,1.34-0.3.43-8.08-.61-7.8-0.11,6.94,0.38,11,.31,17.84,1,1.77,0.21-1,.11-1.63.14,6.94,0.38,13.38,1.12,19.56,1.38a8,8,0,0,1-1.32,0c1.22,0.08,2.82.29,2.7,0.08l-1.19,0c-1.91-.45,4.87-0.23,5.1-0.37-2.11.42,6.07,0.64,2.74,1.11,0.8,0,1.81,0,1.64-.14,1.18,0.14,1.55.25,0.34,0.3,4.36,0.24,2.83-.1,6.77.22a7.71,7.71,0,0,1-1.24.16,53.39,53.39,0,0,1,7.35.29c-0.21,0,.18.15-0.82,0.07,5.72,0.43,9.79.28,16,1-1.89.28,2.12,0.31,2.42,0.71l3.38,0.16-1.34-.29c3,0.25,5.59.19,8.12,0.51l-2.21,0,5.54,0.38-3.12-.39c3,0.05-.28-0.5,3.64-0.07-0.8,0,3,.24,4.48.59h0a37.94,37.94,0,0,1,5.16.27c0.56,0.16-.49.37-0.13,0.48,1.47-.19,6.93.47,8.78,0.29-0.62,0-.66.22-0.47,0.28l1.23-.15c1.36,0.19,1.56.25,1.32,0.38,4.11,0.38-1.27-.58,3.6,0-0.39,0-.2,0-1,0,4.9,0.5,9.49.61,14,1.1,1.3,0.48-3.95-.23-2.45.21,6.51,0.46,13.5.64,19.78,1.24l-1.17-.14c0.91-.46,4.66.64,7.87,0.65-0.78,0-1,.21-0.83.17,4.3,0.43,8.82.58,15.36,0.95l-0.82.07c2.53,0.33,6.68.61,9.42,0.89,0.82-.07,2.39.08,1.45-0.2,8.39,1.46,16.17.89,23.62,2.14-0.9-.07-2.15-0.05-1.43,0l6.4,0.39a8.76,8.76,0,0,0-2.15-.5,32.08,32.08,0,0,1,4.22.1c-2.89-.08,0,0.37,1.23.6-0.2-.09.23-0.13,0.13-0.21,3.31,0.68.6-.42,5.13,0.23l-0.25.1c1.71,0.08,3.3,0,5.13.23,0.74,0.33-1.83,0-2,.19,2.59,0.19,5.14-.09,7.46.36-1.1,0-2.68-.14-3.79-0.16a33.29,33.29,0,0,0,4.71.67l-0.19,0,4.36,0.5-1.11-.18c3.29-.43,6.6.41,11,0.3-4.27.09-.72,0.19-1.07,0.47,1.11,0.17,2.79.4,2.3,0.45,2.08-.08,3.42.47,6.36,0.35,0.12,0.11,2.2.19,1.72,0.39,2.68,0.14-.62-0.22-0.38-0.32,4.15,0,9.67,1.19,15.64,1.21,5.13,0.23,6.11,0,10.87.2,1.59,0.29-1.34.25-1.34,0.25a63.85,63.85,0,0,0,7,.57c-0.5,0,0,.16.74,0.33,2,0.13,1.34-.25,3.9.1a13.09,13.09,0,0,1-2,.23c2.31,0.1,4.6.1,7,.21,0.62,0.22-1.46.14-2.31,0.18a67.42,67.42,0,0,0,7.81.21l-1.71-.23c1,0.07.48,0.27-.24,0.26a7.41,7.41,0,0,1-3.43-.47l1.7,0.08c-1.7-.71-6.83-0.46-10.25-0.77l1.46-.3-3.54.06c-0.74-.17-1.23-0.44.46-0.37-2.44-.4-2.18,0-4.27-0.43-0.23-.05-0.12-0.07.09-0.06L1244,72c0.48,0-.37-0.33,1.09-0.15-4.28-.59-7-0.25-8.55-0.7h0.36c-6-.34-0.6.26-5.11,0.25l-3-1-0.61.26c-0.61-.06-1.83-0.18-1.6-0.29-2.31,0,.38.16-1,0.25-2.94-.52-8.18-0.53-8.81-1.07-1.08.15,2.82,0.41-.36,0.31-0.86-.59-3.66-0.21-6.35-0.66,0.85-.2,3.41.15,0.72-0.31-1.67.32-5.26-.53-7.55-0.62-0.14.35-5-.25-8.82-0.44,0.25-.1-7.19-0.78-10.75-1.2l0.11-.05c-0.72.31-4.39-.06-7.07-0.2,0.12-.21.61-0.26,2.07-0.24l-2.52-.2a18.86,18.86,0,0,1-3,0l0.65-.22c-3.35-.26-6.77-0.22-11.06-0.76-0.26.24,3.37,1-1.2,0.79-0.16-.15-0.31-0.4.89-0.36a17.9,17.9,0,0,1-2.18-.12l1.84-.08c-2-.26-1,0.11-2.61,0,0-.19-1.15-0.23-0.91-0.37,0.4,0,1.36.19,2,.16a38,38,0,0,1-4.59-.67c0.15,0.12,0,.27-1.32.19-3.35-.26-1.13-0.33-3.07-0.59-0.82.07-2.95-.24-3,0a4.64,4.64,0,0,1-1.52-.34c-1.74,0-8.1-.62-6.17-0.15l0.44,0.06h-0.28c-5.7-.17-11.79-1.12-17.44-1.45l0-.1c-3.37-.16-7.49-0.54-9.91-0.52-1-.08-2.33-0.37-1.9-0.45a59.24,59.24,0,0,1-6.58-.51c2.6,0-.88-0.22,2.66.09a56,56,0,0,0-7.69-.6c1.24-.15-2.49-0.52-4.09-0.57l2.33,0.37c-1.79-.11-3.35-0.26-4.93-0.41l0.88-.26c-6.81-1-12.39-.31-17.54-1.41-1.83.09,3.7,0.46,2.06,0.6-3.14-.3-6.38-1-7.37-1.12-4.29-.53-4.06.16-8.56-0.33,0.57,0.16,1.09.52-2.29,0.36-3.15-.3-3.83-0.81-1.83-0.74a2.89,2.89,0,0,1,1.08.16c1,0,2.36.1,1.12-.13l-0.42.09c-1.55-.25-5.88-0.59-4.85-0.7-2.39-.08-1,0.11.72,0.32-4-.5-6.31-0.52-10.46-1,0.66,0.12,1.25.31,0.6,0.25-6.08-.64-2.7,0-6.84-0.28-2.33-.37.88-0.36-3.29-0.55-2.53-.33-0.51-0.36.5-0.37a92.57,92.57,0,0,1-9.23-.94l2,0.07c-1.2,0-2.18-.12-3.17-0.2l1.12,0.33a9.46,9.46,0,0,1-2.13-.31c-1.22.06,0.89,0.47-1.52,0.49-1.55-.25-4.77-0.26-5.28-0.61,4.9,0.5-.52-0.36,3.65-0.07-0.81,0-1.78-.11-3-0.24-0.17,0,.17-0.05.49,0-4.68-.66-2.19.18-7.06-0.22,0.63-.13-1.1-0.43-1.9-0.45,2,0.16.92,0.37-.9,0.36-3.11-.39-3.4-0.17-5-0.32l1.86,0.22a30.62,30.62,0,0,1-4.39-.14c-0.18-.15,2,0.07,1.21-0.06-2.44.12-5.44-.76-8.83-0.83-1.55-.25-0.12-0.34-1.49-0.54-3.8-.08-4.07-0.57-8.06-0.71,1.13,0.33,1.33.29-1.48,0.29l6.54,0.36h-4.22c2,0.16,4.17.19,5.35,0.32-2,0-1.8,0-.87.26-2.67-.57-5.36-0.22-8.46-0.72l0.14-.58c-4.66-.64-8.35-0.37-14.42-1l1.95,0.26c-0.83.17-3.76-.27-5.74-0.34,0.2-.18-1-0.35-1.86-0.54,0.09,0.15-4.45-.37-5,0l-2.7-.48c-4.9-.5-5.65.11-10.37-0.34,1.44-.1-0.7-0.41,2.48-0.31a13.84,13.84,0,0,0-3-.15c-0.91-.2-4.39-0.09-5.83-0.39a10,10,0,0,1-2.67.06c-0.19-.06,0-0.1,0-0.1s-2.78-.09-1.25.25c-4.81-1-13.58-1.05-17.77-1.92-3.45-.21-7.6-0.48-10.72-0.72a0.78,0.78,0,0,1,.61,0c-4.29-.53-2.69.35-7.58-0.25-2.48-.52,2.62,0,1.07-0.21-0.63-.7-5.93-0.39-9.19-1l0.8,0c-2.5-.42-6.17-0.25-10.29-0.63,0,0,.2,0,0-0.1-2.85.1-8.19-.22-12.16-0.45,1.25-.15,1.81,0,1.08-0.31-1.78-.11.49,0.46-3.07,0.24-1.14-.23-3.69-0.56-4-0.86l3.35,0.26c-1.69-.49-4.33-0.34-6.09-0.54l0.24-.14c-5.13-.36-5.24,0-10.74-0.45l0.56,0.16c-3,.14-2.51-0.42-5.54-0.38L843.78,39c-2-.07-7-0.18-10.56-0.4,2-.13,6.23.06,8.82,0.1-2-.16-6.7-0.51-7.74-0.4a22.64,22.64,0,0,1,2.58.13,77.4,77.4,0,0,1-9.56-.32c0.76-.71-10.22-1-13-1.84-7-.28-13.77-1.24-21.86-1.85,2.82,0.83-2.36-.17-1.92.48a23.64,23.64,0,0,1-2.77-.23l-5.68-.83c-1.34-.29,1.8,0,1.64-0.14-4.12-.38-1.71-0.4-4.43-0.78,0.54,0.26-1.46.2-3.81-.08l3.29,0.55c-5.79-.14-4.94-0.91-10.78-1.06l1.85,0c-3-.13-11-0.89-14-0.64-0.52-.11-1.21-0.34.11-0.27-7.12-.65-15.91-0.76-21.42-1.51l0.55-.11a25.92,25.92,0,0,1-4-.19c0.09-.05.55-0.11-0.07-0.16a53.11,53.11,0,0,1-5.31-.25l1.52,0c-6.94-.76-10.7-0.46-16.54-0.82,0.05-.44-5.41-1-8.13-1.31l0.1-.05c-8.09-.71-13.78-0.75-21.29-1.18-4.62-.85-15.75-1.48-23.21-2.35,1.14,0.17-.21.33-1.55,0.26-1.75-.23-4.88-0.09-4.57-0.47l0.63,0.06c-1.29-.5-4.91-0.69-7.72-0.93l-0.51.49c-7.31-1.36-19.33-1.28-23.29-2.29-1.79,0-4-.19-5.76-0.2l0.12-.27c-4.92-.47-7.38-0.71-13.47-1.13l1.26-.1c-3.43-.3-4.4.46-7.57,0.22l-0.92-.5c-6-.48-12-1.34-18-1.44a2.21,2.21,0,0,1,1.26-.1c-2.82-.24-10.89-1.17-9.91-0.51,0-.38-6.18-0.54-9.43-0.63l0.53-.24a42.37,42.37,0,0,1-6.68,0c-0.9-.11-0.77-0.29.42-0.12-3-.39-2.37.07-6-0.37l1.38-.07a21.19,21.19,0,0,0-4.58-.09,29.91,29.91,0,0,1-6.31-.83,14.94,14.94,0,0,1-4,0c-0.24-.11.43-0.12,0.77-0.12-5.17-.61-7.73-0.3-11.27-0.86a1,1,0,0,0-.59-0.21c4.12,0.34,7.43.62,7.12,0.62,0-.26-3.3-0.57-0.63-0.71-2.68,0-7.28,0-10.51-.36A2.87,2.87,0,0,1,518,12.3h0.34a19.79,19.79,0,0,0-2.05-.12c-1-.13-1.69-0.21-2.68-0.29a42.21,42.21,0,0,0-5.46-.57c0.11,0.29-2.05.07,0,.47a6.18,6.18,0,0,1,1.42.07l0.71,0-0.12,0,4.12,0.31a21.86,21.86,0,0,1-4.52-.26c-0.87.11-1.82,0.22-2.35,0.26-2.24-.57-6.59-1.14-7.18-1.43-5.07-.25-11.93-0.86-15.16-0.59a6.09,6.09,0,0,1-2.17-.41c0.84,0,1.82.1,2.28,0.06-2.89-.1-8.53-0.64-9.25-0.33C472.31,9.06,478,9.34,473,9l0.68-.06c-9.76-1.38-16-.35-26.83-2a6.53,6.53,0,0,1,1.27.23c-12.37-1.34-25.56-1.75-37.75-3.27a32.91,32.91,0,0,0-6-.18l-0.73-.36L400,3.43c-5.16-.16-8.85-1.46-15.4-1.51l0.82,0.27c-2.34-.23-7.42-0.48-7-0.68a4.73,4.73,0,0,1-1.69,0l-0.06-.16-5.77-.2c-4.44-.47.75-0.57-5.75-1.13-2.42-.13-6.92-0.1-6,0.08a8.74,8.74,0,0,1,2.54.46l-2.22-.1c-0.44.43-2.18,0.77,3.22,1.53l3.8,0,1.2,0.32-3.18-.24a16.88,16.88,0,0,0,4.24.24,5.78,5.78,0,0,0,1.56.38L374,2.55c0.43,0.22-1.69.23,0.79,0.53,1.75-.07-1.63-0.54,1.25-0.44a9.54,9.54,0,0,0,3.39.48c0.29,0.14-.17.18-1,0.17,1.9,0,5,.34,6,0.18,1.86,0.41,6.38.45,6.16,0.87a49.76,49.76,0,0,1,5.09,0c-3.21.27,6.49,0.56,5.61,1.05,2.38-.28,8.49.48,12.67,0.55a5.13,5.13,0,0,1-1.06,0c2.34,0.23,3,.43,4.5.64,0.33-.37,4-0.16,6-0.24,2.84,0.61-1.78.32-.91,0.75-0.12-.33,5,0.09,4.05-0.26a12.06,12.06,0,0,1,3,.68c0.42-.46,2,0.08,3.89-0.07,3.15,0.5.78,0.52,4.28,0.66C439.33,8.43,436.22,8.35,436.22,8.35Zm83,5.86h0l-1.71-.12Zm7,0.56-3-.26c-0.24-.12,0-0.19.74-0.13A13.14,13.14,0,0,0,526.15,14.77Zm-14.58-3.13a5.16,5.16,0,0,1,1.62.2l-1.93-.12-0.13,0A1.43,1.43,0,0,1,511.57,11.64Z" transform="translate(1.5 0.13)"/><path class="cls-3" d="M509.56,11.85l-0.46,0,0.65,0.12,0.4-.06Z" transform="translate(1.5 0.13)"/><path class="cls-3" d="M1141,63.37l-0.15,0,0.31,0.06Z" transform="translate(1.5 0.13)"/><polygon class="cls-3" points="623.8 23.22 623.79 23.15 623.18 23.16 623.8 23.22"/><path class="cls-3" d="M1179.3,67.44a2.37,2.37,0,0,0,.5.11A3.1,3.1,0,0,0,1179.3,67.44Z" transform="translate(1.5 0.13)"/><path class="cls-3" d="M1195.87,68.84l2.34,0.29C1197.19,69,1196.45,68.91,1195.87,68.84Z" transform="translate(1.5 0.13)"/><path class="cls-3" d="M1208.6,70a0.62,0.62,0,0,0,.26-0.1h0Z" transform="translate(1.5 0.13)"/><path class="cls-3" d="M1006,53.94l-0.49,0C1004.31,53.88,1005.1,53.92,1006,53.94Z" transform="translate(1.5 0.13)"/><path class="cls-3" d="M1066.31,58.17c-0.64,0-1.28,0-1.95,0A4.3,4.3,0,0,0,1066.31,58.17Z" transform="translate(1.5 0.13)"/><path class="cls-3" d="M938.61,48.83h0l-0.42,0Z" transform="translate(1.5 0.13)"/><path class="cls-3" d="M1061.56,57.91a27.69,27.69,0,0,0,2.8.23C1063.48,58.05,1062.45,57.94,1061.56,57.91Z" transform="translate(1.5 0.13)"/><path class="cls-3" d="M1263.82,74.61l0.61,0.06s0,0,.08,0Z" transform="translate(1.5 0.13)"/><path class="cls-3" d="M1264.5,74.63l0.68,0A3.57,3.57,0,0,0,1264.5,74.63Z" transform="translate(1.5 0.13)"/><path class="cls-3" d="M1266.63,74.7l-1.44,0A7.71,7.71,0,0,0,1266.63,74.7Z" transform="translate(1.5 0.13)"/><path class="cls-3" d="M1247,73.11l-0.2.09A0.25,0.25,0,0,0,1247,73.11Z" transform="translate(1.5 0.13)"/><path class="cls-3" d="M1241.83,72.73c1.22,0.12,3.05.47,4.76,0.54l0.17-.07C1245.94,73.29,1243,72.65,1241.83,72.73Z" transform="translate(1.5 0.13)"/><path class="cls-3" d="M1220.53,69.74l4.29,0.43c-0.74-.17-1.72-0.39.24-0.26C1219.67,69.15,1226.16,70.24,1220.53,69.74Z" transform="translate(1.5 0.13)"/><path class="cls-3" d="M1207.23,68.51c2.31,0.14,0-.16.11-0.21C1205.87,68.28,1205.51,68.27,1207.23,68.51Z" transform="translate(1.5 0.13)"/><path class="cls-3" d="M1111,60.72l0.25-.24C1109.44,60.37,1111.2,60.58,1111,60.72Z" transform="translate(1.5 0.13)"/><polygon class="cls-3" points="1093.97 60.67 1095.69 60.97 1096.53 60.8 1093.97 60.67"/><polygon class="cls-3" points="1083.24 57.97 1084.03 58 1081.05 57.85 1083.24 57.97"/><path class="cls-3" d="M920.08,44.86l0.51,0.36C921.8,45.25,922.08,44.92,920.08,44.86Z" transform="translate(1.5 0.13)"/><path class="cls-3" d="M850.27,39.53a16,16,0,0,0-3.92-.42C847.91,39.25,849.47,39.5,850.27,39.53Z" transform="translate(1.5 0.13)"/><polygon class="cls-3" points="642.51 22.2 643.92 22.21 641.27 22.08 642.51 22.2"/><path class="cls-3" d="M358.87,76.15c0.21,0,.14-0.26-0.39-0.33l-0.44.25Z" transform="translate(1.5 0.13)"/><path class="cls-3" d="M355.48,74.82c-0.65,0-1.41.16-1.08,0.54,0.67-.18.79,0,1.53-0.26,0.53,0.07.89,0.29,0.78,0.39a3.82,3.82,0,0,0,1.12.1A4.45,4.45,0,0,0,355.4,75C355.22,74.92,355.43,74.87,355.48,74.82Z" transform="translate(1.5 0.13)"/><path class="cls-3" d="M304.54,63.68l0.32,0.11A1.86,1.86,0,0,0,304.54,63.68Z" transform="translate(1.5 0.13)"/><path class="cls-3" d="M272.94,56.91a0.55,0.55,0,0,0,.37,0A0.52,0.52,0,0,0,272.94,56.91Z" transform="translate(1.5 0.13)"/><path class="cls-3" d="M267.62,55.43l0.31,0.09A0.68,0.68,0,0,0,267.62,55.43Z" transform="translate(1.5 0.13)"/><path class="cls-3" d="M304.54,63.68l-0.82-.28A1.53,1.53,0,0,0,304.54,63.68Z" transform="translate(1.5 0.13)"/><path class="cls-3" d="M348.28,74.13a2.38,2.38,0,0,0,.48,0l-0.44-.06Z" transform="translate(1.5 0.13)"/><path class="cls-3" d="M318.54,66.32l0.26,0.05,0.24-.09Z" transform="translate(1.5 0.13)"/><path class="cls-3" d="M329.25,68.5a0.59,0.59,0,0,0-.5.3,1,1,0,0,1,.57-0.08A0.28,0.28,0,0,0,329.25,68.5Z" transform="translate(1.5 0.13)"/><path class="cls-3" d="M346.12,72.52l0.31,0Z" transform="translate(1.5 0.13)"/><path class="cls-3" d="M310.89,64.67a0.22,0.22,0,0,0-.08-0.12A0.15,0.15,0,0,0,310.89,64.67Z" transform="translate(1.5 0.13)"/><path class="cls-3" d="M11.14,4.38a0.14,0.14,0,0,0,0,0C11.08,4.34,11.06,4.36,11.14,4.38Z" transform="translate(1.5 0.13)"/><path class="cls-3" d="M-1,.43l0.17,0A0.49,0.49,0,0,0-.73.3Z" transform="translate(1.5 0.13)"/><path class="cls-3" d="M257.81,53h0A0.33,0.33,0,1,0,257.81,53Z" transform="translate(1.5 0.13)"/><path class="cls-3" d="M167,34.32c1,0.46-1.74,0-.25.56C166.66,34.74,168.28,34.74,167,34.32Z" transform="translate(1.5 0.13)"/><path class="cls-3" d="M348,74L347.57,74A3.09,3.09,0,0,0,348,74Z" transform="translate(1.5 0.13)"/><path class="cls-3" d="M166.78,34.88h0l0.15,0.06Z" transform="translate(1.5 0.13)"/><path class="cls-3" d="M235,48.44a0.68,0.68,0,0,0,.21.17A0.39,0.39,0,0,0,235,48.44Z" transform="translate(1.5 0.13)"/><path class="cls-3" d="M251.88,52.36l-0.41-.12A3.4,3.4,0,0,0,251.88,52.36Z" transform="translate(1.5 0.13)"/><path class="cls-3" d="M226.11,47a2.12,2.12,0,0,0-.61-0.15l0.09,0.05A1.07,1.07,0,0,1,226.11,47Z" transform="translate(1.5 0.13)"/><path class="cls-3" d="M216.94,45.08l0.16,0.09,0.29,0Z" transform="translate(1.5 0.13)"/><path class="cls-3" d="M39,10a1.39,1.39,0,0,1-.37-0.34C38.76,9.94,37.4,9.73,39,10Z" transform="translate(1.5 0.13)"/><path class="cls-3" d="M348.31,74a0.36,0.36,0,0,1-.3.06l0.31,0A0.06,0.06,0,0,0,348.31,74Z" transform="translate(1.5 0.13)"/><path class="cls-3" d="M225.28,49.08l-1.45-.34C224.24,48.85,224.76,49,225.28,49.08Z" transform="translate(1.5 0.13)"/><path class="cls-3" d="M104.82,23.71l-0.34,0A0.93,0.93,0,0,0,104.82,23.71Z" transform="translate(1.5 0.13)"/><path class="cls-3" d="M219.5,47.88a3.77,3.77,0,0,0-.78-0.36,0.67,0.67,0,0,0-.18,0Z" transform="translate(1.5 0.13)"/><path class="cls-3" d="M38.66,9.71h0Z" transform="translate(1.5 0.13)"/><path class="cls-3" d="M28.93,8.36c1.39,0.3.73-.22,1.06-0.36,1.68,0.24.71,0.43,1.24,0.73,1.05,0.12,1.92,0,2.69.13,0,0.07.19,0.12,0,.16,1.15-.06,3.25.66,4.6,0.57a0.39,0.39,0,0,1,.15.12,0.48,0.48,0,0,1-.09-0.54,2.62,2.62,0,0,1,1.39.3,1,1,0,0,0-.63,0l0.67,0c0.52,0.46-.91-0.07-1,0.18a26,26,0,0,1,3.79.48c0.13,0.37-2.3-.36-1.06.2L40.28,10c1,0.76-.91-0.23,0,0.55,2,0.51,2.25.29,4.21,0.8,0.48-.09-0.09-0.3.39-0.4,2.88,0.25,2,1.3,4.2,1.29a2.75,2.75,0,0,1,2.3,0l-0.58.27c1.91,0.44,1.21-.31,3.17.36-0.39.07-1.54-.19-1.25-0.08,1.24,0.57,1,0,2,.19l0.14,0.38c2.06,0.37,4.36.6,6.64,1-0.15.07-.56,0.1,0,0.31a73,73,0,0,1,8.8,2.08l1.11-.07c0.24,0.05.43,0.22,0.15,0.22,1.05,0.33.09-.17,0.63-0.18s0.77,0.33.37,0.34A33.72,33.72,0,0,1,80,18.41H79.55c1.53,0.44,1.88-.22,3.26.34H82.53c3.35,0.83,7.13,1.34,9.62,2.31,0.58-.31,3.3.88,3.64,0.35a28,28,0,0,0,4,1.43c0.72,0.18,1.16-.14,2.06,0l0,0.31,1.28-.06,0.57,0.5,0.86,0.1a0.81,0.81,0,0,1-.61-0.36,7.74,7.74,0,0,1,3.16,1l3.16,0.39a2.8,2.8,0,0,1-1.05,0c1.72,0,.23.38,1.81,0.41-0.19-.11.15-0.16,0.19-0.21a17.41,17.41,0,0,0,3.73.89l-0.29.16c2.29,0.53,4.88.91,7.46,1.45-0.91-.29-0.62-0.61.15-0.48l0.24,0.38c0.53-.1-0.77-0.29.29-0.32,1,0.24.57,0.5,0,.49l1.2,0.13a0.63,0.63,0,0,1-.33.21c0.52-.1,2,0.74,2.73.54l0,0.11c2.58,0.54,3.78.68,5.89,1.1,0.1-.27.91,0,1.58-0.13,1.53,0.41,3.2,1,5.07,1.35,1.34,0.14.43-.15,1.05-0.19,0,0.27,1.91.64,0.91,0.61,2.25,0.43,2.87.55,5.74,0.93-0.29-.17-0.62-0.28-0.42-0.33a1.4,1.4,0,0,1,1,.45h-0.14c3.25,0.29,7.18,2.26,9.81,2.26h-0.15l2.68,0.27c1.2,0.29-.76,0,0.1.38,2.92,0.17,4.46,1,6.84,1.2,1.65,1.12,6.41,1.28,8.75,2.26l-0.1-.2a2.3,2.3,0,0,1,1.2.39c0-.15-0.65-0.3-0.24-0.31,5.37,0.9,10.95,2.55,16.38,3.84,2,0.46,1.32-.67,3.75.28l-0.78.17c4.11,0.45,8.24,1.73,12.26,2.22a1.28,1.28,0,0,1-.66,0,6.76,6.76,0,0,0,3.13.47c0.61,0.15.11,0.2,0.46,0.38,0.81,0.31,2.16.14,2.56,0.46a0.64,0.64,0,0,1-.41,0c0.57,0,2.53.56,2.07,0.18,1.45,0.44,2.86.47,4,.88,0.83-.14,2.51.67,2.84,0.3-0.2.42,2.52,0.9,3.5,0.89-0.34.07,0.79,0.31,0.38,0.42,1.07,0.22,2.07.34,1.93,0.07,1.86,0.94,4,.4,5,1.31,3.23,0.42,6.2.87,9.08,1.37-0.19.42-3.17-.61-3.14-0.12a57.9,57.9,0,0,1,7.06,1c0.68,0.21-.44.11-0.69,0.14,2.75,0.38,5.23,1.13,7.69,1.39a1.38,1.38,0,0,1-.54,0c0.48,0.08,1.09.3,1.08,0.08l-0.47,0c-0.7-.45,2-0.22,2.13-0.35-0.93.41,2.35,0.64,0.92,1.1,0.32,0,.73,0,0.69-0.14,0.46,0.14.59,0.24,0.08,0.3a25.58,25.58,0,0,1,2.7.23,1.68,1.68,0,0,1-.53.15,8.65,8.65,0,0,1,2.93.3c-0.09,0,0,.15-0.34.07,2.24,0.44,3.92.29,6.33,1-0.81.27,0.81,0.31,0.86,0.71l1.34,0.17-0.49-.29a32.25,32.25,0,0,1,3.2.52l-0.89,0,2.18,0.38-1.2-.39c1.21,0.06,0-.49,1.49-0.07a14.36,14.36,0,0,1,1.71.59h0a6.1,6.1,0,0,1,2,.27c0.2,0.16-.26.37-0.13,0.47,0.63-.19,2.72.48,3.51,0.3-0.25,0-.31.22-0.24,0.27l0.53-.15c0.52,0.19.59,0.25,0.47,0.38,1.6,0.38-.41-0.57,1.45,0a2.34,2.34,0,0,1-.41,0c1.9,0.5,3.74.62,5.48,1.1,0.44,0.48-1.56-.23-1,0.2,2.56,0.46,5.36.66,7.8,1.26l-0.45-.14c0.45-.45,1.78.64,3.07,0.65-0.31,0-.46.2-0.37,0.16a59.43,59.43,0,0,0,6.06,1l-0.34.07c1,0.33,2.6.61,3.66,0.9,0.35-.07,1,0.08.62-0.19,3.15,1.45,6.39.91,9.2,2.15-0.35-.07-0.86-0.06-0.58,0l2.53,0.4a1.69,1.69,0,0,0-.79-0.49,5.26,5.26,0,0,1,1.69.1c-1.16-.08-0.07.37,0.39,0.59-0.07-.09.12-0.13,0.09-0.21,1.22,0.67.31-.41,2,0.23l-0.12.1a13.9,13.9,0,0,1,2,.23c0.24,0.32-.74,0-0.83.18,1,0.2,2.1-.08,3,0.37-0.44,0-1.06-.14-1.51-0.16a5.45,5.45,0,0,0,1.79.66l-0.07,0,1.68,0.5-0.42-.17c1.41-.42,2.6.41,4.4,0.32-1.74.08-.32,0.19-0.51,0.46,0.42,0.17,1.06.4,0.85,0.45,0.85-.07,1.3.47,2.51,0.36,0,0.11.86,0.19,0.63,0.39,1.06,0.14-.21-0.22-0.1-0.32,1.68,0,3.71,1.19,6.13,1.22,2,0.23,2.48,0,4.37.21,0.6,0.28-.59.24-0.59,0.24a10.16,10.16,0,0,0,2.72.57c-0.21,0,0,.16.24,0.32,0.77,0.13.58-.24,1.56,0.11a2.78,2.78,0,0,1-.84.22c0.92,0.1,1.85.11,2.8,0.22,0.21,0.22-.62.14-1,0.18a11,11,0,0,0,3.13.22l-0.65-.23c0.38,0.07.15,0.27-.14,0.26a1.34,1.34,0,0,1-1.31-.47l0.68,0.08c-0.57-.7-2.69-0.47-4-0.78l0.64-.29-1.44.05c-0.27-.17-0.42-0.44.25-0.36-0.92-.4-0.88,0-1.66-0.43-0.08-.05,0-0.06,0-0.06l-1-.07c0.2,0-.1-0.32.47-0.14-1.63-.59-2.78-0.26-3.34-0.7h0.15c-2.36-.35-0.29.25-2.11,0.24l-1-1-0.29.25c-0.24-.06-0.71-0.18-0.6-0.28-0.94,0,.13.16-0.43,0.25-1.1-.51-3.22-0.54-3.38-1.07-0.46.14,1.07,0.41-.2,0.31-0.25-.59-1.45-0.21-2.46-0.67,0.38-.2,1.35.15,0.34-0.3-0.73.31-2-.53-3-0.63-0.12.35-2-.26-3.5-0.45,0.12-.1-2.78-0.78-4.15-1.2l0.05-.05c-0.34.3-1.77-.06-2.83-0.21,0.09-.21.29-0.25,0.88-0.23l-1-.2a3.17,3.17,0,0,1-1.22,0l0.3-.22a30.83,30.83,0,0,1-4.35-.76c-0.15.23,1.19,1-.62,0.77,0-.15-0.06-0.39.42-0.35a2.87,2.87,0,0,1-.86-0.12l0.76-.08c-0.75-.26-0.44.11-1.05,0,0.05-.19-0.43-0.23-0.31-0.37a3.5,3.5,0,0,0,.77.16,6.28,6.28,0,0,1-1.74-.67c0,0.12-.05.26-0.57,0.18-1.31-.26-0.4-0.33-1.14-0.58-0.35.07-1.15-.24-1.23,0a0.9,0.9,0,0,1-.56-0.34c-0.7,0-3.17-.62-2.47-0.16l0.17,0.06H305c-2.28-.18-4.58-1.13-6.81-1.46l0-.1c-1.34-.16-2.94-0.54-3.93-0.53-0.39-.08-0.88-0.37-0.69-0.45A9.43,9.43,0,0,1,291,60.8c1,0-.32-0.22,1.06.09a8.93,8.93,0,0,0-3-.6c0.53-.15-0.92-0.52-1.56-0.57l0.88,0.37c-0.71-.11-1.31-0.26-1.93-0.41l0.4-.26c-2.59-1-5-.33-6.86-1.42-0.76.08,1.42,0.46,0.73,0.6a26.87,26.87,0,0,1-2.79-1.12c-1.65-.53-1.67.15-3.41-0.34,0.2,0.16.35,0.52-1,.35s-1.41-.8-0.62-0.73a0.51,0.51,0,0,1,.41.16c0.41,0,.94.1,0.48-0.13l-0.18.08c-0.59-.25-2.28-0.59-1.85-0.69-1-.08-0.44.11,0.24,0.31-1.54-.5-2.47-0.52-4.07-1,0.25,0.12.45,0.3,0.2,0.25-2.35-.64-1.1,0-2.72-0.28-0.88-.37.42-0.35-1.24-0.54-1-.33-0.15-0.35.27-0.36a14.79,14.79,0,0,1-3.58-.94l0.8,0.07a9.88,9.88,0,0,1-1.25-.2l0.4,0.33a1.61,1.61,0,0,1-.81-0.31c-0.5.05,0.28,0.46-.7,0.47-0.59-.25-1.89-0.26-2-0.61,1.9,0.5-.15-0.35,1.49-0.06a5.87,5.87,0,0,1-1.15-.25c-0.06,0,.08-0.05.21,0-1.78-.66-0.92.17-2.82-0.23,0.28-.12-0.37-0.42-0.69-0.45,0.77,0.16.31,0.37-.43,0.35a8.73,8.73,0,0,0-2-.33l0.72,0.22a5,5,0,0,1-1.75-.15c0-.15.79,0.07,0.5-0.05-1,.11-2.07-0.76-3.43-0.83-0.59-.24,0-0.34-0.51-0.53-1.52-.08-1.55-0.57-3.14-0.71,0.4,0.33.49,0.29-.65,0.29L246.2,51h-1.71c0.77,0.16,1.66.19,2.11,0.33-0.82,0-.73,0-0.4.26-1-.57-2.13-0.23-3.3-0.72l0.16-.57c-1.78-.64-3.32-0.38-5.67-1l0.74,0.26a10.41,10.41,0,0,1-2.27-.34c0.11-.18-0.36-0.35-0.66-0.54,0,0.15-1.74-.38-2,0l-1-.48c-1.9-.5-2.31.09-4.14-0.36,0.6-.09-0.21-0.41,1.06-0.3a2.27,2.27,0,0,0-1.2-.15c-0.34-.2-1.76-0.1-2.29-0.4a1.79,1.79,0,0,1-1.09.06c-0.07-.05,0-0.09,0-0.09s-1.11-.1-0.55.24c-1.77-1-5.32-1.06-6.86-1.92-1.36-.22-3-0.49-4.22-0.73,0.09,0,0-.1.25,0-1.65-.53-1.15.34-3-0.26-0.91-.52,1.05,0,0.47-0.2-0.13-.69-2.33-0.4-3.55-1l0.32,0c-0.94-.42-2.46-0.26-4.06-0.64,0,0,.09,0,0-0.09a27.39,27.39,0,0,1-4.85-.47c0.53-.15.73,0,0.49-0.3-0.7-.11.12,0.45-1.28,0.23a4.17,4.17,0,0,1-1.48-.86l1.31,0.26c-0.6-.49-1.7-0.34-2.37-0.55l0.12-.13c-2-.37-2.12,0-4.27-0.47l0.2,0.16c-1.26.14-.94-0.42-2.18-0.38l-0.28-.46c-0.8-.07-2.8-0.19-4.21-0.41a27,27,0,0,1,3.56.11,14.14,14.14,0,0,0-3.07-.41,3.63,3.63,0,0,1,1,.14,12.58,12.58,0,0,1-3.82-.33c0.43-.69-4-1-5-1.84-2.77-.29-5.36-1.24-8.54-1.86,1,0.82-.93-0.18-0.86.46a3.77,3.77,0,0,1-1.08-.24l-2.16-.82c-0.49-.28.73,0,0.69-0.13-1.6-.38-0.62-0.39-1.66-0.78,0.17,0.26-.62.19-1.53-0.08l1.24,0.55c-2.32-.15-1.84-0.91-4.18-1.07l0.76,0c-1.19-.13-4.3-0.9-5.55-0.66-0.19-.11-0.43-0.33.09-0.27-2.77-.65-6.31-0.78-8.42-1.53l0.24-.1a4.18,4.18,0,0,1-1.58-.2c0-.05.24-0.1,0-0.16a8.53,8.53,0,0,1-2.11-.26l0.62,0c-2.68-.76-4.26-0.47-6.56-0.84,0.1-.43-2-1-3.07-1.31l0-.05c-3.16-.71-5.45-0.76-8.42-1.21-1.72-.85-6.12-1.48-9-2.35,0.43,0.17-.14.32-0.67,0.26-0.67-.23-2-0.1-1.77-0.47l0.24,0.06c-0.44-.5-1.87-0.69-3-0.93l-0.29.48c-2.72-1.35-7.61-1.3-9-2.3-0.72,0-1.58-.2-2.3-0.21l0.09-.27c-1.91-.47-2.87-0.71-5.26-1.14l0.53-.1c-1.34-.3-1.86.45-3.1,0.2l-0.29-.49c-2.34-.48-4.64-1.34-7-1.45a0.5,0.5,0,0,1,.53-0.1c-1.1-.24-4.21-1.17-3.93-0.52,0-.38-2.41-0.54-3.71-0.64l0.25-.23a7.17,7.17,0,0,1-2.71,0c-0.35-.11-0.26-0.28.19-0.12-1.15-.39-1,0.07-2.37-0.38l0.57-.06a3.54,3.54,0,0,0-1.84-.1A4.93,4.93,0,0,1,69,14.21a2.55,2.55,0,0,1-1.6,0c-0.08-.11.2-0.12,0.33-0.12-2-.61-3.08-0.31-4.42-0.87a0.29,0.29,0,0,0-.2-0.21c1.61,0.34,2.9.63,2.78,0.62,0.05-.25-1.24-0.57-0.13-0.7a17.5,17.5,0,0,1-4.2-.37,0.62,0.62,0,0,1-.15-0.12h0.14a3.16,3.16,0,0,0-.81-0.13,10.41,10.41,0,0,0-1-.29,6.77,6.77,0,0,0-2.11-.57c0,0.29-.84.07-0.1,0.46a1,1,0,0,1,.56.07l0.28,0h0l1.62,0.32A3.54,3.54,0,0,1,58.09,12c-0.37.11-.77,0.21-1,0.26-0.81-.57-2.47-1.13-2.66-1.42-2-.26-4.69-0.87-6-0.61a1.12,1.12,0,0,1-.81-0.41,6.42,6.42,0,0,0,.91.07c-1.15-.1-3.35-0.64-3.69-0.34-1.38-.46.87-0.17-1.1-0.51L44,9c-3.71-1.38-6.43-.38-10.52-2a1.15,1.15,0,0,1,.48.23C29.17,5.91,23.9,5.47,19.22,4a5.41,5.41,0,0,0-2.4-.19l-0.23-.36-1.49,0C13,3.29,11.77,2,9.13,2L9.41,2.22C8.51,2,6.49,1.73,6.69,1.54A0.82,0.82,0,0,1,6,1.5V1.34l-2.3-.2C2,0.66,4.11.58,1.58,0c-1-.14-2.78-0.11-2.45.07a1.56,1.56,0,0,1,1,.46L-0.8.45c-0.25.42-1,.75,1,1.51L1.78,2,2.21,2.31,1,2.07a2.75,2.75,0,0,0,1.68.24,1.14,1.14,0,0,0,.57.37l1.54-.13C4.88,2.76,4,2.77,5,3.07,5.7,3,4.4,2.53,5.56,2.63a1.62,1.62,0,0,0,1.29.48c0.09,0.14-.1.18-0.44,0.16a12.78,12.78,0,0,0,2.4.18c0.68,0.41,2.51.45,2.35,0.87a8.27,8.27,0,0,1,2.05.06c-1.35.26,2.53,0.56,2.09,1,1-.27,3.36.48,5,0.57a0.87,0.87,0,0,1-.43,0,11,11,0,0,1,1.71.63c0.2-.36,1.64-0.15,2.46-0.23,1,0.6-.77.31-0.5,0.74,0-.32,2,0.1,1.69-0.24a2.32,2.32,0,0,1,1.09.68c0.25-.45.82,0.08,1.59-0.06C29.13,8,28.17,8,29.56,8.17,30.18,8.45,28.93,8.36,28.93,8.36Zm32.59,5.92h0l-0.67-.12Zm2.73,0.56-1.18-.26c-0.08-.11,0-0.19.32-0.13A2.27,2.27,0,0,0,64.25,14.85Zm-5.37-3.11a0.87,0.87,0,0,1,.62.2l-0.76-.12-0.06,0A0.43,0.43,0,0,1,58.88,11.74Z" transform="translate(1.5 0.13)"/><path class="cls-3" d="M58,11.94l-0.18,0L58.09,12,58.26,12Z" transform="translate(1.5 0.13)"/><path class="cls-3" d="M304.91,63.8l-0.06,0L305,63.85Z" transform="translate(1.5 0.13)"/><polygon class="cls-3" points="103.26 23.34 103.27 23.27 103.02 23.28 103.26 23.34"/><path class="cls-3" d="M319.72,67.87a0.45,0.45,0,0,0,.18.11A0.59,0.59,0,0,0,319.72,67.87Z" transform="translate(1.5 0.13)"/><path class="cls-3" d="M326.19,69.29l0.9,0.29C326.7,69.44,326.42,69.35,326.19,69.29Z" transform="translate(1.5 0.13)"/><path class="cls-3" d="M331.15,70.46a0.29,0.29,0,0,0,.12-0.1h0Z" transform="translate(1.5 0.13)"/><path class="cls-3" d="M251.84,54.28l-0.19,0C251.18,54.21,251.5,54.25,251.84,54.28Z" transform="translate(1.5 0.13)"/><path class="cls-3" d="M275.56,58.55c-0.26,0-.52,0-0.79,0C275.19,58.63,275.51,58.7,275.56,58.55Z" transform="translate(1.5 0.13)"/><path class="cls-3" d="M225.44,49.12h0l-0.16,0Z" transform="translate(1.5 0.13)"/><path class="cls-3" d="M273.68,58.28a4.41,4.41,0,0,0,1.1.23A6.8,6.8,0,0,0,273.68,58.28Z" transform="translate(1.5 0.13)"/><path class="cls-3" d="M352.72,75.09L353,75.15a0,0,0,0,1,0,0Z" transform="translate(1.5 0.13)"/><path class="cls-3" d="M353,75.11l0.27,0A0.59,0.59,0,0,0,353,75.11Z" transform="translate(1.5 0.13)"/><path class="cls-3" d="M353.84,75.18l-0.58,0A1.26,1.26,0,0,0,353.84,75.18Z" transform="translate(1.5 0.13)"/><path class="cls-3" d="M346.15,73.58l-0.1.08A0.13,0.13,0,0,0,346.15,73.58Z" transform="translate(1.5 0.13)"/><path class="cls-3" d="M344.14,73.2a11.88,11.88,0,0,0,1.84.54l0.08-.07C345.71,73.75,344.63,73.12,344.14,73.2Z" transform="translate(1.5 0.13)"/><path class="cls-3" d="M336,70.22l1.66,0.43c-0.27-.17-0.63-0.39.14-0.26C335.78,69.63,338.22,70.72,336,70.22Z" transform="translate(1.5 0.13)"/><path class="cls-3" d="M330.85,69c0.91,0.14,0-.16.08-0.21C330.34,68.75,330.2,68.75,330.85,69Z" transform="translate(1.5 0.13)"/><path class="cls-3" d="M293.21,61.14l0.14-.23C292.65,60.79,293.32,61,293.21,61.14Z" transform="translate(1.5 0.13)"/><polygon class="cls-3" points="287.24 61.05 287.89 61.35 288.26 61.19 287.24 61.05"/><polygon class="cls-3" points="283.36 58.39 283.67 58.41 282.49 58.26 283.36 58.39"/><path class="cls-3" d="M218.62,45.18l0.15,0.35C219.25,45.57,219.42,45.25,218.62,45.18Z" transform="translate(1.5 0.13)"/><path class="cls-3" d="M191.26,39.81a2.6,2.6,0,0,0-1.52-.42C190.35,39.53,190.94,39.78,191.26,39.81Z" transform="translate(1.5 0.13)"/><polygon class="cls-3" points="111.01 22.38 111.58 22.39 110.53 22.26 111.01 22.38"/><path class="cls-3" d="M359.14,1.15c0.17-.12,0-0.29-0.49-0.15l-0.3.4Z" transform="translate(1.5 0.13)"/><path class="cls-3" d="M355.52,1.27c-0.58.28-1.23,0.71-.77,0.92,0.54-.44.72-0.34,1.29-0.84,0.51-.15.93-0.08,0.87,0.05A3.8,3.8,0,0,0,358,1a4.43,4.43,0,0,0-2.44.45C355.31,1.47,355.48,1.34,355.52,1.27Z" transform="translate(1.5 0.13)"/><path class="cls-3" d="M304.5,11.26l0.34,0A1.86,1.86,0,0,0,304.5,11.26Z" transform="translate(1.5 0.13)"/><path class="cls-3" d="M272.92,17.59a0.55,0.55,0,0,0,.34-0.14A0.52,0.52,0,0,0,272.92,17.59Z" transform="translate(1.5 0.13)"/><path class="cls-3" d="M267.46,18.34l0.32,0A0.68,0.68,0,0,0,267.46,18.34Z" transform="translate(1.5 0.13)"/><path class="cls-3" d="M304.5,11.26l-0.86.07A1.52,1.52,0,0,0,304.5,11.26Z" transform="translate(1.5 0.13)"/><path class="cls-3" d="M348.66,3.5a2.36,2.36,0,0,0,.44-0.18l-0.42.12A0.26,0.26,0,0,1,348.66,3.5Z" transform="translate(1.5 0.13)"/><path class="cls-3" d="M318.35,8.13l0.26-.05a1.34,1.34,0,0,0,.19-0.18Z" transform="translate(1.5 0.13)"/><path class="cls-3" d="M329,5.88a0.59,0.59,0,0,0-.34.47,1,1,0,0,1,.49-0.3A0.28,0.28,0,0,0,329,5.88Z" transform="translate(1.5 0.13)"/><path class="cls-3" d="M346,2.88l0.29-.1Z" transform="translate(1.5 0.13)"/><path class="cls-3" d="M310.7,9.65a0.22,0.22,0,0,0-.12-0.08A0.15,0.15,0,0,0,310.7,9.65Z" transform="translate(1.5 0.13)"/><path class="cls-3" d="M12.64,73.24a0.14,0.14,0,0,0,0,0C12.58,73.23,12.56,73.26,12.64,73.24Z" transform="translate(1.5 0.13)"/><path class="cls-3" d="M0,74.43l0.17-.05a0.49,0.49,0,0,0,0-.16Z" transform="translate(1.5 0.13)"/><path class="cls-3" d="M257.53,20h0A0.33,0.33,0,1,0,257.53,20Z" transform="translate(1.5 0.13)"/><path class="cls-3" d="M167.09,38.87c1.08,0-1.6.66,0,.62C166.92,39.41,168.4,38.77,167.09,38.87Z" transform="translate(1.5 0.13)"/><path class="cls-3" d="M348.37,3.52l-0.44.09A3.07,3.07,0,0,0,348.37,3.52Z" transform="translate(1.5 0.13)"/><path class="cls-3" d="M167.09,39.49h0Z" transform="translate(1.5 0.13)"/><path class="cls-3" d="M234.86,24.86a0.68,0.68,0,0,0,.26.07A0.39,0.39,0,0,0,234.86,24.86Z" transform="translate(1.5 0.13)"/><path class="cls-3" d="M251.85,21.77l-0.43,0A3.39,3.39,0,0,0,251.85,21.77Z" transform="translate(1.5 0.13)"/><path class="cls-3" d="M226.15,27.06a2.11,2.11,0,0,0-.62.1h0.1A1.07,1.07,0,0,1,226.15,27.06Z" transform="translate(1.5 0.13)"/><path class="cls-3" d="M217,29l0.18,0,0.29-.07Z" transform="translate(1.5 0.13)"/><path class="cls-3" d="M40.4,67.38a1.39,1.39,0,0,1-.47-0.16C40.11,67.39,38.78,67.74,40.4,67.38Z" transform="translate(1.5 0.13)"/><path class="cls-3" d="M348.62,3.35a0.36,0.36,0,0,1-.25.17l0.3-.08A0.06,0.06,0,0,0,348.62,3.35Z" transform="translate(1.5 0.13)"/><path class="cls-3" d="M226.23,29.31l-1.46.26C225.18,29.51,225.71,29.42,226.23,29.31Z" transform="translate(1.5 0.13)"/><path class="cls-3" d="M106,53.82l-0.33.1A0.92,0.92,0,0,0,106,53.82Z" transform="translate(1.5 0.13)"/><path class="cls-3" d="M220.46,30.5a3.75,3.75,0,0,0-.86,0,0.66,0.66,0,0,0-.15.11Z" transform="translate(1.5 0.13)"/><path class="cls-3" d="M39.93,67.22h0Z" transform="translate(1.5 0.13)"/><path class="cls-3" d="M30.49,69.85c1.39-.28.58-0.49,0.83-0.76,1.63-.44.82,0.11,1.42,0.18,1-.31,1.73-0.8,2.51-0.95,0.07,0,.22,0,0.06.15,1-.51,3.23-0.68,4.43-1.3a0.39,0.39,0,0,1,.18.06,0.48,0.48,0,0,1-.3-0.46A2.6,2.6,0,0,1,41,66.49a1,1,0,0,0-.56.28l0.63-.24c0.66,0.22-.86.3-0.81,0.55A25.88,25.88,0,0,1,43.93,66c0.27,0.29-2.25.58-.89,0.61l-1.53.18c1.26,0.29-.92.15,0.25,0.5,2-.31,2.18-0.63,4.17-0.94,0.41-.28-0.2-0.24.2-0.52,2.74-.91,2.38.38,4.35-0.49a2.73,2.73,0,0,1,2.12-.88L52.19,65c1.92-.36,1-0.77,3-0.93-0.33.22-1.48,0.43-1.18,0.42,1.36,0,.88-0.4,1.87-0.61l0.28,0.29c2-.47,4.22-1.18,6.47-1.7-0.1.12-.47,0.31,0.08,0.3a72.48,72.48,0,0,1,8.88-1.58l1-.5c0.24,0,.48,0,0.23.15,1.09-.11,0-0.19.51-0.41s0.84,0,.47.17a33.51,33.51,0,0,1,7.33-1.74L80.78,59c1.57-.2,1.63-0.95,3.12-1l-0.27.11c3.39-.57,7.05-1.6,9.71-1.69,0.4-.51,3.37-0.5,3.47-1.12A27.8,27.8,0,0,0,101,55c0.73-.12,1-0.58,1.88-0.83l0.08,0.3,1.15-.57,0.72,0.23,0.82-.25a0.8,0.8,0,0,1-.7-0.09,7.69,7.69,0,0,1,3.3-.3l3-.89a2.78,2.78,0,0,1-.95.45c1.59-.65.37,0.26,1.82-0.34-0.22,0,.07-0.2.09-0.27a17.31,17.31,0,0,0,3.77-.66l-0.2.26c2.31-.42,4.82-1.1,7.4-1.63-0.94.09-.81-0.31-0.06-0.5l0.37,0.26c0.45-.3-0.81,0,0.14-0.41,1-.16.72,0.23,0.19,0.45l1.15-.35a0.63,0.63,0,0,1-.22.32c0.44-.3,2.09-0.1,2.71-0.58l0.09,0.08c2.58-.53,3.72-0.88,5.82-1.33,0-.28.82-0.39,1.4-0.74,1.56-.23,3.32-0.37,5.17-0.77,1.28-.41.33-0.31,0.89-0.6,0.15,0.23,2-.18,1.07.2,2.22-.5,2.84-0.64,5.62-1.42-0.33,0-.68,0-0.52-0.14a1.39,1.39,0,0,1,1.14,0l-0.13.05c3.09-1,7.46-.78,9.87-1.82l-0.14.05,2.56-.81c1.21-.2-0.68.34,0.24,0.31,2.73-1,4.47-.86,6.73-1.62,2,0.37,6.37-1.37,8.89-1.4L176,39.55a2.28,2.28,0,0,1,1.25-.11c-0.09-.12-0.71,0-0.34-0.19,5.27-1.31,11-2,16.5-3,2-.36.95-1.13,3.54-1.24l-0.65.47c3.94-1.22,8.23-1.68,12.09-2.82a1.27,1.27,0,0,1-.59.3,6.72,6.72,0,0,0,3.05-.82c0.62-.1.18,0.14,0.58,0.16,0.86,0,2-.73,2.52-0.59a0.63,0.63,0,0,1-.37.17c0.52-.23,2.54-0.49,2-0.66,1.5-.18,2.8-0.7,4-0.79,0.71-.46,2.56-0.38,2.71-0.85,0,0.46,2.66-.18,3.56-0.58-0.29.2,0.84,0,.51,0.23,1.06-.23,2-0.51,1.79-0.7,2.07,0.13,3.86-1.24,5.11-.79,3.12-.89,6-1.66,8.84-2.35,0,0.46-3.14.69-2.92,1.13a57.53,57.53,0,0,1,6.85-1.89c0.71-.08-0.35.27-0.57,0.4,2.66-.74,5.23-1,7.58-1.77a1.37,1.37,0,0,1-.49.23c0.47-.11,1.11-0.16,1-0.35l-0.45.15c-0.82-.14,1.75-1,1.81-1.17-0.68.74,2.4-.34,1.28,0.65,0.3-.1.68-0.28,0.58-0.4,0.47-.06.63,0,0.2,0.24a25.41,25.41,0,0,1,2.56-.86,1.68,1.68,0,0,1-.42.35,8.6,8.6,0,0,1,2.8-.89c-0.07.07,0.1,0.12-.29,0.2,2.22-.49,3.7-1.29,6.18-1.61-0.63.57,0.86,0,1.07,0.31l1.29-.38-0.56-.07a32,32,0,0,1,3.13-.79l-0.83.33,2.15-.51-1.25.11c1.13-.43-0.22-0.44,1.33-0.65A14.27,14.27,0,0,1,276,18h0a6.06,6.06,0,0,1,2-.56c0.25,0.07-.09.44,0.07,0.49,0.5-.42,2.68-0.64,3.33-1.11-0.22.13-.19,0.32-0.11,0.34l0.42-.35c0.55,0,.64,0,0.58.16,1.62-.29-0.61-0.36,1.34-0.55a2.33,2.33,0,0,1-.37.18c1.94-.29,3.67-0.92,5.45-1.16,0.59,0.26-1.52.41-.86,0.59,2.52-.59,5.16-1.52,7.63-1.94l-0.47.05c0.23-.59,1.88-0.12,3.07-0.62-0.3.1-.34,0.37-0.27,0.3a59.06,59.06,0,0,0,5.92-1.52l-0.29.2c1-.09,2.62-0.47,3.7-0.63,0.29-.2.91-0.3,0.49-0.42,3.46,0.08,6.21-1.7,9.27-1.67-0.35.07-.81,0.29-0.53,0.23l2.47-.64a1.68,1.68,0,0,0-.92-0.14,5.23,5.23,0,0,1,1.59-.58c-1.09.38,0.08,0.36,0.59,0.39-0.1-.05.05-0.16,0-0.23,1.39,0.13.12-.5,2-0.6l-0.07.14a13.82,13.82,0,0,1,2-.6c0.35,0.2-.68.27-0.68,0.49,1-.22,1.89-0.91,2.85-0.83-0.41.16-1,.29-1.44,0.45a5.42,5.42,0,0,0,1.9-.1h-0.07l1.74-.21h-0.45c1.12-.94,2.54-0.65,4.15-1.45-1.56.76-.22,0.3-0.29,0.62,0.45,0,1.13-.05,1,0.07,0.75-.4,1.38-0.09,2.44-0.67,0.07,0.09.86-.17,0.73,0.11,1-.29-0.28-0.12-0.22-0.25,1.54-.66,3.86-0.38,6.09-1.31,2-.6,2.26-1,4.08-1.54,0.66,0-.44.45-0.44,0.45A10.1,10.1,0,0,0,348,3.1c-0.18.12,0,.15,0.35,0.2,0.76-.18.44-0.45,1.47-0.52a2.77,2.77,0,0,1-.68.54c0.88-.27,1.73-0.63,2.64-0.91,0.28,0.12-.51.37-0.82,0.54a11,11,0,0,0,2.95-1l-0.69,0c0.38-.09.24,0.19,0,0.29a1.33,1.33,0,0,1-1.38.09l0.65-.2c-0.8-.42-2.64.64-4,0.88l0.47-.52-1.3.62c-0.31,0-.56-0.23.09-0.43-1,0-.82.32-1.68,0.26-0.1,0-.06,0,0-0.08l-0.91.31c0.17-.12-0.21-0.26.37-0.32-1.73.11-2.64,0.86-3.34,0.68l0.14-.05c-2.3.62-.16,0.35-1.84,1.06l-1.33-.5L339,4.42c-0.24,0-.72.11-0.66,0-0.85.39,0.18,0.1-.3,0.4-1.21,0-3.16.78-3.52,0.36-0.37.31,1.14-.05-0.06,0.36-0.46-.44-1.41.38-2.51,0.36,0.27-.33,1.3-0.4.19-0.42-0.54.58-2.08,0.33-2.95,0.59,0,0.36-1.91.55-3.37,1,0.07-.14-2.85.38-4.27,0.54l0-.07c-0.19.42-1.64,0.64-2.67,0.93,0-.22.17-0.35,0.71-0.56l-1,.2a3.15,3.15,0,0,1-1.13.46l0.19-.32a30.63,30.63,0,0,1-4.28,1c0,0.27,1.48.42-.26,1-0.09-.12-0.21-0.34.25-0.49a2.85,2.85,0,0,1-.84.23l0.66-.37c-0.79.06-.36,0.27-1,0.38,0-.2-0.48,0-0.43-0.22a3.48,3.48,0,0,0,.77-0.15,6.24,6.24,0,0,1-1.86.08c0.08,0.1.05,0.26-.45,0.39-1.3.28-.5-0.14-1.28-0.08-0.29.2-1.15,0.23-1.11,0.53a0.9,0.9,0,0,1-.64-0.09c-0.65.27-3.15,0.69-2.32,0.84l0.18,0-0.11,0h0c-2.16.74-4.64,0.78-6.81,1.36l0-.1c-1.29.38-2.91,0.67-3.8,1.07-0.39.08-1,0-.81-0.14A9.37,9.37,0,0,1,291,14c1-.38-0.38-0.08,1-0.34a8.88,8.88,0,0,0-3,.64c0.43-.35-1-0.11-1.65.09h0.95c-0.69.18-1.3,0.28-1.93,0.39l0.27-.39c-2.75.15-4.67,1.67-6.84,1.42-0.66.37,1.48-.14,0.91,0.26a26.7,26.7,0,0,1-3,.08c-1.72.17-1.47,0.8-3.25,1,0.25,0.07.53,0.34-.77,0.72-1.24.21-1.61-.18-0.85-0.43a0.51,0.51,0,0,1,.44,0c0.39-.12.9-0.28,0.39-0.31l-0.14.15c-0.63,0-2.32.37-2,.1-0.9.3-.36,0.27,0.34,0.19-1.61.16-2.46,0.5-4.11,0.72,0.27,0,.54.1,0.28,0.15-2.41.35-1,.44-2.6,0.82-1,0,.24-0.49-1.35,0-1,.08-0.27-0.27.1-0.44a14.7,14.7,0,0,1-3.64.55l0.76-.25a9.82,9.82,0,0,1-1.22.31l0.49,0.14a1.6,1.6,0,0,1-.86,0c-0.44.25,0.44,0.31-.45,0.71-0.63,0-1.83.51-2.1,0.24,1.94-.29-0.28-0.27,1.34-0.65a5.84,5.84,0,0,1-1.15.23c-0.08,0,.05-0.08.17-0.12-1.89.1-.77,0.52-2.67,0.91,0.21-.22-0.51-0.24-0.81-0.14,0.77-.15.43,0.21-0.25,0.49a8.67,8.67,0,0,0-1.94.49l0.74-.09a5,5,0,0,1-1.66.56c-0.1-.12.75-0.25,0.44-0.25-0.88.5-2.2,0.12-3.47,0.6-0.63,0-.13-0.31-0.68-0.28-1.43.53-1.65,0.09-3.16,0.6,0.49,0.14.56,0.07-.48,0.52l2.51-.69-1.56.68c0.77-.16,1.59-0.48,2.06-0.54-0.74.35-.67,0.28-0.26,0.39-1.12-.13-2,0.63-3.31.65l-0.08-.59c-1.88.12-3.19,1-5.59,1.31l0.78-.06a10.34,10.34,0,0,1-2.21.59c0-.21-0.46-0.18-0.82-0.23,0.07,0.14-1.74.34-1.88,0.78l-1.11,0c-1.94.29-2.07,1-3.93,1.32,0.51-.32-0.35-0.29.85-0.69a2.25,2.25,0,0,0-1.16.34c-0.38,0-1.65.61-2.25,0.54a1.78,1.78,0,0,1-1,.48c-0.08,0,0-.1,0-0.1s-1.05.35-.41,0.44c-2-.21-5.29,1.14-7,1-1.33.34-2.93,0.74-4.15,1,0.07-.07,0-0.1.22-0.12-1.72.17-.92,0.77-2.87,1-1-.11,1-0.38.35-0.37-0.4-.58-2.29.56-3.65,0.46l0.3-.1c-1,0-2.35.74-4,1,0,0,.07-0.07,0-0.1a27.22,27.22,0,0,1-4.62,1.5c0.43-.35.68-0.28,0.33-0.47-0.69.18,0.29,0.36-1.08,0.72a4.15,4.15,0,0,1-1.69-.2l1.3-.28c-0.74-.21-1.69.36-2.39,0.44l0.06-.17c-2,.46-1.94.85-4.09,1.27l0.25,0.07c-1.1.62-1,0-2.14,0.51l-0.43-.31c-0.76.25-2.64,0.93-4,1.29a26.87,26.87,0,0,1,3.3-1.31,14.05,14.05,0,0,0-3,.84,3.61,3.61,0,0,1,1-.28,12.5,12.5,0,0,1-3.62,1.21c0.12-.81-4,0.63-5.26.28-2.65.84-5.4,1-8.54,1.68,1.24,0.35-.92.21-0.6,0.77a3.75,3.75,0,0,1-1.08.21l-2.3.1c-0.56-.07.67-0.28,0.58-0.4-1.62.29-.73-0.11-1.83-0.05,0.26,0.17-.5.42-1.43,0.53h1.35c-2.18.78-2-.1-4.25,0.68l0.68-.34c-1.14.35-4.29,0.88-5.33,1.6-0.22,0-.53-0.13,0-0.28-2.79.5-6.08,1.79-8.3,1.94l0.18-.19a4.15,4.15,0,0,1-1.53.45c0-.07.18-0.19-0.06-0.15a8.47,8.47,0,0,1-2,.6l0.55-.29c-2.75.37-4.08,1.26-6.33,1.83-0.08-.43-2.25-0.13-3.32,0l0-.07c-3.17.6-5.29,1.46-8.18,2.23-1.91-.09-6.19,1.07-9.16,1.41,0.46,0,0,.35-0.51.5-0.7.05-1.83,0.69-1.8,0.27l0.25,0c-0.6-.28-2,0.11-3.08.33l-0.07.55c-3-.16-7.47,1.83-9.18,1.48-0.67.27-1.53,0.45-2.19,0.72l0-.29c-1.94.33-2.9,0.49-5.26,1l0.44-.3c-1.34.26-1.53,1.15-2.76,1.42l-0.46-.34c-2.34.49-4.78,0.61-7,1.46a0.5,0.5,0,0,1,.44-0.3c-1.1.22-4.31,0.6-3.8,1.08-0.1-.36-2.42.46-3.65,0.88l0.14-.31a7.12,7.12,0,0,1-2.48,1.07c-0.36,0-.35-0.15.13-0.18-1.2.1-.86,0.45-2.32,0.6l0.49-.28a3.52,3.52,0,0,0-1.72.64,4.9,4.9,0,0,1-2.54.19,2.54,2.54,0,0,1-1.48.6c-0.12-.07.13-0.18,0.26-0.24-2.06.23-2.94,0.94-4.38,1a0.29,0.29,0,0,0-.27-0.11c1.61-.32,2.9-0.58,2.79-0.53-0.05-.25-1.36,0-0.4-0.59a17.39,17.39,0,0,1-4,1.33,0.61,0.61,0,0,1-.19-0.05l0.13-.06a3.14,3.14,0,0,0-.79.21,10.36,10.36,0,0,0-1.06.14,6.72,6.72,0,0,0-2.16.32c0.11,0.26-.75.39,0.09,0.46a1,1,0,0,1,.54-0.16,2.27,2.27,0,0,0,.27-0.09l0,0,1.6-.35a3.51,3.51,0,0,1-1.74.47c-0.3.25-.62,0.5-0.81,0.63-1-.2-2.71-0.06-3-0.25-1.94.56-4.63,1.06-5.76,1.83a1.12,1.12,0,0,1-.9-0.05,6.37,6.37,0,0,0,.86-0.3c-1.09.36-3.31,0.74-3.51,1.15-1.45.13,0.73-.5-1.21,0l0.24-.16c-3.94.21-6,2.2-10.42,2.34a1.14,1.14,0,0,1,.53,0c-4.9.67-9.9,2.36-14.77,2.82a5.37,5.37,0,0,0-2.27.78l-0.35-.24-1.34.63c-2,.66-3.62,0-6.07,1l0.37,0.13c-0.92.15-2.86,0.71-2.76,0.45a0.81,0.81,0,0,1-.63.24l-0.06-.15-2.19.73c-1.76.25,0.15-.67-2.4-0.18-0.93.25-2.59,1-2.22,1a1.55,1.55,0,0,1,1.05,0l-0.85.26c-0.06.49-.63,1.09,1.55,1l1.42-.58,0.52,0.12-1.24.27A2.73,2.73,0,0,0,4,74.72a1.13,1.13,0,0,0,.67.12l1.36-.73c0.21,0.14-.58.49,0.42,0.39,0.64-.34-0.73-0.27.36-0.63a1.61,1.61,0,0,0,1.37-.07c0.14,0.09,0,.2-0.34.32a12.7,12.7,0,0,0,2.27-.78c0.79,0.1,2.47-.58,2.49-0.13a8.22,8.22,0,0,1,1.9-.76c-1.13.77,2.54-.49,2.33,0.13,0.82-.65,3.26-0.89,4.83-1.48a0.87,0.87,0,0,1-.39.17,11,11,0,0,1,1.82-.1c0-.41,1.44-0.79,2.16-1.18,1.19,0.14-.59.59-0.16,0.87C25,70.55,27,70.14,26.56,70a2.3,2.3,0,0,1,1.27.19c0.05-.51.78-0.25,1.43-0.69,1.29,0,.41.38,1.74,0C31.67,69.43,30.49,69.85,30.49,69.85Zm32.16-7.49h0L62,62.51Zm2.72-.56L64.19,62c-0.11-.08,0-0.19.24-0.25A2.26,2.26,0,0,0,65.37,61.79Zm-6.14-.72A0.87,0.87,0,0,1,59.88,61l-0.75.19,0,0A0.43,0.43,0,0,1,59.23,61.06Z" transform="translate(1.5 0.13)"/><path class="cls-3" d="M58.53,61.59l-0.17.06h0.27l0.13-.12Z" transform="translate(1.5 0.13)"/><path class="cls-3" d="M304.89,11.23H305Z" transform="translate(1.5 0.13)"/><polygon class="cls-3" points="104.49 54.71 104.47 54.64 104.25 54.75 104.49 54.71"/><path class="cls-3" d="M320.05,9.09a0.45,0.45,0,0,0,.21,0A0.58,0.58,0,0,0,320.05,9.09Z" transform="translate(1.5 0.13)"/><path class="cls-3" d="M326.53,7.82l0.93-.09C327.06,7.75,326.76,7.79,326.53,7.82Z" transform="translate(1.5 0.13)"/><path class="cls-3" d="M331.53,6.93a0.29,0.29,0,0,0,.07-0.14h0Z" transform="translate(1.5 0.13)"/><path class="cls-3" d="M252.58,23.54l-0.19.05C251.95,23.74,252.25,23.65,252.58,23.54Z" transform="translate(1.5 0.13)"/><path class="cls-3" d="M276,18.05c-0.24.1-.48,0.2-0.73,0.29C275.65,18.27,276,18.21,276,18.05Z" transform="translate(1.5 0.13)"/><path class="cls-3" d="M226.39,29.28h0l-0.16,0Z" transform="translate(1.5 0.13)"/><path class="cls-3" d="M274.14,18.56a4.38,4.38,0,0,0,1.09-.22A6.77,6.77,0,0,0,274.14,18.56Z" transform="translate(1.5 0.13)"/><path class="cls-3" d="M353.09,2.61l0.24,0a0,0,0,0,1,0-.05Z" transform="translate(1.5 0.13)"/><path class="cls-3" d="M353.35,2.53l0.26-.09A0.58,0.58,0,0,0,353.35,2.53Z" transform="translate(1.5 0.13)"/><path class="cls-3" d="M354.16,2.25l-0.55.18A1.25,1.25,0,0,0,354.16,2.25Z" transform="translate(1.5 0.13)"/><path class="cls-3" d="M346.49,3.84L346.43,4A0.13,0.13,0,0,0,346.49,3.84Z" transform="translate(1.5 0.13)"/><path class="cls-3" d="M344.49,4.28a11.81,11.81,0,0,0,1.89-.23l0-.09C346.15,4.17,344.91,4,344.49,4.28Z" transform="translate(1.5 0.13)"/><path class="cls-3" d="M335.89,4.77l1.69-.27c-0.31,0-.73-0.11,0-0.29C335.44,4.33,338.1,4.36,335.89,4.77Z" transform="translate(1.5 0.13)"/><path class="cls-3" d="M330.67,5.69c0.89-.23,0-0.15,0-0.22C330.11,5.68,330,5.73,330.67,5.69Z" transform="translate(1.5 0.13)"/><path class="cls-3" d="M293.13,13.42l0-.27C292.48,13.33,293.18,13.25,293.13,13.42Z" transform="translate(1.5 0.13)"/><polygon class="cls-3" points="287.72 16.32 288.43 16.34 288.7 16.04 287.72 16.32"/><polygon class="cls-3" points="283.11 15.41 283.41 15.31 282.27 15.64 283.11 15.41"/><path class="cls-3" d="M218.58,28.37l0.27,0.27C219.32,28.49,219.34,28.12,218.58,28.37Z" transform="translate(1.5 0.13)"/><path class="cls-3" d="M191.43,34.3a2.59,2.59,0,0,0-1.55.21C190.49,34.41,191.13,34.4,191.43,34.3Z" transform="translate(1.5 0.13)"/><polygon class="cls-3" points="111.2 50.74 111.73 50.53 110.71 50.83 111.2 50.74"/><path class="cls-5" d="M624.82,45.05a10.89,10.89,0,0,1-15.3-.07,10.69,10.69,0,0,1,0-15.2,10.53,10.53,0,0,1,7.77-3.19,11.38,11.38,0,0,1,7.84,3.25l-1.85,1.64a9,9,0,0,0-6-2.56,8,8,0,0,0-5.82,2.45,8.59,8.59,0,0,0,0,12,8,8,0,0,0,5.82,2.45,7.57,7.57,0,0,0,4.89-1.61V37.82h2.64v7.24Z" transform="translate(1.5 0.13)"/><path class="cls-5" d="M642.33,47.92h-2.65V45.58a5.16,5.16,0,0,1-4.78,2.7,7.32,7.32,0,0,1-5.38-2.2,7.28,7.28,0,0,1,0-10.44,7.34,7.34,0,0,1,5.38-2.2,5.17,5.17,0,0,1,4.78,2.67V34.53h2.65V47.92Zm-2.65-6V39.78a5,5,0,0,0-4.78-4,4.66,4.66,0,0,0-3.43,1.46A4.94,4.94,0,0,0,630,40.86a4.87,4.87,0,0,0,1.45,3.59A4.87,4.87,0,0,0,639.67,41.92Z" transform="translate(1.5 0.13)"/><path class="cls-5" d="M647.89,26.84V47.92h-2.65V26.84h2.65Z" transform="translate(1.5 0.13)"/><path class="cls-5" d="M653.77,26.84V47.92h-2.65V26.84h2.65Z" transform="translate(1.5 0.13)"/><path class="cls-5" d="M658.85,40.82v0a4.87,4.87,0,0,0,1.45,3.59,4.76,4.76,0,0,0,6.87,0q0.21-.21.79-0.92l2.49,0.88A8.07,8.07,0,0,1,669.16,46a7.69,7.69,0,0,1-10.82,0,7.28,7.28,0,0,1,0-10.44,7.72,7.72,0,0,1,10.82,0,7,7,0,0,1,1.92,5.16H658.85Zm0.47-2.31h8.77q-0.94-2.72-4.37-2.72T659.32,38.5Z" transform="translate(1.5 0.13)"/><path class="cls-5" d="M679.2,36.53A4.43,4.43,0,0,0,676.38,38a4.34,4.34,0,0,0-1,2.92v7h-2.65V34.53h2.65v1.9a3.66,3.66,0,0,1,2.52-2.18Z" transform="translate(1.5 0.13)"/><path class="cls-5" d="M686.12,52.57h-2.86l3.49-7.5-4.91-10.53h2.86l3.49,7.4,3.49-7.4h2.86Z" transform="translate(1.5 0.13)"/><rect class="cls-6" x="741" y="1" width="179" height="75"/><path class="cls-5" d="M802.5,26.84l7.63,21.08h-2.75l-3.18-8.76h-5.73l-3.24,8.76h-2.77l7.73-21.08h2.3Zm0.86,10-2-5.6-2,5.6h4.06Z" transform="translate(1.5 0.13)"/><path class="cls-5" d="M811.62,26.84h2.65v9.23A5.17,5.17,0,0,1,819,33.44a7.33,7.33,0,0,1,5.39,2.2,7.3,7.3,0,0,1,0,10.44,7.32,7.32,0,0,1-5.39,2.2,5.17,5.17,0,0,1-4.76-2.65v2.3h-2.65V26.84Zm2.65,12.89V42a4.82,4.82,0,0,0,8.18,2.46,4.86,4.86,0,0,0,1.46-3.59,4.93,4.93,0,0,0-1.46-3.62A4.67,4.67,0,0,0,819,35.78a4.75,4.75,0,0,0-3.46,1.49A4.59,4.59,0,0,0,814.28,39.73Z" transform="translate(1.5 0.13)"/><path class="cls-5" d="M836.35,33.44a7.3,7.3,0,0,1,5.39,2.2,7.33,7.33,0,0,1,0,10.44,7.68,7.68,0,0,1-10.77,0,7.28,7.28,0,0,1,0-10.44A7.34,7.34,0,0,1,836.35,33.44Zm-3.43,3.81a4.94,4.94,0,0,0-1.45,3.62,4.87,4.87,0,0,0,1.45,3.59,4.77,4.77,0,0,0,6.85,0,4.86,4.86,0,0,0,1.46-3.59,4.93,4.93,0,0,0-1.46-3.62A4.73,4.73,0,0,0,832.92,37.24Z" transform="translate(1.5 0.13)"/><path class="cls-5" d="M852.05,48.1a5.67,5.67,0,0,1-4.21-1.55,5.35,5.35,0,0,1-1.59-3.81V34.52h2.65v8.12a3.09,3.09,0,0,0,1,2.29,3,3,0,0,0,2.18.89,2.9,2.9,0,0,0,2.09-.92,3.06,3.06,0,0,0,.92-2.26V34.52h2.65v8.22a5.41,5.41,0,0,1-1.61,3.84A5.46,5.46,0,0,1,852.05,48.1Z" transform="translate(1.5 0.13)"/><path class="cls-5" d="M861.94,34.53v-5.2h2.64v5.2h2.49v2.29h-2.49v11.1h-2.64V36.82h-2.49V34.53h2.49Z" transform="translate(1.5 0.13)"/><rect class="cls-6" x="920" y="1" width="179" height="75"/><path class="cls-5" d="M983.94,36.83a9.06,9.06,0,0,1-3.65-2.12,4.53,4.53,0,0,1-1.38-3.33A4.62,4.62,0,0,1,980.34,28a4.8,4.8,0,0,1,3.55-1.44,4.92,4.92,0,0,1,3.59,1.48,5.12,5.12,0,0,1,1.22,2.14l-2.37.92a4.71,4.71,0,0,0-.79-1.54,2.2,2.2,0,0,0-3.26,0,2.45,2.45,0,0,0-.71,1.81,2.57,2.57,0,0,0,.73,1.85,7.66,7.66,0,0,0,2.08,1.35,10.41,10.41,0,0,1,4.22,2.52,6.35,6.35,0,0,1,0,9.13,6.74,6.74,0,0,1-9.49-.05,6.69,6.69,0,0,1-1.87-3.91l2.55-.92a5.35,5.35,0,0,0,1.3,3.35,3.8,3.8,0,0,0,2.78,1.17,3.88,3.88,0,0,0,2.83-1.21,4.32,4.32,0,0,0,0-6A8.78,8.78,0,0,0,983.94,36.83Z" transform="translate(1.5 0.13)"/><path class="cls-5" d="M992.73,26.84h2.65v7.69a3.84,3.84,0,0,1,2.78-.73,5.53,5.53,0,0,1,4.09,1.55,5.26,5.26,0,0,1,1.58,3.79v8.77h-2.64V39.27a3,3,0,0,0-.92-2.26,2.94,2.94,0,0,0-2.11-.9,2.91,2.91,0,0,0-2.07.85,3.33,3.33,0,0,0-.72,1v10h-2.65V26.84Z" transform="translate(1.5 0.13)"/><path class="cls-5" d="M1013.71,33.44a7.3,7.3,0,0,1,5.39,2.2,7.33,7.33,0,0,1,0,10.44,7.68,7.68,0,0,1-10.77,0,7.28,7.28,0,0,1,0-10.44A7.34,7.34,0,0,1,1013.71,33.44Zm-3.43,3.81a4.94,4.94,0,0,0-1.45,3.62,4.87,4.87,0,0,0,1.45,3.59,4.77,4.77,0,0,0,6.85,0,4.86,4.86,0,0,0,1.46-3.59,4.93,4.93,0,0,0-1.46-3.62A4.73,4.73,0,0,0,1010.28,37.24Z" transform="translate(1.5 0.13)"/><path class="cls-5" d="M1023.68,34.53h2.65v1.54a5.18,5.18,0,0,1,4.76-2.62,7.34,7.34,0,0,1,5.39,2.19,7.29,7.29,0,0,1,0,10.43,7.32,7.32,0,0,1-5.39,2.2,5.17,5.17,0,0,1-4.76-2.65v7h-2.65v-18Zm2.65,5.2V42a4.81,4.81,0,0,0,8.18,2.47,5.19,5.19,0,0,0,0-7.21,4.67,4.67,0,0,0-3.42-1.46,4.75,4.75,0,0,0-3.46,1.49A4.59,4.59,0,0,0,1026.33,39.73Z" transform="translate(1.5 0.13)"/><rect class="cls-6" x="1099" y="1" width="179" height="75"/><path class="cls-5" d="M1153.87,43.48l1.85,1.64a11.4,11.4,0,0,1-7.84,3.24,10.57,10.57,0,0,1-7.77-3.17,10.69,10.69,0,0,1,0-15.2,10.53,10.53,0,0,1,7.77-3.19,11.38,11.38,0,0,1,7.84,3.25l-1.85,1.64a9,9,0,0,0-6-2.56,8,8,0,0,0-5.82,2.45,8.58,8.58,0,0,0,0,12,8,8,0,0,0,5.82,2.45A9,9,0,0,0,1153.87,43.48Z" transform="translate(1.5 0.13)"/><path class="cls-5" d="M1165.28,33.64a7.3,7.3,0,0,1,5.39,2.2,7.33,7.33,0,0,1,0,10.44,7.68,7.68,0,0,1-10.77,0,7.28,7.28,0,0,1,0-10.44A7.34,7.34,0,0,1,1165.28,33.64Zm-3.43,3.81a4.94,4.94,0,0,0-1.45,3.62,4.87,4.87,0,0,0,1.45,3.59,4.77,4.77,0,0,0,6.85,0,4.86,4.86,0,0,0,1.46-3.59,4.93,4.93,0,0,0-1.46-3.62A4.73,4.73,0,0,0,1161.86,37.45Z" transform="translate(1.5 0.13)"/><path class="cls-5" d="M1178,38.14v10h-2.65V34.74H1178a3.84,3.84,0,0,1,2.78-.73,5.53,5.53,0,0,1,4.09,1.55,5.26,5.26,0,0,1,1.58,3.79v8.77h-2.64V39.47a3,3,0,0,0-.92-2.26,2.94,2.94,0,0,0-2.11-.9,2.91,2.91,0,0,0-2.07.85A3.33,3.33,0,0,0,1178,38.14Z" transform="translate(1.5 0.13)"/><path class="cls-5" d="M1190.88,34.74v-5.2h2.64v5.2H1196V37h-2.49v11.1h-2.64V37h-2.49V34.74h2.49Z" transform="translate(1.5 0.13)"/><path class="cls-5" d="M1212.57,48.13h-2.65V45.78a5.16,5.16,0,0,1-4.78,2.7,7.32,7.32,0,0,1-5.38-2.2,7.28,7.28,0,0,1,0-10.44,7.34,7.34,0,0,1,5.38-2.2,5.17,5.17,0,0,1,4.78,2.67V34.74h2.65V48.13Zm-2.65-6V40a5,5,0,0,0-4.78-4,4.66,4.66,0,0,0-3.43,1.46,4.94,4.94,0,0,0-1.45,3.62,4.87,4.87,0,0,0,1.45,3.59A4.87,4.87,0,0,0,1209.92,42.12Z" transform="translate(1.5 0.13)"/><path class="cls-5" d="M1226.32,43.85l2.52,0.92a15.54,15.54,0,0,1-1.19,1.46,7.69,7.69,0,0,1-10.82,0,7.28,7.28,0,0,1,0-10.44,7.72,7.72,0,0,1,10.76,0,14,14,0,0,1,1.25,1.51l-2.52.94q-0.53-.66-0.72-0.86a4.75,4.75,0,0,0-6.8.05,5.2,5.2,0,0,0,0,7.21,4.66,4.66,0,0,0,3.41,1.46,4.72,4.72,0,0,0,3.44-1.48Q1225.8,44.49,1226.32,43.85Z" transform="translate(1.5 0.13)"/><path class="cls-5" d="M1232.56,34.74v-5.2h2.64v5.2h2.49V37h-2.49v11.1h-2.64V37h-2.49V34.74h2.49Z" transform="translate(1.5 0.13)"/><path class="cls-5" d="M137.6,26l7.63,21.08h-2.75l-3.18-8.76h-5.73l-3.24,8.76h-2.77L135.3,26h2.3Zm0.86,10-2-5.6-2,5.6h4.06Z" transform="translate(1.5 0.13)"/><path class="cls-5" d="M148.79,44.38a1.57,1.57,0,0,1,0,2.36,2,2,0,0,1-2.7,0,1.58,1.58,0,0,1,0-2.36A2,2,0,0,1,148.79,44.38Z" transform="translate(1.5 0.13)"/><path class="cls-5" d="M175.59,42.44l1.85,1.64a11.4,11.4,0,0,1-7.84,3.24,10.57,10.57,0,0,1-7.77-3.17,10.69,10.69,0,0,1,0-15.2,10.53,10.53,0,0,1,7.77-3.19A11.38,11.38,0,0,1,177.43,29l-1.85,1.64a9,9,0,0,0-6-2.56,8,8,0,0,0-5.82,2.45,8.59,8.59,0,0,0,0,12A8,8,0,0,0,169.6,45,9,9,0,0,0,175.59,42.44Z" transform="translate(1.5 0.13)"/><path class="cls-5" d="M187,32.59a7.3,7.3,0,0,1,5.39,2.2,7.33,7.33,0,0,1,0,10.44,7.68,7.68,0,0,1-10.77,0,7.28,7.28,0,0,1,0-10.44A7.34,7.34,0,0,1,187,32.59Zm-3.43,3.81A4.94,4.94,0,0,0,182.12,40a4.87,4.87,0,0,0,1.45,3.59,4.77,4.77,0,0,0,6.85,0A4.86,4.86,0,0,0,191.88,40a4.93,4.93,0,0,0-1.46-3.62A4.73,4.73,0,0,0,183.57,36.4Z" transform="translate(1.5 0.13)"/><path class="cls-5" d="M211.73,47.08h-2.65V44.74a5.16,5.16,0,0,1-4.78,2.7,7.32,7.32,0,0,1-5.38-2.2,7.28,7.28,0,0,1,0-10.44,7.34,7.34,0,0,1,5.38-2.2,5.17,5.17,0,0,1,4.78,2.67V26h2.65V47.08Zm-2.65-6V38.93a5,5,0,0,0-4.78-4,4.66,4.66,0,0,0-3.43,1.46A4.94,4.94,0,0,0,199.42,40a4.87,4.87,0,0,0,1.45,3.59A4.87,4.87,0,0,0,209.07,41.07Z" transform="translate(1.5 0.13)"/><path class="cls-5" d="M229.13,47.08h-2.65V44.74a5.16,5.16,0,0,1-4.78,2.7,7.32,7.32,0,0,1-5.38-2.2,7.28,7.28,0,0,1,0-10.44,7.34,7.34,0,0,1,5.38-2.2,5.17,5.17,0,0,1,4.78,2.67V26h2.65V47.08Zm-2.65-6V38.93a5,5,0,0,0-4.78-4,4.66,4.66,0,0,0-3.43,1.46A4.94,4.94,0,0,0,216.82,40a4.87,4.87,0,0,0,1.45,3.59A4.87,4.87,0,0,0,226.48,41.07Z" transform="translate(1.5 0.13)"/><polygon class="cls-1" points="1282.92 476.04 1213.93 440.72 1213.85 179.49 1283 144.63 1282.92 476.04"/><ellipse cx="1248.45" cy="411.5" rx="28.69" ry="29.51"/><ellipse cx="1248.45" cy="344.05" rx="28.69" ry="29.51"/><ellipse cx="1248.45" cy="276.61" rx="28.69" ry="29.51"/><ellipse cx="1248.45" cy="209.16" rx="28.69" ry="29.51"/><path class="cls-5" d="M1253.39,398.91v2.58h-9.91v8h9.91v2.58h-9.91v8h9.91v2.59H1240.5v-23.7h12.89Z" transform="translate(1.5 0.13)"/><path class="cls-5" d="M1240.57,331.47v23.7h-3v-23.7h3Z" transform="translate(1.5 0.13)"/><path class="cls-5" d="M1247.19,343.93v11.23h-3V340.11h3q0.76-.82,3.13-0.82a6.21,6.21,0,0,1,4.59,1.75,5.92,5.92,0,0,1,1.78,4.27v9.86h-3v-9.73a3.41,3.41,0,0,0-1-2.54,3.3,3.3,0,0,0-2.37-1,3.27,3.27,0,0,0-2.32,1A3.74,3.74,0,0,0,1247.19,343.93Z" transform="translate(1.5 0.13)"/><path class="cls-5" d="M1239.06,266.6v21.11h-3V266.6h-5.66V264h14.28v2.58h-5.65Z" transform="translate(1.5 0.13)"/><path class="cls-5" d="M1264,272.67l-5.12,15.05h-2.09l-2.55-7.13-2.54,7.13h-2.12l-5.09-15.05h3.21l3,9.35,2.54-7h2l2.52,7,3-9.35H1264Z" transform="translate(1.5 0.13)"/><path class="cls-5" d="M1244.12,196.57v2.58h-8.51v8h8.51v2.58h-8.51v10.56h-3v-23.7h11.49Z" transform="translate(1.5 0.13)"/><path class="cls-5" d="M1260,206.75a7.58,7.58,0,0,1,2.31,5.57,7.68,7.68,0,0,1-2.39,5.61,8.18,8.18,0,0,1-4.87,2.34h-8.18v-23.7h7.52a5.28,5.28,0,0,1,3.89,1.56,5,5,0,0,1,1.56,3.67,4.93,4.93,0,0,1-1.53,3.64A4.77,4.77,0,0,1,1260,206.75Zm-10.16-7.61v5.2h4.77a2.34,2.34,0,0,0,1.5-.64,2.53,2.53,0,0,0,.72-1.89,2.59,2.59,0,0,0-.76-1.91,2.36,2.36,0,0,0-1.71-.76h-4.53Zm4.31,18.54a4.93,4.93,0,0,0,3.6-1.54,5.54,5.54,0,0,0,0-7.67,4.92,4.92,0,0,0-3.6-1.55h-4.31v10.75h4.31Z" transform="translate(1.5 0.13)"/><path d="M23.27,114.22v5.64h6.52v-5.64h1.76V127.7H29.79v-6.32H23.27v6.32H21.53V114.22h1.74Z" transform="translate(1.5 0.13)"/><path d="M43.27,122.78c0,3.58-2.48,5.14-4.82,5.14-2.62,0-4.64-1.92-4.64-5,0-3.24,2.12-5.14,4.8-5.14S43.27,119.82,43.27,122.78Zm-7.68.1c0,2.12,1.22,3.72,2.94,3.72s2.94-1.58,2.94-3.76c0-1.64-.82-3.72-2.9-3.72S35.59,121,35.59,122.88Z" transform="translate(1.5 0.13)"/><path d="M45.49,120.64c0-1,0-1.82-.08-2.62h1.54L47,119.58h0.06a3.34,3.34,0,0,1,3-1.78,2.86,2.86,0,0,1,2.74,1.94h0A4,4,0,0,1,54,118.48a3.31,3.31,0,0,1,2.14-.68c1.28,0,3.18.84,3.18,4.2v5.7H57.59v-5.48c0-1.86-.68-3-2.1-3a2.28,2.28,0,0,0-2.08,1.6,2.9,2.9,0,0,0-.14.88v6H51.55v-5.8c0-1.54-.68-2.66-2-2.66A2.41,2.41,0,0,0,47.35,121a2.44,2.44,0,0,0-.14.86v5.84H45.49v-7.06Z" transform="translate(1.5 0.13)"/><path d="M63.15,123.18a3.1,3.1,0,0,0,3.32,3.36,6.37,6.37,0,0,0,2.68-.5l0.3,1.26a7.85,7.85,0,0,1-3.22.6c-3,0-4.76-2-4.76-4.88s1.72-5.22,4.54-5.22c3.16,0,4,2.78,4,4.56a6.75,6.75,0,0,1-.06.82h-6.8Zm5.16-1.26c0-1.12-.46-2.86-2.44-2.86-1.78,0-2.56,1.64-2.7,2.86h5.14Z" transform="translate(1.5 0.13)"/><path d="M85.57,122.94l-9.28,4.76v-1.38l7.88-3.92v0l-7.88-3.92v-1.38l9.28,4.76v1.12Z" transform="translate(1.5 0.13)"/><path d="M92.41,125.58a6.17,6.17,0,0,0,3.12.88c1.78,0,2.82-.94,2.82-2.3s-0.72-2-2.54-2.68c-2.2-.78-3.56-1.92-3.56-3.82,0-2.1,1.74-3.66,4.36-3.66a6.13,6.13,0,0,1,3,.66l-0.48,1.42a5.37,5.37,0,0,0-2.56-.64c-1.84,0-2.54,1.1-2.54,2,0,1.26.82,1.88,2.68,2.6,2.28,0.88,3.44,2,3.44,4s-1.54,3.88-4.72,3.88A7,7,0,0,1,92,127Z" transform="translate(1.5 0.13)"/><path d="M102.45,121.18c0-1.24,0-2.24-.08-3.16h1.58l0.08,1.66h0a3.81,3.81,0,0,1,3.44-1.88c2.34,0,4.1,2,4.1,4.92,0,3.48-2.12,5.2-4.4,5.2a3.4,3.4,0,0,1-3-1.52h0v5.26h-1.74V121.18Zm1.74,2.58a4,4,0,0,0,.08.72,2.72,2.72,0,0,0,2.64,2.06c1.86,0,2.94-1.52,2.94-3.74,0-1.94-1-3.6-2.88-3.6a2.81,2.81,0,0,0-2.66,2.18,2.88,2.88,0,0,0-.12.72v1.66Z" transform="translate(1.5 0.13)"/><path d="M122.59,122.78c0,3.58-2.48,5.14-4.82,5.14-2.62,0-4.64-1.92-4.64-5,0-3.24,2.12-5.14,4.8-5.14S122.59,119.82,122.59,122.78Zm-7.68.1c0,2.12,1.22,3.72,2.94,3.72s2.94-1.58,2.94-3.76c0-1.64-.82-3.72-2.9-3.72S114.91,121,114.91,122.88Z" transform="translate(1.5 0.13)"/><path d="M124.81,121c0-1.14,0-2.12-.08-3h1.54l0.06,1.9h0.08a2.91,2.91,0,0,1,2.68-2.12,1.9,1.9,0,0,1,.5.06v1.66a2.64,2.64,0,0,0-.6-0.06,2.47,2.47,0,0,0-2.36,2.26,5,5,0,0,0-.08.82v5.16h-1.74V121Z" transform="translate(1.5 0.13)"/><path d="M133.95,115.24V118h2.52v1.34h-2.52v5.22c0,1.2.34,1.88,1.32,1.88a3.91,3.91,0,0,0,1-.12l0.08,1.32a4.3,4.3,0,0,1-1.56.24,2.44,2.44,0,0,1-1.9-.74,3.58,3.58,0,0,1-.68-2.52v-5.28h-1.5V118h1.5V115.7Z" transform="translate(1.5 0.13)"/><path d="M138.21,125.9a4.61,4.61,0,0,0,2.32.7c1.28,0,1.88-.64,1.88-1.44s-0.5-1.3-1.8-1.78c-1.74-.62-2.56-1.58-2.56-2.74,0-1.56,1.26-2.84,3.34-2.84a4.83,4.83,0,0,1,2.38.6l-0.44,1.28a3.77,3.77,0,0,0-2-.56,1.41,1.41,0,0,0-1.62,1.32c0,0.8.58,1.16,1.84,1.64,1.68,0.64,2.54,1.48,2.54,2.92,0,1.7-1.32,2.9-3.62,2.9a5.52,5.52,0,0,1-2.72-.66Z" transform="translate(1.5 0.13)"/><path d="M82.22,188.58l-2.1,6.36h-2.7l6.87-20.22h3.15l6.9,20.22H91.55l-2.16-6.36H82.22Zm6.63-2-2-5.82c-0.45-1.32-.75-2.52-1-3.69H85.76c-0.3,1.2-.63,2.43-1,3.66l-2,5.85h6.09Z" transform="translate(1.5 0.13)"/><path d="M97.31,174.72h2.61v18h8.64v2.19H97.31V174.72Z" transform="translate(1.5 0.13)"/><path d="M111.47,174.72h2.61v18h8.64v2.19H111.47V174.72Z" transform="translate(1.5 0.13)"/><path d="M53.25,230.25a9.25,9.25,0,0,0,4.68,1.32c2.67,0,4.23-1.41,4.23-3.45s-1.08-3-3.81-4c-3.3-1.17-5.34-2.88-5.34-5.73,0-3.15,2.61-5.49,6.54-5.49a9.18,9.18,0,0,1,4.47,1L63.3,216a8.05,8.05,0,0,0-3.84-1c-2.76,0-3.81,1.65-3.81,3,0,1.89,1.23,2.82,4,3.9,3.42,1.32,5.16,3,5.16,5.94s-2.31,5.82-7.08,5.82a10.45,10.45,0,0,1-5.16-1.29Z" transform="translate(1.5 0.13)"/><path d="M68.4,213.45a30.24,30.24,0,0,1,5-.39c2.58,0,4.47.6,5.67,1.68A5.44,5.44,0,0,1,80.85,219a6,6,0,0,1-1.56,4.32,8.38,8.38,0,0,1-6.18,2.22,9,9,0,0,1-2.1-.18v8.1H68.4v-20ZM71,223.2a8.76,8.76,0,0,0,2.16.21c3.15,0,5.07-1.53,5.07-4.32s-1.89-4-4.77-4a11,11,0,0,0-2.46.21v7.86Z" transform="translate(1.5 0.13)"/><path d="M101.64,223.11c0,7-4.23,10.65-9.39,10.65-5.34,0-9.09-4.14-9.09-10.26,0-6.42,4-10.62,9.39-10.62S101.64,217.11,101.64,223.11ZM86,223.44c0,4.32,2.34,8.19,6.45,8.19s6.48-3.81,6.48-8.4c0-4-2.1-8.22-6.45-8.22S86,219,86,223.44Z" transform="translate(1.5 0.13)"/><path d="M105,213.48a27.18,27.18,0,0,1,5-.42c2.79,0,4.59.51,5.85,1.65a5,5,0,0,1,1.59,3.84,5.31,5.31,0,0,1-3.81,5.16v0.09c1.56,0.54,2.49,2,3,4.08a32.21,32.21,0,0,0,1.56,5.55h-2.7a26.31,26.31,0,0,1-1.35-4.83c-0.6-2.79-1.68-3.84-4-3.93h-2.46v8.76H105V213.48Zm2.61,9.21h2.67c2.79,0,4.56-1.53,4.56-3.84,0-2.61-1.89-3.75-4.65-3.78a10.73,10.73,0,0,0-2.58.24v7.38Z" transform="translate(1.5 0.13)"/><path d="M125.28,215.43h-6.15v-2.22h15v2.22h-6.18v18h-2.64v-18Z" transform="translate(1.5 0.13)"/><path d="M135.81,230.25a9.25,9.25,0,0,0,4.68,1.32c2.67,0,4.23-1.41,4.23-3.45s-1.08-3-3.81-4c-3.3-1.17-5.34-2.88-5.34-5.73,0-3.15,2.61-5.49,6.54-5.49a9.18,9.18,0,0,1,4.47,1L145.86,216a8.05,8.05,0,0,0-3.84-1c-2.76,0-3.81,1.65-3.81,3,0,1.89,1.23,2.82,4,3.9,3.42,1.32,5.16,3,5.16,5.94s-2.31,5.82-7.08,5.82a10.45,10.45,0,0,1-5.16-1.29Z" transform="translate(1.5 0.13)"/><path d="M77.88,261c-0.15-2.82-.33-6.21-0.3-8.73H77.49c-0.69,2.37-1.53,4.89-2.55,7.68l-3.57,9.81h-2l-3.27-9.63c-1-2.85-1.77-5.46-2.34-7.86H63.72c-0.06,2.52-.21,5.91-0.39,8.94l-0.54,8.67H60.3l1.41-20.22H65l3.45,9.78c0.84,2.49,1.53,4.71,2,6.81h0.09c0.51-2,1.23-4.26,2.13-6.81l3.6-9.78h3.33l1.26,20.22H78.39Z" transform="translate(1.5 0.13)"/><path d="M87.57,249.64v12c0,4.53,2,6.45,4.71,6.45,3,0,4.92-2,4.92-6.45v-12h2.64v11.79c0,6.21-3.27,8.76-7.65,8.76-4.14,0-7.26-2.37-7.26-8.64V249.64h2.64Z" transform="translate(1.5 0.13)"/><path d="M104,266.68a9.25,9.25,0,0,0,4.68,1.32c2.67,0,4.23-1.41,4.23-3.45s-1.08-3-3.81-4c-3.3-1.17-5.34-2.88-5.34-5.73,0-3.15,2.61-5.49,6.54-5.49a9.18,9.18,0,0,1,4.47,1l-0.72,2.13a8.05,8.05,0,0,0-3.84-1c-2.76,0-3.81,1.65-3.81,3,0,1.89,1.23,2.82,4,3.9,3.42,1.32,5.16,3,5.16,5.94s-2.31,5.82-7.08,5.82a10.45,10.45,0,0,1-5.16-1.29Z" transform="translate(1.5 0.13)"/><path d="M121.77,249.64v20.22h-2.61V249.64h2.61Z" transform="translate(1.5 0.13)"/><path d="M140.46,269.2a13,13,0,0,1-5.34,1c-5.7,0-10-3.6-10-10.23,0-6.33,4.29-10.62,10.56-10.62a10.84,10.84,0,0,1,4.8.9l-0.63,2.13a9.52,9.52,0,0,0-4.08-.84c-4.74,0-7.89,3-7.89,8.34,0,4.95,2.85,8.13,7.77,8.13a10.44,10.44,0,0,0,4.26-.84Z" transform="translate(1.5 0.13)"/><path d="M53.25,306.28l-5.13-20.22h2.76l2.4,10.23c0.6,2.52,1.14,5,1.5,7h0.06c0.33-2,1-4.41,1.65-7l2.7-10.2h2.73l2.46,10.26c0.57,2.4,1.11,4.8,1.41,6.93h0.06c0.42-2.22,1-4.47,1.62-7l2.67-10.2h2.67l-5.73,20.22H64.35L61.8,295.75a60.55,60.55,0,0,1-1.32-6.6H60.42a63,63,0,0,1-1.56,6.6L56,306.28H53.25Z" transform="translate(1.5 0.13)"/><path d="M92.61,296c0,7-4.23,10.65-9.39,10.65-5.34,0-9.09-4.14-9.09-10.26,0-6.42,4-10.62,9.39-10.62S92.61,290,92.61,296Zm-15.69.33c0,4.32,2.34,8.19,6.45,8.19s6.48-3.81,6.48-8.4c0-4-2.1-8.22-6.45-8.22S76.92,291.85,76.92,296.29Z" transform="translate(1.5 0.13)"/><path d="M113,297.4c-0.15-2.82-.33-6.21-0.3-8.73h-0.09c-0.69,2.37-1.53,4.89-2.55,7.68l-3.57,9.81h-2l-3.27-9.63c-1-2.85-1.77-5.46-2.34-7.86H98.88c-0.06,2.52-.21,5.91-0.39,8.94L98,306.28H95.46l1.41-20.22h3.33l3.45,9.78c0.84,2.49,1.53,4.71,2,6.81h0.09c0.51-2,1.23-4.26,2.13-6.81l3.6-9.78h3.33l1.26,20.22h-2.55Z" transform="translate(1.5 0.13)"/><path d="M130.59,296.8h-7.86v7.29h8.76v2.19H120.12V286.06H131v2.19h-8.31v6.39h7.86v2.16Z" transform="translate(1.5 0.13)"/><path d="M134.88,306.28V286.06h2.85l6.48,10.23a57.25,57.25,0,0,1,3.63,6.57l0.06,0c-0.24-2.7-.3-5.16-0.3-8.31v-8.46h2.46v20.22h-2.64L141,296a64,64,0,0,1-3.78-6.75l-0.09,0c0.15,2.55.21,5,.21,8.34v8.64h-2.46Z" transform="translate(1.5 0.13)"/><path d="M76.92,332.39c0,7-4.23,10.65-9.39,10.65-5.34,0-9.09-4.14-9.09-10.26,0-6.42,4-10.62,9.39-10.62S76.92,326.39,76.92,332.39Zm-15.69.33c0,4.32,2.34,8.19,6.45,8.19s6.48-3.81,6.48-8.4c0-4-2.1-8.22-6.45-8.22S61.23,328.28,61.23,332.72Z" transform="translate(1.5 0.13)"/><path d="M83.4,324.71H77.25v-2.22h15v2.22H86v18H83.4v-18Z" transform="translate(1.5 0.13)"/><path d="M97.08,322.49v8.46h9.78v-8.46h2.64v20.22h-2.64v-9.48H97.08v9.48H94.47V322.49h2.61Z" transform="translate(1.5 0.13)"/><path d="M124.5,333.23h-7.86v7.29h8.76v2.19H114V322.49H125v2.19h-8.31v6.39h7.86v2.16Z" transform="translate(1.5 0.13)"/><path d="M128.79,322.76a27.18,27.18,0,0,1,5-.42c2.79,0,4.59.51,5.85,1.65a5,5,0,0,1,1.59,3.84,5.31,5.31,0,0,1-3.81,5.16v0.09c1.56,0.54,2.49,2,3,4.08a32.21,32.21,0,0,0,1.56,5.55h-2.7a26.31,26.31,0,0,1-1.35-4.83c-0.6-2.79-1.68-3.84-4-3.93H131.4v8.76h-2.61V322.76ZM131.4,332h2.67c2.79,0,4.56-1.53,4.56-3.84,0-2.61-1.89-3.75-4.65-3.78a10.73,10.73,0,0,0-2.58.24V332Z" transform="translate(1.5 0.13)"/><polygon points="21.74 231.46 21.71 217.29 32.17 224.35 21.74 231.46"/><rect class="cls-7" x="291.5" y="198.5" width="340" height="340"/><line class="cls-7" x1="291.51" y1="538.38" x2="631.51" y2="198.38"/><line class="cls-7" x1="291.51" y1="198.38" x2="631.51" y2="538.38"/><rect class="cls-7" x="561.5" y="1122.5" width="520" height="340"/><line class="cls-7" x1="561.51" y1="1462.38" x2="1081.51" y2="1122.38"/><line class="cls-7" x1="561.51" y1="1122.38" x2="1081.51" y2="1462.38"/><rect class="cls-7" x="111.5" y="597.5" width="610" height="340"/><line class="cls-7" x1="111.51" y1="937.38" x2="721.51" y2="597.38"/><line class="cls-7" x1="111.51" y1="597.38" x2="721.51" y2="937.38"/><rect class="cls-7" x="831.5" y="593.5" width="340" height="466"/><line class="cls-7" x1="831.51" y1="1058.63" x2="1171.51" y2="593.38"/><line class="cls-7" x1="831.51" y1="593.38" x2="1171.51" y2="1058.63"/><rect class="cls-7" x="111.5" y="999.5" width="340" height="466"/><line class="cls-7" x1="111.51" y1="1464.63" x2="451.51" y2="999.38"/><line class="cls-7" x1="111.51" y1="999.38" x2="451.51" y2="1464.63"/><rect class="cls-7" x="741.5" y="198.5" width="430" height="340"/><line class="cls-7" x1="741.51" y1="538.38" x2="1171.51" y2="198.38"/><line class="cls-7" x1="741.51" y1="198.38" x2="1171.51" y2="538.38"/><rect y="1531" width="1280" height="237"/><ellipse class="cls-8" cx="797.51" cy="1606.13" rx="32.5" ry="32"/><path class="cls-5" d="M808.63,1589.37l-0.62,3.45H794.79l-1.87,10.63h13.23l-0.62,3.45H792.31l-1.87,10.63h13.23l-0.62,3.45H785.85l5.58-31.62h17.2Z" transform="translate(1.5 0.13)"/><ellipse class="cls-8" cx="692.51" cy="1606.13" rx="32.5" ry="32"/><path class="cls-5" d="M686.62,1589.37L681,1621h-4l5.58-31.62h4Z" transform="translate(1.5 0.13)"/><path class="cls-5" d="M692.51,1606l-2.64,15h-4l3.54-20.08h4q1.21-1.1,4.37-1.1a7,7,0,0,1,5.72,2.33,6.8,6.8,0,0,1,1.37,5.69L702.55,1621h-4l2.29-13a3.89,3.89,0,0,0-.78-3.39,3.69,3.69,0,0,0-2.93-1.35,5.16,5.16,0,0,0-3.32,1.28A6.68,6.68,0,0,0,692.51,1606Z" transform="translate(1.5 0.13)"/><ellipse class="cls-8" cx="587.51" cy="1606.13" rx="32.5" ry="32"/><path class="cls-5" d="M578,1592.82L573,1621h-4l5-28.17H566.5l0.62-3.45h19l-0.62,3.45H578Z" transform="translate(1.5 0.13)"/><path class="cls-5" d="M609.87,1600.91L599.5,1621h-2.79l-1.74-9.51-5.05,9.51h-2.83l-3.25-20.08h4.29l1.82,12.48,5-9.36h2.68l1.71,9.36,6.2-12.48h4.31Z" transform="translate(1.5 0.13)"/><ellipse class="cls-8" cx="482.51" cy="1606.13" rx="32.5" ry="32"/><path class="cls-5" d="M480.59,1589.37l-0.62,3.45H468.62l-1.87,10.63h11.36l-0.62,3.45H466.13L463.65,1621h-4l5.58-31.62h15.34Z" transform="translate(1.5 0.13)"/><path class="cls-5" d="M499.33,1603a8.75,8.75,0,0,1,1.76,7.43,12.49,12.49,0,0,1-4.5,7.49,13.28,13.28,0,0,1-7.05,3.12H478.61l5.58-31.62h10a5.88,5.88,0,0,1,4.81,2.09,5.82,5.82,0,0,1,1.23,4.9,8.1,8.1,0,0,1-2.9,4.86A5.08,5.08,0,0,1,499.33,1603ZM489,1617.54a7.85,7.85,0,0,0,5.16-2.05,8.4,8.4,0,0,0,2.94-5.11,6,6,0,0,0-1.14-5.12,5.46,5.46,0,0,0-4.44-2.06h-5.76l-2.53,14.35H489Zm-1.41-24.74-1.21,6.94h6.37a3.66,3.66,0,0,0,2.13-.86,4.11,4.11,0,0,0,1.43-2.53,3,3,0,0,0-.57-2.55,2.62,2.62,0,0,0-2.11-1h-6Z" transform="translate(1.5 0.13)"/><rect class="cls-6" x="932" y="1663" width="195" height="50"/><path class="cls-5" d="M1007.22,1685.74l1.23,1.09a7.6,7.6,0,0,1-5.22,2.16,7,7,0,0,1-5.18-2.11,7.13,7.13,0,0,1,0-10.13,7,7,0,0,1,5.18-2.13,7.59,7.59,0,0,1,5.22,2.17l-1.23,1.09a6,6,0,0,0-4-1.71,5.3,5.3,0,0,0-3.88,1.64,5.72,5.72,0,0,0,0,8,5.31,5.31,0,0,0,3.88,1.63A6,6,0,0,0,1007.22,1685.74Z" transform="translate(1.5 0.13)"/><path class="cls-5" d="M1014.83,1679.18a4.87,4.87,0,0,1,3.59,1.46,4.89,4.89,0,0,1,0,7,5.12,5.12,0,0,1-7.18,0,4.85,4.85,0,0,1,0-7A4.89,4.89,0,0,1,1014.83,1679.18Zm-2.29,2.54a3.29,3.29,0,0,0-1,2.41,3.25,3.25,0,0,0,1,2.39,3.18,3.18,0,0,0,4.57,0,3.24,3.24,0,0,0,1-2.39,3.29,3.29,0,0,0-1-2.41A3.16,3.16,0,0,0,1012.54,1681.72Z" transform="translate(1.5 0.13)"/><path class="cls-5" d="M1023.32,1682.18v6.66h-1.77v-8.93h1.77a2.56,2.56,0,0,1,1.86-.49,3.68,3.68,0,0,1,2.72,1A3.52,3.52,0,0,1,1029,1683v5.85h-1.76v-5.77a2,2,0,0,0-.62-1.51,2,2,0,0,0-1.41-.6,1.94,1.94,0,0,0-1.38.57A2.2,2.2,0,0,0,1023.32,1682.18Z" transform="translate(1.5 0.13)"/><path class="cls-5" d="M1031.89,1679.91v-3.47h1.76v3.47h1.66v1.52h-1.66v7.4h-1.76v-7.4h-1.66v-1.52h1.66Z" transform="translate(1.5 0.13)"/><path class="cls-5" d="M1046.35,1688.84h-1.77v-1.56a3.44,3.44,0,0,1-3.18,1.8,4.88,4.88,0,0,1-3.59-1.47,4.85,4.85,0,0,1,0-7,4.89,4.89,0,0,1,3.59-1.46,3.45,3.45,0,0,1,3.18,1.78v-1h1.77v8.93Zm-1.77-4v-1.43a3.33,3.33,0,0,0-3.18-2.67,3.11,3.11,0,0,0-2.29,1,3.29,3.29,0,0,0-1,2.41,3.25,3.25,0,0,0,1,2.39A3.25,3.25,0,0,0,1044.59,1684.83Z" transform="translate(1.5 0.13)"/><path class="cls-5" d="M1055.52,1686l1.68,0.62a10.4,10.4,0,0,1-.79,1,5.13,5.13,0,0,1-7.21,0,4.85,4.85,0,0,1,0-7,5.15,5.15,0,0,1,7.17,0,9.43,9.43,0,0,1,.83,1l-1.68.63c-0.23-.29-0.39-0.49-0.48-0.58a3.17,3.17,0,0,0-4.53,0,3.47,3.47,0,0,0,0,4.8,3.11,3.11,0,0,0,2.28,1,3.15,3.15,0,0,0,2.29-1Q1055.17,1686.42,1055.52,1686Z" transform="translate(1.5 0.13)"/><path class="cls-5" d="M1059.68,1679.91v-3.47h1.76v3.47h1.66v1.52h-1.66v7.4h-1.76v-7.4H1058v-1.52h1.66Z" transform="translate(1.5 0.13)"/><rect class="cls-6" x="737" y="1663" width="195" height="50"/><path class="cls-5" d="M818.27,1681.44a6,6,0,0,1-2.43-1.42,3,3,0,0,1-.92-2.22,3.08,3.08,0,0,1,1-2.23,3.2,3.2,0,0,1,2.37-1,3.28,3.28,0,0,1,2.39,1,3.41,3.41,0,0,1,.81,1.43l-1.58.62a3.14,3.14,0,0,0-.53-1,1.47,1.47,0,0,0-2.17,0,1.63,1.63,0,0,0-.47,1.21,1.71,1.71,0,0,0,.49,1.23,5.1,5.1,0,0,0,1.39.9,7,7,0,0,1,2.81,1.68,4.23,4.23,0,0,1,0,6.09,4.49,4.49,0,0,1-6.32,0,4.46,4.46,0,0,1-1.25-2.61l1.7-.62a3.56,3.56,0,0,0,.87,2.24,2.53,2.53,0,0,0,1.86.78,2.59,2.59,0,0,0,1.89-.81,2.88,2.88,0,0,0,0-4A5.86,5.86,0,0,0,818.27,1681.44Z" transform="translate(1.5 0.13)"/><path class="cls-5" d="M824.13,1674.78h1.77v5.13a2.56,2.56,0,0,1,1.86-.49,3.68,3.68,0,0,1,2.72,1,3.52,3.52,0,0,1,1.05,2.53v5.85h-1.76v-5.77a2,2,0,0,0-.62-1.51,2,2,0,0,0-1.41-.6,1.94,1.94,0,0,0-1.38.57,2.2,2.2,0,0,0-.48.65v6.66h-1.77v-14.05Z" transform="translate(1.5 0.13)"/><path class="cls-5" d="M838.11,1679.18a4.87,4.87,0,0,1,3.59,1.46,4.89,4.89,0,0,1,0,7,5.12,5.12,0,0,1-7.18,0,4.85,4.85,0,0,1,0-7A4.89,4.89,0,0,1,838.11,1679.18Zm-2.29,2.54a3.29,3.29,0,0,0-1,2.41,3.25,3.25,0,0,0,1,2.39,3.18,3.18,0,0,0,4.57,0,3.24,3.24,0,0,0,1-2.39,3.29,3.29,0,0,0-1-2.41A3.16,3.16,0,0,0,835.83,1681.72Z" transform="translate(1.5 0.13)"/><path class="cls-5" d="M844.76,1679.91h1.77v1a3.45,3.45,0,0,1,3.17-1.75,4.89,4.89,0,0,1,3.59,1.46,4.86,4.86,0,0,1,0,7,4.88,4.88,0,0,1-3.59,1.47,3.44,3.44,0,0,1-3.17-1.77v4.64h-1.77v-12Zm1.77,3.47v1.5a3.21,3.21,0,0,0,5.45,1.65,3.46,3.46,0,0,0,0-4.81,3.11,3.11,0,0,0-2.28-1,3.16,3.16,0,0,0-2.3,1A3.06,3.06,0,0,0,846.53,1683.38Z" transform="translate(1.5 0.13)"/><rect class="cls-6" x="542" y="1663" width="195" height="50"/><path class="cls-5" d="M621,1674.78l5.09,14.05h-1.84L622.1,1683h-3.82l-2.16,5.84h-1.85l5.16-14.05H621Zm0.58,6.69-1.35-3.73-1.36,3.73h2.71Z" transform="translate(1.5 0.13)"/><path class="cls-5" d="M627.06,1674.78h1.77v6.15a3.45,3.45,0,0,1,3.17-1.76,4.89,4.89,0,0,1,3.59,1.46,4.86,4.86,0,0,1,0,7,4.88,4.88,0,0,1-3.59,1.47,3.44,3.44,0,0,1-3.17-1.77v1.53h-1.77v-14.05Zm1.77,8.59v1.5a3.21,3.21,0,0,0,5.45,1.64,3.24,3.24,0,0,0,1-2.39,3.28,3.28,0,0,0-1-2.41,3.11,3.11,0,0,0-2.28-1,3.16,3.16,0,0,0-2.3,1A3.06,3.06,0,0,0,628.82,1683.38Z" transform="translate(1.5 0.13)"/><path class="cls-5" d="M643.54,1679.18a4.87,4.87,0,0,1,3.59,1.46,4.89,4.89,0,0,1,0,7,5.12,5.12,0,0,1-7.18,0,4.85,4.85,0,0,1,0-7A4.89,4.89,0,0,1,643.54,1679.18Zm-2.29,2.54a3.29,3.29,0,0,0-1,2.41,3.25,3.25,0,0,0,1,2.39,3.18,3.18,0,0,0,4.57,0,3.24,3.24,0,0,0,1-2.39,3.28,3.28,0,0,0-1-2.41A3.16,3.16,0,0,0,641.25,1681.72Z" transform="translate(1.5 0.13)"/><path class="cls-5" d="M654,1689a3.78,3.78,0,0,1-2.81-1,3.57,3.57,0,0,1-1.06-2.54v-5.48h1.77v5.41a2.06,2.06,0,0,0,.63,1.52,2,2,0,0,0,1.46.6,1.93,1.93,0,0,0,1.4-.61,2,2,0,0,0,.62-1.51v-5.41h1.77v5.48a3.6,3.6,0,0,1-1.07,2.56A3.64,3.64,0,0,1,654,1689Z" transform="translate(1.5 0.13)"/><path class="cls-5" d="M660.6,1679.91v-3.47h1.76v3.47H664v1.52h-1.66v7.4H660.6v-7.4h-1.66v-1.52h1.66Z" transform="translate(1.5 0.13)"/><rect class="cls-6" x="347" y="1663" width="195" height="50"/><path class="cls-5" d="M427.52,1686.92a7.26,7.26,0,0,1-10.2,0,7.13,7.13,0,0,1,0-10.13,7,7,0,0,1,5.18-2.13,7.58,7.58,0,0,1,5.22,2.17l-1.23,1.09a6,6,0,0,0-4-1.71,5.3,5.3,0,0,0-3.88,1.64,5.72,5.72,0,0,0,0,8,5.31,5.31,0,0,0,3.88,1.63,5,5,0,0,0,3.26-1.07v-4.28h1.76v4.82Z" transform="translate(1.5 0.13)"/><path class="cls-5" d="M439.19,1688.84h-1.77v-1.56a3.44,3.44,0,0,1-3.18,1.8,4.88,4.88,0,0,1-3.59-1.47,4.85,4.85,0,0,1,0-7,4.89,4.89,0,0,1,3.59-1.46,3.45,3.45,0,0,1,3.18,1.78v-1h1.77v8.93Zm-1.77-4v-1.43a3.33,3.33,0,0,0-3.18-2.67,3.11,3.11,0,0,0-2.29,1,3.29,3.29,0,0,0-1,2.41,3.25,3.25,0,0,0,1,2.39A3.25,3.25,0,0,0,437.42,1684.83Z" transform="translate(1.5 0.13)"/><path class="cls-5" d="M442.9,1674.78v14.05h-1.77v-14.05h1.77Z" transform="translate(1.5 0.13)"/><path class="cls-5" d="M446.82,1674.78v14.05H445v-14.05h1.77Z" transform="translate(1.5 0.13)"/><path class="cls-5" d="M450.21,1684.1v0a3.25,3.25,0,0,0,1,2.39,3.17,3.17,0,0,0,4.58,0q0.14-.14.53-0.62l1.66,0.59a5.38,5.38,0,0,1-.86,1.1,5.13,5.13,0,0,1-7.21,0,4.85,4.85,0,0,1,0-7,5.15,5.15,0,0,1,7.21,0,4.66,4.66,0,0,1,1.28,3.44h-8.15Zm0.31-1.54h5.85a2.73,2.73,0,0,0-2.91-1.82A2.77,2.77,0,0,0,450.52,1682.56Z" transform="translate(1.5 0.13)"/><path class="cls-5" d="M463.77,1681.24a3,3,0,0,0-1.87,1,2.89,2.89,0,0,0-.66,1.95v4.69h-1.77v-8.93h1.77v1.27a2.44,2.44,0,0,1,1.68-1.46Z" transform="translate(1.5 0.13)"/><path class="cls-5" d="M468.39,1691.93h-1.9l2.32-5-3.27-7h1.9l2.32,4.93,2.32-4.93H474Z" transform="translate(1.5 0.13)"/><rect class="cls-6" x="152" y="1663" width="195" height="50"/><path class="cls-5" d="M196.13,1684.24v4.6h-1.77v-14.05h4a4.94,4.94,0,0,1,2.94,1.43,4.49,4.49,0,0,1,1.38,3.29,4.57,4.57,0,0,1-1.4,3.33,4.66,4.66,0,0,1-3.44,1.41h-1.74Zm0-7.91v6.37h1.74a3,3,0,0,0,2.15-.91,3.27,3.27,0,0,0,0-4.55,3,3,0,0,0-2.15-.91h-1.74Z" transform="translate(1.5 0.13)"/><path class="cls-5" d="M208.05,1681.24a3,3,0,0,0-1.87,1,2.89,2.89,0,0,0-.66,1.95v4.69h-1.77v-8.93h1.77v1.27a2.44,2.44,0,0,1,1.68-1.46Z" transform="translate(1.5 0.13)"/><path class="cls-5" d="M211.48,1677.37a1.06,1.06,0,0,1,.36.78,1.08,1.08,0,0,1-.36.8,1.34,1.34,0,0,1-1.8,0,1.09,1.09,0,0,1-.35-0.8,1.07,1.07,0,0,1,.35-0.78A1.34,1.34,0,0,1,211.48,1677.37Zm0,2.54v8.93H209.7v-8.93h1.76Z" transform="translate(1.5 0.13)"/><path class="cls-5" d="M221.66,1679.91l-4,8.93h-1.11l-3.95-8.93h1.94l2.56,5.95,2.6-5.95h1.94Z" transform="translate(1.5 0.13)"/><path class="cls-5" d="M232.39,1688.84h-1.77v-1.56a3.44,3.44,0,0,1-3.18,1.8,4.88,4.88,0,0,1-3.59-1.47,4.85,4.85,0,0,1,0-7,4.89,4.89,0,0,1,3.59-1.46,3.45,3.45,0,0,1,3.18,1.78v-1h1.77v8.93Zm-1.77-4v-1.43a3.33,3.33,0,0,0-3.18-2.67,3.11,3.11,0,0,0-2.29,1,3.29,3.29,0,0,0-1,2.41,3.25,3.25,0,0,0,1,2.39A3.25,3.25,0,0,0,230.62,1684.83Z" transform="translate(1.5 0.13)"/><path class="cls-5" d="M241.56,1686l1.68,0.62a10.4,10.4,0,0,1-.79,1,5.13,5.13,0,0,1-7.21,0,4.85,4.85,0,0,1,0-7,5.15,5.15,0,0,1,7.17,0,9.37,9.37,0,0,1,.83,1l-1.68.63q-0.35-.44-0.48-0.58a3.17,3.17,0,0,0-4.53,0,3.47,3.47,0,0,0,0,4.8,3.11,3.11,0,0,0,2.28,1,3.15,3.15,0,0,0,2.29-1Q241.21,1686.42,241.56,1686Z" transform="translate(1.5 0.13)"/><path class="cls-5" d="M246.74,1691.93h-1.9l2.32-5-3.27-7h1.9l2.32,4.93,2.32-4.93h1.9Z" transform="translate(1.5 0.13)"/><path class="cls-5" d="M260.32,1684.24v4.6h-1.77v-14.05h4a4.94,4.94,0,0,1,2.94,1.43,4.49,4.49,0,0,1,1.38,3.29,4.57,4.57,0,0,1-1.4,3.33,4.66,4.66,0,0,1-3.44,1.41h-1.74Zm0-7.91v6.37h1.74a3,3,0,0,0,2.15-.91,3.27,3.27,0,0,0,0-4.55,3,3,0,0,0-2.15-.91h-1.74Z" transform="translate(1.5 0.13)"/><path class="cls-5" d="M272.4,1679.18a4.87,4.87,0,0,1,3.59,1.46,4.89,4.89,0,0,1,0,7,5.12,5.12,0,0,1-7.18,0,4.85,4.85,0,0,1,0-7A4.89,4.89,0,0,1,272.4,1679.18Zm-2.29,2.54a3.29,3.29,0,0,0-1,2.41,3.25,3.25,0,0,0,1,2.39,3.18,3.18,0,0,0,4.57,0,3.24,3.24,0,0,0,1-2.39,3.29,3.29,0,0,0-1-2.41A3.16,3.16,0,0,0,270.11,1681.72Z" transform="translate(1.5 0.13)"/><path class="cls-5" d="M281,1674.78v14.05h-1.77v-14.05H281Z" transform="translate(1.5 0.13)"/><path class="cls-5" d="M285,1677.37a1.06,1.06,0,0,1,.36.78,1.08,1.08,0,0,1-.36.8,1.34,1.34,0,0,1-1.8,0,1.09,1.09,0,0,1-.35-0.8,1.07,1.07,0,0,1,.35-0.78A1.34,1.34,0,0,1,285,1677.37Zm0,2.54v8.93h-1.76v-8.93H285Z" transform="translate(1.5 0.13)"/><path class="cls-5" d="M294.42,1686l1.68,0.62a10.4,10.4,0,0,1-.79,1,5.13,5.13,0,0,1-7.21,0,4.85,4.85,0,0,1,0-7,5.15,5.15,0,0,1,7.17,0,9.37,9.37,0,0,1,.83,1l-1.68.63q-0.35-.44-0.48-0.58a3.17,3.17,0,0,0-4.53,0,3.47,3.47,0,0,0,0,4.8,3.11,3.11,0,0,0,2.28,1,3.15,3.15,0,0,0,2.29-1Q294.07,1686.42,294.42,1686Z" transform="translate(1.5 0.13)"/><path class="cls-5" d="M299.6,1691.93h-1.9l2.32-5-3.27-7h1.9l2.32,4.93,2.32-4.93h1.9Z" transform="translate(1.5 0.13)"/></svg>