<svg id="Layer_1" data-name="Layer 1" xmlns="http://www.w3.org/2000/svg" viewBox="0 0 400 300"><defs><style>.cls-1{fill:#6781bd;}.cls-2{fill:#4163ad;}.cls-3{fill:#414042;}.cls-4{fill:#f0ba1a;}.cls-5{fill:#fff;}</style></defs><title>Untitled-2</title><rect class="cls-1" y="200" width="100" height="100"/><rect class="cls-2" width="100" height="200"/><rect class="cls-3" x="200" width="100" height="300"/><rect class="cls-4" x="100" width="100" height="300"/><path class="cls-5" d="M223.23,286h-2l-0.62,3.2h-1.18l0.63-3.2h-1.84V284.9h2.06l0.53-2.73h-2v-1.09H221l0.64-3.25h1.18l-0.64,3.25h2l0.64-3.25H226l-0.64,3.25h1.55v1.09h-1.77l-0.53,2.73h1.71V286h-1.93l-0.62,3.2H222.6Zm-1.77-1.09h2l0.53-2.73h-2Z"/><path class="cls-5" d="M234.71,285.36h1.57v1.21h-1.57v2.62h-1.53v-2.62h-5.11v-0.87l5-7.89h1.63v7.55Zm-5,0h3.47V280h0l-0.15.39Z"/><path class="cls-5" d="M242,289.19h-1.54v-9.87l-2.33,0v-1.11l3.87-.42v11.38Z"/><path class="cls-5" d="M252.72,285.36h1.57v1.21h-1.57v2.62h-1.53v-2.62h-5.11v-0.87l5-7.89h1.63v7.55Zm-5,0h3.47V280h0l-0.15.39Z"/><path class="cls-5" d="M262.78,284.86a5.09,5.09,0,0,1-1,3.34,3.6,3.6,0,0,1-5.3,0,5.05,5.05,0,0,1-1-3.34v-2.7a5.09,5.09,0,0,1,1-3.34,3.59,3.59,0,0,1,5.3,0,5.09,5.09,0,0,1,1,3.34v2.7Zm-1.54-3a3.81,3.81,0,0,0-.54-2.22,2,2,0,0,0-3.1,0,3.82,3.82,0,0,0-.53,2.22v3.33a3.82,3.82,0,0,0,.54,2.23,1.79,1.79,0,0,0,1.55.75,1.77,1.77,0,0,0,1.54-.75,3.88,3.88,0,0,0,.53-2.23v-3.33Z"/><path class="cls-5" d="M270.74,285.36h1.57v1.21h-1.57v2.62h-1.53v-2.62H264.1v-0.87l5-7.89h1.63v7.55Zm-5,0h3.47V280h0l-0.15.39Z"/><path class="cls-5" d="M281,289.19H273.6v-1.06l3.73-4.13a10.46,10.46,0,0,0,1.36-1.77,2.79,2.79,0,0,0,.36-1.34,2.13,2.13,0,0,0-.5-1.43,1.65,1.65,0,0,0-1.32-.58,2.26,2.26,0,0,0-1.74.61,2.41,2.41,0,0,0-.56,1.7h-1.48l0,0a3.2,3.2,0,0,1,1-2.47,3.83,3.83,0,0,1,2.81-1,3.33,3.33,0,0,1,2.44.89,3.06,3.06,0,0,1,.91,2.28,3.64,3.64,0,0,1-.55,1.86,12,12,0,0,1-1.54,2l-3,3.25,0,0H281v1.21Z"/><rect class="cls-5" x="300" width="100" height="300"/><path d="M333.56,286h-2l-0.62,3.2h-1.18l0.63-3.2h-1.84V284.9h2.06l0.53-2.73h-2v-1.09h2.22l0.64-3.25h1.18l-0.64,3.25h2l0.64-3.25h1.18l-0.64,3.25h1.55v1.09H335.5L335,284.9h1.71V286h-1.93l-0.62,3.2h-1.19Zm-1.77-1.09h2l0.53-2.73h-2Z"/><path d="M339.73,289.19v-7.31h-1.32v-1.14h1.32v-1.07a2.9,2.9,0,0,1,.71-2.09,2.6,2.6,0,0,1,2-.74,3.44,3.44,0,0,1,.54,0l0.6,0.12-0.19,1.17-0.34-.05-0.42,0a1.21,1.21,0,0,0-1,.4,1.81,1.81,0,0,0-.33,1.17v1.07H343v1.14h-1.76v7.31h-1.54Z"/><path d="M345.25,289.19v-7.31h-1.32v-1.14h1.32v-1.07a2.9,2.9,0,0,1,.71-2.09,2.6,2.6,0,0,1,2-.74,3.44,3.44,0,0,1,.54,0l0.6,0.12-0.19,1.17-0.34-.05-0.42,0a1.21,1.21,0,0,0-1,.4,1.81,1.81,0,0,0-.33,1.17v1.07h1.76v1.14h-1.76v7.31h-1.54Z"/><path d="M350.77,289.19v-7.31h-1.32v-1.14h1.32v-1.07a2.9,2.9,0,0,1,.71-2.09,2.6,2.6,0,0,1,2-.74,3.44,3.44,0,0,1,.54,0l0.6,0.12-0.19,1.17-0.34-.05-0.42,0a1.21,1.21,0,0,0-1,.4,1.81,1.81,0,0,0-.33,1.17v1.07h1.76v1.14h-1.76v7.31h-1.54Z"/><path d="M356.3,289.19v-7.31H355v-1.14h1.32v-1.07a2.9,2.9,0,0,1,.71-2.09,2.6,2.6,0,0,1,2-.74,3.44,3.44,0,0,1,.54,0l0.6,0.12-0.19,1.17-0.34-.05-0.42,0a1.21,1.21,0,0,0-1,.4,1.81,1.81,0,0,0-.33,1.17v1.07h1.76v1.14h-1.76v7.31H356.3Z"/><path d="M361.82,289.19v-7.31H360.5v-1.14h1.32v-1.07a2.9,2.9,0,0,1,.71-2.09,2.6,2.6,0,0,1,2-.74,3.44,3.44,0,0,1,.54,0l0.6,0.12-0.19,1.17-0.34-.05-0.42,0a1.21,1.21,0,0,0-1,.4,1.81,1.81,0,0,0-.33,1.17v1.07h1.76v1.14h-1.76v7.31h-1.54Z"/><path d="M367.34,289.19v-7.31H366v-1.14h1.32v-1.07a2.9,2.9,0,0,1,.71-2.09,2.6,2.6,0,0,1,2-.74,3.44,3.44,0,0,1,.54,0l0.6,0.12L371,278.18l-0.34-.05-0.42,0a1.21,1.21,0,0,0-1,.4,1.81,1.81,0,0,0-.33,1.17v1.07h1.76v1.14h-1.76v7.31h-1.54Z"/><path class="cls-5" d="M123,286h-2l-0.62,3.2h-1.18l0.63-3.2H118V284.9H120l0.53-2.73h-2v-1.09h2.22l0.64-3.25h1.18L122,281.07h2l0.64-3.25h1.18l-0.64,3.25h1.55v1.09h-1.77l-0.53,2.73h1.71V286h-1.93l-0.62,3.2h-1.19Zm-1.77-1.09h2l0.53-2.73h-2Z"/><path class="cls-5" d="M129.14,289.19v-7.31h-1.32v-1.14h1.32v-1.07a2.9,2.9,0,0,1,.71-2.09,2.6,2.6,0,0,1,2-.74,3.44,3.44,0,0,1,.54,0L133,277l-0.19,1.17-0.34-.05-0.42,0a1.21,1.21,0,0,0-1,.4,1.81,1.81,0,0,0-.33,1.17v1.07h1.76v1.14h-1.76v7.31h-1.54Z"/><path class="cls-5" d="M141,284.86a5.09,5.09,0,0,1-1,3.34,3.6,3.6,0,0,1-5.3,0,5.05,5.05,0,0,1-1-3.34v-2.7a5.09,5.09,0,0,1,1-3.34,3.59,3.59,0,0,1,5.3,0,5.09,5.09,0,0,1,1,3.34v2.7Zm-1.54-3a3.81,3.81,0,0,0-.54-2.22,2,2,0,0,0-3.1,0,3.82,3.82,0,0,0-.53,2.22v3.33a3.82,3.82,0,0,0,.54,2.23,1.79,1.79,0,0,0,1.55.75,1.77,1.77,0,0,0,1.54-.75,3.88,3.88,0,0,0,.53-2.23v-3.33Z"/><path class="cls-5" d="M150.26,285.29a4.64,4.64,0,0,1-.88,2.95,2.9,2.9,0,0,1-2.42,1.12,3.09,3.09,0,0,1-1.45-.32,2.7,2.7,0,0,1-1-1l-0.19,1.12H143V277h1.54v4.73a2.67,2.67,0,0,1,1-.86,3,3,0,0,1,1.38-.3,2.81,2.81,0,0,1,2.44,1.25,5.62,5.62,0,0,1,.88,3.29v0.16Zm-1.54-.16a4.67,4.67,0,0,0-.54-2.37,1.76,1.76,0,0,0-1.63-.92,2,2,0,0,0-1.2.35,2.45,2.45,0,0,0-.78.93v3.66a2.52,2.52,0,0,0,.78,1,2,2,0,0,0,1.21.35,1.83,1.83,0,0,0,1.62-.77,3.55,3.55,0,0,0,.53-2v-0.16Z"/><path class="cls-5" d="M157.33,289.19c-0.05-.25-0.09-0.48-0.12-0.68a5,5,0,0,1-.05-0.59,3.58,3.58,0,0,1-1.12,1,2.87,2.87,0,0,1-1.49.41,2.77,2.77,0,0,1-2-.68,2.48,2.48,0,0,1-.69-1.86,2.18,2.18,0,0,1,1-1.89,4.58,4.58,0,0,1,2.66-.68h1.67V283.4a1.55,1.55,0,0,0-.45-1.18,1.78,1.78,0,0,0-1.28-.43,1.85,1.85,0,0,0-1.21.38,1.14,1.14,0,0,0-.46.91h-1.47l0,0a2,2,0,0,1,.87-1.69,3.58,3.58,0,0,1,2.37-.77,3.49,3.49,0,0,1,2.31.73,2.59,2.59,0,0,1,.88,2.11v4.07a7.93,7.93,0,0,0,0,.88,4.52,4.52,0,0,0,.17.83h-1.59Zm-2.55-1.13a2.74,2.74,0,0,0,1.51-.43,2,2,0,0,0,.88-1v-1.37h-1.73a2.24,2.24,0,0,0-1.49.47,1.4,1.4,0,0,0-.56,1.1,1.15,1.15,0,0,0,.35.89A1.48,1.48,0,0,0,154.78,288.06Z"/><path class="cls-5" d="M165.14,289.19H163.6v-9.87l-2.33,0v-1.11l3.87-.42v11.38Z"/><path class="cls-5" d="M175.14,289.19c-0.05-.25-0.09-0.48-0.12-0.68a5,5,0,0,1-.05-0.59,3.58,3.58,0,0,1-1.12,1,2.87,2.87,0,0,1-1.49.41,2.77,2.77,0,0,1-2-.68,2.48,2.48,0,0,1-.69-1.86,2.18,2.18,0,0,1,1-1.89,4.58,4.58,0,0,1,2.66-.68H175V283.4a1.55,1.55,0,0,0-.45-1.18,1.78,1.78,0,0,0-1.28-.43,1.85,1.85,0,0,0-1.21.38,1.14,1.14,0,0,0-.46.91h-1.47l0,0a2,2,0,0,1,.87-1.69,3.58,3.58,0,0,1,2.37-.77,3.49,3.49,0,0,1,2.31.73,2.59,2.59,0,0,1,.88,2.11v4.07a7.93,7.93,0,0,0,0,.88,4.52,4.52,0,0,0,.17.83h-1.59Zm-2.55-1.13a2.74,2.74,0,0,0,1.51-.43,2,2,0,0,0,.88-1v-1.37h-1.73a2.24,2.24,0,0,0-1.49.47,1.4,1.4,0,0,0-.56,1.1,1.15,1.15,0,0,0,.35.89A1.48,1.48,0,0,0,172.58,288.06Z"/><path class="cls-5" d="M22.73,286h-2l-0.62,3.2H18.93l0.63-3.2H17.71V284.9h2.06l0.53-2.73h-2v-1.09h2.22l0.64-3.25h1.18l-0.64,3.25h2l0.64-3.25h1.18l-0.64,3.25h1.55v1.09H24.67l-0.53,2.73h1.71V286H23.92l-0.62,3.2H22.1ZM21,284.9h2l0.53-2.73h-2Z"/><path class="cls-5" d="M32.41,277.65a5.11,5.11,0,0,1,1.16.13,3.81,3.81,0,0,1,.95.34l-0.33,1.18a4.58,4.58,0,0,0-.8-0.32,3.53,3.53,0,0,0-1-.12,2.35,2.35,0,0,0-2,1,4.08,4.08,0,0,0-.75,2.55v0.18a3.75,3.75,0,0,1,1.14-.68,3.85,3.85,0,0,1,1.39-.25,3,3,0,0,1,2.43,1.05,4,4,0,0,1,.91,2.67,4.24,4.24,0,0,1-1,2.88A3.24,3.24,0,0,1,32,289.36a3.57,3.57,0,0,1-2.77-1.21,4.91,4.91,0,0,1-1.09-3.41v-2.17A5.11,5.11,0,0,1,29.39,279,3.9,3.9,0,0,1,32.41,277.65Zm-0.52,5.13a2.64,2.64,0,0,0-1.34.32,2.16,2.16,0,0,0-.84.85v0.92a3.85,3.85,0,0,0,.66,2.42,2,2,0,0,0,1.66.85,1.67,1.67,0,0,0,1.47-.8,3.53,3.53,0,0,0,.53-2,2.91,2.91,0,0,0-.57-1.85A1.89,1.89,0,0,0,31.89,282.79Z"/><path class="cls-5" d="M44.44,279a16,16,0,0,0-2.79,4.35,19.44,19.44,0,0,0-1,4.59l-0.12,1.23H38.95L39.07,288a16.7,16.7,0,0,1,1.27-4.8A18.53,18.53,0,0,1,42.93,279H36.74v-1.21h7.7V279Z"/><path class="cls-5" d="M53,280.79a2.53,2.53,0,0,1-.5,1.56,3,3,0,0,1-1.35,1,3.41,3.41,0,0,1,1.57,1.08,2.63,2.63,0,0,1,.59,1.7,2.92,2.92,0,0,1-1,2.41,4.73,4.73,0,0,1-5.36,0,2.93,2.93,0,0,1-1-2.41,2.66,2.66,0,0,1,.58-1.7,3.34,3.34,0,0,1,1.56-1.08,2.89,2.89,0,0,1-1.34-1,2.58,2.58,0,0,1-.48-1.56,2.92,2.92,0,0,1,.93-2.32,3.57,3.57,0,0,1,2.45-.82,3.62,3.62,0,0,1,2.45.82A2.89,2.89,0,0,1,53,280.79Zm-1.22,5.29a2.05,2.05,0,0,0-.62-1.54,2.15,2.15,0,0,0-1.56-.6,2.05,2.05,0,0,0-2.16,2.14,2,2,0,0,0,.59,1.52,2.51,2.51,0,0,0,3.14,0A2,2,0,0,0,51.82,286.08Zm-0.32-5.26a2,2,0,0,0-.53-1.4,1.9,1.9,0,0,0-2.66,0,2,2,0,0,0-.51,1.42,1.9,1.9,0,0,0,.51,1.39,2,2,0,0,0,2.67,0A1.9,1.9,0,0,0,51.5,280.82Z"/><path class="cls-5" d="M59.48,289.19H57.94v-9.87l-2.33,0v-1.11l3.87-.42v11.38Z"/><path class="cls-5" d="M71.5,285.29a4.64,4.64,0,0,1-.88,2.95,2.9,2.9,0,0,1-2.42,1.12,3.09,3.09,0,0,1-1.45-.32,2.7,2.7,0,0,1-1-1l-0.19,1.12H64.28V277h1.54v4.73a2.67,2.67,0,0,1,1-.86,3,3,0,0,1,1.38-.3,2.81,2.81,0,0,1,2.44,1.25,5.62,5.62,0,0,1,.88,3.29v0.16ZM70,285.12a4.67,4.67,0,0,0-.54-2.37,1.76,1.76,0,0,0-1.63-.92,2,2,0,0,0-1.2.35,2.45,2.45,0,0,0-.78.93v3.66a2.52,2.52,0,0,0,.78,1,2,2,0,0,0,1.21.35,1.83,1.83,0,0,0,1.62-.77,3.55,3.55,0,0,0,.53-2v-0.16Z"/><path class="cls-5" d="M73,285.12a5.64,5.64,0,0,1,.87-3.29,2.81,2.81,0,0,1,2.44-1.25,3,3,0,0,1,1.32.27,2.7,2.7,0,0,1,1,.8V277h1.54v12.19H78.92l-0.18-1a2.74,2.74,0,0,1-1,.9,3.06,3.06,0,0,1-1.4.3,2.9,2.9,0,0,1-2.42-1.12,4.66,4.66,0,0,1-.87-2.95v-0.16Zm1.54,0.16a3.59,3.59,0,0,0,.52,2.05,1.83,1.83,0,0,0,1.63.77,2,2,0,0,0,1.16-.31,2.33,2.33,0,0,0,.77-0.87V283a2.38,2.38,0,0,0-.77-0.83,2,2,0,0,0-1.14-.31,1.76,1.76,0,0,0-1.64.91,4.72,4.72,0,0,0-.53,2.38v0.16Z"/><path class="cls-5" d="M22.73,186h-2l-0.62,3.2H18.93l0.63-3.2H17.71V184.9h2.06l0.53-2.73h-2v-1.09h2.22l0.64-3.25h1.18l-0.64,3.25h2l0.64-3.25h1.18l-0.64,3.25h1.55v1.09H24.67l-0.53,2.73h1.71V186H23.92l-0.62,3.2H22.1ZM21,184.9h2l0.53-2.73h-2Z"/><path class="cls-5" d="M34.21,185.36h1.57v1.21H34.21v2.62H32.68v-2.62H27.57v-0.87l5-7.89h1.63v7.55Zm-5,0h3.47V180h0l-0.15.39Z"/><path class="cls-5" d="M41.46,189.19H39.93v-9.87l-2.33,0v-1.11l3.87-.42v11.38Z"/><path class="cls-5" d="M50.43,177.65a5.11,5.11,0,0,1,1.16.13,3.81,3.81,0,0,1,.95.34l-0.33,1.18a4.58,4.58,0,0,0-.8-0.32,3.53,3.53,0,0,0-1-.12,2.35,2.35,0,0,0-2,1,4.08,4.08,0,0,0-.75,2.55v0.18a3.75,3.75,0,0,1,1.14-.68,3.85,3.85,0,0,1,1.39-.25,3,3,0,0,1,2.43,1.05,4,4,0,0,1,.91,2.67,4.24,4.24,0,0,1-1,2.88A3.24,3.24,0,0,1,50,189.36a3.57,3.57,0,0,1-2.77-1.21,4.91,4.91,0,0,1-1.09-3.41v-2.17A5.11,5.11,0,0,1,47.4,179,3.9,3.9,0,0,1,50.43,177.65Zm-0.52,5.13a2.64,2.64,0,0,0-1.34.32,2.16,2.16,0,0,0-.84.85v0.92a3.85,3.85,0,0,0,.66,2.42,2,2,0,0,0,1.66.85,1.67,1.67,0,0,0,1.47-.8,3.53,3.53,0,0,0,.53-2,2.91,2.91,0,0,0-.57-1.85A1.89,1.89,0,0,0,49.9,182.79Z"/><path class="cls-5" d="M57.19,182.79h1.34a1.79,1.79,0,0,0,1.45-.51,2.16,2.16,0,0,0,.43-1.43,2.07,2.07,0,0,0-.48-1.48,1.88,1.88,0,0,0-1.43-.51,2,2,0,0,0-1.44.53,1.86,1.86,0,0,0-.54,1.4H55l0,0a2.76,2.76,0,0,1,.93-2.19,3.59,3.59,0,0,1,2.54-.9,3.63,3.63,0,0,1,2.52.84,3,3,0,0,1,.94,2.39,2.73,2.73,0,0,1-1.7,2.47,2.5,2.5,0,0,1,1.45,1.05,3.37,3.37,0,0,1-.59,4.05,3.82,3.82,0,0,1-2.61.89,3.92,3.92,0,0,1-2.57-.84,2.69,2.69,0,0,1-1-2.28l0,0h1.47a1.88,1.88,0,0,0,.55,1.42,2.09,2.09,0,0,0,1.51.53,2.13,2.13,0,0,0,1.53-.53,2.06,2.06,0,0,0,.55-1.56,1.78,1.78,0,0,0-2-2H57.19v-1.21Z"/><path class="cls-5" d="M69.48,189.19c-0.05-.25-0.09-0.48-0.12-0.68a5,5,0,0,1-.05-0.59,3.58,3.58,0,0,1-1.12,1,2.87,2.87,0,0,1-1.49.41,2.77,2.77,0,0,1-2-.68,2.48,2.48,0,0,1-.69-1.86,2.18,2.18,0,0,1,1-1.89,4.58,4.58,0,0,1,2.66-.68h1.67V183.4a1.55,1.55,0,0,0-.45-1.18,1.78,1.78,0,0,0-1.28-.43,1.85,1.85,0,0,0-1.21.38,1.14,1.14,0,0,0-.46.91H64.43l0,0a2,2,0,0,1,.87-1.69,3.58,3.58,0,0,1,2.37-.77,3.49,3.49,0,0,1,2.31.73,2.59,2.59,0,0,1,.88,2.11v4.07a7.93,7.93,0,0,0,0,.88,4.52,4.52,0,0,0,.17.83H69.48Zm-2.55-1.13a2.74,2.74,0,0,0,1.51-.43,2,2,0,0,0,.88-1v-1.37H67.58a2.24,2.24,0,0,0-1.49.47,1.4,1.4,0,0,0-.56,1.1,1.15,1.15,0,0,0,.35.89A1.48,1.48,0,0,0,66.93,188.06Z"/><path class="cls-5" d="M72.73,185.12a5.64,5.64,0,0,1,.87-3.29A2.81,2.81,0,0,1,76,180.58a3,3,0,0,1,1.32.27,2.7,2.7,0,0,1,1,.8V177h1.54v12.19H78.62l-0.18-1a2.74,2.74,0,0,1-1,.9,3.06,3.06,0,0,1-1.4.3,2.9,2.9,0,0,1-2.42-1.12,4.66,4.66,0,0,1-.87-2.95v-0.16Zm1.54,0.16a3.59,3.59,0,0,0,.52,2.05,1.83,1.83,0,0,0,1.63.77,2,2,0,0,0,1.16-.31,2.33,2.33,0,0,0,.77-0.87V183a2.38,2.38,0,0,0-.77-0.83,2,2,0,0,0-1.14-.31,1.76,1.76,0,0,0-1.64.91,4.72,4.72,0,0,0-.53,2.38v0.16Z"/></svg>