<svg id="Layer_1" data-name="Layer 1" xmlns="http://www.w3.org/2000/svg" viewBox="0 0 50 48.19"><defs><style>.cls-1{fill:#fff;}.cls-2{fill:#2677ae;}</style></defs><title>simpleLogo</title><path class="cls-1" d="M11.54,18.19a21.47,21.47,0,0,1,2-9.57,14.73,14.73,0,0,1,5.83-6.38A17,17,0,0,1,28.19,0a26.5,26.5,0,0,1,5.37.55,19.11,19.11,0,0,1,4.59,1.5l-0.71,6.1a33.62,33.62,0,0,0-4.63-1.5,20.07,20.07,0,0,0-4.63-.5,9.19,9.19,0,0,0-7.6,3.3,13.54,13.54,0,0,0-2.65,8.74,13.59,13.59,0,0,0,2.65,8.75,9.17,9.17,0,0,0,7.6,3.31,20,20,0,0,0,4.63-.5,33.55,33.55,0,0,0,4.63-1.5l0.71,6.1a19.11,19.11,0,0,1-4.59,1.5,26.5,26.5,0,0,1-5.37.55,18.1,18.1,0,0,1-6.91-1.31A14,14,0,0,1,16,31.43a17,17,0,0,1-3.27-5.77A22.66,22.66,0,0,1,11.54,18.19Z" transform="translate(0 0)"/><polygon class="cls-2" points="50 38.99 22.49 45.47 23.3 43.37 50 38.99"/><polygon class="cls-2" points="25 39.99 23.3 44.37 0 48.19 25 39.99"/></svg>