<svg id="Layer_1" data-name="Layer 1" xmlns="http://www.w3.org/2000/svg" viewBox="0 0 492.11 104.39"><defs><style>.cls-1{fill:#fff;}</style></defs><title>welcome2</title><path class="cls-1" d="M162.09,295a1.64,1.64,0,0,0,1.06.83,1,1,0,0,1,.61,1.29,13.53,13.53,0,0,0-6.07,2.13q-2.43,1.67-4.56,2.88l-3.49-17L149.8,283l20.65,0.15v0.46a11.4,11.4,0,0,0-.68,1.29q-0.23.53,0.68,1.29c0-.4.1-0.61,0.3-0.61l0.46,4.56a5.66,5.66,0,0,0-2,1.29,5.66,5.66,0,0,1-2,1.29,4,4,0,0,1-1.37-.91,1.8,1.8,0,0,1-.3-1.82,2.17,2.17,0,0,0-1.29.38c-0.36.25-.68,0.51-1,0.76a2,2,0,0,1-1,.46,1.38,1.38,0,0,1-1.14-.53v2.28a4.54,4.54,0,0,0,2.13-.68,3.39,3.39,0,0,1,2.28-.38,2.66,2.66,0,0,1-.68,1.21,2.63,2.63,0,0,1-.83.46l-1,.3A1.36,1.36,0,0,0,162.09,295Zm17.16,52.84a4.24,4.24,0,0,0-2.73,1.44q-0.91,1.14-3.34.83a1.88,1.88,0,0,1-.76.46,1.92,1.92,0,0,0-.76.46l-8.65-.15-0.46-2.28a13.86,13.86,0,0,0,1.21-1.82,1.2,1.2,0,0,1,1.14.23,1.19,1.19,0,0,0,1.14.23q-1.22-2.73-1.82-4.48a5.78,5.78,0,0,1,.61-4.33,4,4,0,0,0-1.9.38,1.78,1.78,0,0,0-.84.76,0.47,0.47,0,0,0,.15.61,1.23,1.23,0,0,0,.76.23,17.86,17.86,0,0,1-1.21,4.25l0.3-2.88-0.91.15-0.91-4.4a3.65,3.65,0,0,0,.23-1.67,1.31,1.31,0,0,0-.83-1.21l-3.19-15.94a1.92,1.92,0,0,1,.68.38,1.63,1.63,0,0,0,.83.38,2.49,2.49,0,0,0-.38-1,2.43,2.43,0,0,1-.38-1h-1.06l-0.46-2.12H156a1.09,1.09,0,0,1,.46-0.76,0.8,0.8,0,0,0,.15-0.91h-1.21l-0.15-1.06a0.86,0.86,0,0,0,1-.23,2.43,2.43,0,0,0,.3-0.91c0-.35.1-0.68,0.15-1a0.73,0.73,0,0,1,.53-0.61q3.19,0,3.19-1.21a7.06,7.06,0,0,0-3.26-.68q-1.59.08-3,.08l-0.61-3.19a13.47,13.47,0,0,1,1.59-1.37,3.24,3.24,0,0,1,2.51-.3,2.61,2.61,0,0,1,1.37-1.9,20.55,20.55,0,0,1,2.35-1q1.29-.46,2.43-0.91a2.74,2.74,0,0,0,1.59-1.67,0.76,0.76,0,0,0,.68.53,2.5,2.5,0,0,0,1.06-.08,4.7,4.7,0,0,0,1.06-.46,0.83,0.83,0,0,0,.53-0.61,2.18,2.18,0,0,0-1.37-.38l-1.14.15a3.12,3.12,0,0,1-1,0,1.52,1.52,0,0,1-.91-0.83,4.26,4.26,0,0,1,1.14-1.52,10.39,10.39,0,0,1,1.75-1.29,3.6,3.6,0,0,1,1.82-.53,1.6,1.6,0,0,1,1.37.61,11.22,11.22,0,0,0-1.37.08c-0.41.05-.51,0.38-0.3,1a5.59,5.59,0,0,0,2.88-.46l0.46,2.58a2,2,0,0,0-1.21.08q-0.61.23-.46,0.53a2.69,2.69,0,0,1,.76.38,1.51,1.51,0,0,0,.91.23l1.21,9.72q-2,0-3.8.15a8.74,8.74,0,0,0-3.49,1.06,33.89,33.89,0,0,0,3.87.38,16.07,16.07,0,0,0,3.57-.23l0.3,1.52q-0.61,1.22.15,1.52l0.3,3.19a4.08,4.08,0,0,0-1.52-.3,1.64,1.64,0,0,1-1.21-.46,5.3,5.3,0,0,0,1,2.35,6.14,6.14,0,0,0,1.75,1.44,2.42,2.42,0,0,1,.3-1.06l0.61,5a11.3,11.3,0,0,0-.91.68c-0.3.25-.56,0.48-0.76,0.68a6,6,0,0,1-.91.76l-0.76-.76c0-.4-0.1-0.5-0.3-0.3h0.15a5.08,5.08,0,0,1-.3,1.75,3.67,3.67,0,0,1-.46,1,3.15,3.15,0,0,0-1.21,1.44,15.78,15.78,0,0,0-.76,2,8.91,8.91,0,0,0-.38,1.82,2,2,0,0,0,.23,1.29,1.62,1.62,0,0,0-1.59.38,4.38,4.38,0,0,0-.61,1.29c-0.15.51-.33,1-0.53,1.52a1.18,1.18,0,0,1-1.21.76,1.29,1.29,0,0,0,.38,1.06,1,1,0,0,1,.23,1.06,1,1,0,0,0,1.06,0,1.37,1.37,0,0,0,.38-0.76,3.92,3.92,0,0,1,.23-0.83,0.92,0.92,0,0,1,.61-0.53q0.76,1.06,1.9-.08a2.38,2.38,0,0,1,1.9-1q1.21,2,2.35,3.72a27,27,0,0,0,2.66,3.42,12.09,12.09,0,0,0-.46-1.21,4,4,0,0,1-.23-0.53,0.69,0.69,0,0,1,.08-0.53c0.1-.2.3-0.55,0.61-1.06a1.3,1.3,0,0,0-.61-0.83,1.12,1.12,0,0,0-.68.08,2,2,0,0,1-.76.15,0.84,0.84,0,0,1-.68-0.46q-0.15-.91.91-0.61a2.77,2.77,0,0,0,1.82,0,6.72,6.72,0,0,0-.53-3.49,12.31,12.31,0,0,0-1.75-2.58,16.41,16.41,0,0,1,1.14-4.1,10.78,10.78,0,0,0,.53-5.16c0-.1-0.1-0.15-0.3-0.15l0.3-1.21v0.76a1,1,0,0,0,1-.15,1.5,1.5,0,0,0,.23-0.91,5.09,5.09,0,0,0-.15-1.21,1.88,1.88,0,0,1,0-1.06q0.76-.46,1.06-0.68a1.4,1.4,0,0,0,.46-0.76,8.73,8.73,0,0,0-.3-2.81c-0.2,0-.23-0.38-0.08-1.14s0.13-1.14-.08-1.14l4.1-18.37a18.45,18.45,0,0,0,2.73-.83,7.52,7.52,0,0,0,2.58-1.75,32.81,32.81,0,0,0-.53,3.34,3.17,3.17,0,0,1-2.2,2.73,1.73,1.73,0,0,0,.84,1.67q0.83,0.46.23,2.13a2.41,2.41,0,0,0-2.51.91,7.7,7.7,0,0,0-1.44,3,22.65,22.65,0,0,0-.61,3.72,7.57,7.57,0,0,0,.15,2.81,2,2,0,0,0,1.67.53,2,2,0,0,1,1.67.53,3.1,3.1,0,0,0-1.14-1.82,8.81,8.81,0,0,1-1.59-1.52A2.7,2.7,0,0,1,183,306a1.48,1.48,0,0,0-.08,1.21,1.6,1.6,0,0,0,.61.68,1.3,1.3,0,0,0,.53.23q0.15,0-.46-0.46a3,3,0,0,0-.08-2q-0.38-1.21.53-1.37a9.35,9.35,0,0,0,1.14,3.64,18.44,18.44,0,0,0,1.82,2.5,17.29,17.29,0,0,0,2.2,2.13,14.58,14.58,0,0,1,2.28,2.35l-7.14,31.43a2.65,2.65,0,0,0-2,.23,6.07,6.07,0,0,1-2.05.68,4.52,4.52,0,0,1-1.59-2.2,4.25,4.25,0,0,0-1.75-2.2,4.51,4.51,0,0,0,.76,2.81Q178.49,346.66,179.25,347.87ZM153.9,299.43q0.76-.15,1.37-0.23t0.3-1H154.5a0.93,0.93,0,0,1-.23.68A2,2,0,0,0,153.9,299.43Zm1.67,10.48a2.3,2.3,0,0,0-.61,1.21l-0.3-1.21h0.91ZM156,294.42a1.23,1.23,0,0,0,1.75-.68q0.53-1.14-.53-1.44a0.84,0.84,0,0,1-.76.91Q155.72,293.36,156,294.42Zm2.88,19.89q0.3-.46,1.75.08A9.37,9.37,0,0,0,163,315a1.34,1.34,0,0,0,1.37-.68,9.27,9.27,0,0,0-3.42-.91A3.2,3.2,0,0,1,158.3,312a4.77,4.77,0,0,1,.08,1.44A0.67,0.67,0,0,0,158.91,314.31ZM161,325.85a2,2,0,0,1,.46-1.21c0.3-.4.56-0.76,0.76-1.06a1.54,1.54,0,0,0,.3-0.83,1.07,1.07,0,0,0-.91-0.68,1.25,1.25,0,0,0-.91.53,3.62,3.62,0,0,0-.68,1.21,1.88,1.88,0,0,0,0,1.29A1.21,1.21,0,0,0,161,325.85ZM160,311.58a1.78,1.78,0,0,0,1.29,1.06,5.74,5.74,0,0,0,2-.08q1.21-.23,2.13-2.2a7.9,7.9,0,0,0,2.88,3.26A6.16,6.16,0,0,1,170.9,317a3.69,3.69,0,0,0-.23-2.51,6.65,6.65,0,0,0-1.37-1.75q-0.84-.76-1.82-1.52a4.35,4.35,0,0,1-1.44-2,4.41,4.41,0,0,1-2.43.46,7.69,7.69,0,0,0-2.58.3A2,2,0,0,0,160,311.58Zm2.73-24.9a3.18,3.18,0,0,0,0,2q0.3,0.38.61-.38a6.68,6.68,0,0,0-.15-1.21,5.61,5.61,0,0,0-.23-0.91Q162.85,286.07,162.7,286.68Zm4.4-2.73q-2,.46-2.28,3.34a3.68,3.68,0,0,0,1.52.61c0.81,0.2,1.26,0,1.37-.61a0.85,0.85,0,0,0-.68-0.46,4.31,4.31,0,0,0-1,.15c-0.41.1-.61,0-0.61-0.3a1.16,1.16,0,0,1,.83-1.37A1.15,1.15,0,0,0,167.11,283.94Zm-2.28,58.91a3.42,3.42,0,0,0,2-2.13,4,4,0,0,1,1.9-2.28q-2.13.15-2.66,1.59A20.26,20.26,0,0,1,164.83,342.86ZM167.71,316a0.55,0.55,0,0,0,0-.76,2.08,2.08,0,0,0-.68-0.46,1,1,0,0,0-.76,0,0.42,0.42,0,0,0-.23.61,0.42,0.42,0,0,1,.46.61h1.21Zm1.67-18.22q0.15,0.91-.38,1a8.43,8.43,0,0,1-1.21.08,5.38,5.38,0,0,0-1.29.15,0.66,0.66,0,0,0-.46.91,15,15,0,0,1,2.88-.38,1.83,1.83,0,0,0,2-1.29A1.64,1.64,0,0,1,169.38,297.76Zm-0.61-7.14a0.77,0.77,0,0,1-.91-0.84,0.71,0.71,0,0,0-.76-0.83,1.15,1.15,0,0,0,.08.91,2.22,2.22,0,0,0,.61.76,1.82,1.82,0,0,0,.68.38C168.67,291.06,168.78,290.93,168.78,290.63Zm2.13,43q0.3-1.37,4.4,0a1.12,1.12,0,0,1,0,1.14,2.52,2.52,0,0,0-.46,1,3,3,0,0,1-2.35-.76A8.47,8.47,0,0,0,170.9,333.6Zm1.21-15.49q-1.06.76-.83,1.37a1.38,1.38,0,0,0,.76.83,0.76,0.76,0,0,0,.91-0.15q0.38-.38-0.38-1.44Zm4.71-1.37L177,317l-0.3.15Zm0.76,33.86c0.61-.1.91,0.1,0.91,0.61h-0.91V350.6Zm2.73-.46a3.27,3.27,0,0,0,.91,1.06h-0.61Q179.56,350.3,180.32,350.15Zm1.67-37a0.94,0.94,0,0,0-.91-1.14q-1.06-.23-0.76.68a1.68,1.68,0,0,0,.76.15,0.65,0.65,0,0,1,.61.61C181.78,313.81,181.88,313.71,182,313.1Zm4.4-25.81a4.57,4.57,0,0,1-1.29,2.89,7.26,7.26,0,0,1-2.81,2.13l0.3-1.37a4.52,4.52,0,0,0,1.9-1.75A5.67,5.67,0,0,1,186.39,287.29Zm-4.1,63.92a5.88,5.88,0,0,0,1.06-.76v0.76h-1.06Zm0.76-3.34a0.78,0.78,0,0,1,1.21-.3l-0.46,1.67a1.87,1.87,0,0,1-.15-0.83A0.51,0.51,0,0,0,183,347.87ZM184,285a1.81,1.81,0,0,1,1.21-.91l6.38,0.15-4,1.14q-1.9.53-3.87,1.14Zm18.37,0.61a0.91,0.91,0,0,1,.61.61L209.77,324l4.71-31.28a14.19,14.19,0,0,0,5.47,1.06q0.76,0.91.38,1c-0.25.05-.38,0.48-0.38,1.29a0.94,0.94,0,0,0,1.06-.3,4.94,4.94,0,0,1,.61-0.76,12.36,12.36,0,0,0,2.13,2.2,18.93,18.93,0,0,1,2.28,2.2,5.62,5.62,0,0,0-.91,4,29.6,29.6,0,0,0,1,4.48q0.68,2.28,1.37,4.63a9.07,9.07,0,0,1,.23,4.48,2.08,2.08,0,0,0-.68-1.75,14.78,14.78,0,0,0-1.44-1,3.23,3.23,0,0,0-.53,2.28,8.92,8.92,0,0,0,.68,1.82,9.63,9.63,0,0,1,.68,1.75,2.5,2.5,0,0,1-.38,1.9,3.81,3.81,0,0,1-1.21-2.43,19.94,19.94,0,0,0-.84-2.88,2.62,2.62,0,0,0-1.29-1.37,3.25,3.25,0,0,0,0,2,14,14,0,0,0,.76,2,19.1,19.1,0,0,1,.76,1.9,3.77,3.77,0,0,1,.15,1.82,11.83,11.83,0,0,0,1.44-.38c0.46-.15.93-0.33,1.44-0.53L220.4,350.6q-0.76,1.22-3,1.21h-5.77a18,18,0,0,1-3.49-4.4,11.26,11.26,0,0,1-1.37-5.62,1.12,1.12,0,0,1-1.06.53,2.13,2.13,0,0,1-1.14-.53,3.76,3.76,0,0,1-.91-1.21,2.3,2.3,0,0,1-.23-1.52,0.72,0.72,0,0,1,.76.38,5,5,0,0,0,.38.76,2,2,0,0,0,.53.61,1.46,1.46,0,0,0,1.21-.08,3.93,3.93,0,0,1-.23-2.2,11,11,0,0,1,.61-1.67,18.64,18.64,0,0,0,.68-1.75,4.14,4.14,0,0,0-.15-2.43q1.06-.15,1.44-0.23a3.91,3.91,0,0,1,.76-0.08,3.37,3.37,0,0,0,.91-0.15l1.75-.46A2.06,2.06,0,0,0,213,333a1.58,1.58,0,0,0,1.06-.08,8.46,8.46,0,0,1,1.44-.38,3.51,3.51,0,0,1,1.75.15,1.24,1.24,0,0,1,.68-1,4.35,4.35,0,0,1,1.21-.3,9.61,9.61,0,0,0,1.29-.23,1,1,0,0,0,.76-0.91,8.52,8.52,0,0,1-3,.3c-0.81-.1-1.59-0.23-2.35-0.38a8.27,8.27,0,0,0-2.2-.15,6.05,6.05,0,0,0-2.43.83l-1.44-1.14A2.07,2.07,0,0,1,209,328a4.63,4.63,0,0,1,1.14-1.06,1.6,1.6,0,0,0,.53-1.67,1.1,1.1,0,0,0-1.14-.38,2,2,0,0,0-.68.76q-0.31.53-.61,1.14a1.36,1.36,0,0,1-.91.76,22.12,22.12,0,0,0-2.73-4.25q-1.52-1.82-5-1.82a15.08,15.08,0,0,0-1.75-2.73,4,4,0,0,0-3.26-1.21,6.8,6.8,0,0,1-.91-2q-0.31-1.14-.68-2.28a8.65,8.65,0,0,0-1-2,3,3,0,0,0-1.82-1.21v-1.21q-1.52-1.21-2.73-2.35a3.64,3.64,0,0,1-1.06-3.11,1.81,1.81,0,0,0,1.82-.3,4.06,4.06,0,0,0,.91-1.37q-1.37.15-1.06-1.67a2.44,2.44,0,0,0,1.67-.53,7.48,7.48,0,0,0,1.06-1.14,6.65,6.65,0,0,1,1-1.06,2.67,2.67,0,0,1,1.75-.46v-2.28a0.8,0.8,0,0,0-1,.3,2,2,0,0,1-.68.76,0.73,0.73,0,0,0-.23-0.53,0.73,0.73,0,0,1-.23-0.53q1.06-.46,2.28-3a9.32,9.32,0,0,1,2.13-3.26q0.91-.68,2.73.23a4.87,4.87,0,0,0,1.67-1.52A3.16,3.16,0,0,1,202.33,285.62Zm-4.4.61a47.78,47.78,0,0,1-5.09-.15,3.64,3.64,0,0,1-1.44-.46,3.59,3.59,0,0,1,2-.83q1.37-.23,2.58-0.53h3.49a9.56,9.56,0,0,1-.46,1.9Q198.69,287,197.93,286.22Zm-3.34,18.07a3,3,0,0,1,.08-2c0.25-.81.08-1.21-0.53-1.21q-0.91.61-.3,1t-0.3.68c-0.1-.51-0.28-0.63-0.53-0.38a2.11,2.11,0,0,0-.53.83,3.07,3.07,0,0,0,1,.15,0.65,0.65,0,0,1,.68.46,4.13,4.13,0,0,0,.08.83C194.26,304.92,194.38,304.8,194.59,304.29Zm10,32.49a1.11,1.11,0,0,0-1.06-.91,2,2,0,0,0-1.44.68,7.08,7.08,0,0,0-1.21,1.67,2.31,2.31,0,0,0-.23,1.9,8.56,8.56,0,0,1-3.34,1.06l-4.4-21.87a14.72,14.72,0,0,0,2.73,2.88,5.86,5.86,0,0,1,2,3.64,22.11,22.11,0,0,1,4.1,4.33,29.26,29.26,0,0,0,3.95,4.48c-0.41-.1-0.61,0-0.61.23a4.93,4.93,0,0,0,.08.83,5.22,5.22,0,0,1,.08.84C205.22,336.81,205,336.89,204.61,336.79ZM199,323.12a0.72,0.72,0,0,0-.53-0.38l-0.83-.15a1.77,1.77,0,0,1-.68-0.23,0.94,0.94,0,0,1-.08-0.91,4.28,4.28,0,0,1,1.82.08Q199.45,321.75,199,323.12Zm1.67,21.41a0.59,0.59,0,0,1-.46-0.61c0-.3-0.2-0.46-0.61-0.46a8.58,8.58,0,0,1-1.21,3L197.78,343a6.68,6.68,0,0,1,1.29-.76,2.52,2.52,0,0,0,1.14-1.06q0.91,0.15.53,1.37A3,3,0,0,0,200.66,344.53Zm1.21,1.67a10.73,10.73,0,0,0,2.43,2.81q1.67,1.45,3,2.66l-7.9-.15-0.3-1.21Zm1.52-21.41a1.91,1.91,0,0,1-1.06-.91c-0.2-.4-0.76-0.51-1.67-0.3a0.77,0.77,0,0,1,.68-0.53,3,3,0,0,1,1.14.08,1.49,1.49,0,0,1,.91.61A1,1,0,0,1,203.4,324.79Zm0.91,6.68a1.84,1.84,0,0,0-.23-1.82,5,5,0,0,0-1.21-.76,4.91,4.91,0,0,1-1.21-.76,2.9,2.9,0,0,1-.53-2.13,4.87,4.87,0,0,1,2.13.38,6.54,6.54,0,0,1,1.37.91c0.4,0.36.86,0.79,1.37,1.29a6.7,6.7,0,0,0,2.28,1.37,2.38,2.38,0,0,0-1.14.38,1.18,1.18,0,0,0-.3.46,1,1,0,0,1-.53.46A5.36,5.36,0,0,1,204.31,331.47Zm1.37,15.79a4,4,0,0,1,2.88,2.13,4.87,4.87,0,0,0,2.28,2.28h-1.52A13.42,13.42,0,0,1,205.67,347.26Zm3.34-3.49-0.61.3a1.5,1.5,0,0,0-.23,1.59,1.66,1.66,0,0,0,.91.68,0.79,0.79,0,0,0,.83-0.15q0.3-.3-0.46-1.06Zm3.64,1.82a2.65,2.65,0,0,0-.46-1.06,2.63,2.63,0,0,1-.46-1.06h-1.06v1.06a2.09,2.09,0,0,1,1,.53A2.06,2.06,0,0,0,212.66,345.59Zm-0.3-35.23q-0.46,2.43,1.52,2.28Q214.17,310.22,212.35,310.37Zm4.86,8.81a2.58,2.58,0,0,1-2.35-.38,2.79,2.79,0,0,0-2-.68,2.56,2.56,0,0,0,0,1.75,2.45,2.45,0,0,0,.84,1.21,1.43,1.43,0,0,0,1.06.3,1.23,1.23,0,0,0,.84-1q-2,.31-2.13-1.21a1.94,1.94,0,0,1,1.14.38,5.55,5.55,0,0,0,1.06.61,1.17,1.17,0,0,0,.91.08A1.66,1.66,0,0,0,217.21,319.17ZM213.87,316v-2.28h-1.06V316h1.06Zm6.07-23.69a3.77,3.77,0,0,1-1.44-1.21,8.61,8.61,0,0,1-.91-1.67,18.81,18.81,0,0,0-.84-1.75,3.33,3.33,0,0,0-1.21-1.29l0.15-1.06a11.85,11.85,0,0,0,.46-1.21l19.13,0.15c0.51,0,.76.36,0.76,1.06l-1.67,6.83q-0.46.31-1.21-.46a11.32,11.32,0,0,0,.08,1.29,0.68,0.68,0,0,1-.53.83q-2.58-.6-5-1.06a12.79,12.79,0,0,1-4.4-1.67,2.1,2.1,0,0,0-.08,1,7.15,7.15,0,0,1,.08,1,1.23,1.23,0,0,1-.23.76,0.62,0.62,0,0,1-.84,0v-3.19h-1.67c-0.41,0-.58.08-0.53,0.23a1.94,1.94,0,0,0,.3.53,1.75,1.75,0,0,1,.3.61C220.68,292.2,220.45,292.3,219.95,292.3Zm-0.46,31.28a1.27,1.27,0,0,0,.38-1.21,0.49,0.49,0,0,0-.53-0.23,0.71,0.71,0,0,0-.46.53A0.85,0.85,0,0,0,219.49,323.58Zm3.8-1.06a3.55,3.55,0,0,1-1.29.08,0.68,0.68,0,0,0-.84.53,2.38,2.38,0,0,1,1.21,2.35,14.54,14.54,0,0,1-.15,2.51,3.4,3.4,0,0,1,1.06-.46,11,11,0,0,1,1.21-.23,2.41,2.41,0,0,0,1.06-.38,1.18,1.18,0,0,0,.46-1.06,2.49,2.49,0,0,1-1.9-.08,1.33,1.33,0,0,1-.61-0.91,8.49,8.49,0,0,1-.08-1.21A3.7,3.7,0,0,0,223.29,322.51Zm0.61,12.75a5.79,5.79,0,0,1,0-2.66q0.3-1.59-1.21-1.29a3.11,3.11,0,0,0-.23,2.2A1.72,1.72,0,0,0,223.89,335.27Zm1.06-37.5a0.79,0.79,0,0,1,.15-0.91,1.09,1.09,0,0,0,.46-0.76q1.52,0.45.46,1.67H225Zm3.8-7.14a6.93,6.93,0,0,1-1.37-1.06,2.48,2.48,0,0,0-1.82-.61,1.31,1.31,0,0,0,.46.91,4.61,4.61,0,0,0,1,.76,2.1,2.1,0,0,0,1.06.3A0.69,0.69,0,0,0,228.75,290.63Zm-1.06,10.48a0.42,0.42,0,0,1,.61.23,1,1,0,0,1,0,.76,2,2,0,0,1-.46.68,0.54,0.54,0,0,1-.76,0v-1.21A0.42,0.42,0,0,0,227.69,301.1Zm0,19.28q-0.31-1.52.3-1.67Zm1.67-7.14a4.32,4.32,0,0,0-1.14-1.52,2.49,2.49,0,0,1-.53-2.43,15.22,15.22,0,0,0,2,2.58Zm0-14.42q0.91,0.76,3.34.46l-0.76,3.19-0.3.3Q228.9,301.86,229.36,298.83Zm1.06,6.07a1,1,0,0,1,.91.3l-0.76,2.88a1,1,0,0,0-1.21-.46,1.11,1.11,0,0,0,.53-1.44C229.74,305.43,229.92,305,230.42,304.9Z" transform="translate(-149.64 -251.24)"/><path class="cls-1" d="M298.14,293.06a1.34,1.34,0,0,0,.3,1.59,8.34,8.34,0,0,0,1.37.68,32.61,32.61,0,0,1,2.2,7.44,38,38,0,0,1,.38,8.81l-0.46,13.21c-0.51.2-1,.41-1.59,0.61a10.76,10.76,0,0,1-1.59.46l-23.23-.76a1.55,1.55,0,0,0-.68-0.61c-0.25-.1-0.38.05-0.38,0.46l0.15,0.15-3.8-.15a2,2,0,0,0,.46-0.68,2,2,0,0,1,.46-0.68,5.5,5.5,0,0,1-1.52.38,0.75,0.75,0,0,0-.76.84l-5.31-.15q0.15,7,4.94,9.95T283,337.85q3,0,6.68-.23a37,37,0,0,0,6.68-1l-0.15,4.25a0.43,0.43,0,0,1-.3-0.15,2.13,2.13,0,0,0,.15,1.82l-0.15,6.07q-0.61,4.25-1.06,4.93a2,2,0,0,1-.91.83,25.81,25.81,0,0,1-3.42.38q-1.75.07-3.57,0.23a9.36,9.36,0,0,1-1.29-.91,4.6,4.6,0,0,0-1.29-.76,2.39,2.39,0,0,1,.38,1,1.42,1.42,0,0,0,.38.83q-1.22.15-5,.15,0.46-1.82-.91-2.13a2.29,2.29,0,0,1-.08,1.29,0.92,0.92,0,0,0,.08,1,6.63,6.63,0,0,1-1.06-.08,5.31,5.31,0,0,0-.91-0.08,15.16,15.16,0,0,1-2.58-.15,2.46,2.46,0,0,0,.61-0.46,0.67,0.67,0,0,1-.68-0.23,1.29,1.29,0,0,0-.53-0.53q-1.22.76-.3,1.06a13.89,13.89,0,0,1-2.43-.15,1.91,1.91,0,0,0,0-1.52,4.53,4.53,0,0,0-1.21-1.06,1.68,1.68,0,0,1-.91-1.37,1.22,1.22,0,0,1,.68.53,0.68,0.68,0,0,0,.83.23,1.55,1.55,0,0,1,.38-1.14,1.55,1.55,0,0,0,.38-1.14,1.3,1.3,0,0,0-1.29-.38,2,2,0,0,0-.91.83,12.39,12.39,0,0,0-.76,1.44,8.55,8.55,0,0,0-.53,1.44,4.69,4.69,0,0,1,.76,1,3.3,3.3,0,0,0,.91,1,26.17,26.17,0,0,1-3.49-.76q-1.52-.46-3.19-0.91a1.71,1.71,0,0,0,1.44-1.21,4.32,4.32,0,0,0,.15-2.28,5.13,5.13,0,0,0-1-2.2,2.13,2.13,0,0,0-1.67-1,1.86,1.86,0,0,0,.23,1.75q0.53,0.68,1.06,1.29a7.34,7.34,0,0,1,.83,1.14q0.3,0.53-.61,1.44a2.08,2.08,0,0,0-1.06-2.35q-1.37-.83-2-0.08a1.44,1.44,0,0,1,.68,1.29,5.82,5.82,0,0,0,.38,1.75l-0.68-.3q-0.38-.15-0.68-0.3l0.15-.15h-0.46a27.92,27.92,0,0,1-3.72-1.9,31.21,31.21,0,0,1-3.11-2.2,3.29,3.29,0,0,0,.61-1.06,4.87,4.87,0,0,1-2.81-1.9,9.65,9.65,0,0,0-2.2-2.35v0.76q-6.53-8-6.07-22.93l0.3-7a23.89,23.89,0,0,0,1.67,3.8,8.11,8.11,0,0,0-.38-3.42,20.38,20.38,0,0,0-1.29-2.81l0.15-1.37a1.47,1.47,0,0,0,.53.38,1.54,1.54,0,0,1,.53.38,4.93,4.93,0,0,0-.23-2.28q-0.38-1.06-.68-2.13a32.76,32.76,0,0,1,.61-3.8,4.28,4.28,0,0,1,.76-0.91,0.87,0.87,0,0,0-.46-0.3,15.05,15.05,0,0,1,.83-2.81q0.53-1.29,1-2.66a2,2,0,0,0,2.35-1.44,5.36,5.36,0,0,0,.38-3.11,24,24,0,0,1,8.88-8,32.41,32.41,0,0,1,12.22-3.42,5.07,5.07,0,0,1,1.29,2.28,2.88,2.88,0,0,0,.68,1.52,5,5,0,0,1-.08-2.28q0.23-.76.38-1.52a22.33,22.33,0,0,1,3.34-.15A33.19,33.19,0,0,1,289,282.81a22.23,22.23,0,0,1,9.95,10.25h-0.76ZM243,322.51a21.93,21.93,0,0,0,.83,5.16,6.44,6.44,0,0,0,2.35,3.49,6.61,6.61,0,0,1-1.06-2.28,20.62,20.62,0,0,1-.46-2.35,15.68,15.68,0,0,0-.46-2.2A3.67,3.67,0,0,0,243,322.51Zm0.76-5a15.5,15.5,0,0,1-.3,3.42q-0.31,1.29,2,1.75a3.34,3.34,0,0,0-.15-2.58A5.63,5.63,0,0,0,243.78,317.5Zm1.37-11.08a2.72,2.72,0,0,1-.46,1.67,1.86,1.86,0,0,0,2,.3,1.87,1.87,0,0,1,2,.3,12.22,12.22,0,0,0-.15-2,1.16,1.16,0,0,0-1.37-.91L247,307a2.67,2.67,0,0,1-1-.15A4.43,4.43,0,0,1,245.15,306.42Zm3.19,9a1,1,0,0,0,0-1.29,2,2,0,0,0-1.29-.38,3.72,3.72,0,0,0-1.52.3,1,1,0,0,0-.68.91q1.21,0.76,1.75.3A1.6,1.6,0,0,1,248.34,315.38Zm0.61-15.49q0.15,1.37-.23,1.37a2.43,2.43,0,0,1-1.06-.38,13.17,13.17,0,0,0-1.44-.68,0.9,0.9,0,0,0-1.21.61,2.09,2.09,0,0,1,2,.76,9.58,9.58,0,0,1,1.14,2q0.46,1.06.83,1.9a0.93,0.93,0,0,0,1.29.53,1.86,1.86,0,0,1-.76-1.52c0-.61,0-1.19.08-1.75s0.08-1.09.08-1.59A1.37,1.37,0,0,0,248.94,299.89Zm-1.37,38q0.46-2.12-1.52-1.67c-0.2.81-.05,1.21,0.46,1.21A1.18,1.18,0,0,1,247.58,337.85Zm8.2-7.59a0.94,0.94,0,0,0-1.06.3c-0.2.3-.41,0.2-0.61-0.3a1,1,0,0,1,.68-0.46l1-.3a1.15,1.15,0,0,0,.68-0.61,2.79,2.79,0,0,0,.08-1.52,2,2,0,0,0-1.44-.08,6.85,6.85,0,0,0-1.21.53,3,3,0,0,1-1,.38,0.49,0.49,0,0,1-.61-0.38,2.09,2.09,0,0,1,1.14-1.14,10.36,10.36,0,0,1,1.75-.61c0.61-.15,1.16-0.3,1.67-0.46a2.31,2.31,0,0,0,1.21-.83,2.15,2.15,0,0,1-1.59-.53q-0.53-.53-1.06-1a5,5,0,0,0-1.21-.76,4.18,4.18,0,0,0-2-.15,2.8,2.8,0,0,1-.3,1.59,1.59,1.59,0,0,1-.83.53c-0.36.1-.76,0.2-1.21,0.3a1.92,1.92,0,0,0-1.14.76,7.18,7.18,0,0,1-.91-1.9,1.52,1.52,0,0,0-1.67-1,11.65,11.65,0,0,1,1,2.28,18.32,18.32,0,0,0,.91,2.35,9.28,9.28,0,0,0,1.29,2,4.6,4.6,0,0,0,2,1.37,1.1,1.1,0,0,0-1.14.53,1.48,1.48,0,0,0,0,1.14,3.78,3.78,0,0,0,.68,1.14,1.25,1.25,0,0,0,.91.53,1,1,0,0,0,.61-0.91,5.09,5.09,0,0,0-.15-1.21,10.68,10.68,0,0,1-.23-1.14,0.55,0.55,0,0,1,.38-0.68,1.78,1.78,0,0,1,1.52.61,10.91,10.91,0,0,1,1.06,2,2.28,2.28,0,0,0,1.37,1.52,4.14,4.14,0,0,0-.61-2.2A1.28,1.28,0,0,1,255.78,330.26Zm-3-15.18a1.65,1.65,0,0,1,.15,1.14,1.39,1.39,0,0,1-.46.61,5.45,5.45,0,0,0-.61.53,0.9,0.9,0,0,0-.15.91q-1.52-.76-2.28-1.06,0,2.58-.91,1.9t-1.82-1.44q-0.31,1.67.84,2.13a2.15,2.15,0,0,1,1.29,2,1.17,1.17,0,0,1-1.06-.3,1.93,1.93,0,0,0-.83-0.46,0.65,0.65,0,0,0-.38.61,2.15,2.15,0,0,0,1,1,4.1,4.1,0,0,0,.83.08,7.15,7.15,0,0,1,1,.08,4,4,0,0,1,1.44.68,5.66,5.66,0,0,1,.3-2.73,8.4,8.4,0,0,0,.61-2.28,1.19,1.19,0,0,1,1.21-.38c0.3,0.15.58,0.3,0.83,0.46a2.5,2.5,0,0,0,.68.3,1.08,1.08,0,0,0,.76-0.83,1.66,1.66,0,0,1-.76-1.21,7,7,0,0,0-.53-1.44A1.06,1.06,0,0,0,252.74,315.07Zm-3-18.68a2.87,2.87,0,0,0-2.89,1.67,1,1,0,0,1,1.06.23,1.29,1.29,0,0,0,1.06.38A3.09,3.09,0,0,1,249.7,296.4Zm-2.89,15c0.91-.2,1.39,0,1.44.68a1.36,1.36,0,0,0,.84,1.29q0-.76.46-0.61a0.55,0.55,0,0,0,.61-0.76c-0.3-.2-0.81-0.55-1.52-1.06A1.13,1.13,0,0,0,246.82,311.43Zm4.56-2.58a0.65,0.65,0,0,1-.61-0.61,1.85,1.85,0,0,0-.38-0.83,0.93,0.93,0,0,0-.68-0.23,1.62,1.62,0,0,0,.23,2.05Q250.76,310.06,251.37,308.85ZM254.71,345q0.46-2-.76-2.35a5.11,5.11,0,0,1-2.13-1.29,1,1,0,0,1-.08-0.68c0-.25,0-0.38-0.23-0.38q-1.22.91-.61,1.75a3.07,3.07,0,0,1,.46,2.2,13.31,13.31,0,0,0,2-.08A2.58,2.58,0,0,1,254.71,345Zm-1.82-45.1q-0.46,1.82,1.06,2.28Q254.41,300,252.89,299.89Zm2.43,25.81q-0.91.3-.91-0.3a0.78,0.78,0,0,0-.76-0.76q0.3-1.06,1.14-.38A1.21,1.21,0,0,1,255.32,325.7Zm0.46-27.33c-0.2-.51-0.46-0.71-0.76-0.61a1.15,1.15,0,0,0-.68.61,0.72,0.72,0,0,0,.08.83,1.48,1.48,0,0,0,1.37.23v-1.06Zm-0.15,17.31a1.9,1.9,0,0,0,.53,1.52q0.53,0.46,1.14.91a1.79,1.79,0,0,0-.38-1.59A3.84,3.84,0,0,0,255.63,315.68Zm3.64,23.84a1.88,1.88,0,0,0-.3-1.9,9.61,9.61,0,0,0-1.37-1,1.93,1.93,0,0,0-.38,2Q257.6,340,259.27,339.52Zm-1.21,5a1.86,1.86,0,0,0,.23-1.67,3.42,3.42,0,0,0-.83-1.82,6.28,6.28,0,0,1-.08,2.13Q257.14,344.53,258.06,344.53ZM257.9,284.4H259l0.15-1.06h-1.06Zm5,1.82a1.09,1.09,0,0,1-1.14-.3,6.66,6.66,0,0,1-.68-1,1.5,1.5,0,0,0-.68-0.68c-0.25-.1-0.58.15-1,0.76a3.24,3.24,0,0,1,1.67,1.29A1,1,0,0,0,262.91,286.22Zm-2.73,27.48a0.7,0.7,0,0,0,.23,1,2.29,2.29,0,0,0,1.37.38,3.18,3.18,0,0,0,1.44-.3,0.74,0.74,0,0,0,.46-0.91,0.62,0.62,0,0,0-.53-0.61,4.21,4.21,0,0,0-1.14-.15,2.85,2.85,0,0,0-1.14.23A2.45,2.45,0,0,0,260.18,313.71Zm0.46,25.81a0.63,0.63,0,0,1,.53.76q-0.08.61,1,.46,0-1.52-.46-1.67,0,0.61-.46.23C260.94,339,260.74,339.11,260.64,339.52Zm2.13-1.06q1.06-1.21-.61-1.67a0.77,0.77,0,0,1-.3.76,0.79,0.79,0,0,0-.15.91h1.06Zm-0.3-19.74a1.45,1.45,0,0,0,1.67-1.06,1.27,1.27,0,0,1-.83-0.53,1.28,1.28,0,0,0-.83-0.53,3.09,3.09,0,0,1-.61,1.67C262.25,318.26,262.46,318.41,262.46,318.72Zm1.67-1.67a10.41,10.41,0,0,1,1.67.15q0.91,0.15.46-1.06l-2.13-.15V317Zm17.61-6.38c0,0.2.15,0.3,0.46,0.3a3.14,3.14,0,0,0,0-1.37,32.54,32.54,0,0,0-.46-6,8.71,8.71,0,0,0-1.52-3.72,6.13,6.13,0,0,0-2.58-2,11.91,11.91,0,0,0-3.49-.76,8.6,8.6,0,0,0-6.6,2.43q-2.66,2.58-3,10.48Zm-12.6,6.53a2.23,2.23,0,0,0-.15-1.9,3.09,3.09,0,0,0-1.52-.83,2.67,2.67,0,0,0-.15,2.73h1.82Zm-1.67-33.1a1.19,1.19,0,0,0-.15,1.67A2.89,2.89,0,0,0,269,287Q268.68,284.7,267.47,284.1ZM274,351.21a3.3,3.3,0,0,0-2.73-.76,2.72,2.72,0,0,0,.46,1.67,2.13,2.13,0,0,1,.15,1.82,1.22,1.22,0,0,0,1.52-.76Q273.69,352.27,274,351.21Zm0.76-2.13q-0.76,1.22-.15,1.9a8.33,8.33,0,0,0,1.82,1.44,6.19,6.19,0,0,0-.76-1.9Q275.21,349.84,274.76,349.08Zm2-24.75a7.5,7.5,0,0,0,1.14-1.52q0.53-.91-1-1.21-0.15.61-1.21,0.46Q275.36,324.19,276.73,324.33ZM281.89,352l1.21,0.15v-1.21l-1.21-.15V352Zm11.54-5.62a12.78,12.78,0,0,1-1.44-.08,0.68,0.68,0,0,0-.84.38,1.52,1.52,0,0,0,1.37.68A1,1,0,0,0,293.43,346.35Zm1.67-31.43q0.15-1.67-1.67-1.37v1.37h1.67Zm-0.91-7.44q-0.31.76,0.08,1a0.82,0.82,0,0,0,.84,0,3.19,3.19,0,0,0,.83-0.61,0.53,0.53,0,0,0-.08-0.83,0.75,0.75,0,0,0-.91,0A3.54,3.54,0,0,0,294.19,307.48Zm1.67-16.25a0.61,0.61,0,0,1,.61.3,1,1,0,0,0,.61.46q-0.31-2.12-1.21-2v1.21Zm0.76,11.84a1.29,1.29,0,0,0,.53,1.9q1.14,0.68,1.59-.23a0.77,0.77,0,0,1-.76-0.3,2.63,2.63,0,0,1-.23-0.68,1.17,1.17,0,0,0-.3-0.61A0.88,0.88,0,0,0,296.62,303.08Zm0.3,4.56a1.16,1.16,0,0,0,1.59-.53q0.68-1-.38-1.14a0.67,0.67,0,0,1-.76.68Q296.77,306.57,296.93,307.63Zm2.43-4.56a2.76,2.76,0,0,1,.08-1.44c0.15-.46.28-0.86,0.38-1.21a0.8,0.8,0,0,0-.15-0.83,2.08,2.08,0,0,0-1.37-.3,10.54,10.54,0,0,1,0,2.51A1,1,0,0,0,299.36,303.08Z" transform="translate(-149.64 -251.24)"/><path class="cls-1" d="M331.7,352.12a3.75,3.75,0,0,1-.15-1.9,6.42,6.42,0,0,1,.61-2,4.13,4.13,0,0,1,1.14-1.44,1.4,1.4,0,0,1,1.59-.08,11,11,0,0,1,.46-1.21l0.15,7.29c0.1,0.41-.15.66-0.76,0.76a1.54,1.54,0,0,1-.68-0.08,0.31,0.31,0,0,0-.23-0.08v0.15l-3.64.15a1.51,1.51,0,0,0-.68-0.15,1.51,1.51,0,0,1-.68-0.15v0.3h-3.19a16.64,16.64,0,0,1,0-3.19,6.61,6.61,0,0,0,0-2.12q-0.46,1.37-1,2.73t-1.14,2.58l-10.33.15-1.06-.3v-6.83h0.3a1.6,1.6,0,0,1,.53-1.67,1.6,1.6,0,0,0,.53-1.67,2.21,2.21,0,0,0-1.37.46V342.4l-0.61-32.19q0.3,0.31.76-.46t-0.76-1.06l-1.06-56.48,0.46-.61h0.76q0,1.06,1.06,0l19.89-.3q1.37-.3,1.06,1.06l0.3,15.49a0.61,0.61,0,0,1-.15-0.46,5.74,5.74,0,0,0-3.34-4.4,2.15,2.15,0,0,0,.15,1.44,2.83,2.83,0,0,0,.68.83c0.25,0.2.53,0.41,0.83,0.61a1.49,1.49,0,0,1,.61.91,1.64,1.64,0,0,1-1.21.46q-0.76,0-.46,1.21a1.84,1.84,0,0,1,1.59-.38,10,10,0,0,1,1.29.53l0.15,6.38h-0.3c-0.2-.61-0.41-1.24-0.61-1.9s-0.91-1.09-2.13-1.29a2.56,2.56,0,0,1-.68,1.9q-0.68.68-1.59-.23V275a0.93,0.93,0,0,1,.68.23,2,2,0,0,0,.53.38,3.51,3.51,0,0,1,1.06-1.67,9.19,9.19,0,0,0,3,2.13v1.37a8.17,8.17,0,0,0-1.14.08,5.92,5.92,0,0,0-1.29.38,5.25,5.25,0,0,0-.46,4.4q0.76,2.13,1.52,3.8a2.07,2.07,0,0,1,1.52.61l0.61,33.4a2.72,2.72,0,0,1-1.67-.46,0.94,0.94,0,0,1-.3,1.06,5.06,5.06,0,0,0-.76.61l1.67,1.67q-1.22,1.22-2,.23a9.66,9.66,0,0,1-1.29-1.9c0,0.81,0,1.57.08,2.28a2,2,0,0,1-.53,1.67,3.47,3.47,0,0,0,1.67-.08,7.75,7.75,0,0,0,1.14-.53,5.65,5.65,0,0,1,1-.46,1.84,1.84,0,0,1,1.21.15v0.91h-0.15a1.45,1.45,0,0,1,.08.83,1.41,1.41,0,0,0,.08.83l0.15,12q-0.61,2.58-1.37,5.16a8.64,8.64,0,0,1-2.73,4.25,1,1,0,0,0-.23-1.06,1.28,1.28,0,0,1-.38-1.06q0.76-.15,1.37-0.23t0.3-1q-1.67-.3-2.13.61a6.39,6.39,0,0,1-1.21,1.67c-0.51-.61-0.86-0.63-1.06-0.08a1.84,1.84,0,0,1-1.06,1.14,3.54,3.54,0,0,1,1.52.76,2.27,2.27,0,0,1,.61,1.06,10.37,10.37,0,0,1,.23,1.29,3.74,3.74,0,0,0,.38,1.29,0.73,0.73,0,0,1,1.06-.3A0.94,0.94,0,0,0,331.7,352.12Zm-16.55-87.46a1.83,1.83,0,0,0-1.75,1,5.39,5.39,0,0,0-.61,2.28,6,6,0,0,0,.38,2.51,1.85,1.85,0,0,0,1.37,1.37,10.75,10.75,0,0,1-.61-3.95Q313.93,265.42,315.15,264.66Zm-2.28,46.16a2.16,2.16,0,0,0,.08,1.29,5.89,5.89,0,0,0,.83,1.29,3.82,3.82,0,0,1,.76,1.37h3.8a5.52,5.52,0,0,0-2.58-2A8.63,8.63,0,0,1,312.87,310.82Zm2.28,28.7a0.74,0.74,0,0,0,.91,0,1.13,1.13,0,0,0,.3-0.83,3.13,3.13,0,0,0-.15-1,0.6,0.6,0,0,0-.61-0.46,2.56,2.56,0,0,1-.46,1A1.38,1.38,0,0,0,315.15,339.52Zm0.46-40.24a0.35,0.35,0,0,0-.23-0.38c-0.15,0-.23.08-0.23,0.38a14.81,14.81,0,0,0,2,4.93q1.52,2.51,3.49,5.54a47.3,47.3,0,0,1-.3-7.67,12,12,0,0,0-1.37-6.6q0.3,2.13-.83,2.73A16.15,16.15,0,0,1,315.6,299.28Zm5-31.89a1.07,1.07,0,0,0,.3-1.44q-0.45-.68.76-1.29a7.91,7.91,0,0,1,1.59,2.51,23.07,23.07,0,0,0,1.52,3,7.08,7.08,0,0,0,1.9,2.13,2.62,2.62,0,0,0,2.73,0,2.06,2.06,0,0,1-.53-1.52,4.22,4.22,0,0,1,.53-1.59q0.46-.83.91-1.59c0.3-.51.56-1,0.76-1.37a2,2,0,0,0-2.73,0,3.83,3.83,0,0,1-.76-2,1.32,1.32,0,0,0-1.52-1.21,2.37,2.37,0,0,1,.61,1.44,3.35,3.35,0,0,1-.3,1.37c-0.2.46-.38,0.91-0.53,1.37a1.34,1.34,0,0,0,.23,1.29,1.43,1.43,0,0,1-1.14-1.67,3.05,3.05,0,0,0-.53-2.13,38.73,38.73,0,0,0-4.48-1.14,4.5,4.5,0,0,0-4.33,1.14Q319.39,265.42,320.61,267.39Zm-4.4-1.21a0.67,0.67,0,0,0,.08.91,1.9,1.9,0,0,0,1,.38,2.15,2.15,0,0,0,1.14-.15,0.69,0.69,0,0,0,.53-0.53q-1.06.31-1.29-.3T316.21,266.18Zm1.67,31.43a0.48,0.48,0,0,0,.3-0.68,7.64,7.64,0,0,1-.23-1.06,1.09,1.09,0,0,1,.15-0.83,1.79,1.79,0,0,1,1.44-.15q-0.15-1.67-.15-3.95t-0.15-4.63a40.85,40.85,0,0,0-.53-4.48,7.86,7.86,0,0,0-1.44-3.49,22.64,22.64,0,0,1,.61,5.85,20.07,20.07,0,0,0,.46,5.24,4.54,4.54,0,0,1-1.21.53,1.29,1.29,0,0,0-.91,1.14,1.43,1.43,0,0,1,1.06.91,4.06,4.06,0,0,1,.08,1.37,4.41,4.41,0,0,1-.46,1.52,4.26,4.26,0,0,1-.68,1.06A2.73,2.73,0,0,0,317.88,297.61ZM318.94,350a6.88,6.88,0,0,1,2.28-3.8c-0.51-.2-0.71-0.4-0.61-0.61h-1.06a2.19,2.19,0,0,1-.3,1.67,6.55,6.55,0,0,1-1.59,1.37,4.2,4.2,0,0,0-1.44,1.37h2.73Zm2.28-39.63a2.84,2.84,0,0,1-1.67.15,3.74,3.74,0,0,0-1.52,0,1.43,1.43,0,0,0-.76.91,1.81,1.81,0,0,1,1.14.3,4.64,4.64,0,0,1,.68.68,3.25,3.25,0,0,0,.76.68,1.56,1.56,0,0,0,1.37,0v-2.73Zm-2.88,31.28a1,1,0,0,0-.38,1.06,0.65,0.65,0,0,0,.53.3,0.5,0.5,0,0,0,.46-0.38A1,1,0,0,0,318.33,341.64Zm0-6.53a0.74,0.74,0,0,0,.91,0,1,1,0,0,0,.3-0.76,1.31,1.31,0,0,0-.3-0.83,0.68,0.68,0,0,0-.91-0.08v1.67Zm0.61-21a0.74,0.74,0,0,0,0,.91,1.12,1.12,0,0,0,.83.3,3.07,3.07,0,0,0,1-.15,0.52,0.52,0,0,0,.46-0.46,2.49,2.49,0,0,1-1-.46A1.67,1.67,0,0,0,318.94,314.16Zm0-49c-0.2-.61-0.1-0.93.3-1a11.23,11.23,0,0,1,1.37-.08,2,2,0,0,1-.38.53,0.73,0.73,0,0,0-.23.53h-1.06Zm2.73,48.44a4.24,4.24,0,0,0,1.59,3.34q1.59,1.37,2.81.61a2.28,2.28,0,0,1-1.14-.91c-0.25-.4-0.51-0.84-0.76-1.29a5.51,5.51,0,0,0-.91-1.21A2.17,2.17,0,0,0,321.67,313.55Zm2.73,18.22a1.58,1.58,0,0,1,.08-1.06q0.23-.6.46-1.14a1,1,0,0,0,.08-0.83,1.19,1.19,0,0,0-1.06-.3q-0.31,1.22-.46,2A1.34,1.34,0,0,0,324.41,331.77ZM325,328a0.65,0.65,0,0,1,.38-0.61,1.09,1.09,0,0,1,.61.61q0.38,0.61.68,0.46a2.33,2.33,0,0,0-1.06-1.9,8.1,8.1,0,0,1-1.67-1.29,0.83,0.83,0,0,0-.08,1.37A5.88,5.88,0,0,1,325,328Zm0.61,1.67a7.55,7.55,0,0,1,1,4.33,8.57,8.57,0,0,0,.53,3.87,7.33,7.33,0,0,1,.68-1.59q0.53-1,.91-1.9a4,4,0,0,0,.38-1.37c0-.3-0.25-0.35-0.76-0.15,0.4,0,.46.28,0.15,0.83a1.34,1.34,0,0,1-.76.84,1.25,1.25,0,0,1-.23-1.29,3.19,3.19,0,0,1,.83-1.44,0.73,0.73,0,0,0,.53-0.23,0.73,0.73,0,0,1,.53-0.23c0.2,0,.33.2,0.38,0.61s0.1,0.79.15,1.14a7.89,7.89,0,0,0,.15.84q0.07,0.31.38-.46c-0.2-.91-0.1-1.47.3-1.67a1.93,1.93,0,0,0,.91-1.06,1.87,1.87,0,0,1-1.29-.68,4.63,4.63,0,0,0-1-1,3.19,3.19,0,0,1-1.14,1.37q-0.84.61-1.14-.76,0.76-.15,1.37-0.23t0.3-1q-1.52-.3-1.75.53A1.12,1.12,0,0,1,325.62,329.65Zm2.73,23.08a12,12,0,0,1-.3-1.37,12.31,12.31,0,0,1,.3-1.37h-1.67a3.31,3.31,0,0,1-.15.83c-0.1.36-.2,0.68-0.3,1a2.84,2.84,0,0,0-.15.91,0.65,0.65,0,0,0,.61.61,2.92,2.92,0,0,1,.08-0.91,0.22,0.22,0,0,1,.3-0.08,2,2,0,0,1,.53.3A0.79,0.79,0,0,0,328.35,352.73Zm0-25.81a1.27,1.27,0,0,1,.15-1.06,8.62,8.62,0,0,0,.53-0.91,4,4,0,0,0,.3-0.76,0.66,0.66,0,0,0-.53-0.61,2.4,2.4,0,0,1-.61.91,3.56,3.56,0,0,0-.68.91,1.45,1.45,0,0,0-.15.91A1,1,0,0,0,328.35,326.92Zm0.46,17.61a7.69,7.69,0,0,1,.08-0.91,4.36,4.36,0,0,0,0-1.14,1.34,1.34,0,0,0-.23-0.68c-0.1-.1-0.2.05-0.3,0.46a7.74,7.74,0,0,0-.08,2Q328.35,345.75,328.81,344.53Zm0.61-6.07a1.64,1.64,0,0,0,.53-1.37,1.1,1.1,0,0,0-1.14-.91,1.88,1.88,0,0,0-.38,1.37A1,1,0,0,0,329.42,338.46Zm0-21a0.42,0.42,0,0,1-.61.46v1.21a0.54,0.54,0,0,0,.76,0,2,2,0,0,0,.46-0.68,1,1,0,0,0,0-.76A0.42,0.42,0,0,0,329.42,317.5Zm1.67,2.13h1.06v-1.06h-1.06v1.06Zm1.67,8.81a7.91,7.91,0,0,0-.23-2,1.12,1.12,0,0,0-1.44-.68,6.36,6.36,0,0,1,.38,1.9A0.87,0.87,0,0,0,332.76,328.43ZM333.82,280a0.45,0.45,0,0,1,.3.15l0.15,0.76Z" transform="translate(-149.64 -251.24)"/><path class="cls-1" d="M355.23,338.3a0.87,0.87,0,0,1-.83-0.08,1.15,1.15,0,0,1-.3-0.61,0.72,0.72,0,0,0-.38-0.53,1.92,1.92,0,0,0-1.21.15q-0.31,2.58-.46,3.8a23.52,23.52,0,0,0-.15,2.89q-6.53-7.89-6.07-22.62l0.3-9.11q0.15-2.58.46-5t0.61-4.55a10.18,10.18,0,0,1,.15,3.87,2.32,2.32,0,0,0,.76,2.5,11.23,11.23,0,0,0,.46-3.49,3.56,3.56,0,0,0-1.21-3,25.48,25.48,0,0,1,5.47-11.39,2.31,2.31,0,0,0,.91-0.76h-0.46q8.66-9.87,27.48-9.11,1.06,0,2.28.08t2.43,0.23c-0.2.61-.41,1.19-0.61,1.75a2.16,2.16,0,0,0,0,1.59,0.87,0.87,0,0,0,.84-0.08,1.16,1.16,0,0,0,.3-0.61,1.68,1.68,0,0,1,.3-0.68,0.56,0.56,0,0,1,.68-0.15,8.34,8.34,0,0,1-.46-1.67q2,0.31,3.95.76t3.8,0.76v0.3a1.14,1.14,0,0,0,.46.15,0.87,0.87,0,0,1,.46.3l-0.15,2a0.83,0.83,0,0,1-.46-0.3,1.53,1.53,0,0,0,.46,1.82l-0.46,14q-0.76-.15-2-0.46a0.51,0.51,0,0,0-.3-0.68,3.27,3.27,0,0,0-.91-0.3,1.24,1.24,0,0,0-.76.08c-0.2.1-.2,0.2,0,0.3a31.21,31.21,0,0,0-3.11-.46q-1.59-.15-3.72-0.3a13.93,13.93,0,0,0-4.71.15,3.34,3.34,0,0,1-.15-1.06,5.09,5.09,0,0,0-.15-1.21,1.85,1.85,0,0,0-.38-0.83q-0.23-.23-0.68.53a1.34,1.34,0,0,1,.3.91,4.69,4.69,0,0,0,.61,1.67l-1.21.15,0.15-.46h-1.06a1.5,1.5,0,0,1-.68.15,0.31,0.31,0,0,0-.38.3l0.46,0.46q-5.16,2-6.07,10.17a4,4,0,0,0-.76-0.83,2,2,0,0,0-1.67-.08,5.15,5.15,0,0,0,.91,1,5.65,5.65,0,0,0,1.21.83v1.67a5.78,5.78,0,0,0-1.21,1.29,8.66,8.66,0,0,1-1.82,1.75,0.66,0.66,0,0,0-.61-0.53l-0.76.23a2.63,2.63,0,0,1-.84.15,0.55,0.55,0,0,1-.53-0.46l1.06,0.15a16.42,16.42,0,0,0-.76-2.51,7.12,7.12,0,0,1-.46-2.66,1.23,1.23,0,0,1,.68.53,7.69,7.69,0,0,0,.46.68,1.77,1.77,0,0,0,1.9.61q0.3-2.28-1.37-3a3.56,3.56,0,0,0-3.34.15,8,8,0,0,0,.76,2.88,7.19,7.19,0,0,1,.61,3.19,5.41,5.41,0,0,0-2.28.83q-1.06.68-2,1.29a8.23,8.23,0,0,1-2,.91,2.64,2.64,0,0,1-2-.15,1.93,1.93,0,0,0,.38-2.43,4.14,4.14,0,0,1-.23-3,2.05,2.05,0,0,0-1.44,2.28,21.51,21.51,0,0,1,.23,3.19,1.11,1.11,0,0,0-1.21-.15,1.88,1.88,0,0,0-.46.76c-0.1.3-.2,0.58-0.3,0.83s-0.41.28-.91,0.08a3,3,0,0,1,1,1.9,13.05,13.05,0,0,1,0,2,7,7,0,0,0,.08,1.82,2.63,2.63,0,0,0,1.52,1.59,0.84,0.84,0,0,0-.3-1.37,1.33,1.33,0,0,1-.76-1.37,7.65,7.65,0,0,0,.76-2.58,4.54,4.54,0,0,1,.46-1.82,4,4,0,0,1,1.29,2.58q0.23,1.67.38,3.34a16,16,0,0,0,.61,3.19,3.21,3.21,0,0,0,1.82,2.13,3.68,3.68,0,0,0-.76,1.82,1.89,1.89,0,0,1-1.06,1.52,12.4,12.4,0,0,1-1.67-.83,1.37,1.37,0,0,0-1.67.08,14.12,14.12,0,0,1,1.29,2.2A13.62,13.62,0,0,0,355.23,338.3Zm-6.83-38.72a2.16,2.16,0,0,1,.08,1,0.58,0.58,0,0,0,.53.68c0-.4.15-0.61,0.46-0.61A0.87,0.87,0,0,0,348.4,299.58Zm0.15,14.88a5.68,5.68,0,0,1,1.59-.38,1.3,1.3,0,0,0,1.14-.68,0.5,0.5,0,0,1-.61-0.53,8.91,8.91,0,0,1,.08-1.14,3.24,3.24,0,0,0,0-1c-0.05-.25-0.38-0.28-1-0.08q0.6,2,0,2.2A2.85,2.85,0,0,0,348.55,314.46Zm1.52-15.94a1.86,1.86,0,0,0,.3,2q0.76,0.84,1.37-.38a0.93,0.93,0,0,1-.68-0.23,1.81,1.81,0,0,1-.38-0.83A0.65,0.65,0,0,0,350.07,298.52Zm3.64,5a3.08,3.08,0,0,1-1,.15,0.64,0.64,0,0,0-.68.46h1.21q0,1.52.46,1.67v-2.28Zm1.37-3.19a1.16,1.16,0,0,1-.15,1.06,2.3,2.3,0,0,1-1.21.46,1.21,1.21,0,0,0-1.06.61q0.76,0.15,1.82.46a1.35,1.35,0,0,0,1.67-.91,0.68,0.68,0,0,1-.61-0.91Q355.68,300.34,355.08,300.34Zm-0.46-2.89a1.38,1.38,0,0,0-1.29-.38,0.38,0.38,0,0,0-.23.53,0.94,0.94,0,0,0,.53.46A1,1,0,0,0,354.62,297.46Zm0,44.64h-1.06l0.15-1.06h1.06Zm3.64,5.77a14.8,14.8,0,0,0,.53-1.59,0.88,0.88,0,0,1,1.29-.53,4.46,4.46,0,0,1,1.06,2.35q0.3,1.6.61,3.26a33,33,0,0,1-3.57-1.9,31.07,31.07,0,0,1-3.11-2.2h0.46a2.91,2.91,0,0,0-.15-0.91c-0.1-.3-0.41-0.4-0.91-0.3v0.61a2.68,2.68,0,0,1-.76-0.76c0.61-.2,1.16-0.4,1.67-0.61a5.39,5.39,0,0,1,2-.3,15.54,15.54,0,0,1,.23,1.67A1.36,1.36,0,0,0,358.27,347.87Zm3-9.87a2.75,2.75,0,0,1-1.21-.91,2.8,2.8,0,0,1-.3-2,0.76,0.76,0,0,0-.38.61,0.58,0.58,0,0,1-.68.46,3.79,3.79,0,0,1,1.06,3.57,8.1,8.1,0,0,0,.3,4.33,3.47,3.47,0,0,1-1.67.38,3.26,3.26,0,0,1-1.06-.3,4.75,4.75,0,0,1-.91-0.61,7.38,7.38,0,0,0-1.37-.83,28.9,28.9,0,0,1,.46-3.49,2.21,2.21,0,0,1,2-1.82,1.53,1.53,0,0,0-.91-1.21,1.86,1.86,0,0,0,1.29-1.14,8.32,8.32,0,0,0,1-2.66,2.16,2.16,0,0,1,1.21.3,2.75,2.75,0,0,1,.76.76,5.27,5.27,0,0,0,.68.83,2.15,2.15,0,0,0,1.14.53,2.09,2.09,0,0,1-.46,1.82A4,4,0,0,0,361.3,338Zm-3.49-39.78q-1.22.31-1.29-.53t-1.29-.68a5.44,5.44,0,0,1,0,1.82,0.77,0.77,0,0,0,.3.91,0.86,0.86,0,0,1,1.14-.76A0.86,0.86,0,0,0,357.81,298.22Zm-2,8.65c1.21-.2,1.92.05,2.13,0.76a2.89,2.89,0,0,0,1.21,1.67q0.46-1.52-.3-2a4.16,4.16,0,0,1-1.21-1.29h1.06a5.53,5.53,0,0,0-.15-1.44,1.7,1.7,0,0,0-.68-0.91,2.45,2.45,0,0,0-1.44-.38,1.28,1.28,0,0,0-.3,1.14,3.68,3.68,0,0,0,.38.91,1.47,1.47,0,0,1,.23.76A1.33,1.33,0,0,1,355.84,306.87Zm34.47,29.31a1.07,1.07,0,0,0,.91-0.15q0.76-.15,1.44-0.23c0.46,0,.94-0.13,1.44-0.23V336a0.42,0.42,0,0,0-.61.3,0.62,0.62,0,0,1,.61.46,3.25,3.25,0,0,1-.61.76,0.84,0.84,0,0,0-.15,1.06h0.61v1.67a1.07,1.07,0,0,0-.61.46c-0.2.61,0,.91,0.61,0.91l-0.3,4.71a2.61,2.61,0,0,0-1.29-.23q-0.53.08-.38,1.29a0.6,0.6,0,0,1-.53-0.68,12.09,12.09,0,0,1-.08-1.37,4.55,4.55,0,0,0-.08-1c-0.05-.2-0.18-0.1-0.38.3a1.19,1.19,0,0,1-.3,1.06,0.68,0.68,0,0,1-.68-0.08,5.71,5.71,0,0,1-1.14-1.14,2.09,2.09,0,0,1-.46,1.82,4,4,0,0,0-.91,1.37c0.3-.1.61,0.15,0.91,0.76a3.32,3.32,0,0,0,.68,1.06q0.23,0.15.68-.61-0.61-.15-0.61-1.67a0.72,0.72,0,0,0,.76-0.38c0.1-.25.4-0.28,0.91-0.08a1.19,1.19,0,0,0,.23,1.14,8.68,8.68,0,0,0,.76.68,2,2,0,0,1,.53.61,1,1,0,0,1-.3.91,2.49,2.49,0,0,1,1.52.91v2.28a17.13,17.13,0,0,1-2.05.46,14.79,14.79,0,0,1-2.2.15,1.51,1.51,0,0,0-.83-2,6.7,6.7,0,0,0-2.66-.91,1.83,1.83,0,0,0,1.21,1.82,3.67,3.67,0,0,1,1.82,1.21q-0.76.15-1.52,0.23a15.26,15.26,0,0,0-1.52.23V354.4a5.09,5.09,0,0,0-1.21-.76c-0.61-.3-1-0.1-1.06.61l0.61,0.3q-1.52.15-5.31,0.15a51.26,51.26,0,0,1-12.75-2,6.89,6.89,0,0,0-1.21-2.43,1,1,0,0,0,.61-0.23,3.86,3.86,0,0,1,.61-0.38,7.07,7.07,0,0,1,2.13,1.06q1.06,0.76,0,1.82,1.21-.3,1.44.3c0.15,0.4.58,0.51,1.29,0.3q0.46-1.52.91-3.19a2.82,2.82,0,0,1,2-2.13q-0.31,2.13,1.06,2.13c-0.1-.61,0-0.93.38-1a8.78,8.78,0,0,1,1.21-.08,10.21,10.21,0,0,0,1.29-.08q0.6-.07.46-0.83a4.48,4.48,0,0,1-1.14-.61,4.71,4.71,0,0,0-1.14-.61q0,1.52-.46,1.67,0.46-2.58-1.52-3.34a1.28,1.28,0,0,1-1.21,0,4.66,4.66,0,0,1-1.21-.91q-0.61-.6-1.29-1.21a3.23,3.23,0,0,0-1.29-.76q-0.31,1.82.76,2.2A2.11,2.11,0,0,1,371,346c-0.81.3-1.47,0.58-2,.83a2,2,0,0,1-2-.38,1.33,1.33,0,0,0,1.44-1.14,10.33,10.33,0,0,0-.08-2.13,11.88,11.88,0,0,1-.08-2.35,2.45,2.45,0,0,1,1.29-2,3.87,3.87,0,0,1-2.2-2.51,26.3,26.3,0,0,1-.84-3.72,0.89,0.89,0,0,1,.76.46,4.59,4.59,0,0,0,.53.68,0.87,0.87,0,0,0,.83.08,3,3,0,0,0-.23-2.28,4.23,4.23,0,0,0-1.29-1.21,4.12,4.12,0,0,1-1.29,2.5,10.37,10.37,0,0,0-1.75,1.9,1.21,1.21,0,0,1-1-.84,6.57,6.57,0,0,1-.3-1.37,1.42,1.42,0,0,0-.46-1,1.18,1.18,0,0,0-1.29.3,10,10,0,0,1-.84-2.2,2.47,2.47,0,0,1,1-2.2,3.35,3.35,0,0,1,.91,1,1.46,1.46,0,0,0,1.06.68,4.7,4.7,0,0,0-1.06-2,10.27,10.27,0,0,0-1.75-1.52c-0.66-.46-1.29-0.93-1.9-1.44a7.78,7.78,0,0,1-1.52-1.67,1,1,0,0,0,.46-1.21,0.78,0.78,0,0,1,.61-1.06,1.25,1.25,0,0,0,.76,1,1.74,1.74,0,0,0,1-.15l1.21-.53a2.36,2.36,0,0,1,1.44-.15q-0.61,3.49,1.52,4.4a2.6,2.6,0,0,1-.38.91c-0.15.2,0.13,0.3,0.83,0.3a8.55,8.55,0,0,1,0-5.09,13.33,13.33,0,0,0,.91-3.11,1.85,1.85,0,0,0,2.35-.15,9.09,9.09,0,0,0,1.75-2.28l-0.15,3.19a19,19,0,0,0-1.82,2,1.43,1.43,0,0,1,.91,1.14,2.65,2.65,0,0,0,.76,1.44,2.64,2.64,0,0,1,.15,1.06,11.72,11.72,0,0,0-1.52-1.29,11.12,11.12,0,0,1-1.52-1.29,1.78,1.78,0,0,0-.3,2q0.45,1.06.76,2a3.31,3.31,0,0,1,2.58.15,13.34,13.34,0,0,0,.76,3.49,5,5,0,0,1-1.06-1.82,1.89,1.89,0,0,0-.61,1.37,3.84,3.84,0,0,0,.38,1.59,16.24,16.24,0,0,0,1.59,2.5,3.34,3.34,0,0,0,.46-2q2.12,4.25,8.2,5.16a5.19,5.19,0,0,0,.15,2.2,3.43,3.43,0,0,1-.76,2.66,1.78,1.78,0,0,1,1.44,1.44,3.23,3.23,0,0,0,1.14,1.9c0-.4.08-0.58,0.23-0.53a1.23,1.23,0,0,1,.46.3,3.14,3.14,0,0,0,.61.46,0.73,0.73,0,0,0,.84-0.08,2.57,2.57,0,0,0,.15-1.44,2.61,2.61,0,0,0-.46-0.91,2.14,2.14,0,0,0-.83-0.61,2.58,2.58,0,0,1-.84-0.53q1.37,0.31,2.51.61a1.63,1.63,0,0,0,1.9-1.06,4.05,4.05,0,0,1-2.43-1.59c-0.51-.76-1-1.54-1.52-2.35H383a16.17,16.17,0,0,0,2.73-.15v0.3a2.65,2.65,0,0,1,1.9.23,1.59,1.59,0,0,1,.46.91,10.71,10.71,0,0,0,.23,1.14,0.93,0.93,0,0,0,1.06.61,2.18,2.18,0,0,0-.08-1.75,1.88,1.88,0,0,1-.23-1.44A3.19,3.19,0,0,1,390.31,336.18ZM357.36,312a2.35,2.35,0,0,0,1.82.68,1.08,1.08,0,0,0,1.37-1.14,1.66,1.66,0,0,1-.84-1.37q-0.08-.91-1.75-0.46a2.55,2.55,0,0,1-.46,1A1.65,1.65,0,0,0,357.36,312Zm2.43-20.35q-1.37-.3-1.59.61a3.2,3.2,0,0,1-.84,1.52,9.57,9.57,0,0,0,1.75-.46Q359.94,293.06,359.79,291.69Zm-2.43,35.23q0.91-.3,1.06.15a2.19,2.19,0,0,1,0,1.14,5.92,5.92,0,0,0-.15,1.29,0.54,0.54,0,0,0,.61.61q-0.46.61-.68,0.3a2.05,2.05,0,0,1-.3-1c-0.05-.46-0.13-0.93-0.23-1.44A4.86,4.86,0,0,0,357.36,326.92Zm3.49-34a9.7,9.7,0,0,1-.68,1.59c-0.25.46-.83,0.58-1.75,0.38a11.81,11.81,0,0,0-.15,4.25,5.86,5.86,0,0,0,1.52,3.49,6.59,6.59,0,0,1,.38-3q0.53-1.37,1.06-2.51a6.24,6.24,0,0,0,.61-2.13A2.7,2.7,0,0,0,360.85,292.9Zm-0.3,56.18-1.21-.15V350l1.06,0.15Zm-0.76-39.78c0.61,0.51,1.09.56,1.44,0.15a4.31,4.31,0,0,0,.83-1.67q0.3-1.06.61-2.28a2.54,2.54,0,0,1,1.06-1.67,3.49,3.49,0,0,0-2.28-.68q-1.67-.07-1.67,1.14a1.83,1.83,0,0,1,1.21,1.9,10.86,10.86,0,0,0,.3,2.66,1.64,1.64,0,0,1-1,0C360,308.75,359.79,308.9,359.79,309.3Zm1.06,29.91a1.19,1.19,0,0,1,1.44,1.14,2.19,2.19,0,0,1-.53,2,0.87,0.87,0,0,1-1-1.06Q360.85,340.28,360.85,339.21Zm1.21-50.71c0.1,0.81-.08,1.24-0.53,1.29a0.73,0.73,0,0,0-.68.84,6.71,6.71,0,0,0,3.49-2.13h-2.28Zm0,27q0.46-2-.91-2.28A3.7,3.7,0,0,0,362.06,315.53Zm0.3,30.22a0.88,0.88,0,0,1,1.21-1c0.81,0.15,1.06.74,0.76,1.75a1.78,1.78,0,0,1-1.14-.3A2.73,2.73,0,0,0,362.37,345.74Zm1.82-52.38q0-1.37-1.67-1.06v1.06h1.67Zm0.46,46.46A3.32,3.32,0,0,0,363,338a1.15,1.15,0,0,0,.53-0.61,1.58,1.58,0,0,0,0-.68c-0.05-.25-0.1-0.48-0.15-0.68a0.89,0.89,0,0,1,.38-0.76,8.68,8.68,0,0,1,1.06,1.52,3.83,3.83,0,0,1,.38,1.21,5,5,0,0,1,0,1.21,6.54,6.54,0,0,0,.08,1.67,1.85,1.85,0,0,1-.84-0.61Q364,339.82,364.64,339.82Zm0.91-10.93q0.46-2.43-1.52-2.43a4,4,0,0,0,.08,1.82A1.37,1.37,0,0,0,365.56,328.89Zm-0.91-20.5a1.71,1.71,0,0,0,1-1.29,0.52,0.52,0,0,0-.53-0.53,1.17,1.17,0,0,0-.84.38Q363.88,307.33,364.64,308.39Zm3.49-3.8a1.1,1.1,0,0,0-.3-1.14,1.44,1.44,0,0,0-.91-0.38,1.16,1.16,0,0,0-.83.38,1.19,1.19,0,0,0-.23,1.14h2.28Zm-0.3,3.34c0.61,0.81.86,1.09,0.76,0.83a6.59,6.59,0,0,0-.61-1.06,7,7,0,0,0-.76-1c-0.2-.2-0.15.2,0.15,1.21h0.46Zm-0.3,42.21q0.15-.91,1-0.38t1.14,0.68a5.26,5.26,0,0,1-.3-1.67q1.52,0.31,1.67-.46,0.91,0.3-.08,1.14a4.34,4.34,0,0,0-1.29,1.59,1.07,1.07,0,0,1-1-.38A1.6,1.6,0,0,0,367.53,350.15ZM370,301a1.07,1.07,0,0,1-1.21.68c-0.61,0-.81.38-0.61,1.29a1.6,1.6,0,0,1,1.21-.46,0.69,0.69,0,0,1,.3.68,8.87,8.87,0,0,0,.08,1.14,5.43,5.43,0,0,0,.23,1.06,5.3,5.3,0,0,0,.46-2.05A3.25,3.25,0,0,0,370,301Zm-1.21,34.16a1.09,1.09,0,0,0,.38,1.67q1,0.61,1.14-.15c-0.61,0-.89-0.25-0.84-0.76A0.6,0.6,0,0,0,368.74,335.11Zm1.52-.61q-0.61.91-.3,1.14a0.92,0.92,0,0,0,.83.08,0.74,0.74,0,0,0,.61-0.53Q371.48,334.81,370.26,334.51Zm-0.15,3.8a6.07,6.07,0,0,0,1.82,1c0.1,0,0-.2-0.3-0.46a5.66,5.66,0,0,0-1.06-.68C370.16,338,370,338,370.11,338.3Zm4.71-40.09q-1.06.15-1.21-.38t-1.37-.23a1.29,1.29,0,0,0,1.21,1.52Q374.82,299.44,374.82,298.22Zm-0.91,45.25a9.57,9.57,0,0,1,.46-3q0.46-1.37-1.37-2a4.07,4.07,0,0,1-.08,1.75,10.57,10.57,0,0,0-.3,1.44,1.81,1.81,0,0,0,.15,1.06A1.86,1.86,0,0,0,373.91,343.47Zm2.28-50.11a1.88,1.88,0,0,0-1,2,2.14,2.14,0,0,0,1.44,1.75,1.87,1.87,0,0,1,0-1.06,10.84,10.84,0,0,0,.23-1.21,2.44,2.44,0,0,0-.08-1.06A0.6,0.6,0,0,0,376.18,293.36Zm4.1,55.27a2.06,2.06,0,0,0-.61-1.9q-0.76-.68.3-1.44c-0.2-.1-0.76-0.4-1.67-0.91a5.45,5.45,0,0,0-1.75-.76q-0.38,0,.08.46c0.61,0,.81.36,0.61,1.06a3.89,3.89,0,0,0-.15,1.82,1.16,1.16,0,0,1,1.06.15,1.93,1.93,0,0,1,.46.76,1.87,1.87,0,0,0,.46.76A1.22,1.22,0,0,0,380.28,348.63Zm2.13-63.32a19.68,19.68,0,0,0-1.44,5.54,7.9,7.9,0,0,1-2,4.78,1.39,1.39,0,0,1,.76,1q0.15,0.68,1.37.23a4.61,4.61,0,0,0,.53-2.13q-0.08-.76-0.38-2.28a1.43,1.43,0,0,1,1.06.76,1.91,1.91,0,0,0,1.06.91,3.18,3.18,0,0,1-.91-2.35,17.07,17.07,0,0,1,.23-2.81c0.15-.91.25-1.69,0.3-2.35A1.19,1.19,0,0,0,382.41,285.31Zm-2.28,52.84a1.54,1.54,0,0,1-.38-1.14,2.78,2.78,0,0,1,.23-0.83,4.67,4.67,0,0,1,1.37.15,3.34,3.34,0,0,0,.46,2Zm2-56.18a10.27,10.27,0,0,1-.61,1.06,9.68,9.68,0,0,0-.61,1.06,1.12,1.12,0,0,0,1.44-.76Q382.86,282.28,382.11,282Zm2.43,10.63q-0.76.91-.46,1.14a0.92,0.92,0,0,0,.83.08,1,1,0,0,0,.68-0.53Q385.75,292.91,384.54,292.6Zm0.91,52.23a0.7,0.7,0,0,0-.46.76,2.86,2.86,0,0,0,.23,1.14,1.55,1.55,0,0,0,.61.76q0.38,0.23.53-.23c-0.41,0-.61-0.13-0.61-0.38a2.65,2.65,0,0,1,.15-0.83,2.7,2.7,0,0,0,.15-0.83C386.05,345,385.85,344.83,385.45,344.83Zm7.29,4.71a0.86,0.86,0,0,0,.68-0.15c0-.1,0-0.23-0.23-0.38l-0.76-.53a0.81,0.81,0,0,1-.46-0.61,2.26,2.26,0,0,1,1.67-.61v2.43A4.06,4.06,0,0,1,392.73,349.54Z" transform="translate(-149.64 -251.24)"/><path class="cls-1" d="M464.71,335q-3.19,11.39-11.24,16.17t-19.89,4.48a22.32,22.32,0,0,1-3.34-.15,2.78,2.78,0,0,0-1.37-1q-0.76-.23-0.15.53a0.81,0.81,0,0,1,.61.46,37.09,37.09,0,0,1-8.35-1.82,3.9,3.9,0,0,1,2.88-1.52,1.35,1.35,0,0,0-.3-1.59,1.34,1.34,0,0,1-.3-1.59,0.92,0.92,0,0,0-.76,0,1.38,1.38,0,0,0-.15.84,1.39,1.39,0,0,1-.15.83,5.25,5.25,0,0,1-2.28,1.06,7.32,7.32,0,0,0-2.12.76,24.48,24.48,0,0,1-10.71-9.34q-4-6.3-4.78-16.78h0.61v-1.06h-0.76V311.88L402.3,312a3.43,3.43,0,0,1,0-1.44,3.5,3.5,0,0,0,0-1.44,3.19,3.19,0,0,0,.15-1.21,0.85,0.85,0,0,0,.46-0.3l-0.3-.3q1.06-10.48,6.07-16.85a1.77,1.77,0,0,1,1.75.23,2,2,0,0,0,1.75.38c0.2-.71.13-1.14-0.23-1.29s-0.43-.63-0.23-1.44a3.84,3.84,0,0,1,1.29.84,2.28,2.28,0,0,0,2,.23q-0.46-1.52-1.29-1.59a4.94,4.94,0,0,1-2-.83,3.74,3.74,0,0,1,.53-0.46,3.59,3.59,0,0,0,.53-0.46,5.17,5.17,0,0,0,2.2.3,1.29,1.29,0,0,1,1.14.3c0.2,0.1.23,0.3,0.08,0.61s-0.1.46,0.15,0.46,0.4-.2.46-0.61a1.05,1.05,0,0,0-.23-0.91,9.35,9.35,0,0,0,2.43,0,4,4,0,0,0,1.44-.61,1.4,1.4,0,0,0,.68-1.21,10.24,10.24,0,0,0-2.5,0,4.08,4.08,0,0,1-2.35-.61,31.39,31.39,0,0,1,4.1-2,1.64,1.64,0,0,0,1.21.46v-0.76q1.06-.3,2-0.53c0.66-.15,1.34-0.33,2-0.53a1.85,1.85,0,0,1,.68,1.67,13.68,13.68,0,0,1-.38,2.28h2.28a8.59,8.59,0,0,1-.23-2.2,6,6,0,0,0-.38-2q1.06-.15,2.13-0.23t2.13-.23c-0.2.41-.38,0.74-0.53,1a3.65,3.65,0,0,0-.38,1,1.87,1.87,0,0,0,1.82-.61,0.86,0.86,0,0,0-.15-1.37h2.13a5.4,5.4,0,0,1,1.52.15,17.56,17.56,0,0,0,2.13.76,7.44,7.44,0,0,0,3,0l-0.15-.3q0.91,0.15,1.82.23a5.86,5.86,0,0,1,1.67.38v0.76a2.91,2.91,0,0,1,.91-0.15,2.84,2.84,0,0,0,.91-0.15l2.5,0.91a22.38,22.38,0,0,1,2.51,1.06,0.81,0.81,0,0,0-.91.61c0.4,0,.55.13,0.46,0.38a2,2,0,0,1-.46.68,4.52,4.52,0,0,1,2.28.46V284.1a9,9,0,0,1,1.14.68,7.91,7.91,0,0,1,1,.83q0,2.73,1.21,3.8a2.59,2.59,0,0,0,.3-2.73q6.53,5.62,8.81,16.09l-1.29-.3q-0.68-.15-1.75-0.46a13.24,13.24,0,0,1-.08,1.44,0.67,0.67,0,0,0,.53.84q0.6-.76.76-0.61a1.82,1.82,0,0,1,.15,1q0,0.84.46,0.61a6.48,6.48,0,0,0,1.37-1.14,13.8,13.8,0,0,1,.38,2.43q0.07,1.22.23,2.58a15.48,15.48,0,0,0-.91-1.82,7.24,7.24,0,0,1-.76-2q-0.31,1.67-.38,2t-1.75-.3a1,1,0,0,0,.23,1.06,1,1,0,0,1,.23,1.06q0.76,0.31,1-.23a1.87,1.87,0,0,1,.68-0.84,0.5,0.5,0,0,0,.53.61,0.44,0.44,0,0,1,.53.46,2.89,2.89,0,0,1,.23,2.28,1,1,0,0,0,.53,1.37v9a60.28,60.28,0,0,1-1.37,12A0.93,0.93,0,1,0,464.71,335ZM405,307.63a2.27,2.27,0,0,0,.38-2.28,1.43,1.43,0,0,0-2-1.06,18.82,18.82,0,0,1,.53,2A1.69,1.69,0,0,0,405,307.63Zm-1.06,12a1.56,1.56,0,0,0,0,1.37,2,2,0,0,0,.76.68,3.15,3.15,0,0,0,1,.3,2.4,2.4,0,0,1,1,.38q-0.3-.6,0-0.76a3.15,3.15,0,0,1,.61-0.23,1.67,1.67,0,0,0,.53-0.23,0.84,0.84,0,0,0-.08-0.91,2.05,2.05,0,0,1-1.52-.61,2.58,2.58,0,0,1-.23,1.44,0.46,0.46,0,0,1-.61,0,2.64,2.64,0,0,1-.76-0.76A2.19,2.19,0,0,0,404,319.63Zm1.67,5.62h-1.06v1.06h1.06v-1.06Zm0.61,2.73a15.44,15.44,0,0,1,1.59.76q0.83,0.46,1.59.91a2.62,2.62,0,0,0-1.52-1.67Q406.55,327.22,406.25,328Zm3.19-2.73q0.3-1.52-.53-2a1.24,1.24,0,0,0-1.59.3,0.89,0.89,0,0,0,.61,1.21A8.85,8.85,0,0,1,409.44,325.25ZM410,297.15q2.12,1.06,2.13,0a0.35,0.35,0,0,1-.53-0.3,2.64,2.64,0,0,1,0-.91,5.19,5.19,0,0,0,.08-0.84c0-.25-0.2-0.33-0.61-0.23a0.82,0.82,0,0,1-.68.91Q409.74,295.94,410,297.15Zm3.34,37.35a1.79,1.79,0,0,1,1.52-.91l2-.46a1.36,1.36,0,0,0,.91-0.76,18.6,18.6,0,0,0-2.88.3,6,6,0,0,1-2.51.08,2.84,2.84,0,0,1-1.29-1,2,2,0,0,0,.76,1.75Q412.62,334.05,413.39,334.51Zm1.67-40.69a7.77,7.77,0,0,1-2.88-.23q-1.37-.38-0.46.68c0.1-.3.51-0.3,1.21,0a4.55,4.55,0,0,0,1.59.46Q415.05,294.73,415.06,293.81Zm-3.34,8.2a2,2,0,0,0,.23,1.9,2.3,2.3,0,0,1,.23,2h2.28a5.36,5.36,0,0,0-1-2.35A9.11,9.11,0,0,0,411.71,302Zm2.13,0a1.16,1.16,0,0,1,.83-1.29,3.19,3.19,0,0,0,1.44-.83,0.8,0.8,0,0,1-.76-0.84q0-.68-0.91-0.38,0.3,2-.46,1.67a2.45,2.45,0,0,1-1.21-1.06,1.16,1.16,0,0,0-.23,1.59A2.74,2.74,0,0,0,413.84,302Zm-1.06,22q3.64,0.91,4.4,1.67a1.14,1.14,0,0,0-.46-1.21,4.34,4.34,0,0,0-1.37-.68,3.9,3.9,0,0,0-1.52-.15A1.75,1.75,0,0,0,412.78,324Zm1.67-39.17a0.76,0.76,0,0,1-.91.61,1.74,1.74,0,0,0,.46-0.3A1.77,1.77,0,0,1,414.45,284.86Zm1.06,12.3q0.3-1.21-.46-1.21a1.64,1.64,0,0,1-1.21-.46Q413.39,297.61,415.51,297.15Zm-1.67,28.55v1.21h1.21V325.7h-1.21Zm0.61-16.55a4.4,4.4,0,0,1,1.67.38,16.06,16.06,0,0,1,1.59.76,2.43,2.43,0,0,0,1.06.38c0.25,0,.28-0.3.08-0.91-0.1.3-.33,0.36-0.68,0.15s-0.76-.46-1.21-0.76a4.07,4.07,0,0,0-1.37-.61A1,1,0,0,0,414.45,309.15Zm1.06-20.35c-0.2.51-.13,0.83,0.23,1A3.05,3.05,0,0,0,417,290a5.27,5.27,0,0,0,1.29-.15,0.62,0.62,0,0,0,.61-0.46,1.93,1.93,0,0,1-1.75-.15A2.4,2.4,0,0,0,415.51,288.8Zm0,16.55a2.06,2.06,0,0,0,1.29,1.44,13,13,0,0,0,2.13.61q1.14,0.23,2.2.53a2.33,2.33,0,0,1,1.52,1.21V306a1.72,1.72,0,0,0,1.59.38,2.1,2.1,0,0,0,1.29-1,5.15,5.15,0,0,0-1.59-.3,10.09,10.09,0,0,1-1.29-.08,2.4,2.4,0,0,1-1.06-.38,4.16,4.16,0,0,1-1.06-1.37,2.27,2.27,0,0,0,.15,2.13q0.6,1.06-.15,1.06l-2.58-1.14A2.18,2.18,0,0,0,415.51,305.35Zm1.06-5a1.2,1.2,0,0,1-.23,1.14,1.19,1.19,0,0,0-.23,1.14,1.81,1.81,0,0,0,1.82-.3,4.06,4.06,0,0,0,.91-1.37A3.59,3.59,0,0,1,416.57,300.34Zm2.28-6.53c-0.81-.2-1.29-0.13-1.44.23s-0.58.43-1.29,0.23a7.79,7.79,0,0,0,.46,1.82q0.3,0.76,1.67.46A3.94,3.94,0,0,1,418.85,293.81Zm0.61,37.5a0.86,0.86,0,0,0-.23-1,2.29,2.29,0,0,0-1.29-.15,1.43,1.43,0,0,1-1.37-.53q-0.46,1.67.61,1.59A11.88,11.88,0,0,1,419.46,331.32Zm-2.28-40.84a1.77,1.77,0,0,0,.15,1.44,0.42,0.42,0,0,0,.61-0.08,0.82,0.82,0,0,0,.23-0.76A1,1,0,0,0,417.18,290.47Zm0,46.31q2,0.15,1.67-2.28c-0.81-.1-1.24.13-1.29,0.68A5.76,5.76,0,0,1,417.18,336.79Zm3.95-35.23a4.6,4.6,0,0,0-.46-2.2,10.63,10.63,0,0,1-.76-1.75h-2.12a1.86,1.86,0,0,0,.46,1.37c0.3,0.3.61,0.58,0.91,0.83a3.05,3.05,0,0,1,.76,1,2.74,2.74,0,0,1,0,1.82,2.14,2.14,0,0,0,2.28-.53,3,3,0,0,1,1.67-1.14q-1.22-.3-1.52.23A1.06,1.06,0,0,1,421.13,301.56Zm-2.28,28.09a0.86,0.86,0,0,0,1,0,1.62,1.62,0,0,0,.53-0.76,1,1,0,0,0,0-.76q-0.15-.3-0.46.3,0,0.76-.46.61a2.74,2.74,0,0,0-1.21-2.13c-0.2.81-.13,1.29,0.23,1.44A1.09,1.09,0,0,1,418.85,329.65Zm0,9.87a0.54,0.54,0,0,1,.61-0.61c-0.1-.3-0.2-0.58-0.3-0.84a0.72,0.72,0,0,0-.91-0.23,3.15,3.15,0,0,1,.15,1A0.64,0.64,0,0,0,418.85,339.52Zm0-16.55a1.58,1.58,0,0,0,2,.38,2.53,2.53,0,0,0,1.37-1.44,1.58,1.58,0,0,0-2-.38A2.52,2.52,0,0,0,418.85,323Zm1.06-11.54a1.67,1.67,0,0,0,1.21,1.67A1.67,1.67,0,0,0,419.91,311.43Zm3.34,2.73a18.17,18.17,0,0,1,2.28.61v4.71a60.68,60.68,0,0,0,.3,11,8,8,0,0,0,3.49,6v0.3h0.46a10.54,10.54,0,0,0,4.1.76q5,0.15,6.76-3.11t2.2-9.64a0.9,0.9,0,0,1,.68-0.53,1,1,0,0,1,.46.46l0.53,0.91a1.38,1.38,0,0,0,.76.68,1.19,1.19,0,0,1,.23-1.14,1.55,1.55,0,0,0,.38-1.14,2.18,2.18,0,0,1-1.67-.3,6,6,0,0,0-1.37-.76,20.64,20.64,0,0,0,.15-3.19v-6.07l0.15-.15H443v-0.91c0.81-.2,1.21-0.4,1.21-0.61a3.15,3.15,0,0,1-1.21-.15q0.15-6.83-1.37-10.4t-6.83-3.72q-5.47-.15-7.14,3.57t-2,11a4,4,0,0,0-1.06-1.44,2.37,2.37,0,0,0-2-.53,1.93,1.93,0,0,0,.76,1.21,6,6,0,0,1,1,.91,1,1,0,0,1,.3.84A2.2,2.2,0,0,1,423.25,314.16Zm1.67-28.09a4.24,4.24,0,0,0-1.67,0c-0.2.1-.23,0.23-0.08,0.38a1,1,0,0,0,.76.23A1.26,1.26,0,0,0,424.92,286.07Zm0,16.55v1.06H426v-1.06h-1.06Zm2.13,50.11a1.48,1.48,0,0,0-.53-2q-1.14-.83-1.59.38a1.4,1.4,0,0,1,1.06.83A1.38,1.38,0,0,0,427.05,352.73Zm6.07-67.27a8.11,8.11,0,0,1-4.18.61,4.15,4.15,0,0,0-3.42,1.06q6.68,0.61,11.16.83a69.74,69.74,0,0,0,9.64-.23,1.83,1.83,0,0,0-2-1.29q-1.6.08-3.64,0.38a27.78,27.78,0,0,1-4.1.3A4.23,4.23,0,0,1,433.13,285.46Zm1.21,7.74a5.57,5.57,0,0,1-3.42-.38,6.94,6.94,0,0,0-3.26-.68q0.3,1.37,2.88,1.59A6.28,6.28,0,0,0,434.34,293.21Zm-6.68,56.18a0.68,0.68,0,0,1,.61.23,1.11,1.11,0,0,0,.46.38,11.26,11.26,0,0,0-.08-1.37c-0.05-.4-0.38-0.51-1-0.3v1.06Zm2.73,0.61a2.64,2.64,0,0,1,1.9-.38,2.79,2.79,0,0,1,1.21.83,11.71,11.71,0,0,0,1.14,1.14,2.68,2.68,0,0,0,1.82.53,6.47,6.47,0,0,0-2.66-3.26,17,17,0,0,0-4.48-1.14q-0.3,1.22.38,1.37A0.83,0.83,0,0,1,430.39,350Zm1.67,5.31a1.41,1.41,0,0,0,1.44-.38q0.38-.53.83-1.29a0.74,0.74,0,0,1-.76-0.91,0.68,0.68,0,0,0-.91-0.76,6.47,6.47,0,0,1-.91,1.75A1.06,1.06,0,0,0,432.06,355.31Zm1.06-7a1.45,1.45,0,0,0-1.06-1.67A1.66,1.66,0,0,0,433.13,348.33Zm1.21-66.05a3,3,0,0,0-1.75-.08c-0.25.15-.3,0.3-0.15,0.46a1.18,1.18,0,0,0,.83.23A1.31,1.31,0,0,0,434.34,282.27Zm0.46,0.46h1.06v-1.06h-1.06v1.06Zm2.28,63.92a0.91,0.91,0,0,0,.15,1.14,2.65,2.65,0,0,0,1,.53,1.33,1.33,0,0,0,1.06-.15,1,1,0,0,0,.53-0.91,3.45,3.45,0,0,1-1.06.3,1,1,0,0,1-.68-0.38A2.11,2.11,0,0,0,437.07,346.65Zm2.73-50.71q0.15-2-2.28-1.67-0.15,1.22.68,1.37Zm0.46,58.46a1.26,1.26,0,0,1,.53-0.83,2,2,0,0,0,.68-0.83,0.73,0.73,0,0,0-.76-0.38c-0.3.05-.66,0.13-1.06,0.23a4.65,4.65,0,0,1-1.14.15,1.26,1.26,0,0,1-1-.61q-0.15,1.37.68,1.59a1.73,1.73,0,0,0,1.59-.38,1.53,1.53,0,0,1,.15.68A0.31,0.31,0,0,0,440.26,354.4Zm5.62-70.45a3.14,3.14,0,0,0-.38-1.37,2.28,2.28,0,0,0-1-1.06,1.94,1.94,0,0,0-1.14-.23,1.22,1.22,0,0,0-.83,1,1.94,1.94,0,0,1,1.67.76A2.52,2.52,0,0,0,445.88,283.94Zm-3.34,50.56q0.15,1.82,3.34,2.28a1.29,1.29,0,0,0-1.37-1.44A2.57,2.57,0,0,1,442.54,334.51Zm3.8-13.21a1.88,1.88,0,0,0-2.13-2.12c-0.2.81,0,1.29,0.61,1.44A4.22,4.22,0,0,1,446.33,321.3Zm0.61-29.76a1.3,1.3,0,0,1-1.29,1.29,1.46,1.46,0,0,0-1.44,1,2,2,0,0,1,.91,1,3.71,3.71,0,0,0,.76,1.14,4.75,4.75,0,0,1,2.28-.68,5.48,5.48,0,0,0,2.13-.38,3.85,3.85,0,0,0-.61-1.82,2.6,2.6,0,0,0-1.06-.53A4.9,4.9,0,0,1,446.94,291.54ZM445.27,302a10.49,10.49,0,0,0,.68,1.82,1.87,1.87,0,0,0,1.59.91V302h-2.28Zm0,26.42a4.54,4.54,0,0,0,.76,1.29,1.58,1.58,0,0,0,1.52.38,0.77,0.77,0,0,0-.38-1,1.84,1.84,0,0,1-.83-0.68,0.83,0.83,0,0,1,.08-0.76c0.15-.3.3-0.58,0.46-0.83a0.91,0.91,0,0,0,.15-0.68,0.82,0.82,0,0,0-.68-0.46,2.31,2.31,0,0,1-.61,1.21A2.1,2.1,0,0,0,445.27,328.43ZM448.61,306a1.11,1.11,0,0,0-1.44.38,2.21,2.21,0,0,0-.23,1.52,2.37,2.37,0,0,0,.61,1.29q0.46,0.46,1.06-.46c-0.71-.1-0.94-0.53-0.68-1.29A4.15,4.15,0,0,1,448.61,306Zm2.13-19.28a14.79,14.79,0,0,0-2.13-.61,1.24,1.24,0,0,0-1.67,1.06,2.29,2.29,0,0,0,2.13.53A2,2,0,0,0,450.74,286.68Zm-3.19,47.83q0.76,0.76,1.59-.38a9.11,9.11,0,0,1,1.59-1.75,0.87,0.87,0,0,1-.46-1.06c-0.71,0-1.37,0-2-.08a2.11,2.11,0,0,1-1.37-.53,2.34,2.34,0,0,0,.83,1.59,1.86,1.86,0,0,1,.76,1.29A1.59,1.59,0,0,1,447.55,334.51Zm0-7.14q-0.3.91,0.23,0.83a0.94,0.94,0,0,1,.83.23,6.07,6.07,0,0,1,1.82,2.13,3.85,3.85,0,0,0,2,1.82,4.37,4.37,0,0,0-1.52-3.34A10.39,10.39,0,0,0,447.55,327.37Zm1.67-23.08a1.72,1.72,0,0,0,.38-1.59q-0.23-.83-1.59-0.68Q447.7,304.14,449.22,304.29Zm0.91,9.57a3.49,3.49,0,0,1,.61-2.81q0.91-1.29.61-1.9a2.29,2.29,0,0,1-1.9.76,1.21,1.21,0,0,0-1.44.91,1.63,1.63,0,0,0,.68,1.67A7.58,7.58,0,0,1,450.13,313.86Zm-1.52,4.1a2.3,2.3,0,0,0,.15,1.82q0.46,0.91.91-.15a0.55,0.55,0,0,1-.61-0.76A0.66,0.66,0,0,0,448.61,318Zm0-35.23a5.39,5.39,0,0,1-.08,2q-0.23,1.22,1.14.76a0.87,0.87,0,0,1-.3-0.91,7.53,7.53,0,0,0,.23-0.83,1.21,1.21,0,0,0,0-.61A1.38,1.38,0,0,0,448.61,282.73Zm0,53.45q-0.31,1.67.53,2.2a19.42,19.42,0,0,1,1.59,1.14,11.12,11.12,0,0,0-.53-2.12A1.79,1.79,0,0,0,448.61,336.18Zm0-21c-0.1.91,0,1.42,0.23,1.52a1.39,1.39,0,0,0,.91,0c0.35-.1.76-0.2,1.21-0.3a0.8,0.8,0,0,1,1,.46,1.12,1.12,0,0,0-1.14-1.29A10.37,10.37,0,0,1,448.61,315.22Zm7.14-23.08q-2-.46-2.73.3a8,8,0,0,1-1.52,1.21,2.38,2.38,0,0,0-.68-2.28,6,6,0,0,0-2.2-.91A3.61,3.61,0,0,0,450,292.9a4,4,0,0,0,1.37.91,3.56,3.56,0,0,0,2.5,0A3.26,3.26,0,0,0,455.75,292.14Zm-6.53,28.7a13.16,13.16,0,0,1,.3,1.37,12.85,12.85,0,0,1-.3,1.37h1.52c0.2-1,.13-1.67-0.23-2A4.64,4.64,0,0,0,449.22,320.84Zm1.06,14.88a2.55,2.55,0,0,1,1.75,0c0.76,0.2,1.09,0,1-.61a2.27,2.27,0,0,0-1.67-.61A1,1,0,0,0,450.28,335.72ZM452,288.35a0.52,0.52,0,0,1-.53.53,0.77,0.77,0,0,0-.68.53,0.64,0.64,0,0,1,.76.68c0,0.46.3,0.58,0.91,0.38a3.15,3.15,0,0,1,.46-1.44Q453.17,288.65,452,288.35Zm-0.61,36.29a10.21,10.21,0,0,0,1.9.38,1.54,1.54,0,0,0,1.44-1q-1.52.46-1.82,0.08a1.39,1.39,0,0,1-.23-1.06,11.93,11.93,0,0,0,.08-1.29q0-.6-0.76-0.46a1.94,1.94,0,0,1-.15,1.75A2.4,2.4,0,0,0,451.35,324.64Zm1.67-9.41q0-1.21.38-1.29T453,313.1a0.35,0.35,0,0,0,.38-0.23c0-.15-0.08-0.28-0.38-0.38a7.51,7.51,0,0,1-.91,1.59Q451.5,314.92,453,315.22ZM452,299.28a0.62,0.62,0,0,0,.76.08,1,1,0,0,0,.38-0.61A1.33,1.33,0,0,0,453,298a0.59,0.59,0,0,0-.61-0.38c0,0.51-.15.71-0.46,0.61v1.06Zm3.19,7.14q-2.73.91-2.73,2.28a8.45,8.45,0,0,1,1.67-.76A1.64,1.64,0,0,0,455.14,306.42Zm-2.73,27.63a4.19,4.19,0,0,0,2.58.61q1.82,0,1.82-1.21a1.74,1.74,0,0,1-1.67-.15,10.08,10.08,0,0,0-1.06-.91,0.61,0.61,0,0,1-.53.61,2.56,2.56,0,0,0-.83.38A0.8,0.8,0,0,0,452.41,334.05Zm2.73-2.73a0.69,0.69,0,0,0-.15-0.76,1.38,1.38,0,0,0-.76-0.38,0.72,0.72,0,0,0-.61.08q-0.15.15,0.46,0.46a0.65,0.65,0,0,1,.68.68Q454.84,332.08,455.14,331.32Zm-1.52-41.45h1.06V288.8h-1.06v1.06Zm0.46,10.48a0.85,0.85,0,0,0-.46.68,1,1,0,0,0,1,1,0.56,0.56,0,0,0,.53-0.46,0.52,0.52,0,0,1-.53-0.53A0.77,0.77,0,0,0,454.08,300.34Zm5.47,1.21a1.67,1.67,0,0,1-1.52.15A5.37,5.37,0,0,1,457,301a2.89,2.89,0,0,0-.91-0.53,0.84,0.84,0,0,0-.91.46,2.11,2.11,0,0,1,.76.53,1,1,0,0,1,.15.53,2.43,2.43,0,0,0,.08.61,1.17,1.17,0,0,0,.68.61,2.56,2.56,0,0,0,1.67-.68A6.62,6.62,0,0,1,459.54,301.56Zm-3.8,17q-0.31,2,1.67,1.67v-1.67h-1.67ZM456.36,329q0.76,0.61,2.13-.38a2.83,2.83,0,0,0,1.06-3Q456.36,325.7,456.36,329Zm3.19,4.4q1.21-1.21-.46-1.67a3.09,3.09,0,0,1-.61,1.67h1.06Zm-0.46-12.15a2.39,2.39,0,0,0,1.06,2.28,1.18,1.18,0,0,1,1-.83c0.46,0,.48-0.53.08-1.44h-2.13Zm1.06-2.73a1.44,1.44,0,0,1-.38.91q-0.38.46,0.38,0.76a3.71,3.71,0,0,1,.46-0.91C460.81,319,460.66,318.77,460.15,318.56Zm2.28,12.75q0.46-1.37-.23-1.44a1.18,1.18,0,0,1-1-.83,3.07,3.07,0,0,1,.61-1.67,1.8,1.8,0,0,0-1.14.23,1.32,1.32,0,0,0-.23.91,2,2,0,0,1-.3,1.14q0.76-.3.91,0a2.81,2.81,0,0,1,.23.76,3.9,3.9,0,0,0,.23.83Q461.67,331.62,462.43,331.32Zm-1.21,3.8a0.86,0.86,0,0,1,.61-0.61,0.87,0.87,0,0,0-1.06-1.06Q460.76,335,461.21,335.11Zm0-35.83a1.66,1.66,0,0,0,.53,1.44l1.14,0.83a1.6,1.6,0,0,0-.38-1.52A4.66,4.66,0,0,0,461.21,299.28Zm1.67,13.82a1.06,1.06,0,0,0,.3-1.59,3.21,3.21,0,0,0-1.37-1.14,1.74,1.74,0,0,0-.53,1.82A1.13,1.13,0,0,0,462.88,313.1Zm0,4.4c0,0.3.13,0.41,0.38,0.3s0.33-.4.23-0.91q-1.37-.76-1.75-0.46T462.88,317.5Zm1.21,3.8a1.35,1.35,0,0,1-1,.91q-1,.46.38,0.76-0.15-.3.46-0.76a3,3,0,0,0,.68-0.61C464.68,321.5,464.5,321.4,464.1,321.3Zm1.06-5.47a3.62,3.62,0,0,0,.61-1.44q0.3-1.14-1.21-.83a4.77,4.77,0,0,1,.08,1.44A0.67,0.67,0,0,0,465.16,315.83Z" transform="translate(-149.64 -251.24)"/><path class="cls-1" d="M503.58,298.07a1.68,1.68,0,0,0,.84,1.59,5.32,5.32,0,0,0,1.67.23,14.76,14.76,0,0,1,2,.15,3.24,3.24,0,0,1,2,1.21,4.58,4.58,0,0,1-1.37-.15,5.33,5.33,0,0,0-1.67.3h-0.15a0.87,0.87,0,0,0-.61.3,5,5,0,0,0-2,1.82,7.52,7.52,0,0,0-1.59.15,1.13,1.13,0,0,0-.83,1.06c0.4,0,.61.51,0.61,1.52a0.87,0.87,0,0,0,.61.15,0.62,0.62,0,0,0-.15.46h-0.46a0.63,0.63,0,0,0,.3,1.06,12.65,12.65,0,0,0-.3,2.28l-0.46,34.32c-0.1,0-.71.1-1.82,0.3a3.62,3.62,0,0,1-.38,2.66,2.31,2.31,0,0,0-.08,2.35,10.52,10.52,0,0,0,2.13-3.34v2.13a2.06,2.06,0,0,0-.46,2.28,10.2,10.2,0,0,0-2.35.46q-0.84.31-1.59-.91a4,4,0,0,0,.61-2q0-.91-0.08-1.82a7.27,7.27,0,0,1,.08-1.82,5.18,5.18,0,0,1,1.06-2.12,1.19,1.19,0,0,1-1.14-.23,1.56,1.56,0,0,0-1.14-.38,10.69,10.69,0,0,1-.08,4.55,13.46,13.46,0,0,0-.23,4.71l-14.88-.46a1.85,1.85,0,0,0-.23-1.06,2.4,2.4,0,0,0-1-.61,2,2,0,0,1-.3,1.67l-0.76-.15v-5a11.25,11.25,0,0,1,1.06.76,3.39,3.39,0,0,1-.46-1,3.56,3.56,0,0,0-.46-1v-5.16a3.92,3.92,0,0,1,.46.53,0.94,0.94,0,0,0,.91.08V338.3h-1.37l0.3-15.18a1.85,1.85,0,0,0,.83.46,2.53,2.53,0,0,0,1.44-.15,2,2,0,0,0-.76-1.75,4.07,4.07,0,0,0-1.52-.68l0.3-12.91a11.82,11.82,0,0,1,1.21.38q0.6,0.23.76-1a3.28,3.28,0,0,0-2,0l0.46-24a1.52,1.52,0,0,1,1.37-1.21l3.49,0.15a0.61,0.61,0,0,0,.46.15l6.83,0.15a1.13,1.13,0,0,0-.76,1.06,1.43,1.43,0,0,1,1.06.76,1.91,1.91,0,0,0,1.06.91,1.39,1.39,0,0,0,.61-1.59,1.84,1.84,0,0,0-1.06-1.14l6.68,0.15,0.15,1.06-0.3-.15v0.46a6.76,6.76,0,0,1-.3,2.13c-0.2.61-.38,1.16-0.53,1.67a5.52,5.52,0,0,0-.23,1.59,3.16,3.16,0,0,0,.61,1.75,4.35,4.35,0,0,1-1.37.68,1.22,1.22,0,0,0-.91,1,18.4,18.4,0,0,1,3.19,5.39,8.91,8.91,0,0,0,3.8,4.63,1.64,1.64,0,0,0,.08-1.59,7.44,7.44,0,0,0-.83-1.21,4.15,4.15,0,0,1-.68-1.06A1,1,0,0,1,503.58,298.07ZM480.5,331.62q0.3,1.82,1.06,2.13a0.75,0.75,0,0,0,1.06-1.06Q482.32,331.93,480.5,331.62ZM481,296.4a3.6,3.6,0,0,0,1-.15,3.78,3.78,0,0,0,.91-0.38,0.64,0.64,0,0,0,.38-0.53,0.87,0.87,0,0,0-.61-0.61c0.1,0.3,0,.48-0.23.53a3.76,3.76,0,0,1-.76.08,1.53,1.53,0,0,0-.68.15Q480.65,295.64,481,296.4Zm7.14,19.28A7.27,7.27,0,0,0,484.6,317a13.75,13.75,0,0,0-2.43,2.43,5.18,5.18,0,0,0,3.42-.46A7.5,7.5,0,0,0,488.09,315.68Zm-5.92,11.54a5.78,5.78,0,0,0,.38,1.9c0.15,0.25.33,0.3,0.53,0.15a4.3,4.3,0,0,0,.76-0.83,11.65,11.65,0,0,1,1.06-1.21c-0.51-.5-0.91-0.63-1.21-0.38A2.38,2.38,0,0,1,482.17,327.22Zm0.46-3.19q-0.15,1.22.15,1.37a0.54,0.54,0,0,0,.61-0.08,0.65,0.65,0,0,0,.23-0.68A1,1,0,0,0,482.62,324Zm0-23.69a0.85,0.85,0,0,0,1,.38,0.64,0.64,0,0,0,.38-0.53,0.5,0.5,0,0,0-.38-0.46A1,1,0,0,0,482.62,300.34Zm3.34,5.47c0,0.3-.18.36-0.53,0.15a10.78,10.78,0,0,0-1.06-.53,2,2,0,0,0-1.06-.15,1,1,0,0,0-.68,1,3.07,3.07,0,0,0,1,.15,0.65,0.65,0,0,1,.68.46,0.54,0.54,0,0,0-.61.61,5.19,5.19,0,0,0,1-.15,6.81,6.81,0,0,0,1.21-.38,0.93,0.93,0,0,0,.61-0.53A0.66,0.66,0,0,0,486,305.81Zm-1.67,25.81h1.06v-1.06h-1.06v1.06Zm1.67,7.74H484.9v1.06H486v-1.06Zm0-45.1H487v-1.21H486v1.21Zm1.67,45.7a3.52,3.52,0,0,1,1.44,0l1.29,0.3a2.31,2.31,0,0,0,1,.08,1.33,1.33,0,0,0,.68-1,9.43,9.43,0,0,1-1.59-.83,11.75,11.75,0,0,1-1.52-1.14,3.59,3.59,0,0,1-1-1.37,2,2,0,0,1,.15-1.67H486a6.65,6.65,0,0,0,1.44,3.19Q488.24,338.31,487.63,340Zm1.06-48.59a0.72,0.72,0,0,1-.38.76q-0.38.15-.23,0.91h1.21a0.8,0.8,0,0,1,.3-0.68,1,1,0,0,0,.15-1H488.7Zm5-4.4a1.14,1.14,0,0,0-1.37-1.37,17.17,17.17,0,0,0-2,.3,3.84,3.84,0,0,1,1.29.83A2.28,2.28,0,0,0,493.71,287ZM491,297.15q3.19,4.1,4.86,4.71a9.24,9.24,0,0,0-.53-1.67,18.76,18.76,0,0,0-.84-1.75,4.59,4.59,0,0,0-1-1.29,0.76,0.76,0,0,0-1-.15q0.91,0.76.15,0.91A1.93,1.93,0,0,1,491,297.15Zm1.52-1.82a1.63,1.63,0,0,1,.91-1.21q0.91-.6-0.3-1.06a1.5,1.5,0,0,1-.68,1.37Q491.58,295.18,492.49,295.33Zm1.67,17a2.27,2.27,0,0,0,1.21.76q0.91,0.31,1.06-.76a2.29,2.29,0,0,0-1.21-.76Q494.32,311.28,494.16,312.34Zm0.61-25.81a0.64,0.64,0,0,0,.3,1,3.86,3.86,0,0,0,1.37.23,4.54,4.54,0,0,0,1.44-.23,0.79,0.79,0,0,0,.68-0.53,1.63,1.63,0,0,0-1.52-.53C496.34,286.5,495.58,286.53,494.77,286.53Zm3.8,10.93a1.34,1.34,0,0,0,.91,1.67,1.87,1.87,0,0,1,1.37,1.21,2,2,0,0,0-.76-1.75Q499.32,298.07,498.57,297.46Zm1.21,3.34q-0.15.31-.38,0.84a7.4,7.4,0,0,0-.38,1.14,4.27,4.27,0,0,0-.15,1,0.31,0.31,0,0,0,.3.38,1.22,1.22,0,0,0,1.29-.15,2.8,2.8,0,0,0,1-1.06,1.3,1.3,0,0,0,0-1.21A2.36,2.36,0,0,0,499.78,300.8Zm-0.61,6.07a1.86,1.86,0,0,0,1.67-1.06,11.23,11.23,0,0,0-1.37.08C499.07,305.94,499,306.27,499.17,306.87Zm36.75,43.88a2,2,0,0,1-2.28,1.21l-19.59-.61-0.61-2.28,0.46-20.65a8.78,8.78,0,0,1,1.14,2.13,2.56,2.56,0,0,1-.38,2.28,4,4,0,0,0,3.57-2.66,7,7,0,0,0,.83-4,3,3,0,0,1-1.59,1.75q-1.14.53-2.35,1,0.6-1.21.38-.91a2.41,2.41,0,0,1-1.44.46q0-2.43.76-2a7.25,7.25,0,0,0,2,.76,2.88,2.88,0,0,1,.61-1.67,0.87,0.87,0,0,1,.91-0.23l2.43,0.23a0.87,0.87,0,0,1-.15-0.83,1.77,1.77,0,0,1,.38-0.61,0.66,0.66,0,0,0,.23-0.46q0-.23-0.46-0.23-0.61,1.22-.76,1.06a1.81,1.81,0,0,1-.3-0.76c-0.1-.4-0.23-0.83-0.38-1.29a0.85,0.85,0,0,0-.83-0.68,5.69,5.69,0,0,0-.83,2.2,1.83,1.83,0,0,1-1.44,1.59,3,3,0,0,0-.08-1c-0.05,0-.13.05-0.23,0.3a2,2,0,0,1-.46.68,0.54,0.54,0,0,1-.76,0,0.94,0.94,0,0,0,.3-1.14,2.61,2.61,0,0,0-1.06-.68V321.6a3.14,3.14,0,0,0,1.82-.91,1.45,1.45,0,0,1-1.06-1.67h-0.61v-5q0.91,4.86,2.13,6.07c0.5-.61.63-0.71,0.38-0.3a2.52,2.52,0,0,0-.38,1.37,11.29,11.29,0,0,0,1.82-.83c0.2-.15.71-0.58,1.52-1.29a1.54,1.54,0,0,1,.15.68,0.37,0.37,0,0,0,.46.38,1.55,1.55,0,0,1,.15-1c0.1,0,.23,0,0.38.23a4.22,4.22,0,0,0,.68.68,0.7,0.7,0,0,0,.91.08,9,9,0,0,1,1.06-3.11,12,12,0,0,0,1.21-3,2.72,2.72,0,0,1-1.67-.46q0.46,2.43-.61,3.19a3.94,3.94,0,0,1-2.73.61c0.3,0.3.33,0.43,0.08,0.38l-0.83-.15a1.18,1.18,0,0,0-.61,0q-0.15.08,0.91,0.83a0.72,0.72,0,0,0-.76.38q-0.15.38-.91,0.23a9.61,9.61,0,0,1-1.06-2.28,14,14,0,0,0-1-2.28,2.32,2.32,0,0,0-1.29-.91l0.15-3.34h0.46q-0.31-1.52-.46-2.13a11.8,11.8,0,0,0-.83-4.4,4.24,4.24,0,0,0-1.9-2,8.22,8.22,0,0,1-.76-3,2.26,2.26,0,0,1-2.2.53,6.52,6.52,0,0,1-1.82-1.06,6.32,6.32,0,0,0-1.37-.91c-0.36-.15-0.58.13-0.68,0.83a6.44,6.44,0,0,1-1.44-2.81,8.3,8.3,0,0,0-1.75-3.26,1.52,1.52,0,0,0-.38,1.9,1,1,0,0,1-.23,1.44,4.21,4.21,0,0,0-1.06-1.21,1.77,1.77,0,0,1-.61-1.52q1.37,0.31,1.67-.23a2.5,2.5,0,0,0,.23-1.44q-0.08-.91-0.15-2a3,3,0,0,1,.38-1.82l0.46,1.82,1.06-1.06a4,4,0,0,0,1.75,1.82,2.64,2.64,0,0,1,1.29,2.28,0.91,0.91,0,0,1-1.14-.15c-0.25-.3-0.43-0.25-0.53.15a0.35,0.35,0,0,1,.38.23c0,0.15-.08.28-0.38,0.38a4.1,4.1,0,0,0,1,2,13.83,13.83,0,0,0,2,1.59,5.15,5.15,0,0,1,1.82,1.82,2,2,0,0,1,.91-1.52,13.52,13.52,0,0,1,1.44-.76,4,4,0,0,0,1.21-.84,2.29,2.29,0,0,0,.38-1.9,2.56,2.56,0,0,1,1.44.46q0.68,0.46,1.29.91a3.53,3.53,0,0,0,1.14.61,1,1,0,0,0,1-.3,14.76,14.76,0,0,0-2.43-1.67q-1.37-.76-2-1.06a10.75,10.75,0,0,1,2.13-2.58,6.44,6.44,0,0,0,1.82-2.88,0.93,0.93,0,0,1-.61-1.06,1.46,1.46,0,0,0-1.44.76,8.69,8.69,0,0,0-.61,1.59,2.32,2.32,0,0,1-.68,1.21q-0.46.38-1.67-.38a4.74,4.74,0,0,0-.83,2.58,1.73,1.73,0,0,1-1.29,1.82,3.8,3.8,0,0,0,.3-1.9,1.25,1.25,0,0,0-.53-0.76,3.72,3.72,0,0,0-1-.38,1.9,1.9,0,0,1-1.06-.76,5.52,5.52,0,0,0,1.75-1.14,20.26,20.26,0,0,1,1.52-1.37,6.6,6.6,0,0,1,1.82-1.06,7.61,7.61,0,0,1,2.66-.38q0-2.73-2.28-3.19-0.15,2.43-1.21,3.26a6.82,6.82,0,0,1-2.43,1.21l-2.66.76a3,3,0,0,0-1.9,1.9q-1.22-1.06-.76-1.44a3.57,3.57,0,0,0,.76-1.9h-0.3a16,16,0,0,1,4.86-3,2.38,2.38,0,0,0,1.82.84,1.15,1.15,0,0,0,1.37-1.14,12,12,0,0,0-1.21-.46,16.15,16.15,0,0,1,4.71-.61h0.3v-0.15H518a12.19,12.19,0,0,0,2.43.15,3,3,0,0,0-.91,1.06,3.42,3.42,0,0,0,2,0,13.27,13.27,0,0,0,1.44-.76,1.49,1.49,0,0,0,.68.15,1.54,1.54,0,0,1,.68.15l-0.91.46c-0.2.91,0,1.44,0.61,1.59a5.8,5.8,0,0,0,2.13.08v-1.52a5.55,5.55,0,0,0,.76.3,6.37,6.37,0,0,1,.76.3,9,9,0,0,1,1.14,1.67q0.38,0.76-1,1.52a1.7,1.7,0,0,0-.91-1.14,2.8,2.8,0,0,0-.91,0l-1.06.15a2.17,2.17,0,0,1-1.52-.68,1.8,1.8,0,0,0,.3,1.82,3.75,3.75,0,0,0,1.67.91A11.47,11.47,0,0,0,528,288q1.52,0.08,3,.23a14.15,14.15,0,0,1-.53-1.59,17,17,0,0,1-.38-1.75,0.91,0.91,0,0,0,.61.61,0.62,0.62,0,0,0-.15.46,2.62,2.62,0,0,0,1.37.76,9.22,9.22,0,0,0,1,1.37,9.61,9.61,0,0,1,1,1.37l0.91-.91a0.8,0.8,0,0,0,.3.38,0.85,0.85,0,0,1,.3.38q-0.31-1.06.46-1.21a0.93,0.93,0,0,0,.76-1.06h-0.15a9.73,9.73,0,0,1,1.44-1.21c0.46-.3.94-0.61,1.44-0.91a3.79,3.79,0,0,0,.38.61,1.39,1.39,0,0,1,.08,1.06,4.69,4.69,0,0,1,1.67,0q0.76,0.15,1.37.23a1.51,1.51,0,0,0,1-.15,1.6,1.6,0,0,0,.53-1.14,2,2,0,0,0-1.9.23,2.28,2.28,0,0,1-2,.23,6,6,0,0,1,.08-0.84,1.45,1.45,0,0,0-.08-0.83,18.17,18.17,0,0,1,4.78-1.75,26.8,26.8,0,0,1,5.54-.53,28.86,28.86,0,0,1,6.68,1.06,17.21,17.21,0,0,1,5.77,2.89,1.89,1.89,0,0,1-2.43,1.06,2.55,2.55,0,0,0-.38.83,6.57,6.57,0,0,0-.3,1.44,2.1,2.1,0,0,0,.23,1.29,0.89,0.89,0,0,0,1.06.38,5.49,5.49,0,0,1,3.64-3.34,18.19,18.19,0,0,1,4.1,6.76,27.64,27.64,0,0,1,1.37,10.1l-0.76,44.19a1.81,1.81,0,0,0-1.21-.91v1.52h1.21v3.34h-0.15a6,6,0,0,1-.68-1.75,1.28,1.28,0,0,0-1.44-1,1.66,1.66,0,0,0,.53,1.44,1.89,1.89,0,0,1,.68,1.29l-7.59-.15a3.06,3.06,0,0,1-.15-1,3.16,3.16,0,0,0-.15-1,5.38,5.38,0,0,0-2.35-.08q-1,.23-2,0.53v1.37h-0.61a1.7,1.7,0,0,0-1.06-1.37,1.78,1.78,0,0,0,1.52-.61,7.56,7.56,0,0,0,.91-2.43,7.59,7.59,0,0,1,.91-2.43h1.06q-1.06,1.22.23,1.9a1.49,1.49,0,0,0,2-.23q-0.61.15-.46-0.3a3.93,3.93,0,0,1,.61-1.06,11.65,11.65,0,0,1,1.06-1.21,4.3,4.3,0,0,1,.91-0.76,2.4,2.4,0,0,0-.38-1.52c-0.25-.3-0.13-0.71.38-1.21a2.16,2.16,0,0,0-1.21.3c-0.3.2-.63,0.41-1,0.61a2.12,2.12,0,0,1-1.06.3,1.69,1.69,0,0,1-1.14-.61c-0.51.51-.61,0.79-0.3,0.83s0.4,0.48.3,1.29a16.76,16.76,0,0,0-2.2.15,17.16,17.16,0,0,1-2.28.15,9.46,9.46,0,0,1-2.13-.23,2.56,2.56,0,0,1-1.59-1.14,6.78,6.78,0,0,1-1.37,3.42q-1.06,1.29-2.28,2.51l0.3-14.27a6.51,6.51,0,0,1,.15-1.21c0.1-.5.2-1,0.3-1.44a5.76,5.76,0,0,0,.15-1.21,0.51,0.51,0,0,0-.61-0.53l0.46-20.5q0-5.16-1.59-6.38a6.81,6.81,0,0,0-3.72-1.37,4.67,4.67,0,0,0-4.48,2,12,12,0,0,0-1.59,6.15l-0.3,17.16a1.73,1.73,0,0,0-1.21-.15,1,1,0,0,0-.76.91q1.21,0.91,2,.15l-0.15,9.11a1.35,1.35,0,0,0-1.37-1.06,1.26,1.26,0,0,0-1.52.61c0.3,0.3.63,0.61,1,.91a1.93,1.93,0,0,0,1.75.15l0.15-.3Zm-34.47-28.39a1,1,0,0,0,.08-1.52,2.25,2.25,0,0,0-1.75-.76Q499.48,322.51,501.45,322.36Zm-1.06-37.81a1.75,1.75,0,0,1,.3-0.46l0.3,1.52A1.08,1.08,0,0,1,500.39,284.55Zm2.13,24a0.72,0.72,0,0,1-.76-0.38,0.72,0.72,0,0,0-.91-0.23,2.3,2.3,0,0,0-.15,2.13,5.09,5.09,0,0,1,.15,2.88,1.35,1.35,0,0,0,1.21-1.75A4.41,4.41,0,0,1,502.51,308.54Zm4.86-13.21a3.3,3.3,0,0,1-1.29-.91,1.94,1.94,0,0,1-.23-1.82q1.21-.3,1.21.84A5.11,5.11,0,0,0,507.37,295.33Zm0-11.08a1,1,0,0,0-.38,1.06,0.65,0.65,0,0,0,.53.3,0.5,0.5,0,0,0,.46-0.38A1,1,0,0,0,507.37,284.25Zm9.41,32.49a3.71,3.71,0,0,1,.46-0.91c0.2-.3,0-0.55-0.46-0.76a1.51,1.51,0,0,1-.23.91C516.41,316.19,516.48,316.44,516.79,316.74Zm2.28-11.54a0.42,0.42,0,0,1,.46.61h1.21a0.55,0.55,0,0,0,0-.76,2.08,2.08,0,0,0-.68-0.46,1,1,0,0,0-.76,0A0.42,0.42,0,0,0,519.07,305.2Zm6.53,5.47a4,4,0,0,1,1.44-2.43,3.07,3.07,0,0,0,.83-3,0.85,0.85,0,0,0-1.29.68,2.8,2.8,0,0,1-.23.68,0.77,0.77,0,0,1-.76.3,1.28,1.28,0,0,1-.3-1.37,2.49,2.49,0,0,0,.3-1.37,3.07,3.07,0,0,1-1.67-.61,19.39,19.39,0,0,1-1,4.18,4.13,4.13,0,0,1-3.42,3,2.55,2.55,0,0,0,.68,1.67,4.93,4.93,0,0,1,1,1.21,10.87,10.87,0,0,0,1.75-3.87,4.69,4.69,0,0,1,2-3.11,1.41,1.41,0,0,1,.68,1.21,4.21,4.21,0,0,1-.3,1.14,2.69,2.69,0,0,0-.23,1.06A0.64,0.64,0,0,0,525.59,310.67Zm-2.73,32a0.74,0.74,0,0,0,0,.91,1.12,1.12,0,0,0,.83.3,3.1,3.1,0,0,0,1-.15,0.52,0.52,0,0,0,.46-0.46,1.54,1.54,0,0,1-1.14-.38A1.2,1.2,0,0,0,522.86,342.71Zm3.8-38a6.78,6.78,0,0,0,2.35.15q0.68-.15,1-1.82a0.86,0.86,0,0,1-1.06-.61,2.38,2.38,0,0,0-.61-1,1.39,1.39,0,0,0-1.06-.08,2.11,2.11,0,0,0-.53,1.37C526.68,303.38,526.66,304,526.66,304.75ZM530,325.09q-0.31,1.22,1.67,2.13a2.76,2.76,0,0,0-.15-1.59A1.3,1.3,0,0,0,530,325.09Zm2.28,23.69a1.23,1.23,0,0,0-.61-1.52q-0.91-.6-1.06.46a0.85,0.85,0,0,1,.84.46A1.18,1.18,0,0,0,532.28,348.78Zm1.67-50.11a1.57,1.57,0,0,1-.46,1l-0.76.91a1.21,1.21,0,0,0-.3.76q0,0.38.91,0.53a1.82,1.82,0,0,1,.61-1.44,3.57,3.57,0,0,1,2.13.38,1,1,0,0,0-.76-1.37A2,2,0,0,1,533.95,298.67ZM532.73,340a2.13,2.13,0,0,0,.53,2q0.83,1,1.14.08-0.46,0-.46-0.91a3.2,3.2,0,0,0-.15-1.21C533.69,339.77,533.34,339.77,532.73,340Zm1.67-48.59q-0.15-.6-0.53-0.23a2.11,2.11,0,0,0-.53.83,0.55,0.55,0,0,0,.68.38,1.42,1.42,0,0,0,.83-0.38,2,2,0,0,0,.46-0.68c0.1-.25,0-0.38-0.3-0.38A0.42,0.42,0,0,1,534.4,291.39Zm-0.46,57.85c0.71,0.3,1.16.28,1.37-.08a1.6,1.6,0,0,0,.08-1.29,2.3,2.3,0,0,0-.68-1.14q-0.46-.38-0.76.38Q534.86,347.26,533.95,349.24Zm4.4-58.91a1.87,1.87,0,0,1-1.06,0c-0.41-.1-0.76-0.2-1.06-0.3a3.39,3.39,0,0,0-.53-0.15,1,1,0,0,0,.38.46,0.55,0.55,0,0,1,.61.76,0.66,0.66,0,0,0,.46.91,6.19,6.19,0,0,1,2.2-.38,2.37,2.37,0,0,0,2.2-1.29,1.51,1.51,0,0,1-1.14-.61q-0.53-.6-1.06-1.14a3.52,3.52,0,0,0-1.06-.76,1,1,0,0,0-1.14.38A2.74,2.74,0,0,1,538.35,290.32Zm-2.28,5a1.13,1.13,0,0,0,1.21-.08,2.38,2.38,0,0,0,.68-0.91,2,2,0,0,0,.15-1.06,0.84,0.84,0,0,0-.38-0.68A6,6,0,0,1,536.07,295.33Zm7.74,3.8a0.8,0.8,0,0,0,.15-0.83,3.82,3.82,0,0,0-.38-0.91,0.91,0.91,0,0,0-.53-0.46c-0.2,0-.3.13-0.3,0.53a1.91,1.91,0,0,1,.46.84C543.51,299,543.71,299.23,543.82,299.13Zm1.06-14.88q1.06,0.61,1.37.3a0.72,0.72,0,0,0,.23-0.68,0.62,0.62,0,0,0-.61-0.46A1.1,1.1,0,0,0,544.88,284.25Zm1.67,5a1.28,1.28,0,0,0,.46-1.52,1.23,1.23,0,0,0-1.52-.76Q545.18,289.11,546.55,289.26Zm1.06,2.73c-0.41,0-.61-0.15-0.61-0.46a0.6,0.6,0,0,0-.46-0.61,1.18,1.18,0,0,0,.23,1.52Q547.46,293.21,547.61,292Zm-1.06,7.14a0.62,0.62,0,0,0-.08.76,1.35,1.35,0,0,0,.61.46,1,1,0,0,0,.76,0,0.59,0.59,0,0,0,.38-0.61,0.72,0.72,0,0,1-.76-0.38Q547.31,299,546.55,299.13Zm2.28,34.16a3.51,3.51,0,0,0,.23,2.5A3.05,3.05,0,0,0,550.5,337a10.48,10.48,0,0,0,2.2.61,18.65,18.65,0,0,1,2.66.68q0.76-1.06,1.67-2.28a5.22,5.22,0,0,1,3.34-1.67,8.32,8.32,0,0,1-.46-1.52,0.9,0.9,0,0,0-1.21-.61,2.24,2.24,0,0,1-.3,1.75,3,3,0,0,1-1.21.84,12.91,12.91,0,0,0-1.44.68,2.2,2.2,0,0,0-1,1.14,21,21,0,0,0-2.5-.76,2.73,2.73,0,0,1-1.9-1.52,2,2,0,0,0,1.52-1.52,1.3,1.3,0,0,0-.61-1.67,4.91,4.91,0,0,0,3-1.67,1.92,1.92,0,0,1-1.67-.15l-1.37-.83a3,3,0,0,0-1.14-.46,0.89,0.89,0,0,0-.83.83,1.71,1.71,0,0,1,1.44,1.06,3.29,3.29,0,0,1,.23,1.82,3,3,0,0,1-.68,1.52A1,1,0,0,1,548.83,333.29Zm0.46-41.3a3,3,0,0,0,0,2.35q0.46,0.68-.46,2.66a2.31,2.31,0,0,1,1.21-.61,11.69,11.69,0,0,0,1.44-.38,6.65,6.65,0,0,0,1.21-.53,1.28,1.28,0,0,0,.53-1.21,0.77,0.77,0,0,0-.84-0.46,2,2,0,0,0-.68.46,3.55,3.55,0,0,1-.68.53c-0.25.15-.48,0-0.68-0.53a2.07,2.07,0,0,1,.46-1.06,4.31,4.31,0,0,1,1.29-.15,1.28,1.28,0,0,0,1.14-.46q-0.76-.3-0.61-0.68a2,2,0,0,1,.46-0.68,3.48,3.48,0,0,0,.53-0.68c0.15-.25,0-0.48-0.38-0.68-0.91-.2-1.5-0.13-1.75.23a1.43,1.43,0,0,1-1.59.23q-0.31,1.22.53,1.37t0.53,1.37a0.8,0.8,0,0,1-1-.3A2,2,0,0,0,549.28,292Zm0.15,60.13a7.71,7.71,0,0,1,2.13-.3,15.79,15.79,0,0,0,2.73-.3,0.58,0.58,0,0,0,.08.38,0.62,0.62,0,0,1,.08.38Zm3.8-2.89q0.76,0.15.23,0.38a8.21,8.21,0,0,1-2.51.23c-1.12,0-1.29-.12-0.53-0.38A7,7,0,0,1,553.23,349.24Zm0.46-6.53a1.58,1.58,0,0,1,1.06-.68,9.33,9.33,0,0,1,1.14-.08,5.8,5.8,0,0,0,1-.08,1.15,1.15,0,0,0,.76-0.83,0.89,0.89,0,0,1-.84-0.76,1.54,1.54,0,0,0-.38-0.91q-1.82-.3-2-0.3a16.71,16.71,0,0,1-1.75-.3q0,1.37,1.06,1.21v2.73Zm2.28,5.47a0.88,0.88,0,0,1-.91.38,2.13,2.13,0,0,1-1.14-.53,2,2,0,0,1-.68-1,0.9,0.9,0,0,1,.46-1c0.3,0,.43.08,0.38,0.23a0.35,0.35,0,0,1-.38.23,1.29,1.29,0,0,0,.91,1.14A8.68,8.68,0,0,1,556,348.17Zm0-22a1.79,1.79,0,0,1-1.06-1.06,7.91,7.91,0,0,0-.76-1.29,1.1,1.1,0,0,0-.91-0.38,3.13,3.13,0,0,0,.83,1.9q0.68,0.68-.83,1.44a6.32,6.32,0,0,0,1.52.3A2,2,0,0,0,556,326.16Zm-0.61-37.5a2.29,2.29,0,0,1-1.06,1.21,1.55,1.55,0,0,1,.38,1.14,8.51,8.51,0,0,1-.23,1.06,1.39,1.39,0,0,0,0,.91,1.51,1.51,0,0,0,.91.68c0.1-.3.23-0.73,0.38-1.29s0.28-1.11.38-1.67a3.5,3.5,0,0,0,0-1.44A0.72,0.72,0,0,0,555.35,288.65Zm0,57.85a1,1,0,0,1,1-.61,0.56,0.56,0,0,1,0,1.06A1,1,0,0,1,555.35,346.5Zm1.06-45.1a1,1,0,0,0-.08,1.21,1.47,1.47,0,0,0,1,.53,3.23,3.23,0,0,0,1.21-.08,0.65,0.65,0,0,0,.61-0.61,1.58,1.58,0,0,1-1.52-.38A2.1,2.1,0,0,0,556.42,301.41Zm0,28.09a3.69,3.69,0,0,1,.08,1.29,0.67,0.67,0,0,0,.53.83,3.5,3.5,0,0,0,.61-1.37Q557.93,329.2,556.42,329.5Zm2.28-6.07a1.59,1.59,0,0,0-1.21-.61,0.37,0.37,0,0,0-.15.53,1.22,1.22,0,0,0,.53.61C558.11,324.11,558.39,323.93,558.7,323.42Zm0.46-22a1.17,1.17,0,0,0-.46-1.59q-0.91-.68-1.06.53a0.9,0.9,0,0,1,.83.38A2.17,2.17,0,0,0,559.15,301.41Zm3.34,2.73a4.23,4.23,0,0,0-1.44-.68q-1.14-.38-1.29.68a5.51,5.51,0,0,1,1.37.46A1.17,1.17,0,0,0,562.49,304.14Zm0,9.87v-1.06h-1.06V314h1.06Zm0-15.94q-0.31,1.22.08,1.37a0.52,0.52,0,0,0,.61-0.08,0.93,0.93,0,0,0,.23-0.68Q563.4,298.22,562.49,298.07ZM565.22,330q0.3-2.12-1.06-2.73,0.46,1.82-.38,2.35a3.43,3.43,0,0,0-1.29,1.59,2.1,2.1,0,0,0,1.52-.46A3.59,3.59,0,0,1,565.22,330Zm-2.13-34.62q-0.31,2,1.06,2.13a4.6,4.6,0,0,1,0-1.67Q564.31,294.88,563.1,295.33Zm0.46,18.22a1.18,1.18,0,0,0,.23,1.52q0.68,0.76,1-.46a0.59,0.59,0,0,1-.68-0.53A0.52,0.52,0,0,0,563.55,313.55Zm1.67-2.88a0.64,0.64,0,0,1-.68-0.83q0.07-.83-1-0.68a1.66,1.66,0,0,0,.38,2Q564.77,311.89,565.22,310.67Zm0,14.88a0.73,0.73,0,0,1,.23-0.53,2,2,0,0,0,.38-0.53,0.68,0.68,0,0,1-.61-0.23,0.51,0.51,0,0,0-.46-0.23,0.72,0.72,0,0,1-.23.53,2,2,0,0,0-.38.53,0.68,0.68,0,0,1,.61.23A0.51,0.51,0,0,0,565.22,325.55Zm-0.46-9.26a4.29,4.29,0,0,0,2.73,3.8,7.29,7.29,0,0,0-1.21-2.13Q565.53,317,564.77,316.29Zm0.61-24.9a1.22,1.22,0,0,1,.61,1,1.2,1.2,0,0,0,.61,1,12,12,0,0,0-.23-1.52,1.84,1.84,0,0,0-1-1.52v1.06Zm2.73,23.23a0.55,0.55,0,0,0,0-.76,2.08,2.08,0,0,0-.68-0.46,1,1,0,0,0-.76,0,0.42,0.42,0,0,0-.23.61,0.42,0.42,0,0,1,.46.61h1.21Zm0.46,14.27a0.86,0.86,0,0,1-.61-0.3,5.88,5.88,0,0,0-.61-0.53,0.94,0.94,0,0,0-.53-0.23,0.65,0.65,0,0,0-.38.61,0.87,0.87,0,0,1,.46.3,5.3,5.3,0,0,0,.61.53,1,1,0,0,0,.61.23A0.62,0.62,0,0,0,568.56,328.89Z" transform="translate(-149.64 -251.24)"/><path class="cls-1" d="M628.69,284.25a24.75,24.75,0,0,1,9.49,9.72q3.72,6.53,3.57,17.46l-0.3,10.33A1.24,1.24,0,0,1,641,321a4.25,4.25,0,0,1-2.43,1.75,2.12,2.12,0,0,1-2.58-.68,2.87,2.87,0,0,0-.46,3.19l-3.64-.61-0.76-.76v1.21l-21.71-.3a1.21,1.21,0,0,0-.91-1.67c0,0.41-.15.61-0.46,0.61a0.59,0.59,0,0,0-.61.46,2.47,2.47,0,0,1,.61.46h-2.43a1.41,1.41,0,0,0-1.21-.3,1.14,1.14,0,0,0-.76,1.06,1.16,1.16,0,0,0,1.67.3,11.45,11.45,0,0,0,1.52,4.86v0.15a9.92,9.92,0,0,0,6.23,4.71,43,43,0,0,0,10.63,1.37,30.67,30.67,0,0,0,4.78-.08q2.66-.23,5.09-0.68c0.1,0,.15.15,0.15,0.46a3.87,3.87,0,0,0-.91,1.44,1.14,1.14,0,0,0,.15,1.29q2,0,2-1.14a2.58,2.58,0,0,0-.76-1.9,2.47,2.47,0,0,1,.68-0.15,1.22,1.22,0,0,0,.53-0.15,1.24,1.24,0,0,1,.91.3l-0.15,2.73h-0.91q-0.31,1.82.91,2.13L636,350.3a5.7,5.7,0,0,1-.15,1.37,1.93,1.93,0,0,1-.46.91,8.47,8.47,0,0,1-2,.3v-0.15h-1.06V353a15.72,15.72,0,0,1-1.59.23,14.78,14.78,0,0,0-1.59.23v-0.15h-1.06l-0.15.15q-2.73.3-5.31,0.38t-4.4.08a51.12,51.12,0,0,1-15.64-2.58,7.44,7.44,0,0,0-.68-2.58,2.62,2.62,0,0,0-1.9-1.37c0,0.51-.25.68-0.76,0.53a0.62,0.62,0,0,0-.91.53,2.39,2.39,0,0,1,2.43.83,16.54,16.54,0,0,0,1.21,1.75,19.85,19.85,0,0,1-7.74-4.55q-0.31-.91-0.76-0.61a32.37,32.37,0,0,1-3-3,19.82,19.82,0,0,1-2.35-3.49c0-1-.2-1.52-0.61-1.52q-0.76-1.67-1.37-3.42a32.42,32.42,0,0,1-1.06-3.87v-0.3a42.94,42.94,0,0,1-.76-9.87,16,16,0,0,0,.84,2.66,16.48,16.48,0,0,0,1.29,2.5,5.2,5.2,0,0,1,.08,1.52,6.71,6.71,0,0,0,0,1.44,3.07,3.07,0,0,0,.38,1.21,1.75,1.75,0,0,0,1.37.68,4.52,4.52,0,0,0,.3-3.26,4.67,4.67,0,0,0-1.67-2.66,30,30,0,0,1-1-4.78,9.78,9.78,0,0,0-1.59-4.48v-2a1.24,1.24,0,0,0,1.52.38,3.7,3.7,0,0,1,1.67-.38l0.15-1.06a0.49,0.49,0,0,1-.53-0.23,0.7,0.7,0,0,0-.38-0.38,0.92,0.92,0,0,1-1.14.61,1.22,1.22,0,0,0-1.29.46l0.15-2.13q0.15-9,3.26-15a24.6,24.6,0,0,1,8.43-9.57,0.76,0.76,0,0,0,.46,1,5.29,5.29,0,0,1,1.06.53l0.15-2.28h-0.61q0.76-.46,1.59-0.91a10.81,10.81,0,0,1,1.75-.76v0.76h1.21v-0.91h-0.3a19.44,19.44,0,0,1,4.1-1.37q2.13-.46,4.25-0.76a6.73,6.73,0,0,0-.61,2.28,4.06,4.06,0,0,0-2-.15c-0.81.1-1.21-.1-1.21-0.61a4,4,0,0,0,1.59,0q1.14-.15-0.08-0.61a3,3,0,0,0-2.12.61,1.39,1.39,0,0,0,0,1.29,4.2,4.2,0,0,0,.68.68c0.25,0.2.48,0.41,0.68,0.61a1.49,1.49,0,0,1,.3,1.06,2.8,2.8,0,0,1-.91-0.53,7.15,7.15,0,0,0-1-.68,3,3,0,0,0-1.06-.38,1.06,1.06,0,0,0-1,.53,4.62,4.62,0,0,0,1,1.82q0.83,1.06,1.75,2.13a10.61,10.61,0,0,0,1.29-2.51q0.53-1.44,2.5-1.29a2.78,2.78,0,0,1,.68-2.58,13.7,13.7,0,0,1,2-1.82,15.16,15.16,0,0,1,2.58-.15,45.31,45.31,0,0,1,6.91.83,22.49,22.49,0,0,1,6.45,2.35,0.92,0.92,0,0,0-1.21,1.14,1.75,1.75,0,0,0,.91,1.59,1,1,0,0,1,1.21-.46,1.49,1.49,0,0,0-.3-1.06A1.47,1.47,0,0,1,628.69,284.25Zm-41.6,26.57q1.67,0.46,4,1.06a4.58,4.58,0,0,0,3.57-.15q-1.06-1.37-3.57-1.14T587.09,310.82ZM591,330.41a7.34,7.34,0,0,0-.68,1.52,8.07,8.07,0,0,0-.46,2.2,4.76,4.76,0,0,0,.23,2,1.41,1.41,0,0,0,1.52.83,3.89,3.89,0,0,1-.15-1.82c0.1-.5.2-1,0.3-1.44a4.6,4.6,0,0,0,.08-1.44A4.09,4.09,0,0,0,591,330.41Zm0.46,8.81q2,0.76,3.72,1.37a3.47,3.47,0,0,1,2.2,2.88A2.92,2.92,0,0,0,597,341a5.77,5.77,0,0,0-1.82-1.67,5,5,0,0,0-2.13-.68A1.63,1.63,0,0,0,591.49,339.21Zm2.43-40.54a1.29,1.29,0,0,1-.53.83,1.27,1.27,0,0,0-.53.84,0.69,0.69,0,0,0,.83.3,1.59,1.59,0,0,0,.83-0.53,1,1,0,0,0,.23-0.83A0.89,0.89,0,0,0,593.92,298.67Zm3.8,48.59a4.11,4.11,0,0,0,.08-2,1.12,1.12,0,0,0-1.44-.68,10.12,10.12,0,0,0,.38,1.75A1.59,1.59,0,0,0,597.72,347.26Zm-0.3-8a2,2,0,0,0,.76,2q1.06,1,1.37.08a0.54,0.54,0,0,1-.76-0.3,5.86,5.86,0,0,1-.23-0.91,2.81,2.81,0,0,0-.23-0.76A0.8,0.8,0,0,0,597.41,339.21ZM598,308.39a1.05,1.05,0,0,0,.3,1.29,3.72,3.72,0,0,0,1.29.76,2.26,2.26,0,0,0,1.29.08,0.66,0.66,0,0,0,.46-0.91A5.79,5.79,0,0,0,598,308.39Zm3.8,0.15c0.3,0,.46.2,0.46,0.61h1.06a0.63,0.63,0,0,0,.08-0.76,1.41,1.41,0,0,0-.61-0.46,0.82,0.82,0,0,0-.68,0A0.61,0.61,0,0,0,601.82,308.54Zm2.43,11.39c-0.41,0-.56-0.1-0.46-0.3a4.18,4.18,0,0,1,.53-0.76,2.15,2.15,0,0,0,.46-0.76c0-.2-0.13-0.3-0.53-0.3-0.1.51-.28,0.61-0.53,0.3a1.1,1.1,0,0,0-1.14-.3,4.26,4.26,0,0,0,.61,1.9C603.58,320.46,603.94,320.54,604.25,319.93Zm0.3,10.78a13.14,13.14,0,0,1,.3,1.37,12.86,12.86,0,0,1-.3,1.37,1,1,0,0,0,1.06-.23,1.29,1.29,0,0,1,1.06-.38A2,2,0,0,0,604.55,330.71Zm17.76-22.17a18.07,18.07,0,0,0,2.66,1.06,3.89,3.89,0,0,1,2.2,1.67,7.61,7.61,0,0,0-.38-2.66q-0.38-1,1.44-1.29a3.59,3.59,0,0,1-.53-1.44,11.43,11.43,0,0,1-.08-1.29,5.09,5.09,0,0,0-.15-1.21,3.83,3.83,0,0,0-.76-1.37,1.53,1.53,0,0,1,.68-0.15,0.37,0.37,0,0,0,.38-0.46,4.59,4.59,0,0,1-1.67,0q-0.91-.15-0.46,1.06c0.4-.2.68-0.15,0.83,0.15a2.35,2.35,0,0,1,.23,1.06,2.85,2.85,0,0,1-.23,1.14,0.68,0.68,0,0,1-.53.53l-2.58-.15c0.3,0.71.25,1.14-.15,1.29a5.24,5.24,0,0,0-1.06.53q-0.15-.91-0.23-1.59c-0.05-.46-0.13-0.93-0.23-1.44,0.4-.2.46-0.56,0.15-1.06,0,0.1-.1.15-0.3,0.15a6.79,6.79,0,0,0-2.88-3.72,10.48,10.48,0,0,0-4.4-1.14,8.69,8.69,0,0,0-6.3,2.43q-2.5,2.43-2.66,10l15.64,0.3a5.86,5.86,0,0,0,1.37.61,2.65,2.65,0,0,1,.61-2.13h-0.61v-0.91ZM608,321a0.55,0.55,0,0,0,.76,0,1,1,0,0,0,.3-0.76,1.23,1.23,0,0,0-.23-0.76q-0.23-.3-0.68,0Zm2.73-34.47q-0.31.46-.91,1.21a13.88,13.88,0,0,0-1.06,1.52,2.29,2.29,0,0,0-.38,1.44,1.91,1.91,0,0,0,1.14,1.29,3.58,3.58,0,0,1,.46-1.52q0.46-.91.91-1.75a6.32,6.32,0,0,0,.61-1.44C611.63,286.88,611.38,286.63,610.77,286.53Zm-1.06,58.91q0.6,0.61.91,0.38a0.65,0.65,0,0,0,.3-0.53,0.49,0.49,0,0,0-.3-0.46A1,1,0,0,0,609.71,345.44Zm3.64-50.26a1.26,1.26,0,0,0-1.06-.46,0.37,0.37,0,0,0-.23.46,0.89,0.89,0,0,0,.46.53C612.77,295.86,613.05,295.69,613.36,295.18Zm-0.91,48a1.89,1.89,0,0,0-.38,1.37,1,1,0,0,0,1,.91,4.22,4.22,0,0,1-.08-1.37A0.85,0.85,0,0,0,612.44,343.16Zm0.61-57.7a2.36,2.36,0,0,1-.53,2.2,1,1,0,0,0,.38,1.75,1.38,1.38,0,0,1,1-1.29,1.41,1.41,0,0,0,.83-1.59,0.75,0.75,0,0,1-1.06-.23A4.14,4.14,0,0,0,613.05,285.46ZM612.44,318a5.72,5.72,0,0,1,1.59-.38,1.3,1.3,0,0,0,1.14-.68,4.33,4.33,0,0,1-2-.38Q612.44,316.14,612.44,318ZM617,298.37a2.13,2.13,0,0,0-2.58-2,1,1,0,0,0,1.06,1.29A1.68,1.68,0,0,1,617,298.37ZM617.3,285c0-1.21-.2-1.95-0.61-2.2a0.73,0.73,0,0,0-1,0,1.08,1.08,0,0,0-.15,1.14A2,2,0,0,0,617.3,285Zm-0.91.46q-0.76,1.22-.46,1.59a0.67,0.67,0,0,0,.68.3,0.74,0.74,0,0,0,.53-0.61A1.43,1.43,0,0,0,616.39,285.46Zm7.9,33.71c-0.1.81,0.1,1.24,0.61,1.29a5.72,5.72,0,0,1,1.52.38q-0.46-2.28-1.67-2.28C624.74,319.07,624.59,319.27,624.29,319.17Zm0.3-20a6.37,6.37,0,0,0-.3,1.59,1.6,1.6,0,0,0,.76,1.14c-0.2-.71-0.08-1.09.38-1.14a0.82,0.82,0,0,0,.68-1c-0.41-.2-0.56-0.4-0.46-0.61h-1.06ZM626,285.62q0,2-.15,3.95a2.69,2.69,0,0,0,1.06,2.73q-0.15-1.82.68-1.9a2,2,0,0,1,1.59.68,2.76,2.76,0,0,0-.61-3A17.3,17.3,0,0,0,626,285.62Zm3.19,28.7q-0.15-.76-0.23-1.44c-0.05-.46-0.48-0.63-1.29-0.53a3.57,3.57,0,0,1-.61.91,1,1,0,0,0,0,1.06h2.13Zm-1.82,8.2a1,1,0,0,0-.38,1.06,0.65,0.65,0,0,0,.53.3,0.5,0.5,0,0,0,.46-0.38A1,1,0,0,0,627.32,322.51Zm3-11.24a0.72,0.72,0,0,1-.53-0.23,2.07,2.07,0,0,0-.53-0.38,0.68,0.68,0,0,1-.23.61,0.51,0.51,0,0,0-.23.46,0.73,0.73,0,0,1,.53.23,2,2,0,0,0,.53.38,0.68,0.68,0,0,1,.23-0.61A0.51,0.51,0,0,0,630.36,311.28ZM629,302a0.87,0.87,0,0,0,.83-0.08,1.25,1.25,0,0,0,.3-0.68,5.62,5.62,0,0,0,.08-0.91,0.61,0.61,0,0,1,.3-0.61H629V302Zm0.61,48.13a0.6,0.6,0,0,0-.38.83,1.71,1.71,0,0,0,.76.84,1.77,1.77,0,0,0,1.14.23,0.81,0.81,0,0,0,.61-1q-1.22.46-1.29-.15A0.9,0.9,0,0,0,629.6,350.15Zm2-39.48a1.25,1.25,0,0,0-1-1.59,1,1,0,0,0-1.29,1,5.81,5.81,0,0,1,1,.61A1.39,1.39,0,0,0,631.58,310.67Zm-2-16.7a2.38,2.38,0,0,0-.08,2q0.38,0.46.68-.46a4,4,0,0,0-.23-2C629.83,293.41,629.7,293.56,629.6,294Zm5.47,22.17a1.22,1.22,0,0,0-.38-1.29,2.67,2.67,0,0,0-1.29-.46,9.34,9.34,0,0,0-1.67,0,4.68,4.68,0,0,1-1.52-.08,2.86,2.86,0,0,1-.46,2.28,4.11,4.11,0,0,0,1.52-.53,8.6,8.6,0,0,1,1.14-.61,2.17,2.17,0,0,1,1.14-.15A3.31,3.31,0,0,1,635.07,316.13Zm-0.76-16.4c0-.91-0.18-1.37-0.53-1.37a3.9,3.9,0,0,0-1.06.15,2.58,2.58,0,0,0-.91.46,0.64,0.64,0,0,0-.23.76h2.73Zm3.49-5.62q-0.61-.3-1.37-0.61a5.84,5.84,0,0,1-1.37-.76,1.56,1.56,0,0,1-.68-1.06,1.76,1.76,0,0,1,.68-1.37l-1.67-.15a0.68,0.68,0,0,1-.23.61,2.57,2.57,0,0,0-.38.3,2.69,2.69,0,0,1,1.06,1.06,9.51,9.51,0,0,0,1.06,1.44,3.81,3.81,0,0,0,1.29,1A1.52,1.52,0,0,0,637.8,294.12Zm-3.34,29.61a1.77,1.77,0,0,0,.38-1.29,1.23,1.23,0,0,0-1-1,3.69,3.69,0,0,1,.08,1.29A0.9,0.9,0,0,0,634.46,323.73ZM639,321a4.93,4.93,0,0,1,.38-2,7.53,7.53,0,0,1,1-1.59,1.67,1.67,0,0,0-1.44.76,15.88,15.88,0,0,0-.91,1.44,2,2,0,0,1-.91.91c-0.36.15-.83-0.17-1.44-1q-0.31,2.13.76,1.9A24.06,24.06,0,0,1,639,321Zm-2.88-7a3.15,3.15,0,0,1,.15,1,0.64,0.64,0,0,0,.46.68c0-.51.2-0.71,0.61-0.61Q636.89,313.71,636.13,314Zm3.8-.91a1.83,1.83,0,0,0-1.21-2.2,1.81,1.81,0,0,0-2.43.53,8.81,8.81,0,0,1,2,.76Q639.17,312.64,639.93,313.1Zm-2-8.65q0.46-2-1.52-1.67A1.41,1.41,0,0,0,638,304.44Zm1.21,19a1.92,1.92,0,0,1,.46.83,3.36,3.36,0,0,1,.15.84h-1.37a2.31,2.31,0,0,1,.23-0.84A2.63,2.63,0,0,1,639.17,323.42Z" transform="translate(-149.64 -251.24)"/></svg>