<svg id="Layer_1" data-name="Layer 1" xmlns="http://www.w3.org/2000/svg" viewBox="0 0 300 44.5"><defs><style>.cls-1{fill:#fff;}</style></defs><title>welcome</title><path class="cls-1" d="M408,87.2a14.6,14.6,0,0,1-3,1.21,14.76,14.76,0,0,1-3.93.46,10.1,10.1,0,0,1-4.83-1.41,45.45,45.45,0,0,1-11.79,8,7.32,7.32,0,0,1-2.52.71,11.23,11.23,0,0,1-1.59-.11q-0.75-.11-1.48-0.27a8.71,8.71,0,0,1-2.32-.8,6.46,6.46,0,0,1-1.15-1,6.56,6.56,0,0,1-1.06-1.58,14.79,14.79,0,0,1-1.4-5.46q-6.76,5.81-8.26,6.79a18.54,18.54,0,0,1-2.47,1.41,9.16,9.16,0,0,1-3.84.82,7.09,7.09,0,0,1-3.58-.87,8.94,8.94,0,0,1-2.58-2.2A9.66,9.66,0,0,1,350,86.78a18,18,0,0,1,2.18-8.4,16.86,16.86,0,0,1,9.17-8.53,9.82,9.82,0,0,1,3.34-.73,14.84,14.84,0,0,1,2.17.12,4.76,4.76,0,0,1,1.43.45A2.44,2.44,0,0,1,369.79,72a5.05,5.05,0,0,1-1.17,3q-1.17,1.58-2,2.55a24.76,24.76,0,0,0-1.54,2,7.42,7.42,0,0,0-1.65,4q0,1.25,1.7,1.25,2.65,0,8.33-5.11a16.15,16.15,0,0,1,3.77-6.57,8.75,8.75,0,0,1,6.43-3q3,0,4,1.33a1.32,1.32,0,0,1,.36.83,2.39,2.39,0,0,1-.48,1.13l-2.68,4.08q-3.13,4.75-3.13,7.12,0,2.09,2.63,2.09,2,0,7.07-4.81a5.77,5.77,0,0,1-.2-1.49,4.5,4.5,0,0,1,.38-1.68,11.91,11.91,0,0,1,1-2,18.87,18.87,0,0,1,1.57-2.06,15.51,15.51,0,0,1,1.93-1.87,7.2,7.2,0,0,1,4.39-1.85q3.77,0,3.77,3.72a10.4,10.4,0,0,1-1.4,4.94,1.71,1.71,0,0,0,1,1.44,1.4,1.4,0,0,0,.8.19A3.17,3.17,0,0,0,406,80.8a13.94,13.94,0,0,0,1.68-1q0.84-.6,1.56-1.21t1.48-1.21q2.49-1.87,3.72-1.87a1.94,1.94,0,0,1,1.37.49,2.33,2.33,0,0,1,1,1.28,2.05,2.05,0,0,1-.22.9,11.7,11.7,0,0,1-.59,1q-0.36.58-.84,1.21-1.93,2.55-2.72,3.38a24,24,0,0,1-1.9,1.75A14.89,14.89,0,0,1,408,87.2Z" transform="translate(-350 -51.92)"/><path class="cls-1" d="M449.12,75.15a1.24,1.24,0,0,1,1.34,1.47,6.17,6.17,0,0,1-.68,2.46,9.71,9.71,0,0,1-2,2.77q-1.29,1.29-2.95,2.68T441,87.43q-2.22,1.52-4.9,3a48,48,0,0,1-5.7,2.69,34.84,34.84,0,0,1-12.94,2.66,14.56,14.56,0,0,1-8.36-2.42q-3.74-2.53-3.74-6.14,0-5.68,6.29-10.79a39.74,39.74,0,0,1,12.77-6.82A25.09,25.09,0,0,1,432,68.17a7.3,7.3,0,0,1,4.25,1.2,4.08,4.08,0,0,1,1.84,3.5q0,3.45-5.62,7.63-0.89.68-1.62,1.14l-1,.65a49.68,49.68,0,0,1-8.5,4.27,7.28,7.28,0,0,0,3.28.9,9.81,9.81,0,0,0,2.74-.35,25,25,0,0,0,2.75-1q1.54-.65,3.28-1.56t3.54-2a51.38,51.38,0,0,0,6.93-4.94,11.17,11.17,0,0,1,3.91-2.2A4.68,4.68,0,0,1,449.12,75.15ZM418.3,82.78l1.54-.76q0.75-.38,1.34-0.71a55.13,55.13,0,0,0,6.43-3.89,2.18,2.18,0,0,0,.78-1,1.69,1.69,0,0,0-.17-0.67,2.42,2.42,0,0,0-.45-0.68,1.91,1.91,0,0,0-1.43-.76,5.85,5.85,0,0,0-1.66.27,10.68,10.68,0,0,0-1.83.75,11.28,11.28,0,0,0-1.77,1.14,10,10,0,0,0-1.5,1.43,4.92,4.92,0,0,0-1.48,3A7.32,7.32,0,0,0,418.3,82.78Z" transform="translate(-350 -51.92)"/><path class="cls-1" d="M476.76,75.94q1.79,0,1.79,1.44,0,1.77-2.18,4.21a65.22,65.22,0,0,1-8.5,7.93q-8,6.19-14.22,6.19a8.87,8.87,0,0,1-7.38-3.8q-3-4-3-10.65,0-8.78,8.8-19.4,5.59-6.76,10.54-9.18a6,6,0,0,1,2.36-.76,4.25,4.25,0,0,1,1.51.26,4.77,4.77,0,0,1,1.27.72,3.36,3.36,0,0,1,1.37,2.69,10,10,0,0,1-.89,3.74,24.73,24.73,0,0,1-2.6,4.61,45.9,45.9,0,0,1-9.75,9.94A14.83,14.83,0,0,0,454.29,81a5.82,5.82,0,0,0,1.23,3.53,3.52,3.52,0,0,0,2.77,1.66q2.07,0,7.91-4.16l5-3.72A9.43,9.43,0,0,1,476.76,75.94Z" transform="translate(-350 -51.92)"/><path class="cls-1" d="M512,77.59q0,1.28-3.44,4.94a44.45,44.45,0,0,1-6.9,6.06,38.5,38.5,0,0,1-14.5,6.47,26.08,26.08,0,0,1-5.71.68,18.66,18.66,0,0,1-4.47-.45,14.23,14.23,0,0,1-3.19-1.2,11.06,11.06,0,0,1-2.45-1.73,11.18,11.18,0,0,1-1.73-2.06,7.34,7.34,0,0,1-1.37-3.91,11.07,11.07,0,0,1,.41-3.15,11.45,11.45,0,0,1,1.13-2.58q2.54-4.46,10.23-7.88a43.75,43.75,0,0,1,11.57-3.56,26.55,26.55,0,0,1,3.38-.35,6,6,0,0,1,1.69.2,4.08,4.08,0,0,1,1.19.56A2.49,2.49,0,0,1,499,71.78a4.9,4.9,0,0,1-.73,2.57,6.84,6.84,0,0,1-1.84,2,8.1,8.1,0,0,1-4.86,1.58,16.83,16.83,0,0,1-6-.92,5.86,5.86,0,0,0-2.79,2.09,3.87,3.87,0,0,0-1,2.24,4.32,4.32,0,0,0,.46,1.93,5.35,5.35,0,0,0,1.3,1.67A6.61,6.61,0,0,0,488,86.53q6,0,14.06-6.22l2.54-1.93q4-3,5.74-3T512,77.59Z" transform="translate(-350 -51.92)"/><path class="cls-1" d="M535.14,78.38q0,1.47,2.57,1.47a10.73,10.73,0,0,0,5-1.79l2.24-1.2a3.86,3.86,0,0,1,1.8-.57,1.61,1.61,0,0,1,1.22.46,1.76,1.76,0,0,1,.45,1.28,4.21,4.21,0,0,1-.56,1.89,13,13,0,0,1-1.54,2.25A20.73,20.73,0,0,1,544,84.51a20.35,20.35,0,0,1-2.82,2.08,12.16,12.16,0,0,1-6.23,2,10,10,0,0,1-4.86-1q-0.56-.33-1.09-0.68A28.24,28.24,0,0,1,520.33,93q-6,2.93-10.54,2.93a8.86,8.86,0,0,1-7.46-3.61,9.83,9.83,0,0,1-2.21-5.95q0-4.35,4.78-8.29a31.59,31.59,0,0,1,6.81-4.37,50,50,0,0,1,5.94-2.31,35.1,35.1,0,0,1,10.12-1.71A8.8,8.8,0,0,1,533.69,72a5.79,5.79,0,0,1,1.79,4.37,3.52,3.52,0,0,1-.17,1.22A2.27,2.27,0,0,0,535.14,78.38Zm-22.86,5.13,0,0.08v0a1.73,1.73,0,0,0,.53,1.52,3.44,3.44,0,0,0,2.71.39,19.29,19.29,0,0,0,2.71-.91A24.28,24.28,0,0,0,524,81.26a3.87,3.87,0,0,1-.45-1.79,5.9,5.9,0,0,1,1.76-3.91q-2.24,0-6,2A22.5,22.5,0,0,0,513,82.24,2.37,2.37,0,0,0,512.28,83.52Z" transform="translate(-350 -51.92)"/><path class="cls-1" d="M596.57,80.23q0,4,2.57,4,1.79,0,6.18-3,4-2.85,4.72-3.59a5.68,5.68,0,0,1,3.63-1.41,2,2,0,0,1,1.38.53,2.06,2.06,0,0,1,.57,1.59,3.63,3.63,0,0,1-.53,1.93A12.54,12.54,0,0,1,613.74,82q-0.82.92-2,2.06t-2.78,2.4q-1.57,1.26-3.42,2.51a36.17,36.17,0,0,1-3.84,2.25,18.41,18.41,0,0,1-8.08,2.23A5.54,5.54,0,0,1,588,89.85a13.11,13.11,0,0,1-.87-5L579,90.17q-8.36,5.71-9.95,6.06a7.15,7.15,0,0,1-1.64.19,7.71,7.71,0,0,1-1.55-.15,3.84,3.84,0,0,1-1.29-.5,2.36,2.36,0,0,1-1.29-2.17,12.12,12.12,0,0,1,.78-2.77l2.4-6.41a18.55,18.55,0,0,0,1.12-3.72,0.22,0.22,0,0,0-.28-0.22,2.4,2.4,0,0,0-1,.57q-0.75.57-1.82,1.47l-6.65,5.65L554.29,91q-5.37,4.16-8.75,4.16a5,5,0,0,1-3.21-1.39,4.45,4.45,0,0,1-1.76-3.53,27.77,27.77,0,0,1,.41-4.51A31,31,0,0,1,542.13,81,24.63,24.63,0,0,1,544,76.74a16.5,16.5,0,0,1,2.54-3.46,9.72,9.72,0,0,1,7.25-3.21q4.18,0,4.18,2.39a7.71,7.71,0,0,1-1.15,3.15,39.66,39.66,0,0,0-2.43,5,0.71,0.71,0,0,0,.24.57,0.78,0.78,0,0,0,.52.2,3.14,3.14,0,0,0,1.68-.92q7.18-6.11,9-7.58t3.59-2.58q4-2.53,6.32-2.53a7.05,7.05,0,0,1,3.13.6q2.1,1.06,2.1,2.39a14,14,0,0,1-.38,3q-0.38,1.68-.82,3.26L579,79.85a6.45,6.45,0,0,0-.39,1.83,0.53,0.53,0,0,0,.56.64q1.34,0,5.34-3.69l2.71-2.47q4.67-4.08,7.07-4.08a2.85,2.85,0,0,1,2,.87,4.14,4.14,0,0,1,1.57,2.66,4.67,4.67,0,0,1-.45,1.68A8.63,8.63,0,0,0,596.57,80.23Z" transform="translate(-350 -51.92)"/><path class="cls-1" d="M648.66,75.15A1.24,1.24,0,0,1,650,76.61a6.17,6.17,0,0,1-.68,2.46,9.71,9.71,0,0,1-2,2.77q-1.29,1.29-2.95,2.68t-3.88,2.91q-2.22,1.52-4.9,3a48.06,48.06,0,0,1-5.7,2.69A34.84,34.84,0,0,1,617,95.8a14.56,14.56,0,0,1-8.36-2.42q-3.74-2.53-3.75-6.14,0-5.68,6.29-10.79a39.74,39.74,0,0,1,12.77-6.82,25.09,25.09,0,0,1,7.57-1.47,7.3,7.3,0,0,1,4.25,1.2,4.08,4.08,0,0,1,1.84,3.5q0,3.45-5.62,7.63-0.89.68-1.62,1.14l-1,.65a49.69,49.69,0,0,1-8.5,4.27,7.28,7.28,0,0,0,3.28.9,9.81,9.81,0,0,0,2.74-.35,25,25,0,0,0,2.75-1q1.54-.65,3.28-1.56t3.54-2a51.35,51.35,0,0,0,6.93-4.94,11.17,11.17,0,0,1,3.91-2.2A4.67,4.67,0,0,1,648.66,75.15Zm-30.82,7.63,1.54-.76q0.75-.38,1.34-0.71a55.11,55.11,0,0,0,6.43-3.89,2.18,2.18,0,0,0,.78-1,1.7,1.7,0,0,0-.17-0.67,2.42,2.42,0,0,0-.45-0.68,1.91,1.91,0,0,0-1.43-.76,5.85,5.85,0,0,0-1.66.27,10.69,10.69,0,0,0-1.83.75,11.29,11.29,0,0,0-1.77,1.14,10,10,0,0,0-1.5,1.43,4.92,4.92,0,0,0-1.48,3A7.32,7.32,0,0,0,617.83,82.78Z" transform="translate(-350 -51.92)"/></svg>